<?xml version="1.0" encoding="utf-8"?>
<!-- Generator: Adobe Illustrator 23.0.0, SVG Export Plug-In . SVG Version: 6.00 Build 0)  -->
<svg version="1.1" id="Слой_1" xmlns="http://www.w3.org/2000/svg" xmlns:xlink="http://www.w3.org/1999/xlink" x="0px" y="0px"
	 viewBox="0 0 71.5 80" style="enable-background:new 0 0 71.5 80;" xml:space="preserve">
<style type="text/css">
	.st0{fill:#FF8138;}
</style>
<title>pref_4</title>
<g>
	<g id="Layer_1">
		<path class="st0" d="M35.7,76.6C16,76.6,0,60.7,0,40.9c0-9,3.4-17.6,9.5-24.2l2,1.8C-0.9,31.9,0,52.8,13.4,65.2s34.3,11.5,46.6-2
			c11.6-12.6,11.6-32,0-44.7l2-1.8c13.4,14.5,12.5,37.1-2,50.5C53.4,73.3,44.8,76.7,35.7,76.6L35.7,76.6z"/>
		<polygon class="st0" points="60,49.4 55.3,44.6 50.5,49.4 48.6,47.5 55.3,40.8 62,47.5 		"/>
		<rect x="21.9" y="6.9" class="st0" width="27.8" height="2.7"/>
		<rect x="24.5" y="-2" transform="matrix(0.774 -0.6332 0.6332 0.774 -2.5872 19.37)" class="st0" width="2.7" height="30.7"/>
		<path class="st0" d="M20,37.5L13,8.2L15.2,0h41.1l2.2,8.2l-7,29.3L35.7,26.9L20,37.5z M35.8,23.5l14,9.5l5.9-24.8l-1.5-5.5H17.3
			l-1.5,5.5l5.9,24.8L35.8,23.5z"/>
		<rect x="30.1" y="11.9" transform="matrix(0.6332 -0.774 0.774 0.6332 6.413 40.0814)" class="st0" width="30.8" height="2.7"/>
		<polygon class="st0" points="39,40.2 32.5,40.2 28,30.1 30.5,29 34.2,37.5 37.3,37.5 41,29 43.5,30.1 		"/>
		<polygon class="st0" points="24.2,80 21.6,79.3 32.3,37.5 39.2,37.5 49.9,79.3 47.3,80 37.1,40.2 34.4,40.2 		"/>
	</g>
</g>
</svg>
