<?xml version="1.0" encoding="utf-8"?>
<!-- Generator: Adobe Illustrator 23.0.0, SVG Export Plug-In . SVG Version: 6.00 Build 0)  -->
<svg version="1.1" id="Слой_1" xmlns="http://www.w3.org/2000/svg" xmlns:xlink="http://www.w3.org/1999/xlink" x="0px" y="0px"
	 viewBox="0 0 76.7 80" style="enable-background:new 0 0 76.7 80;" xml:space="preserve">
<style type="text/css">
	.st0{fill:#FF8138;}
</style>
<title>pref_6</title>
<g>
	<g id="Layer_1">
		<path class="st0" d="M4.9,51.6H0V37.8C0,20.7,13.9,6.9,30.9,6.9v2.7C15.3,9.5,2.7,22.2,2.7,37.8v11.1h2.2V51.6z"/>
		<path class="st0" d="M61.9,51.6H57v-2.7h2.2V37.8c0-2.2-0.3-4.4-0.8-6.5l2.5-0.6c0.6,2.3,0.8,4.8,0.8,7.2L61.9,51.6z"/>
		<path class="st0" d="M14.7,21.6l-1.9-1.9c4.8-4.8,11.3-7.5,18.1-7.5v2.7C24.9,14.8,19,17.3,14.7,21.6z"/>
		<path class="st0" d="M49.9,62.5c-3,0-5.5-2.5-5.5-5.5V43.4c0-3,2.5-5.5,5.5-5.5s5.5,2.5,5.5,5.5v3.8h-2.7v-3.8
			c0-1.6-1.3-2.8-2.8-2.8c-1.6,0-2.8,1.3-2.8,2.8c0,0,0,0,0,0V57c0,1.6,1.3,2.8,2.8,2.8c1.6,0,2.8-1.3,2.8-2.8c0,0,0,0,0,0v-3.8h2.7
			V57C55.4,60.1,52.9,62.5,49.9,62.5z"/>
		<path class="st0" d="M54,54.5c-2.4,0-4.3-1.9-4.3-4.3c0-2.4,1.9-4.3,4.3-4.3c2.4,0,4.3,1.9,4.3,4.3c0,0,0,0,0,0
			C58.3,52.6,56.4,54.5,54,54.5z M54,48.6c-0.9,0-1.6,0.7-1.6,1.6c0,0.9,0.7,1.6,1.6,1.6c0.9,0,1.6-0.7,1.6-1.6S54.9,48.6,54,48.6
			C54,48.6,54,48.6,54,48.6z"/>
		<path class="st0" d="M12,62.5c-3,0-5.5-2.5-5.5-5.5v-3.8h2.7V57c0,1.6,1.3,2.8,2.8,2.8s2.8-1.3,2.8-2.8l0,0V43.4
			c0-1.6-1.3-2.8-2.8-2.8s-2.8,1.3-2.8,2.8v3.8H6.5v-3.8c0-3,2.4-5.5,5.5-5.5c1.5,0,2.9,0.6,3.9,1.6c1,1,1.6,2.4,1.6,3.9V57
			C17.5,60.1,15,62.5,12,62.5z"/>
		<path class="st0" d="M7.8,54.5c-2.4,0-4.3-1.9-4.3-4.3s1.9-4.3,4.3-4.3s4.3,1.9,4.3,4.3l0,0C12.1,52.6,10.2,54.5,7.8,54.5z
			 M7.8,48.6c-0.9,0-1.6,0.7-1.6,1.6c0,0.9,0.7,1.6,1.6,1.6s1.6-0.7,1.6-1.6S8.7,48.6,7.8,48.6C7.8,48.6,7.8,48.6,7.8,48.6z"/>
		<path class="st0" d="M36.7,80h-7.3c-2.4-0.1-4.2-2.1-4.1-4.5c0.1-2.2,1.9-4,4.1-4.1h7.3V80z M29.5,74.1c-0.9,0-1.6,0.7-1.6,1.6
			c0,0.9,0.7,1.6,1.6,1.6l0,0H34v-3.3H29.5z"/>
		<path class="st0" d="M35.4,77v-2.6c9.6,0,17.3-7.8,17.3-17.3h2.7C55.3,68.1,46.4,77,35.4,77z"/>
		<path class="st0" d="M34,41.3v-9h-4.4V0h47.1v32.3H43L34,41.3z M32.3,29.6h4.4v5.2l5.2-5.2H74v-27H32.3V29.6z"/>
		<rect x="39.5" y="8.9" class="st0" width="10.4" height="2.7"/>
		<rect x="39.5" y="14.8" class="st0" width="27.2" height="2.7"/>
		<rect x="39.5" y="20.7" class="st0" width="21" height="2.7"/>
	</g>
</g>
</svg>
