<svg xmlns="http://www.w3.org/2000/svg" viewBox="0 0 82 71.97"><defs><style>.cls-1{fill:none;stroke:#ff8138;stroke-miterlimit:10;stroke-width:2px;}</style></defs><title>pref_2</title><g id="Слой_2" data-name="Слой 2"><g id="Layer_1" data-name="Layer 1"><path class="cls-1" d="M51.32,57.77H4.87a3.85,3.85,0,0,1-2.74-1.13A3.89,3.89,0,0,1,1,53.9V47.45H51.32"/><line class="cls-1" x1="51.32" y1="70.68" x2="22.94" y2="70.68"/><line class="cls-1" x1="46.16" y1="70.68" x2="46.16" y2="57.77"/><line class="cls-1" x1="28.1" y1="57.77" x2="28.1" y2="70.68"/><line class="cls-1" x1="33.26" y1="52.61" x2="41" y2="52.61"/><path class="cls-1" d="M73.26,25.52V4.87A3.88,3.88,0,0,0,69.39,1H4.87A3.86,3.86,0,0,0,1,4.87V47.45"/><polyline class="cls-1" points="68.1 25.52 68.1 6.16 6.16 6.16 6.16 42.29 53.9 42.29"/><polyline class="cls-1" points="55.19 71.97 55.19 47.45 81 47.45 81 71.97"/><line class="cls-1" x1="59.06" y1="70.68" x2="77.13" y2="70.68"/><path class="cls-1" d="M78.42,47.45V39.71a10.33,10.33,0,0,0-20.65,0v7.74"/><path class="cls-1" d="M73.26,43.58V39.71a5.16,5.16,0,1,0-10.32,0v3.87"/><line class="cls-1" x1="61.65" y1="52.61" x2="64.23" y2="52.61"/><line class="cls-1" x1="66.81" y1="52.61" x2="69.39" y2="52.61"/><line class="cls-1" x1="71.97" y1="52.61" x2="74.55" y2="52.61"/><line class="cls-1" x1="61.65" y1="57.77" x2="64.23" y2="57.77"/><line class="cls-1" x1="66.81" y1="57.77" x2="69.39" y2="57.77"/><line class="cls-1" x1="71.97" y1="57.77" x2="74.55" y2="57.77"/><line class="cls-1" x1="61.65" y1="62.94" x2="64.23" y2="62.94"/><line class="cls-1" x1="66.81" y1="62.94" x2="69.39" y2="62.94"/><line class="cls-1" x1="71.97" y1="62.94" x2="74.55" y2="62.94"/><circle class="cls-1" cx="37.13" cy="24.23" r="12.9"/><polyline class="cls-1" points="44.87 20.36 35.84 29.39 30.68 24.23"/></g></g></svg>