<svg xmlns="http://www.w3.org/2000/svg" viewBox="0 0 80 80"><defs><style>.cls-1{fill:#ff8138;}</style></defs><title>pref_3</title><g id="Слой_2" data-name="Слой 2"><g id="Layer_1" data-name="Layer 1"><path class="cls-1" d="M40,61,21.8,50.51v-21L40,19,58.2,29.49v21ZM24.38,49,40,58l15.62-9V31L40,22,24.38,31Z"/><polygon class="cls-1" points="40 41.49 22.44 31.35 23.73 29.12 40 38.51 56.27 29.12 57.56 31.35 40 41.49"/><rect class="cls-1" x="38.71" y="40" width="2.58" height="19.53"/><polygon class="cls-1" points="22.44 31.35 17.86 28.71 12.57 28.71 12.57 26.13 18.55 26.13 23.73 29.12 22.44 31.35"/><polygon class="cls-1" points="57.56 31.35 56.27 29.12 61.45 26.13 67.43 26.13 67.43 28.71 62.14 28.71 57.56 31.35"/><polygon class="cls-1" points="67.43 53.88 61.45 53.88 56.27 50.88 57.56 48.65 62.14 51.3 67.43 51.3 67.43 53.88"/><polygon class="cls-1" points="18.55 53.88 12.57 53.88 12.57 51.3 17.86 51.3 22.44 48.65 23.73 50.88 18.55 53.88"/><rect class="cls-1" x="38.71" y="12.57" width="2.58" height="7.91"/><rect class="cls-1" x="38.71" y="59.53" width="2.58" height="7.91"/><rect class="cls-1" x="12.57" y="9.84" width="2.87" height="2.58"/><rect class="cls-1" x="64.57" y="9.84" width="2.87" height="2.58"/><rect class="cls-1" x="12.57" y="67.58" width="2.87" height="2.58"/><rect class="cls-1" x="64.57" y="67.58" width="2.87" height="2.58"/><path class="cls-1" d="M46.93,13.86H33.07V0H46.93ZM35.65,11.28h8.7V2.58h-8.7Z"/><path class="cls-1" d="M46.93,80H33.07V66.14H46.93ZM35.65,77.42h8.7v-8.7h-8.7Z"/><path class="cls-1" d="M13.86,34.2H0V20.35H13.86ZM2.58,31.62h8.7V22.93H2.58Z"/><path class="cls-1" d="M13.86,59.65H0V45.8H13.86ZM2.58,57.07h8.7V48.38H2.58Z"/><path class="cls-1" d="M80,34.2H66.14V20.35H80ZM68.72,31.62h8.7V22.93h-8.7Z"/><path class="cls-1" d="M80,59.65H66.14V45.8H80ZM68.72,57.07h8.7V48.38h-8.7Z"/></g></g></svg>