<svg xmlns="http://www.w3.org/2000/svg" viewBox="0 0 72 65"><defs><style>.cls-1{fill:none;stroke:#ff8138;stroke-miterlimit:10;stroke-width:2px;}</style></defs><title>pref_1</title><g id="Слой_2" data-name="Слой 2"><g id="Layer_1" data-name="Layer 1"><rect class="cls-1" x="1" y="10.33" width="70" height="53.67"/><rect class="cls-1" x="1" y="1" width="70" height="9.33"/><line class="cls-1" x1="4.5" y1="5.67" x2="6.83" y2="5.67"/><line class="cls-1" x1="9.17" y1="5.67" x2="11.5" y2="5.67"/><line class="cls-1" x1="13.83" y1="5.67" x2="16.17" y2="5.67"/><line class="cls-1" x1="18.5" y1="5.67" x2="67.5" y2="5.67"/><rect class="cls-1" x="5.67" y="34.83" width="14" height="14"/><path class="cls-1" d="M17.33,34.83V30.17a4.67,4.67,0,0,0-9.33,0v4.66"/><polyline class="cls-1" points="5.67 22 5.67 15 66.33 15 66.33 22"/><polyline class="cls-1" points="5.67 52.33 5.67 59.33 66.33 59.33 66.33 52.33"/><rect class="cls-1" x="33.67" y="25.5" width="32.67" height="9.33"/><line class="cls-1" x1="37.17" y1="30.17" x2="44.17" y2="30.17"/><line class="cls-1" x1="46.5" y1="30.17" x2="53.5" y2="30.17"/><line class="cls-1" x1="55.83" y1="30.17" x2="62.83" y2="30.17"/><rect class="cls-1" x="24.33" y="25.5" width="9.33" height="9.33"/><rect class="cls-1" x="33.67" y="39.5" width="32.67" height="9.33"/><line class="cls-1" x1="37.17" y1="44.17" x2="39.5" y2="44.17"/><line class="cls-1" x1="41.83" y1="44.17" x2="44.17" y2="44.17"/><line class="cls-1" x1="46.5" y1="44.17" x2="48.83" y2="44.17"/><line class="cls-1" x1="51.17" y1="44.17" x2="53.5" y2="44.17"/><line class="cls-1" x1="55.83" y1="44.17" x2="58.17" y2="44.17"/><line class="cls-1" x1="60.5" y1="44.17" x2="62.83" y2="44.17"/><rect class="cls-1" x="24.33" y="39.5" width="9.33" height="9.33"/></g></g></svg>