<svg xmlns="http://www.w3.org/2000/svg" viewBox="0 0 54.6 54.6"><defs><style>.cls-1{fill:#ff8138;}</style></defs><title>pref_5</title><g id="Слой_2" data-name="Слой 2"><g id="Layer_1" data-name="Layer 1"><path class="cls-1" d="M45.54,28.35a1,1,0,0,1-1-1.05,17,17,0,0,0-.23-2.79A17.31,17.31,0,0,0,31,10.51a1.05,1.05,0,1,1,.46-2A19.43,19.43,0,0,1,46.34,24.17a20.23,20.23,0,0,1,.25,3.13A1,1,0,0,1,45.54,28.35Z"/><path class="cls-1" d="M23.36,46.16l-.23,0A19.42,19.42,0,0,1,8.27,30.44,19.19,19.19,0,0,1,8,27.3a1,1,0,1,1,2.1,0A17.12,17.12,0,0,0,23.58,44.09a1,1,0,0,1-.22,2.07Z"/><path class="cls-1" d="M9.49,24.4l-.23,0a1.06,1.06,0,0,1-.8-1.25A19.47,19.47,0,0,1,24.16,8.26,20.36,20.36,0,0,1,27.3,8a1,1,0,1,1,0,2.1A17.2,17.2,0,0,0,10.51,23.58,1,1,0,0,1,9.49,24.4Z"/><path class="cls-1" d="M27.3,46.59a1.05,1.05,0,1,1,0-2.1,17,17,0,0,0,2.79-.23A17.3,17.3,0,0,0,44.09,31a1,1,0,1,1,2,.45A19.42,19.42,0,0,1,30.43,46.33,19.07,19.07,0,0,1,27.3,46.59Z"/><path class="cls-1" d="M53.55,28.35H42.48a1.05,1.05,0,1,1,0-2.1H53.55a1.05,1.05,0,1,1,0,2.1Z"/><path class="cls-1" d="M12.12,28.35H1.05a1.05,1.05,0,0,1,0-2.1H12.12a1.05,1.05,0,0,1,0,2.1Z"/><path class="cls-1" d="M27.3,13.17a1,1,0,0,1-1.05-1.05V1.05a1.05,1.05,0,0,1,2.1,0V12.12A1,1,0,0,1,27.3,13.17Z"/><path class="cls-1" d="M27.3,54.6a1,1,0,0,1-1.05-1.05V42.48a1.05,1.05,0,0,1,2.1,0V53.55A1,1,0,0,1,27.3,54.6Z"/><path class="cls-1" d="M49.52,22.22a1,1,0,0,1-1-.77A22.07,22.07,0,0,0,33.15,6.1a1.07,1.07,0,0,1-.73-1.3,1,1,0,0,1,1.29-.73A24.17,24.17,0,0,1,50.53,20.89a1.05,1.05,0,0,1-.73,1.29A1,1,0,0,1,49.52,22.22Z"/><path class="cls-1" d="M21.17,50.57a.9.9,0,0,1-.28,0A24.15,24.15,0,0,1,4.07,33.71a1,1,0,1,1,2-.55A22.09,22.09,0,0,0,21.45,48.51a1,1,0,0,1-.28,2.06Z"/><path class="cls-1" d="M5.08,22.22a1,1,0,0,1-.28,0,1,1,0,0,1-.73-1.29A24.16,24.16,0,0,1,20.89,4.08a1.05,1.05,0,0,1,.55,2A22,22,0,0,0,6.09,21.45,1,1,0,0,1,5.08,22.22Z"/><path class="cls-1" d="M33.43,50.57a1,1,0,0,1-.28-2.06A22,22,0,0,0,48.49,33.16a1.05,1.05,0,1,1,2,.55A24.16,24.16,0,0,1,33.71,50.53.9.9,0,0,1,33.43,50.57Z"/><path class="cls-1" d="M27.3,38.16a1,1,0,0,1-.49-.12l-4.87-2.55a6.11,6.11,0,0,1-3.35-5.66L19,19.77a1,1,0,0,1,.74-1L27,16.49a1,1,0,0,1,.64,0l7.29,2.32a1,1,0,0,1,.73,1L36,29.83a6.14,6.14,0,0,1-3.34,5.66L27.79,38A1.07,1.07,0,0,1,27.3,38.16ZM21,20.59l-.34,9.32a4,4,0,0,0,2.22,3.72l4.39,2.3,4.39-2.3a4,4,0,0,0,2.22-3.72l-.34-9.32-6.27-2Z"/></g></g></svg>