<?xml version="1.0" encoding="UTF-8" standalone="no"?>
<svg
   xmlns:dc="http://purl.org/dc/elements/1.1/"
   xmlns:cc="http://creativecommons.org/ns#"
   xmlns:rdf="http://www.w3.org/1999/02/22-rdf-syntax-ns#"
   xmlns:svg="http://www.w3.org/2000/svg"
   xmlns="http://www.w3.org/2000/svg"
   id="svg8"
   version="1.1"
   viewBox="0 0 13.493993 13.491324"
   height="13.491323mm"
   width="13.493993mm">
  <defs
     id="defs2" />
  <metadata
     id="metadata5">
    <rdf:RDF>
      <cc:Work
         rdf:about="">
        <dc:format>image/svg+xml</dc:format>
        <dc:type
           rdf:resource="http://purl.org/dc/dcmitype/StillImage" />
        <dc:title></dc:title>
      </cc:Work>
    </rdf:RDF>
  </metadata>
  <g
     transform="translate(-0.49592783,-0.3104226)"
     id="layer1">
    <path
       id="path839"
       d="m 6.4626588,13.797543 c -0.37439,-0.0501 -0.68276,-0.30549 -0.80328,-0.6652 -0.0502,-0.14984 -0.047,-0.0578 -0.0498,-1.45172 -0.002,-1.03374 -0.004,-1.26138 -0.0122,-1.26138 -0.005,0 -0.03,-0.0101 -0.0547,-0.0225 -0.0513,-0.0256 -0.0884,-0.0632 -0.11823,-0.11986 l -0.0206,-0.0392 -0.004,-0.5223302 -0.004,-0.5223302 -0.0268,-0.0667 c -0.17983,-0.4466 -0.41887,-0.77142 -0.81603,-1.1089 -0.25554,-0.21713 -0.42604,-0.3867 -0.60213,-0.59887 l -0.0646,-0.0778 -0.0713,-0.009 c -0.5764,-0.0697 -1.15429,0.21824 -1.45157,0.72327 -0.0526,0.0894 -0.0991,0.19438 -0.13565,0.30672 -0.0329,0.10114 -0.0459,0.12463 -0.0921,0.16724 -0.0725,0.0669 -0.16129,0.0825 -0.27761,0.0491 -0.18223,-0.0524 -0.33514,-0.0386 -0.49636,0.0448 -0.16012,0.0829 -0.27409,0.22932 -0.32277,0.41478 -0.0165,0.063 -0.0177,0.22249 -0.002,0.2846202 l 0.0103,0.0408 1.36307,0.004 1.36308,0.004 0.0358,0.0165 c 0.0792,0.0365 0.12845,0.0956 0.15002,0.1798 0.031,0.12105 -0.0309,0.24659 -0.14875,0.30157 l -0.0445,0.0207 -1.45921,0.002 c -1.62261998,0.002 -1.50130998,0.006 -1.58081998,-0.0481 -0.0448,-0.0304 -0.0677,-0.0609 -0.11197,-0.14906 -0.0922,-0.18356 -0.13471,-0.42352 -0.11201,-0.6316002 0.0297,-0.27195 0.14105,-0.50302 0.33732,-0.69982 0.17137998,-0.17184 0.36573998,-0.27538 0.60725998,-0.32351 0.0652,-0.013 0.10854,-0.0164 0.21189,-0.0166 l 0.12996,-3e-4 0.0528,-0.10749 c 0.0612,-0.12458 0.17412,-0.29753 0.26367,-0.40373 0.32324,-0.38329 0.80649,-0.64534 1.29069,-0.69989 0.0408,-0.005 0.0845,-0.01 0.0973,-0.0119 l 0.0232,-0.004 -0.0559,-0.1017 c -0.3432,-0.62467 -0.53505,-1.36777 -0.53505,-2.07248 0,-1.34827 0.63629,-2.62225 1.7197,-3.44318 0.5755,-0.43608 1.26566,-0.72443 1.98101,-0.82767 0.23063,-0.0333 0.33736,-0.0402 0.61865,-0.0402 0.2813,0 0.38802,0.007 0.61865,0.0402 1.20757,0.17428 2.2908402,0.85884 2.9728102,1.87863 0.3737,0.55882 0.61012,1.19194 0.69408,1.85877 0.0222,0.17638 0.0282,0.27887 0.0329,0.56259 l 0.005,0.28845 0.0593,0.01 c 0.35897,0.0591 0.70885,0.24565 0.95944,0.51155 0.0772,0.0819 0.16296,0.19344 0.21316,0.27719 l 0.0339,0.0566 0.0657,0.008 c 0.18379,0.0236 0.37155,0.0952 0.53552,0.20426 0.33387,0.2221 0.55143,0.61585 0.55475,1.00402 9.2e-4,0.10727 8.7e-4,0.10756 -0.0234,0.15696 -0.0296,0.0602 -0.0816,0.10944 -0.1409,0.13341 l -0.0422,0.0171 -2.57151,0.002 -2.5715202,0.002 -0.0392,0.12032 c -0.0216,0.0662 -0.0608,0.177 -0.0872,0.24628 -0.11111,0.29195 -0.16067,0.47089 -0.20974,0.75726 -0.0213,0.12405 -0.0516,0.35072 -0.0516,0.38515 v 0.0171 h 0.20786 0.20786 l 0.018,-0.0406 c 0.15153,-0.34262 0.37182,-0.66836 0.6218403,-0.91946 0.11224,-0.11272 0.13522,-0.12504 0.23363,-0.1252 0.0609,-8e-5 0.076,0.003 0.11259,0.0197 0.11604,0.0544 0.17779,0.18642 0.14343,0.30664 -0.017,0.0595 -0.0359,0.0865 -0.1287,0.18344 -0.22726,0.23756 -0.40646,0.51503 -0.5320003,0.82375 l -0.0361,0.0889 -0.004,0.5186302 -0.004,0.5186202 -0.0213,0.0461 c -0.0252,0.0546 -0.0841,0.11392 -0.13461,0.13556 -0.0188,0.008 -0.0389,0.0147 -0.0445,0.0147 -0.009,0 -0.0107,0.19318 -0.0128,1.26138 -0.002,1.15955 -0.004,1.26645 -0.0154,1.3242 -0.0406,0.19921 -0.1328,0.37316 -0.27124,0.5116 -0.13259,0.13259 -0.28595,0.21827 -0.47441,0.26505 l -0.0778,0.0193 -0.76683,10e-4 c -0.42176,7.6e-4 -0.78707,-10e-4 -0.8118,-0.005 z m 1.58032,-0.54171 c 0.0774,-0.0283 0.11743,-0.0539 0.17695,-0.11318 0.036,-0.0358 0.0613,-0.0695 0.0797,-0.10619 0.0509,-0.10115 0.0491,-0.0731 0.0491,-0.7443 v -0.60598 h -1.10394 -1.10393 v 0.60598 c 0,0.66891 -0.002,0.64359 0.0476,0.74134 0.0599,0.119 0.18901,0.21582 0.31649,0.2374 0.0222,0.004 0.35816,0.006 0.76207,0.006 l 0.72237,-0.001 z m -1.06488,-2.46243 v -0.36675 h -0.41861 -0.4186 v 0.36675 0.36674 h 0.4186 0.41861 z m 1.37066,0 v -0.36675 h -0.41861 -0.4186 v 0.36675 0.36674 h 0.4186 0.41861 z m 0.22227,-1.1558002 v -0.26302 h -1.3225 -1.3225 v 0.26302 0.26302 h 1.3225 1.3225 z m -2.33383,-0.8172702 c 0,-0.0385 -0.0267,-0.25201 -0.0451,-0.36076 -0.0468,-0.27642 -0.1035,-0.48436 -0.20098,-0.73681 -0.25049,-0.64867 -0.41126,-1.43214 -0.47595,-2.31939 -0.0219,-0.29985 -0.0283,-0.54514 -0.0239,-0.91501 0.004,-0.37296 0.009,-0.48536 0.0349,-0.79276 0.091,-1.09397 0.3469,-2.05222 0.71029,-2.65967 0.0243,-0.0407 0.0433,-0.0749 0.0421,-0.0761 -10e-4,-0.001 -0.0419,0.009 -0.0905,0.0236 -0.67963,0.19751 -1.30933,0.5964 -1.77667,1.12544 -0.23669,0.26793 -0.4115,0.52843 -0.56762,0.84584 -0.21373,0.43455 -0.32999,0.85093 -0.37857,1.35584 -0.0137,0.14221 -0.0116,0.51375 0.004,0.6594 0.0759,0.72196 0.33837,1.39095 0.76972,1.96217 0.17905,0.23711 0.40594,0.47411 0.64269,0.67135 0.23013,0.19172 0.43476,0.40646 0.58636,0.61531 0.12577,0.17328 0.24573,0.3772 0.3181,0.54075 l 0.0394,0.089 h 0.206 0.20599 z m 1.4849,0.0115 c 0.002,-0.009 0.005,-0.04 0.008,-0.0685 0.008,-0.1016 0.0426,-0.34296 0.0678,-0.47788 0.0497,-0.26623 0.11235,-0.49184 0.20024,-0.72133 0.26056,-0.68032 0.40271,-1.40982 0.46363,-2.37932 0.0123,-0.19588 0.0122,-0.93557 -1.4e-4,-1.13728 -0.0187,-0.30473 -0.039,-0.52259 -0.0723,-0.77424 -0.1341,-1.01351 -0.43613,-1.86572 -0.79482,-2.24263 -0.10269,-0.10791 -0.18397,-0.16245 -0.279,-0.1872 -0.0552,-0.0144 -0.0855,-0.0144 -0.14073,0 -0.2218,0.0578 -0.45804,0.34657 -0.6545,0.80009 -0.24484,0.5652 -0.41277,1.32951 -0.47529,2.16319 -0.0375,0.49975 -0.0387,1.08074 -0.003,1.5707 0.0571,0.78929 0.20802,1.54313 0.41974,2.09674 0.16724,0.43733 0.24109,0.74442 0.29484,1.22618 0.008,0.0713 0.0145,0.13383 0.0145,0.13892 5e-5,0.007 0.0998,0.009 0.47409,0.009 h 0.47404 l 0.003,-0.0167 z m 5.6830102,-2.0708 c -0.071,-0.17043 -0.24019,-0.3304 -0.41746,-0.39481 -0.0886,-0.0322 -0.16088,-0.0448 -0.25862,-0.045 -0.10107,-2e-4 -0.15485,-0.0128 -0.20677,-0.0482 -0.0493,-0.0337 -0.0654,-0.0554 -0.11546,-0.15518 -0.0659,-0.13139 -0.12358,-0.21138 -0.22711,-0.31495 -0.23021,-0.23028 -0.51067,-0.3477 -0.8305,-0.3477 -0.12509,0 -0.19407,0.008 -0.29986,0.0343 -0.2071,0.0518 -0.38356,0.15282 -0.54129,0.31005 -0.13008,0.12966 -0.22022,0.27079 -0.28154,0.44077 -0.0245,0.0679 -0.044,0.0996 -0.0834,0.13514 -0.039,0.0352 -0.076,0.0538 -0.12899,0.0647 -0.0609,0.0126 -0.1019199,0.004 -0.1983799,-0.0405 -0.13992,-0.0649 -0.25566,-0.0871 -0.40009,-0.0769 -0.2483303,0.0175 -0.4788703,0.17331 -0.5935303,0.40104 -0.0159,0.0315 -0.0288,0.059 -0.0288,0.0611 0,0.002 1.0402603,0.004 2.3117002,0.004 h 2.31169 z m -4.4032102,-0.87544 c 0.2376703,-0.0971 0.5019603,-0.11966 0.7485703,-0.064 0.042,0.009 0.0766,0.0168 0.0768,0.0162 2.2e-4,-5.9e-4 0.0191,-0.0328 0.0419,-0.0715 0.1691199,-0.28726 0.4174299,-0.51798 0.7134499,-0.66291 0.14376,-0.0704 0.26264,-0.11077 0.43635,-0.14823 l 0.0214,-0.005 -0.004,-0.28669 c -0.005,-0.33908 -0.0169,-0.47646 -0.0608,-0.71801 -0.11874,-0.65386 -0.41814,-1.28112 -0.8534,-1.78791 -0.4786399,-0.5573 -1.1197602,-0.97103 -1.8201302,-1.17457 -0.0486,-0.0141 -0.0894,-0.0247 -0.0905,-0.0236 -10e-4,0.001 0.0178,0.0354 0.0421,0.0761 0.36339,0.60745 0.6193,1.5657 0.71029,2.65967 0.0256,0.30734 0.0305,0.41977 0.0349,0.79276 0.004,0.36858 -0.002,0.60823 -0.0239,0.91501 -0.0106,0.14743 -0.0357,0.41588 -0.045,0.47973 -0.002,0.0173 -0.003,0.0315 -0.002,0.0315 0.002,0 0.0349,-0.013 0.0739,-0.029 z"
       style="fill:#ffffff;stroke-width:0.00740897;fill-opacity:1" />
  </g>
</svg>
