<?xml version="1.0" encoding="UTF-8" standalone="no"?>
<!-- Created with Inkscape (http://www.inkscape.org/) -->

<svg
   xmlns:dc="http://purl.org/dc/elements/1.1/"
   xmlns:cc="http://creativecommons.org/ns#"
   xmlns:rdf="http://www.w3.org/1999/02/22-rdf-syntax-ns#"
   xmlns:svg="http://www.w3.org/2000/svg"
   xmlns="http://www.w3.org/2000/svg"
   xmlns:sodipodi="http://sodipodi.sourceforge.net/DTD/sodipodi-0.dtd"
   xmlns:inkscape="http://www.inkscape.org/namespaces/inkscape"
   width="18.528555mm"
   height="20.257784mm"
   viewBox="0 0 18.528554 20.257784"
   version="1.1"
   id="svg8"
   inkscape:version="0.92.4 (5da689c313, 2019-01-14)"
   sodipodi:docname="antiddos_horizontal_icon_3.svg">
  <defs
     id="defs2" />
  <sodipodi:namedview
     id="base"
     pagecolor="#ffffff"
     bordercolor="#666666"
     borderopacity="1.0"
     inkscape:pageopacity="0.0"
     inkscape:pageshadow="2"
     inkscape:zoom="5.6"
     inkscape:cx="-5.6843804"
     inkscape:cy="15.563397"
     inkscape:document-units="mm"
     inkscape:current-layer="layer1"
     showgrid="false"
     fit-margin-top="0"
     fit-margin-left="0"
     fit-margin-right="0"
     fit-margin-bottom="0"
     inkscape:window-width="1920"
     inkscape:window-height="1017"
     inkscape:window-x="-8"
     inkscape:window-y="-8"
     inkscape:window-maximized="1" />
  <metadata
     id="metadata5">
    <rdf:RDF>
      <cc:Work
         rdf:about="">
        <dc:format>image/svg+xml</dc:format>
        <dc:type
           rdf:resource="http://purl.org/dc/dcmitype/StillImage" />
        <dc:title></dc:title>
      </cc:Work>
    </rdf:RDF>
  </metadata>
  <g
     inkscape:label="Layer 1"
     inkscape:groupmode="layer"
     id="layer1"
     transform="translate(1201.8107,-874.62791)">
    <path
       style="fill:#fe8139;stroke-width:0.01026205"
       d="m -1200.0159,894.87421 c -0.7848,-0.0882 -1.4484,-0.62534 -1.6921,-1.36962 -0.076,-0.23204 -0.1099,-0.46478 -0.1014,-0.69533 0,-0.0744 0.1751,-1.72964 0.3829,-3.6784 l 0.3779,-3.5432 -0.063,-0.12035 c -0.184,-0.35285 -0.3205,-0.75982 -0.3868,-1.15328 -0.04,-0.23444 -0.051,-0.38627 -0.051,-0.65519 0,-0.13828 0.01,-0.30914 0.013,-0.37969 0.097,-0.93571 0.4954,-1.7641 1.1625,-2.41728 0.9644,-0.94427 2.3261,-1.3135 3.6315,-0.98467 0.5142,0.12953 0.995,0.36624 1.4271,0.70257 l 0.106,0.0825 h 1.173 1.1729 l -10e-5,-0.22833 c -10e-5,-0.15787 0,-0.24416 -0.014,-0.27964 -0.044,-0.1659 -0.1854,-0.31277 -0.3504,-0.36505 -0.029,-0.009 -0.1791,-0.0149 -0.5233,-0.0197 -0.4779,-0.007 -0.4833,-0.007 -0.5827,-0.0336 -0.1145,-0.0307 -0.2627,-0.0978 -0.3558,-0.16099 -0.2158,-0.14657 -0.3857,-0.38774 -0.4592,-0.65201 -0.026,-0.0953 -0.029,-0.11625 -0.029,-0.29247 0,-0.17567 0,-0.19741 0.028,-0.29114 0.1025,-0.36793 0.3742,-0.66433 0.7168,-0.78186 0.1886,-0.0647 -0.021,-0.0593 2.5746,-0.0656 l 2.3654,-0.006 0.054,-0.0221 c 0.088,-0.036 0.1377,-0.0697 0.199,-0.13391 0.098,-0.10316 0.142,-0.21308 0.1422,-0.3586 3e-4,-0.24503 -0.1671,-0.45069 -0.4086,-0.50187 -0.057,-0.012 -0.2641,-0.0145 -1.1985,-0.0147 -1.209,-1.9e-4 -1.2085,-1.5e-4 -1.3688,-0.0517 -0.098,-0.0314 -0.2418,-0.10522 -0.3181,-0.16289 -0.2328,-0.17578 -0.3817,-0.40882 -0.4465,-0.69887 -0.014,-0.0617 -0.018,-0.15454 -0.023,-0.46905 0,-0.21565 0,-0.40383 0,-0.41818 l 0.01,-0.0261 h 0.3014 c 0.2654,0 0.3022,0.002 0.3077,0.0162 0,0.009 0.01,0.18392 0.01,0.38888 0,0.34273 0,0.37794 0.02,0.4386 0.05,0.16181 0.1808,0.29028 0.3542,0.34768 0.033,0.0108 0.2861,0.0148 1.2468,0.0195 l 1.2058,0.006 0.096,0.028 c 0.3663,0.10652 0.6599,0.38211 0.775,0.72744 0.063,0.18808 0.077,0.42261 0.038,0.60861 -0.084,0.39732 -0.3687,0.71791 -0.7533,0.84757 -0.1713,0.0577 -0.01,0.0539 -2.5679,0.0601 l -2.3602,0.006 -0.056,0.0236 c -0.2867,0.1218 -0.4117,0.44715 -0.2752,0.71588 0.064,0.12649 0.1742,0.2215 0.3021,0.26098 0.062,0.019 0.095,0.0206 0.4377,0.0207 0.5653,1.5e-4 0.6787,0.0162 0.9045,0.1276 0.2638,0.13018 0.46,0.35292 0.5625,0.63836 0.048,0.13216 0.06,0.22608 0.066,0.49873 l 0.01,0.25398 h 1.1716 1.1715 l 0.1061,-0.0825 c 0.2315,-0.18021 0.4175,-0.29676 0.6773,-0.42443 0.5144,-0.2528 1.0141,-0.37613 1.5913,-0.39279 0.9069,-0.0262 1.7895,0.27113 2.509,0.84515 0.1367,0.10903 0.386,0.3504 0.5076,0.49129 0.5234,0.60685 0.8307,1.30978 0.9306,2.12885 0.025,0.20729 0.025,0.65472 0,0.86201 -0.061,0.50073 -0.1905,0.92978 -0.4094,1.35788 l -0.073,0.14183 0.3777,3.54225 c 0.2077,1.94823 0.3799,3.60309 0.3826,3.67745 0.02,0.54738 -0.1959,1.09369 -0.588,1.48584 -0.6448,0.64476 -1.6451,0.77567 -2.4241,0.31722 -0.2136,-0.1257 -0.4286,-0.31575 -0.5741,-0.50743 -0.04,-0.0532 -0.5038,-0.78253 -1.0298,-1.62068 -0.5259,-0.83816 -0.9642,-1.53229 -0.974,-1.54253 -0.017,-0.018 -0.021,-0.0177 -0.1091,0.007 -0.1716,0.0482 -0.2068,0.0526 -0.4147,0.0522 -0.1803,-3.5e-4 -0.2116,-0.003 -0.3165,-0.0279 -0.2894,-0.0683 -0.5323,-0.20722 -0.7374,-0.42173 -0.1759,-0.18403 -0.2977,-0.40109 -0.3679,-0.65573 l -0.016,-0.059 h -1.7075 -1.7075 l -0.011,0.0436 c -0.063,0.25073 -0.1908,0.48163 -0.3678,0.66625 -0.2126,0.22193 -0.4484,0.35718 -0.7447,0.42717 -0.102,0.0241 -0.1347,0.0269 -0.314,0.0273 -0.2078,4.3e-4 -0.243,-0.004 -0.4147,-0.0522 -0.088,-0.0248 -0.092,-0.025 -0.1091,-0.007 -0.01,0.0102 -0.4464,0.70207 -0.9705,1.5374 -0.5241,0.83533 -0.987,1.56411 -1.0287,1.61952 -0.146,0.1943 -0.3624,0.38646 -0.5787,0.51372 -0.3613,0.21268 -0.8061,0.30827 -1.2186,0.26189 z m 0.442,-0.63091 c 0.3333,-0.0559 0.648,-0.24404 0.855,-0.51104 0.075,-0.0962 1.9766,-3.12114 1.9766,-3.1436 0,-0.008 -0.027,-0.0457 -0.061,-0.0833 -0.1732,-0.19571 -0.2976,-0.45479 -0.3471,-0.72287 -0.024,-0.12828 -0.023,-0.38788 0,-0.52053 0.078,-0.4262 0.3504,-0.81434 0.7212,-1.02653 0.4246,-0.24292 0.9472,-0.25751 1.3827,-0.0386 0.3334,0.16759 0.5951,0.46027 0.7229,0.80858 0.018,0.048 0.039,0.11378 0.048,0.14624 l 0.016,0.059 h 1.7071 1.7072 l 0.016,-0.059 c 0.074,-0.26943 0.1971,-0.48195 0.3902,-0.67515 0.2134,-0.21352 0.4505,-0.3426 0.7475,-0.40692 0.086,-0.0186 0.1372,-0.0226 0.2893,-0.0226 0.206,0 0.3145,0.0173 0.4842,0.0772 0.7536,0.26589 1.1587,1.08807 0.9146,1.85618 -0.06,0.19018 -0.175,0.39257 -0.3006,0.53092 -0.035,0.0385 -0.057,0.0713 -0.055,0.0824 0.01,0.0298 1.9038,3.04717 1.9747,3.13864 0.4399,0.56708 1.251,0.69647 1.8532,0.2956 0.347,-0.23101 0.5664,-0.59531 0.6145,-1.02014 0.01,-0.0592 0.01,-0.14923 0.01,-0.20011 0,-0.0804 -0.664,-6.30078 -0.6799,-6.4165 0,-0.024 -0.011,-0.0436 -0.017,-0.0436 -0.01,0 -0.069,0.0568 -0.1405,0.12611 -0.6028,0.58902 -1.3769,0.95593 -2.2379,1.06076 -0.1821,0.0222 -0.6441,0.0254 -0.8158,0.006 -0.2858,-0.0328 -0.5576,-0.0908 -0.8049,-0.17158 -1.203,-0.39315 -2.1461,-1.3616 -2.5146,-2.58215 -0.215,-0.71223 -0.2185,-1.50792 -0.01,-2.22201 0.1172,-0.40089 0.3183,-0.81944 0.555,-1.15474 0.039,-0.0547 0.07,-0.10431 0.07,-0.11032 0,-0.008 -0.6077,-0.0109 -2.0473,-0.0109 -1.4757,0 -2.0473,0.003 -2.0473,0.0112 0,0.006 0.027,0.0489 0.06,0.0949 0.3124,0.43568 0.5423,0.97095 0.6467,1.50542 0.085,0.43223 0.096,0.89655 0.032,1.33123 -0.089,0.60906 -0.3271,1.19712 -0.6918,1.71012 -0.4714,0.66312 -1.1765,1.17824 -1.9596,1.43142 -0.9475,0.30636 -1.9964,0.22745 -2.8847,-0.217 -0.3682,-0.18424 -0.7242,-0.4405 -1.0003,-0.72006 -0.048,-0.0485 -0.092,-0.0881 -0.099,-0.0881 -0.01,0 -0.015,0.0218 -0.018,0.0488 -0.018,0.13737 -0.6744,6.32288 -0.6796,6.40608 -0.015,0.23 0.045,0.492 0.1629,0.71985 0.1937,0.37317 0.5774,0.65077 0.9969,0.72123 0.1172,0.0197 0.3413,0.0196 0.4589,-1.1e-4 z m 5.9986,-6.70097 c 0,-0.009 -0.01,-0.14437 -0.01,-0.30082 0,-0.20755 0,-0.28777 0.012,-0.29676 0.014,-0.0143 0.6404,-0.0178 0.6626,-0.004 0.01,0.006 0.012,0.0755 0.01,0.31027 v 0.30203 l -0.3349,0.003 c -0.2988,0.002 -0.3356,9.4e-4 -0.3412,-0.0137 z m 1.3756,0.009 c 0,-0.004 -0.01,-0.14181 -0.01,-0.30676 0,-0.26403 0,-0.30067 0.016,-0.30615 0.01,-0.003 0.1581,-0.006 0.3315,-0.006 0.2315,0 0.3185,0.003 0.3275,0.0123 0.01,0.009 0.012,0.0892 0.012,0.29676 0,0.15645 0,0.29175 -0.01,0.30068 -0.01,0.0143 -0.045,0.0162 -0.3369,0.0162 -0.1819,0 -0.3338,-0.003 -0.3376,-0.007 z m -3.2907,2.80717 c 0.1656,-0.0411 0.3353,-0.14888 0.4477,-0.28441 0.066,-0.0798 0.1489,-0.24374 0.1728,-0.34304 0.1123,-0.46478 -0.1735,-0.93445 -0.6359,-1.04479 -0.078,-0.0185 -0.1136,-0.0213 -0.2257,-0.0173 -0.1155,0.004 -0.1465,0.009 -0.2309,0.0376 -0.4983,0.16795 -0.7333,0.72672 -0.5032,1.196 0.053,0.10859 0.1315,0.21033 0.215,0.27961 0.2175,0.18047 0.4895,0.24359 0.7602,0.17639 z m 6.3009,1.1e-4 c 0.1037,-0.0256 0.2459,-0.0989 0.3345,-0.17231 0.1306,-0.10832 0.2361,-0.2756 0.2825,-0.44797 0.031,-0.11538 0.031,-0.31468 -10e-5,-0.43045 -0.076,-0.28411 -0.2863,-0.50721 -0.5655,-0.60136 -0.084,-0.0284 -0.1155,-0.0335 -0.2309,-0.0376 -0.1111,-0.004 -0.1484,-10e-4 -0.2228,0.0167 -0.3057,0.073 -0.541,0.29769 -0.6282,0.59975 -0.1307,0.45243 0.1269,0.92834 0.5757,1.06394 0.1444,0.0436 0.3029,0.0468 0.4548,0.009 z m -8.03,-3.45673 c 0.6871,-0.10574 1.2915,-0.40461 1.783,-0.88158 0.5453,-0.52917 0.8739,-1.18617 0.9786,-1.95636 0.025,-0.18604 0.026,-0.62501 8e-4,-0.80557 -0.1072,-0.7772 -0.4301,-1.42605 -0.973,-1.95559 -0.4939,-0.48175 -1.0975,-0.78153 -1.7894,-0.8887 -0.17,-0.0263 -0.5811,-0.037 -0.7596,-0.0198 -1.1191,0.10813 -2.0916,0.77262 -2.6015,1.77752 -0.4268,0.84122 -0.4714,1.83898 -0.1208,2.70797 0.1666,0.41309 0.4139,0.7863 0.7312,1.10362 0.5334,0.53338 1.2069,0.85469 1.9656,0.93774 0.048,0.005 0.212,0.008 0.3643,0.006 0.2197,-0.003 0.3069,-0.008 0.4208,-0.0255 z m -0.7699,-1.53193 c 0,-0.007 -0.01,-0.3247 -0.01,-0.70568 v -0.69268 l -0.6979,-0.005 -0.6978,-0.005 v -0.30273 -0.30273 l 0.6978,-0.005 c 0.3838,-0.003 0.699,-0.006 0.7004,-0.008 0,-10e-4 0,-0.31756 0.01,-0.70277 v -0.70039 h 0.3028 0.3027 v 0.69173 c 0,0.48801 0.01,0.69576 0.014,0.70544 0.01,0.0111 0.1403,0.0142 0.7004,0.0164 l 0.6889,0.003 v 0.30273 0.30273 l -0.6889,0.003 c -0.5601,0.002 -0.6911,0.005 -0.7004,0.0164 -0.01,0.01 -0.012,0.21743 -0.014,0.70544 v 0.69173 l -0.3004,0.003 c -0.2349,0.002 -0.3015,-1.2e-4 -0.3054,-0.0103 z m 11.0319,1.53322 c 0.5999,-0.0937 1.1064,-0.31484 1.5701,-0.6854 0.1391,-0.11116 0.3848,-0.35561 0.4887,-0.48624 0.3998,-0.50263 0.63,-1.04734 0.7133,-1.68811 0.024,-0.18339 0.024,-0.5864 0,-0.76844 -0.088,-0.67069 -0.3326,-1.23395 -0.7566,-1.74063 -0.5415,-0.64702 -1.3264,-1.05763 -2.1795,-1.14006 -0.1785,-0.0172 -0.5896,-0.007 -0.7596,0.0198 -0.9107,0.14107 -1.6941,0.63372 -2.2139,1.39221 -0.4757,0.694 -0.6662,1.56028 -0.526,2.39172 0.1646,0.97632 0.7375,1.80316 1.5993,2.30793 0.3537,0.20722 0.812,0.35969 1.2176,0.40508 0.054,0.006 0.1113,0.0128 0.1282,0.0151 0.017,0.002 0.1555,0.003 0.3079,0.001 0.2156,-0.002 0.3067,-0.008 0.4105,-0.024 z m -0.7598,-1.53331 c 0,-0.007 0,-0.16081 0,-0.34137 v -0.3283 h 0.3028 0.3027 v 0.33865 0.33865 l -0.3004,0.003 c -0.2359,0.002 -0.3015,-1.2e-4 -0.3055,-0.0104 z m -1.4059,-1.41622 c 0,-0.007 0,-0.14466 0,-0.30544 v -0.29234 h 0.3387 0.3386 v 0.30273 0.30273 l -0.3363,0.003 c -0.2653,0.002 -0.3374,-1.2e-4 -0.3414,-0.0104 z m 2.74,0 c 0,-0.007 0,-0.14466 0,-0.30544 v -0.29234 h 0.3387 0.3386 v 0.30273 0.30273 l -0.3363,0.003 c -0.2654,0.002 -0.3375,-1.2e-4 -0.3414,-0.0104 z m -1.3341,-1.34427 c 0,-0.007 0,-0.16081 0,-0.34137 v -0.3283 h 0.3028 0.3027 v 0.33865 0.33865 l -0.3004,0.003 c -0.2359,0.002 -0.3015,-1.1e-4 -0.3055,-0.0104 z"
       id="path852"
       inkscape:connector-curvature="0" />
  </g>
</svg>
