<?xml version="1.0" encoding="UTF-8" standalone="no"?>
<!-- Created with Inkscape (http://www.inkscape.org/) -->

<svg
   xmlns:dc="http://purl.org/dc/elements/1.1/"
   xmlns:cc="http://creativecommons.org/ns#"
   xmlns:rdf="http://www.w3.org/1999/02/22-rdf-syntax-ns#"
   xmlns:svg="http://www.w3.org/2000/svg"
   xmlns="http://www.w3.org/2000/svg"
   xmlns:sodipodi="http://sodipodi.sourceforge.net/DTD/sodipodi-0.dtd"
   xmlns:inkscape="http://www.inkscape.org/namespaces/inkscape"
   width="18.520985mm"
   height="18.516308mm"
   viewBox="0 0 18.520984 18.516308"
   version="1.1"
   id="svg8"
   inkscape:version="0.92.4 (5da689c313, 2019-01-14)"
   sodipodi:docname="antiddos_horizontal_icon_2.svg">
  <defs
     id="defs2" />
  <sodipodi:namedview
     id="base"
     pagecolor="#ffffff"
     bordercolor="#666666"
     borderopacity="1.0"
     inkscape:pageopacity="0.0"
     inkscape:pageshadow="2"
     inkscape:zoom="7.9195959"
     inkscape:cx="11.909583"
     inkscape:cy="40.576573"
     inkscape:document-units="mm"
     inkscape:current-layer="layer1"
     showgrid="false"
     fit-margin-top="0"
     fit-margin-left="0"
     fit-margin-right="0"
     fit-margin-bottom="0"
     inkscape:window-width="1920"
     inkscape:window-height="1017"
     inkscape:window-x="-8"
     inkscape:window-y="-8"
     inkscape:window-maximized="1" />
  <metadata
     id="metadata5">
    <rdf:RDF>
      <cc:Work
         rdf:about="">
        <dc:format>image/svg+xml</dc:format>
        <dc:type
           rdf:resource="http://purl.org/dc/dcmitype/StillImage" />
        <dc:title></dc:title>
      </cc:Work>
    </rdf:RDF>
  </metadata>
  <g
     inkscape:label="Layer 1"
     inkscape:groupmode="layer"
     id="layer1"
     transform="translate(636.80428,-615.19565)">
    <path
       style="fill:#fe8139;stroke-width:0.00997005"
       d="m -629.14548,633.70081 c -0.003,-0.007 -0.004,-0.72809 -0.002,-1.60271 l 0.003,-1.59023 0.64805,-0.005 0.64806,-0.005 v -0.67723 -0.67723 l -1.7996,-1.03958 c -0.98977,-0.57177 -1.80434,-1.03982 -1.81014,-1.04011 -0.006,-3e-4 -0.24134,0.13294 -0.52343,0.29608 l -0.51288,0.29661 -0.54835,0.005 -0.54835,0.005 -0.002,0.65802 c -0.002,0.60455 -0.004,0.65904 -0.0194,0.67049 -0.0133,0.01 -0.34747,0.0124 -1.59271,0.0123 -0.86672,-1.2e-4 -1.58148,-0.004 -1.58835,-0.008 -0.01,-0.006 -0.012,-0.33343 -0.01,-1.60253 l 0.003,-1.5946 h 1.6002 1.60019 l 0.005,0.62811 0.005,0.62811 0.46158,0.003 0.46157,0.003 0.43573,-0.25083 c 0.23965,-0.13795 0.44358,-0.25758 0.45318,-0.26585 0.0165,-0.0142 0.0174,-0.12647 0.0174,-2.09567 0,-1.96921 -9.3e-4,-2.08146 -0.0174,-2.09568 -0.01,-0.008 -0.21353,-0.1279 -0.45318,-0.26585 l -0.43573,-0.25083 -0.46157,0.003 -0.46158,0.003 -0.005,0.62811 -0.005,0.62811 h -1.60019 -1.6002 l -0.003,-1.5946 c -0.002,-1.2691 2e-5,-1.59622 0.01,-1.60253 0.007,-0.004 0.72163,-0.008 1.58835,-0.008 1.24524,-1.1e-4 1.57939,0.002 1.59271,0.0123 0.0155,0.0115 0.0171,0.0659 0.0194,0.67049 l 0.002,0.65802 0.54835,0.005 0.54835,0.005 0.51209,0.29661 c 0.28164,0.16314 0.51718,0.29642 0.52342,0.29618 0.006,-2.3e-4 0.82117,-0.46815 1.81094,-1.03981 l 1.7996,-1.03938 v -0.67753 -0.67753 l -0.64806,-0.005 -0.64805,-0.005 v -1.6002 -1.60019 h 1.60019 1.6002 v 1.60019 1.6002 l -0.64805,0.005 -0.64806,0.005 v 0.67753 0.67753 l 1.7996,1.03938 c 0.98977,0.57166 1.8047,1.03957 1.81094,1.03981 0.006,2.2e-4 0.24178,-0.13304 0.52342,-0.29618 l 0.51209,-0.29661 0.54835,-0.005 0.54835,-0.005 0.003,-0.65802 c 0.002,-0.60455 0.004,-0.65904 0.0194,-0.67049 0.0133,-0.01 0.34747,-0.0124 1.59271,-0.0123 0.86672,1.2e-4 1.58148,0.004 1.58835,0.008 0.01,0.006 0.012,0.33343 0.01,1.60253 l -0.003,1.5946 h -1.6002 -1.60019 l -0.005,-0.62811 -0.005,-0.62811 -0.46158,-0.003 -0.46157,-0.003 -0.43573,0.25083 c -0.23965,0.13795 -0.44358,0.25758 -0.45318,0.26585 -0.0165,0.0142 -0.0174,0.12647 -0.0174,2.09567 0,1.96921 9.3e-4,2.08146 0.0174,2.09568 0.01,0.008 0.21353,0.1279 0.45318,0.26585 l 0.43573,0.25083 0.46157,-0.003 0.46158,-0.003 0.005,-0.62811 0.005,-0.62811 h 1.60019 1.6002 l 0.003,1.5946 c 0.002,1.2691 0,1.59622 -0.01,1.60253 -0.007,0.004 -0.72163,0.008 -1.58835,0.008 -1.24524,1.1e-4 -1.57939,-0.002 -1.59271,-0.0123 -0.0155,-0.0114 -0.0171,-0.0659 -0.0194,-0.67049 l -0.003,-0.65802 -0.54835,-0.005 -0.54835,-0.005 -0.51288,-0.29661 c -0.28209,-0.16314 -0.51763,-0.29638 -0.52343,-0.29611 -0.006,2.7e-4 -0.82037,0.46833 -1.81014,1.04012 l -1.7996,1.0396 v 0.67723 0.67723 l 0.64806,0.005 0.64805,0.005 v 1.6002 1.60019 l -1.598,0.003 c -1.27316,0.002 -1.59897,0 -1.60276,-0.01 z m 2.60255,-1.59274 v -1.00199 h -1.00199 -1.00199 l -0.003,0.99202 c -0.001,0.54561 -4.3e-4,0.99765 0.002,1.00453 0.004,0.01 0.21,0.012 1.00456,0.01 l 0.9998,-0.003 z m -1.30109,-5.57172 c 0,-1.79966 -9.5e-4,-1.90356 -0.0175,-1.918 -0.0337,-0.0295 -3.2856,-1.90142 -3.29404,-1.8962 -0.005,0.003 -0.009,0.86189 -0.009,1.90887 v 1.9036 l 0.0324,0.0209 c 0.10693,0.0691 3.2559,1.88196 3.27018,1.88267 0.0166,8.3e-4 0.0175,-0.096 0.0175,-1.90187 z m 2.25978,0.95966 c 0.89844,-0.51869 1.63913,-0.9477 1.64599,-0.95336 0.01,-0.008 0.0125,-0.40291 0.0125,-1.91276 0,-1.04635 -0.004,-1.90483 -0.008,-1.90771 -0.008,-0.005 -3.26041,1.86679 -3.29409,1.8962 -0.0165,0.0144 -0.0174,0.11829 -0.0174,1.91797 0,1.62857 0.002,1.90274 0.014,1.90274 0.008,0 0.74912,-0.42439 1.64756,-0.94308 z m -8.61569,-0.0988 v -0.99701 h -1.00199 -1.00199 l -0.003,0.99955 -0.003,0.99954 1.00453,-0.003 1.00453,-0.003 z m 15.31654,0.002 -0.003,-0.9995 h -1.00199 -1.00199 l -0.003,0.98704 c -10e-4,0.54286 -4.3e-4,0.99264 0.002,0.99949 0.004,0.01 0.2144,0.0125 1.0071,0.0125 h 1.00235 z m -7.01149,-4.24649 c 0.89382,-0.51575 1.63166,-0.94391 1.63965,-0.95147 0.009,-0.009 0.011,-0.017 0.005,-0.0226 -0.005,-0.005 -0.74309,-0.43224 -1.63964,-0.94972 -0.97496,-0.56273 -1.64012,-0.94087 -1.65503,-0.94086 -0.0317,0 -3.30226,1.88757 -3.29736,1.90304 0.006,0.0192 3.2909,1.91127 3.30726,1.90504 0.008,-0.003 0.74633,-0.42769 1.64014,-0.94344 z m -8.30505,-1.64831 v -0.997 l -1.00449,-0.003 -1.00448,-0.003 v 0.99539 c 0,0.54747 0.003,0.9984 0.007,1.00209 0.004,0.004 0.45569,0.006 1.00448,0.004 l 0.99779,-0.003 z m 15.31654,-0.003 0.003,-0.99954 -1.00453,0.003 -1.00453,0.003 -0.003,0.98703 c -10e-4,0.54287 -4.3e-4,0.99267 0.002,0.99955 0.004,0.01 0.20999,0.012 1.00456,0.01 l 0.99979,-0.003 z m -7.65954,-4.70831 v -1.00199 h -1.00199 -1.00199 l -0.003,0.99202 c -0.001,0.54562 -4.3e-4,0.99765 0.002,1.00454 0.004,0.01 0.21,0.012 1.00456,0.01 l 0.9998,-0.003 z m -7.34045,14.63941 c -0.01,-0.004 -0.0125,-0.0728 -0.0125,-0.29725 0,-0.25727 0.002,-0.29294 0.0158,-0.29827 0.009,-0.003 0.15193,-0.006 0.31833,-0.006 0.26176,0 0.30468,0.002 0.31823,0.0157 0.0235,0.0235 0.0235,0.55329 0,0.57684 -0.0136,0.0136 -0.0561,0.0156 -0.32153,0.0149 -0.16823,-4.4e-4 -0.31148,-0.003 -0.31833,-0.006 z m 12.04382,0 c -0.01,-0.004 -0.0125,-0.0728 -0.0125,-0.29725 0,-0.25727 0.002,-0.29294 0.0158,-0.29827 0.009,-0.003 0.14963,-0.006 0.31324,-0.006 0.16361,0 0.30457,0.003 0.31324,0.006 0.0139,0.005 0.0158,0.041 0.0158,0.29804 0,0.25705 -0.002,0.2927 -0.0158,0.29803 -0.0188,0.007 -0.61182,0.007 -0.62979,-5.5e-4 z m -12.04382,-13.36984 c -0.01,-0.004 -0.0125,-0.073 -0.0125,-0.29832 v -0.29328 h 0.32795 c 0.28984,0 0.32865,0.002 0.334,0.0158 0.003,0.009 0.006,0.13622 0.006,0.28343 0,0.23004 -0.002,0.26987 -0.0157,0.28333 -0.0136,0.0136 -0.0561,0.0156 -0.32153,0.0149 -0.16823,-4.3e-4 -0.31148,-0.003 -0.31833,-0.006 z m 12.04382,0 c -0.01,-0.004 -0.0125,-0.073 -0.0125,-0.29832 v -0.29328 h 0.32901 0.32901 v 0.29305 c 0,0.25802 -0.002,0.29377 -0.0158,0.2991 -0.0188,0.007 -0.61182,0.007 -0.62979,-5.5e-4 z"
       id="path839"
       inkscape:connector-curvature="0" />
  </g>
</svg>
