<?xml version="1.0" encoding="UTF-8" standalone="no"?>
<!-- Created with Inkscape (http://www.inkscape.org/) -->

<svg
   xmlns:dc="http://purl.org/dc/elements/1.1/"
   xmlns:cc="http://creativecommons.org/ns#"
   xmlns:rdf="http://www.w3.org/1999/02/22-rdf-syntax-ns#"
   xmlns:svg="http://www.w3.org/2000/svg"
   xmlns="http://www.w3.org/2000/svg"
   xmlns:sodipodi="http://sodipodi.sourceforge.net/DTD/sodipodi-0.dtd"
   xmlns:inkscape="http://www.inkscape.org/namespaces/inkscape"
   width="60"
   height="60.022179"
   viewBox="0 0 15.875 15.880868"
   version="1.1"
   id="svg8"
   inkscape:version="0.92.4 (5da689c313, 2019-01-14)"
   sodipodi:docname="antiddos_service_price_icon_1.svg">
  <defs
     id="defs2" />
  <sodipodi:namedview
     id="base"
     pagecolor="#ffffff"
     bordercolor="#666666"
     borderopacity="1.0"
     inkscape:pageopacity="0.0"
     inkscape:pageshadow="2"
     inkscape:zoom="7.9195959"
     inkscape:cx="29.026077"
     inkscape:cy="26.727439"
     inkscape:document-units="mm"
     inkscape:current-layer="layer1"
     showgrid="false"
     fit-margin-top="0"
     fit-margin-left="0"
     fit-margin-right="0"
     fit-margin-bottom="0"
     units="px"
     inkscape:window-width="1920"
     inkscape:window-height="1017"
     inkscape:window-x="-8"
     inkscape:window-y="-8"
     inkscape:window-maximized="1" />
  <metadata
     id="metadata5">
    <rdf:RDF>
      <cc:Work
         rdf:about="">
        <dc:format>image/svg+xml</dc:format>
        <dc:type
           rdf:resource="http://purl.org/dc/dcmitype/StillImage" />
        <dc:title></dc:title>
      </cc:Work>
    </rdf:RDF>
  </metadata>
  <g
     inkscape:label="Layer 1"
     inkscape:groupmode="layer"
     id="layer1"
     transform="translate(720.7229,-551.84579)">
    <path
       style="fill:#ffffff;stroke-width:0.00724531;fill-opacity:1"
       d="m -718.30945,567.72197 c -0.12999,-0.0206 -0.21157,-0.0462 -0.31427,-0.0986 -0.26583,-0.13566 -0.45285,-0.39264 -0.50077,-0.68811 -0.01,-0.0593 -0.0109,-0.8873 -0.0109,-7.14932 0,-6.26203 10e-4,-7.09006 0.0109,-7.14933 0.0621,-0.38296 0.34462,-0.68052 0.73534,-0.77452 0.0519,-0.0125 0.2159,-0.0132 3.72047,-0.0153 4.06434,-0.002 3.73072,-0.006 3.88435,0.0451 0.14045,0.047 0.25037,0.11406 0.35777,0.21827 0.14067,0.1365 0.22393,0.28572 0.27047,0.48473 0.0152,0.0648 0.0153,0.0728 0.0175,1.37837 l 0.002,1.31317 2.01599,0.002 2.01599,0.002 0.0478,0.0236 c 0.0567,0.0279 0.10123,0.0734 0.12821,0.13096 l 0.0193,0.0411 0.002,2.43058 c 0.002,2.69936 0.006,2.47079 -0.0464,2.54837 -0.0408,0.0601 -0.0975,0.0964 -0.17259,0.11023 -0.0302,0.006 -0.62464,0.008 -2.02657,0.008 h -1.98382 l -0.002,3.16439 -0.002,3.16439 -0.0154,0.0652 c -0.047,0.19966 -0.12998,0.3483 -0.27058,0.48473 -0.1073,0.10412 -0.21736,0.1713 -0.35739,0.21814 -0.15255,0.051 0.18016,0.0471 -3.85937,0.046 -2.00641,-5.3e-4 -3.65616,-0.002 -3.66613,-0.004 z m 2.60831,-0.52749 c 0,-0.002 -0.0199,-0.0337 -0.0442,-0.0706 -0.2185,-0.33202 -0.27329,-0.75526 -0.14706,-1.13591 0.0322,-0.0971 0.0978,-0.23281 0.15034,-0.31084 0.0225,-0.0335 0.041,-0.062 0.041,-0.0634 0,-10e-4 -0.65371,-0.003 -1.45269,-0.003 h -1.45268 l 1.4e-4,0.60317 c 1.3e-4,0.66778 -3e-4,0.66075 0.0465,0.75532 0.0574,0.1159 0.16928,0.19906 0.29638,0.2203 0.0379,0.006 2.56233,0.0108 2.56233,0.005 z m 1.15563,-0.004 c 0.0938,-0.0106 0.16284,-0.0311 0.25358,-0.0754 0.20932,-0.10219 0.35874,-0.28159 0.42091,-0.50537 0.0269,-0.0968 0.0323,-0.26233 0.0118,-0.36087 -0.0754,-0.36212 -0.3769,-0.6205 -0.74172,-0.63565 -0.10516,-0.004 -0.18454,0.005 -0.27042,0.0322 -0.40526,0.12783 -0.64067,0.55124 -0.53317,0.95895 0.0901,0.34172 0.39939,0.58483 0.75398,0.59267 0.0219,4.8e-4 0.0692,-0.002 0.10506,-0.006 z m 3.59154,-0.0126 c 0.1248,-0.0424 0.22053,-0.13898 0.26297,-0.2654 l 0.0181,-0.0539 v -0.62363 -0.62363 h -1.45174 -1.45174 l 0.0461,0.0699 c 0.0893,0.13553 0.15346,0.29082 0.18932,0.45861 0.0179,0.0838 0.0195,0.10449 0.0197,0.26125 2.2e-4,0.14953 -0.002,0.18027 -0.0164,0.25239 -0.0339,0.16748 -0.10155,0.33291 -0.19329,0.47293 l -0.0471,0.0719 1.28778,-0.002 1.28777,-0.002 z m 0.28652,-4.34699 0.002,-2.24786 h -1.66825 -1.66826 l -0.77127,0.77129 c -0.87496,0.87499 -0.80327,0.81204 -0.92411,0.81154 -0.0516,-2.2e-4 -0.0726,-0.004 -0.10086,-0.0164 -0.0751,-0.034 -0.12963,-0.097 -0.15217,-0.17547 -0.0104,-0.0363 -0.0113,-0.33797 -0.01,-3.26417 l 0.002,-3.22413 0.0236,-0.0478 c 0.0279,-0.0567 0.0734,-0.10123 0.13096,-0.12821 l 0.0411,-0.0193 2.5486,-0.002 2.5486,-0.002 -0.002,-0.39665 -0.002,-0.39665 -3.96862,-0.002 -3.96862,-0.002 v 5.2963 5.29629 l 3.96862,-0.002 3.96862,-0.002 z m -7.20004,1.7125 c -0.0849,-0.0189 -0.14557,-0.0678 -0.18366,-0.14823 -0.0202,-0.0425 -0.0228,-0.0554 -0.0226,-0.10978 2.2e-4,-0.052 0.004,-0.0687 0.021,-0.1071 0.0266,-0.0584 0.0884,-0.11732 0.14549,-0.13866 l 0.0405,-0.0152 2.4431,0.002 2.44309,0.002 0.0454,0.0246 c 0.0543,0.0295 0.0908,0.0679 0.11662,0.12304 0.0166,0.0355 0.0191,0.05 0.0191,0.11317 0,0.0688 -10e-4,0.0748 -0.0248,0.11825 -0.0416,0.0766 -0.10931,0.12537 -0.19351,0.13916 -0.0681,0.0111 -4.79929,0.008 -4.84976,-0.003 z m 5.83154,0.003 c -0.081,-0.0143 -0.15397,-0.0688 -0.19158,-0.143 -0.0195,-0.0384 -0.0212,-0.0481 -0.0212,-0.11796 8e-5,-0.066 0.002,-0.0809 0.0178,-0.1123 0.0227,-0.0463 0.0806,-0.10422 0.12702,-0.12707 l 0.0362,-0.0178 h 0.34053 0.34053 l 0.0423,0.0214 c 0.0546,0.0276 0.10765,0.0855 0.12821,0.13979 0.0218,0.0575 0.0215,0.1351 -6.6e-4,0.19379 -0.0224,0.0593 -0.0877,0.12493 -0.14813,0.14897 -0.0431,0.0172 -0.046,0.0173 -0.34053,0.0187 -0.16338,7.7e-4 -0.31215,-0.001 -0.3306,-0.005 z m -5.87342,-1.07329 c -0.0225,-0.009 -0.0557,-0.0309 -0.0804,-0.0538 -0.0982,-0.0909 -0.11452,-0.23123 -0.0397,-0.34159 0.0408,-0.0601 0.0975,-0.0963 0.17259,-0.11022 0.0571,-0.0105 0.55901,-0.0106 0.61658,0 0.0889,0.0163 0.15889,0.0699 0.19786,0.15152 0.0164,0.0344 0.019,0.0493 0.019,0.10868 0,0.0614 -0.002,0.0735 -0.0212,0.1119 -0.0269,0.0549 -0.0734,0.10132 -0.12596,0.12596 l -0.0413,0.0193 -0.32966,0.002 c -0.31674,10e-4 -0.33116,9.7e-4 -0.36792,-0.0133 z m 1.60197,0.005 c -0.0422,-0.0133 -0.0754,-0.0351 -0.10963,-0.0723 -0.10164,-0.11027 -0.0949,-0.27052 0.0156,-0.37152 0.0236,-0.0215 0.0588,-0.0447 0.0827,-0.0543 l 0.0416,-0.0168 h 1.37661 1.37661 l 0.0434,0.0175 c 0.0523,0.021 0.11534,0.081 0.1416,0.13468 0.0154,0.0314 0.0177,0.0463 0.0178,0.1123 5e-5,0.0728 -10e-4,0.078 -0.0246,0.12149 -0.0283,0.0522 -0.0637,0.0868 -0.11821,0.11554 l -0.0383,0.0202 -1.38748,0.001 c -1.12712,10e-4 -1.39315,-4.2e-4 -1.41773,-0.008 z m 3.69854,-0.003 c -0.13887,-0.0508 -0.20945,-0.20626 -0.15716,-0.34619 0.0219,-0.0586 0.0873,-0.12439 0.14776,-0.14872 l 0.0435,-0.0175 h 0.58325 0.58325 l 0.0435,0.0175 c 0.0605,0.0243 0.12576,0.09 0.14813,0.14917 0.0222,0.0587 0.0225,0.13626 6.6e-4,0.19378 -0.0206,0.0543 -0.0737,0.11222 -0.12824,0.13983 l -0.0423,0.0214 -0.59411,0.002 c -0.54629,0.001 -0.59686,6e-4 -0.62819,-0.0109 z m -2.22657,-2.80469 c 0.55579,-0.55491 0.58928,-0.58695 0.63045,-0.60318 l 0.0435,-0.0171 3.86356,0.003 3.86356,0.003 v -2.12016 -2.12016 l -4.49752,0.002 -4.49753,0.002 -0.002,2.7188 c -10e-4,1.49534 5.8e-4,2.71881 0.004,2.71881 0.003,0 0.26948,-0.26372 0.59231,-0.58604 z m 0.36542,-1.16975 c -0.0564,-0.0233 -0.0917,-0.0522 -0.12318,-0.10084 -0.0334,-0.0516 -0.0458,-0.10107 -0.0412,-0.16449 0.009,-0.12048 0.0965,-0.21638 0.21884,-0.23879 0.0276,-0.005 0.1854,-0.008 0.44015,-0.008 h 0.39717 v -0.39459 -0.3946 l -0.42567,-0.002 c -0.42525,-0.002 -0.4257,-0.002 -0.46697,-0.0188 -0.0579,-0.0234 -0.10887,-0.0716 -0.13779,-0.13035 l -0.0238,-0.0483 v -0.7283 -0.72831 l 0.0193,-0.0411 c 0.027,-0.0576 0.0715,-0.10304 0.1282,-0.13096 l 0.0478,-0.0235 0.56891,-0.002 c 0.41434,-0.002 0.57975,0 0.60877,0.006 0.0831,0.0177 0.15038,0.0718 0.1871,0.1506 0.0163,0.0349 0.0192,0.051 0.0192,0.10633 0,0.0553 -0.003,0.0715 -0.0192,0.10632 -0.0268,0.0575 -0.0713,0.10301 -0.12809,0.13096 l -0.0478,0.0236 -0.42944,0.002 -0.42945,0.002 v 0.39806 0.39805 l 0.43291,0.002 0.4329,0.002 0.0419,0.0212 c 0.0516,0.0261 0.10145,0.0783 0.1271,0.13299 l 0.0194,0.0414 v 0.72453 0.72454 l -0.0225,0.0471 c -0.027,0.0565 -0.0718,0.10233 -0.12596,0.12893 l -0.0399,0.0196 -0.59411,0.002 -0.59412,0.002 z m 2.39764,0.007 c -0.0726,-0.0271 -0.12053,-0.0691 -0.15647,-0.1373 l -0.0199,-0.0378 -0.004,-1.37298 c -0.003,-0.96832 -10e-4,-1.38367 0.004,-1.40922 0.0388,-0.17957 0.24951,-0.2646 0.40332,-0.16273 0.0259,0.0172 0.13854,0.15321 0.46957,0.56723 0.23951,0.29955 0.43807,0.54559 0.44125,0.54676 0.003,10e-4 0.20047,-0.24174 0.43843,-0.53978 0.29758,-0.3727 0.44362,-0.55002 0.46775,-0.56792 0.13515,-0.10028 0.33599,-0.0418 0.40023,0.11659 l 0.0162,0.0399 v 1.38024 1.38023 l -0.0168,0.0416 c -0.0222,0.055 -0.0779,0.11525 -0.13034,0.14099 -0.0372,0.0183 -0.0487,0.0202 -0.1173,0.0202 -0.0728,0 -0.078,-0.001 -0.12149,-0.0246 -0.0543,-0.0295 -0.0908,-0.0679 -0.11663,-0.12303 l -0.0191,-0.0407 -0.004,-0.97964 -0.004,-0.97963 -0.30431,0.38106 c -0.32749,0.4101 -0.33362,0.41654 -0.4197,0.44109 -0.0599,0.0171 -0.12089,0.0112 -0.17946,-0.0172 -0.0251,-0.0122 -0.054,-0.0297 -0.0642,-0.0389 -0.0102,-0.009 -0.15203,-0.18407 -0.31517,-0.38863 l -0.2966,-0.37191 -0.004,0.96965 c -0.003,0.88262 -0.005,0.97235 -0.0157,0.99962 -0.0286,0.0709 -0.0775,0.12425 -0.14273,0.15564 -0.0421,0.0202 -0.14934,0.0266 -0.19049,0.0112 z m 3.43776,-6.6e-4 c -0.12102,-0.0382 -0.20148,-0.17451 -0.1762,-0.29852 0.0178,-0.0875 0.0832,-0.16664 0.16482,-0.1996 l 0.0416,-0.0168 0.42204,-0.002 0.42204,-0.002 v -0.39427 -0.39427 l -0.42566,-0.002 -0.42566,-0.002 -0.0482,-0.0228 c -0.0829,-0.0393 -0.13342,-0.10451 -0.15078,-0.19477 -0.006,-0.0312 -0.008,-0.2362 -0.006,-0.73516 l 0.002,-0.69192 0.0198,-0.0423 c 0.0265,-0.0565 0.0564,-0.093 0.0979,-0.1194 0.073,-0.0465 0.0561,-0.0454 0.69086,-0.0432 l 0.57523,0.002 0.0451,0.0208 c 0.053,0.0245 0.11097,0.0818 0.13459,0.13313 0.0129,0.0281 0.0159,0.0477 0.0159,0.10688 8e-5,0.0648 -0.002,0.0768 -0.0204,0.11403 -0.026,0.053 -0.0734,0.10038 -0.12639,0.12639 l -0.0416,0.0204 -0.43297,0.002 -0.43297,0.002 0.002,0.39646 0.002,0.39646 0.43109,0.004 0.4311,0.004 0.0413,0.0193 c 0.0526,0.0247 0.10308,0.0751 0.12776,0.12776 l 0.0194,0.0413 v 0.7354 0.7354 l -0.0246,0.0454 c -0.0283,0.0522 -0.0637,0.0868 -0.11821,0.11554 l -0.0383,0.0202 -0.59411,10e-4 c -0.47445,10e-4 -0.60021,-5.2e-4 -0.62437,-0.008 z m -2.03828,-6.17044 v -0.62363 l -0.0181,-0.0539 c -0.0431,-0.12854 -0.1411,-0.22602 -0.26681,-0.26555 l -0.052,-0.0163 h -3.62628 c -3.49965,0 -3.6278,4.7e-4 -3.66975,0.0133 -0.14882,0.0456 -0.25857,0.16403 -0.28978,0.31271 -0.009,0.0422 -0.0107,0.15147 -0.0108,0.65389 l -1.4e-4,0.60317 h 3.96682 3.96681 z m -4.84604,0.0803 c -0.0213,-0.008 -0.0528,-0.0247 -0.0698,-0.0378 -0.1605,-0.1231 -0.13201,-0.36703 0.053,-0.45376 l 0.0411,-0.0193 0.83608,-0.002 c 0.92853,-0.002 0.88717,-0.004 0.96254,0.0457 0.0774,0.0512 0.12388,0.14863 0.11521,0.24146 -0.009,0.0937 -0.0676,0.17592 -0.15557,0.21715 l -0.0411,0.0193 -0.85132,0.002 c -0.82558,0.002 -0.8525,10e-4 -0.8901,-0.0124 z"
       id="path826"
       inkscape:connector-curvature="0" />
  </g>
</svg>
