<?xml version="1.0" encoding="UTF-8" standalone="no"?>
<!-- Created with Inkscape (http://www.inkscape.org/) -->

<svg
   xmlns:dc="http://purl.org/dc/elements/1.1/"
   xmlns:cc="http://creativecommons.org/ns#"
   xmlns:rdf="http://www.w3.org/1999/02/22-rdf-syntax-ns#"
   xmlns:svg="http://www.w3.org/2000/svg"
   xmlns="http://www.w3.org/2000/svg"
   xmlns:sodipodi="http://sodipodi.sourceforge.net/DTD/sodipodi-0.dtd"
   xmlns:inkscape="http://www.inkscape.org/namespaces/inkscape"
   width="18.52083mm"
   height="17.987724mm"
   viewBox="0 0 18.52083 17.987724"
   version="1.1"
   id="svg8"
   inkscape:version="0.92.4 (5da689c313, 2019-01-14)"
   sodipodi:docname="antiddos_horizontal_icon_1.svg">
  <defs
     id="defs2" />
  <sodipodi:namedview
     id="base"
     pagecolor="#ffffff"
     bordercolor="#666666"
     borderopacity="1.0"
     inkscape:pageopacity="0.0"
     inkscape:pageshadow="2"
     inkscape:zoom="2.8"
     inkscape:cx="32.486129"
     inkscape:cy="62.662523"
     inkscape:document-units="mm"
     inkscape:current-layer="layer1"
     showgrid="false"
     fit-margin-top="0"
     fit-margin-left="0"
     fit-margin-right="0"
     fit-margin-bottom="0"
     inkscape:window-width="1920"
     inkscape:window-height="1017"
     inkscape:window-x="-8"
     inkscape:window-y="-8"
     inkscape:window-maximized="1" />
  <metadata
     id="metadata5">
    <rdf:RDF>
      <cc:Work
         rdf:about="">
        <dc:format>image/svg+xml</dc:format>
        <dc:type
           rdf:resource="http://purl.org/dc/dcmitype/StillImage" />
        <dc:title></dc:title>
      </cc:Work>
    </rdf:RDF>
  </metadata>
  <g
     inkscape:label="Layer 1"
     inkscape:groupmode="layer"
     id="layer1"
     transform="translate(461.83022,-407.99696)">
    <path
       style="fill:#fe8138;stroke-width:0.00995209"
       d="m -452.74698,425.92534 c -0.6736,-0.24333 -1.27159,-0.55442 -1.83055,-0.95229 -0.58247,-0.41462 -1.13426,-0.94574 -1.55167,-1.49357 -0.053,-0.0696 -0.1003,-0.13093 -0.10513,-0.1364 -0.006,-0.007 -0.95874,-0.0116 -2.80234,-0.0149 l -2.79355,-0.005 v -7.66311 -7.66311 h 9.26042 9.26041 v 7.66311 7.66311 l -2.79355,0.005 c -1.84365,0.003 -2.79652,0.008 -2.80229,0.0149 -0.005,0.005 -0.0462,0.0592 -0.092,0.11943 -0.85342,1.12234 -2.05957,1.99313 -3.42397,2.47197 -0.0797,0.028 -0.14915,0.0506 -0.15426,0.0502 -0.005,-3.9e-4 -0.0823,-0.0271 -0.17154,-0.0593 z m -0.16119,-1.46564 c 0,-0.5154 0.003,-0.68261 0.0119,-0.69167 0.0171,-0.0171 0.63577,-0.0171 0.65286,0 0.009,0.009 0.0119,0.17651 0.0119,0.69275 v 0.68081 l 0.025,-0.006 c 0.0394,-0.01 0.29467,-0.12912 0.44769,-0.20913 0.60232,-0.3149 1.12882,-0.69675 1.60574,-1.16457 0.87344,-0.85678 1.49655,-1.93705 1.79135,-3.10559 0.0823,-0.32612 0.1376,-0.63982 0.17728,-1.00516 0.0158,-0.14511 0.0176,-0.34827 0.0206,-2.29 0.003,-1.72297 8.7e-4,-2.13267 -0.009,-2.14073 -0.0149,-0.0117 -4.01503,-1.85439 -4.04085,-1.8615 -0.0165,-0.005 -0.0174,0.0315 -0.0176,0.6557 -8e-5,0.36326 -0.004,0.66614 -0.008,0.67306 -0.006,0.01 -0.0802,0.012 -0.33573,0.01 l -0.32775,-0.003 -0.003,-0.67042 c -0.002,-0.63192 -0.004,-0.67015 -0.0199,-0.66571 -0.0255,0.007 -4.02576,1.84983 -4.04078,1.86155 -0.0103,0.008 -0.0121,0.41775 -0.009,2.14072 0.004,2.33009 1.9e-4,2.18634 0.0624,2.61344 0.14035,0.96386 0.48857,1.87915 1.02418,2.69204 0.36845,0.5592 0.82953,1.07142 1.34405,1.49314 0.34051,0.2791 0.74435,0.54647 1.13942,0.75437 0.17062,0.0898 0.45746,0.22415 0.48028,0.22496 0.0164,5.9e-4 0.0174,-0.0381 0.0174,-0.6791 z m 0.0498,-2.4455 c -1.0176,-0.10518 -1.90742,-0.71779 -2.34864,-1.61694 -0.12423,-0.25316 -0.18701,-0.43371 -0.24249,-0.69732 -0.0564,-0.2681 -0.0727,-0.63252 -0.0405,-0.90994 0.0755,-0.65179 0.36619,-1.24988 0.83464,-1.71706 0.37931,-0.37828 0.83811,-0.63949 1.3551,-0.77148 0.23669,-0.0604 0.39045,-0.0803 0.66586,-0.0862 0.33869,-0.007 0.58485,0.0235 0.88794,0.11077 0.45012,0.12956 0.87966,0.37678 1.22003,0.70217 0.48916,0.46764 0.7937,1.07691 0.87812,1.7568 0.0336,0.27103 0.0179,0.62774 -0.0404,0.91691 -0.14279,0.70756 -0.57948,1.36873 -1.18101,1.78812 -0.39122,0.27277 -0.79304,0.43132 -1.29193,0.5098 -0.12172,0.0191 -0.56237,0.0282 -0.69664,0.0143 z m 0.43819,-0.65649 c 0.55002,-0.0397 1.0435,-0.25742 1.4315,-0.63166 0.63337,-0.6109 0.84968,-1.51175 0.56315,-2.34524 -0.10729,-0.31213 -0.3089,-0.62393 -0.5607,-0.8672 -0.70261,-0.67881 -1.75744,-0.83506 -2.62566,-0.38893 -0.99494,0.51124 -1.46521,1.66603 -1.10576,2.71527 0.25342,0.73971 0.90131,1.3115 1.66759,1.47172 0.15016,0.0314 0.27302,0.046 0.45542,0.054 0.0219,9.7e-4 0.1004,-0.003 0.17446,-0.008 z m -1.03595,-1.63136 -0.61142,-0.60696 0.23012,-0.22938 c 0.12657,-0.12616 0.2346,-0.22939 0.24006,-0.22939 0.005,0 0.17801,0.16571 0.38343,0.36823 0.20541,0.20253 0.37662,0.36823 0.38047,0.36823 0.004,0 0.29131,-0.28102 0.63882,-0.62449 0.34751,-0.34348 0.63707,-0.62747 0.64346,-0.63111 0.0124,-0.007 0.47547,0.43666 0.47469,0.45484 -5.9e-4,0.0135 -1.73846,1.7304 -1.75532,1.73414 -0.007,0.002 -0.28803,-0.27027 -0.62431,-0.60411 z m -3.2338,2.92705 c 0,-0.004 -0.0318,-0.066 -0.0706,-0.13684 -0.46529,-0.84961 -0.75651,-1.7874 -0.85439,-2.75125 -0.0373,-0.36701 -0.0403,-0.57436 -0.0403,-2.79382 l -8e-5,-2.16186 0.0224,-0.0144 c 0.0123,-0.008 1.15645,-0.53668 2.54252,-1.17498 l 2.52013,-1.16056 2.52061,1.16051 c 1.38633,0.63828 2.53087,1.16715 2.54343,1.17526 l 0.0228,0.0147 -0.004,2.31086 c -0.004,2.49779 -0.002,2.38407 -0.0574,2.82339 -0.11174,0.88078 -0.39346,1.75895 -0.81092,2.52783 -0.049,0.0903 -0.0906,0.16982 -0.0924,0.17667 -0.003,0.01 0.44611,0.012 2.23424,0.01 l 2.23747,-0.003 v -5.89164 -5.89163 l -8.58806,-0.002 c -6.86389,-0.002 -8.58965,1e-5 -8.59597,0.01 -0.01,0.015 -0.0111,11.76466 -0.002,11.77416 0.01,0.01 4.47181,0.008 4.47181,-0.001 z m 12.70766,-12.46559 c 0.008,-0.01 0.0105,-0.21911 0.009,-0.76879 l -0.003,-0.75527 -8.58806,-0.002 c -6.86389,-0.002 -8.58964,0 -8.59596,0.01 -0.004,0.007 -0.008,0.34855 -0.008,0.75935 -1.2e-4,0.56783 0.003,0.74977 0.0118,0.75885 0.0188,0.0188 17.15851,0.0172 17.17415,-0.002 z m -15.91024,-0.43629 c -0.0138,-0.0138 -0.0173,-0.62106 -0.004,-0.64255 0.006,-0.01 0.0802,-0.012 0.33573,-0.01 l 0.32775,0.003 0.003,0.31728 c 0.002,0.22583 -6.3e-4,0.32121 -0.009,0.33091 -0.0155,0.0186 -0.63522,0.0202 -0.65377,0.002 z m 1.34389,0.004 c -0.01,-0.006 -0.012,-0.0792 -0.01,-0.33076 l 0.003,-0.32276 0.3309,-0.003 0.33091,-0.003 v 0.32749 c 0,0.28945 -0.002,0.32819 -0.0157,0.33353 -0.0237,0.009 -0.62423,0.007 -0.63875,-0.002 z m 1.34367,0.002 c -0.01,-0.004 -0.0124,-0.0799 -0.0124,-0.33274 v -0.32773 l 0.33091,0.003 0.33091,0.003 0.003,0.32276 c 0.002,0.2516 -1.6e-4,0.32453 -0.01,0.33076 -0.0134,0.009 -0.62113,0.0101 -0.64205,0.002 z"
       id="path826"
       inkscape:connector-curvature="0" />
  </g>
</svg>
