<?xml version="1.0" encoding="UTF-8" standalone="no"?>
<!-- Created with Inkscape (http://www.inkscape.org/) -->

<svg
   xmlns:dc="http://purl.org/dc/elements/1.1/"
   xmlns:cc="http://creativecommons.org/ns#"
   xmlns:rdf="http://www.w3.org/1999/02/22-rdf-syntax-ns#"
   xmlns:svg="http://www.w3.org/2000/svg"
   xmlns="http://www.w3.org/2000/svg"
   xmlns:sodipodi="http://sodipodi.sourceforge.net/DTD/sodipodi-0.dtd"
   xmlns:inkscape="http://www.inkscape.org/namespaces/inkscape"
   width="70"
   height="72.981941"
   viewBox="0 0 18.520832 19.309805"
   version="1.1"
   id="svg8"
   inkscape:version="0.92.4 (5da689c313, 2019-01-14)"
   sodipodi:docname="antiddos_horizontal_icon_4.svg">
  <defs
     id="defs2" />
  <sodipodi:namedview
     id="base"
     pagecolor="#ffffff"
     bordercolor="#666666"
     borderopacity="1.0"
     inkscape:pageopacity="0.0"
     inkscape:pageshadow="2"
     inkscape:zoom="5.6"
     inkscape:cx="5.9824988"
     inkscape:cy="20.529991"
     inkscape:document-units="mm"
     inkscape:current-layer="layer1"
     showgrid="false"
     fit-margin-top="0"
     fit-margin-left="0"
     fit-margin-right="0"
     fit-margin-bottom="0"
     inkscape:window-width="1920"
     inkscape:window-height="1017"
     inkscape:window-x="-8"
     inkscape:window-y="-8"
     inkscape:window-maximized="1"
     units="px" />
  <metadata
     id="metadata5">
    <rdf:RDF>
      <cc:Work
         rdf:about="">
        <dc:format>image/svg+xml</dc:format>
        <dc:type
           rdf:resource="http://purl.org/dc/dcmitype/StillImage" />
        <dc:title></dc:title>
      </cc:Work>
    </rdf:RDF>
  </metadata>
  <g
     inkscape:label="Layer 1"
     inkscape:groupmode="layer"
     id="layer1"
     transform="translate(1001.0545,-1211.1599)">
    <path
       style="fill:#fe8038;stroke-width:0.00745383"
       d="m -995.06643,1230.4649 c -0.12085,-0.017 -0.27241,-0.081 -0.37021,-0.155 -0.0702,-0.053 -0.16905,-0.1615 -0.21038,-0.2306 -0.0433,-0.072 -0.0802,-0.1673 -0.099,-0.2546 -0.013,-0.06 -0.0136,-0.1446 -0.0136,-1.7554 v -1.692 l 0.0168,-0.066 c 0.0336,-0.132 0.099,-0.2437 0.19682,-0.3367 0.0968,-0.092 0.21342,-0.1531 0.34091,-0.1788 0.0931,-0.019 0.24961,-0.012 0.33836,0.014 0.15725,0.047 0.22928,0.1001 0.38912,0.2869 0.11849,0.1384 0.29581,0.2777 0.43627,0.3426 0.13846,0.064 0.25884,0.091 0.40869,0.091 0.17086,0 0.30689,-0.03 0.45304,-0.1002 0.30074,-0.144 0.50538,-0.4018 0.57774,-0.7278 0.0229,-0.103 0.0249,-0.304 0.004,-0.4019 -0.0437,-0.2051 -0.13303,-0.3768 -0.27179,-0.5226 -0.14525,-0.1527 -0.33853,-0.2603 -0.54786,-0.3051 -0.09,-0.019 -0.24389,-0.027 -0.32708,-0.015 -0.2844,0.038 -0.52507,0.1868 -0.77422,0.4784 -0.0917,0.1074 -0.14669,0.1522 -0.24251,0.1979 -0.102,0.049 -0.17913,0.065 -0.30516,0.065 -0.15079,3e-4 -0.26311,-0.032 -0.38033,-0.1088 -0.14579,-0.095 -0.24523,-0.2345 -0.29643,-0.4142 l -0.0164,-0.058 -0.002,-1.6547 c -10e-4,-1.0867 4.2e-4,-1.6791 0.005,-1.7256 0.0145,-0.1354 0.0635,-0.2704 0.13528,-0.3727 l 0.0314,-0.045 -0.0314,-0.045 c -0.0698,-0.1 -0.11995,-0.2353 -0.13485,-0.3653 -0.005,-0.039 -0.007,-0.6811 -0.007,-1.6868 v -1.6234 l -0.0183,-0.018 c -0.0254,-0.025 -0.0591,-0.024 -0.0848,0 -0.011,0.011 -0.0482,0.055 -0.0829,0.097 -0.11465,0.1394 -0.28824,0.2915 -0.4407,0.3863 -0.1831,0.1138 -0.408,0.1957 -0.63334,0.2305 -0.11715,0.018 -0.35116,0.018 -0.46933,10e-5 -0.52373,-0.08 -0.9644,-0.3769 -1.2241,-0.8248 -0.37877,-0.6531 -0.26177,-1.4873 0.2822,-2.0128 0.25337,-0.2447 0.54957,-0.3947 0.90463,-0.4581 0.11035,-0.02 0.35238,-0.024 0.47705,-0.01 0.44,0.056 0.83508,0.2852 1.13728,0.66 0.0719,0.089 0.0886,0.097 0.12759,0.064 l 0.0209,-0.018 0.004,-1.6685 c 0.004,-1.5719 0.005,-1.6716 0.0174,-1.7243 0.0202,-0.084 0.058,-0.1792 0.0987,-0.2475 0.0423,-0.071 0.17574,-0.211 0.24243,-0.2542 0.10633,-0.069 0.2276,-0.115 0.34513,-0.1313 0.0395,-0.01 0.58024,-0.01 1.72949,-0.01 1.82654,0 1.72239,0 1.84771,0.042 0.20556,0.073 0.36958,0.2486 0.43119,0.4613 0.0149,0.052 0.0172,0.076 0.0172,0.1861 0,0.1402 -0.0102,0.1927 -0.0563,0.2903 -0.0481,0.1019 -0.0908,0.1525 -0.22322,0.2646 -0.26441,0.2238 -0.41504,0.4573 -0.45958,0.7122 -0.0174,0.1 -0.0102,0.2873 0.015,0.3881 0.0513,0.2051 0.1474,0.3714 0.29706,0.5142 0.15119,0.1443 0.32606,0.234 0.53906,0.2765 0.0908,0.018 0.28656,0.018 0.37816,10e-5 0.33361,-0.066 0.60415,-0.2701 0.754,-0.5694 0.0662,-0.1323 0.0992,-0.2629 0.10607,-0.4194 0.0119,-0.2736 -0.0936,-0.5232 -0.32057,-0.7582 -0.0498,-0.052 -0.12525,-0.1223 -0.16766,-0.1572 -0.17858,-0.147 -0.25723,-0.2977 -0.26716,-0.512 -0.007,-0.1439 0.023,-0.2643 0.0949,-0.3853 0.0373,-0.063 0.12692,-0.159 0.1903,-0.2042 0.0593,-0.042 0.15613,-0.088 0.23053,-0.1093 l 0.0596,-0.017 h 1.69575 c 1.20534,0 1.71299,10e-5 1.75538,0.01 0.2109,0.029 0.40203,0.1376 0.53362,0.3032 0.0564,0.071 0.0916,0.1348 0.12321,0.2231 0.0521,0.1459 0.0482,-0.2381 0.0459,4.4826 l -0.002,4.2673 -0.02,0.072 c -0.0233,0.084 -0.0659,0.1789 -0.10952,0.2431 -0.0169,0.025 -0.0308,0.049 -0.0308,0.053 0,0 0.0135,0.028 0.0299,0.052 0.0428,0.063 0.0872,0.1614 0.11035,0.2452 l 0.02,0.072 v 1.7144 1.7144 l -0.0168,0.063 c -0.078,0.2938 -0.32758,0.4995 -0.63002,0.5193 -0.17961,0.012 -0.37216,-0.052 -0.49359,-0.1628 -0.0238,-0.022 -0.0719,-0.073 -0.10684,-0.1141 -0.30453,-0.3573 -0.63408,-0.5107 -1.00026,-0.4657 -0.47167,0.058 -0.84722,0.4206 -0.91611,0.8844 -0.0116,0.078 -0.01,0.2431 0.003,0.32 0.0748,0.4357 0.42212,0.7811 0.86018,0.8555 0.0903,0.015 0.25371,0.016 0.34055,4e-4 0.25275,-0.044 0.48613,-0.1951 0.71682,-0.464 0.0941,-0.1097 0.15135,-0.1573 0.24427,-0.2029 0.10436,-0.051 0.15885,-0.062 0.30894,-0.062 0.12081,0 0.13528,0 0.19601,0.02 0.23535,0.072 0.40767,0.2482 0.47625,0.4859 l 0.0172,0.06 0.002,1.6846 c 0.002,1.5179 9.9e-4,1.6917 -0.01,1.7573 -0.0283,0.1723 -0.10117,0.313 -0.22678,0.4379 -0.12559,0.1249 -0.27004,0.1993 -0.44079,0.227 -0.0624,0.01 -0.545,0.011 -4.35241,0.01 -2.3629,-5e-4 -4.30227,0 -4.32695,-0.01 z m 8.62828,-0.6383 c 0.0496,-0.025 0.0847,-0.07 0.0957,-0.1212 0.006,-0.027 0.008,-0.5091 0.008,-1.6367 0,-1.7462 0.003,-1.6413 -0.0419,-1.6582 -0.0352,-0.013 -0.0573,0 -0.10122,0.051 -0.16032,0.1943 -0.36088,0.3646 -0.57027,0.4843 -0.39882,0.2279 -0.87022,0.2724 -1.31984,0.1244 -0.24867,-0.082 -0.47987,-0.2258 -0.66875,-0.4166 -0.49685,-0.5017 -0.62074,-1.2596 -0.30885,-1.8893 0.24744,-0.4997 0.71404,-0.8363 1.27785,-0.9219 0.11268,-0.017 0.34403,-0.017 0.45468,0 0.29195,0.045 0.56909,0.1687 0.81247,0.3622 0.0764,0.061 0.23426,0.2149 0.31077,0.3036 0.0553,0.064 0.0615,0.069 0.0874,0.069 0.0203,0 0.0328,-0.01 0.0459,-0.019 l 0.0181,-0.019 0.002,-1.6113 c 10e-4,-1.1201 -4.7e-4,-1.623 -0.006,-1.6498 -0.009,-0.046 -0.0518,-0.098 -0.0994,-0.1239 l -0.0308,-0.016 h -1.69574 c -1.58124,0 -1.69895,0 -1.74323,-0.017 -0.24056,-0.066 -0.42098,-0.23 -0.49653,-0.4521 -0.0553,-0.1625 -0.0415,-0.373 0.0344,-0.5243 0.0498,-0.1 0.0954,-0.1504 0.26938,-0.3014 0.21409,-0.1858 0.3541,-0.4068 0.40499,-0.6393 0.0196,-0.09 0.018,-0.274 -0.003,-0.3741 -0.0878,-0.4133 -0.40032,-0.7278 -0.8136,-0.8186 -0.088,-0.019 -0.29394,-0.023 -0.38885,-0.01 -0.22131,0.037 -0.41479,0.1362 -0.57297,0.2944 -0.20044,0.2004 -0.3052,0.4502 -0.3053,0.7279 0,0.324 0.15597,0.6046 0.49019,0.8812 0.0454,0.038 0.0994,0.09 0.12002,0.1155 0.21222,0.2667 0.1916,0.659 -0.0475,0.9033 -0.093,0.095 -0.19111,0.1535 -0.32074,0.1912 l -0.0594,0.017 h -1.69574 c -1.54434,0 -1.69813,0 -1.72238,0.016 -0.04,0.018 -0.078,0.055 -0.0956,0.092 l -0.0157,0.033 v 1.6328 1.6328 l 0.0183,0.018 c 0.0127,0.013 0.0266,0.018 0.0453,0.018 0.0224,0 0.0317,-0.01 0.0544,-0.031 0.2334,-0.2662 0.40842,-0.4116 0.64402,-0.5351 0.23795,-0.1247 0.4719,-0.1822 0.73998,-0.1818 0.19938,3e-4 0.34089,0.023 0.52922,0.086 0.60821,0.2014 1.04844,0.7309 1.13336,1.3633 0.0158,0.1178 0.0139,0.3326 -0.004,0.4552 -0.0968,0.6592 -0.59223,1.2057 -1.24253,1.3707 -0.15728,0.04 -0.22734,0.048 -0.41592,0.048 -0.18278,0 -0.24547,-0.01 -0.39283,-0.044 -0.23076,-0.059 -0.46745,-0.1821 -0.67307,-0.3515 -0.0777,-0.064 -0.21787,-0.2026 -0.31061,-0.307 -0.0396,-0.045 -0.0438,-0.047 -0.0667,-0.043 -0.0134,0 -0.0322,0.012 -0.0416,0.021 l -0.0171,0.016 2.8e-4,1.6329 c 2.8e-4,1.5654 7.3e-4,1.6342 0.0138,1.6629 0.0174,0.038 0.0557,0.077 0.094,0.094 0.0289,0.013 0.1803,0.014 4.28664,0.014 l 4.25666,3e-4 0.0404,-0.02 z m -5.23994,-9.341 c 0.021,-0.021 0.0276,-0.047 0.0161,-0.065 -0.003,0 -0.0407,-0.036 -0.0838,-0.07 -0.0928,-0.073 -0.23949,-0.2183 -0.30556,-0.3017 -0.25183,-0.318 -0.37731,-0.6914 -0.36298,-1.0804 0.0129,-0.3505 0.12194,-0.6596 0.33143,-0.9398 0.305,-0.4079 0.77437,-0.6528 1.28747,-0.6719 0.59072,-0.022 1.14982,0.2665 1.47294,0.7601 0.13403,0.2047 0.2187,0.4288 0.25682,0.6798 0.0172,0.1128 0.0173,0.3292 2.9e-4,0.4468 -0.0625,0.4328 -0.28826,0.8134 -0.65735,1.1084 -0.0809,0.065 -0.0851,0.069 -0.0851,0.096 0,0.019 0.005,0.032 0.0157,0.042 0.0153,0.014 0.0536,0.014 1.66779,0.014 1.59697,0 1.65298,-5e-4 1.6782,-0.014 0.0364,-0.019 0.073,-0.055 0.092,-0.091 l 0.0161,-0.03 v -4.2151 c 0,-4.054 -5.2e-4,-4.2165 -0.0135,-4.2502 -0.0151,-0.039 -0.052,-0.075 -0.0978,-0.096 -0.0292,-0.013 -0.0918,-0.014 -1.6776,-0.014 -1.28337,0 -1.64991,0 -1.65912,0.01 -0.0197,0.015 -0.0304,0.042 -0.0255,0.065 0.003,0.015 0.0261,0.039 0.0778,0.082 0.10327,0.085 0.26133,0.2503 0.34022,0.3552 0.18734,0.2489 0.29564,0.5086 0.33083,0.7933 0.0177,0.1434 0.007,0.3695 -0.0254,0.522 -0.12775,0.6062 -0.59438,1.0963 -1.20363,1.264 -0.24535,0.068 -0.52137,0.076 -0.78312,0.025 -0.24185,-0.048 -0.51435,-0.1754 -0.71184,-0.3334 -0.4829,-0.3865 -0.71698,-1.0164 -0.59646,-1.605 0.0757,-0.3699 0.29229,-0.715 0.63187,-1.0068 0.0875,-0.075 0.095,-0.084 0.095,-0.1074 0,-0.017 -0.006,-0.032 -0.0183,-0.044 l -0.0183,-0.018 -1.6495,2e-4 c -1.58138,1e-4 -1.65073,7e-4 -1.67948,0.014 -0.0344,0.016 -0.0727,0.052 -0.0914,0.086 -0.012,0.022 -0.0131,0.1325 -0.0167,1.7005 l -0.004,1.6771 -0.0167,0.063 c -0.035,0.1307 -0.10043,0.2416 -0.19629,0.3325 -0.13329,0.1264 -0.26286,0.1809 -0.44695,0.188 -0.11567,0 -0.18791,-0.01 -0.28307,-0.043 -0.12191,-0.047 -0.20589,-0.1115 -0.30512,-0.2342 -0.16833,-0.2081 -0.34713,-0.3435 -0.54984,-0.4163 -0.20045,-0.072 -0.46012,-0.071 -0.67082,0 -0.23897,0.084 -0.44176,0.2519 -0.56946,0.4704 -0.147,0.2518 -0.1773,0.577 -0.079,0.8541 0.1234,0.3497 0.42577,0.6105 0.79375,0.6846 0.093,0.019 0.30981,0.019 0.39585,-10e-5 0.14015,-0.031 0.28548,-0.096 0.4062,-0.1816 0.0728,-0.052 0.20268,-0.1783 0.26259,-0.2557 0.0238,-0.031 0.057,-0.071 0.0738,-0.088 0.14006,-0.1483 0.36427,-0.2281 0.57254,-0.2037 0.1608,0.019 0.29801,0.085 0.41187,0.1991 0.11123,0.1112 0.17918,0.2498 0.19724,0.4022 0.005,0.046 0.008,0.5894 0.008,1.6953 l 2e-5,1.6281 0.0156,0.032 c 0.0198,0.041 0.0675,0.082 0.11093,0.095 0.0284,0.01 0.29135,0.01 1.66859,0.011 l 1.63483,5e-4 0.0218,-0.022 z"
       id="path865"
       inkscape:connector-curvature="0" />
  </g>
</svg>
