<?xml version="1.0" encoding="UTF-8" standalone="no"?>
<svg
   xmlns:dc="http://purl.org/dc/elements/1.1/"
   xmlns:cc="http://creativecommons.org/ns#"
   xmlns:rdf="http://www.w3.org/1999/02/22-rdf-syntax-ns#"
   xmlns:svg="http://www.w3.org/2000/svg"
   xmlns="http://www.w3.org/2000/svg"
   id="svg8"
   version="1.1"
   viewBox="0 0 26.723154 17.452478"
   height="17.452478mm"
   width="26.723154mm">
  <defs
     id="defs2" />
  <metadata
     id="metadata5">
    <rdf:RDF>
      <cc:Work
         rdf:about="">
        <dc:format>image/svg+xml</dc:format>
        <dc:type
           rdf:resource="http://purl.org/dc/dcmitype/StillImage" />
        <dc:title></dc:title>
      </cc:Work>
    </rdf:RDF>
  </metadata>
  <g
     transform="translate(-8.35713,-5.6630465)"
     id="layer1">
    <path
       id="path909"
       d="m 12.66653,23.110844 c -2.03461,-0.18463 -3.6893803,-1.59802 -4.1743003,-3.56538 -0.0884,-0.35858 -0.11942,-0.5863 -0.13235,-0.97082 -0.0265,-0.78904 0.13872,-1.5508 0.48795,-2.24935 0.56736,-1.13487 1.5459903,-1.97962 2.7564203,-2.37934 l 0.17251,-0.057 -0.009,-0.17214 c -0.0651,-1.23379 0.25291,-2.28713 0.9784,-3.24093 0.17728,-0.23308 0.5953,-0.6511 0.82838,-0.82838 0.6666,-0.50703 1.34094,-0.79673 2.17903,-0.9361 0.28644,-0.0476 1.0766,-0.0476 1.35952,2e-5 0.10856,0.0183 0.20396,0.0265 0.21201,0.0181 0.008,-0.008 0.0396,-0.0783 0.0702,-0.15559 0.32724,-0.82763 0.97231,-1.61503 1.74485,-2.12986 0.59342,-0.39546 1.21216,-0.63329 1.94297,-0.74682 0.29348,-0.0456 0.99521,-0.0456 1.28926,-6e-5 0.7325,0.11346 1.36177,0.3567 1.95987,0.75755 0.76042,0.50963 1.41251,1.31133 1.73464,2.13262 0.0274,0.0699 0.0558,0.1335 0.0631,0.1413 0.007,0.008 0.0902,10e-4 0.18427,-0.0146 0.24175,-0.0406 0.72902,-0.0564 0.84977,-0.0274 0.20863,0.0501 0.40224,0.23917 0.46402,0.45325 0.0976,0.33824 -0.093,0.70213 -0.42278,0.80727 -0.0464,0.0148 -0.21109,0.0352 -0.36589,0.0454 -0.32523,0.0214 -0.52438,0.0536 -0.75382,0.12193 -0.32903,0.098 -0.34232,0.1006 -0.46101,0.0905 -0.21648,-0.0184 -0.43856,-0.16149 -0.53065,-0.342 -0.0195,-0.0382 -0.0637,-0.1797 -0.0982,-0.31446 -0.0768,-0.29948 -0.16022,-0.5192 -0.29369,-0.77314 -0.33427,-0.63598 -0.87086,-1.14989 -1.53063,-1.46593 -0.27403,-0.13126 -0.4906,-0.20464 -0.79626,-0.26979 -0.21157,-0.0451 -0.26266,-0.0489 -0.64735,-0.0489 -0.38468,0 -0.43578,0.004 -0.64735,0.0489 -0.30565,0.0652 -0.52222,0.13853 -0.79626,0.26979 -0.92074,0.44105 -1.57574,1.24606 -1.8245,2.24233 -0.0329,0.13168 -0.0827,0.28152 -0.11069,0.33297 -0.10501,0.19294 -0.29949,0.31071 -0.53401,0.32338 -0.11848,0.006 -0.16373,-10e-4 -0.34193,-0.0576 -0.90495,-0.28629 -1.84313,-0.1948 -2.6662,0.26001 -0.26786,0.14801 -0.47974,0.31104 -0.73347,0.56437 -0.45088,0.45014 -0.73821,0.94419 -0.88739,1.52581 -0.0891,0.34753 -0.10168,0.45387 -0.10168,0.86222 0,0.38639 0.0112,0.49196 0.0856,0.80805 0.0736,0.31286 0.0153,0.54802 -0.18012,0.72664 -0.11717,0.10709 -0.22464,0.14922 -0.48387,0.18968 -1.3769,0.21492 -2.48797,1.28614 -2.7701203,2.67076 -0.12267,0.60196 -0.0666,1.28241 0.15344,1.8618 0.2581503,0.67981 0.7589403,1.29127 1.3658303,1.66768 0.3444,0.2136 0.71618,0.36227 1.12979,0.45177 l 0.22738,0.0492 h 9.10652 9.10653 l 0.22737,-0.0492 c 0.70431,-0.15241 1.27601,-0.46726 1.76148,-0.97009 0.19734,-0.20441 0.30682,-0.34249 0.43359,-0.54689 0.53633,-0.86473 0.66238,-1.88165 0.35274,-2.8456 -0.38462,-1.1974 -1.43274,-2.0965 -2.66887,-2.28945 -0.25922,-0.0405 -0.36669,-0.0826 -0.48386,-0.18968 -0.18861,-0.17238 -0.25334,-0.41589 -0.18591,-0.6994 0.11999,-0.50454 0.13247,-1.04151 0.0352,-1.51263 -0.0724,-0.35059 -0.20903,-0.71061 -0.38079,-1.00352 -0.17488,-0.29822 -0.1804,-0.31373 -0.18041,-0.50726 -10e-6,-0.14846 0.007,-0.18673 0.0478,-0.27455 0.0651,-0.13875 0.15656,-0.23496 0.29229,-0.3073 0.1441,-0.0768 0.35026,-0.0951 0.50903,-0.0452 0.22557,0.071 0.35353,0.22508 0.60353,0.7269 0.37464,0.75203 0.529,1.5354 0.48118,2.44195 l -0.009,0.17214 0.17251,0.057 c 1.21044,0.39972 2.18906,1.24447 2.75643,2.37934 0.34922,0.69855 0.51447,1.46031 0.48795,2.24935 -0.0129,0.38421 -0.044,0.61224 -0.13208,0.96971 -0.0884,0.35883 -0.1876,0.62885 -0.35473,0.96593 -0.40936,0.82564 -1.05093,1.51494 -1.83788,1.97463 -0.51975,0.30361 -1.04761,0.48867 -1.70408,0.59743 -0.17451,0.0289 -0.79625,0.0311 -9.24822,0.0331 -4.98363,0.001 -9.09382,-9.2e-4 -9.13377,-0.005 z m 16.16656,-12.60643 c -0.027,-0.009 -0.16047,-0.0754 -0.29666,-0.14823 -0.27068,-0.14476 -0.34224,-0.20887 -0.42375,-0.37963 -0.0413,-0.0866 -0.0476,-0.12284 -0.047,-0.27238 5.6e-4,-0.1508 0.007,-0.18562 0.0512,-0.2767 0.0641,-0.13235 0.18289,-0.25134 0.3161,-0.31675 0.0925,-0.0454 0.12396,-0.0512 0.28008,-0.0512 h 0.17585 l 0.24463,0.12332 c 0.29536,0.1489 0.38953,0.22714 0.46981,0.39034 0.0554,0.11267 0.0597,0.13431 0.0597,0.3032 0,0.17267 -0.003,0.18766 -0.0622,0.29664 -0.0699,0.12899 -0.17888,0.23406 -0.30609,0.29522 -0.0653,0.0314 -0.12449,0.0425 -0.24907,0.0466 -0.0899,0.003 -0.1855,-0.002 -0.21248,-0.0104 z"
       style="fill:#ceeeff;stroke-width:0.01815858;fill-opacity:1" />
  </g>
</svg>
