<?xml version="1.0" encoding="UTF-8" standalone="no"?>
<!-- Created with Inkscape (http://www.inkscape.org/) -->

<svg
   xmlns:dc="http://purl.org/dc/elements/1.1/"
   xmlns:cc="http://creativecommons.org/ns#"
   xmlns:rdf="http://www.w3.org/1999/02/22-rdf-syntax-ns#"
   xmlns:svg="http://www.w3.org/2000/svg"
   xmlns="http://www.w3.org/2000/svg"
   xmlns:sodipodi="http://sodipodi.sourceforge.net/DTD/sodipodi-0.dtd"
   xmlns:inkscape="http://www.inkscape.org/namespaces/inkscape"
   width="70"
   height="73.021637"
   viewBox="0 0 18.520833 19.320309"
   version="1.1"
   id="svg8"
   inkscape:version="0.92.4 (5da689c313, 2019-01-14)"
   sodipodi:docname="cloud_server_horizontal_icon_1.svg">
  <defs
     id="defs2" />
  <sodipodi:namedview
     id="base"
     pagecolor="#ffffff"
     bordercolor="#666666"
     borderopacity="1.0"
     inkscape:pageopacity="0.0"
     inkscape:pageshadow="2"
     inkscape:zoom="5.6"
     inkscape:cx="-9.1621839"
     inkscape:cy="44.968168"
     inkscape:document-units="mm"
     inkscape:current-layer="layer1"
     showgrid="false"
     fit-margin-top="0"
     fit-margin-left="0"
     fit-margin-right="0"
     fit-margin-bottom="0"
     units="px"
     inkscape:window-width="1920"
     inkscape:window-height="1017"
     inkscape:window-x="-8"
     inkscape:window-y="-8"
     inkscape:window-maximized="1" />
  <metadata
     id="metadata5">
    <rdf:RDF>
      <cc:Work
         rdf:about="">
        <dc:format>image/svg+xml</dc:format>
        <dc:type
           rdf:resource="http://purl.org/dc/dcmitype/StillImage" />
        <dc:title></dc:title>
      </cc:Work>
    </rdf:RDF>
  </metadata>
  <g
     inkscape:label="Layer 1"
     inkscape:groupmode="layer"
     id="layer1"
     transform="translate(-62.224379,-658.14884)">
    <path
       style="fill:#fe8138;stroke-width:0.0075325"
       d="m 65.453983,676.87864 c -0.321073,-0.325 -0.583769,-0.59601 -0.583769,-0.60225 0,-0.0104 1.14484,-1.17464 1.169825,-1.18967 0.0082,-0.005 0.06133,0.0439 0.213323,0.19579 0.111344,0.11129 0.202444,0.20732 0.202444,0.21341 0,0.006 -0.101689,0.11295 -0.225975,0.23749 -0.124287,0.12453 -0.225975,0.23058 -0.225975,0.23567 0,0.007 0.32267,0.009 1.517516,0.009 1.514043,0 1.517612,0 1.55901,-0.0155 0.05045,-0.0189 0.104427,-0.0691 0.127195,-0.1184 0.01637,-0.0355 0.01643,-0.0373 0.01848,-0.62487 l 0.0021,-0.58932 0.01677,-0.004 c 0.0092,-0.002 0.140492,-0.003 0.291707,-0.002 l 0.274936,0.002 -5.7e-5,0.62897 -5.7e-5,0.62896 -0.02013,0.0731 c -0.0877,0.31854 -0.339174,0.55004 -0.656765,0.60462 -0.05848,0.01 -0.259719,0.0115 -1.598774,0.0115 -1.104629,0 -1.531877,0.002 -1.531877,0.008 0,0.005 0.101688,0.11183 0.225975,0.23843 0.124286,0.1266 0.225975,0.23392 0.225975,0.2385 0,0.0104 -0.400338,0.41123 -0.410573,0.41108 -0.0041,-8e-5 -0.270177,-0.26602 -0.59125,-0.59102 z m 11.259208,0.38973 c -0.110822,-0.11093 -0.201494,-0.20525 -0.201494,-0.2096 0,-0.004 0.101688,-0.11165 0.225975,-0.23844 0.124286,-0.12679 0.225975,-0.23416 0.225975,-0.2386 0,-0.006 -0.456584,-0.009 -1.561111,-0.0101 l -1.561112,-0.002 -0.07532,-0.0207 c -0.289826,-0.0796 -0.509821,-0.2997 -0.589309,-0.58962 l -0.0206,-0.0752 -1.14e-4,-0.62896 -1.14e-4,-0.62897 0.274936,-0.002 c 0.151215,-10e-4 0.282484,-2.6e-4 0.291707,0.002 l 0.01677,0.004 0.0021,0.58932 c 0.0021,0.58754 0.0021,0.58942 0.01848,0.62487 0.02277,0.0493 0.07674,0.0995 0.127196,0.1184 0.0414,0.0155 0.04497,0.0155 1.559009,0.0155 1.194846,0 1.517517,-0.002 1.517517,-0.009 0,-0.005 -0.101689,-0.11115 -0.225975,-0.23568 -0.124286,-0.12453 -0.225975,-0.23125 -0.225975,-0.23715 0,-0.006 0.09105,-0.10196 0.202337,-0.21347 0.153046,-0.15334 0.205014,-0.20112 0.213324,-0.19613 0.01874,0.0113 1.169805,1.17762 1.172027,1.18759 0.0022,0.01 -1.160017,1.19037 -1.175512,1.19378 -0.0051,10e-4 -0.09986,-0.0887 -0.210682,-0.19966 z m -5.522402,-0.67675 c -0.006,-0.0156 -0.006,-0.61594 0,-0.6315 0.0041,-0.0106 0.03694,-0.0119 0.292962,-0.0119 0.256025,0 0.288903,10e-4 0.292962,0.0119 0.006,0.0156 0.006,0.61594 0,0.6315 -0.0041,0.0106 -0.03694,0.0119 -0.292962,0.0119 -0.256025,0 -0.288903,-10e-4 -0.292962,-0.0119 z m 0,-1.31819 c -0.0025,-0.007 -0.0046,-0.15163 -0.0046,-0.32239 0,-0.23144 0.0023,-0.31278 0.009,-0.31951 0.01297,-0.013 0.564021,-0.013 0.57699,0 0.0067,0.007 0.009,0.0881 0.009,0.31951 0,0.17076 -0.0021,0.31584 -0.0046,0.32239 -0.0041,0.0106 -0.03694,0.0119 -0.292962,0.0119 -0.256025,0 -0.288903,-0.001 -0.292962,-0.0119 z m -1.959542,-1.3156 c -0.002,-0.005 -0.0028,-0.15356 -0.0017,-0.32963 l 0.002,-0.32014 h 0.290001 0.290002 v 0.32767 0.32766 l -0.288321,0.002 c -0.226615,0.002 -0.2891,-9e-5 -0.291967,-0.008 z m 1.964009,2.9e-4 c -0.007,-0.007 -0.009,-0.3393 -0.009,-1.45001 0,-0.79253 -0.0025,-1.44096 -0.0056,-1.44096 -0.0031,0 -0.109434,0.10378 -0.236336,0.23064 -0.16979,0.16972 -0.233465,0.2289 -0.241085,0.22404 -0.02359,-0.015 -0.398278,-0.39963 -0.398278,-0.40882 0,-0.0127 1.166241,-1.19081 1.178837,-1.19081 0.01245,0 1.178837,1.178 1.178837,1.19058 0,0.009 -0.375292,0.39456 -0.398278,0.4091 -0.0076,0.005 -0.07168,-0.0548 -0.241085,-0.22409 -0.126902,-0.12686 -0.233253,-0.23064 -0.236336,-0.23064 -0.0031,0 -0.0056,0.64843 -0.0056,1.44096 0,1.11071 -0.0021,1.44304 -0.009,1.45001 -0.0067,0.007 -0.08118,0.009 -0.288495,0.009 -0.207311,0 -0.281789,-0.002 -0.288495,-0.009 z m 1.960425,-2.9e-4 c -0.002,-0.005 -0.0028,-0.15356 -0.0017,-0.32963 l 0.002,-0.32014 h 0.290001 0.290002 v 0.32767 0.32766 l -0.28832,0.002 c -0.226616,0.002 -0.289102,-9e-5 -0.291969,-0.008 z m -6.515329,-1.35863 c -0.161617,-0.0289 -0.300799,-0.0995 -0.420033,-0.21306 -0.127003,-0.12101 -0.205373,-0.26166 -0.243885,-0.43769 -0.01359,-0.0621 -0.01401,-0.25568 -0.01401,-6.56834 0,-6.31266 4.13e-4,-6.50621 0.01401,-6.56835 0.06549,-0.29936 0.270976,-0.53041 0.554756,-0.62378 0.127336,-0.0419 -0.229541,-0.0391 4.952561,-0.0391 4.241855,0 4.777272,0.001 4.836763,0.0115 0.166133,0.0285 0.312048,0.10215 0.430999,0.21742 0.124464,0.1206 0.201554,0.26025 0.239555,0.43394 0.0136,0.0621 0.01401,0.25569 0.01401,6.56835 0,6.31266 -4.16e-4,6.5062 -0.01401,6.56834 -0.07509,0.34321 -0.332533,0.59329 -0.670554,0.65137 -0.0585,0.01 -0.263262,0.0115 -1.631864,0.0115 -1.420097,0 -1.565391,-10e-4 -1.56954,-0.0119 -0.0068,-0.0178 -0.0053,-0.5628 0.0016,-0.57366 0.0047,-0.007 0.334692,-0.01 1.568529,-0.0113 l 1.562593,-0.002 0.03859,-0.0204 c 0.0493,-0.026 0.09619,-0.0793 0.113535,-0.12901 0.01306,-0.0374 0.01359,-0.29178 0.01359,-6.483 0,-6.19122 -5.35e-4,-6.44559 -0.01359,-6.48301 -0.01732,-0.0496 -0.06034,-0.0985 -0.111787,-0.12702 l -0.04034,-0.0223 h -4.768075 -4.768074 l -0.04034,0.0223 c -0.05144,0.0285 -0.09447,0.0774 -0.111787,0.12702 -0.01306,0.0374 -0.01359,0.29179 -0.01359,6.48301 0,6.19122 5.32e-4,6.44558 0.01359,6.483 0.01735,0.0497 0.06424,0.103 0.113535,0.12901 l 0.03859,0.0204 1.562593,0.002 c 1.233837,0.002 1.563842,0.004 1.568529,0.0113 0.0069,0.0109 0.0084,0.5559 0.0016,0.57366 -0.0041,0.0108 -0.149632,0.0119 -1.576176,0.0112 -1.326492,-5.7e-4 -1.581003,-0.002 -1.631864,-0.0114 z m 0.599142,-1.32057 c -0.0084,-0.0158 -0.01149,-0.54724 -0.0033,-0.56866 0.0041,-0.0106 0.04,-0.0119 0.327751,-0.0119 h 0.323179 l -0.002,0.29565 -0.002,0.29565 -0.31794,0.002 c -0.308294,0.002 -0.318177,0.002 -0.325781,-0.0127 z m 7.846049,0.009 c -0.0028,-0.003 -0.005,-0.13665 -0.005,-0.29754 v -0.29251 h 0.323092 c 0.287668,0 0.323593,10e-4 0.327664,0.0119 0.0082,0.0213 0.0052,0.5529 -0.0032,0.56858 -0.0075,0.014 -0.01907,0.0146 -0.322642,0.0146 -0.173165,0 -0.317105,-0.002 -0.319866,-0.005 z m -7.849317,-1.33261 c -0.0082,-0.0213 -0.0052,-0.5529 0.0032,-0.56859 0.0077,-0.0143 0.02734,-0.0146 1.052715,-0.0146 h 1.044917 l 0.221208,-0.2213 c 0.121664,-0.12172 0.219847,-0.22539 0.218183,-0.23038 -0.0017,-0.005 -0.05377,-0.0368 -0.1158,-0.0707 -0.349312,-0.19087 -0.63788,-0.40599 -0.911089,-0.67919 -1.192937,-1.19294 -1.494554,-3.01816 -0.749314,-4.53444 0.270346,-0.55005 0.666905,-1.03078 1.155937,-1.4013 0.396458,-0.30037 0.868126,-0.53123 1.337385,-0.65456 0.341469,-0.0897 0.630599,-0.12676 0.990158,-0.12676 0.227949,0 0.376509,0.0105 0.576237,0.0406 0.543317,0.082 1.065373,0.28163 1.529097,0.58485 0.448924,0.29353 0.821659,0.66279 1.120185,1.10975 0.366677,0.54899 0.577899,1.14612 0.647199,1.82965 0.01764,0.17395 0.01766,0.54472 8.5e-5,0.72312 -0.05122,0.5187 -0.184741,0.98176 -0.411591,1.42741 -0.513879,1.0095 -1.438032,1.75253 -2.51509,2.02216 -0.329032,0.0824 -0.603039,0.11595 -0.946078,0.11595 -0.350264,0 -0.642582,-0.037 -0.97546,-0.12345 l -0.116753,-0.0303 -0.405481,0.40699 -0.405481,0.40699 h -1.169889 c -1.059838,0 -1.17032,-10e-4 -1.174462,-0.0119 z m 4.575189,-1.25771 c 0.719341,-0.0731 1.387028,-0.37863 1.917637,-0.87734 0.503958,-0.47366 0.84892,-1.09147 0.986177,-1.76617 0.192415,-0.94585 -0.02598,-1.91716 -0.604634,-2.68911 -0.174238,-0.23244 -0.415541,-0.47464 -0.65157,-0.654 -0.974768,-0.74074 -2.290486,-0.87298 -3.391908,-0.34091 -0.247357,0.11949 -0.480204,0.27011 -0.692467,0.44793 -0.09166,0.0768 -0.276075,0.25813 -0.360917,0.3549 -0.769003,0.87717 -1.024555,2.08686 -0.677595,3.20751 0.193915,0.62633 0.582048,1.19547 1.098772,1.61119 0.104377,0.084 0.331568,0.23819 0.445928,0.30268 0.09306,0.0525 0.312042,0.15797 0.33925,0.16341 0.02056,0.004 0.03862,-0.0127 0.306915,-0.2863 0.156787,-0.15987 0.289327,-0.29067 0.294533,-0.29067 0.01079,0 0.40611,0.40273 0.40611,0.41372 0,0.004 -0.0759,0.0855 -0.168655,0.18133 -0.10772,0.11124 -0.166042,0.17677 -0.161425,0.18139 0.01373,0.0137 0.262803,0.0443 0.4506,0.0553 0.08449,0.005 0.353617,-0.004 0.463249,-0.0148 z m -0.436398,-1.90196 c -0.495512,-0.0394 -0.933517,-0.3411 -1.153216,-0.79428 -0.191095,-0.39418 -0.191095,-0.84869 0,-1.24287 0.205981,-0.42488 0.596827,-0.71315 1.063023,-0.78404 0.102703,-0.0156 0.295151,-0.0156 0.397854,0 0.466364,0.0709 0.856969,0.35901 1.063023,0.78404 0.339575,0.70046 0.05384,1.54531 -0.640743,1.89454 -0.22119,0.11121 -0.4826,0.16228 -0.729941,0.14261 z m 0.274449,-0.60959 c 0.40377,-0.0798 0.691323,-0.47571 0.645414,-0.88857 -0.02244,-0.20176 -0.103218,-0.36894 -0.245877,-0.50883 -0.11311,-0.11092 -0.250805,-0.1849 -0.40241,-0.2162 -0.09829,-0.0203 -0.275899,-0.0161 -0.36622,0.009 -0.280689,0.0769 -0.499464,0.29231 -0.580432,0.57136 -0.02835,0.0977 -0.03833,0.21088 -0.02732,0.30989 0.02194,0.19732 0.102051,0.36651 0.237774,0.50219 0.196924,0.19685 0.461959,0.27628 0.73907,0.22149 z m -4.41324,-6.13599 c -0.0025,-0.007 -0.0046,-0.13471 -0.0046,-0.28479 0,-0.20644 0.0023,-0.27601 0.0094,-0.28572 0.0087,-0.0118 0.03505,-0.0127 0.325781,-0.0109 l 0.316365,0.002 0.002,0.29565 0.002,0.29565 h -0.323178 c -0.287749,0 -0.323681,-10e-4 -0.327751,-0.0119 z m 7.846091,-0.28373 0.002,-0.29565 0.316365,-0.002 c 0.29073,-0.002 0.317128,-9.4e-4 0.325781,0.0109 0.0071,0.01 0.0094,0.0793 0.0094,0.28572 0,0.15008 -0.0021,0.27824 -0.0046,0.28479 -0.0041,0.0106 -0.04,0.0119 -0.327751,0.0119 h -0.323179 z"
       id="path826"
       inkscape:connector-curvature="0" />
  </g>
</svg>
