<?xml version="1.0" encoding="UTF-8" standalone="no"?>
<!-- Created with Inkscape (http://www.inkscape.org/) -->

<svg
   xmlns:dc="http://purl.org/dc/elements/1.1/"
   xmlns:cc="http://creativecommons.org/ns#"
   xmlns:rdf="http://www.w3.org/1999/02/22-rdf-syntax-ns#"
   xmlns:svg="http://www.w3.org/2000/svg"
   xmlns="http://www.w3.org/2000/svg"
   xmlns:sodipodi="http://sodipodi.sourceforge.net/DTD/sodipodi-0.dtd"
   xmlns:inkscape="http://www.inkscape.org/namespaces/inkscape"
   width="15.346796mm"
   height="18.512955mm"
   viewBox="0 0 15.346796 18.512955"
   version="1.1"
   id="svg8"
   inkscape:version="0.92.4 (5da689c313, 2019-01-14)"
   sodipodi:docname="cloud_server_vertical_icon_3.svg">
  <defs
     id="defs2" />
  <sodipodi:namedview
     id="base"
     pagecolor="#ffffff"
     bordercolor="#666666"
     borderopacity="1.0"
     inkscape:pageopacity="0.0"
     inkscape:pageshadow="2"
     inkscape:zoom="5.6"
     inkscape:cx="-16.360731"
     inkscape:cy="29.249795"
     inkscape:document-units="mm"
     inkscape:current-layer="layer1"
     showgrid="false"
     fit-margin-top="0"
     fit-margin-left="0"
     fit-margin-right="0"
     fit-margin-bottom="0"
     inkscape:window-width="1920"
     inkscape:window-height="1017"
     inkscape:window-x="-8"
     inkscape:window-y="-8"
     inkscape:window-maximized="1" />
  <metadata
     id="metadata5">
    <rdf:RDF>
      <cc:Work
         rdf:about="">
        <dc:format>image/svg+xml</dc:format>
        <dc:type
           rdf:resource="http://purl.org/dc/dcmitype/StillImage" />
        <dc:title></dc:title>
      </cc:Work>
    </rdf:RDF>
  </metadata>
  <g
     inkscape:label="Layer 1"
     inkscape:groupmode="layer"
     id="layer1"
     transform="translate(-53.254609,-1023.1723)">
    <path
       style="fill:#fe8138;stroke-width:0.00836017"
       d="m 60.539235,1041.6774 c -2.199688,-0.116 -4.217194,-1.1483 -5.600658,-2.8657 -0.907505,-1.1265 -1.482285,-2.5075 -1.638946,-3.9377 -0.05364,-0.4898 -0.05961,-1.041 -0.01651,-1.5267 0.114104,-1.2863 0.537587,-2.4882 1.253333,-3.5573 0.16586,-0.2477 0.26943,-0.3869 0.282555,-0.3796 0.03039,0.017 0.465863,0.3499 0.465863,0.3563 0,0 -0.0472,0.073 -0.104879,0.1536 -0.769014,1.0705 -1.200183,2.2595 -1.304874,3.5983 -0.02684,0.3433 -0.01927,0.8485 0.01837,1.2248 0.261126,2.6112 1.990022,4.8842 4.451208,5.8522 1.655328,0.651 3.511259,0.651 5.166586,0 1.63825,-0.6443 2.981766,-1.8791 3.761515,-3.457 0.412964,-0.8357 0.638989,-1.6789 0.712601,-2.6585 0.01526,-0.2031 0.01272,-0.7407 -0.0045,-0.9615 -0.104679,-1.3387 -0.533768,-2.5224 -1.304021,-3.5975 -0.05815,-0.081 -0.105733,-0.1508 -0.105733,-0.1548 0,-0.01 0.43651,-0.3396 0.465864,-0.3559 0.01312,-0.01 0.116695,0.1319 0.282555,0.3796 0.715746,1.0691 1.139229,2.271 1.253333,3.5573 0.04309,0.4857 0.03713,1.0369 -0.01651,1.5267 -0.187975,1.7161 -0.963635,3.3249 -2.19834,4.5595 -1.456916,1.4569 -3.409298,2.2621 -5.459273,2.2517 -0.128747,-6e-4 -0.290516,0 -0.359488,-0.01 z m 0.04598,-1.3375 c -1.292189,-0.07 -2.532232,-0.5348 -3.556483,-1.3342 -0.269294,-0.2101 -0.657259,-0.5763 -0.869036,-0.8201 -0.554513,-0.6383 -0.97031,-1.3592 -1.235326,-2.1417 -0.441643,-1.3039 -0.440207,-2.739 0.004,-4.0431 0.261387,-0.7673 0.666349,-1.4728 1.202556,-2.0951 0.05423,-0.063 0.0986,-0.1194 0.0986,-0.1255 0,-0.015 -1.447571,-1.4616 -1.463067,-1.4616 -0.0069,0 -0.119783,0.1072 -0.250768,0.2383 -0.130986,0.131 -0.24197,0.2382 -0.246633,0.2382 -0.0047,0 -0.102484,-0.094 -0.217379,-0.209 l -0.208901,-0.209 0.706375,-0.7064 c 0.388507,-0.3885 0.710174,-0.7064 0.714817,-0.7064 0.0046,0 0.102439,0.094 0.217325,0.209 l 0.208884,0.209 -0.244477,0.2446 c -0.134463,0.1345 -0.244477,0.2483 -0.244477,0.2529 0,0.01 0.411377,0.4195 1.196889,1.1988 l 0.27309,0.271 0.111477,-0.096 c 1.162714,-1.0027 2.617742,-1.5451 4.145261,-1.5451 1.527676,0 2.982427,0.5423 4.145257,1.5451 l 0.111473,0.096 0.231294,-0.2291 c 0.673321,-0.6671 1.238694,-1.2333 1.238694,-1.2407 0,0 -0.110015,-0.1184 -0.244477,-0.2529 l -0.244477,-0.2446 0.208884,-0.209 c 0.114886,-0.115 0.212682,-0.209 0.217325,-0.209 0.0046,0 0.326311,0.3179 0.714817,0.7064 l 0.706375,0.7064 -0.208901,0.209 c -0.114896,0.115 -0.212716,0.209 -0.217379,0.209 -0.0047,0 -0.115647,-0.1072 -0.246633,-0.2382 -0.130985,-0.1311 -0.243831,-0.2383 -0.250768,-0.2383 -0.0155,0 -1.463067,1.4461 -1.463067,1.4616 0,0.01 0.04437,0.063 0.0986,0.1255 1.265073,1.4681 1.785214,3.4014 1.426263,5.3012 -0.151856,0.8037 -0.468163,1.5858 -0.91816,2.2703 -0.257145,0.3911 -0.487208,0.6723 -0.831652,1.0163 -0.273622,0.2732 -0.504882,0.4702 -0.798239,0.6798 -1.162163,0.8304 -2.585631,1.2437 -4.017992,1.1666 z m 0.631193,-0.6015 c 1.462666,-0.08 2.791583,-0.6799 3.808059,-1.7188 0.926353,-0.9468 1.475924,-2.1293 1.609994,-3.4643 0.01815,-0.1807 0.02549,-0.6917 0.01269,-0.8827 -0.02768,-0.4132 -0.09863,-0.8273 -0.206658,-1.2062 -0.436258,-1.5303 -1.505495,-2.8212 -2.933401,-3.5414 -0.662015,-0.3339 -1.344184,-0.527 -2.102583,-0.5953 -0.227592,-0.021 -0.725467,-0.021 -0.953059,0 -0.758399,0.068 -1.440568,0.2614 -2.102584,0.5953 -0.543865,0.2743 -1.006705,0.6073 -1.444958,1.0397 -0.455313,0.4491 -0.811473,0.9369 -1.096225,1.5015 -0.319922,0.6343 -0.501973,1.2596 -0.583015,2.0023 -0.01652,0.1514 -0.01873,0.2157 -0.01896,0.5518 -2.84e-4,0.4076 0.0058,0.5059 0.05046,0.8193 0.227217,1.5933 1.12891,3.0246 2.477665,3.9328 0.78298,0.5272 1.688118,0.8527 2.628515,0.9453 0.284739,0.028 0.58658,0.035 0.854053,0.021 z m -0.52669,-2.7427 c -0.392993,-0.034 -0.75325,-0.1353 -1.100479,-0.3092 -0.292043,-0.1462 -0.531165,-0.3204 -0.77248,-0.5628 -0.257267,-0.2583 -0.422869,-0.4916 -0.580178,-0.8174 -0.347085,-0.7186 -0.385194,-1.5602 -0.104806,-2.3145 0.04511,-0.1213 0.159743,-0.3617 0.22245,-0.4664 0.252765,-0.4222 0.58104,-0.7584 1.000022,-1.0242 0.119695,-0.076 0.39671,-0.2119 0.538985,-0.2646 0.290115,-0.1073 0.63002,-0.1741 0.907398,-0.1782 h 0.123172 v 0.2967 0.2968 l -0.141314,0.01 c -0.49655,0.035 -0.914791,0.1926 -1.313356,0.4947 -0.118198,0.09 -0.344143,0.318 -0.43553,0.4401 -0.429134,0.5737 -0.579404,1.2665 -0.424922,1.9589 0.199961,0.8964 0.939077,1.6187 1.840198,1.7985 0.185394,0.037 0.28104,0.046 0.479104,0.046 0.09886,0 0.219246,0 0.267526,-0.011 0.30538,-0.037 0.62089,-0.1379 0.874381,-0.2784 0.573577,-0.318 0.99265,-0.8511 1.156204,-1.4708 0.03206,-0.1215 0.06229,-0.2811 0.05623,-0.2969 -0.004,-0.01 -0.09214,-0.012 -0.645519,-0.01 h -0.640868 l -0.03929,0.097 c -0.02161,0.053 -0.05379,0.121 -0.0715,0.1505 -0.139916,0.2329 -0.35728,0.41 -0.60427,0.4923 -0.129607,0.043 -0.201632,0.054 -0.352896,0.054 -0.10066,0 -0.157148,0 -0.209004,-0.015 -0.432801,-0.091 -0.759791,-0.4034 -0.866066,-0.8265 -0.0298,-0.1187 -0.03695,-0.3098 -0.01621,-0.4338 0.03928,-0.235 0.138087,-0.426 0.309143,-0.5979 0.09813,-0.099 0.174458,-0.1548 0.287688,-0.2117 0.414231,-0.2083 0.920671,-0.1329 1.253432,0.1866 0.12803,0.1229 0.205563,0.2371 0.27019,0.398 l 0.03862,0.096 h 1.269812 1.269813 v 0.2968 0.2968 h -0.317377 -0.317376 l -0.0059,0.029 c -0.0033,0.016 -0.01418,0.082 -0.02426,0.1463 -0.07706,0.492 -0.292112,0.9742 -0.615292,1.3795 -0.09998,0.1253 -0.335921,0.3602 -0.46286,0.4606 -0.448013,0.3547 -0.957891,0.568 -1.517371,0.6351 -0.132345,0.016 -0.459556,0.022 -0.585212,0.011 z m 0.342766,-2.4781 c 0.139718,-0.029 0.27878,-0.1358 0.340859,-0.2611 0.101282,-0.2045 0.06105,-0.4356 -0.102728,-0.5903 -0.0656,-0.062 -0.135456,-0.1005 -0.222213,-0.1227 -0.299027,-0.076 -0.59948,0.1429 -0.619649,0.4524 -0.0096,0.1476 0.04061,0.2782 0.147967,0.3847 0.12552,0.1246 0.285624,0.1728 0.455764,0.137 z m 4.246631,-0.1984 c -0.0022,-0.01 -0.0031,-0.1404 -0.0019,-0.299 l 0.0022,-0.2884 h 0.332422 0.332424 l -0.0022,0.2989 -0.0022,0.299 H 65.6115 c -0.259041,0 -0.32922,-10e-5 -0.332429,-0.01 z m -0.125156,-1.3608 c -0.0029,0 -0.04451,-0.1297 -0.09249,-0.2777 -0.06932,-0.2138 -0.08508,-0.2711 -0.07675,-0.279 0.0058,-0.01 0.147342,-0.054 0.314614,-0.1077 0.234136,-0.075 0.305665,-0.096 0.310801,-0.087 0.0037,0.01 0.01823,0.047 0.03235,0.091 0.01412,0.044 0.05339,0.1651 0.08725,0.2693 0.03387,0.1042 0.05927,0.1932 0.05645,0.1976 -0.005,0.01 -0.598073,0.2024 -0.61725,0.2024 -0.0053,0 -0.01209,0 -0.01498,-0.01 z m -0.705165,-1.4759 c -0.09261,-0.1274 -0.168255,-0.2378 -0.168099,-0.2452 3.51e-4,-0.017 0.503327,-0.3814 0.526211,-0.3814 0.01168,0 0.06357,0.065 0.183626,0.2299 0.09204,0.1265 0.167428,0.2341 0.167524,0.2393 1.89e-4,0.01 -0.505246,0.3798 -0.527307,0.3855 -0.0098,0 -0.06028,-0.061 -0.181955,-0.2281 z m -0.960227,-0.9597 c -0.120545,-0.088 -0.225105,-0.1661 -0.232355,-0.1733 -0.01201,-0.012 0.0036,-0.036 0.174966,-0.2717 0.103481,-0.1422 0.193228,-0.2618 0.199437,-0.2659 0.01332,-0.01 0.482121,0.3263 0.482413,0.3447 3.26e-4,0.021 -0.376201,0.528 -0.391246,0.5272 -0.0077,-5e-4 -0.11267,-0.073 -0.233215,-0.161 z m -1.218515,-0.6207 c -0.146996,-0.048 -0.270621,-0.091 -0.274723,-0.095 -0.01166,-0.012 0.18913,-0.6228 0.205672,-0.626 0.0073,0 0.135856,0.037 0.285599,0.086 0.216846,0.071 0.272224,0.092 0.272082,0.1029 -9.5e-5,0.01 -0.0445,0.1497 -0.09867,0.3152 -0.06647,0.2031 -0.102424,0.3014 -0.110594,0.3024 -0.0067,8e-4 -0.132375,-0.038 -0.27937,-0.086 z m -1.639178,-0.2228 c -0.0022,-0.01 -0.0031,-0.1554 -0.0019,-0.3324 l 0.0022,-0.3218 h 0.296786 0.296786 v 0.3302 0.3302 h -0.294917 c -0.231778,0 -0.295787,-10e-5 -0.298977,-0.01 z m -4.035823,-1.3544 c -0.124071,-0.1602 -0.298604,-0.3931 -0.298604,-0.3984 0,-0.015 0.33175,-0.2477 0.543411,-0.3812 1.093025,-0.6892 2.376242,-1.0979 3.649215,-1.1621 0.05518,0 0.108827,-0.01 0.119221,-0.01 h 0.0189 l -0.0022,-0.3655 -0.0022,-0.3656 H 59.95398 c -0.641658,0 -0.671965,-0.01 -0.746411,-0.022 -0.243691,-0.056 -0.434717,-0.1554 -0.601764,-0.3147 -0.09586,-0.091 -0.162844,-0.1736 -0.219635,-0.2698 -0.228944,-0.3876 -0.228944,-0.8722 0,-1.2598 0.149751,-0.2536 0.406793,-0.4586 0.686115,-0.5474 0.189058,-0.06 0.0466,-0.056 1.855655,-0.056 1.809052,0 1.666597,0 1.855655,0.056 0.279322,0.089 0.536363,0.2938 0.686115,0.5474 0.228944,0.3876 0.228944,0.8722 0,1.2598 -0.05679,0.096 -0.123773,0.1785 -0.219635,0.2698 -0.167047,0.1593 -0.358073,0.2592 -0.601764,0.3147 -0.07445,0.017 -0.104753,0.018 -0.746411,0.022 h -0.668814 l -0.0022,0.3656 -0.0022,0.3655 h 0.0189 c 0.01039,0 0.06404,0.01 0.11922,0.01 1.219259,0.062 2.441953,0.4365 3.511273,1.0769 0.2818,0.1687 0.686057,0.4496 0.677864,0.471 -0.0086,0.022 -0.340843,0.4555 -0.352973,0.4602 -0.0066,0 -0.03355,-0.011 -0.0598,-0.03 -0.404415,-0.2904 -0.700642,-0.4713 -1.076028,-0.6572 -0.748,-0.3703 -1.536527,-0.5996 -2.370109,-0.6891 -0.282994,-0.03 -0.433982,-0.038 -0.769136,-0.038 -0.335154,0 -0.486141,0.01 -0.769135,0.038 -1.229745,0.132 -2.39049,0.5792 -3.389978,1.3062 -0.05471,0.04 -0.104175,0.072 -0.109928,0.072 -0.0058,0 -0.0345,-0.031 -0.06389,-0.069 z m 4.031965,-3.6095 0.0042,-0.3135 h 0.296786 0.296786 l 0.0042,0.3135 0.0042,0.3135 h 0.635373 c 0.718791,0 0.67749,0 0.823162,-0.068 0.06683,-0.033 0.09086,-0.051 0.154813,-0.115 0.0857,-0.086 0.128733,-0.1538 0.159604,-0.2512 0.05382,-0.1697 0.03388,-0.3652 -0.05248,-0.5146 -0.01776,-0.031 -0.06433,-0.087 -0.107122,-0.1304 -0.06395,-0.064 -0.08799,-0.082 -0.154813,-0.115 -0.15187,-0.075 0.01542,-0.068 -1.763682,-0.068 -1.779099,0 -1.611811,-0.01 -1.763681,0.068 -0.06683,0.033 -0.09086,0.051 -0.154814,0.115 -0.08477,0.085 -0.127502,0.152 -0.161034,0.2516 -0.02058,0.061 -0.0225,0.078 -0.0225,0.1965 0,0.1185 0.0019,0.1353 0.0225,0.1965 0.0336,0.1 0.07624,0.1664 0.16072,0.2509 0.0536,0.054 0.09277,0.084 0.135511,0.1068 0.155362,0.081 0.142762,0.08 0.86368,0.078 h 0.614472 z"
       id="path852"
       inkscape:connector-curvature="0" />
  </g>
</svg>
