<?xml version="1.0" encoding="UTF-8" standalone="no"?>
<!-- Created with Inkscape (http://www.inkscape.org/) -->

<svg
   xmlns:dc="http://purl.org/dc/elements/1.1/"
   xmlns:cc="http://creativecommons.org/ns#"
   xmlns:rdf="http://www.w3.org/1999/02/22-rdf-syntax-ns#"
   xmlns:svg="http://www.w3.org/2000/svg"
   xmlns="http://www.w3.org/2000/svg"
   xmlns:sodipodi="http://sodipodi.sourceforge.net/DTD/sodipodi-0.dtd"
   xmlns:inkscape="http://www.inkscape.org/namespaces/inkscape"
   width="21.619387mm"
   height="18.519739mm"
   viewBox="0 0 21.619387 18.519739"
   version="1.1"
   id="svg8"
   inkscape:version="0.92.4 (5da689c313, 2019-01-14)"
   sodipodi:docname="cloud_server_vertical_icon_1.svg">
  <defs
     id="defs2" />
  <sodipodi:namedview
     id="base"
     pagecolor="#ffffff"
     bordercolor="#666666"
     borderopacity="1.0"
     inkscape:pageopacity="0.0"
     inkscape:pageshadow="2"
     inkscape:zoom="5.6"
     inkscape:cx="28.629498"
     inkscape:cy="22.522778"
     inkscape:document-units="mm"
     inkscape:current-layer="layer1"
     showgrid="false"
     fit-margin-top="0"
     fit-margin-left="0"
     fit-margin-right="0"
     fit-margin-bottom="0"
     inkscape:window-width="1920"
     inkscape:window-height="1017"
     inkscape:window-x="-8"
     inkscape:window-y="-8"
     inkscape:window-maximized="1" />
  <metadata
     id="metadata5">
    <rdf:RDF>
      <cc:Work
         rdf:about="">
        <dc:format>image/svg+xml</dc:format>
        <dc:type
           rdf:resource="http://purl.org/dc/dcmitype/StillImage" />
        <dc:title></dc:title>
      </cc:Work>
    </rdf:RDF>
  </metadata>
  <g
     inkscape:label="Layer 1"
     inkscape:groupmode="layer"
     id="layer1"
     transform="translate(433.17157,-409.77795)">
    <path
       style="fill:#fe8139;stroke-width:0.01165386"
       d="m -426.06428,428.29228 c -0.004,-0.004 -0.008,-0.15024 -0.008,-0.32416 0,-0.2304 -0.004,-0.32 -0.014,-0.33019 -0.0102,-0.0102 -0.10153,-0.014 -0.338,-0.014 h -0.32402 l 0.003,-1.68107 0.003,-1.68107 0.32574,-0.003 c 0.24277,-0.002 0.32806,-0.007 0.33487,-0.0175 0.0158,-0.0248 0.0115,-0.63113 -0.005,-0.64719 -0.0102,-0.0102 -0.10152,-0.014 -0.338,-0.014 h -0.32401 l 0.003,-1.68107 0.003,-1.68107 0.32574,-0.003 c 0.24277,-0.002 0.32806,-0.007 0.33487,-0.0175 0.0158,-0.0248 0.0115,-0.63113 -0.005,-0.64718 -0.0102,-0.0102 -0.10153,-0.014 -0.338,-0.014 h -0.32402 l 0.003,-1.68107 0.003,-1.68107 h 4.38186 4.38185 l 0.003,1.68107 0.003,1.68107 h -0.32402 c -0.23647,0 -0.32779,0.004 -0.338,0.014 -0.0161,0.0161 -0.0203,0.62236 -0.004,0.64718 0.007,0.0107 0.0921,0.0152 0.33487,0.0175 l 0.32573,0.003 0.003,1.68107 0.003,1.68107 h -0.32402 c -0.23648,0 -0.3278,0.004 -0.338,0.014 -0.0161,0.0161 -0.0203,0.62236 -0.005,0.64719 0.007,0.0107 0.0921,0.0152 0.33487,0.0175 l 0.32574,0.003 0.003,1.68107 0.003,1.68107 h -0.32492 c -0.25648,0 -0.32764,0.003 -0.33781,0.0155 -0.009,0.0103 -0.0139,0.12312 -0.016,0.33505 l -0.003,0.31951 h -0.33213 -0.33214 l -0.006,-0.33213 -0.006,-0.33214 h -3.03001 -3.03 l -0.006,0.33214 -0.006,0.33213 -0.3271,0.003 c -0.17991,0.002 -0.33068,-4.9e-4 -0.33505,-0.005 z m 7.40973,-2.35231 v -1.00224 h -3.70592 -3.70593 l -0.003,0.99058 c -0.002,0.54482 -5.1e-4,0.99714 0.003,1.00517 0.004,0.0116 0.75235,0.014 3.70893,0.0117 l 3.70337,-0.003 z m -6.72719,0.33607 c -0.0112,-0.005 -0.0146,-0.083 -0.0146,-0.33705 v -0.33116 h 1.68273 c 1.52369,0 1.68341,0.002 1.68981,0.0184 0.004,0.0101 0.007,0.15398 0.007,0.31965 0,0.2583 -0.003,0.30383 -0.0183,0.31953 -0.0165,0.0165 -0.18369,0.0182 -1.67524,0.0174 -0.91131,-5.1e-4 -1.66348,-0.004 -1.6715,-0.007 z m 5.39406,-0.008 c -0.009,-0.0113 -0.0124,-0.10939 -0.0102,-0.33504 l 0.003,-0.31906 0.33505,-0.003 0.33505,-0.003 v 0.33107 c 0,0.29114 -0.002,0.33192 -0.0184,0.33814 -0.0101,0.004 -0.15633,0.007 -0.32488,0.007 -0.24548,0 -0.30908,-0.003 -0.31971,-0.016 z m 0.66031,-2.34683 0.003,-0.32922 h -3.03601 -3.03602 v 0.32437 c 0,0.1784 0.004,0.32787 0.008,0.33215 0.004,0.004 1.36909,0.006 3.03291,0.005 l 3.02513,-0.003 z m 0.6758,-2.02194 -0.003,-1.00515 h -3.70593 -3.70593 l -0.003,1.00515 -0.003,1.00514 h 3.71188 3.71188 z m -6.73696,0.3331 c -0.004,-0.004 -0.008,-0.15635 -0.008,-0.33796 v -0.33019 h 1.68273 c 1.52369,0 1.68341,0.002 1.68981,0.0184 0.0125,0.0326 0.008,0.61077 -0.005,0.63494 -0.0118,0.0221 -0.0429,0.0225 -1.68204,0.0225 -0.91849,0 -1.67347,-0.003 -1.67774,-0.008 z m 5.40213,-0.006 c -0.0104,-0.0104 -0.0142,-0.0955 -0.0142,-0.31971 0,-0.16805 0.003,-0.31384 0.007,-0.32397 0.006,-0.0162 0.047,-0.0184 0.33814,-0.0184 h 0.33106 l -0.003,0.33505 -0.003,0.33505 -0.32088,0.003 c -0.23982,0.002 -0.32447,-4.9e-4 -0.33505,-0.0111 z m 0.65903,-2.34902 0.003,-0.32922 h -3.03601 -3.03602 v 0.32437 c 0,0.1784 0.004,0.32787 0.008,0.33216 0.004,0.004 1.36909,0.006 3.03291,0.005 l 3.02513,-0.003 z m 0.6758,-2.02194 -0.003,-1.00515 h -3.70593 -3.70593 l -0.003,1.00515 -0.003,1.00515 h 3.71188 3.71188 z m -6.73696,0.33311 c -0.004,-0.004 -0.008,-0.15636 -0.008,-0.33797 v -0.33019 h 1.68273 c 1.52369,0 1.68341,0.002 1.68981,0.0184 0.0125,0.0325 0.008,0.61077 -0.005,0.63494 -0.0118,0.0221 -0.0429,0.0226 -1.68204,0.0226 -0.91849,0 -1.67347,-0.004 -1.67774,-0.008 z m 5.40213,-0.006 c -0.0104,-0.0104 -0.0142,-0.0954 -0.0142,-0.31971 0,-0.16805 0.003,-0.31384 0.007,-0.32397 0.006,-0.0162 0.047,-0.0184 0.33814,-0.0184 h 0.33106 l -0.003,0.33505 -0.003,0.33505 -0.32088,0.003 c -0.23982,0.002 -0.32447,-4.9e-4 -0.33505,-0.0111 z m -8.11086,9.10691 0.003,-0.33523 0.32181,-0.003 c 0.26308,-0.003 0.32427,-1.3e-4 0.33524,0.0131 0.01,0.0115 0.0125,0.10753 0.0103,0.33523 l -0.003,0.31906 -0.33523,0.003 -0.33523,0.003 z m 10.80816,0.3271 c -0.004,-0.004 -0.008,-0.15047 -0.008,-0.32488 0,-0.25453 0.003,-0.31973 0.016,-0.33039 0.0113,-0.009 0.1094,-0.0124 0.33505,-0.0102 l 0.31906,0.003 0.003,0.33505 0.003,0.33505 h -0.33037 c -0.18171,0 -0.33387,-0.003 -0.33814,-0.008 z m -10.79633,-1.34014 c -0.0112,-0.005 -0.0146,-0.0831 -0.0146,-0.33723 v -0.33134 l 0.33505,0.003 0.33505,0.003 0.003,0.31905 c 0.002,0.22566 -7.8e-4,0.32374 -0.0102,0.33505 -0.0107,0.0129 -0.074,0.0158 -0.32359,0.0151 -0.17067,-5.1e-4 -0.31687,-0.004 -0.32488,-0.007 z m 10.80145,-0.008 c -0.009,-0.0113 -0.0124,-0.10939 -0.0102,-0.33504 l 0.003,-0.31906 0.33505,-0.003 0.33504,-0.003 v 0.33107 c 0,0.29114 -0.002,0.33192 -0.0184,0.33814 -0.0101,0.004 -0.15633,0.007 -0.32488,0.007 -0.24549,0 -0.30909,-0.003 -0.31972,-0.016 z m -10.81068,-1.3504 c -0.003,-0.008 -0.004,-0.15906 -0.003,-0.33524 l 0.003,-0.32031 h 0.33213 0.33214 v 0.33213 0.33214 l -0.32952,0.003 c -0.25922,0.002 -0.33074,-1.4e-4 -0.33524,-0.0118 z m 10.80313,0 c -0.003,-0.008 -0.004,-0.15906 -0.003,-0.33524 l 0.003,-0.32031 h 0.33213 0.33214 v 0.33213 0.33214 l -0.32952,0.003 c -0.25922,0.002 -0.33074,-1.4e-4 -0.33524,-0.0118 z m -13.06825,-2.69011 c -0.3925,-0.0301 -0.75416,-0.12994 -1.11401,-0.30758 -0.76979,-0.38 -1.32328,-1.03571 -1.57273,-1.86317 -0.41901,-1.3899 0.24371,-2.90636 1.55757,-3.56409 0.29858,-0.14947 0.60874,-0.24511 0.96477,-0.29748 l 0.0639,-0.009 6.6e-4,-0.32622 c 7.6e-4,-0.36977 0.0127,-0.47472 0.0873,-0.76984 0.0577,-0.22798 0.10863,-0.36502 0.22072,-0.59358 0.2592,-0.52854 0.65057,-0.95285 1.16691,-1.26517 0.5932,-0.3588 1.3717,-0.507 2.04287,-0.38888 0.15004,0.0264 0.13699,0.0337 0.19354,-0.1086 0.16176,-0.40712 0.41379,-0.83629 0.70661,-1.20326 0.16098,-0.20175 0.51337,-0.55416 0.71526,-0.7153 0.71539,-0.57101 1.51253,-0.90227 2.44743,-1.01706 0.12755,-0.0157 0.25438,-0.0207 0.51848,-0.0207 0.26409,0 0.39092,0.005 0.51848,0.0207 0.93489,0.11479 1.73203,0.44605 2.44742,1.01706 0.2019,0.16114 0.55428,0.51355 0.71527,0.7153 0.29282,0.36697 0.54485,0.79614 0.70661,1.20326 0.0566,0.14233 0.0435,0.13501 0.19353,0.1086 0.16607,-0.0292 0.42079,-0.045 0.59883,-0.0371 0.78756,0.035 1.49254,0.34335 2.03962,0.89222 0.24356,0.24436 0.42115,0.4927 0.57133,0.79893 0.1121,0.22856 0.16306,0.3656 0.22073,0.59358 0.0747,0.29512 0.0866,0.40007 0.0873,0.76984 l 6.7e-4,0.32622 0.0639,0.009 c 0.8452,0.12433 1.55097,0.5394 2.04511,1.20276 0.89948,1.20748 0.77478,2.88829 -0.29312,3.95103 -0.47091,0.46863 -1.06393,0.76094 -1.75217,0.86368 -0.11988,0.0179 -0.28903,0.0204 -1.60342,0.0243 -1.25958,0.004 -1.47136,0.002 -1.48314,-0.0123 -0.01,-0.012 -0.0129,-0.10362 -0.0106,-0.33562 l 0.003,-0.31906 1.46839,-0.006 c 1.59933,-0.007 1.53225,-0.004 1.81132,-0.075 0.82766,-0.2098 1.48423,-0.85578 1.70146,-1.67401 0.0618,-0.23262 0.0751,-0.34136 0.0751,-0.61037 0,-0.26147 -0.0125,-0.36754 -0.0698,-0.59384 -0.17525,-0.69181 -0.69424,-1.29333 -1.35766,-1.57356 -0.28848,-0.12185 -0.55962,-0.17901 -0.8902,-0.18766 -0.20811,-0.005 -0.21037,-0.006 -0.28485,-0.043 -0.091,-0.0455 -0.14337,-0.112 -0.16991,-0.2156 -0.0177,-0.0692 -0.0173,-0.0754 0.0171,-0.24365 0.0438,-0.21432 0.0587,-0.34481 0.0588,-0.51398 7.7e-4,-1.06012 -0.72363,-2.00176 -1.74944,-2.2741 -0.23022,-0.0611 -0.34198,-0.0751 -0.60454,-0.0754 -0.2763,-3.8e-4 -0.39894,0.0158 -0.65913,0.0872 -0.0916,0.0251 -0.18167,0.0457 -0.20023,0.0457 -0.097,0 -0.22316,-0.0679 -0.27604,-0.1485 -0.0158,-0.0241 -0.0574,-0.13064 -0.0924,-0.2368 -0.54952,-1.66508 -2.09629,-2.78455 -3.84744,-2.78455 -1.75345,0 -3.29446,1.11558 -3.84745,2.78527 -0.035,0.10576 -0.0766,0.212 -0.0924,0.23608 -0.0529,0.0806 -0.17906,0.1485 -0.27604,0.1485 -0.0186,0 -0.10867,-0.0205 -0.20023,-0.0457 -0.26019,-0.0713 -0.38283,-0.0876 -0.65913,-0.0872 -0.26257,3.6e-4 -0.37432,0.0143 -0.60454,0.0754 -1.02473,0.27205 -1.74954,1.21315 -1.74954,2.27164 0,0.16546 0.0168,0.31438 0.0585,0.5186 0.0262,0.12817 0.0311,0.1744 0.0232,0.2156 -0.0235,0.12231 -0.0758,0.19418 -0.17714,0.24316 -0.0717,0.0347 -0.0787,0.0357 -0.28332,0.0412 -0.33093,0.009 -0.6021,0.0661 -0.8902,0.18782 -0.66342,0.28023 -1.18241,0.88175 -1.35766,1.57356 -0.0573,0.2263 -0.0698,0.33237 -0.0698,0.59384 0,0.26901 0.0134,0.37775 0.0751,0.61037 0.21723,0.81823 0.8738,1.46421 1.70146,1.67401 0.27907,0.0707 0.21199,0.068 1.81132,0.075 l 1.46839,0.006 0.003,0.31906 c 0.002,0.22565 -7.9e-4,0.32374 -0.0102,0.33504 -0.0111,0.0134 -0.23866,0.0157 -1.40739,0.0143 -0.76677,-9.1e-4 -1.44871,-0.006 -1.51543,-0.011 z m 4.63328,-7.74497 c -0.0138,-0.0138 -0.008,-0.21537 0.0105,-0.37588 0.18192,-1.56352 1.40373,-2.78328 2.97166,-2.96669 0.20657,-0.0242 0.37321,-0.0238 0.38266,8e-4 0.004,0.0101 0.007,0.15398 0.007,0.31965 0,0.2583 -0.003,0.30383 -0.0183,0.31953 -0.0136,0.0136 -0.0422,0.0183 -0.11011,0.0183 -0.20412,0 -0.50528,0.0564 -0.75727,0.14184 -0.16647,0.0564 -0.44776,0.19347 -0.59435,0.28954 -0.66842,0.43806 -1.10215,1.13096 -1.20574,1.92621 -0.01,0.0756 -0.0179,0.17555 -0.0179,0.22201 0,0.0502 -0.006,0.0902 -0.014,0.0985 -0.0102,0.0102 -0.0998,0.014 -0.33019,0.014 -0.17391,0 -0.3197,-0.003 -0.32398,-0.008 z"
       id="path826"
       inkscape:connector-curvature="0" />
  </g>
</svg>
