<?xml version="1.0" encoding="UTF-8" standalone="no"?>
<!-- Created with Inkscape (http://www.inkscape.org/) -->

<svg
   xmlns:dc="http://purl.org/dc/elements/1.1/"
   xmlns:cc="http://creativecommons.org/ns#"
   xmlns:rdf="http://www.w3.org/1999/02/22-rdf-syntax-ns#"
   xmlns:svg="http://www.w3.org/2000/svg"
   xmlns="http://www.w3.org/2000/svg"
   xmlns:sodipodi="http://sodipodi.sourceforge.net/DTD/sodipodi-0.dtd"
   xmlns:inkscape="http://www.inkscape.org/namespaces/inkscape"
   width="18.51458mm"
   height="18.522568mm"
   viewBox="0 0 18.51458 18.522568"
   version="1.1"
   id="svg8"
   inkscape:version="0.92.4 (5da689c313, 2019-01-14)"
   sodipodi:docname="cloud_server_vertical_icon_2.svg">
  <defs
     id="defs2" />
  <sodipodi:namedview
     id="base"
     pagecolor="#ffffff"
     bordercolor="#666666"
     borderopacity="1.0"
     inkscape:pageopacity="0.0"
     inkscape:pageshadow="2"
     inkscape:zoom="5.6"
     inkscape:cx="30.515725"
     inkscape:cy="24.346308"
     inkscape:document-units="mm"
     inkscape:current-layer="layer1"
     showgrid="false"
     fit-margin-top="0"
     fit-margin-left="0"
     fit-margin-right="0"
     fit-margin-bottom="0"
     inkscape:window-width="1920"
     inkscape:window-height="1017"
     inkscape:window-x="-8"
     inkscape:window-y="-8"
     inkscape:window-maximized="1" />
  <metadata
     id="metadata5">
    <rdf:RDF>
      <cc:Work
         rdf:about="">
        <dc:format>image/svg+xml</dc:format>
        <dc:type
           rdf:resource="http://purl.org/dc/dcmitype/StillImage" />
        <dc:title></dc:title>
      </cc:Work>
    </rdf:RDF>
  </metadata>
  <g
     inkscape:label="Layer 1"
     inkscape:groupmode="layer"
     id="layer1"
     transform="translate(328.77462,-640.91698)">
    <path
       style="fill:#fe8139;stroke-width:0.00988489"
       d="m -326.98418,659.42293 c -0.2127,-0.0423 -0.41074,-0.14543 -0.5685,-0.29616 -0.13419,-0.1282 -0.23321,-0.27574 -0.28687,-0.42743 -0.0168,-0.0475 -0.0344,-0.0931 -0.0391,-0.10126 -0.007,-0.0127 -0.0717,-0.0155 -0.45222,-0.0198 l -0.44375,-0.005 v -0.28666 -0.28666 l 0.44122,-0.003 c 0.33672,-0.002 0.44351,-0.005 0.45088,-0.0148 0.005,-0.007 0.0178,-0.0386 0.0277,-0.0709 0.0447,-0.14469 0.13961,-0.29782 0.26619,-0.42939 0.379,-0.39393 0.97725,-0.46716 1.44651,-0.17706 0.10945,0.0677 0.27864,0.23259 0.34727,0.33851 0.0594,0.0917 0.1074,0.19045 0.13835,0.28464 l 0.022,0.0668 0.46984,-0.003 0.46985,-0.003 0.0276,-0.0814 c 0.2226,-0.65614 0.98416,-0.96907 1.60603,-0.65993 0.12538,0.0623 0.2169,0.12835 0.31454,0.22692 0.11979,0.12093 0.19533,0.24138 0.26371,0.42051 l 0.0359,0.0939 0.32504,0.003 c 0.26628,0.002 0.33432,-1.1e-4 0.37635,-0.0123 0.0677,-0.0197 0.14207,-0.0865 0.1733,-0.15558 l 0.0236,-0.0522 0.005,-0.7562 0.005,-0.75619 0.27882,-0.003 c 0.27331,-0.003 0.27903,-0.002 0.28978,0.0179 0.008,0.0147 0.01,0.23663 0.007,0.78353 -0.003,0.64903 -0.006,0.77267 -0.0194,0.82753 -0.0793,0.33031 -0.311,0.57172 -0.63651,0.66325 -0.072,0.0202 -0.10587,0.0223 -0.45284,0.0276 l -0.37501,0.006 -0.0355,0.0939 c -0.14829,0.39187 -0.46209,0.66273 -0.86397,0.74573 -0.0961,0.0198 -0.34301,0.0206 -0.44359,10e-4 -0.40505,-0.0775 -0.74661,-0.37419 -0.87717,-0.76192 l -0.0266,-0.0791 -0.47026,-0.003 -0.47027,-0.003 -0.0219,0.0668 c -0.12967,0.39631 -0.47452,0.70044 -0.88278,0.77855 -0.0969,0.0186 -0.35051,0.0182 -0.44508,-5.5e-4 z m 0.41138,-0.59039 c 0.19814,-0.0725 0.3337,-0.22589 0.37885,-0.42881 0.0787,-0.3536 -0.20377,-0.69605 -0.57334,-0.69515 -0.25415,6.3e-4 -0.49465,0.19466 -0.55417,0.44711 -0.0739,0.31361 0.13132,0.62956 0.45466,0.69983 0.0715,0.0155 0.22049,0.004 0.294,-0.023 z m 3.12221,0.0183 c 0.10997,-0.0233 0.19185,-0.0694 0.28162,-0.15852 0.11983,-0.11896 0.17211,-0.24215 0.17211,-0.40558 0,-0.16336 -0.0522,-0.28653 -0.17211,-0.4057 -0.12806,-0.12733 -0.26234,-0.17957 -0.43581,-0.16952 -0.14877,0.009 -0.27077,0.0635 -0.37619,0.16921 -0.0672,0.0674 -0.1107,0.13801 -0.14359,0.23303 -0.0178,0.0515 -0.0222,0.0859 -0.0222,0.17298 0,0.0871 0.004,0.1215 0.0222,0.17299 0.0333,0.0962 0.0769,0.16578 0.14876,0.23724 0.13828,0.13756 0.33302,0.19461 0.52521,0.15387 z m 7.75866,0.57212 c -0.2294,-0.0493 -0.43671,-0.16284 -0.59577,-0.32638 -0.12417,-0.12765 -0.19903,-0.24636 -0.26451,-0.41938 l -0.0355,-0.0939 -0.37501,-0.006 c -0.41244,-0.006 -0.44484,-0.0106 -0.59436,-0.0784 -0.19964,-0.0905 -0.37242,-0.27105 -0.44902,-0.46915 -0.0629,-0.16272 -0.0611,-0.1355 -0.0654,-0.97087 -0.003,-0.5469 -8.5e-4,-0.76884 0.007,-0.78353 0.0107,-0.0201 0.0165,-0.0204 0.28979,-0.0179 l 0.27882,0.003 0.005,0.75619 0.005,0.7562 0.0236,0.0522 c 0.0312,0.0691 0.10564,0.13592 0.1733,0.15559 0.042,0.0122 0.11007,0.0144 0.37634,0.0123 l 0.32505,-0.003 0.0358,-0.0939 c 0.0684,-0.17913 0.14393,-0.29958 0.26372,-0.42051 0.0976,-0.0986 0.18916,-0.1646 0.31454,-0.22693 0.27218,-0.1353 0.58273,-0.15759 0.87481,-0.0628 0.33495,0.10873 0.61701,0.38814 0.73187,0.72505 l 0.027,0.0791 0.46984,0.003 0.46985,0.003 0.022,-0.0668 c 0.031,-0.0942 0.079,-0.19299 0.13836,-0.28464 0.0686,-0.10593 0.23782,-0.27085 0.34727,-0.33851 0.46926,-0.2901 1.06751,-0.21687 1.4465,0.17705 0.12659,0.13157 0.22152,0.28471 0.2662,0.42939 0.01,0.0323 0.0224,0.0641 0.0277,0.0709 0.007,0.009 0.11415,0.0129 0.45087,0.0148 l 0.44123,0.003 v 0.28666 0.28666 l -0.44375,0.005 c -0.38054,0.004 -0.44496,0.007 -0.45223,0.0198 -0.005,0.008 -0.0222,0.0537 -0.0391,0.10127 -0.0553,0.15629 -0.15566,0.30381 -0.29648,0.43573 -0.14082,0.13192 -0.30617,0.22287 -0.50002,0.27502 -0.0983,0.0265 -0.36228,0.0367 -0.47632,0.0185 -0.35825,-0.0571 -0.68277,-0.29872 -0.84552,-0.62944 -0.0237,-0.0481 -0.0529,-0.11749 -0.0649,-0.15424 l -0.0219,-0.0668 -0.47027,0.003 -0.47027,0.003 -0.0266,0.0791 c -0.13055,0.38773 -0.47212,0.68442 -0.87716,0.76192 -0.0951,0.0182 -0.36007,0.0174 -0.44729,-10e-4 z m 0.36973,-0.57748 c 0.10585,-0.0271 0.18742,-0.0731 0.26324,-0.14851 0.0718,-0.0715 0.11546,-0.14105 0.14876,-0.23724 0.0178,-0.0515 0.0222,-0.0859 0.0222,-0.17299 0,-0.0871 -0.004,-0.1215 -0.0222,-0.17298 -0.0329,-0.095 -0.0764,-0.16568 -0.14359,-0.23303 -0.10542,-0.10571 -0.22743,-0.16059 -0.37619,-0.16921 -0.17347,-0.0101 -0.30775,0.0422 -0.43581,0.16952 -0.11986,0.11917 -0.17211,0.24234 -0.17211,0.4057 0,0.16343 0.0523,0.28662 0.17211,0.40558 0.15259,0.15149 0.34175,0.20478 0.54359,0.15316 z m 3.23076,-0.0129 c 0.0969,-0.0354 0.16965,-0.0827 0.23597,-0.15341 0.21489,-0.229 0.20845,-0.57552 -0.0148,-0.79882 -0.17919,-0.17919 -0.4272,-0.22141 -0.65586,-0.11166 -0.23906,0.11474 -0.37111,0.38128 -0.31464,0.63508 0.0509,0.22875 0.2253,0.40179 0.45537,0.45179 0.0715,0.0155 0.22049,0.004 0.294,-0.023 z m -12.18513,-3.16149 c -0.29552,-0.0431 -0.56134,-0.25024 -0.67666,-0.52726 -0.0167,-0.0402 -0.0382,-0.10343 -0.0478,-0.14056 -0.0164,-0.0638 -0.0173,-0.28167 -0.0173,-3.95721 v -3.8897 l 0.0224,-0.084 c 0.0825,-0.31021 0.29996,-0.53369 0.61244,-0.6295 0.0856,-0.0263 0.0916,-0.0267 0.4476,-0.0322 l 0.3608,-0.006 0.006,-0.89953 c 0.005,-0.84797 0.007,-0.90803 0.0268,-1.04797 0.057,-0.40075 0.14669,-0.73604 0.28462,-1.06365 0.10651,-0.25299 0.19919,-0.42445 0.36535,-0.67592 0.64814,-0.98092 1.68158,-1.62205 2.87108,-1.78119 0.19333,-0.0259 0.81492,-0.0259 1.00826,0 0.93675,0.12532 1.76121,0.53826 2.40906,1.2066 0.28378,0.29276 0.53428,0.64459 0.71318,1.00168 0.20302,0.40521 0.32857,0.81841 0.3988,1.31248 0.0199,0.13994 0.0214,0.2 0.0268,1.04797 l 0.006,0.89953 0.3608,0.006 c 0.35601,0.005 0.36195,0.006 0.44761,0.0322 0.31248,0.0958 0.52989,0.31929 0.61243,0.6295 l 0.0224,0.084 v 3.8897 c 0,3.67554 -9.6e-4,3.89342 -0.0173,3.95721 -0.0415,0.16166 -0.1143,0.29225 -0.22869,0.41033 -0.11708,0.12087 -0.25994,0.20307 -0.42784,0.24619 -0.0633,0.0163 -0.1973,0.0173 -2.15321,0.0173 h -2.08571 l -0.006,-0.18287 c -0.004,-0.11995 -0.0116,-0.20455 -0.0224,-0.24589 -0.0802,-0.30926 -0.39437,-0.49536 -0.703,-0.41642 -0.20288,0.0519 -0.36374,0.21269 -0.41657,0.41642 -0.0107,0.0413 -0.0184,0.12594 -0.0223,0.24589 l -0.006,0.18287 -2.05606,10e-4 c -1.13083,7e-4 -2.08257,-0.003 -2.11498,-0.007 z m 3.65722,-0.64142 c 0.13604,-0.40094 0.47127,-0.69662 0.88142,-0.77743 0.182,-0.0359 0.42975,-0.0182 0.59926,0.0427 0.34507,0.12397 0.60593,0.38897 0.72325,0.73474 l 0.0218,0.0643 1.7586,0.003 c 0.96723,0.002 1.7769,2.6e-4 1.79927,-0.003 0.0224,-0.003 0.0491,-0.012 0.0593,-0.0196 0.0173,-0.0129 -0.016,-0.0486 -0.47808,-0.51137 l -0.49672,-0.49745 v -3.01964 -3.01964 l 0.49424,-0.49417 c 0.27184,-0.2718 0.49425,-0.49954 0.49425,-0.5061 0,-0.007 -0.0167,-0.0166 -0.0371,-0.0222 -0.0519,-0.0144 -9.38317,-0.0144 -9.43513,0 -0.0204,0.006 -0.0371,0.0157 -0.0371,0.0222 0,0.007 0.22241,0.2343 0.49424,0.5061 l 0.49425,0.49417 v 3.01964 3.01964 l -0.4955,0.49586 c -0.28584,0.28604 -0.49267,0.50043 -0.48882,0.50667 0.004,0.006 0.0209,0.0149 0.0383,0.02 0.019,0.005 0.7419,0.009 1.81001,0.008 l 1.77836,-0.002 z m -1.5009,-1.96365 c -0.004,-0.004 -0.007,-0.12965 -0.007,-0.27989 0,-0.19927 0.003,-0.27636 0.0119,-0.28501 0.0137,-0.0137 0.53786,-0.0171 0.55915,-0.004 0.01,0.006 0.0119,0.0707 0.01,0.28898 l -0.003,0.28104 -0.28239,0.003 c -0.15532,10e-4 -0.28543,-4.1e-4 -0.28913,-0.004 z m 1.15579,-0.009 c -0.003,-0.009 -0.006,-0.13449 -0.006,-0.27974 0,-0.19224 0.003,-0.26734 0.0119,-0.27597 0.0172,-0.0172 2.86519,-0.0172 2.88243,0 0.009,0.009 0.0119,0.0837 0.0119,0.27597 0,0.14525 -0.003,0.27114 -0.006,0.27974 -0.005,0.0142 -0.14213,0.0156 -1.44708,0.0156 -1.30496,0 -1.44165,-10e-4 -1.44708,-0.0156 z m 3.48022,0.009 c -0.004,-0.004 -0.007,-0.13229 -0.007,-0.28575 0,-0.24531 0.002,-0.27974 0.0156,-0.28501 0.009,-0.003 0.13482,-0.006 0.2805,-0.006 0.21239,0 0.26711,0.003 0.27613,0.0136 0.008,0.01 0.0105,0.0941 0.009,0.28913 l -0.003,0.27557 -0.2824,0.003 c -0.15532,10e-4 -0.28543,-4.1e-4 -0.28913,-0.004 z m -4.63601,-1.15653 c -0.01,-0.01 -0.008,-0.54941 0.002,-0.56457 0.006,-0.01 0.0707,-0.0119 0.28898,-0.01 l 0.28104,0.003 v 0.28666 0.28666 l -0.28239,0.003 c -0.15532,0.001 -0.28543,-4.1e-4 -0.28914,-0.004 z m 1.1618,-0.005 c -0.0185,-0.0185 -0.0171,-0.54512 0.002,-0.56056 0.01,-0.008 0.0941,-0.0105 0.28913,-0.009 l 0.27557,0.003 v 0.28666 0.28666 l -0.27712,0.003 c -0.20726,0.002 -0.28015,-4e-4 -0.28913,-0.009 z m 1.15894,-6.2e-4 c -0.003,-0.007 -0.004,-0.13714 -0.002,-0.28929 l 0.003,-0.27665 h 0.28172 0.28172 v 0.28667 0.28666 l -0.2795,0.003 c -0.21979,0.002 -0.28053,-1.2e-4 -0.28435,-0.01 z m 1.15647,-1.5e-4 c -0.003,-0.007 -0.004,-0.13698 -0.002,-0.28914 l 0.003,-0.27664 0.27557,-0.003 c 0.19506,-0.002 0.27954,6.6e-4 0.28914,0.009 0.0185,0.0153 0.0201,0.54204 0.002,0.56041 -0.0175,0.0175 -0.56014,0.0169 -0.56688,-6.2e-4 z m 1.15659,1.5e-4 c -0.003,-0.007 -0.004,-0.13713 -0.002,-0.28929 l 0.003,-0.27664 0.28397,-0.003 0.28396,-0.003 0.005,0.0224 c 0.003,0.0123 0.004,0.1425 0.003,0.28929 l -0.003,0.26689 -0.28444,0.003 c -0.22378,0.002 -0.28548,-1.1e-4 -0.28929,-0.01 z m -4.62961,-1.15775 c -0.008,-0.01 -0.0105,-0.0941 -0.009,-0.28913 l 0.003,-0.27558 h 0.28666 0.28666 l 0.003,0.28104 c 0.002,0.21825 -1.5e-4,0.28282 -0.01,0.28898 -0.007,0.004 -0.13319,0.008 -0.28067,0.008 -0.2153,1.1e-4 -0.27037,-0.003 -0.27941,-0.0134 z m 1.15746,0.002 c -0.0137,-0.0137 -0.0171,-0.53786 -0.004,-0.55915 0.006,-0.01 0.0707,-0.0119 0.28899,-0.01 l 0.28104,0.003 0.003,0.28104 c 0.002,0.21825 -1.5e-4,0.28282 -0.01,0.28898 -0.0213,0.0135 -0.54541,0.0101 -0.55915,-0.004 z m 1.15909,-4.8e-4 c -0.003,-0.007 -0.004,-0.13713 -0.002,-0.28928 l 0.003,-0.27665 h 0.28172 0.28172 v 0.28667 0.28666 l -0.2795,0.003 c -0.21979,0.002 -0.28053,-1.1e-4 -0.28435,-0.01 z m 1.1642,0.004 c -0.01,-0.006 -0.0119,-0.0707 -0.01,-0.28898 l 0.003,-0.28104 0.28104,-0.003 c 0.21825,-0.002 0.28281,1.5e-4 0.28898,0.01 0.0135,0.0213 0.0101,0.54541 -0.004,0.55915 -0.0137,0.0137 -0.53786,0.0171 -0.55915,0.004 z m 1.15653,0 c -0.01,-0.006 -0.0119,-0.0707 -0.01,-0.28898 l 0.003,-0.28104 h 0.28667 0.28666 l 0.003,0.27558 c 0.002,0.19505 -6.6e-4,0.27953 -0.009,0.28913 -0.009,0.0109 -0.0641,0.0135 -0.2794,0.0134 -0.14749,-1.1e-4 -0.27379,-0.004 -0.28067,-0.008 z m -4.64369,-1.17051 c -0.003,-0.007 -0.004,-0.13491 -0.002,-0.28434 l 0.003,-0.2717 h 0.28666 0.28666 v 0.28172 0.28172 l -0.28444,0.003 c -0.22386,0.002 -0.28548,-1.1e-4 -0.2893,-0.01 z m 1.15801,-0.003 c -0.009,-0.0235 -0.007,-0.53104 0.002,-0.54549 0.006,-0.01 0.0707,-0.0119 0.28899,-0.01 l 0.28104,0.003 0.003,0.2842 0.003,0.28419 h -0.28576 c -0.25145,0 -0.28647,-0.002 -0.29175,-0.0156 z m 1.16042,-0.27103 v -0.28666 h 0.28666 0.28666 v 0.28666 0.28666 h -0.28666 -0.28666 z m 1.15885,0.002 0.003,-0.28419 0.28104,-0.003 c 0.21825,-0.002 0.28281,1.5e-4 0.28898,0.01 0.009,0.0144 0.0113,0.522 0.002,0.54548 -0.005,0.0138 -0.0403,0.0156 -0.29176,0.0156 h -0.28576 z m 1.15874,0.27185 c -0.003,-0.007 -0.004,-0.13491 -0.002,-0.28434 l 0.003,-0.2717 h 0.28666 0.28667 v 0.28172 0.28172 l -0.28445,0.003 c -0.22385,0.002 -0.28547,-1.1e-4 -0.28929,-0.01 z m -6.65465,4.52239 0.27437,-0.27424 v -2.7826 -2.7826 l -0.27424,-0.27437 c -0.15083,-0.1509 -0.27983,-0.27437 -0.28666,-0.27437 -0.01,0 -0.0124,0.66337 -0.0124,3.33121 0,2.64897 0.003,3.33121 0.0123,3.33121 0.007,0 0.13576,-0.12341 0.28667,-0.27424 z m 9.54639,-3.05697 c 0,-2.64897 -0.003,-3.33121 -0.0123,-3.33121 -0.007,0 -0.13576,0.12341 -0.28666,0.27424 l -0.27437,0.27424 v 2.7826 2.7826 l 0.27424,0.27437 c 0.15083,0.1509 0.27983,0.27437 0.28666,0.27437 0.01,0 0.0124,-0.66337 0.0124,-3.33121 z m -1.44741,-4.6601 c 0.0111,-0.0441 -0.002,-1.65449 -0.0146,-1.76014 -0.10028,-0.85997 -0.44993,-1.58444 -1.04004,-2.15491 -1.3566,-1.31144 -3.49006,-1.31158 -4.84107,-3e-4 -0.59264,0.57521 -0.93982,1.29456 -1.04017,2.15522 -0.0123,0.10565 -0.0257,1.71601 -0.0146,1.76014 l 0.006,0.0241 h 3.46922 3.46922 z m -6.35996,-0.55787 c -0.0108,-0.007 -0.0124,-0.11117 -0.009,-0.57565 0.004,-0.51489 0.006,-0.57922 0.0247,-0.69613 0.0744,-0.465 0.21484,-0.83 0.46205,-1.2007 0.37623,-0.56415 0.94776,-0.98534 1.59049,-1.17212 0.44626,-0.12969 0.94118,-0.15057 1.39424,-0.0588 1.04804,0.2122 1.9058,1.00216 2.20373,2.02951 0.0362,0.12479 0.0657,0.26232 0.0915,0.42718 0.0224,0.14256 0.0326,1.23349 0.0117,1.24675 -0.0194,0.0123 -0.52932,0.0108 -0.55251,-0.002 -0.0185,-0.01 -0.0191,-0.0261 -0.0191,-0.5144 0,-0.28622 -0.005,-0.54567 -0.0104,-0.60016 -0.0461,-0.42491 -0.22371,-0.85511 -0.49249,-1.19318 -0.14115,-0.17755 -0.3396,-0.35807 -0.53966,-0.49093 -0.27635,-0.18351 -0.60672,-0.30884 -0.94923,-0.3601 -0.16344,-0.0245 -0.47908,-0.0245 -0.64252,0 -1.04276,0.15605 -1.84015,0.9653 -1.97657,2.00596 -0.012,0.0919 -0.0152,0.22395 -0.0152,0.62942 0,0.49723 -5.9e-4,0.51348 -0.0191,0.52339 -0.0232,0.0124 -0.53313,0.0139 -0.55251,0.002 z"
       id="path839"
       inkscape:connector-curvature="0" />
  </g>
</svg>
