<?xml version="1.0" encoding="UTF-8" standalone="no"?>
<svg
   xmlns:dc="http://purl.org/dc/elements/1.1/"
   xmlns:cc="http://creativecommons.org/ns#"
   xmlns:rdf="http://www.w3.org/1999/02/22-rdf-syntax-ns#"
   xmlns:svg="http://www.w3.org/2000/svg"
   xmlns="http://www.w3.org/2000/svg"
   id="svg8"
   version="1.1"
   viewBox="0 0 18.004339 18.520179"
   height="18.52018mm"
   width="18.004339mm">
  <defs
     id="defs2" />
  <metadata
     id="metadata5">
    <rdf:RDF>
      <cc:Work
         rdf:about="">
        <dc:format>image/svg+xml</dc:format>
        <dc:type
           rdf:resource="http://purl.org/dc/dcmitype/StillImage" />
        <dc:title></dc:title>
      </cc:Work>
    </rdf:RDF>
  </metadata>
  <g
     transform="translate(228.91486,-398.6994)"
     id="layer1">
    <path
       id="path852"
       d="m -220.13209,417.20546 c -0.4847,-0.0814 -0.88376,-0.44052 -1.01044,-0.90927 -0.0115,-0.0425 -0.0259,-0.0825 -0.0321,-0.0889 -0.006,-0.006 -0.0852,-0.0229 -0.17572,-0.0369 -1.58313,-0.24357 -3.11129,-0.92798 -4.35603,-1.95089 -0.32921,-0.27055 -0.76795,-0.69457 -1.03608,-1.00133 -1.08232,-1.23826 -1.77352,-2.67992 -2.05124,-4.27835 -0.012,-0.0692 -0.0192,-0.12863 -0.0159,-0.13206 0.006,-0.007 0.54248,-0.0861 0.57863,-0.0859 0.0184,1.1e-4 0.0223,0.008 0.0323,0.0703 0.18771,1.15171 0.64738,2.28866 1.31982,3.26441 0.74013,1.07396 1.72051,1.95559 2.88277,2.59238 0.74084,0.4059 1.55322,0.7009 2.38915,0.86758 0.25563,0.051 0.45006,0.0818 0.46917,0.0745 0.009,-0.003 0.0251,-0.029 0.0366,-0.057 0.15557,-0.38105 0.47698,-0.6569 0.88545,-0.7599 0.0966,-0.0244 0.11888,-0.0263 0.30272,-0.0263 0.18384,0 0.2061,0.002 0.30272,0.0263 0.49926,0.1259 0.86538,0.51121 0.95071,1.00053 0.0187,0.1069 0.0187,0.30654 1.5e-4,0.413 -0.0446,0.25564 -0.15549,0.46777 -0.3432,0.65643 -0.25057,0.25182 -0.55991,0.37806 -0.92006,0.37545 -0.0719,-5.2e-4 -0.16615,-0.007 -0.2095,-0.0142 z m 0.38191,-0.60002 c 0.13422,-0.0306 0.27968,-0.12538 0.36345,-0.23681 0.0977,-0.12997 0.13709,-0.25817 0.12931,-0.42084 -0.008,-0.16386 -0.064,-0.29117 -0.18146,-0.41113 -0.21554,-0.2202 -0.54863,-0.26272 -0.81739,-0.10433 -0.0792,0.0467 -0.18059,0.14662 -0.226,0.22279 -0.10619,0.17813 -0.11809,0.4098 -0.0305,0.59339 0.0989,0.20725 0.29354,0.34451 0.53207,0.37525 0.0498,0.006 0.16063,-0.002 0.23049,-0.0183 z m 2.86402,-1.15197 c -0.0575,-0.15255 -0.10325,-0.27856 -0.10163,-0.28002 0.002,-10e-4 0.0683,-0.0277 0.14813,-0.0582 1.55402,-0.59485 2.90455,-1.6483 3.85904,-3.01016 0.40298,-0.57497 0.74536,-1.23406 0.98303,-1.89234 0.15312,-0.42409 0.28017,-0.90329 0.35523,-1.33983 0.0137,-0.0794 0.0273,-0.14686 0.0303,-0.14986 0.005,-0.005 0.5834,0.0744 0.59576,0.082 0.008,0.005 -0.0393,0.27729 -0.0838,0.4852 -0.61449,2.87122 -2.66223,5.25836 -5.45402,6.35801 -0.0985,0.0388 -0.18996,0.0733 -0.20327,0.0766 -0.0238,0.006 -0.0261,9.6e-4 -0.12877,-0.27133 z m -10.74132,-0.73011 v -0.30006 h 0.3049 0.30491 v 0.30006 0.30007 h -0.30491 -0.3049 z m 14.81934,0 v -0.30006 h 0.3049 0.30491 v 0.30006 0.30007 h -0.30491 -0.3049 z m -7.42706,-0.96878 c -2.60714,-0.12933 -4.87411,-1.78247 -5.73969,-4.18556 -0.11164,-0.30993 -0.23251,-0.75016 -0.20598,-0.75016 0.002,0 0.12981,-0.0262 0.28313,-0.0583 0.15331,-0.0321 0.28487,-0.0571 0.29234,-0.0557 0.009,0.002 0.0292,0.0637 0.0596,0.18173 0.18471,0.71923 0.53055,1.42173 0.99645,2.02408 0.26801,0.34649 0.61235,0.69518 0.96615,0.97833 0.65815,0.52672 1.44512,0.91067 2.27647,1.11065 0.28214,0.0679 0.54014,0.11064 0.86148,0.14279 0.12826,0.0128 0.25752,0.0169 0.53237,0.0169 0.37799,0 0.53249,-0.01 0.83728,-0.0532 1.09661,-0.15605 2.09882,-0.60311 2.95709,-1.3191 0.16433,-0.13709 0.5273,-0.49583 0.66151,-0.65381 0.31886,-0.37532 0.56566,-0.7505 0.78069,-1.1868 0.18001,-0.36523 0.30114,-0.68894 0.39582,-1.05777 0.0307,-0.11959 0.0511,-0.18211 0.0601,-0.18387 0.007,-10e-4 0.13903,0.0236 0.29234,0.0557 0.15332,0.0321 0.28073,0.0583 0.28313,0.0583 0.0265,0 -0.0943,0.44023 -0.20598,0.75016 -0.53332,1.48066 -1.61615,2.71182 -3.04197,3.45868 -0.51752,0.27108 -1.13963,0.4899 -1.72295,0.60601 -0.53356,0.10621 -1.08507,0.14738 -1.61935,0.12087 z m 0.14322,-2.51214 c -1.31548,-0.0696 -2.48114,-0.75735 -3.14157,-1.8536 -0.41704,-0.69224 -0.5942,-1.49923 -0.50657,-2.30746 0.15609,-1.43948 1.15882,-2.67052 2.56403,-3.14784 0.25124,-0.0853 0.53015,-0.14794 0.81792,-0.18357 0.10808,-0.0134 0.21048,-0.0174 0.44526,-0.0174 0.32703,0 0.45327,0.0104 0.71628,0.0589 1.56448,0.28835 2.79026,1.49585 3.07274,3.02691 0.0418,0.2267 0.0567,0.39905 0.0571,0.6599 3.8e-4,0.25926 -0.009,0.37944 -0.0475,0.61182 -0.27713,1.67181 -1.66512,2.95355 -3.39324,3.13348 -0.14302,0.0149 -0.46406,0.0253 -0.58451,0.0189 z m 0.57509,-0.61808 c 0.61684,-0.0793 1.14344,-0.29769 1.63668,-0.67892 0.13676,-0.10571 0.40582,-0.3712 0.51065,-0.5039 0.25398,-0.32148 0.41611,-0.62045 0.53978,-0.99535 0.0784,-0.23758 0.15169,-0.60403 0.12925,-0.64597 -0.009,-0.0162 -0.0874,-0.0171 -1.54384,-0.0171 h -1.5347 l -0.0641,0.0605 c -0.0352,0.0333 -0.52488,0.51051 -1.08811,1.06051 -0.62446,0.60981 -1.02406,1.00696 -1.02406,1.0178 0,0.0111 0.0316,0.0411 0.0847,0.0803 0.51205,0.37782 1.08231,0.58761 1.73989,0.64008 0.10456,0.008 0.49894,-0.003 0.61381,-0.0179 z m -1.78988,-2.20102 1.08412,-1.05856 v -1.50789 c 0,-1.31751 -0.002,-1.50859 -0.0142,-1.51336 -0.0192,-0.007 -0.25507,0.0275 -0.39231,0.0581 -0.30527,0.0679 -0.61407,0.18414 -0.87458,0.32915 -0.92323,0.5139 -1.52965,1.42622 -1.6325,2.45598 -0.0155,0.1555 -0.013,0.48364 0.005,0.6409 0.0463,0.40523 0.1721,0.80292 0.3642,1.15096 0.11469,0.20779 0.33282,0.51273 0.36221,0.50636 0.008,-0.002 0.50185,-0.47938 1.09812,-1.06159 z m 4.6103,-1.25312 c 0.006,-0.0165 -0.0244,-0.22553 -0.0515,-0.35018 -0.13681,-0.62875 -0.49029,-1.23221 -0.97225,-1.65984 -0.4301,-0.38161 -0.92511,-0.63597 -1.47636,-0.75862 -0.13723,-0.0305 -0.37307,-0.0654 -0.39231,-0.0581 -0.0124,0.005 -0.0142,0.18413 -0.0142,1.41602 0,0.77581 0.003,1.41347 0.006,1.41701 0.004,0.004 0.65645,0.006 1.45089,0.006 1.18884,0 1.44531,-0.002 1.44935,-0.0128 z m -12.21839,0.31273 v -0.30021 l 0.30248,0.003 0.30249,0.003 0.003,0.29764 0.003,0.29765 h -0.30504 -0.30505 z m 1.28738,0 v -0.30021 l 0.30248,0.003 0.30249,0.003 0.003,0.29764 0.003,0.29765 h -0.30505 -0.30504 z m 1.28965,0.003 0.003,-0.29764 0.30249,-0.003 0.30248,-0.003 v 0.30021 0.3002 h -0.30504 -0.30505 z m 12.24231,-0.003 v -0.30021 l 0.30249,0.003 0.30248,0.003 0.003,0.29764 0.003,0.29765 h -0.30504 -0.30505 z m 1.28966,0.003 0.003,-0.29764 0.30248,-0.003 0.30249,-0.003 v 0.30021 0.3002 h -0.30505 -0.30504 z m 1.28737,0 0.003,-0.29764 0.30249,-0.003 0.30248,-0.003 v 0.30021 0.3002 h -0.30504 -0.30505 z m -14.38374,-1.27475 c -0.15578,-0.0333 -0.28531,-0.0625 -0.28785,-0.0651 -0.0122,-0.0122 0.10299,-0.42906 0.1835,-0.66405 0.45284,-1.32165 1.37803,-2.48662 2.58485,-3.25474 0.0692,-0.0441 0.19767,-0.12094 0.28548,-0.17087 0.1414,-0.0804 0.16097,-0.089 0.17114,-0.0751 0.0284,0.0388 0.27558,0.49841 0.27264,0.50688 -0.002,0.005 -0.0729,0.0493 -0.15796,0.098 -1.35046,0.77265 -2.33192,2.05122 -2.70603,3.52522 -0.023,0.0905 -0.0459,0.1617 -0.0518,0.16116 -0.006,-5.3e-4 -0.13814,-0.0282 -0.29393,-0.0614 z m 11.66719,0.051 c -0.002,-0.007 -0.0154,-0.0607 -0.0294,-0.11924 -0.0367,-0.1534 -0.10658,-0.38457 -0.16592,-0.54926 -0.63982,-1.77578 -2.15503,-3.1326 -4.02576,-3.60492 -0.0958,-0.0242 -0.19319,-0.0446 -0.21636,-0.0454 l -0.0421,-10e-4 -0.0549,0.10708 c -0.0725,0.14139 -0.13153,0.22294 -0.23773,0.32869 -0.14004,0.13943 -0.32229,0.25056 -0.50511,0.30797 -0.15187,0.0477 -0.22984,0.0592 -0.40049,0.0592 -0.17065,0 -0.24862,-0.0115 -0.40049,-0.0592 -0.43572,-0.13684 -0.77508,-0.52107 -0.85254,-0.96526 -0.019,-0.10903 -0.0194,-0.31716 -6.9e-4,-0.42419 0.0885,-0.50746 0.49123,-0.90711 1.0188,-1.01099 0.11582,-0.0228 0.35402,-0.0228 0.46984,0 0.40382,0.0795 0.73123,0.32475 0.91151,0.68272 0.0389,0.0772 0.0837,0.20667 0.10163,0.29325 0.006,0.0302 0.0165,0.0592 0.0229,0.0644 0.006,0.005 0.0551,0.0188 0.10836,0.0303 1.83949,0.39629 3.39572,1.54639 4.29005,3.17047 0.2259,0.41022 0.4211,0.89695 0.54349,1.35513 0.0526,0.19709 0.0645,0.2555 0.0538,0.26525 -0.005,0.004 -0.13083,0.0329 -0.2799,0.0633 -0.14906,0.0303 -0.27867,0.0574 -0.28801,0.06 -0.009,0.003 -0.0188,-9.2e-4 -0.0209,-0.008 z m -5.51729,-4.13133 c 0.12529,-0.0316 0.20982,-0.0799 0.30461,-0.17418 0.0948,-0.0943 0.14342,-0.17712 0.17393,-0.29641 0.0734,-0.28704 -0.0686,-0.59 -0.33926,-0.7236 -0.22506,-0.11109 -0.46249,-0.0972 -0.66965,0.0392 -0.27486,0.18093 -0.36625,0.53448 -0.21425,0.82878 0.0506,0.098 0.17578,0.22154 0.2743,0.27075 0.14853,0.0742 0.31714,0.0941 0.47032,0.0555 z m -8.76567,4.08087 c -0.15173,-0.0222 -0.28076,-0.0434 -0.28674,-0.0471 -0.008,-0.005 -0.003,-0.0511 0.0166,-0.16423 0.44627,-2.55551 2.02644,-4.78404 4.33068,-6.10761 0.22898,-0.13153 0.67924,-0.35685 0.90987,-0.45532 0.96609,-0.41251 1.90232,-0.63896 3.00065,-0.72578 0.20757,-0.0164 1.06046,-0.0164 1.26802,0 1.09734,0.0867 2.02407,0.31069 2.99581,0.72394 0.21827,0.0928 0.67524,0.31991 0.88568,0.44014 1.76757,1.00987 3.12021,2.54621 3.86456,4.38939 0.21969,0.544 0.39382,1.1536 0.49444,1.73094 l 0.0284,0.16286 -0.0206,0.008 c -0.0114,0.005 -0.13389,0.0241 -0.27231,0.0432 -0.13842,0.0192 -0.26536,0.0372 -0.2821,0.0402 l -0.0304,0.005 -0.0115,-0.0711 c -0.20529,-1.26673 -0.73312,-2.49905 -1.51715,-3.54207 -0.25013,-0.33276 -0.46529,-0.57934 -0.77643,-0.88984 -0.81124,-0.80958 -1.74161,-1.42235 -2.81843,-1.85631 -1.52786,-0.61572 -3.2688,-0.76922 -4.9065,-0.4326 -1.88706,0.38788 -3.5776,1.40266 -4.8052,2.88443 -0.90575,1.09329 -1.52317,2.44811 -1.7479,3.83551 -0.009,0.0552 -0.0148,0.07 -0.0274,0.0691 -0.009,-5.9e-4 -0.1402,-0.0192 -0.29193,-0.0415 z m 0.89052,-5.96361 v -0.29522 h 0.3049 0.30491 v 0.29522 0.29523 h -0.30491 -0.3049 z m 14.81934,0 v -0.29522 h 0.3049 0.30491 v 0.29522 0.29523 h -0.30491 -0.3049 z"
       style="fill:#fe8037;stroke-width:0.00967952" />
  </g>
</svg>
