<?xml version="1.0" encoding="UTF-8" standalone="no"?>
<!-- Created with Inkscape (http://www.inkscape.org/) -->

<svg
   xmlns:dc="http://purl.org/dc/elements/1.1/"
   xmlns:cc="http://creativecommons.org/ns#"
   xmlns:rdf="http://www.w3.org/1999/02/22-rdf-syntax-ns#"
   xmlns:svg="http://www.w3.org/2000/svg"
   xmlns="http://www.w3.org/2000/svg"
   xmlns:sodipodi="http://sodipodi.sourceforge.net/DTD/sodipodi-0.dtd"
   xmlns:inkscape="http://www.inkscape.org/namespaces/inkscape"
   width="15.874999mm"
   height="17.308029mm"
   viewBox="0 0 15.874999 17.308029"
   version="1.1"
   id="svg8"
   inkscape:version="0.92.4 (5da689c313, 2019-01-14)"
   sodipodi:docname="colocation_service_price_icon_1.svg">
  <defs
     id="defs2" />
  <sodipodi:namedview
     id="base"
     pagecolor="#ffffff"
     bordercolor="#666666"
     borderopacity="1.0"
     inkscape:pageopacity="0.0"
     inkscape:pageshadow="2"
     inkscape:zoom="2.8"
     inkscape:cx="19.27024"
     inkscape:cy="-24.162424"
     inkscape:document-units="mm"
     inkscape:current-layer="layer1"
     showgrid="false"
     fit-margin-top="0"
     fit-margin-left="0"
     fit-margin-right="0"
     fit-margin-bottom="0"
     inkscape:window-width="1920"
     inkscape:window-height="1017"
     inkscape:window-x="-8"
     inkscape:window-y="-8"
     inkscape:window-maximized="1" />
  <metadata
     id="metadata5">
    <rdf:RDF>
      <cc:Work
         rdf:about="">
        <dc:format>image/svg+xml</dc:format>
        <dc:type
           rdf:resource="http://purl.org/dc/dcmitype/StillImage" />
        <dc:title></dc:title>
      </cc:Work>
    </rdf:RDF>
  </metadata>
  <g
     inkscape:label="Layer 1"
     inkscape:groupmode="layer"
     id="layer1"
     transform="translate(475.52846,-361.56143)">
    <path
       style="fill:#ffffff;stroke-width:0.0085539;fill-opacity:1"
       d="m -474.24765,378.86401 c -0.003,-0.003 -0.006,-0.40124 -0.006,-0.88452 0,-0.79338 -0.001,-0.87922 -0.0135,-0.88391 -0.007,-0.003 -0.19069,-0.005 -0.40721,-0.005 -0.43207,0 -0.44475,-10e-4 -0.55042,-0.0527 -0.11015,-0.0537 -0.19552,-0.13954 -0.24871,-0.25005 -0.0589,-0.12249 -0.0554,0.005 -0.0528,-1.9084 l 0.002,-1.72788 0.019,-0.0556 c 0.0564,-0.16475 0.18893,-0.29726 0.35307,-0.35291 0.0535,-0.0181 0.0714,-0.019 0.47474,-0.0233 l 0.41914,-0.004 v -0.59877 -0.59878 l -0.41486,-0.004 c -0.40431,-0.004 -0.41639,-0.005 -0.47474,-0.0242 -0.18394,-0.0607 -0.32957,-0.21923 -0.368,-0.40062 -0.0105,-0.0497 -0.0124,-0.31048 -0.0125,-1.76556 -1.6e-4,-1.67145 1.9e-4,-1.70866 0.0167,-1.77323 0.0477,-0.18648 0.18379,-0.32942 0.37233,-0.39111 0.0581,-0.019 0.0723,-0.0197 0.47047,-0.0243 l 0.41058,-0.005 v -0.5945 -0.59449 l -0.40631,-0.005 c -0.45138,-0.005 -0.45195,-0.005 -0.57311,-0.0657 -0.0909,-0.0452 -0.18167,-0.13674 -0.22872,-0.23073 -0.0675,-0.13491 -0.0629,0.0127 -0.0602,-1.92277 l 0.002,-1.72788 0.0208,-0.0587 c 0.0585,-0.16525 0.18991,-0.29432 0.35561,-0.34917 l 0.0599,-0.0198 h 7.50177 7.50177 l 0.0627,0.0229 c 0.0856,0.0312 0.14668,0.0699 0.20942,0.13246 0.0624,0.0622 0.10116,0.12342 0.13263,0.20958 l 0.0229,0.0627 0.002,1.72788 c 0.003,1.93471 0.007,1.78797 -0.0599,1.92212 -0.0635,0.12693 -0.18302,0.22635 -0.32742,0.27246 -0.0544,0.0174 -0.083,0.0196 -0.31222,0.0243 l -0.25234,0.005 v 0.59449 0.5945 l 0.25234,0.005 c 0.23003,0.005 0.25764,0.007 0.31222,0.0243 0.18798,0.0604 0.32447,0.2036 0.37233,0.39075 0.0165,0.0646 0.0169,0.10178 0.0167,1.77323 -1.6e-4,1.88869 0.004,1.76457 -0.0563,1.88959 -0.041,0.0855 -0.151,0.19795 -0.23441,0.2395 -0.10474,0.0521 -0.12588,0.0553 -0.40625,0.0608 l -0.25662,0.005 -0.002,0.58928 c -0.002,0.41049 5.9e-4,0.59263 0.007,0.60034 0.007,0.008 0.0688,0.0118 0.2631,0.0141 0.23354,0.003 0.25836,0.005 0.3095,0.0217 0.16358,0.0549 0.29669,0.18787 0.35307,0.35272 l 0.019,0.0556 0.002,1.72788 c 0.003,1.91343 0.006,1.78596 -0.0528,1.9084 -0.0532,0.11051 -0.13856,0.19634 -0.24871,0.25005 -0.0985,0.048 -0.13341,0.0527 -0.39123,0.0527 -0.17418,0 -0.23823,0.003 -0.24898,0.0107 -0.0134,0.01 -0.0146,0.0752 -0.0166,0.88747 l -0.002,0.87677 h -0.28227 -0.28227 l -0.002,-0.88057 c -0.002,-0.69143 -0.004,-0.88203 -0.0128,-0.88734 -0.006,-0.004 -2.81121,-0.007 -6.23412,-0.007 -4.96552,-1e-4 -6.22639,0.002 -6.23794,0.0106 -0.0134,0.01 -0.0146,0.0752 -0.0166,0.88747 l -0.002,0.87677 -0.2786,0.002 c -0.15323,10e-4 -0.28122,-3.7e-4 -0.28442,-0.004 z m 14.013,-2.34978 c 0.007,-0.009 0.009,-0.43685 0.007,-1.61455 l -0.002,-1.60294 h -7.36063 -7.36063 l -0.002,1.60294 c -0.002,1.1777 3.9e-4,1.60603 0.007,1.61455 0.0144,0.0174 14.69625,0.0174 14.71066,0 z m -14.04723,-0.69542 c -0.003,-0.003 -0.006,-0.12757 -0.006,-0.27639 0,-0.19905 0.003,-0.27331 0.0103,-0.28086 0.0119,-0.0119 0.60219,-0.0149 0.6207,-0.003 0.008,0.005 0.0103,0.068 0.009,0.2843 l -0.002,0.27741 -0.31282,0.002 c -0.17206,10e-4 -0.31545,-3.7e-4 -0.31864,-0.004 z m 1.27396,-0.008 c -0.003,-0.008 -0.005,-0.13218 -0.005,-0.27706 0,-0.21241 0.002,-0.26531 0.0117,-0.27314 0.008,-0.007 0.0992,-0.009 0.31864,-0.007 l 0.30694,0.002 v 0.28229 0.28227 l -0.31341,0.002 c -0.28021,0.002 -0.31396,7.9e-4 -0.31863,-0.0114 z m 1.27453,0 c -0.003,-0.008 -0.005,-0.12999 -0.005,-0.2722 0,-0.19336 0.003,-0.26224 0.0107,-0.27315 0.01,-0.0134 0.0367,-0.0144 0.31863,-0.0123 l 0.30795,0.002 v 0.28229 0.28227 l -0.31341,0.002 c -0.28021,0.002 -0.31395,7.9e-4 -0.31863,-0.0114 z m 1.27988,-0.27089 0.002,-0.28452 h 0.31222 0.31221 v 0.28228 0.28227 l -0.31447,0.002 -0.31447,0.002 z m 1.27453,0 0.002,-0.28452 h 0.31222 0.31221 v 0.28228 0.28227 l -0.31446,0.002 -0.31448,0.002 z m 5.24965,0.27163 c -0.45955,-0.0872 -0.78696,-0.50227 -0.75744,-0.96028 0.0174,-0.26984 0.15282,-0.51989 0.36842,-0.68026 0.45995,-0.34213 1.1146,-0.19125 1.37588,0.31709 0.0444,0.0864 0.0766,0.18391 0.0916,0.27729 0.015,0.0937 0.007,0.27443 -0.0161,0.36267 -0.0861,0.32918 -0.33867,0.58216 -0.66671,0.66767 -0.1049,0.0273 -0.2949,0.0349 -0.39566,0.0158 z m 0.3099,-0.59209 c 0.0793,-0.0371 0.12896,-0.0857 0.16753,-0.16371 0.0305,-0.0617 0.0319,-0.0686 0.0319,-0.15061 0,-0.079 -0.002,-0.0907 -0.0273,-0.14365 -0.0557,-0.11749 -0.16405,-0.19212 -0.29175,-0.20087 -0.18323,-0.0126 -0.33616,0.10836 -0.37025,0.29275 -0.024,0.13009 0.049,0.28154 0.16998,0.35256 0.0608,0.0357 0.10226,0.0452 0.18574,0.0426 0.0654,-0.002 0.0856,-0.006 0.13412,-0.0291 z m 1.92202,0.59198 c -0.0359,-0.007 -0.1022,-0.0256 -0.1474,-0.0417 -0.14558,-0.052 -0.24717,-0.11881 -0.35926,-0.23613 -0.15581,-0.16309 -0.23987,-0.3596 -0.25069,-0.58613 -0.012,-0.25113 0.0757,-0.48725 0.24885,-0.6698 0.0814,-0.0858 0.15496,-0.13966 0.26578,-0.19454 0.61068,-0.30238 1.33013,0.142 1.33013,0.82157 0,0.4198 -0.28299,0.78466 -0.6911,0.89104 -0.10522,0.0274 -0.29485,0.0349 -0.39631,0.0157 z m 0.31107,-0.59223 c 0.24423,-0.11436 0.27235,-0.45074 0.0501,-0.59917 -0.13841,-0.0924 -0.31211,-0.0793 -0.4317,0.0326 -0.19561,0.18299 -0.12941,0.49231 0.12476,0.58284 0.0721,0.0257 0.18223,0.0187 0.25685,-0.0162 z m -12.89611,-0.67438 c -0.008,-0.0204 -0.006,-0.53659 0.002,-0.5491 0.005,-0.008 0.0749,-0.0103 0.31851,-0.009 l 0.31164,0.002 v 0.28227 0.28229 l -0.3134,0.002 c -0.28022,0.002 -0.31396,8e-4 -0.31863,-0.0114 z m 1.27453,0 c -0.008,-0.0204 -0.006,-0.53659 0.002,-0.5491 0.005,-0.008 0.0749,-0.0103 0.31851,-0.009 l 0.31165,0.002 v 0.28227 0.28229 l -0.31341,0.002 c -0.28021,0.002 -0.31396,8e-4 -0.31864,-0.0114 z m 1.27967,0.003 c -0.012,-0.012 -0.0151,-0.53377 -0.003,-0.55237 0.005,-0.008 0.0749,-0.0103 0.3185,-0.009 l 0.31165,0.002 v 0.28227 0.28229 l -0.30827,0.002 c -0.23262,0.002 -0.3108,-2.9e-4 -0.31863,-0.008 z m 1.27664,-5.1e-4 c -0.002,-0.006 -0.003,-0.13402 -0.002,-0.28453 l 0.002,-0.27364 h 0.31222 0.31222 v 0.28228 0.28228 l -0.3103,0.002 c -0.24477,0.002 -0.3112,-10e-5 -0.31449,-0.009 z m 1.27453,0 c -0.002,-0.006 -0.003,-0.13402 -0.002,-0.28453 l 0.002,-0.27364 h 0.31222 0.31222 v 0.28228 0.28228 l -0.31031,0.002 c -0.24475,0.002 -0.31119,-10e-5 -0.31448,-0.009 z m 7.9897,-2.43147 v -0.59878 h -6.24435 -6.24435 l -0.002,0.58928 c -0.002,0.42835 4.4e-4,0.59245 0.007,0.60092 0.008,0.01 0.99314,0.0113 6.24655,0.01 l 6.23688,-0.002 z m 0.95803,-2.79285 v -1.61241 h -7.36063 -7.36063 l -0.002,1.60385 c -0.001,0.88212 -3.7e-4,1.60868 0.002,1.61456 0.003,0.009 1.48029,0.0103 7.36282,0.009 l 7.35876,-0.002 z m -14.04886,0.91211 c -0.007,-0.008 -0.009,-0.0903 -0.007,-0.28442 l 0.002,-0.2727 h 0.3165 0.31649 l 0.002,0.27742 c 0.002,0.21625 -1.3e-4,0.27894 -0.009,0.28429 -0.006,0.004 -0.14604,0.007 -0.31129,0.007 -0.24407,1e-4 -0.30231,-0.002 -0.31021,-0.0116 z m 1.27542,0.002 c -0.012,-0.012 -0.0151,-0.53377 -0.003,-0.55237 0.005,-0.008 0.0749,-0.0103 0.31851,-0.009 l 0.31165,0.002 v 0.28227 0.28229 l -0.30827,0.002 c -0.23262,0.002 -0.31081,-2.9e-4 -0.31864,-0.008 z m 1.27308,-0.006 c -0.0106,-0.0198 -0.0123,-0.52958 -0.002,-0.54609 0.005,-0.008 0.0749,-0.0103 0.3185,-0.009 l 0.31165,0.002 v 0.28227 0.28229 l -0.30973,0.002 c -0.29934,0.002 -0.31001,0.002 -0.31863,-0.0144 z m 1.27998,0.0109 c -0.003,-0.003 -0.006,-0.13225 -0.006,-0.28678 v -0.28095 l 0.31435,0.002 0.31436,0.002 v 0.28227 0.28229 l -0.30854,0.002 c -0.1697,10e-4 -0.31116,-3.7e-4 -0.31436,-0.004 z m 1.27453,0 c -0.003,-0.003 -0.006,-0.13225 -0.006,-0.28678 v -0.28095 l 0.31436,0.002 0.31435,0.002 v 0.28227 0.28229 l -0.30854,0.002 c -0.1697,10e-4 -0.31117,-3.7e-4 -0.31436,-0.004 z m 5.29416,-0.004 c -0.23797,-0.0305 -0.46036,-0.15638 -0.6101,-0.34525 -0.0636,-0.0802 -0.14015,-0.22969 -0.16428,-0.32077 -0.0511,-0.19277 -0.043,-0.3795 0.0245,-0.56431 0.10979,-0.30086 0.38351,-0.5297 0.70201,-0.5869 0.0861,-0.0155 0.24771,-0.0151 0.33146,8.2e-4 0.35253,0.0669 0.63037,0.32205 0.72631,0.66709 0.0293,0.10544 0.0369,0.29143 0.0164,0.40043 -0.0361,0.1913 -0.12411,0.35506 -0.26372,0.49052 -0.0842,0.0817 -0.15255,0.12913 -0.25764,0.17877 -0.15674,0.074 -0.33246,0.10173 -0.50491,0.0796 z m 0.20481,-0.57665 c 0.0641,-0.0167 0.11146,-0.0443 0.16102,-0.0938 0.16779,-0.16779 0.11393,-0.45643 -0.10426,-0.55871 -0.0433,-0.0203 -0.0586,-0.0228 -0.14264,-0.0228 -0.0882,0 -0.0977,0.002 -0.15205,0.0275 -0.21226,0.10054 -0.26541,0.37709 -0.10537,0.54819 0.088,0.094 0.21894,0.13206 0.3433,0.0997 z m 2.02693,0.57675 c -0.3712,-0.0464 -0.68162,-0.32 -0.77998,-0.68751 -0.0205,-0.0766 -0.0229,-0.10028 -0.0227,-0.22667 2e-4,-0.12435 0.003,-0.15103 0.0223,-0.22416 0.0916,-0.34351 0.3653,-0.603 0.7119,-0.67491 0.0956,-0.0198 0.25759,-0.0213 0.35285,-0.003 0.31006,0.0588 0.57741,0.27686 0.69012,0.56285 0.0507,0.1286 0.0594,0.17817 0.0599,0.33948 3.7e-4,0.13796 -10e-4,0.1564 -0.0233,0.23523 -0.12395,0.44753 -0.55367,0.73608 -1.0111,0.67895 z m 0.19148,-0.57254 c 0.0673,-0.0155 0.12833,-0.0519 0.18037,-0.10751 0.0689,-0.0736 0.0894,-0.12736 0.0898,-0.23458 2.6e-4,-0.0775 -10e-4,-0.0851 -0.0319,-0.14689 -0.0372,-0.0752 -0.0917,-0.12958 -0.16715,-0.16663 -0.0447,-0.022 -0.0567,-0.0239 -0.14707,-0.0239 -0.0923,0 -0.10152,0.002 -0.14928,0.0257 -0.17645,0.0889 -0.24846,0.29741 -0.1618,0.46843 0.071,0.1402 0.23746,0.21992 0.38708,0.18543 z m -12.82594,-0.70302 c -0.002,-0.006 -0.003,-0.13209 -0.002,-0.28024 l 0.002,-0.26937 h 0.3165 0.31649 v 0.278 0.278 l -0.31458,0.002 c -0.24827,0.002 -0.31547,-8e-5 -0.31876,-0.009 z m 1.27449,-1e-4 c -0.002,-0.006 -0.003,-0.13198 -0.002,-0.28014 l 0.002,-0.26937 h 0.3165 0.3165 l 0.002,0.28014 0.002,0.28013 h -0.31688 c -0.24685,0 -0.3178,-0.002 -0.32102,-0.0108 z m 1.27584,-0.003 c -0.008,-0.0203 -0.006,-0.52797 0.002,-0.54044 0.005,-0.008 0.0749,-0.0103 0.3185,-0.009 l 0.31165,0.002 0.002,0.28014 0.002,0.28013 h -0.3157 c -0.27998,0 -0.31628,-0.002 -0.32088,-0.0135 z m 1.27789,-0.26875 v -0.28228 h 0.3165 0.31649 v 0.28228 0.28227 h -0.31649 -0.3165 z m 1.27453,0 v -0.28228 h 0.3165 0.31649 v 0.28228 0.28227 h -0.31649 -0.3165 z m 7.99363,-2.15559 v -0.59449 h -6.24435 -6.24435 l -0.002,0.58594 c -10e-4,0.32227 -3.7e-4,0.59076 0.002,0.59664 0.003,0.009 1.25706,0.0103 6.24656,0.009 l 6.24248,-0.002 z m 0.95803,-2.78856 v -1.61241 h -7.36063 -7.36063 l -0.002,1.60385 c -0.001,0.88212 -3.7e-4,1.60868 0.002,1.61456 0.003,0.009 1.48029,0.0103 7.36282,0.009 l 7.35876,-0.002 z m -14.05253,0.90966 c -0.003,-0.003 -0.006,-0.12821 -0.006,-0.2778 0,-0.26017 7.2e-4,-0.27239 0.0165,-0.28086 0.0198,-0.0106 0.59794,-0.0122 0.61442,-0.002 0.008,0.005 0.0103,0.068 0.009,0.28429 l -0.002,0.27742 -0.31282,0.002 c -0.17206,10e-4 -0.31545,-3.6e-4 -0.31864,-0.004 z m 1.27453,0 c -0.003,-0.003 -0.006,-0.12821 -0.006,-0.2778 0,-0.26017 7.2e-4,-0.27239 0.0165,-0.28086 0.0197,-0.0106 0.59794,-0.0122 0.61442,-0.002 0.008,0.005 0.0103,0.068 0.009,0.28429 l -0.002,0.27742 -0.31283,0.002 c -0.17206,10e-4 -0.31545,-3.6e-4 -0.31864,-0.004 z m 1.27396,-0.008 c -0.003,-0.007 -0.005,-0.13046 -0.005,-0.27322 0,-0.22458 0.002,-0.2614 0.0134,-0.27303 0.0117,-0.0117 0.0517,-0.0134 0.31008,-0.0133 0.16315,10e-5 0.3015,0.003 0.30745,0.007 0.008,0.005 0.0103,0.068 0.009,0.28429 l -0.002,0.27742 -0.31341,0.002 c -0.28021,0.002 -0.31395,7.9e-4 -0.31863,-0.0114 z m 1.27785,-0.26794 c 0,-0.24867 0.002,-0.28197 0.0135,-0.28656 0.007,-0.003 0.14378,-0.005 0.30297,-0.005 0.15918,0 0.29552,0.002 0.30296,0.005 0.012,0.005 0.0135,0.0379 0.0135,0.28656 v 0.28136 h -0.31649 -0.3165 z m 1.27453,0 c 0,-0.24867 0.002,-0.28197 0.0135,-0.28656 0.007,-0.003 0.14378,-0.005 0.30297,-0.005 0.15919,0 0.29552,0.002 0.30296,0.005 0.012,0.005 0.0135,0.0379 0.0135,0.28656 v 0.28136 h -0.31649 -0.3165 z m 5.26852,0.27272 c -0.12976,-0.022 -0.2565,-0.0729 -0.37109,-0.14915 -0.0908,-0.0604 -0.21823,-0.19365 -0.27312,-0.28553 -0.19274,-0.32264 -0.1714,-0.72655 0.0542,-1.02593 0.26098,-0.34633 0.73693,-0.46509 1.12577,-0.28089 0.1095,0.0519 0.16646,0.0911 0.25336,0.17456 0.14825,0.14237 0.24058,0.31756 0.27256,0.51715 0.0161,0.10067 0.006,0.28183 -0.0204,0.3784 -0.0955,0.34462 -0.37377,0.60024 -0.72624,0.6671 -0.0717,0.0136 -0.24597,0.016 -0.31504,0.004 z m 0.29152,-0.59139 c 0.21846,-0.1022 0.27373,-0.38694 0.10817,-0.55728 -0.20076,-0.20658 -0.54363,-0.0994 -0.59647,0.18645 -0.0162,0.0876 0.009,0.18592 0.0687,0.26527 0.0374,0.0499 0.0817,0.0827 0.15154,0.11203 0.0439,0.0185 0.0602,0.0207 0.13546,0.0183 0.0703,-0.002 0.0939,-0.007 0.13258,-0.0247 z m 1.92035,0.58749 c -0.34978,-0.0643 -0.63634,-0.33101 -0.72901,-0.67856 -0.0195,-0.0731 -0.0222,-0.0998 -0.0223,-0.22416 -1.9e-4,-0.1264 0.002,-0.15008 0.0227,-0.22668 0.0706,-0.26384 0.24734,-0.48092 0.48711,-0.59833 0.36508,-0.17877 0.79504,-0.10343 1.07523,0.18843 0.11359,0.11831 0.18462,0.24327 0.2292,0.40319 0.0215,0.0771 0.0233,0.0955 0.0227,0.23339 -6.6e-4,0.16126 -0.01,0.21239 -0.0597,0.33947 -0.11353,0.28805 -0.38651,0.50912 -0.69551,0.56324 -0.0863,0.0151 -0.24807,0.0151 -0.33035,0 z m 0.31387,-0.58923 c 0.19924,-0.0959 0.26509,-0.34699 0.13605,-0.51871 -0.0735,-0.0978 -0.16209,-0.14129 -0.28739,-0.14111 -0.0686,1e-4 -0.0833,0.003 -0.1345,0.0272 -0.14694,0.0693 -0.23253,0.22461 -0.2051,0.37209 0.0239,0.12852 0.0959,0.21596 0.22125,0.2687 0.044,0.0185 0.06,0.0207 0.13545,0.0181 0.072,-0.002 0.0932,-0.007 0.13424,-0.0263 z m -12.89513,-0.6698 c -0.003,-0.003 -0.006,-0.12788 -0.006,-0.27706 0,-0.21904 0.002,-0.27313 0.0117,-0.28097 0.008,-0.007 0.0992,-0.009 0.31863,-0.007 l 0.30693,0.002 v 0.28228 0.28228 l -0.31282,0.002 c -0.17206,10e-4 -0.31545,-3.7e-4 -0.31864,-0.004 z m 1.27396,-0.008 c -0.003,-0.007 -0.005,-0.13218 -0.005,-0.27707 0,-0.2124 0.002,-0.2653 0.0117,-0.27313 0.008,-0.007 0.0992,-0.009 0.31864,-0.007 l 0.30694,0.002 v 0.28227 0.28229 l -0.31341,0.002 c -0.28021,0.002 -0.31396,8e-4 -0.31863,-0.0114 z m 1.27453,0 c -0.003,-0.007 -0.005,-0.12999 -0.005,-0.27219 0,-0.19337 0.003,-0.26225 0.0107,-0.27316 0.01,-0.0134 0.0367,-0.0144 0.31863,-0.0123 l 0.30795,0.002 v 0.28227 0.28229 l -0.31341,0.002 c -0.28021,0.002 -0.31395,8e-4 -0.31863,-0.0114 z m 1.27988,-0.27088 0.002,-0.28453 h 0.31222 0.31221 v 0.28227 0.28229 l -0.31447,0.002 -0.31447,0.002 z m 1.27643,0.27365 c -0.002,-0.006 -0.003,-0.13402 -0.002,-0.28453 l 0.002,-0.27365 h 0.31222 0.31222 v 0.28227 0.28229 l -0.31031,0.002 c -0.24475,0.002 -0.31119,-6e-5 -0.31448,-0.009 z m -3.83088,15.47113 c -0.003,-0.007 -0.005,-0.13178 -0.005,-0.27629 0,-0.19296 0.003,-0.26549 0.0103,-0.27303 0.015,-0.015 10.81085,-0.015 10.82582,0 0.008,0.008 0.0103,0.0801 0.0103,0.27303 0,0.14451 -0.002,0.26885 -0.005,0.27629 -0.005,0.0123 -0.49012,0.0135 -5.41798,0.0135 -4.92786,0 -5.41326,-10e-4 -5.41798,-0.0135 z"
       id="path826"
       inkscape:connector-curvature="0" />
  </g>
</svg>
