<?xml version="1.0" encoding="UTF-8" standalone="no"?>
<svg
   xmlns:dc="http://purl.org/dc/elements/1.1/"
   xmlns:cc="http://creativecommons.org/ns#"
   xmlns:rdf="http://www.w3.org/1999/02/22-rdf-syntax-ns#"
   xmlns:svg="http://www.w3.org/2000/svg"
   xmlns="http://www.w3.org/2000/svg"
   id="svg8"
   version="1.1"
   viewBox="0 0 18.520834 18.520733"
   height="69.999619"
   width="70">
  <defs
     id="defs2" />
  <metadata
     id="metadata5">
    <rdf:RDF>
      <cc:Work
         rdf:about="">
        <dc:format>image/svg+xml</dc:format>
        <dc:type
           rdf:resource="http://purl.org/dc/dcmitype/StillImage" />
        <dc:title></dc:title>
      </cc:Work>
    </rdf:RDF>
  </metadata>
  <g
     transform="translate(-69.715226,-101.97108)"
     id="layer1">
    <path
       id="path826"
       d="m 77.726369,120.48194 c -0.002,-0.005 -0.005,-0.0543 -0.008,-0.10861 -0.0252,-0.48898 -0.19273,-0.95765 -0.47946,-1.34155 -0.33984,-0.455 -0.81388,-0.77976 -1.35442,-0.92791 -0.20478,-0.0561 -0.37152,-0.0798 -0.63231,-0.0898 -0.1347,-0.005 -0.20812,-0.0117 -0.26831,-0.0239 -0.49198,-0.0999 -0.85989,-0.4682 -0.95611,-0.95711 -0.0228,-0.11576 -0.0243,-0.30332 -0.003,-0.42005 0.089,-0.49688 0.46382,-0.87388 0.97087,-0.9766 0.0774,-0.0157 0.10957,-0.0176 0.28454,-0.0169 0.80086,0.003 1.63189,0.22125 2.3305,0.61193 0.0535,0.0299 0.10052,0.0523 0.10456,0.0498 0.005,-0.003 0.007,-0.9845 0.007,-2.54766 v -2.54312 l -0.0682,-0.0463 c -0.41146,-0.27949 -0.72252,-0.69374 -0.87492,-1.16515 -0.0651,-0.20151 -0.097,-0.38862 -0.10398,-0.61038 -0.0162,-0.51515 0.13703,-0.99552 0.45025,-1.41167 0.079,-0.10492 0.23474,-0.26972 0.33639,-0.35587 0.3438,-0.2914 0.75621,-0.47002 1.21529,-0.52636 0.10717,-0.0131 0.40657,-0.0131 0.51295,1.2e-4 0.5399,0.067 1.00132,0.29454 1.37339,0.67728 0.34172,0.35152 0.54606,0.77352 0.61653,1.27323 0.0161,0.11456 0.0138,0.461 -0.004,0.57608 -0.0631,0.4102 -0.2269,0.78657 -0.47744,1.09691 -0.12568,0.15569 -0.31699,0.33131 -0.48589,0.44603 l -0.0678,0.0461 v 0.66409 c 0,0.36525 0.002,0.66629 0.005,0.66897 0.003,0.003 0.0368,-0.0112 0.0759,-0.0308 0.0957,-0.0481 0.17443,-0.0762 0.28683,-0.10265 0.0867,-0.0204 0.10682,-0.0221 0.25586,-0.0224 0.12593,-2.1e-4 0.17745,0.003 0.23251,0.0141 0.2514,0.051 0.47669,0.17233 0.64534,0.34764 l 0.0453,0.0471 0.0533,-0.0509 c 0.19516,-0.18623 0.37449,-0.28347 0.62713,-0.34006 0.0708,-0.0159 0.10197,-0.0181 0.24298,-0.0178 0.13631,3e-4 0.17438,0.003 0.24186,0.0177 0.23465,0.0509 0.44451,0.16248 0.60747,0.32288 0.0365,0.036 0.0696,0.0654 0.0733,0.0654 0.004,0 0.0185,-0.0133 0.0327,-0.0296 0.11578,-0.13293 0.32151,-0.26292 0.51276,-0.32402 0.13824,-0.0442 0.20019,-0.0527 0.37851,-0.0525 0.14901,2.4e-4 0.16924,0.002 0.25647,0.0224 0.2321,0.0543 0.42336,0.15854 0.58806,0.32053 0.18234,0.17933 0.29025,0.38373 0.34472,0.65293 0.0132,0.0655 0.0141,0.25559 0.0163,3.58085 0.001,1.93144 3.4e-4,3.51975 -0.002,3.52957 l -0.004,0.0179 -0.28589,-0.002 -0.28589,-0.002 -0.004,-3.51566 -0.004,-3.51565 -0.018,-0.0578 c -0.0727,-0.23427 -0.2509,-0.3987 -0.48603,-0.44854 -0.0695,-0.0147 -0.21608,-0.0103 -0.28516,0.009 -0.17301,0.0474 -0.32888,0.1774 -0.40567,0.33846 -0.0381,0.08 -0.0532,0.14155 -0.0629,0.25648 -0.006,0.0704 -0.012,0.0984 -0.0285,0.1321 -0.0271,0.0554 -0.0794,0.10724 -0.13638,0.1352 -0.0405,0.0199 -0.0536,0.0222 -0.12419,0.0222 -0.0654,0 -0.0856,-0.003 -0.11775,-0.0179 -0.0557,-0.0257 -0.10413,-0.0682 -0.13115,-0.11502 -0.0311,-0.0539 -0.0372,-0.0788 -0.0469,-0.18969 -0.0124,-0.14137 -0.0468,-0.2315 -0.13143,-0.34405 -0.07,-0.0931 -0.19109,-0.17468 -0.31847,-0.21447 -0.0506,-0.0158 -0.0757,-0.0185 -0.17361,-0.0185 -0.0979,0 -0.12297,0.003 -0.17361,0.0185 -0.17167,0.0536 -0.30696,0.16474 -0.38641,0.31735 -0.0407,0.0782 -0.0617,0.15735 -0.0704,0.26502 -0.009,0.10689 -0.0314,0.16448 -0.0863,0.21824 -0.0543,0.0532 -0.11079,0.0787 -0.18356,0.0829 -0.10524,0.006 -0.19353,-0.0332 -0.25353,-0.11283 -0.0404,-0.0536 -0.0527,-0.0942 -0.0617,-0.20397 -0.0198,-0.24142 -0.1471,-0.43127 -0.35492,-0.52924 -0.098,-0.0462 -0.14664,-0.056 -0.2762,-0.0556 -0.10814,3e-4 -0.11854,0.002 -0.18939,0.026 -0.20721,0.0711 -0.35698,0.22766 -0.41296,0.43167 -0.007,0.0262 -0.0165,0.09 -0.0207,0.14171 -0.006,0.0795 -0.0114,0.10154 -0.0316,0.14267 -0.0286,0.0582 -0.0797,0.10748 -0.14095,0.13621 -0.0387,0.0181 -0.055,0.021 -0.11992,0.021 -0.069,0 -0.0795,-0.002 -0.12772,-0.0259 -0.064,-0.0315 -0.11649,-0.087 -0.14197,-0.15008 l -0.0182,-0.045 -0.004,-2.21751 c -0.004,-2.11331 -0.005,-2.21972 -0.0185,-2.26457 -0.11184,-0.36735 -0.48955,-0.5538 -0.84348,-0.41637 -0.15336,0.0596 -0.28754,0.19319 -0.35051,0.3491 -0.045,0.11146 -0.0421,-0.16083 -0.0421,3.97625 0,3.41497 -0.001,3.8141 -0.0122,3.85619 -0.032,0.12271 -0.13395,0.20686 -0.26065,0.21507 -0.0767,0.005 -0.13037,-0.0121 -0.2063,-0.0654 -0.2867,-0.20126 -0.44397,-0.29621 -0.69271,-0.4182 -0.45992,-0.22557 -0.92947,-0.3616 -1.44409,-0.41837 -0.15304,-0.0169 -0.42419,-0.0299 -0.50664,-0.0243 -0.27368,0.0185 -0.49759,0.19819 -0.57189,0.45887 -0.0143,0.0501 -0.0179,0.0825 -0.0178,0.16132 3e-5,0.11802 0.0122,0.17113 0.0621,0.27226 0.0641,0.12965 0.15588,0.22139 0.28449,0.2843 0.10178,0.0498 0.14815,0.0589 0.34181,0.067 0.0925,0.004 0.2195,0.0127 0.28219,0.0195 0.90558,0.0992 1.72446,0.59824 2.23404,1.36135 0.30922,0.46307 0.4906,1.03082 0.5017,1.57041 l 0.002,0.0986 -0.28627,0.002 c -0.22508,0.002 -0.28695,-9e-5 -0.2894,-0.008 z m -0.002,-10.69306 c 0.003,-0.62136 0.003,-0.64361 0.02,-0.71965 0.0545,-0.25132 0.17301,-0.46404 0.35373,-0.63508 0.16362,-0.15484 0.36627,-0.25993 0.5979,-0.31004 0.11556,-0.025 0.35942,-0.025 0.47482,-8e-5 0.23075,0.0499 0.4322,0.15369 0.59393,0.30593 0.18667,0.17573 0.30194,0.38213 0.35852,0.64193 0.0158,0.0727 0.0166,0.10191 0.0195,0.71697 0.002,0.518 0.005,0.64118 0.0132,0.64118 0.006,0 0.0333,-0.0275 0.0615,-0.0612 0.21965,-0.26191 0.34658,-0.55424 0.38593,-0.88882 0.0119,-0.10129 0.005,-0.35646 -0.0119,-0.45076 -0.0637,-0.35198 -0.21878,-0.65059 -0.46624,-0.89806 -0.61036,-0.61036 -1.57845,-0.66081 -2.25388,-0.11746 -0.2742,0.22059 -0.4767,0.53475 -0.56385,0.87476 -0.0985,0.38438 -0.0561,0.78776 0.12006,1.14298 0.0712,0.14356 0.25314,0.39852 0.28437,0.39852 0.007,0 0.0103,-0.14555 0.0125,-0.64118 z m -5.37234,0.48709 c -0.40506,-0.0743 -0.72077,-0.38166 -0.80619,-0.78499 -0.0177,-0.0837 -0.0197,-0.28512 -0.004,-0.36696 0.0697,-0.35542 0.32505,-0.64893 0.66221,-0.76126 0.12,-0.04 0.1909,-0.0511 0.32522,-0.0511 0.13435,0 0.20522,0.0111 0.32531,0.0512 0.18417,0.0614 0.35973,0.18909 0.48088,0.34986 0.0602,0.0799 0.13496,0.23288 0.15998,0.32733 0.12901,0.48695 -0.1181,0.98353 -0.58529,1.17616 -0.1185,0.0489 -0.20553,0.0656 -0.3572,0.0686 -0.0981,0.002 -0.15639,-5.8e-4 -0.20124,-0.009 z m 0.28858,-0.57662 c 0.14607,-0.0429 0.26163,-0.16188 0.29508,-0.3038 0.034,-0.1442 -0.004,-0.27717 -0.11083,-0.38417 -0.0683,-0.0686 -0.14306,-0.10721 -0.23565,-0.12161 -0.24562,-0.0382 -0.47735,0.15979 -0.47777,0.40818 -3.1e-4,0.18424 0.11652,0.33978 0.29978,0.39909 0.0564,0.0183 0.17113,0.0194 0.22939,0.002 z m 12.55876,0.58323 c -0.013,-0.002 -0.061,-0.0122 -0.10654,-0.0234 -0.32643,-0.0801 -0.59009,-0.31903 -0.70116,-0.63551 -0.0844,-0.24057 -0.0704,-0.51088 0.0382,-0.73844 0.052,-0.10894 0.10118,-0.18052 0.18267,-0.26595 0.1449,-0.15189 0.32206,-0.24894 0.53554,-0.29337 0.0933,-0.0194 0.28711,-0.0195 0.3788,-1.8e-4 0.20527,0.0433 0.36478,0.12695 0.51014,0.26757 0.30567,0.29569 0.38897,0.74574 0.20814,1.12452 -0.0532,0.11135 -0.10893,0.19005 -0.19727,0.27842 -0.14802,0.14806 -0.33302,0.24435 -0.53621,0.27908 -0.0685,0.0117 -0.24636,0.0158 -0.3123,0.007 z m 0.24912,-0.58336 c 0.18507,-0.055 0.30723,-0.21457 0.30723,-0.40144 0,-0.15529 -0.0901,-0.29766 -0.2328,-0.36772 -0.16702,-0.082 -0.34953,-0.0511 -0.48026,0.0813 -0.10708,0.10848 -0.14523,0.24018 -0.11129,0.38417 0.0335,0.14229 0.15378,0.26553 0.29651,0.30392 0.0582,0.0156 0.1675,0.0155 0.22061,-2.4e-4 z m -11.16511,-0.39961 0.002,-0.28607 0.26831,-0.002 c 0.24523,-0.002 0.26915,-9.3e-4 0.27817,0.0114 0.007,0.0101 0.01,0.0784 0.01,0.27568 0,0.14421 -0.002,0.26783 -0.005,0.27469 -0.004,0.0111 -0.0363,0.0125 -0.28024,0.0125 h -0.27546 z m 1.11608,0.2808 c -0.003,-0.003 -0.005,-0.12852 -0.005,-0.27918 0,-0.22217 0.002,-0.27561 0.0108,-0.28288 0.008,-0.006 0.0874,-0.008 0.27818,-0.007 l 0.26737,0.002 0.002,0.28607 0.002,0.28607 h -0.27498 c -0.15124,0 -0.27735,-0.002 -0.28025,-0.005 z m 6.51498,-0.2807 0.002,-0.28617 0.26924,-0.002 c 0.22128,-0.002 0.27084,-1.5e-4 0.27827,0.009 0.007,0.008 0.008,0.0881 0.007,0.28617 l -0.002,0.27527 -0.27828,0.002 -0.27827,0.002 z m 1.11562,0.27348 c -0.003,-0.007 -0.005,-0.13047 -0.005,-0.27469 0,-0.19733 0.002,-0.26554 0.01,-0.27567 0.009,-0.0123 0.0329,-0.0133 0.27817,-0.0114 l 0.26832,0.002 0.002,0.28607 0.002,0.28607 h -0.27546 c -0.2439,0 -0.276,-0.001 -0.28024,-0.0125 z m -6.8177,-2.5572 c -0.24816,-0.24671 -0.45298,-0.44981 -0.45515,-0.45132 -0.002,-0.002 -0.006,-0.38305 -0.008,-0.84788 l -0.004,-0.84513 -0.0631,-0.0249 c -0.14539,-0.0573 -0.23824,-0.11842 -0.35219,-0.23201 -0.19206,-0.19145 -0.29083,-0.42767 -0.29093,-0.69578 -1.5e-4,-0.42333 0.27574,-0.8013 0.68501,-0.93842 0.18816,-0.063 0.43628,-0.0641 0.62473,-0.003 0.27352,0.0892 0.499,0.29256 0.61001,0.55005 0.22137,0.51348 -0.0195,1.09564 -0.54258,1.31133 l -0.0791,0.0326 -0.002,0.72164 -0.002,0.72163 0.37094,0.37041 c 0.20402,0.20373 0.37094,0.37466 0.37094,0.37984 0,0.01 -0.38811,0.39117 -0.40313,0.39623 -0.005,0.002 -0.21143,-0.19904 -0.4596,-0.44576 z m -0.0882,-2.69007 c 0.15947,-0.0336 0.28656,-0.1568 0.32351,-0.31352 0.0501,-0.21232 -0.0793,-0.4271 -0.29535,-0.49058 -0.0534,-0.0157 -0.16362,-0.0162 -0.22046,-0.001 -0.14291,0.038 -0.26817,0.16501 -0.30029,0.30441 -0.012,0.0519 -0.0103,0.14765 0.004,0.20069 0.0283,0.10875 0.10667,0.20649 0.20835,0.25992 0.0934,0.0491 0.17987,0.0614 0.28067,0.0402 z m 4.86605,2.94282 c -0.10903,-0.10677 -0.19823,-0.19851 -0.19823,-0.20386 0,-0.005 0.16692,-0.17572 0.37094,-0.37861 l 0.37094,-0.3689 -0.002,-0.72248 -0.002,-0.72248 -0.0868,-0.037 c -0.10123,-0.0432 -0.14975,-0.0716 -0.23749,-0.1394 -0.19372,-0.14963 -0.32646,-0.37398 -0.36795,-0.62193 -0.0152,-0.0911 -0.011,-0.25582 0.009,-0.35178 0.0527,-0.25227 0.20454,-0.47719 0.41815,-0.6194 0.17574,-0.117 0.3513,-0.16975 0.56494,-0.16975 0.11992,0 0.21432,0.0143 0.31328,0.0475 0.35741,0.11974 0.61353,0.41909 0.67403,0.78781 0.018,0.10968 0.0112,0.27816 -0.0156,0.38397 -0.082,0.32459 -0.29954,0.56954 -0.61662,0.69441 l -0.0631,0.0249 -0.004,0.84564 -0.004,0.84564 -0.0237,0.0226 c -0.013,0.0124 -0.21779,0.2149 -0.45504,0.44997 -0.23726,0.23507 -0.43481,0.4274 -0.43901,0.4274 -0.004,0 -0.0968,-0.0874 -0.20586,-0.19413 z m 0.92439,-2.94248 c 0.11286,-0.0239 0.22807,-0.10894 0.27967,-0.20641 0.0355,-0.067 0.0497,-0.12323 0.0497,-0.19609 0,-0.12224 -0.0341,-0.204 -0.12218,-0.29281 -0.0851,-0.0859 -0.17209,-0.12145 -0.29721,-0.12162 -0.22094,-3e-4 -0.39797,0.16458 -0.41434,0.38593 -0.0147,0.19875 0.12913,0.387 0.32867,0.43022 0.0667,0.0145 0.11024,0.0146 0.17565,7.9e-4 z m -3.26724,1.74968 0.002,-0.27423 h 0.28409 0.2841 l 0.002,0.27423 0.002,0.27423 h -0.28825 -0.28824 z m -0.002,-1.10678 v -0.2762 h 0.28804 0.28804 v 0.2762 0.2762 h -0.28804 -0.28804 z m 0.16178,-1.02273 c -0.44043,-0.0631 -0.78574,-0.39017 -0.85995,-0.81443 -0.0156,-0.0892 -0.0155,-0.25721 1.5e-4,-0.34199 0.0211,-0.11438 0.0655,-0.23507 0.12008,-0.3264 0.27128,-0.45422 0.84231,-0.62179 1.31581,-0.38612 0.28278,0.14074 0.48237,0.40515 0.53695,0.71134 0.0148,0.0832 0.0145,0.25942 -7.1e-4,0.34646 -0.0655,0.37578 -0.35806,0.68833 -0.7352,0.78554 -0.0817,0.0211 -0.10886,0.0243 -0.22323,0.0265 -0.0716,0.001 -0.14087,9.9e-4 -0.15389,-8.8e-4 z m 0.22782,-0.58325 c 0.0724,-0.0189 0.13076,-0.0514 0.18676,-0.10403 0.17112,-0.16095 0.17476,-0.42022 0.008,-0.58718 -0.057,-0.0571 -0.13729,-0.10135 -0.21211,-0.11684 -0.20824,-0.0431 -0.42261,0.0838 -0.48472,0.28695 -0.0679,0.22198 0.0669,0.45917 0.2959,0.52085 0.055,0.0148 0.1496,0.0149 0.20593,2.4e-4 z"
       style="fill:#fe8138;stroke-width:0.00789148" />
  </g>
</svg>
