<?xml version="1.0" encoding="UTF-8" standalone="no"?>
<svg
   xmlns:dc="http://purl.org/dc/elements/1.1/"
   xmlns:cc="http://creativecommons.org/ns#"
   xmlns:rdf="http://www.w3.org/1999/02/22-rdf-syntax-ns#"
   xmlns:svg="http://www.w3.org/2000/svg"
   xmlns="http://www.w3.org/2000/svg"
   id="svg8"
   version="1.1"
   viewBox="0 0 15.881235 15.881503"
   height="15.881503mm"
   width="15.881235mm">
  <defs
     id="defs2" />
  <metadata
     id="metadata5">
    <rdf:RDF>
      <cc:Work
         rdf:about="">
        <dc:format>image/svg+xml</dc:format>
        <dc:type
           rdf:resource="http://purl.org/dc/dcmitype/StillImage" />
        <dc:title></dc:title>
      </cc:Work>
    </rdf:RDF>
  </metadata>
  <g
     transform="translate(1060.569,-582.65507)"
     id="layer1">
    <path
       id="path839"
       d="m -1059.0081,598.52492 c -0.093,-0.025 -0.1828,-0.10551 -0.2193,-0.19579 l -0.02,-0.0498 v -0.53001 -0.53 l 0.02,-0.005 c 0.011,-0.003 0.1594,-0.004 0.3298,-0.002 l 0.3099,0.002 v 0.32732 0.32731 h 0.3274 0.3273 v -0.32731 -0.32732 l 0.3176,-0.002 c 0.2327,-0.002 0.3208,4.4e-4 0.3298,0.008 0.01,0.009 0.012,0.0916 0.01,0.53473 v 0.5245 l -0.027,0.0571 c -0.033,0.0689 -0.069,0.11144 -0.1237,0.14644 -0.087,0.0554 -0.065,0.054 -0.8436,0.0533 -0.5317,-4.5e-4 -0.7175,-0.003 -0.7475,-0.0113 z m 11.242,-0.004 c -0.117,-0.0377 -0.199,-0.12976 -0.225,-0.2524 -0.01,-0.0311 -0.01,-0.20826 -0.01,-0.54228 0,-0.40892 0,-0.49776 0.012,-0.50592 0.01,-0.007 0.1024,-0.009 0.3295,-0.008 l 0.3175,0.002 v 0.32732 0.32731 h 0.3273 0.3273 v -0.32731 -0.32732 l 0.3099,-0.002 c 0.1704,-10e-4 0.3188,-2.6e-4 0.3297,0.002 l 0.02,0.005 v 0.53002 0.53002 l -0.02,0.0502 c -0.028,0.07 -0.094,0.13899 -0.1657,0.17439 l -0.058,0.0286 -0.729,0.002 c -0.6815,0.002 -0.7322,8.1e-4 -0.7778,-0.0139 z m -11.5963,-1.65813 c -0.09,-0.0312 -0.172,-0.1154 -0.206,-0.21223 -0.01,-0.0204 -0.012,-0.18685 -0.015,-0.55717 v -0.52807 l -0.092,-0.011 c -0.2474,-0.0298 -0.4641,-0.13777 -0.6273,-0.31249 -0.1123,-0.12027 -0.1895,-0.25834 -0.2345,-0.41951 l -0.024,-0.0861 v -1.82424 -1.82424 l 0.024,-0.0862 c 0.047,-0.16922 0.1266,-0.30788 0.2487,-0.43453 0.1275,-0.13228 0.2905,-0.22796 0.4596,-0.2699 0.039,-0.01 0.079,-0.0202 0.088,-0.0235 0.01,-0.003 1.1879,-0.008 2.6185,-0.0106 l 2.6011,-0.005 0.1352,-0.40176 c 0.074,-0.22097 0.1444,-0.41626 0.1555,-0.43399 0.044,-0.0705 0.1341,-0.12993 0.2217,-0.14655 0.06,-0.0113 2.7036,-0.0113 2.7632,0 0.088,0.0166 0.1775,0.076 0.2217,0.14655 0.011,0.0177 0.081,0.21302 0.1555,0.43399 l 0.1353,0.40176 2.601,0.005 c 1.4306,0.002 2.609,0.007 2.6186,0.0106 0.01,0.003 0.049,0.0139 0.088,0.0235 0.2659,0.0659 0.5092,0.26268 0.6358,0.51429 0.041,0.0816 0.079,0.19683 0.092,0.28066 0.01,0.0487 0.01,0.52346 0.01,1.85915 v 1.79368 l -0.024,0.0829 c -0.1167,0.39972 -0.4446,0.67626 -0.8616,0.72651 l -0.092,0.011 v 0.52807 c 0,0.3868 -0.01,0.53671 -0.015,0.56035 -0.03,0.09 -0.1274,0.18646 -0.2133,0.21199 -0.04,0.0118 -0.783,0.0132 -6.7267,0.0129 -6.392,-2.6e-4 -6.6842,-9.6e-4 -6.7273,-0.0159 z m 13.0098,-0.64996 c 0.01,-0.008 0.01,-0.17383 0.012,-0.53898 v -0.52749 l 0.024,-0.0524 c 0.032,-0.0687 0.099,-0.13625 0.1667,-0.16739 l 0.053,-0.0246 0.2444,-0.004 0.2444,-0.004 0.059,-0.0277 c 0.1026,-0.0486 0.1689,-0.13464 0.1902,-0.24689 0.013,-0.0671 0.012,-3.34874 -7e-4,-3.41774 -0.024,-0.12783 -0.1107,-0.2247 -0.2343,-0.26086 -0.043,-0.0126 -0.6774,-0.0139 -7.0401,-0.0139 -6.3626,0 -6.9969,10e-4 -7.04,0.0139 -0.1237,0.0362 -0.2107,0.13303 -0.2343,0.26086 -0.013,0.069 -0.014,3.35063 -8e-4,3.41774 0.021,0.11225 0.088,0.19826 0.1903,0.24689 l 0.058,0.0277 0.2444,0.004 0.2444,0.004 0.052,0.0244 c 0.069,0.0321 0.1362,0.0993 0.1674,0.16669 l 0.025,0.0533 v 0.52749 c 0,0.36515 0.01,0.53103 0.012,0.53898 0.01,0.009 1.1062,0.0115 6.2788,0.0115 5.1726,0 6.2709,-0.002 6.2788,-0.0115 z m -11.9003,-0.66282 c 0,-0.006 0,-0.15429 0,-0.3295 v -0.31854 h 0.3273 0.3274 v 0.31756 c 0,0.22712 -5e-4,0.32096 -0.01,0.32949 -0.014,0.0168 -0.6432,0.0178 -0.6497,9.9e-4 z m 1.3286,0.005 c 0,-0.003 -0.01,-0.15246 -0.01,-0.33169 v -0.32586 h 4.2988 4.2989 v 0.3295 0.3295 l -4.2907,0.002 c -2.3599,10e-4 -4.2934,-4.3e-4 -4.2966,-0.004 z m 9.2648,-0.006 c -0.01,-0.009 -0.01,-0.10086 -0.01,-0.3296 v -0.31756 h 0.3273 0.3273 v 0.32731 0.32732 l -0.3196,0.002 c -0.2632,0.002 -0.3214,1.6e-4 -0.3296,-0.01 z m -11.0225,-1.3275 c -0.09,-0.0281 -0.1695,-0.0989 -0.2106,-0.18661 l -0.023,-0.0495 v -0.74191 -0.74191 l 0.028,-0.0585 c 0.065,-0.13723 0.1785,-0.19759 0.3738,-0.19874 l 0.052,-3e-4 0.1289,-0.25715 c 0.1427,-0.28478 0.1684,-0.32046 0.2657,-0.36821 l 0.051,-0.0249 h 0.7508 0.7508 l 0.057,0.0279 c 0.094,0.0462 0.1119,0.0716 0.2569,0.35839 l 0.1313,0.25963 0.087,0.006 c 0.1167,0.008 0.1334,0.0118 0.1945,0.0424 0.063,0.0316 0.1175,0.0881 0.1489,0.15513 l 0.023,0.0495 v 0.75064 0.75064 l -0.024,0.0499 c -0.034,0.0687 -0.091,0.12461 -0.1612,0.15796 l -0.059,0.0278 -1.3922,0.002 c -1.134,10e-4 -1.399,-4.9e-4 -1.4289,-0.01 z m 2.4044,-0.98013 v -0.32937 l -0.047,-0.007 c -0.026,-0.004 -0.07,-0.019 -0.098,-0.034 -0.09,-0.0478 -0.1152,-0.0842 -0.2555,-0.36383 l -0.1278,-0.25464 h -0.4588 -0.4588 l -0.1181,0.24221 c -0.065,0.13322 -0.1322,0.26144 -0.1494,0.28495 -0.017,0.0235 -0.054,0.0575 -0.082,0.0755 -0.044,0.0286 -0.073,0.0388 -0.162,0.057 l -0.02,0.004 v 0.32133 c 0,0.17673 0,0.32395 0.01,0.32715 0,0.003 0.449,0.006 0.9908,0.006 h 0.9849 z m 2.2322,0.98056 c -0.094,-0.03 -0.1703,-0.0964 -0.2112,-0.18421 l -0.024,-0.0524 v -0.74191 c 0,-0.82281 0,-0.76753 0.057,-0.85643 0.061,-0.0888 0.1482,-0.12989 0.2975,-0.14038 l 0.099,-0.007 0.1275,-0.25312 c 0.1423,-0.28266 0.1729,-0.32495 0.2669,-0.36899 l 0.051,-0.0238 h 0.7506 0.7507 l 0.051,0.0238 c 0.094,0.044 0.1246,0.0863 0.267,0.36899 l 0.1274,0.25312 0.099,0.007 c 0.1492,0.0105 0.2364,0.0516 0.2974,0.14038 0.061,0.0889 0.057,0.0336 0.057,0.85643 v 0.74191 l -0.025,0.0533 c -0.031,0.0674 -0.099,0.13462 -0.1674,0.16668 l -0.052,0.0244 -1.3922,0.002 c -1.1076,10e-4 -1.3993,-6.2e-4 -1.4271,-0.009 z m 2.4026,-0.98005 c 0,-0.36344 0.01,-0.32652 -0.063,-0.33889 -0.057,-0.01 -0.1238,-0.0477 -0.1697,-0.0963 -0.034,-0.0363 -0.068,-0.0959 -0.1701,-0.29965 l -0.1272,-0.25429 h -0.4582 -0.4582 l -0.1299,0.25974 c -0.1367,0.27333 -0.1608,0.30915 -0.238,0.35417 -0.034,0.0198 -0.058,0.0274 -0.1406,0.0447 l -0.024,0.005 v 0.32133 c 0,0.17673 0,0.32396 0.01,0.32718 0,0.003 0.448,0.005 0.9885,0.004 l 0.9826,-0.002 z m 2.2322,0.98005 c -0.096,-0.0307 -0.1688,-0.0917 -0.2112,-0.17795 l -0.025,-0.0499 v -0.75064 -0.75064 l 0.023,-0.0495 c 0.031,-0.067 0.086,-0.12357 0.1488,-0.15513 0.061,-0.0306 0.078,-0.0342 0.1945,-0.0424 l 0.087,-0.006 0.1313,-0.25963 c 0.1451,-0.28683 0.1633,-0.3122 0.2569,-0.35839 l 0.057,-0.0279 h 0.7508 0.7508 l 0.051,0.0238 c 0.096,0.0449 0.1264,0.0873 0.2678,0.372 l 0.1265,0.25451 0.052,2.9e-4 c 0.1953,10e-4 0.3089,0.0615 0.374,0.19872 l 0.028,0.0585 v 0.7421 0.7421 l -0.028,0.0575 c -0.034,0.0692 -0.097,0.1305 -0.1662,0.16317 l -0.05,0.0234 -1.3922,0.002 c -1.1076,10e-4 -1.3993,-6.2e-4 -1.4271,-0.009 z m 2.4026,-0.98048 v -0.32494 l -0.02,-0.004 c -0.089,-0.0183 -0.1177,-0.0284 -0.162,-0.057 -0.028,-0.018 -0.063,-0.05 -0.079,-0.0711 -0.016,-0.0211 -0.083,-0.14935 -0.1496,-0.28497 l -0.1213,-0.24657 h -0.4588 -0.4587 l -0.1272,0.25429 c -0.1036,0.20711 -0.1354,0.26298 -0.1714,0.30107 -0.05,0.0531 -0.1148,0.0874 -0.1831,0.0972 l -0.046,0.007 v 0.32941 0.32942 l 0.9886,-0.002 0.9886,-0.002 z m -4.4371,-2.98625 c 0.01,-0.008 -0.088,-0.29621 -0.1019,-0.31328 -0.01,-0.009 -0.2341,-0.0109 -1.0844,-0.0109 -0.8502,0 -1.0776,0.002 -1.0844,0.0109 -0.014,0.0171 -0.1071,0.30489 -0.1019,0.31328 0.01,0.01 2.3666,0.01 2.3726,0 z m -6.0742,-0.99331 c -0.8256,-0.0726 -1.5524,-0.41415 -2.1168,-0.99468 -0.4764,-0.49001 -0.7828,-1.0957 -0.8935,-1.76646 -0.036,-0.21673 -0.043,-0.33234 -0.038,-0.6131 0.01,-0.27537 0.021,-0.42274 0.072,-0.64816 0.1786,-0.79584 0.6461,-1.4998 1.312,-1.9756 0.2347,-0.16771 0.5216,-0.31833 0.7958,-0.4178 0.312,-0.11315 0.6952,-0.18591 0.9951,-0.18893 l 0.1265,-10e-4 v 0.31755 c 0,0.2036 -8e-4,0.32136 -0.01,0.32815 -0.01,0.007 -0.051,0.0126 -0.1251,0.0162 -0.5086,0.0244 -1.0059,0.1984 -1.4163,0.49556 -0.8593,0.62233 -1.2655,1.68898 -1.0366,2.72235 0.2151,0.97126 0.9686,1.74745 1.932,1.9901 0.1874,0.0472 0.4089,0.0785 0.5553,0.0785 0.057,0 0.083,0.003 0.09,0.0119 0.01,0.009 0.01,0.10238 0.01,0.3295 v 0.31756 l -0.1091,8.4e-4 c -0.06,4.6e-4 -0.1248,-5.5e-4 -0.144,-0.002 z m 9.5249,10e-4 c -0.012,-0.0123 -0.01,-0.63629 0,-0.64814 0.01,-0.007 0.04,-0.0105 0.09,-0.0105 0.14,0 0.3637,-0.0309 0.5416,-0.0748 0.9692,-0.23935 1.729,-1.01817 1.9451,-1.99379 0.1026,-0.46332 0.078,-0.95551 -0.069,-1.40128 -0.344,-1.04125 -1.2929,-1.7643 -2.3841,-1.81663 -0.074,-0.004 -0.1196,-0.009 -0.1252,-0.0162 -0.01,-0.007 -0.01,-0.12455 -0.01,-0.32814 v -0.31756 l 0.1266,0.001 c 0.5839,0.006 1.2459,0.22585 1.762,0.58557 0.2748,0.19152 0.5544,0.46148 0.7573,0.73115 0.3417,0.45422 0.5521,0.97054 0.6368,1.56238 0.018,0.12891 0.026,0.57053 0.013,0.71862 -0.072,0.78977 -0.4205,1.52255 -0.9882,2.07459 -0.5258,0.51132 -1.168,0.82074 -1.9017,0.91619 -0.124,0.0161 -0.3938,0.0277 -0.4037,0.0172 z m -5.6298,-2.47184 v -2.14511 l -0.3273,-0.005 c -0.1801,-0.003 -0.3283,-0.005 -0.3295,-0.007 0,-10e-4 0,-0.1492 0,-0.32923 v -0.32731 h 0.3169 c 0.2399,0 0.3205,-0.003 0.3315,-0.0109 0.013,-0.01 0.015,-0.0574 0.017,-0.54334 v -0.53244 l 0.024,-0.0499 c 0.034,-0.0687 0.091,-0.12461 0.1612,-0.15796 l 0.059,-0.0278 h 0.7419 0.7419 l 0.059,0.0278 c 0.07,0.0334 0.1275,0.0893 0.1612,0.15796 l 0.024,0.0499 v 0.53244 c 0,0.48598 0,0.53338 0.017,0.54334 0.011,0.008 0.092,0.0109 0.3315,0.0109 h 0.317 v 0.32731 c 0,0.18003 -10e-4,0.32818 0,0.32923 0,10e-4 -0.1495,0.004 -0.3295,0.007 l -0.3273,0.005 v 2.14511 2.14511 l -0.3295,-0.002 -0.3295,-0.002 v -2.14501 -2.145 h -0.3273 -0.3273 v 2.145 2.14501 l -0.3294,0.002 -0.3295,0.002 z m 1.3063,-2.81813 c 0.012,-0.005 0.014,-0.0421 0.014,-0.33168 v -0.32638 h -0.3273 -0.3273 v 0.32659 c 0,0.2531 0,0.32758 0.011,0.33099 0.016,0.006 0.6134,0.007 0.6299,4.8e-4 z m -5.4371,3.63519 c -0.7405,-0.0706 -1.3372,-0.62552 -1.4724,-1.36923 -0.025,-0.13741 -0.027,-0.39821 0,-0.5368 0.088,-0.5313 0.4171,-0.98034 0.8914,-1.2172 0.2221,-0.1109 0.4327,-0.16726 0.6329,-0.16944 l 0.1091,-0.001 v 0.32041 c 0,0.29852 0,0.32094 -0.013,0.3283 -0.01,0.004 -0.049,0.0103 -0.09,0.0132 -0.3186,0.0227 -0.6343,0.24162 -0.7853,0.54473 -0.2052,0.41171 -0.097,0.91865 0.2572,1.20409 0.164,0.13214 0.3203,0.19669 0.5412,0.22343 l 0.087,0.0106 v 0.31756 c 0,0.22712 -5e-4,0.32096 -0.01,0.32949 -0.011,0.0131 -0.034,0.0134 -0.1518,0.002 z m 10.0954,-0.002 c -0.01,-0.009 -0.01,-0.10238 -0.01,-0.3295 v -0.31756 l 0.087,-0.0106 c 0.1142,-0.0138 0.1935,-0.033 0.2798,-0.0676 0.5842,-0.23435 0.8042,-0.9448 0.455,-1.46931 -0.063,-0.0939 -0.1776,-0.21111 -0.2668,-0.27167 -0.1292,-0.0877 -0.3119,-0.15348 -0.4549,-0.16366 -0.041,-0.003 -0.081,-0.009 -0.09,-0.0132 -0.014,-0.007 -0.015,-0.0298 -0.013,-0.3283 v -0.32041 l 0.1047,8.2e-4 c 0.391,0.003 0.8479,0.22429 1.1316,0.54785 0.5684,0.64826 0.552,1.61272 -0.038,2.23605 -0.2783,0.29397 -0.6482,0.47221 -1.0587,0.51011 -0.1217,0.0112 -0.1224,0.0112 -0.1343,-0.003 z m -8.7512,-0.6608 c -0.1321,-0.0182 -0.3006,-0.0736 -0.4146,-0.13644 -0.1059,-0.0584 -0.1699,-0.11035 -0.3367,-0.27357 -0.1907,-0.18667 -0.2422,-0.22019 -0.3652,-0.23791 l -0.066,-0.01 v -0.32774 -0.32775 l 0.061,0.002 c 0.1977,0.007 0.4332,0.0916 0.6074,0.21699 0.038,0.0274 0.1388,0.11897 0.224,0.20355 0.1259,0.12499 0.1663,0.1597 0.216,0.18545 0.078,0.0403 0.1505,0.0547 0.2435,0.0481 0.1431,-0.0101 0.2093,-0.0507 0.4068,-0.24974 0.1481,-0.14928 0.2404,-0.22097 0.366,-0.2842 0.1285,-0.0647 0.3142,-0.11461 0.4457,-0.11986 l 0.066,-0.003 v 0.32705 0.32705 l -0.065,0.0109 c -0.131,0.0219 -0.1653,0.0448 -0.3716,0.24745 -0.2422,0.23807 -0.3896,0.32449 -0.6546,0.38376 -0.092,0.0207 -0.2771,0.0291 -0.3666,0.0168 z m 7.2629,-0.004 c -0.2939,-0.048 -0.4649,-0.14166 -0.7253,-0.39708 -0.2064,-0.20248 -0.2406,-0.22524 -0.3716,-0.24716 l -0.065,-0.0109 v -0.32705 -0.32705 l 0.065,0.003 c 0.1315,0.005 0.3173,0.0552 0.4457,0.11986 0.1255,0.0631 0.217,0.13432 0.3699,0.28764 0.1557,0.15614 0.2025,0.19299 0.2829,0.22309 0.063,0.0235 0.1758,0.0315 0.2473,0.0175 0.1065,-0.0208 0.1619,-0.0587 0.3322,-0.22789 0.085,-0.0846 0.186,-0.17617 0.2241,-0.20355 0.1741,-0.12538 0.4096,-0.20952 0.6074,-0.21699 l 0.061,-0.002 v 0.32775 0.32774 l -0.066,0.01 c -0.123,0.0177 -0.1745,0.0512 -0.3652,0.23791 -0.092,0.0896 -0.192,0.18091 -0.2232,0.20286 -0.1294,0.091 -0.2945,0.16115 -0.4583,0.19474 -0.098,0.0202 -0.2702,0.0242 -0.3657,0.009 z"
       style="fill:#ffffff;stroke-width:0.0087284;fill-opacity:1" />
  </g>
</svg>
