<?xml version="1.0" encoding="UTF-8" standalone="no"?>
<svg
   xmlns:dc="http://purl.org/dc/elements/1.1/"
   xmlns:cc="http://creativecommons.org/ns#"
   xmlns:rdf="http://www.w3.org/1999/02/22-rdf-syntax-ns#"
   xmlns:svg="http://www.w3.org/2000/svg"
   xmlns="http://www.w3.org/2000/svg"
   id="svg8"
   version="1.1"
   viewBox="0 0 18.5208 16.929297"
   height="63.984741"
   width="69.99987">
  <defs
     id="defs2" />
  <metadata
     id="metadata5">
    <rdf:RDF>
      <cc:Work
         rdf:about="">
        <dc:format>image/svg+xml</dc:format>
        <dc:type
           rdf:resource="http://purl.org/dc/dcmitype/StillImage" />
        <dc:title></dc:title>
      </cc:Work>
    </rdf:RDF>
  </metadata>
  <g
     transform="translate(-69.108209,-104.11507)"
     id="layer1">
    <path
       id="path839"
       d="m 73.816012,121.03185 c -0.0026,-0.007 -0.0058,-0.44685 -0.0072,-0.97773 l -0.0025,-0.96522 -0.180116,-0.0987 c -1.330713,-0.72926 -2.427284,-1.68842 -3.303697,-2.88972 -0.458281,-0.62817 -0.88127,-1.39295 -1.16796,-2.11173 l -0.04633,-0.11615 0.0025,-1.16967 0.0025,-1.16968 0.265557,-0.007 c 0.303242,-0.008 0.430894,-0.0182 0.650031,-0.0544 0.628591,-0.10398 1.205762,-0.37603 1.655361,-0.78024 0.05465,-0.0491 0.166814,-0.16363 0.249256,-0.25444 0.206504,-0.22746 0.612314,-0.63043 0.787112,-0.78161 0.165924,-0.1435 0.355494,-0.29561 0.48281,-0.38741 l 0.08756,-0.0631 v -1.15384 c 0,-1.01835 0.0018,-1.15531 0.01516,-1.16641 0.01944,-0.0161 0.472099,-0.005 0.685295,0.0161 0.800258,0.0811 1.504549,0.38687 2.124655,0.92254 l 0.108359,0.0936 0.276888,-0.0553 c 0.716412,-0.14295 1.280145,-0.19357 2.041966,-0.18335 0.422843,0.006 0.533619,0.0117 0.881622,0.0476 1.392082,0.14391 2.727156,0.60159 3.847471,1.31896 0.834969,0.53465 1.546935,1.22892 2.04982,1.99886 0.486751,0.74524 0.792079,1.6099 0.862663,2.44299 0.0039,0.0455 0.01103,0.0853 0.01593,0.0883 0.01367,0.008 0.104063,-0.024 0.199647,-0.0718 0.20362,-0.10166 0.388868,-0.28608 0.491718,-0.48953 0.05936,-0.11741 0.109051,-0.30588 0.120046,-0.45529 l 0.0026,-0.035 h 0.305196 0.305196 l 0.0033,0.04 c 0.004,0.0482 -0.01323,0.20096 -0.0343,0.30474 -0.04103,0.20208 -0.155413,0.46513 -0.277189,0.63745 -0.07726,0.10932 -0.246445,0.2863 -0.352226,0.36845 -0.213505,0.1658 -0.421818,0.2626 -0.722386,0.33569 -0.048,0.0117 -0.04347,-0.004 -0.06322,0.21987 -0.03464,0.39293 -0.141182,0.86563 -0.283265,1.25679 -0.415405,1.14363 -1.204669,2.14225 -2.325555,2.94242 -0.08929,0.0637 -0.167669,0.12231 -0.174176,0.13015 -0.0065,0.008 -0.258415,0.52402 -0.559798,1.14707 l -0.547971,1.13282 -1.183536,0.003 c -0.732973,0.002 -1.187135,-10e-4 -1.192989,-0.007 -0.0052,-0.005 -0.04,-0.21291 -0.07733,-0.46158 -0.03733,-0.24867 -0.07165,-0.45589 -0.07625,-0.4605 -0.0046,-0.005 -0.07587,2.3e-4 -0.158362,0.0108 -0.209111,0.0267 -0.443605,0.0467 -0.767009,0.0656 -0.488358,0.0285 -1.247141,-0.007 -1.808452,-0.0852 -0.0737,-0.0102 -0.138994,-0.0166 -0.145093,-0.014 -0.0061,0.003 -0.161158,0.21826 -0.344573,0.47945 l -0.333482,0.47487 h -1.19031 c -0.943064,0 -1.19129,-0.003 -1.195024,-0.0125 z m 2.403194,-1.09027 c 0.186398,-0.26531 0.347972,-0.49305 0.359052,-0.50608 l 0.02015,-0.0237 0.210002,0.0351 c 0.551081,0.0921 1.028441,0.13091 1.605898,0.13051 0.594675,-4.1e-4 1.047097,-0.0413 1.658508,-0.1499 0.115899,-0.0206 0.199745,-0.0312 0.205058,-0.0258 0.0049,0.005 0.04251,0.23135 0.08347,0.50312 0.04097,0.27178 0.07656,0.4998 0.07909,0.50672 0.0037,0.01 0.155291,0.012 0.731922,0.01 l 0.727321,-0.003 0.502813,-1.04067 0.502813,-1.04067 0.175059,-0.12008 c 1.046191,-0.7176 1.773323,-1.58617 2.178007,-2.60167 0.326118,-0.81834 0.407667,-1.71012 0.235164,-2.57165 -0.243201,-1.21461 -1.010309,-2.35431 -2.160291,-3.20957 -1.903149,-1.4154 -4.615568,-1.90265 -7.112391,-1.27762 -0.08643,0.0216 -0.165765,0.0393 -0.176293,0.0393 -0.01127,0 -0.0804,-0.0608 -0.168058,-0.14783 -0.370778,-0.36807 -0.779266,-0.62533 -1.239616,-0.78071 -0.217885,-0.0736 -0.515494,-0.13922 -0.655421,-0.14464 l -0.06504,-0.003 -0.005,1.00731 c -0.0028,0.55402 -0.0073,1.00929 -0.01001,1.0117 -0.0028,0.002 -0.05454,0.0374 -0.115073,0.0777 -0.425694,0.28336 -0.851587,0.65043 -1.225696,1.0564 -0.238644,0.25898 -0.432348,0.45509 -0.535436,0.54209 -0.591697,0.49937 -1.323545,0.8083 -2.126465,0.89763 -0.07975,0.009 -0.150622,0.018 -0.157502,0.0203 -0.0099,0.003 -0.01251,0.17502 -0.01251,0.81365 v 0.80944 l 0.08067,0.18902 c 0.625723,1.46614 1.635747,2.75865 2.911254,3.72547 0.492959,0.37366 0.934473,0.64605 1.561003,0.96307 l 0.145093,0.0734 0.0025,0.84554 c 0.0014,0.46505 0.0046,0.85118 0.0072,0.85805 0.0037,0.01 0.15781,0.0125 0.724297,0.0125 h 0.719588 z m 1.884899,-3.89406 c 0,-0.17531 -0.0031,-0.23655 -0.01251,-0.24396 -0.0069,-0.005 -0.04279,-0.0129 -0.07981,-0.0165 -0.207466,-0.0203 -0.454708,-0.13869 -0.616052,-0.29488 -0.192619,-0.18646 -0.322103,-0.46121 -0.325893,-0.69149 l -0.0014,-0.0854 h 0.304526 0.304527 l 0.01186,0.0704 c 0.03126,0.18552 0.166054,0.33166 0.350129,0.3796 0.08456,0.022 0.650652,0.022 0.744196,-1.1e-4 0.235115,-0.0554 0.393275,-0.29099 0.353012,-0.52579 -0.01656,-0.0965 -0.05313,-0.16908 -0.122804,-0.24356 -0.05856,-0.0626 -0.136962,-0.11241 -0.214332,-0.13615 -0.02681,-0.008 -0.172139,-0.0147 -0.440283,-0.0196 -0.391154,-0.007 -0.402374,-0.008 -0.493381,-0.0337 -0.185825,-0.0526 -0.33064,-0.1362 -0.471868,-0.27234 -0.148755,-0.1434 -0.244874,-0.30539 -0.298185,-0.50253 -0.02365,-0.0874 -0.02626,-0.11457 -0.02626,-0.27224 0,-0.15766 0.0026,-0.18479 0.02626,-0.27223 0.114363,-0.42289 0.470886,-0.7413 0.895743,-0.79995 0.04813,-0.007 0.09306,-0.0163 0.09984,-0.0214 0.009,-0.007 0.01305,-0.0718 0.01501,-0.24086 l 0.0027,-0.23158 h 0.305196 0.305195 l 0.005,0.23988 0.005,0.23987 0.08505,0.0116 c 0.04678,0.006 0.113032,0.0189 0.147225,0.028 0.21724,0.0574 0.443723,0.21068 0.584116,0.39538 0.06221,0.0818 0.151956,0.26233 0.178052,0.35809 0.023,0.0844 0.04622,0.25579 0.03767,0.27807 -0.0052,0.0136 -0.04306,0.0152 -0.308174,0.0128 l -0.302234,-0.003 -0.01611,-0.0756 c -0.03782,-0.17753 -0.142746,-0.30047 -0.309469,-0.36262 -0.05154,-0.0192 -0.08165,-0.0212 -0.370303,-0.0247 -0.349488,-0.004 -0.411854,0.002 -0.508563,0.0486 -0.0966,0.0468 -0.165419,0.11616 -0.215422,0.21708 l -0.0425,0.0858 v 0.11583 c 0,0.11268 9.87e-4,0.11787 0.03629,0.19088 0.06046,0.12503 0.148079,0.20568 0.273908,0.25211 0.05693,0.021 0.08052,0.0225 0.455292,0.0285 0.384409,0.006 0.397939,0.007 0.49309,0.0325 0.314181,0.084 0.571649,0.2956 0.708734,0.58252 0.08909,0.18647 0.12272,0.37816 0.100852,0.57483 -0.028,0.25179 -0.121827,0.4565 -0.290012,0.63272 -0.17054,0.17868 -0.371007,0.28696 -0.600811,0.3245 -0.05316,0.009 -0.106701,0.0177 -0.118983,0.02 -0.02227,0.004 -0.02234,0.005 -0.02502,0.24173 l -0.0027,0.23751 -0.307698,0.003 -0.307698,0.003 z m -4.502892,-3.21397 c -0.383918,-0.0824 -0.686108,-0.36565 -0.785315,-0.73615 -0.03223,-0.12035 -0.04406,-0.24721 -0.02422,-0.25977 0.02325,-0.0147 0.585001,-0.0116 0.597047,0.003 0.0056,0.007 0.01315,0.0328 0.01688,0.0575 0.01027,0.0682 0.06135,0.16498 0.115822,0.21945 0.228682,0.22868 0.617037,0.10654 0.68244,-0.21464 0.0067,-0.0329 0.01682,-0.0632 0.02247,-0.0672 0.01232,-0.009 0.567131,-0.0103 0.589838,-0.002 0.02019,0.008 0.02051,0.0546 0.0011,0.16522 -0.07271,0.41519 -0.391285,0.74599 -0.799566,0.83025 -0.110103,0.0227 -0.318921,0.0245 -0.416537,0.004 z m 4.588942,-5.79326 c -0.625345,-0.1021 -1.10937,-0.56621 -1.233754,-1.18298 -0.02479,-0.12295 -0.02479,-0.42281 0,-0.54575 0.05965,-0.29577 0.192969,-0.54423 0.406858,-0.75822 0.275344,-0.27547 0.606493,-0.42151 0.991006,-0.43705 0.585509,-0.0237 1.132069,0.30067 1.386463,0.82273 0.109897,0.22552 0.147693,0.39069 0.147693,0.64541 0,0.25472 -0.0378,0.41989 -0.147693,0.64542 -0.07145,0.14662 -0.159386,0.26884 -0.280772,0.39023 -0.207343,0.20734 -0.456337,0.34246 -0.748518,0.4062 -0.124156,0.0271 -0.396366,0.0344 -0.521283,0.014 z m 0.422455,-0.62541 c 0.165581,-0.0397 0.3034,-0.12096 0.428541,-0.2527 0.151555,-0.15955 0.226516,-0.34808 0.227728,-0.57274 7.6e-4,-0.14165 -0.01778,-0.22966 -0.07404,-0.35142 -0.0523,-0.11319 -0.105032,-0.18711 -0.193258,-0.27089 -0.09325,-0.0886 -0.202215,-0.15368 -0.327114,-0.1955 -0.09067,-0.0304 -0.102459,-0.0319 -0.255164,-0.0323 -0.13737,-3.9e-4 -0.171164,0.003 -0.238007,0.0221 -0.291231,0.0844 -0.52469,0.32128 -0.604023,0.61283 -0.02492,0.0916 -0.02483,0.32922 1.51e-4,0.42027 0.08605,0.31358 0.34005,0.55573 0.656763,0.62612 0.09089,0.0202 0.282167,0.0173 0.378422,-0.006 z"
       style="fill:#fe8139;stroke-width:0.01000643" />
  </g>
</svg>
