<?xml version="1.0" encoding="UTF-8" standalone="no"?>
<svg
   xmlns:dc="http://purl.org/dc/elements/1.1/"
   xmlns:cc="http://creativecommons.org/ns#"
   xmlns:rdf="http://www.w3.org/1999/02/22-rdf-syntax-ns#"
   xmlns:svg="http://www.w3.org/2000/svg"
   xmlns="http://www.w3.org/2000/svg"
   id="svg8"
   version="1.1"
   viewBox="0 0 15.878846 15.876267"
   height="15.876267mm"
   width="15.878846mm">
  <defs
     id="defs2" />
  <metadata
     id="metadata5">
    <rdf:RDF>
      <cc:Work
         rdf:about="">
        <dc:format>image/svg+xml</dc:format>
        <dc:type
           rdf:resource="http://purl.org/dc/dcmitype/StillImage" />
        <dc:title></dc:title>
      </cc:Work>
    </rdf:RDF>
  </metadata>
  <g
     transform="translate(1185.9398,-680.39539)"
     id="layer1">
    <path
       id="path852"
       d="m -1180.6456,696.26615 c 0,-0.003 -0.01,-0.11715 -0.01,-0.25342 0,-0.18135 0,-0.25048 0.01,-0.25795 0.01,-0.008 0.6049,-0.0102 2.6355,-0.0102 1.4439,0 2.6314,0.002 2.6388,0.005 0.012,0.005 0.013,0.0358 0.013,0.26362 v 0.25846 h -2.6433 c -1.4538,0 -2.6458,-0.003 -2.6489,-0.006 z m -3.8665,-0.79841 c -0.1638,-0.0352 -0.3318,-0.13681 -0.4383,-0.26515 -0.2032,-0.24496 -0.25,-0.56226 -0.123,-0.83327 0.044,-0.093 0.093,-0.16209 0.1713,-0.23685 0.2802,-0.26921 0.6663,-0.31226 0.9742,-0.10859 0.1157,0.0766 0.2426,0.22689 0.2919,0.34584 0.013,0.0323 0.026,0.0502 0.038,0.053 0.01,0.002 0.8115,0.003 1.7821,0.002 l 1.7645,-0.002 0.042,-0.0194 c 0.067,-0.0311 0.095,-0.0574 0.1254,-0.11864 l 0.028,-0.0571 v -0.29784 -0.29785 h 0.2594 0.2593 v 0.28914 c 0,0.31214 0,0.3796 -0.038,0.49302 -0.087,0.27661 -0.319,0.47637 -0.6123,0.52751 -0.063,0.011 -0.3129,0.0127 -1.8536,0.0127 h -1.7808 l -0.025,0.0556 c -0.059,0.13195 -0.1742,0.26822 -0.289,0.34259 -0.068,0.0439 -0.2029,0.0976 -0.2909,0.11565 -0.08,0.0163 -0.2203,0.0165 -0.2959,2.3e-4 z m 0.2853,-0.54363 c 0.084,-0.0409 0.1331,-0.12543 0.1338,-0.22847 7e-4,-0.11259 -0.045,-0.19536 -0.133,-0.24187 -0.039,-0.0206 -0.053,-0.023 -0.1288,-0.023 -0.076,0 -0.09,0.002 -0.1287,0.023 -0.088,0.0467 -0.1325,0.12683 -0.1321,0.2406 5e-4,0.12489 0.067,0.21623 0.1796,0.24831 0.059,0.0168 0.1542,0.008 0.2092,-0.0186 z m 12.4196,0.54442 c -0.2549,-0.0547 -0.444,-0.20603 -0.5534,-0.44287 l -0.033,-0.0717 -1.8136,-0.002 -1.8136,-0.002 -0.068,-0.0192 c -0.1433,-0.0405 -0.2691,-0.1146 -0.3662,-0.21581 -0.1101,-0.1148 -0.1655,-0.21793 -0.2049,-0.3815 -0.018,-0.0739 -0.027,-0.67373 -0.011,-0.69337 0.01,-0.0104 0.051,-0.0125 0.2584,-0.0125 0.1817,0 0.2509,0.003 0.2584,0.0102 0.01,0.008 0.01,0.0841 0.01,0.29184 0,0.32168 0,0.34178 0.061,0.40714 0.042,0.0475 0.08,0.0684 0.1475,0.0809 0.058,0.0107 3.5228,0.0134 3.5389,0.003 0.01,-0.003 0.023,-0.0354 0.039,-0.0711 0.13,-0.28244 0.3944,-0.4512 0.708,-0.45198 0.056,-1.3e-4 0.125,0.004 0.1531,0.0101 0.2578,0.0522 0.4563,0.2028 0.565,0.42862 0.05,0.10364 0.07,0.18678 0.075,0.31621 0.01,0.23038 -0.058,0.41707 -0.2048,0.57182 -0.1044,0.10998 -0.2216,0.17955 -0.3839,0.22798 -0.094,0.0282 -0.2705,0.0364 -0.3613,0.0169 z m 0.2778,-0.54004 c 0.094,-0.0417 0.1419,-0.12094 0.1427,-0.2384 3e-4,-0.0607 0,-0.0798 -0.022,-0.11905 -0.042,-0.0894 -0.1128,-0.13608 -0.2159,-0.1427 -0.1631,-0.0105 -0.2731,0.0824 -0.2831,0.23889 -0.01,0.13778 0.054,0.23284 0.1809,0.27514 0.047,0.0158 0.1455,0.009 0.197,-0.0139 z m -8.5735,-3.75053 c -1.1505,-2.08159 -2.1342,-3.86783 -2.186,-3.96943 -0.1079,-0.21153 -0.1706,-0.35985 -0.2419,-0.57165 -0.2069,-0.61485 -0.2813,-1.32384 -0.2083,-1.98572 0.1055,-0.95641 0.4797,-1.82499 1.1083,-2.57238 0.1178,-0.14016 0.4283,-0.44918 0.5668,-0.56428 0.3257,-0.27055 0.6213,-0.46186 0.9952,-0.64401 0.5515,-0.26867 1.1207,-0.42105 1.7433,-0.46669 0.1527,-0.0112 0.5014,-0.0112 0.6548,-6e-5 1.1483,0.0836 2.212,0.569 3.0273,1.38166 1.1037,1.10005 1.5953,2.62858 1.3428,4.17542 -0.07,0.42737 -0.1954,0.83261 -0.381,1.22882 -0.042,0.0904 -0.4873,0.89978 -1.1336,2.0622 -0.5852,1.05236 -1.5384,2.76675 -2.1183,3.80975 -0.5798,1.04301 -1.0595,1.89743 -1.0658,1.89872 -0.01,0.002 -0.7454,-1.32516 -2.1036,-3.78235 z m 3.9849,-0.70156 c 1.0255,-1.84748 1.8884,-3.4088 1.9175,-3.4696 0.2233,-0.4666 0.3655,-0.96838 0.4171,-1.47118 0.018,-0.17422 0.02,-0.55708 0,-0.72283 -0.054,-0.56492 -0.1825,-1.02664 -0.4217,-1.5137 -0.6302,-1.28333 -1.8653,-2.16592 -3.2787,-2.34296 -0.8057,-0.10092 -1.6213,0.0332 -2.3513,0.38659 -0.7471,0.36169 -1.3749,0.93493 -1.8026,1.64598 -0.3389,0.5635 -0.5412,1.20282 -0.5919,1.87067 -0.013,0.16798 -0.01,0.57619 0.013,0.73153 0.06,0.506 0.2121,1.01932 0.434,1.46192 0.037,0.0732 3.6662,6.61889 3.7529,6.76839 0.018,0.0302 0.023,0.0348 0.032,0.0255 0.01,-0.006 0.8499,-1.52284 1.8754,-3.37032 z m -2.1187,-1.88425 c -1.0298,-0.0699 -1.9707,-0.59622 -2.5717,-1.4386 -0.3339,-0.46798 -0.539,-1.00718 -0.6139,-1.61376 -0.021,-0.17386 -0.021,-0.59114 0,-0.76527 0.083,-0.67826 0.328,-1.26456 0.7423,-1.78051 0.7426,-0.92459 1.9235,-1.39862 3.1156,-1.25056 0.8586,0.10663 1.6526,0.54173 2.2105,1.21124 0.424,0.50886 0.6837,1.11133 0.7716,1.79007 0.02,0.15089 0.022,0.64317 0,0.79086 -0.1009,0.8293 -0.45,1.53866 -1.035,2.10366 -0.6958,0.67192 -1.6511,1.01888 -2.6235,0.95287 z m 0.6468,-0.55071 c 0.4967,-0.0751 0.9388,-0.25605 1.3231,-0.54147 0.7697,-0.57174 1.2025,-1.46484 1.1745,-2.42356 -0.016,-0.53392 -0.1611,-1.01953 -0.4384,-1.46382 -0.4861,-0.77883 -1.3064,-1.27813 -2.2275,-1.35578 -0.1503,-0.0127 -0.4677,-0.006 -0.611,0.0126 -0.3496,0.0457 -0.6552,0.14078 -0.9683,0.30143 -0.2062,0.10581 -0.3829,0.22403 -0.5612,0.37541 -0.098,0.0835 -0.2947,0.28702 -0.3802,0.39422 -0.5011,0.62764 -0.7183,1.43893 -0.6014,2.24621 0.1131,0.781 0.5391,1.4789 1.1857,1.9427 0.3748,0.26888 0.8184,0.44573 1.2798,0.51022 0.1772,0.0248 0.1672,0.0243 0.4507,0.0217 0.2088,-0.002 0.2818,-0.006 0.3742,-0.0198 z m -7.6748,5.31659 c -0.1932,-0.0395 -0.3074,-0.0957 -0.4283,-0.21085 -0.093,-0.0887 -0.153,-0.18548 -0.2033,-0.3281 -0.036,-0.10194 -0.048,-0.18584 -0.042,-0.29971 0.016,-0.32146 0.234,-0.59238 0.5657,-0.70353 0.2638,-0.0884 0.5578,-0.0179 0.7629,0.18276 0.076,0.0744 0.1207,0.13597 0.1698,0.23386 0.018,0.0351 0.036,0.0667 0.042,0.0702 0.01,0.004 0.3291,0.005 0.7196,0.004 0.6594,-0.002 0.7129,-0.003 0.7495,-0.0175 0.054,-0.0209 0.1056,-0.0672 0.1331,-0.11946 l 0.023,-0.0437 v -0.50173 c 0.01,-0.57804 0,-0.57031 0.088,-0.73984 0.078,-0.15939 0.19,-0.27095 0.349,-0.34897 0.1549,-0.0761 0.1483,-0.0753 0.6825,-0.0785 l 0.47,-0.003 v 0.2619 0.26189 l -0.4295,0.004 c -0.4583,0.005 -0.452,0.004 -0.5201,0.0488 -0.032,0.0212 -0.066,0.0642 -0.085,0.10843 -0.01,0.0195 -0.012,0.14142 -0.016,0.51448 0,0.42708 -0.01,0.49759 -0.02,0.55701 -0.033,0.14954 -0.098,0.27347 -0.1954,0.37623 -0.1052,0.11071 -0.2313,0.18528 -0.3805,0.22493 -0.071,0.0188 -0.077,0.019 -0.8196,0.0217 -0.4291,0.002 -0.7515,0.006 -0.7559,0.0104 0,0.004 -0.018,0.0325 -0.031,0.0629 -0.092,0.21784 -0.3066,0.39014 -0.5482,0.44001 -0.071,0.0146 -0.2315,0.0207 -0.2808,0.0106 z m 0.2334,-0.5479 c 0.059,-0.0255 0.1154,-0.0889 0.1334,-0.15064 0.03,-0.1032 0,-0.23354 -0.072,-0.29097 -0.1152,-0.095 -0.3194,-0.0732 -0.3958,0.0422 -0.087,0.13161 -0.047,0.32622 0.082,0.3923 0.073,0.0376 0.1751,0.0404 0.2527,0.007 z m 14.0192,0.5398 c -0.1439,-0.032 -0.276,-0.10483 -0.3835,-0.21153 -0.077,-0.0768 -0.1267,-0.1458 -0.1709,-0.23888 l -0.03,-0.0633 h -0.7208 c -0.7973,0 -0.8011,-2.3e-4 -0.9445,-0.0541 -0.1867,-0.0701 -0.327,-0.19668 -0.4162,-0.37536 -0.081,-0.16207 -0.079,-0.1489 -0.085,-0.72283 0,-0.45155 -0.01,-0.50568 -0.02,-0.54114 -0.021,-0.0561 -0.066,-0.10461 -0.1227,-0.13228 l -0.049,-0.0239 -0.4337,-0.004 -0.4337,-0.004 v -0.25937 -0.25937 l 0.472,2.3e-4 0.472,2.2e-4 0.075,0.0232 c 0.1816,0.0564 0.3322,0.16403 0.4314,0.30817 0.039,0.0565 0.089,0.16748 0.1114,0.24644 0.019,0.0663 0.019,0.0812 0.024,0.57401 v 0.50598 l 0.024,0.0485 c 0.027,0.056 0.059,0.0856 0.125,0.11655 l 0.047,0.022 h 0.7184 0.7183 l 0.043,-0.0853 c 0.053,-0.10551 0.081,-0.14642 0.1495,-0.21509 0.098,-0.0984 0.2312,-0.17287 0.3705,-0.20671 0.094,-0.0229 0.2565,-0.0248 0.3497,-0.004 0.2306,0.051 0.4255,0.19853 0.5261,0.3984 0.077,0.15363 0.1,0.25311 0.095,0.41734 0,0.10864 -0.01,0.12894 -0.031,0.20159 -0.09,0.26285 -0.2992,0.45375 -0.5836,0.5319 -0.073,0.0202 -0.2554,0.0242 -0.3316,0.007 z m 0.2794,-0.54181 c 0.059,-0.027 0.1029,-0.0735 0.1251,-0.13243 0.024,-0.0631 0.02,-0.1743 -0.01,-0.22737 -0.046,-0.0885 -0.1133,-0.13171 -0.2149,-0.1376 -0.089,-0.005 -0.1468,0.0125 -0.2016,0.0618 -0.06,0.0544 -0.082,0.10769 -0.082,0.20014 4e-4,0.0777 0.012,0.1174 0.051,0.16782 0.069,0.0898 0.2153,0.11996 0.3295,0.0677 z m -14.0345,-1.57436 c -0.3572,-0.0757 -0.6257,-0.39166 -0.6435,-0.75736 -0.015,-0.3035 0.1574,-0.58253 0.4517,-0.7321 l 0.069,-0.0348 v -0.61577 c 0.01,-0.66733 0,-0.65337 0.055,-0.78675 0.094,-0.24891 0.3046,-0.42721 0.5742,-0.48529 0.067,-0.0144 0.1262,-0.0155 0.7779,-0.0155 h 0.7059 v 0.26362 0.26362 l -0.7016,0.004 -0.7016,0.004 -0.042,0.0226 c -0.05,0.0267 -0.08,0.057 -0.1075,0.10922 l -0.02,0.0383 v 0.60057 0.60058 l 0.047,0.0191 c 0.1418,0.0575 0.3039,0.20451 0.3729,0.33817 0.09,0.1735 0.1223,0.3396 0.097,0.49333 -0.025,0.15204 -0.073,0.26186 -0.1672,0.37831 -0.1064,0.13222 -0.2666,0.23362 -0.447,0.28308 -0.07,0.0191 -0.247,0.0239 -0.3189,0.009 z m 0.2799,-0.5509 c 0.089,-0.0456 0.1281,-0.11605 0.1282,-0.23258 0,-0.1515 -0.09,-0.24796 -0.2388,-0.25691 -0.124,-0.007 -0.2201,0.0454 -0.2629,0.14459 -0.023,0.0529 -0.027,0.14297 -0.01,0.20222 0.045,0.1544 0.2277,0.2223 0.3835,0.14268 z m 12.9763,0.55444 c -0.2437,-0.0411 -0.4606,-0.20634 -0.576,-0.43869 -0.061,-0.12185 -0.079,-0.19598 -0.083,-0.33071 0,-0.107 0,-0.12747 0.018,-0.20213 0.048,-0.18729 0.1664,-0.35369 0.3285,-0.46292 0.021,-0.0142 0.07,-0.0417 0.1087,-0.0612 l 0.071,-0.0354 v -0.45682 c 0,-0.45625 0,-0.45687 -0.022,-0.49934 -0.025,-0.0538 -0.062,-0.0931 -0.1165,-0.12194 l -0.043,-0.0226 -0.7016,-0.004 -0.7015,-0.004 v -0.25937 -0.25936 l 0.71,-0.002 c 0.6236,-0.002 0.7184,-6.6e-4 0.7781,0.0113 0.3073,0.0615 0.5447,0.29991 0.609,0.61162 0.014,0.0693 0.016,0.12162 0.016,0.54193 l 10e-5,0.46522 0.086,0.0443 c 0.085,0.0436 0.1811,0.11351 0.2341,0.17006 0.084,0.09 0.1628,0.24886 0.1944,0.39328 0.023,0.10555 0.014,0.2653 -0.02,0.37105 -0.043,0.12974 -0.094,0.21138 -0.1969,0.31464 -0.096,0.0964 -0.1654,0.1418 -0.2927,0.19252 -0.123,0.049 -0.2739,0.0662 -0.3976,0.0454 z m 0.2456,-0.54395 c 0.053,-0.0236 0.099,-0.0688 0.1229,-0.12249 0.016,-0.0348 0.02,-0.0586 0.02,-0.11997 10e-5,-0.0668 0,-0.0827 -0.024,-0.12526 -0.043,-0.0869 -0.1256,-0.13411 -0.2354,-0.13411 -0.1099,0 -0.1928,0.0472 -0.2355,0.13411 -0.021,0.0425 -0.024,0.0585 -0.024,0.12526 0,0.0618 0,0.0847 0.02,0.11905 0.033,0.0725 0.091,0.12036 0.1695,0.1401 0.048,0.0121 0.1405,0.004 0.1869,-0.0167 z m 0.2575,-3.16716 c -0.1916,-0.0401 -0.3862,-0.17303 -0.4961,-0.33919 -0.045,-0.068 -0.094,-0.1758 -0.1176,-0.25689 -0.028,-0.0973 -0.028,-0.28436 -4e-4,-0.38072 0.065,-0.22574 0.2116,-0.40053 0.4297,-0.51141 l 0.07,-0.0354 v -0.32276 c 0,-0.29708 0,-0.32611 -0.016,-0.36479 -0.022,-0.0557 -0.072,-0.10874 -0.1264,-0.13347 l -0.044,-0.0201 -0.6973,-0.004 -0.6973,-0.004 v -0.25937 -0.25937 l 0.7043,-0.002 c 0.6606,-0.002 0.7092,-10e-4 0.7825,0.0138 0.2596,0.053 0.474,0.22884 0.572,0.469 0.048,0.11861 0.054,0.17643 0.054,0.53986 2e-4,0.18241 0,0.33599 0.01,0.34129 0,0.005 0.032,0.021 0.062,0.0349 0.1621,0.0733 0.2887,0.19726 0.3713,0.3636 0.071,0.14264 0.092,0.23797 0.085,0.38617 0,0.0625 -0.011,0.12033 -0.022,0.15808 -0.023,0.0785 -0.077,0.19039 -0.1233,0.25451 -0.042,0.059 -0.1519,0.16666 -0.2121,0.20809 -0.054,0.0374 -0.1846,0.0982 -0.2479,0.11572 -0.069,0.0192 -0.2624,0.0244 -0.3359,0.009 z m 0.2762,-0.54144 c 0.057,-0.0266 0.102,-0.0756 0.124,-0.13379 0.015,-0.0393 0.017,-0.0617 0.015,-0.12109 0,-0.0618 -0.01,-0.0798 -0.029,-0.11906 -0.05,-0.0885 -0.139,-0.13259 -0.2532,-0.1251 -0.1016,0.007 -0.1788,0.0585 -0.2189,0.14692 -0.026,0.0584 -0.027,0.16948 0,0.22579 0.048,0.10484 0.1356,0.15564 0.2584,0.1493 0.044,-0.002 0.077,-0.01 0.1059,-0.023 z m -14.533,0.28448 c -0.14,-0.0286 -0.2204,-0.0591 -0.3118,-0.11819 -0.1625,-0.1051 -0.2709,-0.25618 -0.3355,-0.46743 -0.021,-0.0689 -0.023,-0.0896 -0.024,-0.2083 -5e-4,-0.14232 0.01,-0.19949 0.053,-0.30189 0.077,-0.18077 0.1958,-0.3055 0.3727,-0.39262 l 0.095,-0.0468 v -0.3543 c 0,-0.33033 0,-0.35907 0.022,-0.42503 0.072,-0.2748 0.2642,-0.47325 0.5433,-0.56056 l 0.075,-0.0234 0.7356,-10e-5 0.7356,-9e-5 v 0.25937 0.25937 l -0.6973,0.004 -0.6973,0.004 -0.049,0.0239 c -0.056,0.0277 -0.1014,0.0762 -0.1227,0.13229 -0.013,0.0344 -0.015,0.0796 -0.018,0.35532 0,0.25364 -9e-4,0.31774 0.01,0.32514 0.01,0.005 0.048,0.0275 0.092,0.0499 0.1373,0.069 0.2257,0.14779 0.3074,0.27424 0.1319,0.20404 0.1576,0.48532 0.066,0.72284 -0.098,0.25494 -0.3285,0.43963 -0.6032,0.48414 -0.053,0.009 -0.2152,0.0109 -0.2509,0.004 z m 0.2334,-0.54791 c 0.058,-0.025 0.1123,-0.0859 0.132,-0.1485 0.032,-0.10233 4e-4,-0.2347 -0.07,-0.2931 -0.1157,-0.0954 -0.3191,-0.0737 -0.3958,0.0422 -0.084,0.12746 -0.051,0.31009 0.071,0.3853 0.071,0.0436 0.1812,0.0495 0.2636,0.0141 z m 0.3358,-2.891 c -0.1837,-0.0151 -0.339,-0.0846 -0.4744,-0.21211 -0.1027,-0.0968 -0.1768,-0.22186 -0.2193,-0.37014 -0.019,-0.0677 -0.02,-0.0708 -0.022,-0.6902 0,-0.47335 -0.01,-0.62406 -0.013,-0.63007 -0.01,-0.004 -0.027,-0.0146 -0.048,-0.0227 -0.1959,-0.0759 -0.3648,-0.27567 -0.4392,-0.51935 -0.021,-0.0702 -0.023,-0.0882 -0.024,-0.21685 0,-0.13136 0,-0.14492 0.024,-0.2126 0.074,-0.2238 0.2118,-0.37603 0.4347,-0.48164 0.1243,-0.0589 0.1912,-0.0738 0.3315,-0.0738 0.1418,0 0.213,0.0161 0.3316,0.0748 0.155,0.0767 0.2869,0.20921 0.3708,0.37262 0.1376,0.26769 0.1093,0.58509 -0.073,0.8223 -0.075,0.098 -0.1605,0.16519 -0.2825,0.22322 -0.041,0.0195 -0.077,0.0394 -0.081,0.0443 -0.01,0.0149 -0.01,1.1116 0,1.16286 0.017,0.0839 0.064,0.14388 0.1394,0.17854 l 0.043,0.0196 0.6973,0.004 0.6973,0.004 v 0.25879 c 0,0.20137 0,0.2603 -0.01,0.26561 -0.014,0.009 -1.2837,0.007 -1.389,-0.002 z m -0.3628,-2.3938 c 0.1005,-0.0298 0.1627,-0.11319 0.1701,-0.22778 0.01,-0.0865 -0.012,-0.14472 -0.061,-0.19933 -0.055,-0.0607 -0.1081,-0.0828 -0.2002,-0.0824 -0.085,2.9e-4 -0.1381,0.0199 -0.1887,0.0692 -0.1086,0.1058 -0.094,0.31806 0.029,0.40556 0.066,0.0469 0.1648,0.0606 0.2518,0.0348 z m 12.3645,2.39339 c -0.014,-0.008 -0.015,-0.0295 -0.015,-0.25807 0,-0.19666 0,-0.25138 0.011,-0.25875 0.01,-0.007 0.216,-0.01 0.7037,-0.0117 l 0.6924,-0.002 0.041,-0.0203 c 0.052,-0.0258 0.09,-0.0638 0.1166,-0.11662 l 0.021,-0.0416 v -0.59037 c 0,-0.37124 -7e-4,-0.59342 -0.01,-0.59858 0,-0.005 -0.033,-0.0187 -0.063,-0.0315 -0.086,-0.0361 -0.1669,-0.0949 -0.2447,-0.17692 -0.1516,-0.15991 -0.2202,-0.34967 -0.2089,-0.57807 0.01,-0.11885 0.028,-0.20948 0.074,-0.30581 0.043,-0.0889 0.075,-0.13696 0.1401,-0.20499 0.092,-0.0971 0.2103,-0.16797 0.3509,-0.21097 0.069,-0.021 0.087,-0.0229 0.2236,-0.0231 0.1382,-2e-4 0.1542,10e-4 0.2236,0.0229 0.2234,0.0689 0.3937,0.21498 0.4866,0.41733 0.06,0.12945 0.075,0.19338 0.079,0.33268 0,0.10891 0,0.1386 -0.014,0.20305 -0.057,0.23902 -0.2228,0.43597 -0.4461,0.52952 -0.029,0.012 -0.054,0.0237 -0.056,0.0259 0,0.002 -0.01,0.28788 -0.01,0.63477 0,0.62518 0,0.63127 -0.024,0.69392 -0.1024,0.33501 -0.3583,0.54155 -0.7068,0.57044 -0.1353,0.0112 -1.3523,0.0105 -1.3717,-7.8e-4 z m 1.9306,-2.39339 c 0.059,-0.0176 0.1097,-0.0585 0.1409,-0.11383 0.021,-0.0382 0.026,-0.0579 0.03,-0.11625 0.01,-0.14353 -0.053,-0.23464 -0.1819,-0.27199 -0.131,-0.0381 -0.2671,0.0214 -0.3213,0.14044 -0.026,0.0568 -0.025,0.16697 0,0.22816 0.025,0.0563 0.09,0.11653 0.144,0.13311 0.053,0.0162 0.1326,0.0163 0.1863,3.6e-4 z"
       style="fill:#ffffff;stroke-width:0.00850392;fill-opacity:1" />
  </g>
</svg>
