<?xml version="1.0" encoding="UTF-8" standalone="no"?>
<svg
   xmlns:dc="http://purl.org/dc/elements/1.1/"
   xmlns:cc="http://creativecommons.org/ns#"
   xmlns:rdf="http://www.w3.org/1999/02/22-rdf-syntax-ns#"
   xmlns:svg="http://www.w3.org/2000/svg"
   xmlns="http://www.w3.org/2000/svg"
   id="svg8"
   version="1.1"
   viewBox="0 0 18.521465 18.521564"
   height="18.521564mm"
   width="18.521465mm">
  <defs
     id="defs2" />
  <metadata
     id="metadata5">
    <rdf:RDF>
      <cc:Work
         rdf:about="">
        <dc:format>image/svg+xml</dc:format>
        <dc:type
           rdf:resource="http://purl.org/dc/dcmitype/StillImage" />
        <dc:title></dc:title>
      </cc:Work>
    </rdf:RDF>
  </metadata>
  <g
     transform="translate(68.917542,-399.17862)"
     id="layer1">
    <path
       id="path839"
       d="m -67.447903,417.68745 c -0.190153,-0.0308 -0.332218,-0.0768 -0.511162,-0.1653 -0.183547,-0.0908 -0.301547,-0.17613 -0.452793,-0.32737 -0.15105,-0.15105 -0.236364,-0.26898 -0.327575,-0.4528 -0.07388,-0.14889 -0.115631,-0.26835 -0.151697,-0.43405 -0.01969,-0.0905 -0.02253,-0.13232 -0.02284,-0.33712 -3.38e-4,-0.20838 0.0022,-0.24569 0.02292,-0.34266 0.09875,-0.4615 0.355553,-0.84529 0.737193,-1.10175 0.577164,-0.38786 1.332487,-0.39337 1.916256,-0.014 0.810348,0.52663 1.033529,1.62166 0.494117,2.42435 -0.255253,0.37984 -0.638607,0.63726 -1.096134,0.73604 -0.133264,0.0288 -0.470992,0.0369 -0.608289,0.0146 z m 0.455195,-0.57777 c 0.372338,-0.0649 0.679195,-0.29559 0.84488,-0.63509 0.192674,-0.3948 0.145719,-0.86746 -0.120233,-1.21028 -0.04735,-0.061 -0.167279,-0.1797 -0.228254,-0.22584 -0.111647,-0.0845 -0.285489,-0.1644 -0.431129,-0.19818 -0.102294,-0.0237 -0.251344,-0.033 -0.363109,-0.0226 -0.457116,0.0424 -0.846679,0.34992 -0.991713,0.78282 -0.204963,0.61177 0.127167,1.26871 0.743388,1.47038 0.161929,0.053 0.3772,0.0683 0.54617,0.0388 z m -0.47919,-0.86273 c -0.0027,-0.007 -0.0037,-0.13581 -0.0022,-0.28624 l 0.0027,-0.2735 0.286235,-0.003 0.286235,-0.003 -0.0026,0.28624 -0.0026,0.28623 -0.28136,0.003 c -0.221334,0.002 -0.282402,-1.1e-4 -0.286246,-0.0101 z m 15.080669,1.44054 c -0.48609,-0.0803 -0.904962,-0.34778 -1.175739,-0.75072 -0.384962,-0.57286 -0.393219,-1.32606 -0.0209,-1.9063 0.231716,-0.36112 0.609947,-0.63675 1.017524,-0.7415 0.899795,-0.23126 1.812484,0.26591 2.099284,1.14355 0.06234,0.19078 0.07497,0.28194 0.07458,0.53829 -3.99e-4,0.25631 -0.01082,0.33048 -0.07536,0.53613 -0.04021,0.12813 -0.152837,0.35254 -0.235312,0.46888 -0.08598,0.12128 -0.289107,0.32441 -0.410387,0.41039 -0.182849,0.12963 -0.428264,0.23576 -0.662775,0.28662 -0.128525,0.0279 -0.479895,0.0363 -0.610912,0.0147 z m 0.452981,-0.57705 c 0.489567,-0.0794 0.875919,-0.46576 0.955324,-0.95532 0.08207,-0.50601 -0.173914,-0.99893 -0.635848,-1.22437 -0.288024,-0.14057 -0.606901,-0.15629 -0.912391,-0.045 -0.08656,0.0315 -0.213102,0.0998 -0.282969,0.1527 -0.06097,0.0461 -0.180907,0.1648 -0.228255,0.22584 -0.265951,0.34282 -0.312907,0.81548 -0.120232,1.21028 0.16394,0.33592 0.470516,0.56832 0.837036,0.63451 0.104052,0.0188 0.276094,0.0194 0.387335,10e-4 z m -0.466096,-0.85755 c -0.0037,-0.004 -0.0068,-0.13372 -0.0068,-0.28887 v -0.28209 l 0.286082,0.003 0.286082,0.003 v 0.2836 0.28359 l -0.279296,0.003 c -0.153613,10e-4 -0.28235,-4.2e-4 -0.286082,-0.004 z M -63.99763,414.2137 c -0.0079,-0.0206 -0.0079,-3.42073 0,-3.44131 0.0055,-0.0143 0.397387,-0.0157 4.342406,-0.0157 3.94502,0 4.336912,0.001 4.342407,0.0157 0.0079,0.0206 0.0079,3.42073 0,3.44131 -0.0055,0.0143 -0.397387,0.0157 -4.342407,0.0157 -3.945019,0 -4.336911,-10e-4 -4.342406,-0.0157 z m 8.098787,-1.72066 v -1.15428 h -3.756381 -3.756381 l -0.0026,1.14433 c -0.0014,0.62938 -4.29e-4,1.14993 0.0022,1.15678 0.0038,0.01 0.760801,0.012 3.758943,0.01 l 3.754201,-0.002 z m -5.197239,0.28161 c -0.0087,-0.009 -0.01194,-0.0851 -0.01194,-0.28161 0,-0.19647 0.0032,-0.2729 0.01194,-0.2816 0.01702,-0.017 0.546187,-0.017 0.563209,0 0.01702,0.017 0.01702,0.54619 0,0.56321 -0.0087,0.009 -0.08513,0.0119 -0.281605,0.0119 -0.19647,0 -0.272904,-0.003 -0.281604,-0.0119 z m 1.164727,0.005 c -0.0095,-0.004 -0.01244,-0.0707 -0.01244,-0.28672 0,-0.2477 0.0019,-0.28243 0.01574,-0.28774 0.0087,-0.003 0.13143,-0.006 0.272829,-0.006 0.1414,0 0.264173,0.003 0.27283,0.006 0.01384,0.005 0.01574,0.04 0.01574,0.2875 0,0.24748 -0.0019,0.2822 -0.01574,0.28751 -0.01877,0.007 -0.531022,0.007 -0.548961,-5.5e-4 z m 1.153781,-0.005 c -0.0087,-0.009 -0.01194,-0.0851 -0.01194,-0.28161 0,-0.19647 0.0032,-0.2729 0.01194,-0.2816 0.01702,-0.017 0.546187,-0.017 0.563209,0 0.01702,0.017 0.01702,0.54619 0,0.56321 -0.0087,0.009 -0.08513,0.0119 -0.281605,0.0119 -0.19647,0 -0.272904,-0.003 -0.281604,-0.0119 z m -8.692097,0.87117 c -0.0037,-0.004 -0.0068,-0.14875 -0.0068,-0.32225 0,-0.35178 0.0086,-0.43287 0.06046,-0.56725 0.05412,-0.14035 0.161853,-0.28369 0.280852,-0.37368 0.07824,-0.0592 0.217755,-0.12686 0.320404,-0.15546 l 0.07961,-0.0222 1.054772,-0.003 c 0.580124,-0.002 1.064847,-6.7e-4 1.077161,0.002 l 0.02239,0.006 v 0.28341 c 0,0.15587 -0.0011,0.28444 -0.0025,0.28571 -0.0014,10e-4 -0.477135,0.005 -1.057259,0.007 l -1.054772,0.005 -0.0398,0.0215 c -0.0549,0.0297 -0.109103,0.0884 -0.136331,0.14762 -0.02197,0.0478 -0.02308,0.0625 -0.02786,0.36817 l -0.005,0.31842 -0.279296,0.003 c -0.153613,10e-4 -0.28235,-4.1e-4 -0.286082,-0.004 z m 15.063567,-0.006 c -0.0024,-0.007 -0.0057,-0.1514 -0.0072,-0.32106 -0.0027,-0.29776 -0.0036,-0.3102 -0.02567,-0.35822 -0.02723,-0.0592 -0.08143,-0.1179 -0.13633,-0.14762 l -0.0398,-0.0215 -1.054772,-0.005 c -0.580124,-0.003 -1.055891,-0.006 -1.057259,-0.007 -0.0014,-0.001 -0.0025,-0.12984 -0.0025,-0.28572 v -0.2834 l 0.02239,-0.006 c 0.01231,-0.003 0.497036,-0.004 1.077161,-0.002 l 1.054772,0.003 0.07961,0.0222 c 0.343405,0.0957 0.58882,0.3597 0.646838,0.6959 0.0119,0.0689 0.0146,0.15654 0.01254,0.40607 l -0.0026,0.31817 -0.281359,0.003 c -0.219882,0.002 -0.282325,-1.1e-4 -0.285779,-0.01 z m -16.508604,-3.47294 c -0.0026,-0.007 -0.0036,-0.78933 -0.0022,-1.73888 l 0.0026,-1.72644 1.711517,-0.003 c 0.941334,-0.002 1.721562,-3e-4 1.73384,0.003 l 0.02232,0.005 0.0026,0.71877 0.0026,0.71876 1.004461,0.003 c 0.788412,0.002 1.006153,0.005 1.012329,0.0149 0.0043,0.007 0.0079,0.13105 0.0079,0.27608 0,0.14503 -0.0035,0.26927 -0.0079,0.27609 -0.0062,0.01 -0.223917,0.0129 -1.012329,0.0149 l -1.004461,0.003 -0.0026,0.7159 c -0.002,0.55756 -0.0053,0.71764 -0.01492,0.72376 -0.0068,0.004 -0.786054,0.008 -1.731664,0.008 -1.366391,1.1e-4 -1.720263,-0.002 -1.724022,-0.0123 z m 2.88501,-0.59039 c 0.0079,-0.0206 0.0079,-2.2565 0,-2.27708 -0.0055,-0.0142 -0.116853,-0.0157 -1.159254,-0.0157 h -1.153214 v 1.15428 1.15428 h 1.153214 c 1.042401,0 1.153795,-0.002 1.159254,-0.0157 z m -1.44226,-0.86255 c -0.0027,-0.007 -0.0036,-0.13565 -0.0022,-0.28608 l 0.0027,-0.2735 0.286082,-0.003 0.286082,-0.003 v 0.28872 0.28872 h -0.283907 c -0.219646,0 -0.284999,-0.003 -0.288734,-0.0126 z m 3.480229,1.45344 c -0.01716,-0.0172 -0.01716,-0.83461 0,-0.85178 0.01702,-0.017 0.546187,-0.017 0.563208,0 0.0081,0.008 0.01194,0.0546 0.01194,0.14429 v 0.13234 h 3.761356 3.761357 v -0.13234 c 0,-0.0897 0.0038,-0.1362 0.01194,-0.14429 0.0087,-0.009 0.08513,-0.0119 0.281604,-0.0119 0.19647,0 0.272904,0.003 0.281604,0.0119 0.01716,0.0172 0.01716,0.83462 0,0.85178 -0.01741,0.0174 -8.655605,0.0174 -8.673011,0 z m 10.140305,0.004 c -0.0096,-0.006 -0.01294,-0.16623 -0.01493,-0.72378 l -0.0026,-0.7159 -1.004462,-0.003 c -0.788411,-0.002 -1.006153,-0.005 -1.012328,-0.0149 -0.0043,-0.007 -0.0079,-0.13106 -0.0079,-0.27609 0,-0.14503 0.0035,-0.26927 0.0079,-0.27608 0.0062,-0.01 0.223917,-0.0129 1.012328,-0.0149 l 1.004462,-0.003 0.0026,-0.71876 0.0026,-0.71877 0.02232,-0.005 c 0.01228,-0.003 0.792506,-0.004 1.73384,-0.003 l 1.711517,0.003 v 1.73639 1.7364 l -1.721468,0.002 c -0.946807,10e-4 -1.727035,-0.001 -1.733839,-0.006 z m 2.883142,-1.73323 v -1.15428 h -1.153214 c -1.042401,0 -1.153794,0.002 -1.159253,0.0157 -0.0079,0.0206 -0.0079,2.25651 0,2.27708 0.0055,0.0142 0.116852,0.0157 1.159253,0.0157 h 1.153214 z m -1.442848,0 v -0.28887 l 0.286082,0.003 0.286082,0.003 v 0.28359 0.2836 l -0.286082,0.003 -0.286082,0.003 z m -8.690795,0.27298 c -0.0091,-0.0237 -0.0071,-0.53467 0.0022,-0.54927 0.0062,-0.01 0.0712,-0.012 0.290905,-0.01 l 0.28291,0.003 v 0.28359 0.28359 l -0.28496,0.003 c -0.253357,0.002 -0.285636,8.7e-4 -0.291057,-0.0133 z m 1.16269,0.003 c -0.0027,-0.007 -0.0037,-0.13581 -0.0022,-0.28624 l 0.0027,-0.2735 h 0.283594 0.283594 v 0.28359 0.2836 l -0.281359,0.003 c -0.221334,0.002 -0.282402,-1.1e-4 -0.286246,-0.0101 z m 1.154219,-1.5e-4 c -0.0027,-0.007 -0.0036,-0.13566 -0.0022,-0.28609 l 0.0027,-0.2735 0.282909,-0.003 c 0.219705,-0.002 0.284696,1.5e-4 0.290906,0.01 0.0092,0.0145 0.01133,0.52547 0.0023,0.54912 -0.0053,0.0138 -0.04015,0.0157 -0.288882,0.0157 -0.218788,0 -0.283935,-0.003 -0.287669,-0.0126 z m -5.206713,-1.15365 c -0.01716,-0.0172 -0.01716,-0.83461 0,-0.85178 0.01741,-0.0174 8.655604,-0.0174 8.673011,0 0.01716,0.0172 0.01716,0.83462 0,0.85178 -0.01702,0.017 -0.546187,0.017 -0.563208,0 -0.0081,-0.008 -0.01194,-0.0546 -0.01194,-0.14428 v -0.13235 h -3.761357 -3.761356 v 0.13235 c 0,0.0897 -0.0039,0.13619 -0.01194,0.14428 -0.01702,0.017 -0.546187,0.017 -0.563208,0 z m -0.0059,-1.4566 c -0.0079,-0.0206 -0.0079,-3.42073 0,-3.4413 0.0055,-0.0143 0.397387,-0.0157 4.342406,-0.0157 3.94502,0 4.336912,0.001 4.342407,0.0157 0.0079,0.0206 0.0079,3.42073 0,3.4413 -0.0055,0.0143 -0.397387,0.0157 -4.342407,0.0157 -3.945019,0 -4.336911,-0.001 -4.342406,-0.0157 z m 8.098787,-1.72065 v -1.15428 h -3.756381 -3.756381 l -0.0026,1.14433 c -0.0014,0.62938 -4.29e-4,1.14993 0.0022,1.15678 0.0038,0.01 0.760801,0.0119 3.758943,0.01 l 3.754201,-0.003 z m -5.197239,0.28161 c -0.0087,-0.009 -0.01194,-0.0851 -0.01194,-0.28161 0,-0.19647 0.0032,-0.2729 0.01194,-0.2816 0.01702,-0.017 0.546187,-0.017 0.563209,0 0.01702,0.017 0.01702,0.54618 0,0.56321 -0.0087,0.009 -0.08513,0.0119 -0.281605,0.0119 -0.19647,0 -0.272904,-0.003 -0.281604,-0.0119 z m 1.164727,0.005 c -0.0095,-0.004 -0.01244,-0.0707 -0.01244,-0.28672 0,-0.2477 0.0019,-0.28243 0.01574,-0.28774 0.0087,-0.003 0.13143,-0.006 0.272829,-0.006 0.1414,0 0.264173,0.003 0.27283,0.006 0.01384,0.005 0.01574,0.04 0.01574,0.2875 0,0.24748 -0.0019,0.2822 -0.01574,0.28751 -0.01877,0.007 -0.531022,0.007 -0.548961,-5.5e-4 z m 1.153781,-0.005 c -0.0087,-0.009 -0.01194,-0.0851 -0.01194,-0.28161 0,-0.19647 0.0032,-0.2729 0.01194,-0.2816 0.01702,-0.017 0.546187,-0.017 0.563209,0 0.01702,0.017 0.01702,0.54618 0,0.56321 -0.0087,0.009 -0.08513,0.0119 -0.281605,0.0119 -0.19647,0 -0.272904,-0.003 -0.281604,-0.0119 z m -7.935878,10e-4 c -0.307905,-0.0358 -0.590405,-0.25554 -0.702638,-0.54657 -0.05296,-0.13734 -0.06097,-0.21632 -0.05802,-0.57257 l 0.0026,-0.31818 h 0.283595 0.283594 l 0.005,0.31842 c 0.0048,0.3057 0.0059,0.32041 0.02786,0.36818 0.02723,0.0592 0.08143,0.1179 0.136331,0.14762 l 0.0398,0.0215 1.054772,0.005 c 0.580124,0.003 1.055891,0.006 1.057259,0.007 0.0014,10e-4 0.0025,0.12945 0.0025,0.28484 0,0.24845 -0.0019,0.28325 -0.01574,0.28857 -0.02339,0.009 -2.037817,0.005 -2.116903,-0.004 z m 11.996252,0.004 c -0.0095,-0.004 -0.01244,-0.0712 -0.01244,-0.28801 0,-0.15552 0.0011,-0.2838 0.0025,-0.28507 0.0014,-10e-4 0.477135,-0.005 1.057259,-0.007 l 1.054772,-0.005 0.0398,-0.0215 c 0.0549,-0.0297 0.109103,-0.0884 0.13633,-0.14762 0.02197,-0.0478 0.02308,-0.0625 0.02786,-0.36818 l 0.005,-0.31842 h 0.283594 0.283594 l 0.0026,0.31818 c 0.0021,0.24952 -6.47e-4,0.33714 -0.01254,0.40607 -0.03669,0.2126 -0.157567,0.41273 -0.326434,0.54044 -0.07823,0.0592 -0.217743,0.12685 -0.320404,0.15546 l -0.07961,0.0222 -1.064723,0.002 c -0.585597,10e-4 -1.070319,-1.7e-4 -1.077161,-0.003 z m -12.65975,-2.03403 c -0.687592,-0.0855 -1.250707,-0.5447 -1.462441,-1.19263 -0.06234,-0.19078 -0.07497,-0.28194 -0.07458,-0.53828 3.95e-4,-0.25632 0.01082,-0.33049 0.07537,-0.53614 0.04021,-0.12813 0.152837,-0.35254 0.235312,-0.46888 0.08598,-0.12128 0.289107,-0.32441 0.410386,-0.41039 0.116341,-0.0825 0.340752,-0.19509 0.46888,-0.23531 0.205653,-0.0645 0.279822,-0.075 0.536139,-0.0754 0.256344,-4e-4 0.347503,0.0122 0.538282,0.0746 0.738133,0.24121 1.236892,0.95683 1.199581,1.72115 -0.02461,0.50417 -0.241486,0.94678 -0.618412,1.26209 -0.244834,0.20481 -0.5214,0.33185 -0.840832,0.38624 -0.105647,0.018 -0.368552,0.0253 -0.467682,0.0129 z m 0.406524,-0.59284 c 0.165226,-0.0292 0.353785,-0.11332 0.489037,-0.21824 0.06103,-0.0473 0.179696,-0.16728 0.22584,-0.22826 0.05287,-0.0699 0.121162,-0.19641 0.152699,-0.28297 0.111306,-0.30549 0.09559,-0.62437 -0.04498,-0.91239 -0.195321,-0.40022 -0.593341,-0.65062 -1.033899,-0.65045 -0.645962,2.6e-4 -1.160142,0.51444 -1.160399,1.1604 -1.88e-4,0.44056 0.250229,0.83858 0.650451,1.0339 0.228797,0.11166 0.463403,0.14354 0.721249,0.098 z m -0.501532,-0.86208 c -0.0027,-0.007 -0.0036,-0.13566 -0.0022,-0.28608 l 0.0027,-0.2735 h 0.283594 0.283594 l 0.0026,0.28608 0.0026,0.28608 h -0.28406 c -0.219769,0 -0.285151,-0.003 -0.288886,-0.0126 z m 15.205113,1.45885 c -0.199102,-0.0237 -0.33713,-0.055 -0.472701,-0.10739 -0.957163,-0.36966 -1.39154,-1.45773 -0.94993,-2.37948 0.234209,-0.48885 0.679075,-0.83447 1.224263,-0.95113 0.09696,-0.0207 0.134277,-0.0232 0.342653,-0.0229 0.256316,3.9e-4 0.330486,0.0108 0.536138,0.0754 0.128128,0.0402 0.35254,0.15284 0.46888,0.23531 0.12128,0.086 0.324411,0.28911 0.410387,0.41039 0.08248,0.11634 0.195098,0.34075 0.235312,0.46888 0.06455,0.20565 0.07497,0.27982 0.07536,0.53614 3.01e-4,0.20838 -0.0022,0.24569 -0.02292,0.34265 -0.162316,0.75853 -0.761798,1.30294 -1.529022,1.38856 -0.08475,0.009 -0.253239,0.0114 -0.318422,0.004 z m 0.238816,-0.58086 c 0.466119,-0.0436 0.853677,-0.34734 0.999847,-0.78364 0.226419,-0.67581 -0.20767,-1.39605 -0.910066,-1.50998 -0.506011,-0.0821 -0.998932,0.17392 -1.224371,0.63585 -0.192675,0.3948 -0.145719,0.86747 0.120232,1.21029 0.04735,0.061 0.16728,0.17969 0.228255,0.22584 0.157519,0.1192 0.37762,0.20294 0.582114,0.22146 0.04652,0.004 0.08682,0.008 0.08956,0.009 0.0027,7.6e-4 0.05423,-0.003 0.114432,-0.009 z m -0.380766,-1.15134 0.0026,-0.28623 h 0.283594 0.283594 v 0.28359 0.28359 l -0.286235,0.003 -0.286234,0.003 z"
       style="fill:#fe8139;stroke-width:0.00995068" />
  </g>
</svg>
