<?xml version="1.0" encoding="UTF-8" standalone="no"?>
<svg
   xmlns:dc="http://purl.org/dc/elements/1.1/"
   xmlns:cc="http://creativecommons.org/ns#"
   xmlns:rdf="http://www.w3.org/1999/02/22-rdf-syntax-ns#"
   xmlns:svg="http://www.w3.org/2000/svg"
   xmlns="http://www.w3.org/2000/svg"
   id="svg8"
   version="1.1"
   viewBox="0 0 18.520835 18.52102"
   height="70.000702"
   width="70">
  <defs
     id="defs2" />
  <metadata
     id="metadata5">
    <rdf:RDF>
      <cc:Work
         rdf:about="">
        <dc:format>image/svg+xml</dc:format>
        <dc:type
           rdf:resource="http://purl.org/dc/dcmitype/StillImage" />
        <dc:title></dc:title>
      </cc:Work>
    </rdf:RDF>
  </metadata>
  <g
     transform="translate(105.23443,-387.33337)"
     id="layer1">
    <path
       id="path865"
       d="m -96.27337,405.85235 c -0.02655,-0.002 -0.113435,-0.007 -0.193081,-0.0116 -1.204337,-0.0721 -2.409098,-0.44835 -3.459372,-1.08029 -1.246427,-0.74996 -2.266067,-1.85135 -2.915367,-3.14913 -1.07404,-2.14673 -1.07433,-4.68064 -7.6e-4,-6.8246 0.29967,-0.59848 0.7084,-1.19994 1.13884,-1.67588 0.0395,-0.0436 0.0769,-0.0864 0.0832,-0.0951 0.0107,-0.0148 -0.005,-0.0322 -0.24533,-0.27265 -0.14121,-0.14126 -0.26223,-0.25685 -0.26892,-0.25685 -0.007,0 -0.11892,0.1068 -0.24939,0.23733 -0.13048,0.13053 -0.24266,0.23733 -0.24929,0.23733 -0.0134,0 -0.41845,-0.40123 -0.41845,-0.41445 0,-0.0105 1.40186,-1.41178 1.41234,-1.41178 0.0111,0 0.42193,0.41257 0.42193,0.42369 0,0.005 -0.10533,0.11186 -0.23408,0.23727 -0.12874,0.12541 -0.23774,0.23485 -0.24222,0.2432 -0.007,0.0131 0.0259,0.0493 0.24811,0.27152 0.14094,0.14099 0.26093,0.25634 0.26665,0.25634 0.006,0 0.0474,-0.0332 0.0926,-0.0738 0.81824,-0.73531 1.831484,-1.3052 2.886968,-1.62373 0.587005,-0.17715 1.166057,-0.27882 1.821096,-0.31973 l 0.09654,-0.006 0.0021,-0.36806 0.0021,-0.36806 h -0.598586 c -0.715363,0 -0.773941,-0.004 -0.967501,-0.0684 -0.182525,-0.0606 -0.331118,-0.15421 -0.478103,-0.30112 -0.181223,-0.18113 -0.287753,-0.37653 -0.342423,-0.62805 -0.0212,-0.0976 -0.0215,-0.38401 -4.2e-4,-0.4827 0.0945,-0.44348 0.402485,-0.79232 0.823556,-0.93299 0.195614,-0.0654 0.04816,-0.0606 1.869026,-0.0606 1.820864,0 1.673413,-0.005 1.869027,0.0606 0.369472,0.12343 0.658555,0.41248 0.781193,0.7811 0.04943,0.14859 0.05694,0.20044 0.05694,0.39324 0,0.15169 -0.0023,0.18324 -0.0187,0.25648 -0.03604,0.16097 -0.09339,0.29449 -0.187188,0.43577 -0.06513,0.0981 -0.225864,0.25966 -0.325087,0.32675 -0.178531,0.12071 -0.374207,0.19096 -0.590524,0.21201 -0.04247,0.004 -0.347868,0.008 -0.678665,0.008 l -0.60145,2.1e-4 0.0021,0.36807 0.0021,0.36806 0.09654,0.006 c 0.655039,0.0409 1.234091,0.14257 1.821096,0.31972 1.055491,0.31854 2.068737,0.88842 2.886981,1.62374 0.04519,0.0406 0.08685,0.0738 0.09256,0.0738 0.0057,0 0.125484,-0.11513 0.266144,-0.25584 0.180337,-0.1804 0.254328,-0.25953 0.250938,-0.26837 -0.0026,-0.007 -0.111415,-0.11652 -0.241714,-0.24362 -0.130299,-0.12711 -0.236907,-0.23535 -0.236907,-0.24054 0,-0.0112 0.410926,-0.42365 0.422046,-0.42365 0.0105,0 1.412227,1.40142 1.412227,1.41192 0,0.005 -0.0942,0.10239 -0.209327,0.2172 l -0.209327,0.20876 -0.243256,-0.24315 c -0.133791,-0.13374 -0.248685,-0.24316 -0.255322,-0.24316 -0.0066,0 -0.127606,0.11558 -0.268823,0.25685 -0.24031,0.2404 -0.256025,0.25786 -0.245327,0.27264 0.0063,0.009 0.04371,0.0515 0.08317,0.0951 0.430441,0.47594 0.839164,1.07741 1.138841,1.67588 1.125405,2.2475 1.067172,4.92369 -0.154842,7.11606 -0.918597,1.64803 -2.402779,2.90008 -4.177225,3.5239 -0.64243,0.22585 -1.303121,0.36098 -2.027354,0.41465 -0.111964,0.008 -0.720315,0.0165 -0.812551,0.011 z m 0.655672,-0.60669 c 0.520971,-0.0283 0.998498,-0.10343 1.482492,-0.23312 1.444943,-0.38718 2.74356,-1.23743 3.68645,-2.41364 0.584208,-0.72877 1.01917,-1.5671 1.275205,-2.45776 0.262245,-0.91228 0.336527,-1.8826 0.216788,-2.83186 -0.151073,-1.19768 -0.61633,-2.34688 -1.343285,-3.31798 -1.537159,-2.05339 -4.028089,-3.11265 -6.565427,-2.79192 -1.900854,0.24027 -3.619475,1.24455 -4.777825,2.79192 -1.11796,1.4934 -1.59233,3.3584 -1.32669,5.21583 0.29725,2.0785 1.53047,3.93257 3.345857,5.03032 0.991634,0.59964 2.106998,0.94283 3.274335,1.00749 0.172871,0.01 0.562291,0.01 0.7321,7.3e-4 z m -0.922078,-0.73015 c -0.0049,-0.003 -0.116198,-0.21994 -0.247262,-0.48153 -0.131063,-0.2616 -0.244688,-0.48282 -0.2525,-0.49162 -0.01027,-0.0116 -0.04758,-0.0232 -0.134878,-0.0422 -0.137099,-0.0298 -0.313926,-0.0771 -0.439221,-0.11752 -0.04688,-0.0151 -0.09144,-0.0275 -0.09902,-0.0275 -0.0076,0 -0.215402,0.13277 -0.461826,0.29506 -0.246426,0.16229 -0.455596,0.29654 -0.464826,0.29835 -0.0112,0.002 -0.17497,-0.0878 -0.494767,-0.2719 -0.26289,-0.15135 -0.483047,-0.27993 -0.489227,-0.28574 -0.01,-0.009 -0.007,-0.0832 0.0182,-0.5119 0.0162,-0.27574 0.0315,-0.52187 0.0341,-0.54694 l 0.005,-0.0456 -0.055,-0.0506 c -0.0648,-0.0596 -0.32275,-0.31713 -0.396037,-0.3953 l -0.051,-0.0544 -0.0494,0.004 c -0.0756,0.007 -0.97953,0.0601 -1.02015,0.0601 h -0.0358 l -0.2839,-0.49093 c -0.15615,-0.27002 -0.28215,-0.49552 -0.28,-0.50111 0.002,-0.006 0.13873,-0.21377 0.30353,-0.46261 l 0.29963,-0.45244 -0.041,-0.13455 c -0.0499,-0.1639 -0.0829,-0.28816 -0.1138,-0.42867 -0.0129,-0.0585 -0.0272,-0.11041 -0.0319,-0.11531 -0.005,-0.005 -0.2266,-0.11752 -0.49322,-0.25026 l -0.48477,-0.24135 -0.002,-0.57318 -0.002,-0.57317 0.49013,-0.24509 c 0.26957,-0.13479 0.49252,-0.24897 0.49546,-0.25371 0.003,-0.005 0.0178,-0.0637 0.033,-0.13106 0.0338,-0.14993 0.0568,-0.23581 0.10934,-0.40905 l 0.0406,-0.13377 -0.29932,-0.45278 c -0.16462,-0.24903 -0.30108,-0.45737 -0.30323,-0.46298 -0.004,-0.0105 0.53528,-0.95263 0.56082,-0.97979 0.0138,-0.0147 0.0258,-0.0144 0.51175,0.0142 0.27368,0.0161 0.51982,0.0314 0.54698,0.034 l 0.0494,0.005 0.0549,-0.0592 c 0.0779,-0.0839 0.309227,-0.31465 0.384257,-0.38323 l 0.0633,-0.0579 -0.005,-0.0504 c -0.0148,-0.15335 -0.0625,-1.04031 -0.0564,-1.04947 0.0139,-0.0208 0.971924,-0.56686 0.988564,-0.56345 0.009,0.002 0.21521,0.13479 0.458571,0.2955 0.243363,0.1607 0.449719,0.29365 0.458568,0.29543 0.0089,0.002 0.07678,-0.0151 0.150948,-0.0375 0.133798,-0.0404 0.328776,-0.091 0.452432,-0.11758 0.0354,-0.008 0.06925,-0.0177 0.07524,-0.0225 0.006,-0.005 0.119545,-0.22605 0.252363,-0.49172 0.132817,-0.26568 0.245582,-0.48571 0.250588,-0.48896 0.005,-0.003 0.260711,-0.006 0.568233,-0.006 0.307523,0 0.563228,0.003 0.568233,0.006 0.005,0.003 0.117772,0.22328 0.250589,0.48896 0.132818,0.26567 0.246381,0.48695 0.252363,0.49172 0.006,0.005 0.03984,0.0149 0.07524,0.0225 0.123656,0.0265 0.318633,0.0772 0.452432,0.11758 0.07417,0.0224 0.142098,0.0392 0.150948,0.0374 0.0088,-0.002 0.215205,-0.13477 0.458568,-0.2955 0.243363,-0.16072 0.449719,-0.29368 0.458568,-0.29545 0.01689,-0.003 0.975012,0.54282 0.988752,0.56368 0.0064,0.01 -0.04333,0.93711 -0.05671,1.05734 l -0.0047,0.0424 0.06329,0.0578 c 0.07502,0.0686 0.306405,0.29934 0.384256,0.38322 l 0.05491,0.0592 0.04939,-0.005 c 0.02716,-0.003 0.273306,-0.0179 0.54698,-0.034 0.485956,-0.0286 0.497923,-0.0289 0.511791,-0.0142 0.02685,0.0285 0.564907,0.96903 0.560666,0.98008 -0.0023,0.006 -0.138804,0.21473 -0.303268,0.46367 l -0.299023,0.45261 0.04071,0.13336 c 0.04954,0.1623 0.08279,0.2873 0.113245,0.42574 0.01266,0.0576 0.02551,0.10869 0.02856,0.11363 0.003,0.005 0.226101,0.11926 0.49567,0.25405 l 0.490127,0.24509 -0.0021,0.57317 -0.0021,0.57318 -0.48499,0.24202 c -0.266744,0.13312 -0.488694,0.24574 -0.493221,0.25026 -0.0045,0.005 -0.01858,0.0553 -0.03123,0.11279 -0.03194,0.14522 -0.06578,0.27303 -0.113994,0.43053 l -0.04119,0.13456 0.302747,0.45726 c 0.166511,0.25149 0.302746,0.46029 0.302746,0.46399 0,0.004 -0.127259,0.22703 -0.282798,0.49628 l -0.282798,0.48954 -0.04504,-2.7e-4 c -0.02477,-1.6e-4 -0.273115,-0.0142 -0.551876,-0.0311 l -0.506839,-0.0308 -0.197104,0.19889 c -0.108407,0.10939 -0.221862,0.22144 -0.252121,0.24901 l -0.05502,0.0501 0.0046,0.0456 c 0.0025,0.0251 0.01794,0.27114 0.03421,0.54681 0.02547,0.43153 0.028,0.50272 0.01821,0.51205 -0.0063,0.006 -0.226496,0.13461 -0.489425,0.28587 -0.316794,0.18225 -0.483697,0.27394 -0.494785,0.27182 -0.0092,-0.002 -0.218505,-0.13601 -0.465117,-0.29834 -0.246612,-0.16232 -0.454428,-0.29514 -0.461813,-0.29514 -0.0074,0 -0.05178,0.0124 -0.09866,0.0275 -0.124,0.04 -0.301132,0.0875 -0.439221,0.11774 -0.06637,0.0145 -0.12557,0.0302 -0.131552,0.0348 -0.006,0.005 -0.119545,0.22572 -0.252362,0.4914 -0.132818,0.26568 -0.245583,0.48571 -0.250589,0.48896 -0.005,0.003 -0.260711,0.006 -0.568233,0.006 -0.307523,0 -0.563166,-0.003 -0.568096,-0.006 z m 0.998506,-1.06177 c 0.128319,-0.25328 0.23893,-0.46237 0.245801,-0.46464 0.0069,-0.002 0.0648,-0.0132 0.128721,-0.0243 0.315899,-0.0549 0.556928,-0.11872 0.871235,-0.23068 0.07455,-0.0265 0.143331,-0.0467 0.152856,-0.0448 0.0095,0.002 0.205364,0.12745 0.435197,0.27898 0.303782,0.20028 0.422689,0.27459 0.435492,0.27214 0.0097,-0.002 0.08864,-0.0445 0.175443,-0.0947 l 0.157832,-0.0914 10e-7,-0.0447 c 0,-0.0246 -0.01298,-0.25829 -0.02884,-0.51935 l -0.02884,-0.47466 0.03461,-0.0281 c 0.230878,-0.18782 0.503685,-0.45152 0.67416,-0.65165 0.161843,-0.19001 0.137217,-0.16974 0.199894,-0.16447 0.219533,0.0185 0.972032,0.0578 0.979927,0.0513 0.0051,-0.004 0.05189,-0.0819 0.10387,-0.1725 l 0.09452,-0.16474 -0.282552,-0.42684 c -0.155404,-0.23476 -0.282552,-0.43312 -0.282552,-0.44079 0,-0.008 0.01843,-0.0645 0.04095,-0.12631 0.115849,-0.31785 0.177986,-0.55577 0.251657,-0.96358 0.0062,-0.0345 0.01265,-0.064 0.01424,-0.0655 0.0016,-0.001 0.210151,-0.10626 0.46347,-0.23286 l 0.460579,-0.23019 v -0.20074 -0.20074 l -0.462253,-0.22892 c -0.386388,-0.19135 -0.462974,-0.23201 -0.466643,-0.24776 -0.0024,-0.0104 -0.01711,-0.0894 -0.03266,-0.17571 -0.05157,-0.28616 -0.132613,-0.58205 -0.234651,-0.85671 -0.01971,-0.053 -0.03443,-0.10378 -0.03271,-0.11275 0.0017,-0.009 0.126183,-0.20269 0.276597,-0.4305 0.150413,-0.22781 0.27625,-0.41882 0.279638,-0.42447 0.0071,-0.0118 -0.176882,-0.33737 -0.196181,-0.34725 -0.0066,-0.003 -0.239764,0.008 -0.518059,0.0246 -0.278296,0.0169 -0.510373,0.0281 -0.515728,0.025 -0.0054,-0.003 -0.05061,-0.0542 -0.100565,-0.11338 -0.220237,-0.26091 -0.397171,-0.43444 -0.710567,-0.69691 l -0.03842,-0.0322 0.03117,-0.51086 c 0.01715,-0.28097 0.0299,-0.51463 0.02834,-0.51924 -0.0052,-0.0154 -0.33207,-0.19869 -0.347259,-0.19472 -0.008,0.002 -0.205072,0.12934 -0.437976,0.28279 l -0.423462,0.279 -0.155098,-0.0559 c -0.281125,-0.10135 -0.547154,-0.17237 -0.834906,-0.22289 -0.09071,-0.0159 -0.167977,-0.0319 -0.171708,-0.0355 -0.0037,-0.004 -0.11053,-0.21234 -0.237329,-0.46391 l -0.230545,-0.45742 h -0.197104 -0.197104 l -0.233399,0.46254 -0.233399,0.46255 -0.182019,0.0332 c -0.304024,0.0555 -0.566757,0.12635 -0.842938,0.22734 -0.107922,0.0395 -0.135199,0.0467 -0.148833,0.0396 -0.0092,-0.005 -0.201026,-0.12997 -0.426322,-0.27818 -0.225297,-0.14822 -0.416047,-0.27117 -0.423887,-0.27322 -0.009,-0.002 -0.0809,0.0347 -0.17961,0.0916 l -0.165357,0.0953 -6e-5,0.0439 c -3e-5,0.0242 0.0129,0.25763 0.0287,0.51884 l 0.0287,0.47493 -0.0193,0.0162 c -0.33182,0.27711 -0.50399,0.44534 -0.730887,0.71415 -0.0494,0.0586 -0.0942,0.10905 -0.0994,0.11215 -0.005,0.003 -0.237287,-0.008 -0.515717,-0.025 -0.27844,-0.0168 -0.51168,-0.0278 -0.51832,-0.0244 -0.007,0.003 -0.055,0.0808 -0.10742,0.17194 l -0.0954,0.16577 0.10715,0.16275 c 0.0589,0.0895 0.18602,0.28184 0.28241,0.42741 0.0964,0.14556 0.17524,0.27119 0.17524,0.27918 0,0.008 -0.0158,0.0572 -0.0352,0.10944 -0.11158,0.30091 -0.19405,0.60888 -0.24622,0.91953 -0.009,0.0553 -0.0187,0.10671 -0.021,0.11422 -0.003,0.009 -0.17742,0.0996 -0.46629,0.24284 l -0.46218,0.22918 v 0.20164 0.20163 l 0.46058,0.23026 c 0.25332,0.12663 0.46287,0.23387 0.46566,0.23829 0.003,0.004 0.009,0.0357 0.0147,0.0694 0.0488,0.31126 0.13484,0.64093 0.249,0.95412 0.0225,0.0618 0.0409,0.11859 0.0409,0.12622 0,0.008 -0.12532,0.20315 -0.27849,0.4345 -0.15318,0.23135 -0.27991,0.42435 -0.28163,0.42889 -0.003,0.008 0.17451,0.32143 0.19261,0.33961 0.007,0.007 0.126,0.003 0.52037,-0.0214 0.28097,-0.017 0.514967,-0.0285 0.519997,-0.0256 0.005,0.003 0.0407,0.0433 0.0793,0.0897 0.21601,0.26 0.447437,0.48818 0.734827,0.7245 l 0.0348,0.0286 -0.0288,0.47525 c -0.0158,0.26139 -0.0288,0.49491 -0.0288,0.51894 v 0.0437 l 0.158407,0.0915 c 0.0871,0.0503 0.16609,0.0929 0.17546,0.0947 0.0119,0.002 0.0964,-0.0492 0.282054,-0.17175 0.145754,-0.0963 0.338471,-0.22305 0.428261,-0.28176 l 0.163253,-0.10674 0.0781,0.0288 c 0.147246,0.0542 0.383859,0.12985 0.508508,0.16249 0.117281,0.0307 0.377017,0.0851 0.503026,0.10529 0.03109,0.005 0.06031,0.0116 0.06493,0.0147 0.0046,0.003 0.110745,0.20835 0.235821,0.45613 0.125076,0.24779 0.231206,0.45512 0.235845,0.46072 0.0065,0.008 0.05347,0.01 0.202426,0.008 l 0.193991,-0.002 z m -0.726163,-1.27922 0.0021,-0.3037 0.288674,-0.002 c 0.206364,-0.002 0.291812,4.9e-4 0.299679,0.007 0.0089,0.007 0.011,0.0627 0.011,0.29309 0,0.15617 -0.0022,0.28968 -0.0049,0.29668 -0.0043,0.0113 -0.03847,0.0127 -0.301786,0.0127 h -0.296904 z m -1.848255,-0.26698 c -0.137168,-0.0792 -0.250423,-0.14894 -0.251677,-0.15504 -0.0022,-0.0106 0.27077,-0.49044 0.290778,-0.51117 0.0077,-0.008 0.06281,0.0205 0.264853,0.1365 0.140347,0.0806 0.255177,0.15038 0.255177,0.15511 0,0.007 -0.252813,0.44975 -0.286199,0.5008 -0.0065,0.01 -0.01447,0.018 -0.01769,0.0179 -0.0032,-9e-5 -0.118077,-0.065 -0.255245,-0.14413 z m 4.020648,0.13424 c -0.01164,-0.0149 -0.281867,-0.48259 -0.287903,-0.49832 -0.0066,-0.0171 0,-0.0214 0.281476,-0.18298 0.179334,-0.10297 0.227017,-0.12715 0.23494,-0.11916 0.02093,0.0211 0.293068,0.49873 0.290722,0.51022 -0.0021,0.0101 -0.490743,0.29979 -0.506313,0.30017 -0.0028,9e-5 -0.0086,-0.004 -0.01292,-0.01 z m -5.446943,-1.45616 c -0.005,-0.006 -0.072,-0.12035 -0.14987,-0.25515 -0.13405,-0.23211 -0.1408,-0.24581 -0.12742,-0.25848 0.0251,-0.0238 0.494197,-0.28978 0.506617,-0.28727 0.0141,0.003 0.30202,0.49629 0.29707,0.50917 -0.003,0.007 -0.504987,0.30179 -0.514737,0.30179 -0.002,0 -0.007,-0.005 -0.0117,-0.0101 z m 6.868777,-0.13874 c -0.162264,-0.0944 -0.253064,-0.15177 -0.252431,-0.15946 0.002,-0.0239 0.286082,-0.50429 0.298228,-0.50429 0.01603,0 0.517357,0.28922 0.517357,0.29847 0,0.009 -0.271978,0.48085 -0.288221,0.5 -0.0066,0.008 -0.01409,0.0138 -0.01673,0.0134 -0.0026,-3.7e-4 -0.118826,-0.067 -0.258206,-0.14813 z m -3.415127,-1.01469 c -0.07988,-0.009 -0.211725,-0.038 -0.2867,-0.0641 -0.184215,-0.0641 -0.327901,-0.15476 -0.470153,-0.29658 -0.182355,-0.18179 -0.296069,-0.39336 -0.346776,-0.64516 -0.02187,-0.10863 -0.01987,-0.36505 0.0037,-0.47148 0.0677,-0.30587 0.231359,-0.56325 0.473979,-0.74542 0.186049,-0.13969 0.398841,-0.22085 0.637707,-0.24322 0.175942,-0.0165 0.388169,0.0134 0.551412,0.0775 0.34051,0.13382 0.615498,0.42102 0.728457,0.76079 0.0139,0.0418 0.02873,0.0796 0.03296,0.084 0.005,0.005 0.332425,0.009 0.934484,0.0121 l 0.926792,0.004 0.0021,0.28912 c 0.0014,0.19609 -6.36e-4,0.29186 -0.0064,0.29766 -0.0059,0.006 -0.296627,0.01 -0.934774,0.0126 l -0.926226,0.004 -0.02909,0.0845 c -0.06569,0.19074 -0.15526,0.33317 -0.301335,0.4792 -0.180654,0.1806 -0.391472,0.29347 -0.637998,0.34158 -0.08433,0.0165 -0.277976,0.0269 -0.352096,0.019 z m 0.230587,-0.60971 c 0.256865,-0.0493 0.457224,-0.24506 0.508913,-0.49718 0.06709,-0.32725 -0.131082,-0.64642 -0.459539,-0.74011 -0.08898,-0.0254 -0.237635,-0.0254 -0.326616,0 -0.422685,0.12056 -0.605348,0.60347 -0.365013,0.96499 0.138697,0.20863 0.399027,0.319 0.642255,0.2723 z m -4.391884,-0.32384 c -0.008,-0.003 -0.0101,-0.071 -0.0101,-0.30115 v -0.2971 l 0.303697,0.002 0.3037,0.002 0.002,0.28962 c 0.002,0.26513 9.7e-4,0.29047 -0.0116,0.29968 -0.0104,0.008 -0.082,0.01 -0.29578,0.009 -0.155117,-3.5e-4 -0.286567,-0.002 -0.292097,-0.005 z m 7.958207,-0.0128 c -0.0021,-0.006 -0.0029,-0.1386 -0.0018,-0.29565 l 0.0021,-0.28556 0.303701,-0.002 0.303701,-0.002 v 0.29777 0.29776 h -0.301942 c -0.234804,0 -0.302804,-0.002 -0.305817,-0.0101 z m -7.28063,-2.01312 c -0.16607,-0.0959 -0.25684,-0.15284 -0.25615,-0.16059 0.001,-0.013 0.27179,-0.48454 0.28767,-0.50127 0.008,-0.008 0.0403,0.008 0.158077,0.0753 0.0817,0.0469 0.19689,0.11304 0.25602,0.14686 0.0591,0.0338 0.10909,0.0655 0.11102,0.0703 0.003,0.009 -0.26988,0.48809 -0.28954,0.50798 -0.008,0.008 -0.0628,-0.0206 -0.267097,-0.1386 z m 6.840172,-0.0182 c -0.189301,-0.32639 -0.201389,-0.34855 -0.194052,-0.35566 0.004,-0.004 0.121088,-0.0728 0.260098,-0.15295 0.206729,-0.11928 0.254626,-0.14393 0.263079,-0.13538 0.01287,0.013 0.292704,0.4957 0.292704,0.5049 0,0.009 -0.501911,0.29798 -0.517481,0.29798 -0.0074,0 -0.04862,-0.0628 -0.104348,-0.15889 z m -5.348896,-1.30311 c -0.02013,-0.0236 -0.288331,-0.493 -0.288331,-0.50465 0,-0.0127 0.503502,-0.30507 0.514091,-0.29853 0.0093,0.006 0.29846,0.50606 0.29846,0.51638 0,0.006 -0.475796,0.28657 -0.506523,0.29887 -0.003,0.001 -0.011,-0.004 -0.0177,-0.0121 z m 3.944998,-0.13362 c -0.19689,-0.11427 -0.251017,-0.14913 -0.248237,-0.15984 0.0044,-0.0171 0.277018,-0.48903 0.291303,-0.50433 0.0088,-0.009 0.05029,0.0118 0.264454,0.13555 0.143271,0.0828 0.254006,0.15168 0.254006,0.15806 0,0.0107 -0.2501,0.44852 -0.283282,0.49594 -0.0085,0.0122 -0.01795,0.0218 -0.02097,0.0214 -0.003,-3.8e-4 -0.118791,-0.0664 -0.257277,-0.14682 z m -2.133285,-0.50361 c -0.009,-0.0167 -0.01217,-0.56039 -0.0034,-0.58314 0.0043,-0.0113 0.03839,-0.0127 0.300829,-0.0127 0.262442,0 0.296498,10e-4 0.300829,0.0127 0.0027,0.007 0.0049,0.14022 0.0049,0.29606 0,0.20964 -0.0025,0.28584 -0.0097,0.29298 -0.0071,0.007 -0.08432,0.01 -0.297384,0.01 -0.276237,0 -0.288063,-6.2e-4 -0.296058,-0.0156 z m -0.0081,-5.62805 c 0.0023,-0.17257 0.0051,-0.31466 0.006,-0.31577 9.76e-4,-10e-4 0.135725,-0.002 0.299442,-0.002 0.163717,0 0.298465,9.1e-4 0.299441,0.002 9.76e-4,0.001 0.0037,0.1432 0.006,0.31577 l 0.0043,0.31376 h 0.627515 c 0.620577,0 0.628246,-1.9e-4 0.693644,-0.0177 0.178451,-0.0476 0.327987,-0.16719 0.40757,-0.32586 0.05634,-0.11232 0.07222,-0.18673 0.06744,-0.31583 -0.0032,-0.0867 -0.0078,-0.11653 -0.02636,-0.17182 -0.05472,-0.16285 -0.167844,-0.29229 -0.321691,-0.36807 -0.141804,-0.0699 0.02368,-0.0638 -1.757845,-0.0638 -1.781656,0 -1.61615,-0.006 -1.757845,0.0639 -0.219159,0.10814 -0.34974,0.32025 -0.349904,0.56835 -1.19e-4,0.17962 0.06707,0.33434 0.199382,0.45916 0.104534,0.0986 0.206786,0.14551 0.371761,0.17049 0.01106,0.002 0.291633,0.003 0.623492,0.002 l 0.603379,-9.5e-4 z"
       style="fill:#fe8138;stroke-width:0.00804506" />
  </g>
</svg>
