<?xml version="1.0" encoding="UTF-8" standalone="no"?>
<svg
   xmlns:dc="http://purl.org/dc/elements/1.1/"
   xmlns:cc="http://creativecommons.org/ns#"
   xmlns:rdf="http://www.w3.org/1999/02/22-rdf-syntax-ns#"
   xmlns:svg="http://www.w3.org/2000/svg"
   xmlns="http://www.w3.org/2000/svg"
   id="svg8"
   version="1.1"
   viewBox="0 0 18.520859 19.070587"
   height="72.077805"
   width="70.000092">
  <defs
     id="defs2" />
  <metadata
     id="metadata5">
    <rdf:RDF>
      <cc:Work
         rdf:about="">
        <dc:format>image/svg+xml</dc:format>
        <dc:type
           rdf:resource="http://purl.org/dc/dcmitype/StillImage" />
        <dc:title></dc:title>
      </cc:Work>
    </rdf:RDF>
  </metadata>
  <g
     transform="translate(45.434347,-245.48217)"
     id="layer1">
    <path
       id="path852"
       d="m -38.497399,264.53942 c -0.21905,-0.0398 -0.419177,-0.14698 -0.570697,-0.30557 -0.120917,-0.12656 -0.197902,-0.25784 -0.249697,-0.4258 -0.02561,-0.0831 -0.02742,-0.10123 -0.02742,-0.27621 0,-0.17429 0.0019,-0.19338 0.027,-0.27476 0.03758,-0.12174 0.06996,-0.19129 0.133298,-0.28629 0.140975,-0.21146 0.360286,-0.36589 0.616984,-0.43445 0.08175,-0.0218 0.08908,-0.022 1.039078,-0.022 h 0.956742 l 0.0051,0.33916 0.0051,0.33917 0.02213,0.003 c 0.01218,0.002 0.09464,-0.006 0.183261,-0.0174 1.362539,-0.17417 2.536846,-0.98482 3.183798,-2.19786 0.102629,-0.19243 0.270726,-0.60025 0.270726,-0.65681 0,-0.0187 -0.0024,-0.0186 -0.07378,0.003 -0.19942,0.0615 -0.451752,0.0776 -0.645039,0.0411 -0.458075,-0.0866 -0.836482,-0.39881 -1.002472,-0.82718 -0.01148,-0.0296 -0.03314,-0.0994 -0.04814,-0.15509 l -0.02728,-0.10124 -0.0031,-1.77681 c -0.0033,-1.93886 -0.0052,-1.86718 0.05411,-2.0563 0.102724,-0.32736 0.343813,-0.61402 0.648052,-0.77053 0.108228,-0.0557 0.231534,-0.10012 0.348422,-0.12559 0.121741,-0.0265 0.414844,-0.0265 0.536586,0 0.544674,0.1187 0.951214,0.53889 1.03778,1.07264 0.01139,0.0702 0.01507,0.18455 0.0151,0.46874 0,0.28851 0.003,0.37825 0.0127,0.38604 0.007,0.006 0.04559,0.0239 0.08585,0.0407 0.148561,0.0619 0.313962,0.19257 0.417602,0.32984 0.02452,0.0325 0.07018,0.10988 0.101478,0.172 l 0.0569,0.11296 h 0.125941 0.125941 v -1.51358 c 0,-1.5609 -4.86e-4,-1.58354 -0.04161,-1.92361 -0.02308,-0.19088 -0.07544,-0.49948 -0.08718,-0.5138 -0.0082,-0.01 -0.398775,-0.0127 -1.891014,-0.0127 h -1.880648 l -1.075192,1.06052 c -0.591355,0.58328 -1.080529,1.06051 -1.087052,1.06051 -0.009,0 -0.0131,-0.25908 -0.01692,-1.05798 l -0.0051,-1.05799 -0.52592,-0.003 c -0.405296,-0.002 -0.527751,-0.005 -0.5339,-0.0152 -0.0044,-0.007 -0.008,-0.93855 -0.0081,-2.07032 l -1.53e-4,-2.05775 h -0.02368 c -0.06018,0 -0.362245,0.0333 -0.512901,0.0565 -1.101898,0.16977 -2.123392,0.66437 -2.937709,1.42241 -0.05939,0.0553 -0.114099,0.10051 -0.121579,0.10051 -0.0155,0 -0.443713,-0.42512 -0.443692,-0.44049 8e-6,-0.006 0.06078,-0.0658 0.135043,-0.13401 0.459287,-0.42168 0.914441,-0.73518 1.459514,-1.00528 0.282855,-0.14017 0.485507,-0.22379 0.78463,-0.32378 0.469337,-0.15687 0.939468,-0.25432 1.437645,-0.298 0.09745,-0.009 0.18749,-0.0156 0.200098,-0.0156 l 0.02292,-8e-5 -0.0027,-0.31638 -0.0027,-0.31638 -0.08099,0.003 c -0.226748,0.008 -0.597037,0.0532 -0.89202,0.10894 -1.928138,0.36422 -3.620152,1.55791 -4.620311,3.25958 -0.115449,0.19643 -0.33848,0.65228 -0.425421,0.86952 -0.264519,0.66095 -0.421838,1.36024 -0.466047,2.07158 -0.0073,0.11776 -0.01,0.66095 -0.0079,1.61988 l 0.0031,1.44271 0.120649,0.003 c 0.06636,0.002 0.124835,-10e-4 0.129952,-0.006 0.0051,-0.005 0.02415,-0.0434 0.04229,-0.0852 0.06521,-0.15 0.185519,-0.30216 0.318453,-0.40276 0.0648,-0.049 0.20452,-0.12558 0.271997,-0.14902 l 0.0329,-0.0114 1.92e-4,-0.33715 c 2.29e-4,-0.43073 0.0096,-0.529 0.06778,-0.71176 0.06331,-0.19881 0.16226,-0.35809 0.321164,-0.517 0.194491,-0.19449 0.402951,-0.30759 0.67392,-0.36563 0.120945,-0.0259 0.405517,-0.0259 0.526462,0 0.276291,0.0592 0.498244,0.18122 0.690948,0.37992 0.18533,0.1911 0.291455,0.39188 0.348653,0.65964 0.01736,0.0813 0.01838,0.18449 0.01838,1.86286 0,1.96039 0.0039,1.83385 -0.06225,2.03204 -0.131344,0.39364 -0.454717,0.71145 -0.851416,0.83677 -0.196801,0.0622 -0.441837,0.0787 -0.64001,0.0432 -0.534413,-0.0958 -0.94748,-0.49409 -1.064489,-1.02639 -0.01955,-0.0889 -0.02216,-0.13829 -0.02655,-0.50071 -0.0035,-0.28559 -0.0082,-0.40456 -0.01648,-0.41068 -0.0064,-0.005 -0.04351,-0.0218 -0.08248,-0.038 -0.105977,-0.0439 -0.233534,-0.1343 -0.327079,-0.23174 -0.09654,-0.10055 -0.144995,-0.17171 -0.199789,-0.29337 l -0.03923,-0.0871 -0.440835,-1.6e-4 c -0.242458,-1e-4 -0.446723,-0.004 -0.45392,-0.008 -0.01786,-0.0113 -0.01182,-3.65663 0.0064,-3.84367 0.02458,-0.25274 0.05419,-0.48761 0.08333,-0.66094 0.212798,-1.26578 0.767098,-2.46656 1.594676,-3.45457 1.260034,-1.50431 3.011193,-2.4424 4.950226,-2.65183 0.100092,-0.0108 0.227544,-0.0224 0.283227,-0.0257 0.05568,-0.003 0.127439,-0.009 0.159457,-0.0118 l 0.05821,-0.006 1.53e-4,-0.80641 c 7.6e-5,-0.44353 0.0038,-0.81212 0.0082,-0.81908 0.0064,-0.0101 1.150535,-0.0121 5.687147,-0.0101 l 5.679106,0.003 v 3.84215 3.84216 l -1.842615,0.005 c -1.834888,0.005 -1.842608,0.005 -1.840917,0.0253 9.29e-4,0.0111 0.01107,0.0795 0.02252,0.15186 0.02646,0.16726 0.04829,0.34621 0.06902,0.5658 0.01418,0.15016 0.01688,0.41784 0.02028,2.00664 0.0033,1.55582 0.0018,1.83513 -0.01015,1.84504 -0.01004,0.008 -0.141108,0.0124 -0.457831,0.0143 l -0.443764,0.003 -0.0272,0.0658 c -0.100279,0.24259 -0.30712,0.44665 -0.561595,0.55404 l -0.07087,0.0299 -0.0059,0.50531 c -0.0063,0.53524 -0.01337,0.63728 -0.06589,0.94575 -0.144688,0.84972 -0.541846,1.67097 -1.12855,2.33364 -0.641895,0.725 -1.508525,1.24912 -2.451489,1.48262 -0.250586,0.062 -0.473335,0.0992 -0.777545,0.12965 l -0.07593,0.008 -0.0051,0.35435 -0.0051,0.35435 -0.92637,0.002 c -0.723104,0.001 -0.942288,-10e-4 -0.998918,-0.0115 z m 1.282398,-1.00789 v -0.38502 l -0.604925,0.003 -0.604924,0.003 -0.0569,0.0267 c -0.196955,0.0924 -0.282446,0.31843 -0.192688,0.50957 0.05038,0.10728 0.125291,0.17431 0.233478,0.20893 0.05159,0.0165 0.108378,0.0182 0.641281,0.0187 l 0.584676,5.5e-4 z m -5.148186,-3.80161 c 0.115461,-0.0301 0.205256,-0.0831 0.299684,-0.17665 0.06855,-0.068 0.09584,-0.10401 0.128311,-0.16947 0.07905,-0.15941 0.07411,-0.0232 0.07093,-1.95689 l -0.0028,-1.72619 -0.02713,-0.0742 c -0.03919,-0.1073 -0.08472,-0.17865 -0.165575,-0.25951 -0.08101,-0.081 -0.152508,-0.12657 -0.259504,-0.16538 -0.06697,-0.0243 -0.08816,-0.0269 -0.215996,-0.0271 -0.122398,-1.5e-4 -0.151411,0.003 -0.21261,0.0237 -0.208568,0.0702 -0.363414,0.22317 -0.437115,0.43183 l -0.02857,0.0809 -1.1e-5,0.3843 -1e-5,0.3843 0.122678,0.0612 c 0.141184,0.0704 0.205736,0.1176 0.309762,0.22648 0.244915,0.25635 0.334639,0.61745 0.239938,0.96566 -0.02989,0.10991 -0.110884,0.26549 -0.188836,0.36274 -0.09535,0.11895 -0.212596,0.21055 -0.364582,0.28482 l -0.124022,0.0606 v 0.34893 c 0,0.39821 0.0066,0.45267 0.0709,0.58659 0.08436,0.17568 0.268768,0.32045 0.455566,0.35765 0.03063,0.006 0.06479,0.0132 0.07593,0.0157 0.03656,0.008 0.191118,-0.004 0.253107,-0.0199 z m 9.18349,-0.009 c 0.11156,-0.0354 0.199178,-0.0893 0.285031,-0.17549 0.05804,-0.0582 0.08269,-0.0931 0.118184,-0.16705 0.02466,-0.0514 0.05014,-0.11623 0.05661,-0.14407 0.01256,-0.054 0.02723,-0.73534 0.01674,-0.77714 -0.0046,-0.0183 -0.02458,-0.0315 -0.08673,-0.0571 -0.115296,-0.0476 -0.225463,-0.12295 -0.326027,-0.22297 -0.137272,-0.13652 -0.217279,-0.27443 -0.269586,-0.46466 -0.02351,-0.0855 -0.02697,-0.11728 -0.02724,-0.24983 -3.83e-4,-0.18756 0.02093,-0.28193 0.100559,-0.44547 0.109815,-0.22554 0.30566,-0.41213 0.521405,-0.49678 0.03915,-0.0154 0.07611,-0.0339 0.08213,-0.0411 0.0076,-0.009 0.0096,-0.12586 0.0065,-0.38054 -0.0049,-0.40865 -0.0074,-0.42703 -0.07589,-0.56477 -0.05118,-0.10296 -0.180286,-0.23383 -0.283011,-0.28689 -0.149361,-0.0771 -0.33277,-0.0986 -0.492961,-0.0576 -0.124667,0.0319 -0.211362,0.0827 -0.310159,0.18192 -0.06533,0.0656 -0.09532,0.10512 -0.123325,0.16258 -0.07937,0.16285 -0.0727,0.001 -0.07647,1.85274 -0.0022,1.09295 1.91e-4,1.68857 0.0071,1.7532 0.0181,0.16929 0.07832,0.29788 0.193398,0.41296 0.09954,0.0995 0.229601,0.16764 0.367716,0.19254 0.08417,0.0152 0.225675,0.004 0.316028,-0.0244 z m -10.183392,-1.91835 c 0.171286,-0.0919 0.251199,-0.27612 0.196402,-0.45266 -0.08801,-0.28355 -0.445203,-0.3702 -0.653805,-0.15861 -0.194573,0.19736 -0.126461,0.51763 0.133342,0.62698 0.05124,0.0216 0.0709,0.0242 0.159674,0.0214 0.09235,-0.003 0.106787,-0.006 0.164387,-0.0371 z m 11.152482,0.005 c 0.07432,-0.0357 0.145299,-0.10647 0.184288,-0.18374 0.02772,-0.0549 0.03037,-0.0691 0.03037,-0.16166 0,-0.0942 -0.0024,-0.1063 -0.03315,-0.16879 -0.04124,-0.0838 -0.121168,-0.1596 -0.202275,-0.1919 -0.04623,-0.0184 -0.07793,-0.0232 -0.154361,-0.0232 -0.08761,-1e-4 -0.102125,0.003 -0.162891,0.0323 -0.212175,0.103 -0.287773,0.36724 -0.159869,0.55878 0.0461,0.069 0.120794,0.12821 0.195429,0.15483 0.08008,0.0286 0.224977,0.0206 0.302454,-0.0166 z m -3.709781,-4.66065 0.617688,-0.60999 h 3.87312 3.873121 v -3.2094 -3.20939 l -5.03935,0.003 -5.039349,0.003 v 3.20432 3.20433 l 0.531523,0.005 0.531524,0.005 0.0026,0.61071 c 0.0022,0.52202 0.0047,0.61024 0.01702,0.60745 0.0079,-0.002 0.292366,-0.27775 0.632094,-0.61324 z m 0.03626,-2.10087 c -0.0027,-0.007 -0.0037,-0.14942 -0.0022,-0.31641 l 0.0027,-0.30361 h 2.536127 2.536126 v 0.31385 0.31385 l -2.533905,0.003 c -2.033453,0.002 -2.534875,3e-5 -2.538812,-0.0102 z m 0.01236,-1.40718 c -0.01574,-0.0115 -0.01704,-0.0398 -0.01459,-0.31639 l 0.0027,-0.30372 3.287853,-0.003 3.287852,-0.003 v 0.31279 c 0,0.27587 -0.0019,0.31351 -0.01601,0.31893 -0.0088,0.003 -1.481776,0.006 -3.273263,0.006 -2.58983,0 -3.260789,-0.003 -3.274531,-0.0126 z m -0.01021,-1.41149 c -0.0084,-0.008 -0.009,-0.59317 -6.05e-4,-0.61507 0.0056,-0.0145 0.124513,-0.016 1.243259,-0.016 0.948701,0 1.239947,0.003 1.249263,0.0121 0.0089,0.009 0.01215,0.0903 0.01215,0.3029 0,0.15991 -0.0028,0.29795 -0.0061,0.30676 -0.0056,0.0145 -0.124988,0.016 -1.248659,0.016 -0.683382,0 -1.24555,-0.003 -1.249263,-0.007 z"
       style="fill:#fe8138;stroke-width:0.01012426" />
  </g>
</svg>
