<?xml version="1.0" encoding="UTF-8" standalone="no"?>
<!-- Created with Inkscape (http://www.inkscape.org/) -->

<svg
   xmlns:dc="http://purl.org/dc/elements/1.1/"
   xmlns:cc="http://creativecommons.org/ns#"
   xmlns:rdf="http://www.w3.org/1999/02/22-rdf-syntax-ns#"
   xmlns:svg="http://www.w3.org/2000/svg"
   xmlns="http://www.w3.org/2000/svg"
   xmlns:sodipodi="http://sodipodi.sourceforge.net/DTD/sodipodi-0.dtd"
   xmlns:inkscape="http://www.inkscape.org/namespaces/inkscape"
   width="18.797659mm"
   height="18.520967mm"
   viewBox="0 0 18.797659 18.520967"
   version="1.1"
   id="svg8"
   inkscape:version="0.92.4 (5da689c313, 2019-01-14)"
   sodipodi:docname="colocation_vertical_icon_1.svg">
  <defs
     id="defs2" />
  <sodipodi:namedview
     id="base"
     pagecolor="#ffffff"
     bordercolor="#666666"
     borderopacity="1.0"
     inkscape:pageopacity="0.0"
     inkscape:pageshadow="2"
     inkscape:zoom="2.8"
     inkscape:cx="26.028167"
     inkscape:cy="8.8659161"
     inkscape:document-units="mm"
     inkscape:current-layer="layer1"
     showgrid="false"
     fit-margin-top="0"
     fit-margin-left="0"
     fit-margin-right="0"
     fit-margin-bottom="0"
     inkscape:window-width="1920"
     inkscape:window-height="1017"
     inkscape:window-x="-8"
     inkscape:window-y="-8"
     inkscape:window-maximized="1" />
  <metadata
     id="metadata5">
    <rdf:RDF>
      <cc:Work
         rdf:about="">
        <dc:format>image/svg+xml</dc:format>
        <dc:type
           rdf:resource="http://purl.org/dc/dcmitype/StillImage" />
        <dc:title></dc:title>
      </cc:Work>
    </rdf:RDF>
  </metadata>
  <g
     inkscape:label="Layer 1"
     inkscape:groupmode="layer"
     id="layer1"
     transform="translate(3.6883616,-220.0911)">
    <path
       style="fill:#fe8139;stroke-width:0.00994057"
       d="m -2.4356116,238.59915 c -0.32577,-0.0507 -0.59461,-0.18646 -0.82516,-0.41667 -0.20899,-0.20868 -0.33841,-0.44883 -0.40444,-0.75049 -0.0222,-0.10159 -0.0228,-0.11856 -0.023,-0.6362 l -1.5e-4,-0.53182 0.73063,-0.005 0.73064,-0.005 0.005,-4.63229 c 0.005,-4.4808 0.006,-4.63443 0.0236,-4.69693 0.0839,-0.29296 0.30482,-0.52796 0.57898,-0.61607 0.0498,-0.016 0.12797,-0.0338 0.1737,-0.0395 0.11664,-0.0146 14.1961296,-0.0146 14.3127596,0 0.11318,0.0142 0.24853,0.0594 0.34189,0.11418 0.0904,0.0531 0.2095,0.16245 0.27174,0.24968 0.0517,0.0725 0.11318,0.20143 0.13907,0.29173 0.0179,0.0625 0.0187,0.21613 0.0234,4.69693 l 0.005,4.6323 0.73062,0.005 0.73063,0.005 -1.4e-4,0.53183 c -1.5e-4,0.51763 -7.7e-4,0.5346 -0.023,0.63619 -0.13063,0.59677 -0.55594,1.0232 -1.15297,1.156 l -0.0962,0.0214 -8.0916296,0.002 c -6.88434,0.002 -8.10494,-2.6e-4 -8.18084,-0.0121 z m 16.1946996,-0.58136 c 0.1949,-0.0267 0.36335,-0.11093 0.50521,-0.25279 0.10512,-0.10513 0.16939,-0.20726 0.2127,-0.33798 0.0395,-0.11915 0.0522,-0.22694 0.0487,-0.41253 l -0.003,-0.15408 -3.17081,-0.002 -3.1708096,-0.002 -0.29385,0.29326 -0.29387,0.29326 h -1.88298 -1.88296 l -0.29387,-0.29326 -0.29386,-0.29326 -3.17080996,0.002 -3.17080004,0.002 -0.003,0.15408 c -0.002,0.0847 0.002,0.19209 0.008,0.23857 0.0147,0.11334 0.0601,0.24625 0.11705,0.34272 0.0623,0.1056 0.19118,0.23556 0.29833,0.3009 0.0885,0.0539 0.23584,0.10716 0.33497,0.121 0.0929,0.013 16.0107796,0.0131 16.1054996,1.1e-4 z m -6.1127296,-1.46305 0.29088,-0.29077 2.5571596,-0.005 2.55714,-0.005 v -4.59254 -4.59254 l -0.0226,-0.046 c -0.0306,-0.0622 -0.0847,-0.11566 -0.14551,-0.14401 l -0.0505,-0.0236 h -7.1224096 -7.12243 l -0.0505,0.0236 c -0.0609,0.0283 -0.11485,0.0818 -0.14552,0.14401 l -0.0226,0.046 v 4.59254 4.59254 l 2.55719004,0.005 2.55718996,0.005 0.29076,0.29077 0.29076,0.29076 h 1.64512 1.64513 z m -8.69093,-0.89465 c -0.003,-0.007 -0.004,-0.66777 -0.002,-1.46872 l 0.003,-1.4563 h 6.75462 6.7546196 v 1.46623 1.46623 l -6.7524396,0.002 c -5.39674996,0.002 -6.7534,0 -6.75718,-0.0102 z m 12.9256996,-1.44885 c 0.002,-0.8089 10e-4,-0.87066 -0.0143,-0.88222 -0.0222,-0.0163 -12.27969956,-0.0185 -12.31024956,-0.002 -0.0188,0.0101 -0.0192,0.0302 -0.0192,0.87808 0,0.47729 0.003,0.87078 0.007,0.87442 0.004,0.004 2.78042996,0.005 6.17061996,0.004 l 6.1639796,-0.002 z m -11.74629956,0.27464 c -0.008,-0.0102 -0.0106,-0.0946 -0.009,-0.29076 l 0.003,-0.27712 0.28759,-0.003 c 0.22346,-0.002 0.28938,1.9e-4 0.29558,0.0101 0.0121,0.0191 0.0102,0.53213 -0.002,0.555 -0.0102,0.0183 -0.0236,0.0193 -0.28705,0.0193 -0.2224,0 -0.279,-0.003 -0.2881,-0.0136 z m 1.17855996,0.007 c -0.004,-0.004 -0.007,-0.13568 -0.007,-0.2934 v -0.28678 l 0.29076,0.003 0.29076,0.003 0.003,0.26841 c 0.002,0.14761 3.4e-4,0.27846 -0.003,0.29076 l -0.005,0.0223 h -0.28146 c -0.1548,0 -0.28444,-0.003 -0.28809,-0.007 z m 1.17313,1.5e-4 c -0.004,-0.004 -0.007,-0.13576 -0.007,-0.2934 v -0.28662 h 0.2934 0.29339 l -0.003,0.29076 -0.003,0.29076 -0.28398,0.003 c -0.15619,10e-4 -0.28704,-4.3e-4 -0.29076,-0.004 z m 1.17077,-0.006 c -0.003,-0.007 -0.004,-0.1379 -0.002,-0.29091 l 0.003,-0.2782 0.29091,-0.003 0.29092,-0.003 -0.003,0.29091 -0.003,0.29092 -0.28605,0.003 c -0.22504,0.002 -0.28708,-1.1e-4 -0.29092,-0.0101 z m 1.17943,-0.001 c -0.008,-0.0102 -0.0106,-0.0946 -0.009,-0.29076 l 0.003,-0.27712 0.2876,-0.003 c 0.22346,-0.002 0.28937,1.8e-4 0.29558,0.0101 0.0121,0.0191 0.0102,0.53212 -0.002,0.55499 -0.0101,0.0183 -0.0236,0.0193 -0.28707,0.0193 -0.22238,0 -0.27899,-0.003 -0.28808,-0.0136 z m 1.17855,0.007 c -0.004,-0.004 -0.007,-0.13568 -0.007,-0.2934 v -0.28676 l 0.29076,0.003 0.29076,0.003 0.003,0.26839 c 0.002,0.14761 3.4e-4,0.27846 -0.003,0.29076 l -0.005,0.0223 h -0.28146 c -0.15481,0 -0.28445,-0.003 -0.28809,-0.007 z m -7.05765,-2.35577 c -0.004,-0.004 -0.007,-0.39655 -0.007,-0.87293 0,-0.66043 0.003,-0.86899 0.012,-0.87808 0.0138,-0.0138 0.54087004,-0.0173 0.56220004,-0.004 0.0101,0.006 0.012,0.18933 0.0101,0.88208 l -0.002,0.87414 -0.28398,0.003 c -0.1562,0.001 -0.28704004,-4.1e-4 -0.29076004,-0.004 z m 1.17284004,-1.5e-4 c -0.004,-0.004 -0.007,-0.19734 -0.007,-0.43043 0,-0.31637 0.003,-0.42682 0.012,-0.43573 0.009,-0.009 0.0865,-0.012 0.28793,-0.012 0.2627,0 0.27649,9.2e-4 0.28629,0.0192 0.0111,0.0207 0.0151,0.8215 0.004,0.84976 -0.005,0.0138 -0.0404,0.0157 -0.29159,0.0157 -0.15706,0 -0.28853,-0.003 -0.29218,-0.007 z m 1.17629996,-1.31547 v -1.32239 l 0.29076,0.003 0.29077,0.003 v 1.31712 1.31713 l -0.29077,0.003 -0.29076,0.003 z m 1.17762,1.30983 c -0.003,-0.007 -0.004,-0.46886 -0.002,-1.02652 l 0.003,-1.01394 h 0.28827 0.28828 v 1.02388 1.02387 l -0.28604,0.003 c -0.22349,0.002 -0.2871,-1.1e-4 -0.29085,-0.0102 z m 1.173,0 c -0.003,-0.007 -0.004,-0.66792 -0.002,-1.46888 l 0.003,-1.4563 h 0.28828 0.28828 v 1.46624 1.46623 l -0.28604,0.003 c -0.22349,0.002 -0.2871,-1.1e-4 -0.29083,-0.0102 z m 1.17497,0.006 c -0.004,-0.004 -0.007,-0.85938 -0.007,-1.90164 0,-1.46063 0.003,-1.89774 0.012,-1.90692 0.009,-0.009 0.0854,-0.012 0.28259,-0.012 0.23281,0 0.27286,0.002 0.28628,0.0156 0.0141,0.0141 0.0156,0.19998 0.0156,1.89783 0,1.03523 -0.003,1.8893 -0.006,1.89795 -0.005,0.0138 -0.0404,0.0157 -0.29159,0.0157 -0.15705,0 -0.28854,-0.003 -0.29218,-0.007 z m 1.17245,-0.009 c -0.009,-0.024 -0.007,-3.18832 0.002,-3.20283 0.006,-0.0102 0.0722,-0.012 0.29558,-0.0102 l 0.2876,0.003 v 1.61037 1.61037 l -0.28965,0.003 c -0.25763,0.002 -0.2903,8.8e-4 -0.29572,-0.0133 z m 1.18361,0.009 c -0.004,-0.004 -0.007,-0.3992 -0.007,-0.87884 0,-0.78602 0.002,-0.87263 0.0157,-0.87807 0.0235,-0.009 0.54394,-0.007 0.5584,0.002 0.0102,0.006 0.012,0.18932 0.0102,0.88206 l -0.002,0.87415 -0.28398,0.003 c -0.1562,0.001 -0.28704,-4.2e-4 -0.29078,-0.004 z m 1.17087,-0.006 c -0.003,-0.007 -0.004,-0.79988 -0.002,-1.76212 l 0.003,-1.74954 h 0.28828 0.28827 v 1.75948 1.75947 l -0.28604,0.003 c -0.22348,0.002 -0.28709,-1.1e-4 -0.29082,-0.0102 z m 1.17496,0.006 c -0.004,-0.004 -0.007,-0.52836 -0.007,-1.16603 0,-0.88851 0.003,-1.1622 0.012,-1.17133 0.009,-0.009 0.0865,-0.012 0.28793,-0.012 0.2626996,0 0.2764896,9.4e-4 0.2862896,0.0193 0.0112,0.0208 0.0153,2.29216 0.004,2.32096 -0.005,0.0138 -0.0404,0.0157 -0.2915996,0.0157 -0.15705,0 -0.28854,-0.003 -0.29218,-0.007 z m 1.1762996,-2.34432 v -2.35125 l 0.29076,0.003 0.29076,0.003 v 2.34598 2.34597 l -0.29076,0.003 -0.29076,0.003 z m 1.17764,2.33867 c -0.003,-0.007 -0.004,-0.93183 -0.002,-2.05536 l 0.003,-2.04279 h 0.28827 0.28828 v 2.05272 2.05273 l -0.28605,0.003 c -0.22349,0.002 -0.28708,-1.1e-4 -0.29082,-0.0102 z m -12.9328396,-2.9427 c -0.003,-0.007 -0.004,-0.13775 -0.002,-0.29076 l 0.003,-0.2782 0.87415004,-0.002 c 0.69275,-0.002 0.87579,0 0.88207,0.0102 0.009,0.0144 0.0113,0.53488 0.002,0.55841 -0.005,0.0142 -0.0923,0.0157 -0.88005,0.0157 -0.69502,0 -0.87500004,-0.003 -0.87884004,-0.0126 z m 1e-5,-1.17296 c -0.003,-0.007 -0.004,-0.13777 -0.002,-0.29078 l 0.003,-0.27821 h 2.05274 2.05273 v 0.28828 0.28828 l -2.05055,0.002 c -1.64681996,0.002 -2.0515,0 -2.05537,-0.0102 z m 1.17511004,-2.35 c -0.009,-0.009 -0.008,-0.77111 9.8e-4,-0.78423 0.004,-0.006 0.38742,-0.13801 0.85201,-0.29385 l 0.84470996,-0.28333 0.0356,-0.0939 c 0.0196,-0.0516 0.0589,-0.1461 0.0872,-0.20997 0.0284,-0.0638 0.0516,-0.12129 0.0516,-0.12757 0,-0.006 -0.16619,-0.40358 -0.36931,-0.88289 -0.20312,-0.47931 -0.37109,-0.88265 -0.37329,-0.89631 -0.003,-0.0214 0.0551,-0.0839 0.42692,-0.45519 l 0.43089,-0.43034 0.89201,0.37815 c 0.4906,0.20798 0.89552,0.37815 0.89984,0.37815 0.004,0 0.0567,-0.0218 0.11651,-0.0485 0.0598,-0.0267 0.15287,-0.0657 0.2069,-0.0867 0.054,-0.021 0.10322,-0.0463 0.10934,-0.056 0.006,-0.0102 0.13638,-0.39239 0.28947,-0.8502 l 0.27833,-0.83238 h 0.80022 0.80022 l 0.27834,0.83238 c 0.15308,0.45781 0.28348,0.84064 0.28978,0.85072 0.006,0.0102 0.0511,0.0332 0.0994,0.0515 0.0484,0.0182 0.14127,0.057 0.20645,0.0862 0.0652,0.0292 0.12212,0.0531 0.12654,0.0531 0.004,0 0.40937,-0.1702 0.89989,-0.37822 l 0.89184,-0.37821 0.43097,0.4304 c 0.3715996,0.37111 0.4304296,0.43382 0.4270196,0.45526 -0.002,0.0137 -0.1707896,0.41829 -0.3746896,0.89916 l -0.37073,0.87432 0.0156,0.0402 c 0.008,0.0221 0.0324,0.0782 0.053,0.1247 0.0205,0.0465 0.0534,0.127 0.073,0.17894 l 0.0356,0.0944 0.8447596,0.28234 c 0.46462,0.15529 0.84808,0.28724 0.85214,0.29325 0.004,0.006 0.006,0.18536 0.005,0.39859 l -0.002,0.38768 -0.29076,0.003 -0.29076,0.003 v -0.17329 c 0,-0.0953 -0.003,-0.18015 -0.006,-0.18853 -0.007,-0.0174 -0.9130896,-0.3233 -0.9243696,-0.312 -0.004,0.004 6e-4,0.0658 0.0102,0.13774 0.0203,0.15991 0.0415,0.4965 0.0328,0.51922 -0.006,0.0149 -0.0347,0.0165 -0.29396,0.0165 h -0.2876 l -0.006,-0.11679 c -0.0212,-0.39463 -0.0776,-0.69849 -0.1907,-1.02874 -0.42577,-1.24305 -1.51992,-2.15324 -2.8173,-2.34365 -0.45338,-0.0666 -0.92754,-0.0437 -1.3665,0.0659 -0.98522,0.24588 -1.82516,0.91208 -2.28555,1.81279 -0.23981,0.46919 -0.35846,0.92466 -0.3891,1.49375 l -0.006,0.1168 h -0.28761 c -0.2592,0 -0.28823,-0.002 -0.29396,-0.0166 -0.009,-0.0232 0.013,-0.36486 0.0333,-0.52009 0.009,-0.071 0.0136,-0.13247 0.0101,-0.13647 -0.0116,-0.0116 -0.91797996,0.29384 -0.92478996,0.3116 -0.003,0.008 -0.006,0.0932 -0.006,0.18838 v 0.17315 h -0.28662 c -0.15764,0 -0.28961,-0.003 -0.29325,-0.007 z m 2.39909996,-2.60278 c 0.18081,-0.22153 0.39576,-0.433 0.62947,-0.6193 0.0683,-0.0545 0.11393,-0.0974 0.10882,-0.10257 -0.0127,-0.0127 -0.98905,-0.42606 -1.00667,-0.42617 -0.0176,-1.1e-4 -0.30828,0.28746 -0.30828,0.30491 0,0.0113 0.40941,0.98601 0.42421,1.00997 0.004,0.007 0.0189,-0.003 0.0391,-0.0281 0.0177,-0.0216 0.0687,-0.084 0.11333,-0.13871 z m 6.72908,-0.33605 c 0.11513,-0.2723 0.20932,-0.50049 0.20932,-0.50708 0,-0.0175 -0.29072,-0.30501 -0.30827,-0.30496 -0.0176,0 -0.99393,0.41347 -1.00674,0.42628 -0.005,0.005 0.0322,0.0413 0.089,0.0862 0.27133,0.21471 0.50028,0.44363 0.71361,0.71352 0.0425,0.0538 0.081,0.0941 0.0856,0.0894 0.004,-0.005 0.10244,-0.23111 0.21756,-0.50342 z m -4.0005,-1.14735 c 0.0974,-0.0125 0.20859,-0.0166 0.4523,-0.0166 0.3128,0 0.36933,0.004 0.62873,0.0398 0.042,0.006 0.0472,0.004 0.0472,-0.0122 0,-0.0234 -0.28734,-0.88897 -0.30077,-0.90594 -0.007,-0.009 -0.0948,-0.0124 -0.37518,-0.0124 -0.28043,0 -0.36766,0.003 -0.3752,0.0124 -0.0134,0.017 -0.30077,0.8825 -0.30077,0.90594 0,0.0167 0.005,0.0181 0.0472,0.0122 0.026,-0.004 0.10537,-0.0141 0.17644,-0.0232 z m -1.89471,4.08052 c -0.0102,-0.12001 0.0224,-0.38054 0.0706,-0.56997 0.21808,-0.85784 0.90239,-1.52066 1.76941,-1.71386 0.42145,-0.0939 0.91061,-0.062 1.3114,0.0856 0.13762,0.0507 0.35735,0.16103 0.47791,0.24004 0.4959,0.32498 0.84915,0.81834 0.99404,1.38827 0.0482,0.18943 0.0805,0.44996 0.0706,0.56997 -8.1e-4,0.0102 -0.063,0.012 -0.29178,0.0102 l -0.29076,-0.003 -0.006,-0.0994 c -0.0155,-0.25407 -0.0755,-0.47061 -0.19392,-0.70081 -0.40453,-0.78636 -1.32023,-1.14869 -2.15769,-0.85378 -0.65655,0.23121 -1.12206,0.85235 -1.16511,1.55459 l -0.006,0.0994 -0.29077,0.003 c -0.2288,0.002 -0.29098,0 -0.29179,-0.0102 z"
       id="path826"
       inkscape:connector-curvature="0" />
  </g>
</svg>
