<?xml version="1.0" encoding="UTF-8" standalone="no"?>
<svg
   xmlns:dc="http://purl.org/dc/elements/1.1/"
   xmlns:cc="http://creativecommons.org/ns#"
   xmlns:rdf="http://www.w3.org/1999/02/22-rdf-syntax-ns#"
   xmlns:svg="http://www.w3.org/2000/svg"
   xmlns="http://www.w3.org/2000/svg"
   width="13.229205mm"
   height="13.230047mm"
   viewBox="0 0 13.229205 13.230047"
   version="1.1"
   id="svg8">
  <defs
     id="defs2" />
  <metadata
     id="metadata5">
    <rdf:RDF>
      <cc:Work
         rdf:about="">
        <dc:format>image/svg+xml</dc:format>
        <dc:type
           rdf:resource="http://purl.org/dc/dcmitype/StillImage" />
        <dc:title></dc:title>
      </cc:Work>
    </rdf:RDF>
  </metadata>
  <g
     style="fill:#ffffff;fill-opacity:1"
     id="layer1"
     transform="translate(98.959135,-365.81382)">
    <path
       style="fill:#ffffff;stroke-width:0.0071791;fill-opacity:1"
       d="m -94.956654,379.03302 c -0.346394,-0.0539 -0.625951,-0.33283 -0.683776,-0.68215 -0.01047,-0.0633 -0.01153,-0.14408 -0.0094,-0.71741 0.0024,-0.6353 0.0027,-0.64709 0.01794,-0.70419 0.03234,-0.1212 0.08949,-0.23718 0.160011,-0.32479 l 0.03247,-0.0403 -0.04625,-0.0612 c -0.05712,-0.0756 -0.116809,-0.19776 -0.142541,-0.29175 l -0.01944,-0.071 -0.0023,-0.64612 c -0.002,-0.56837 -9.33e-4,-0.65454 0.0093,-0.71605 0.05833,-0.3519 0.32852,-0.62311 0.681119,-0.68369 0.05666,-0.01 0.532006,-0.011 4.268831,-0.011 3.736825,0 4.212172,10e-4 4.26883,0.011 0.357876,0.0615 0.63455,0.34571 0.68423,0.70289 0.005,0.0359 0.0077,0.2711 0.0077,0.66771 0,0.65387 -6.24e-4,0.66738 -0.03646,0.78822 -0.02092,0.0706 -0.08038,0.18466 -0.131611,0.25259 l -0.04469,0.0593 0.02085,0.0245 c 0.0599,0.0704 0.120147,0.17893 0.151978,0.27375 0.03879,0.11557 0.03988,0.13727 0.03991,0.80018 0,0.39616 -0.0027,0.63099 -0.0077,0.66685 -0.03727,0.26799 -0.210067,0.50628 -0.45724,0.63058 -0.02078,0.0105 -0.06664,0.0287 -0.101918,0.0405 -0.137459,0.0461 0.206292,0.0428 -4.401081,0.0421 -3.495377,-5.5e-4 -4.206634,-0.002 -4.258748,-0.0104 z m 8.51059,-0.5646 c 0.05778,-0.0271 0.1138,-0.0823 0.139082,-0.13699 l 0.02063,-0.0447 v -0.62099 -0.621 l -0.02063,-0.0447 c -0.02528,-0.0547 -0.0813,-0.10991 -0.139082,-0.13699 l -0.0413,-0.0194 h -4.203364 -4.203364 l -0.04382,0.0203 c -0.05296,0.0245 -0.10895,0.0793 -0.136991,0.1341 l -0.0202,0.0395 v 0.62818 0.62817 l 0.02021,0.0395 c 0.03627,0.0709 0.09879,0.12413 0.173629,0.14789 0.0231,0.007 0.848774,0.009 4.221312,0.008 l 4.192595,-10e-4 z m -7.91821,-0.54322 c -0.232686,-0.0804 -0.247794,-0.40535 -0.02369,-0.50953 0.05564,-0.0259 0.144878,-0.0301 0.202987,-0.01 0.171432,0.0605 0.237991,0.26293 0.136641,0.41563 -0.06497,0.0979 -0.202125,0.14281 -0.315938,0.10348 z m 4.962196,4.8e-4 c -0.07243,-0.0253 -0.130558,-0.0785 -0.163476,-0.14986 -0.01333,-0.0289 -0.016,-0.0473 -0.016,-0.11005 0,-0.0668 0.0022,-0.0801 0.0193,-0.11656 0.02462,-0.0525 0.07672,-0.10463 0.131555,-0.13156 l 0.04298,-0.0211 h 1.177373 1.177373 l 0.04118,0.0193 c 0.05261,0.0247 0.108703,0.0808 0.133359,0.13336 0.01711,0.0365 0.0193,0.0497 0.0193,0.11656 0,0.0668 -0.0022,0.0801 -0.0193,0.11655 -0.02466,0.0526 -0.08075,0.10871 -0.133359,0.13336 l -0.04118,0.0193 -1.166605,0.002 c -1.093219,10e-4 -1.168861,8.2e-4 -1.202499,-0.0109 z m 2.955766,-1.66113 c 0.05732,-0.0269 0.10867,-0.0773 0.136695,-0.13421 l 0.02327,-0.0473 v -0.62474 -0.62473 l -0.02154,-0.0427 c -0.0275,-0.0545 -0.0777,-0.10473 -0.130678,-0.13072 l -0.04162,-0.0204 h -4.210543 -4.210543 l -0.04162,0.0204 c -0.05311,0.0261 -0.105727,0.0787 -0.13179,0.13179 l -0.02043,0.0416 v 0.62458 0.62458 l 0.0191,0.0408 c 0.0348,0.0742 0.103897,0.13409 0.177819,0.15406 0.02588,0.007 0.917676,0.009 4.221819,0.008 l 4.189006,-10e-4 z m -7.917754,-0.54343 c -0.161622,-0.06 -0.231662,-0.24012 -0.151707,-0.39013 0.105324,-0.19761 0.391433,-0.19033 0.49085,0.0125 0.019,0.0388 0.02104,0.0499 0.02104,0.11471 10e-7,0.0636 -0.0023,0.0768 -0.02025,0.11562 -0.02578,0.0558 -0.08131,0.11092 -0.137685,0.13671 -0.05769,0.0264 -0.147083,0.0311 -0.202244,0.0106 z m 4.964173,-3.3e-4 c -0.08353,-0.0268 -0.160236,-0.1083 -0.178425,-0.18957 -0.03708,-0.1657 0.0625,-0.31543 0.22778,-0.34249 0.05981,-0.01 2.224405,-0.009 2.285016,7.1e-4 0.265894,0.0431 0.316803,0.40203 0.07394,0.52124 l -0.04139,0.0203 -1.163015,0.001 c -1.108941,10e-4 -1.164916,8.5e-4 -1.203904,-0.0117 z m -7.145391,1.38254 c -0.05355,-0.0178 -0.08597,-0.0391 -0.175888,-0.11599 -0.29846,-0.25507 -0.588622,-0.55138 -0.823778,-0.84123 -1.043359,-1.28606 -1.539893,-2.92526 -1.387028,-4.57899 0.114661,-1.24044 0.590369,-2.41255 1.373803,-3.38495 0.246796,-0.30632 0.58035,-0.64529 0.890846,-0.90532 0.512464,-0.42916 1.13333,-0.79408 1.770164,-1.04042 1.115759,-0.43162 2.357308,-0.53608 3.53505,-0.29745 2.491566,0.50483 4.45735,2.47223 4.957033,4.96111 0.04786,0.23839 0.08131,0.47421 0.104789,0.73882 0.01567,0.17661 0.0219,0.66298 0.01096,0.85578 -0.02042,0.35993 -0.0799,0.79814 -0.119783,0.88243 -0.02382,0.0504 -0.07468,0.10101 -0.128891,0.12836 -0.03935,0.0199 -0.04858,0.0215 -0.118067,0.0215 -0.06888,0 -0.07909,-0.002 -0.118363,-0.0211 -0.05441,-0.0267 -0.102873,-0.075 -0.129068,-0.12851 -0.02967,-0.0607 -0.03145,-0.11737 -0.0082,-0.26017 0.03521,-0.21588 0.07729,-0.67237 0.06326,-0.68639 -0.0032,-0.003 -0.499971,-0.005 -1.103882,-0.004 l -1.098021,0.002 -0.0048,0.17948 c -0.0058,0.21696 -0.01797,0.45087 -0.03089,0.594 -0.0113,0.12529 -0.02962,0.17398 -0.08646,0.2299 -0.109765,0.10799 -0.280002,0.10812 -0.387822,3e-4 -0.074,-0.074 -0.08735,-0.13186 -0.07208,-0.31238 0.01184,-0.13997 0.0235,-0.38807 0.02708,-0.57643 l 0.0022,-0.11487 -1.369413,-0.002 -1.369414,-0.002 -5.4e-5,0.41461 c -2.2e-5,0.23484 -0.0031,0.43313 -0.007,0.45732 -0.015,0.0916 -0.07214,0.1673 -0.156429,0.20723 -0.04375,0.0207 -0.05469,0.0229 -0.116635,0.0229 -0.06258,0 -0.07235,-0.002 -0.115619,-0.0233 -0.05692,-0.028 -0.107336,-0.0794 -0.134201,-0.1367 l -0.01924,-0.041 -0.0036,-0.44869 -0.0036,-0.4487 -1.370497,-0.002 -1.370498,-0.002 0.0049,0.1777 c 0.0057,0.20432 0.01514,0.39314 0.02688,0.53498 0.0045,0.0544 0.0066,0.12059 0.0047,0.14717 -0.0068,0.0945 -0.06477,0.17667 -0.154767,0.21931 -0.04383,0.0208 -0.05456,0.0229 -0.11648,0.0227 -0.05872,-1.1e-4 -0.07394,-0.003 -0.1095,-0.0194 -0.09126,-0.0425 -0.149057,-0.12364 -0.163017,-0.22892 -0.01446,-0.10903 -0.02908,-0.36727 -0.04031,-0.71182 l -0.0046,-0.14181 -1.099413,0.002 -1.099412,0.002 0.0021,0.0574 c 0.0059,0.15814 0.0369,0.43987 0.07036,0.63882 0.0763,0.45374 0.193187,0.85963 0.372155,1.29236 0.06222,0.15044 0.237001,0.501 0.322141,0.64612 l 0.06739,0.11486 0.566447,0.004 c 0.558379,0.004 0.56698,0.004 0.603916,0.019 0.07688,0.0316 0.125576,0.0789 0.161415,0.15692 0.01357,0.0295 0.01647,0.048 0.01636,0.1041 -1.09e-4,0.0586 -0.0028,0.074 -0.01924,0.10925 -0.02663,0.0572 -0.07707,0.10863 -0.134063,0.13669 l -0.04725,0.0233 -0.375789,0.002 c -0.211256,0.001 -0.374776,0.005 -0.373477,0.008 0.0047,0.0127 0.165173,0.2019 0.262628,0.3096 0.134331,0.14844 0.342266,0.35116 0.503481,0.49084 0.175077,0.1517 0.1993,0.1908 0.193126,0.31171 -0.0026,0.0513 -0.007,0.0695 -0.02522,0.10522 -0.02714,0.0531 -0.08238,0.10601 -0.136843,0.13097 -0.04899,0.0224 -0.138166,0.029 -0.184633,0.0136 z m 0.348209,-5.23648 c 2.17e-4,-0.11745 0.02808,-0.58677 0.04699,-0.7915 0.05926,-0.64149 0.178678,-1.29641 0.335777,-1.84144 l 0.03104,-0.10768 -0.879656,-0.002 c -0.699016,-0.001 -0.880811,0 -0.885283,0.007 -0.09906,0.15849 -0.248945,0.4408 -0.335654,0.63222 -0.291972,0.64454 -0.45994,1.32131 -0.506809,2.04203 l -0.0048,0.0736 h 1.099177 c 1.04204,0 1.099178,-6.5e-4 1.0992,-0.0126 z m 3.302364,-1.36583 v -1.37838 h -1.144688 -1.144687 l -0.02853,0.0879 c -0.202828,0.62524 -0.351685,1.41543 -0.406062,2.15552 -0.01166,0.15871 -0.02563,0.41949 -0.02563,0.47847 v 0.0348 h 1.374798 1.374798 z m 3.295806,1.37541 c 0.004,-0.004 -0.0048,-0.24247 -0.01476,-0.39905 -0.04932,-0.77716 -0.187251,-1.53788 -0.406449,-2.24167 l -0.03522,-0.11307 h -1.143293 -1.143292 v 1.37838 1.37839 h 1.370011 c 0.753508,0 1.371359,-0.001 1.373004,-0.003 z m 2.751994,-0.0527 c -0.0022,-0.0306 -0.0088,-0.11217 -0.01463,-0.18127 -0.05284,-0.62443 -0.214701,-1.25294 -0.471457,-1.83067 -0.08967,-0.20176 -0.251072,-0.50995 -0.34498,-0.65871 l -0.01924,-0.0305 h -0.87935 c -0.483643,0 -0.87935,0.003 -0.87935,0.006 0,0.003 0.0082,0.0331 0.01819,0.0664 0.03723,0.12383 0.104862,0.38913 0.143429,0.56259 0.13673,0.61497 0.223282,1.31217 0.244917,1.97289 l 0.0049,0.14897 h 1.100801 1.100801 z m -8.693676,-3.38674 c 0.278407,-0.68748 0.641804,-1.2812 1.044696,-1.70683 0.03644,-0.0385 0.0645,-0.07 0.06236,-0.07 -0.01017,0 -0.235898,0.0821 -0.33493,0.12181 -0.606492,0.24321 -1.169777,0.59143 -1.67991,1.03849 -0.121686,0.10664 -0.373356,0.35735 -0.481979,0.48013 -0.09243,0.10448 -0.221572,0.25907 -0.221572,0.26525 0,0.002 0.350775,0.003 0.779499,0.002 l 0.7795,-0.002 z m 2.645876,-0.95482 c 0,-0.94773 -0.0013,-1.08763 -0.01046,-1.08763 -0.0058,0 -0.0545,0.0113 -0.108319,0.0251 -0.735779,0.18858 -1.427412,0.92658 -1.922765,2.05169 -0.02222,0.0505 -0.0404,0.0933 -0.0404,0.0951 0,0.002 0.468437,0.003 1.04097,0.003 h 1.04097 z m 2.627551,1.08068 c 0,-0.004 -0.019,-0.0499 -0.04222,-0.10231 -0.475473,-1.07381 -1.12552,-1.79038 -1.828419,-2.01554 -0.0644,-0.0206 -0.181002,-0.0505 -0.197223,-0.0505 -0.0044,0 -0.0069,0.39654 -0.0069,1.08763 v 1.08763 h 1.03738 c 0.664787,0 1.03738,-0.002 1.03738,-0.007 z m 2.169305,-0.0128 c -0.06676,-0.0933 -0.27837,-0.32911 -0.442944,-0.4935 -0.550684,-0.55007 -1.204346,-0.9825 -1.923786,-1.27267 -0.119201,-0.0481 -0.334268,-0.12568 -0.337991,-0.12196 -0.0013,10e-4 0.03015,0.0378 0.0699,0.0811 0.417043,0.45401 0.760403,1.01785 1.034017,1.69801 l 0.05181,0.12879 h 0.781553 0.781554 z"
       id="path826" />
  </g>
</svg>
