<?xml version="1.0" encoding="UTF-8" standalone="no"?>
<!-- Created with Inkscape (http://www.inkscape.org/) -->

<svg
   xmlns:dc="http://purl.org/dc/elements/1.1/"
   xmlns:cc="http://creativecommons.org/ns#"
   xmlns:rdf="http://www.w3.org/1999/02/22-rdf-syntax-ns#"
   xmlns:svg="http://www.w3.org/2000/svg"
   xmlns="http://www.w3.org/2000/svg"
   xmlns:sodipodi="http://sodipodi.sourceforge.net/DTD/sodipodi-0.dtd"
   xmlns:inkscape="http://www.inkscape.org/namespaces/inkscape"
   width="15.87505mm"
   height="15.876054mm"
   viewBox="0 0 15.87505 15.876054"
   version="1.1"
   id="svg8"
   inkscape:version="0.92.4 (5da689c313, 2019-01-14)"
   sodipodi:docname="cpu_icon.svg">
  <defs
     id="defs2" />
  <sodipodi:namedview
     id="base"
     pagecolor="#ffffff"
     bordercolor="#666666"
     borderopacity="1.0"
     inkscape:pageopacity="0.0"
     inkscape:pageshadow="2"
     inkscape:zoom="7.9195959"
     inkscape:cx="31.857686"
     inkscape:cy="47.654924"
     inkscape:document-units="mm"
     inkscape:current-layer="layer1"
     showgrid="false"
     fit-margin-top="0"
     fit-margin-left="0"
     fit-margin-right="0"
     fit-margin-bottom="0"
     inkscape:window-width="1920"
     inkscape:window-height="1017"
     inkscape:window-x="-8"
     inkscape:window-y="-8"
     inkscape:window-maximized="1" />
  <metadata
     id="metadata5">
    <rdf:RDF>
      <cc:Work
         rdf:about="">
        <dc:format>image/svg+xml</dc:format>
        <dc:type
           rdf:resource="http://purl.org/dc/dcmitype/StillImage" />
        <dc:title></dc:title>
      </cc:Work>
    </rdf:RDF>
  </metadata>
  <g
     inkscape:label="Layer 1"
     inkscape:groupmode="layer"
     id="layer1"
     transform="translate(139.09527,-400.90478)">
    <path
       style="fill:#ffffff;stroke-width:0.0089588"
       d="m -136.10983,416.77318 c -0.009,-0.006 -0.0108,-0.14376 -0.009,-0.66057 l 0.002,-0.65343 0.32192,-0.002 c 0.25158,-0.002 0.32349,1.1e-4 0.3291,0.009 0.004,0.006 0.007,0.29827 0.007,0.64899 1.3e-4,0.56788 -0.001,0.63922 -0.0139,0.65175 -0.0123,0.0123 -0.0537,0.0141 -0.32028,0.0139 -0.16841,-1.1e-4 -0.31126,-0.003 -0.31746,-0.007 z m 4.63176,10e-4 c -0.009,-0.004 -0.0112,-0.14445 -0.0112,-0.66225 v -0.65772 h 0.32604 c 0.28904,0 0.32666,0.002 0.33148,0.0142 0.003,0.008 0.005,0.29978 0.005,0.64887 0,0.56506 -0.002,0.63625 -0.0141,0.64878 -0.0123,0.0123 -0.0532,0.014 -0.32028,0.0134 -0.16841,-3.9e-4 -0.31124,-0.003 -0.3174,-0.005 z m 4.62563,-0.008 c -0.0125,-0.0125 -0.0141,-0.0837 -0.0141,-0.64878 0,-0.34909 0.002,-0.64108 0.005,-0.64887 0.005,-0.0126 0.0424,-0.0142 0.33147,-0.0142 h 0.32604 v 0.65751 c 0,0.5913 -10e-4,0.65806 -0.0142,0.66295 -0.008,0.003 -0.15062,0.005 -0.3174,0.005 -0.26371,0 -0.30506,-0.002 -0.3173,-0.0141 z m -6.95303,-0.66 c -0.002,-0.006 -0.003,-0.15446 -0.002,-0.32935 l 0.002,-0.31799 h 0.327 0.327 v 0.32699 0.327 l -0.325,0.002 c -0.25588,0.002 -0.32592,-10e-5 -0.32935,-0.009 z m 4.6317,0 c -0.002,-0.006 -0.003,-0.15446 -0.002,-0.32935 l 0.002,-0.31799 h 0.32699 0.327 v 0.32699 0.327 l -0.325,0.002 c -0.25588,0.002 -0.32592,-10e-5 -0.32935,-0.009 z m -7.45435,-0.9973 c -0.0892,-0.015 -0.22529,-0.0628 -0.30356,-0.10658 -0.24464,-0.13681 -0.40925,-0.3502 -0.48699,-0.6313 l -0.0237,-0.0858 v -5.44696 -5.44695 l 0.0239,-0.0866 c 0.10106,-0.36573 0.35686,-0.62154 0.7226,-0.7226 l 0.0866,-0.0239 h 5.44695 5.44695 l 0.0858,0.0237 c 0.12202,0.0337 0.20981,0.0725 0.30087,0.13267 0.18914,0.12505 0.31913,0.28966 0.39385,0.49872 0.0627,0.17546 0.0579,-0.31606 0.0552,5.66981 l -0.002,5.41111 -0.02,0.0703 c -0.0563,0.19767 -0.1339,0.33315 -0.26735,0.46659 -0.13344,0.13345 -0.26892,0.21107 -0.46659,0.26735 l -0.0703,0.02 -5.42455,10e-4 c -4.5485,10e-4 -5.43629,-6.2e-4 -5.49721,-0.0109 z m 10.90065,-0.68254 c 0.0701,-0.0345 0.12517,-0.0907 0.15854,-0.16193 l 0.0238,-0.0508 v -5.37528 -5.37528 l -0.0238,-0.0508 c -0.0334,-0.0712 -0.0884,-0.12741 -0.15854,-0.16193 l -0.0591,-0.0291 h -5.37547 -5.37547 l -0.0508,0.0238 c -0.0712,0.0334 -0.12741,0.0884 -0.16193,0.15853 l -0.0291,0.0591 v 5.37547 5.37547 l 0.0236,0.0503 c 0.0417,0.089 0.11581,0.15438 0.2074,0.18304 0.0311,0.01 0.98274,0.0115 5.39979,0.0102 l 5.36203,-0.002 z m -9.16131,-1.29332 c -0.15271,-0.0222 -0.26489,-0.0792 -0.37698,-0.19125 -0.0915,-0.0915 -0.14255,-0.17747 -0.17686,-0.29791 l -0.0199,-0.0698 -0.003,-2.50846 c -0.001,-1.37966 -3.1e-4,-2.51754 0.002,-2.52862 l 0.005,-0.0202 h 0.32682 0.32683 v 2.47084 c 0,1.90982 0.002,2.47328 0.0108,2.48159 0.008,0.008 0.59316,0.0108 2.57785,0.0108 h 2.5671 l 1.0639,-1.0639 1.0639,-1.0639 v -1.41769 -1.41769 h 0.32604 c 0.28904,0 0.32666,0.002 0.33148,0.0142 0.01,0.0253 0.006,2.96263 -0.004,3.01427 -0.023,0.12115 0.0457,0.0474 -1.24782,1.34009 -1.2874,1.28659 -1.2228,1.22642 -1.34019,1.24851 -0.0604,0.0114 -5.35601,0.0105 -5.43418,-8.7e-4 z m 0.75183,-2.3215 c -0.002,-0.006 -0.003,-0.15445 -0.002,-0.32934 l 0.002,-0.31799 h 0.327 0.32699 v 0.32699 0.327 l -0.32499,0.002 c -0.25589,0.002 -0.32592,-10e-5 -0.32936,-0.009 z m 1.32591,0 c -0.002,-0.006 -0.003,-0.15445 -0.002,-0.32934 l 0.002,-0.31799 0.32456,-0.002 0.32456,-0.002 0.005,0.0203 c 0.003,0.0111 0.004,0.15936 0.002,0.32935 l -0.002,0.30908 -0.32499,0.002 c -0.25589,0.002 -0.32592,-10e-5 -0.32935,-0.009 z m 1.3239,-0.3181 0.002,-0.32923 0.31804,-0.002 c 0.29104,-0.002 0.31899,-0.001 0.32924,0.0129 0.008,0.0115 0.0112,0.0898 0.0112,0.31743 0,0.16618 -0.002,0.30853 -0.005,0.31633 -0.005,0.0126 -0.0425,0.0142 -0.33159,0.0142 h -0.32615 z m -2.4224,-1.00912 c -0.0944,-0.0338 -0.17157,-0.10565 -0.2066,-0.19228 l -0.0205,-0.0506 v -0.73014 c 0,-0.67298 0.001,-0.73365 0.0157,-0.77494 0.0207,-0.0591 0.0725,-0.12581 0.12645,-0.16281 0.0898,-0.0616 -0.14765,-0.057 2.85052,-0.0545 l 2.71445,0.002 0.0599,0.0295 c 0.0716,0.0353 0.13231,0.0999 0.1616,0.17207 l 0.02,0.0493 v 0.73929 0.73929 l -0.0294,0.0597 c -0.033,0.067 -0.0929,0.12684 -0.16071,0.16054 l -0.0428,0.0213 -2.72796,0.002 c -2.22924,0.002 -2.73394,-2.7e-4 -2.76071,-0.01 z m 5.06099,-0.97525 -0.002,-0.32476 h -2.31137 -2.31137 l -0.002,0.31351 c -0.001,0.17243 -4.2e-4,0.31857 0.002,0.32475 0.003,0.009 0.46935,0.0113 2.31608,0.0113 h 2.31177 z m -6.61299,-1.66931 c -0.003,-0.008 -0.005,-0.15058 -0.005,-0.31731 0,-0.16672 0.002,-0.30951 0.005,-0.3173 0.005,-0.0129 0.39213,-0.0142 4.29927,-0.0142 3.90715,0 4.29432,0.001 4.29927,0.0142 0.007,0.0185 0.007,0.61611 0,0.63461 -0.005,0.0129 -0.39212,0.0142 -4.29927,0.0142 -3.90714,0 -4.29432,-0.001 -4.29927,-0.0142 z m -0.002,-1.33517 c -0.003,-0.0129 -0.004,-0.10864 -9.6e-4,-0.21277 0.006,-0.21948 0.0184,-0.28363 0.0798,-0.40244 0.0563,-0.10904 0.17103,-0.22175 0.28229,-0.27734 0.0453,-0.0226 0.1138,-0.0485 0.1523,-0.0576 0.0673,-0.0158 0.21502,-0.0164 3.78789,-0.0164 3.57287,0 3.72063,6.4e-4 3.78789,0.0164 0.0385,0.009 0.10703,0.0349 0.1523,0.0576 0.0678,0.0338 0.0967,0.0555 0.16363,0.12244 0.0669,0.0669 0.0886,0.0959 0.12245,0.16363 0.0634,0.12687 0.0736,0.18555 0.0738,0.42386 l 1.7e-4,0.20158 -0.32924,0.002 -0.32923,0.002 v -0.1551 c 0,-0.10869 -0.003,-0.15832 -0.0108,-0.16585 -0.0157,-0.0157 -7.24634,-0.0157 -7.26201,0 -0.008,0.008 -0.0108,0.0571 -0.0108,0.16574 v 0.15499 h -0.32683 -0.32682 l -0.006,-0.0234 z m -3.63173,7.96637 c 0,-0.28904 0.002,-0.32665 0.0142,-0.33147 0.0185,-0.007 1.27009,-0.007 1.2886,0 0.0126,0.005 0.0142,0.0424 0.0142,0.33147 v 0.32604 h -0.65847 -0.65847 z m 14.5491,0 c 0,-0.28904 0.002,-0.32665 0.0142,-0.33147 0.008,-0.003 0.29978,-0.005 0.64887,-0.005 0.56506,0 0.63625,0.002 0.64878,0.0141 0.0122,0.0122 0.0141,0.0536 0.0141,0.3173 0,0.16678 -0.002,0.30961 -0.005,0.3174 -0.005,0.0127 -0.0717,0.0142 -0.66295,0.0142 h -0.65751 z m -13.89098,-1.99646 c -0.002,-0.006 -0.003,-0.15446 -0.002,-0.32935 l 0.002,-0.31799 h 0.327 0.327 v 0.32699 0.327 l -0.325,0.002 c -0.25588,0.002 -0.32592,-1e-4 -0.32935,-0.009 z m 13.8951,0 c -0.002,-0.006 -0.003,-0.15446 -0.002,-0.32935 l 0.002,-0.31799 h 0.32699 0.327 v 0.32699 0.327 l -0.325,0.002 c -0.25588,0.002 -0.32592,-1e-4 -0.32935,-0.009 z m -14.54202,-2.30618 c -0.009,-0.003 -0.0112,-0.0781 -0.0112,-0.33076 v -0.32625 h 0.65847 0.65848 v 0.32603 c 0,0.28904 -0.002,0.32666 -0.0142,0.33148 -0.0169,0.006 -1.27543,0.006 -1.29157,-4.9e-4 z m 14.5491,0 c -0.009,-0.003 -0.0112,-0.0781 -0.0112,-0.33076 v -0.32625 h 0.65751 c 0.5913,0 0.65806,0.001 0.66295,0.0142 0.003,0.008 0.005,0.15062 0.005,0.3174 0,0.26371 -0.002,0.30506 -0.0141,0.3173 -0.0126,0.0125 -0.0834,0.014 -0.65175,0.0134 -0.35072,-3.9e-4 -0.64272,-0.003 -0.64887,-0.005 z m -13.90218,-2.32552 c -0.002,-0.006 -0.003,-0.15446 -0.002,-0.32935 l 0.002,-0.31799 h 0.327 0.327 v 0.32699 0.327 l -0.325,0.002 c -0.25588,0.002 -0.32592,-10e-5 -0.32935,-0.009 z m 13.8951,0 c -0.002,-0.006 -0.003,-0.15446 -0.002,-0.32935 l 0.002,-0.31799 h 0.32699 0.327 v 0.32699 0.327 l -0.325,0.002 c -0.25588,0.002 -0.32592,-10e-5 -0.32935,-0.009 z m -14.54202,-2.30618 c -0.009,-0.003 -0.0112,-0.0782 -0.0112,-0.33082 v -0.32631 l 0.65623,0.002 0.65624,0.002 0.002,0.32192 c 0.002,0.25158 -1e-4,0.32348 -0.009,0.32909 -0.0121,0.008 -1.27576,0.009 -1.29466,0.002 z m 14.54898,-0.002 c -0.009,-0.006 -0.0108,-0.0775 -0.009,-0.3291 l 0.002,-0.32192 0.65342,-0.002 c 0.51682,-0.002 0.65492,1e-4 0.66058,0.009 0.004,0.006 0.007,0.14905 0.007,0.31746 1e-4,0.26654 -0.002,0.30802 -0.0139,0.32028 -0.0125,0.0125 -0.0839,0.0141 -0.65175,0.0139 -0.35072,-10e-5 -0.64277,-0.003 -0.64899,-0.007 z m -11.57988,-2.31885 c -0.003,-0.003 -0.006,-0.29959 -0.006,-0.65847 v -0.6525 h 0.32604 c 0.28904,0 0.32666,0.002 0.33148,0.0142 0.007,0.0185 0.007,1.27009 0,1.28861 -0.005,0.0126 -0.0419,0.0142 -0.32551,0.0142 -0.17603,0 -0.32275,-0.003 -0.32603,-0.006 z m 2.30952,-0.005 c -0.002,-0.006 -0.003,-0.15445 -0.002,-0.32934 l 0.002,-0.31799 h 0.327 0.327 v 0.32699 0.327 l -0.325,0.002 c -0.25588,0.002 -0.32592,-10e-5 -0.32935,-0.009 z m 2.3162,-0.64733 v -0.65848 h 0.32604 c 0.28904,0 0.32666,0.002 0.33148,0.0142 0.007,0.0185 0.007,1.27009 0,1.28861 -0.005,0.0126 -0.0424,0.0142 -0.33148,0.0142 h -0.32604 z m 2.3155,0.64733 c -0.002,-0.006 -0.003,-0.15445 -0.002,-0.32934 l 0.002,-0.31799 h 0.32699 0.327 v 0.32699 0.327 l -0.325,0.002 c -0.25588,0.002 -0.32592,-10e-5 -0.32935,-0.009 z m 2.31269,-0.003 c -0.007,-0.0185 -0.007,-1.27009 0,-1.2886 0.005,-0.0126 0.0424,-0.0142 0.33147,-0.0142 h 0.32604 v 0.65848 0.65847 h -0.32604 c -0.28904,0 -0.32665,-0.002 -0.33147,-0.0142 z"
       id="path832"
       inkscape:connector-curvature="0" />
  </g>
</svg>
