<?xml version="1.0" encoding="UTF-8" standalone="no"?>
<svg
   xmlns:dc="http://purl.org/dc/elements/1.1/"
   xmlns:cc="http://creativecommons.org/ns#"
   xmlns:rdf="http://www.w3.org/1999/02/22-rdf-syntax-ns#"
   xmlns:svg="http://www.w3.org/2000/svg"
   xmlns="http://www.w3.org/2000/svg"
   id="svg8"
   version="1.1"
   viewBox="0 0 18.520832 17.4788"
   height="17.4788mm"
   width="18.520832mm">
  <defs
     id="defs2" />
  <metadata
     id="metadata5">
    <rdf:RDF>
      <cc:Work
         rdf:about="">
        <dc:format>image/svg+xml</dc:format>
        <dc:type
           rdf:resource="http://purl.org/dc/dcmitype/StillImage" />
        <dc:title></dc:title>
      </cc:Work>
    </rdf:RDF>
  </metadata>
  <g
     transform="translate(-0.57014843,0.3046996)"
     id="layer1">
    <g
       transform="matrix(0.03729257,0,0,0.03729257,23.6082,9.6201189)"
       id="g4610">
      <path
         id="path4624"
         d="m -390.2359,202.40355 c -59.31337,-1.35205 -116.15914,-25.73433 -158.45922,-67.96628 -24.14633,-24.10746 -42.42125,-52.438828 -54.35241,-84.261827 -20.99751,-56.0049385 -19.46651,-119.57899 4.20269,-174.514513 16.39806,-38.05941 42.15831,-70.72071 75.41148,-95.61386 47.30059,-35.40898 106.15103,-51.3512 165.02344,-44.70383 43.10023,4.86652 83.73825,21.68542 117.98152,48.82915 12.95485,10.26896 25.64935,22.7854 36.19781,35.69008 29.6083,36.22194 47.65434,80.521288 51.84323,127.264587 0.68484,7.642146 0.93442,14.395927 0.9362,25.333855 0,5.80054 0.10514,10.517188 0.23233,10.517188 0.12681,0 4.05114,-3.869531 8.72072,-8.598959 4.66958,-4.729427 8.63777,-8.598958 8.81822,-8.598958 0.43037,0 12.34918,11.880718 12.54836,12.508257 0.11848,0.3733 -4.27508,4.935193 -19.3726,20.1148688 -11.75004,11.8139642 -19.75234,19.6640452 -20.09458,19.7123582 -0.44635,0.063 -4.7462,-4.135966 -19.98525,-19.5162755 -10.67908,-10.7780935 -19.45828,-19.7905165 -19.50929,-20.0276095 -0.0952,-0.442489 11.99904,-12.791599 12.5276,-12.791599 0.14753,0 4.12962,3.862758 8.84909,8.58393 4.71948,4.721146 8.67762,8.524134 8.79587,8.451057 0.5788,-0.357717 0.0594,-24.457423 -0.71917,-33.369889 -4.44709,-50.905801 -26.4342,-98.059071 -62.577,-134.201861 -35.00379,-35.0038 -80.22304,-56.61732 -129.23779,-61.77201 -13.99412,-1.47171 -29.86819,-1.47114 -44.31771,0.002 -49.24627,5.01926 -95.82581,27.5842 -130.83646,63.38227 -20.41784,20.87706 -35.98218,44.85109 -46.78481,72.06346 -6.84998,17.255484 -11.58606,36.35266 -13.64818,55.033337 -1.04817,9.495341 -1.21476,12.815359 -1.21476,24.209376 0,11.394017 0.16659,14.714035 1.21476,24.2093756 6.06258,54.9205434 33.3492,105.7329274 76.00577,141.5357914 31.54057,26.47291 70.27378,43.40008 110.76576,48.40682 7.16206,0.88556 11.12218,1.20139 19.71146,1.57205 l 7.14375,0.30826 0.0701,8.86354 c 0.0789,9.97559 0.15918,9.57692 -1.90662,9.46881 -0.59065,-0.0309 -2.38359,-0.0861 -3.98432,-0.12253 z m 65.80637,-0.11586 c -3.73599,-0.62206 -6.73806,-3.64437 -7.44283,-7.49308 -0.36513,-1.99385 -0.38286,-29.45742 -0.0217,-33.81418 0.3112,-3.7557 0.83272,-6.38093 1.90172,-9.57294 0.81719,-2.44007 2.60257,-6.22784 3.86427,-8.19819 4.74744,-7.41395 12.1131,-13.19573 20.25435,-15.89892 5.37724,-1.78544 5.28172,-1.77636 20.80983,-1.97977 13.5805,-0.17794 14.23548,-0.20937 16.13233,-0.77478 6.97664,-2.0795 12.08953,-7.2367 14.07382,-14.19583 0.83865,-2.94129 0.83542,-7.56073 -0.007,-10.553379 -1.02224,-3.629766 -2.46038,-6.034035 -5.31653,-8.888042 -2.05142,-2.049886 -2.94672,-2.732829 -4.77391,-3.641646 -4.19875,-2.088409 -5.1082,-2.218505 -16.53646,-2.365322 -10.991,-0.141208 -15.35953,0.102579 -18.1288,1.011661 -7.56893,2.484755 -12.70563,8.567684 -13.78108,16.319658 -0.15616,1.12564 -0.33518,2.31452 -0.3978,2.64194 l -0.11385,0.59532 h -8.84288 c -6.27245,0 -8.89646,-0.0866 -9.02714,-0.29808 -0.28477,-0.46077 -0.13787,-3.80921 0.28306,-6.451946 0.83404,-5.236607 3.06318,-10.832466 6.13595,-15.403169 4.41687,-6.570055 11.59523,-12.045025 19.26629,-14.694483 5.48593,-1.894761 5.70678,-1.913784 22.225,-1.913784 16.46667,0 16.41999,-0.004 22.05469,1.870657 11.66334,3.880273 21.02207,13.684859 24.49407,25.661039 1.17234,4.043786 1.55704,7.436906 1.39316,12.288096 -0.11178,3.30914 -0.30527,5.03883 -0.79954,7.14748 -1.60227,6.83554 -4.77121,12.80547 -9.4514,17.80535 -5.82517,6.22311 -13.30708,10.24673 -21.80809,11.728 -1.84436,0.32136 -5.49622,0.45926 -16.01518,0.60473 -13.20339,0.18262 -13.68348,0.2072 -15.47812,0.79214 -5.4682,1.78234 -9.80313,5.51045 -12.16909,10.46557 -1.80893,3.78848 -1.80806,3.78086 -1.91706,17.00638 l -0.0987,11.9715 38.84242,0.067 38.8424,0.067 0.0701,8.86354 c 0.064,8.09792 0.0311,8.89212 -0.38132,9.19427 -0.35716,0.2617 -9.45769,0.32428 -43.59404,0.2998 -23.72847,-0.0169 -43.77169,-0.13565 -44.54046,-0.26365 z m 155.18686,0.11221 c -0.43567,-0.11385 -0.46302,-1.2682 -0.46302,-19.53977 v -19.41878 l -29.56719,-0.0748 -29.56719,-0.0748 -1.5875,-0.7407 c -2.07708,-0.96915 -3.87704,-2.76426 -4.79928,-4.78634 -0.6084,-1.33406 -0.73903,-1.99144 -0.74715,-3.76005 -0.009,-1.94768 0.0747,-2.30404 0.91622,-3.90356 0.67906,-1.29074 9.74477,-12.18626 33.99076,-40.85145 18.18558,-21.500177 33.52109,-39.538861 34.07892,-40.085966 1.6584,-1.626553 3.43196,-2.385166 5.88137,-2.515659 1.71786,-0.09155 2.40315,-0.0048 3.63714,0.460719 1.99729,0.753322 4.1864,2.759869 5.14856,4.719162 l 0.7393,1.505505 0.13229,35.718749 0.13229,35.71875 5.68854,0.1323 5.68854,0.13229 0.0701,8.86354 c 0.064,8.09792 0.0311,8.89212 -0.38132,9.19427 -0.32607,0.23892 -1.94321,0.33073 -5.82478,0.33073 h -5.37339 v 19.32115 19.32111 l -0.67869,0.25805 c -0.66553,0.25302 -16.17345,0.32158 -17.11454,0.0756 z m -0.52763,-79.39107 c 0.0372,-11.96909 -0.0278,-21.76198 -0.14452,-21.76198 -0.22741,0 -36.64021,42.95125 -36.78904,43.39506 -0.0588,0.17544 6.14751,0.24188 18.38854,0.19685 l 18.47734,-0.0679 z m -219.93643,18.80444 c -50.68182,-1.50248 -98.12521,-25.34388 -129.89397,-65.27469 -30.15208,-37.898759 -43.01936,-85.8321329 -35.98227,-134.041731 7.01948,-48.088969 34.53508,-91.614979 75.13189,-118.848609 35.74008,-23.97559 78.42621,-33.58747 121.30372,-27.31465 27.70513,4.05315 54.74959,15.34709 77.42256,32.33213 34.38329,25.75763 57.85885,62.68541 66.47725,104.570712 2.40721,11.69902 3.47311,22.833807 3.47311,36.281229 0,6.670622 -0.0504,7.602326 -0.41852,7.743587 -0.23019,0.08834 -8.2627,0.160602 -17.85006,0.160602 -16.96329,0 -17.4389,-0.01376 -17.70544,-0.511784 -0.17198,-0.321336 -0.2739,-3.576717 -0.2739,-8.748633 0,-5.171917 0.10192,-8.427297 0.2739,-8.748634 0.26196,-0.489505 0.64,-0.511783 8.68714,-0.511783 4.6273,0 8.46627,-0.05302 8.53107,-0.117819 0.2151,-0.21508 -0.29157,-6.02996 -0.96875,-11.11761 -3.09888,-23.282175 -11.27493,-45.253623 -24.12553,-64.832287 -13.18172,-20.08315 -30.69759,-36.72211 -51.53221,-48.95227 -4.94609,-2.90341 -14.85188,-7.7651 -20.13979,-9.88447 -11.74165,-4.70598 -23.74212,-7.8899 -36.48104,-9.67902 -4.3123,-0.60564 -11.34849,-1.20119 -11.57178,-0.97945 -0.10708,0.10635 -0.22615,4.05862 -0.26458,8.78283 l -0.0699,8.58947 -8.69973,0.0698 c -6.14893,0.0493 -8.80488,-0.0175 -9.05835,-0.22782 -0.2854,-0.23686 -0.37287,-2.0338 -0.4284,-8.80106 l -0.0698,-8.50342 -1.71979,0.082 c -2.97786,0.142 -10.8325,1.0807 -14.81954,1.77106 -27.23611,4.71598 -51.56205,16.03244 -73.28671,34.09308 -4.90994,4.08184 -14.57682,13.74489 -18.69773,18.69031 -20.70447,24.84702 -32.76059,53.512138 -35.93113,85.431338 -0.22246,2.239592 -0.40447,4.410842 -0.40447,4.825021 v 0.753084 l 8.6651,0.06974 8.6651,0.06977 0.0697,8.978 c 0.0544,7.006564 -0.004,9.024621 -0.26459,9.190223 -0.18386,0.116708 -4.13091,0.214048 -8.77121,0.216271 l -8.4369,0.004 0.17975,2.315105 c 0.84527,10.8863607 2.74186,21.2749081 5.86673,32.134837 4.97718,17.297321 13.71724,34.804193 24.65335,49.382153 8.62714,11.500062 20.27034,23.141173 31.60281,31.597151 21.20153,15.819997 46.46351,26.038607 72.44304,29.303587 4.83519,0.60767 9.84014,1.04 10.12032,0.87421 0.10914,-0.0646 0.19843,-3.90583 0.19843,-8.53609 0,-6.80281 0.0695,-8.47635 0.36225,-8.71929 0.25815,-0.21424 2.86233,-0.28057 9.06198,-0.23083 l 8.69973,0.0699 0.068,17.97489 c 0.0538,14.20482 -0.002,18.01919 -0.26458,18.18606 -0.30293,0.19232 -7.94064,0.21434 -13.82634,0.0398 z m 1.61628,-141.10790088 c -7.9254,-0.99224045 -14.80893,-4.44163992 -20.11099,-10.07774142 -5.86759,-6.2372877 -8.88721,-13.8695647 -8.88846,-22.4661947 -8e-4,-5.003324 0.90133,-9.301428 2.84911,-13.575242 l 0.94151,-2.065841 -1.82735,-1.902909 c -1.00505,-1.046581 -10.90695,-11.01298 -22.00425,-22.147544 -11.09729,-11.134564 -20.1769,-20.356217 -20.1769,-20.492562 0,-0.323049 12.4768,-12.840905 12.79879,-12.840905 0.13514,0 10.14305,9.962849 22.23981,22.139668 l 21.99412,22.139664 1.46455,-0.692843 c 3.77248,-1.784673 6.85254,-2.649228 11.08815,-3.112389 14.34313,-1.56841 28.59386,7.394477 33.60312,21.134423 l 0.73781,2.023771 31.02406,0.06723 c 22.39204,0.04855 31.12326,0.149569 31.38057,0.36314 0.28569,0.237094 0.35652,2.017634 0.35652,8.962338 0,6.944704 -0.0708,8.725244 -0.35652,8.962337 -0.25731,0.213572 -8.98853,0.31459 -31.38057,0.363141 l -31.02406,0.06723 -0.72612,1.984376 c -3.86535,10.563172 -13.35015,18.6672539 -24.27138,20.73814773 -2.68644,0.50940231 -7.40367,0.71765586 -9.71152,0.42870539 z m 8.08829,-19.12217912 c 4.48517,-1.630495 7.66835,-5.041688 9.05109,-9.699466 0.25272,-0.851271 0.42663,-2.396147 0.42663,-3.789813 0,-5.500053 -3.06723,-10.372355 -8.02569,-12.748869 -8.57593,-4.110302 -18.58509,1.261137 -20.06116,10.76587 -0.95519,6.150663 2.70438,12.76477 8.37539,15.13721 3.25269,1.360725 7.06861,1.485688 10.23374,0.335068 z"
         style="fill:#fee5d6;stroke-width:0.26458335" />
      <path
         id="path4622"
         d="m -393.54319,202.14486 c -14.26657,-0.73461 -24.78165,-1.98244 -36.5125,-4.33297 -30.09482,-6.03009 -58.12191,-17.72746 -83.84297,-34.99258 -42.87432,-28.77918 -75.36127,-71.451019 -91.72386,-120.479979 -14.64641,-43.8865451 -15.92404,-91.61992 -3.64968,-136.354984 6.75466,-24.617987 17.84934,-48.587427 32.31507,-69.814947 12.87829,-18.89805 28.7442,-36.10317 46.62435,-50.55981 34.11393,-27.58213 75.1651,-44.88212 118.67002,-50.01051 15.25871,-1.79871 32.69605,-2.03623 47.86103,-0.65195 34.77118,3.17397 67.52331,13.80373 97.65541,31.69421 12.27601,7.2887 25.07176,16.67826 36.24792,26.59883 4.17113,3.70252 13.82202,13.29284 17.68372,17.57275 25.767,28.55739 44.11403,62.81777 53.44551,99.801636 2.46563,9.772163 4.07276,18.289054 5.31717,28.178126 1.30472,10.368203 1.54131,14.48398 1.70982,29.743824 0.1151,10.424266 0.24479,14.558328 0.45892,14.629528 0.16418,0.05458 4.03058,-3.716285 8.59205,-8.379699 4.56147,-4.663414 8.5208,-8.551042 8.79856,-8.639202 0.39781,-0.126259 1.79078,1.123554 6.56252,5.887959 3.69236,3.686651 6.02893,6.215353 5.98421,6.476312 -0.0861,0.502603 -38.89124,39.65628 -39.30327,39.65628 -0.44948,0 -39.219,-39.22112 -39.219,-39.675806 0,-0.444315 11.86746,-12.447112 12.30677,-12.447112 0.14518,0 4.13213,3.869531 8.85989,8.598959 4.72776,4.729427 8.6859,8.598958 8.79586,8.598958 0.29279,0 0.23937,-21.590953 -0.0664,-26.855209 -3.13219,-53.921434 -25.18709,-103.288784 -63.10058,-141.243324 -33.7625,-33.79907 -77.38144,-55.27095 -124.4872,-61.28014 -10.00554,-1.27638 -13.2959,-1.45402 -26.9875,-1.45698 -13.69243,-0.003 -16.94922,0.17164 -26.9875,1.44681 -57.6631,7.32499 -109.70642,37.73124 -144.90704,84.66176 -23.43826,31.24857 -38.02959,68.566289 -42.00187,107.420832 -1.44335,14.118088 -1.44526,30.081036 -0.005,44.3177099 3.93333,38.8881161 18.52329,76.2499821 41.99121,107.5307981 10.57162,14.0911 23.04292,27.086 36.70841,38.24962 29.88192,24.41118 66.44084,40.48332 104.37812,45.88704 9.65196,1.3748 19.04268,2.13629 26.37329,2.13862 3.17671,0 3.95939,0.0769 4.29948,0.41699 0.3605,0.36052 0.41577,1.53172 0.41577,8.81062 0,6.17657 -0.0839,8.47876 -0.3175,8.71236 -0.29878,0.29879 -4.5991,0.36835 -8.94291,0.14467 z m 68.65937,-0.0793 c -2.56775,-0.6404 -4.96006,-2.58845 -6.14783,-5.0061 l -0.73134,-1.48865 v -18.25626 c 0,-17.91467 0.0111,-18.30607 0.59034,-20.9192 1.82431,-8.22936 4.97152,-14.06086 10.63419,-19.70413 4.62963,-4.6138 9.48327,-7.60214 15.3661,-9.46076 5.065,-1.60025 6.2516,-1.70571 21.29896,-1.89328 l 13.75833,-0.17147 2.02848,-0.67953 c 6.80093,-2.27833 11.7315,-7.58889 13.48547,-14.52489 0.8047,-3.18217 0.62413,-8.21904 -0.40251,-11.227988 -1.0795,-3.163782 -2.58725,-5.522277 -5.16342,-8.076883 -2.51804,-2.496925 -4.97965,-3.963987 -8.49281,-5.061532 -1.97006,-0.615447 -2.07978,-0.619919 -15.21354,-0.619919 -11.99513,0 -13.38959,0.04498 -14.94896,0.482283 -8.30411,2.32873 -14.02223,9.200118 -14.93427,17.946319 -0.15695,1.50521 -0.26702,1.78226 -0.76055,1.91463 -0.31739,0.0851 -4.15594,0.15637 -8.53014,0.15835 -6.38188,0.003 -8.05257,-0.0691 -8.45674,-0.36467 -0.47819,-0.34965 -0.48774,-0.52793 -0.18839,-3.52177 0.96145,-9.616066 4.90813,-17.756686 11.80558,-24.350685 5.49246,-5.250842 12.0877,-8.578718 19.87388,-10.028159 2.35988,-0.439314 4.10427,-0.492548 16.13959,-0.492548 14.64955,0 15.6778,0.07951 20.69121,1.600094 19.44277,5.89706 30.93511,26.037276 26.1452,45.819138 -3.10536,12.8247 -12.68267,23.29109 -25.13119,27.4641 -5.02224,1.68357 -5.8833,1.76368 -21.17606,1.97024 -11.87325,0.16039 -14.25053,0.25644 -15.5077,0.62651 -7.11883,2.09571 -12.37422,7.38743 -14.3256,14.42466 -0.52382,1.88907 -0.56751,2.7939 -0.66283,13.73016 l -0.10208,11.70781 h 38.62969 c 34.76512,0 38.67129,0.0416 39.04547,0.41577 0.36049,0.36052 0.41576,1.53172 0.41576,8.81062 0,6.17657 -0.0839,8.47876 -0.3175,8.71236 -0.2446,0.24461 -10.3737,0.31128 -44.11927,0.29041 -24.09097,-0.0148 -44.15896,-0.11615 -44.59552,-0.22503 z m 155.49917,-0.0618 c -0.2458,-0.2458 -0.32104,-4.83489 -0.32104,-19.57719 v -19.25613 l -29.69948,-0.0717 -29.69948,-0.0717 -1.48815,-0.73083 c -1.75596,-0.86233 -3.74248,-2.88692 -4.54851,-4.63566 -0.45614,-0.98964 -0.57552,-1.74506 -0.57658,-3.64805 0,-2.15934 0.0782,-2.54986 0.7924,-3.89514 0.96333,-1.81462 67.93207,-81.000363 69.23535,-81.865868 2.52307,-1.6755 5.91315,-1.979718 8.56647,-0.76872 1.89449,0.864631 3.6159,2.469726 4.57203,4.263019 l 0.70532,1.322917 0.13229,35.851042 0.13229,35.85104 5.63251,0.1323 c 4.61732,0.10845 5.67764,0.20383 5.88293,0.52916 0.14364,0.22762 0.25215,3.96539 0.25448,8.76501 0.003,6.63575 -0.0687,8.42846 -0.34716,8.65958 -0.2245,0.18634 -2.34821,0.31734 -5.88698,0.36314 l -5.53578,0.0717 -0.13229,19.44687 -0.13229,19.44688 -8.60864,0.0697 c -6.47441,0.0524 -8.68823,-0.01 -8.92969,-0.25135 z m -0.32104,-79.19334 c 0,-12.15099 -0.0493,-22.09271 -0.10951,-22.09271 -0.14785,0 -37.04088,43.63603 -37.15264,43.94311 -0.0529,0.14523 7.39352,0.24231 18.58698,0.24231 h 18.67517 z m -223.04375,18.73533 c -30.47689,-1.42521 -60.37744,-11.16828 -86.12188,-28.06274 -19.75885,-12.96652 -36.60063,-29.782536 -49.75077,-49.674679 -14.1312,-21.376191 -23.28775,-45.504234 -26.95982,-71.0406274 -1.27665,-8.8780676 -1.58237,-13.6321276 -1.58237,-24.6062506 0,-10.974123 0.30572,-15.728183 1.58237,-24.606251 5.37119,-37.352471 22.53925,-71.652432 49.19783,-98.292012 26.35496,-26.3362 59.9514,-43.33243 96.43672,-48.78674 18.85981,-2.81941 38.62184,-2.41957 57.54571,1.16431 39.03356,7.39235 74.76765,28.59184 100.56397,59.66027 20.91939,25.19476 34.61134,56.82149 38.60144,89.164589 1.1072,8.974878 1.91619,28.819079 1.22732,30.106224 l -0.3153,0.589201 -17.65065,-0.06803 -17.65062,-0.06802 v -8.863542 -8.863542 l 8.54253,-0.06982 c 7.42431,-0.0607 8.5631,-0.123428 8.69968,-0.479372 0.0864,-0.225266 0.0169,-2.039302 -0.15436,-4.031218 -1.85605,-21.578595 -8.45092,-43.263774 -18.81327,-61.86157 -7.29583,-13.0942 -15.72498,-24.28063 -26.18891,-34.75571 -21.88586,-21.90914 -49.74709,-36.75234 -79.90337,-42.56891 -6.26495,-1.20839 -15.71399,-2.4157 -18.90657,-2.4157 h -1.19454 l -0.0698,8.66511 -0.0698,8.6651 h -8.86354 -8.86354 l -0.13229,-8.59896 -0.13229,-8.59895 -1.11013,-0.0807 c -0.61057,-0.0444 -2.93229,0.10767 -5.15938,0.33785 -18.44539,1.90639 -35.29714,6.67821 -51.54195,14.59486 -15.88249,7.74006 -28.50492,16.61295 -40.97207,28.80116 -26.6188,26.02322 -42.95189,60.505591 -46.19417,97.524994 -0.20782,2.372837 -0.31872,4.409943 -0.24645,4.526889 0.0723,0.116946 3.9302,0.212619 8.57316,0.212619 8.07531,0 8.45363,0.02222 8.71564,0.511784 0.42108,0.786791 0.36878,16.457057 -0.0568,17.030859 -0.29623,0.399389 -1.21392,0.45294 -8.7974,0.513609 l -8.46666,0.06771 0.0827,1.852084 c 0.0454,1.018645 0.31903,3.989519 0.60794,6.601962 4.68787,42.389427 26.89412,81.187425 61.2219,106.964802 7.80244,5.858986 14.68744,10.090338 23.9448,14.715838 14.96495,7.47736 30.2042,12.24658 46.56666,14.57341 5.37528,0.76438 10.89927,1.30082 12.03854,1.16911 l 0.79376,-0.0918 0.13229,-8.59896 0.13229,-8.59896 h 8.86354 8.86354 l 0.0681,17.5654 c 0.0494,12.75506 -0.0138,17.66401 -0.23084,17.92552 -0.24105,0.29043 -1.73878,0.35026 -7.74096,0.30914 -4.09314,-0.0281 -8.21599,-0.0872 -9.16187,-0.13139 z m 3.66778,-141.12415298 c -7.24071,-1.06354566 -14.01545,-4.61435992 -19.06025,-9.99003202 -9.2306,-9.835992 -11.48183,-24.427604 -5.61675,-36.405689 l 0.73493,-1.500928 -3.42208,-3.492683 c -1.88215,-1.920978 -11.78653,-11.888563 -22.00973,-22.150187 -10.22321,-10.261622 -18.58765,-18.775543 -18.58765,-18.919818 0,-0.340476 12.22554,-12.56123 12.56615,-12.56123 0.14239,0 10.14271,9.959487 22.22293,22.132186 l 21.96404,22.132182 1.64218,-0.831244 c 6.89451,-3.489883 15.97868,-4.155668 23.66679,-1.734555 9.56258,3.011413 17.30197,10.463101 20.85699,20.081645 l 0.68453,1.852084 31.21123,0.132291 31.2112,0.132292 v 8.863542 8.863542 l -31.2112,0.132291 -31.21123,0.132292 -0.69189,1.852084 c -4.24905,11.3738289 -13.99922,19.4246502 -25.65229,21.18135127 -2.70577,0.40788168 -6.89001,0.45225231 -9.2979,0.0985837 z m 8.2037,-18.35697702 c 4.51251,-1.20105 8.30449,-4.794965 9.87044,-9.354874 0.48317,-1.406922 0.60791,-2.340239 0.60791,-4.548293 0,-2.208054 -0.12474,-3.141372 -0.60791,-4.548294 -3.4818,-10.138675 -16.18395,-13.151115 -23.7116,-5.623454 -2.80971,2.80969 -4.11574,6.037474 -4.11574,10.171748 0,4.070085 1.28501,7.307104 3.99225,10.056707 2.85103,2.895626 5.98619,4.214892 10.03067,4.220819 1.38244,0.0026 3.15273,-0.166423 3.93398,-0.374359 z"
         style="fill:#fedbc6;stroke-width:0.26458335" />
      <path
         id="path4620"
         d="m -389.97132,202.13851 c -48.3809,-1.11045 -95.17318,-17.36735 -133.87917,-46.5133 -9.43172,-7.10218 -15.89428,-12.72757 -24.62545,-21.43548 -9.08163,-9.05746 -14.75818,-15.56666 -22.07586,-25.31407 -36.72596,-48.920265 -52.74644,-109.44285738 -45.09144,-170.347562 5.0706,-40.342698 20.55031,-78.467018 45.12033,-111.125008 7.36151,-9.78477 12.99695,-16.24403 22.04697,-25.26995 8.82277,-8.79926 15.24873,-14.3838 24.89004,-21.63089 47.87355,-35.98514 107.48335,-51.88392 167.34896,-44.63433 58.49199,7.08324 112.45574,36.74456 150.67796,82.82053 29.60407,35.68701 48.18824,80.09194 52.64631,125.792774 0.86019,8.818033 0.97938,11.48506 1.12049,25.069271 0.0797,7.676225 0.21857,13.956772 0.30853,13.956772 0.09,0 4.12292,-3.958008 8.96212,-8.795597 l 8.79853,-8.795597 6.21803,6.213792 c 3.41993,3.417597 6.21803,6.33193 6.21803,6.476313 0,0.368432 -38.95384,39.296923 -39.32254,39.296923 -0.36679,0 -39.09502,-38.779451 -39.20267,-39.254511 -0.0419,-0.185076 2.64183,-3.114172 5.96394,-6.509067 5.33665,-5.453592 6.10061,-6.140107 6.55855,-5.893859 0.28508,0.153326 4.30818,4.100963 8.94021,8.772605 4.73306,4.77348 8.54636,8.416899 8.70607,8.318209 0.3479,-0.215027 0.096,-23.097491 -0.31854,-28.933379 -2.78873,-39.261686 -14.75689,-74.597629 -36.06942,-106.494799 -8.13184,-12.17043 -16.5694,-22.40254 -27.28024,-33.0824 -6.40911,-6.39057 -10.70348,-10.2478 -17.35661,-15.58976 -46.64186,-37.4499 -106.14737,-53.58674 -165.38921,-44.85062 -40.16134,5.92241 -77.63005,23.16116 -108.71913,50.01991 -29.01005,25.06263 -51.01062,57.66399 -63.33922,93.85869 -21.00851,61.677449 -13.03761,130.164794 21.53018,184.991067 28.28585,44.862803 72.246,78.115643 122.37499,92.568343 17.82636,5.13951 33.6601,7.57063 55.03301,8.44976 l 4.49792,0.18503 0.0697,8.76561 0.0697,8.76562 -0.59884,0.16045 c -0.32936,0.0883 -0.89649,0.13681 -1.26029,0.10789 -0.36381,-0.0289 -1.97115,-0.0827 -3.57188,-0.11938 z m 65.71472,-0.09 c -2.82289,-0.47699 -5.34035,-2.32868 -6.54272,-4.81243 -1.06725,-2.20467 -1.14951,-3.88763 -1.02957,-21.06576 0.12779,-18.30477 0.16213,-18.70916 2.0819,-24.51282 4.187,-12.65783 14.4612,-21.99955 27.72021,-25.20437 2.77294,-0.67024 2.98206,-0.68085 16.96275,-0.86053 11.95589,-0.15367 14.39029,-0.24948 15.66815,-0.61661 6.97646,-2.00435 11.89395,-6.43787 14.22495,-12.82494 3.49028,-9.5636 -0.61044,-20.375906 -9.48951,-25.020799 -4.47014,-2.33844 -7.26851,-2.660332 -21.54637,-2.47859 -8.31208,0.105807 -10.69462,0.215927 -12.02175,0.555678 -8.71476,2.230861 -14.62537,9.057693 -15.60499,18.023921 l -0.20235,1.85208 -8.83447,0.0698 -8.83446,0.0697 0.14502,-2.98016 c 0.62264,-12.795889 8.5553,-24.945662 20.3359,-31.146702 2.75934,-1.452457 6.87327,-2.905707 10.28488,-3.633126 2.02036,-0.430795 3.76846,-0.479531 17.19792,-0.479531 h 14.94896 l 2.93613,0.704003 c 7.68744,1.84322 13.62647,5.234623 19.07725,10.893823 5.05968,5.253143 8.29411,11.316573 9.90301,18.564675 0.83947,3.781848 0.96523,10.273958 0.27676,14.287498 -2.68243,15.6373 -14.20318,27.77575 -29.54732,31.13143 -3.50591,0.76674 -8.02693,0.99568 -19.86756,1.00611 -9.65978,0.008 -10.78873,0.0558 -12.64013,0.52927 -6.09832,1.55969 -11.45,6.27375 -13.84016,12.19118 -1.29869,3.21527 -1.42256,4.75927 -1.34697,16.78993 l 0.0698,11.1125 38.76146,0.13229 38.76146,0.1323 0.0697,8.76561 0.0697,8.76562 -0.59885,0.16045 c -0.89041,0.2386 -86.12079,0.13975 -87.5487,-0.10152 z m 155.28023,0.0871 c -0.43262,-0.11316 -0.46553,-1.32551 -0.52917,-19.48233 l -0.0679,-19.36165 -29.50104,-0.13819 c -21.71192,-0.10171 -29.73396,-0.22077 -30.38325,-0.45096 -3.24905,-1.15184 -5.44454,-3.64355 -6.16325,-6.99474 -0.39637,-1.84822 0.0762,-4.52951 1.07614,-6.10629 1.07286,-1.69175 67.27341,-79.891628 68.46408,-80.873734 4.18061,-3.448236 10.55693,-2.063301 13.28603,2.885784 l 0.94837,1.719791 0.13229,35.851039 0.13229,35.85105 5.68855,0.13229 5.68854,0.13229 0.0697,8.76562 0.0697,8.76562 -0.59885,0.16044 c -0.32936,0.0883 -2.95032,0.16209 -5.82436,0.16407 l -5.22552,0.004 v 19.30527 c 0,18.81576 -0.013,19.31223 -0.51178,19.57916 -0.50215,0.26877 -15.75454,0.35238 -16.75056,0.0918 z m -0.62534,-57.38646 c 0.0883,-0.23019 0.1606,-10.24017 0.1606,-22.24439 0,-18.37905 -0.0574,-21.81239 -0.36364,-21.74034 -0.50147,0.11798 -37.48241,43.90742 -37.3126,44.18216 0.0751,0.12161 8.51077,0.22109 18.74583,0.22109 16.72508,0 18.62548,-0.0424 18.76981,-0.41852 z m -219.84044,-3.2 c -33.78426,-0.87083 -67.31537,-12.14668 -94.89222,-31.91037 -30.08611,-21.562005 -52.25723,-51.523635 -63.8693,-86.31174 -6.19048,-18.5457845 -8.93243,-35.479753 -8.93243,-55.165627 0,-19.685869 2.74195,-36.619835 8.93243,-55.165627 6.03024,-18.065726 14.39497,-33.974826 25.91209,-49.282846 43.53501,-57.86472 117.75317,-82.39748 186.95672,-61.7984 38.41062,11.43327 72.21855,36.66213 94.60754,70.59999 14.22945,21.56943 23.34199,45.515864 26.9495,70.819345 1.23759,8.680678 1.55224,13.439686 1.58028,23.901496 l 0.0262,9.789584 -17.4625,0.06882 c -16.18192,0.06379 -17.48677,0.03582 -17.79323,-0.381291 -0.24757,-0.336947 -0.33073,-2.486766 -0.33073,-8.551069 0,-6.066579 0.0831,-8.212905 0.33073,-8.546809 0.29622,-0.399389 1.21393,-0.452941 8.79739,-0.51361 l 8.46667,-0.06771 -0.0787,-1.587501 c -0.15793,-3.186959 -0.87588,-9.627902 -1.53363,-13.758333 -4.55391,-28.596922 -16.77363,-54.934132 -35.84575,-77.258332 -3.41556,-3.99796 -12.39232,-12.97304 -16.35572,-16.35267 -24.58591,-20.96452 -54.70322,-33.86794 -85.62163,-36.68363 -1.74625,-0.15903 -3.72435,-0.34795 -4.39578,-0.41982 -0.83747,-0.0896 -1.31396,-0.0184 -1.51757,0.22694 -0.20229,0.24375 -0.31907,3.0466 -0.36673,8.80174 l -0.0699,8.4441 -8.20208,0.074 c -4.51115,0.0407 -8.46998,0.009 -8.7974,-0.0712 l -0.59531,-0.14521 v -8.5783 c 0,-4.71807 -0.10193,-8.6413 -0.22651,-8.7183 -0.33457,-0.20677 -5.83103,0.29181 -11.47221,1.04064 -46.15854,6.12724 -87.44512,33.3648 -111.84455,73.78602 -12.45806,20.638592 -20.18716,44.937702 -21.86772,68.748768 l -0.18181,2.57601 8.70109,0.06982 8.70108,0.0698 v 8.863542 8.863542 l -8.70108,0.0698 -8.70109,0.06982 0.18131,2.57601 c 0.91937,13.0621359 4.01906,27.830596 8.46428,40.328031 18.4698,51.926545 62.49337,90.083227 116.2298,100.740167 6.50128,1.28934 19.83292,2.91388 20.50478,2.49864 0.11695,-0.0723 0.21263,-3.99163 0.21263,-8.70971 v -8.5783 l 0.59531,-0.1452 c 0.32742,-0.0799 4.28625,-0.11189 8.7974,-0.0712 l 8.20208,0.074 0.068,17.71031 c 0.0537,13.9931 -0.002,17.7546 -0.26459,17.92148 -0.30316,0.19245 -6.64817,0.21169 -13.2972,0.0403 z m 2.51354,-140.99979922 c -4.99863,-0.56851023 -8.6697,-1.62697588 -12.44541,-3.58835868 -15.40015,-7.9999681 -21.69276,-26.4512171 -14.49978,-42.5164261 0.41329,-0.923079 0.75144,-1.797923 0.75144,-1.944106 0,-0.146182 -9.82266,-10.152758 -21.82813,-22.23683 -12.00546,-12.084072 -21.82812,-22.163969 -21.82812,-22.399771 0,-0.547587 11.6406,-12.198279 12.18771,-12.198279 0.22519,0 10.27122,9.882185 22.32449,21.960414 12.05328,12.07823 22.02154,21.960418 22.15168,21.960418 0.13014,0 0.91784,-0.342022 1.75044,-0.76005 4.72123,-2.370429 11.25837,-3.527468 16.73273,-2.961606 9.21786,0.952812 17.32773,5.539955 22.88464,12.944118 1.74951,2.331099 3.96307,6.507891 4.75253,8.967643 l 0.4458,1.389062 h 31.01438 c 23.7695,0 31.08851,0.07416 31.33185,0.3175 0.23355,0.233548 0.3175,2.528253 0.3175,8.678334 0,6.150081 -0.084,8.444786 -0.3175,8.678333 -0.24334,0.243338 -7.56229,0.3175 -31.33156,0.3175 h -31.01404 l -0.56544,1.699155 c -0.75946,2.28211 -2.63019,5.901108 -4.15506,8.038015 -4.97055,6.9656064 -12.94105,11.9841703 -21.08029,13.27303518 -1.95555,0.30966835 -6.29335,0.52824065 -7.57986,0.3818996 z m 5.32395,-18.21643078 c 3.59644,-0.762318 6.82212,-2.950792 8.87646,-6.022287 1.86437,-2.787465 2.33605,-4.432883 2.33605,-8.14922 0,-3.716338 -0.47168,-5.361755 -2.33605,-8.14922 -5.16382,-7.720542 -16.12203,-8.535221 -22.46134,-1.669838 -1.77124,1.918255 -2.72536,3.684693 -3.38652,6.269778 -0.66196,2.58826 -0.66196,4.510299 0,7.09856 0.64974,2.540476 1.60283,4.324985 3.31307,6.203288 3.51191,3.85699 8.57754,5.495899 13.65833,4.418939 z"
         style="fill:#fecbae;stroke-width:0.26458335" />
      <path
         id="path4618"
         d="m -394.46924,201.87893 c -19.39564,-0.98369 -36.52045,-3.75806 -53.71041,-8.70154 -33.34738,-9.59003 -62.93508,-25.78073 -89.69375,-49.08137 -4.65762,-4.05572 -17.24126,-16.67648 -21.44978,-21.51306 -24.54838,-28.211913 -41.69973,-60.749896 -50.78542,-96.345484 -14.37173,-56.305002 -7.27138,-116.461369 19.76221,-167.431646 8.56352,-16.14602 18.29583,-30.31195 30.754,-44.76419 4.11225,-4.77047 16.93165,-17.64651 21.71899,-21.81496 32.05166,-27.90814 68.89496,-45.99428 109.66979,-53.8362 20.89615,-4.0188 43.06489,-5.11154 64.55833,-3.18222 76.22072,6.84185 144.36969,51.32341 182.24506,118.95332 2.83932,5.06983 7.65868,14.82976 10.17307,20.60193 9.78077,22.45334 16.01112,46.590571 18.30297,70.908339 0.73094,7.755599 0.94409,12.593479 1.12197,25.466146 0.096,6.94862 0.24511,12.633855 0.33131,12.633855 0.0862,0 4.08448,-3.929063 8.885,-8.73125 4.80052,-4.802188 8.86597,-8.731251 9.03433,-8.731251 0.39076,0 12.00004,11.870797 12.00004,12.27037 0,0.16428 -8.81774,9.108996 -19.59501,19.877168 l -19.59502,19.578506 -19.41975,-19.5791675 c -10.68089,-10.7685425 -19.42486,-19.7587665 -19.43106,-19.9782385 -0.0122,-0.430424 11.59328,-12.168638 12.03095,-12.168638 0.14518,0 4.19166,3.929063 8.99219,8.731251 4.80052,4.802187 8.83216,8.73125 8.95916,8.73125 0.40103,0 0.0109,-27.309472 -0.46871,-32.808334 -2.15186,-24.672905 -7.58304,-46.630515 -16.8846,-68.262506 -29.53284,-68.68239 -92.70476,-117.56147 -165.99215,-128.4359 -11.87782,-1.76245 -21.95345,-2.39024 -35.1637,-2.19101 -17.61794,0.26571 -31.97786,2.12265 -48.64394,6.29036 -51.34489,12.83986 -96.65206,44.85593 -126.50716,89.39561 -19.9936,29.82767 -31.96909,63.451619 -35.57898,99.896154 -1.20065,12.121515 -1.20065,28.888902 0,41.010418 4.15789,41.97702 19.20279,79.696604 45.06222,112.977088 9.14012,11.76311 22.29144,25.15396 34.08474,34.7055 36.859,29.85262 81.93268,46.65599 128.47621,47.89567 4.32457,0.1152 6.2327,0.25929 6.41991,0.48488 0.16984,0.20465 0.24106,3.37849 0.19649,8.75601 l -0.0699,8.43503 -4.10104,0.0193 c -2.25558,0.0106 -4.81542,-0.0169 -5.68855,-0.0612 z m 68.71362,-0.3266 c -2.53862,-0.87757 -4.75382,-3.18601 -5.49111,-5.72214 -0.36256,-1.24725 -0.40188,-3.66586 -0.31459,-19.36316 0.0944,-16.96763 0.12922,-18.06668 0.64508,-20.31913 2.16935,-9.47251 7.07792,-17.23777 14.36743,-22.72888 4.42537,-3.33359 8.63052,-5.34167 13.88999,-6.63284 4.16478,-1.02245 6.99222,-1.19753 19.37031,-1.19951 10.73036,-0.003 11.75154,-0.0416 13.82847,-0.53943 6.94695,-1.66532 12.37271,-6.68655 14.71057,-13.61393 0.9657,-2.86144 1.19274,-7.54181 0.5149,-10.61437 -0.8809,-3.993062 -2.75613,-7.44225 -5.56953,-10.24424 -1.90322,-1.895528 -3.26133,-2.844695 -5.74847,-4.017646 -3.84516,-1.813374 -3.82423,-1.811046 -17.13021,-1.920478 -12.92667,-0.106336 -14.51152,0 -17.85937,1.187768 -7.24234,2.571432 -12.37848,9.031076 -13.35164,16.792096 -0.14505,1.15679 -0.33269,2.21483 -0.41696,2.3512 -0.19696,0.31866 -16.52619,0.32363 -17.02914,0.005 -0.83045,-0.52578 0.30207,-8.229443 1.85812,-12.63936 4.92992,-13.971667 17.35283,-23.686056 32.24691,-25.216221 4.66757,-0.479531 26.93114,-0.208677 29.82995,0.362929 15.88828,3.132852 27.60871,14.977666 30.66322,30.988557 0.68786,3.605635 0.63582,10.011115 -0.11195,13.772255 -2.69951,13.57831 -11.97258,24.41895 -24.74211,28.9247 -5.31016,1.8737 -5.98575,1.94101 -21.4839,2.14061 -15.58576,0.20074 -15.29281,0.16896 -19.31459,2.09502 -4.35273,2.08455 -7.47574,5.17538 -9.52171,9.42367 -2.08833,4.33617 -2.11111,4.52715 -2.11582,17.72708 l -0.004,11.64167 38.60313,0.067 c 28.22792,0.049 38.69997,0.1474 38.96352,0.36611 0.29316,0.24331 0.34738,1.88415 0.29062,8.79652 l -0.0697,8.49731 -44.05313,0.0579 c -42.09092,0.0553 -44.11551,0.0364 -45.45409,-0.4264 z m 156.43807,0.17005 c -0.0684,-0.1819 -0.15399,-8.96276 -0.19013,-19.51302 l -0.0657,-19.1823 -29.76563,-0.13229 -29.76562,-0.13229 -1.50881,-0.74094 c -1.90659,-0.93625 -3.70975,-2.91676 -4.45598,-4.89426 -0.70983,-1.881 -0.62638,-4.84071 0.18801,-6.66792 0.33578,-0.75343 12.84589,-15.76369 34.06926,-40.87813 18.44624,-21.828127 33.91413,-40.028285 34.37308,-40.444793 0.45894,-0.416533 1.48928,-1.06553 2.28965,-1.442217 1.8134,-0.853493 4.45558,-0.942208 6.55148,-0.220001 1.95754,0.674529 4.01296,2.622973 4.98297,4.723633 l 0.76867,1.664626 0.0726,35.652602 0.0726,35.65261 h 5.51741 c 4.34811,0 5.58115,0.0768 5.81816,0.36237 0.21405,0.25794 0.28059,2.79347 0.23082,8.7974 l -0.0699,8.43502 -5.68854,0.13229 -5.68855,0.13229 -0.13657,19.44688 c -0.0751,10.69578 -0.16444,19.47664 -0.19844,19.51302 -0.034,0.0364 -3.93512,0.0661 -8.66913,0.0661 -6.64305,0 -8.63565,-0.0755 -8.73167,-0.33073 z m -0.1882,-79.00067 c 0.054,-17.80892 0,-22.29245 -0.26458,-22.20839 -0.46083,0.14611 -37.48725,43.91438 -37.49773,44.32541 -0.007,0.26451 3.84535,0.31861 18.8431,0.26459 l 18.85156,-0.0679 z m -223.50828,18.57272 c -19.82046,-1.33887 -33.79859,-4.17799 -50.70247,-10.29825 -28.59341,-10.35262 -55.64201,-29.83145 -75.09776,-54.081045 -8.08422,-10.076154 -14.2128,-19.70458 -20.21551,-31.75995 -9.90128,-19.884972 -15.35893,-39.5089336 -17.54969,-63.103127 -0.52741,-5.680101 -0.44021,-23.360751 0.14485,-29.368751 2.94969,-30.290792 12.67051,-57.533417 29.2198,-81.888547 36.27426,-53.38381 98.14567,-82.00015 161.84974,-74.85761 47.39873,5.31437 90.32822,30.1429 119.13849,68.90449 18.63119,25.06657 30.04966,54.640366 33.25175,86.121876 0.53475,5.257482 0.98496,16.151992 0.88564,21.43125 l -0.0821,4.365625 -17.66094,0.06803 -17.66093,0.06802 v -8.733129 -8.733128 l 8.40052,-0.004 c 4.62785,-0.0026 8.57268,-0.112977 8.78387,-0.246592 0.77669,-0.491331 -0.79748,-13.661123 -2.78093,-23.265752 -11.52429,-55.80563 -53.9139,-101.50925 -108.85971,-117.37041 -10.38744,-2.99854 -23.76776,-5.35487 -31.28679,-5.50974 l -2.44759,-0.0504 -0.13229,8.59896 -0.13229,8.59896 -8.66511,0.0698 -8.6651,0.0698 v -8.31635 c 0,-4.57399 -0.0723,-8.50468 -0.1606,-8.73486 -0.20593,-0.53664 -1.34161,-0.53902 -6.39536,-0.0134 -28.62869,2.97749 -54.57935,13.12672 -77.44925,30.2902 -6.06261,4.5499 -10.1741,8.15605 -16.41919,14.40114 -6.27107,6.27107 -9.78305,10.27863 -14.56025,16.61488 -17.48149,23.18661 -28.1078,50.919902 -30.64254,79.973061 -0.25253,2.894436 -0.28387,4.337923 -0.0991,4.564062 0.20589,0.251963 2.27195,0.33073 8.6762,0.33073 7.42107,0 8.42478,0.04903 8.56656,0.418517 0.20963,0.546259 0.20963,16.079206 0,16.625465 -0.14179,0.369517 -1.14697,0.418518 -8.58334,0.418518 -6.45069,0 -8.47152,0.07744 -8.63108,0.330729 -0.2797,0.444024 -0.16041,2.572412 0.4634,8.26823 3.04126,27.768815 13.55182,54.172566 30.4875,76.588146 4.67703,6.190404 8.0958,10.076286 14.45136,16.425942 9.76458,9.755479 18.46776,16.575829 29.91651,23.44441 19.94956,11.96856 42.83464,19.35573 65.96685,21.2937 3.37608,0.28284 3.95562,0.27556 4.16314,-0.0524 0.13259,-0.20957 0.2429,-4.16287 0.24513,-8.78517 l 0.004,-8.40412 8.6651,0.0697 8.66511,0.0698 v 17.59479 17.59479 l -7.9375,0.0217 c -4.36563,0.0119 -8.47329,-0.0143 -9.12813,-0.0586 z m 2.94631,-141.26078507 c -10.59313,-1.86147613 -19.90312,-9.26644943 -24.10455,-19.17221193 -3.46411,-8.16737 -3.42029,-17.417018 0.12158,-25.664584 0.53119,-1.236927 1.0337,-2.40837 1.11669,-2.603209 0.0953,-0.223758 -7.95178,-8.460809 -21.84686,-22.362566 -12.09876,-12.104574 -21.99775,-22.125977 -21.99775,-22.269784 0,-0.287078 11.93413,-12.29569 12.21943,-12.29569 0.0972,0 10.10239,9.955975 22.23382,22.124387 l 22.05715,22.124393 1.64999,-0.832913 c 6.97096,-3.51893 16.18862,-4.177327 23.72815,-1.694852 3.23128,1.063934 5.31222,2.072984 8.09964,3.927533 5.5826,3.714255 10.3061,9.764885 12.42031,15.909939 0.28141,0.81788 0.6459,1.64883 0.80999,1.84658 0.24837,0.299243 5.50566,0.359516 31.35453,0.359516 h 31.05616 v 8.730165 8.730166 l -31.14456,0.06723 -31.14455,0.06723 -0.33634,0.661458 c -0.185,0.363802 -0.70122,1.607317 -1.14721,2.763388 -2.92486,7.582006 -9.85636,14.5309965 -17.57894,17.6232614 -3.95545,1.58382231 -6.7307,2.13854774 -11.25257,2.24914358 -2.8392,0.0694531 -4.78198,-0.0193146 -6.31411,-0.28858005 z m 9.24265,-17.74248293 c 5.29007,-1.554797 9.32414,-5.842979 10.43003,-11.087021 0.21482,-1.018646 0.39057,-2.387864 0.39057,-3.042708 0,-6.381062 -4.51463,-12.27635 -10.8206,-14.12973 -1.83096,-0.538109 -5.51561,-0.546523 -7.54775,-0.0172 -4.86616,1.267461 -9.00461,5.450444 -10.33364,10.444798 -0.21268,0.799254 -0.3867,2.465229 -0.3867,3.702156 0,1.236927 0.17402,2.902903 0.3867,3.702156 1.31264,4.93276 5.44082,9.146435 10.22007,10.431754 1.95072,0.52459 5.86939,0.522473 7.66132,-0.0042 z"
         style="fill:#feb68d;stroke-width:0.26458335" />
      <path
         id="path4616"
         d="m -390.89736,201.87885 c -70.71014,-1.8715 -136.62567,-36.12676 -179.6397,-93.35595 -37.59198,-50.015278 -53.50756,-113.4667027 -44.06681,-175.683343 5.16677,-34.050167 17.55442,-65.959677 36.77486,-94.728797 18.16735,-27.19286 42.15027,-50.5984 69.63542,-67.95897 50.56496,-31.93855 111.14817,-43.01918 169.94831,-31.08344 46.9891,9.53825 90.41014,33.98052 123.48078,69.50897 31.21922,33.53946 51.93284,75.42744 59.48511,120.293487 2.46274,14.630538 3.29718,25.717738 3.29943,43.839078 0,6.066896 0.0981,11.090514 0.21632,11.163591 0.11825,0.07308 4.13592,-3.789415 8.92818,-8.583348 4.79227,-4.793906 8.89598,-8.716195 9.11937,-8.716195 0.22339,0 3.07819,2.681658 6.34397,5.959263 l 5.9378,5.959237 -9.25279,9.320451 c -25.95105,26.140782 -29.64384,29.825634 -29.8899,29.825634 -0.23318,0 -35.84578,-35.557461 -38.23147,-38.172286 l -0.91083,-0.998326 6.07348,-6.077796 6.07349,-6.077797 8.94818,8.928206 c 8.0714,8.053414 8.97681,8.877724 9.24031,8.412904 0.34657,-0.611347 0.10093,-22.843385 -0.32028,-28.985741 -2.67386,-38.991856 -14.48597,-74.200342 -35.59485,-106.097922 -11.50136,-17.37966 -26.06699,-33.63325 -42.19421,-47.08391 -60.54437,-50.4961 -143.86095,-63.62322 -217.09063,-34.20418 -50.61157,20.33253 -92.59855,60.38911 -115.46976,110.16092 -10.78372,23.46729 -16.9561,47.129079 -19.24758,73.785509 -0.65836,7.658656 -0.65836,26.208012 0,33.866668 3.26928,38.030945 14.92858,71.797415 35.49282,102.790628 8.46729,12.761415 16.80614,22.941225 27.63548,33.736515 35.89273,35.77998 82.27957,57.52939 132.31092,62.03668 4.24977,0.38285 14.46524,0.92445 17.53226,0.9295 l 1.52497,0.003 -0.0698,8.6651 -0.0698,8.66511 -1.5875,0.0159 c -0.87312,0.009 -2.83765,-0.0172 -4.36562,-0.0577 z m 66.44526,-0.11046 c -1.86166,-0.3665 -3.36579,-1.24201 -4.76615,-2.77421 -2.37172,-2.59506 -2.28015,-1.73503 -2.28015,-21.41503 0,-19.38004 0.0465,-19.98554 1.98284,-25.82897 1.96749,-5.93738 4.63452,-10.20958 9.23822,-14.79839 4.5131,-4.4985 9.05242,-7.34224 14.7081,-9.21411 5.03995,-1.66809 5.10636,-1.67418 20.50521,-1.87873 15.04284,-0.19978 14.81596,-0.18039 18.57957,-1.58856 3.48578,-1.30418 7.87239,-5.08256 9.97514,-8.592 2.17734,-3.63394 3.24231,-8.62406 2.72947,-12.78932 -0.62402,-5.068147 -2.50574,-8.909606 -6.12262,-12.498997 -2.72952,-2.708804 -5.80086,-4.438412 -9.39879,-5.292936 -2.16755,-0.514774 -2.94609,-0.538189 -15.43886,-0.464424 l -13.1562,0.07768 -2.11667,0.742897 c -5.20842,1.828006 -9.5691,5.573342 -11.88399,10.20707 -1.1911,2.384213 -1.68664,3.993727 -2.08995,6.78794 l -0.3421,2.37043 -8.48884,0.0698 c -6.74558,0.0555 -8.51578,0 -8.62005,-0.27215 -0.0721,-0.18804 -0.0275,-1.4696 0.0994,-2.8479 1.48313,-16.119818 12.50011,-29.295301 27.95418,-33.431083 4.3378,-1.160886 6.34754,-1.271085 21.09849,-1.157049 l 13.75833,0.106362 2.87322,0.700908 c 13.13667,3.204554 23.16983,12.457669 27.42425,25.292051 1.49664,4.514929 1.95048,7.922131 1.76609,13.258881 -0.21029,6.08626 -1.26063,10.38664 -3.77063,15.43799 -1.95405,3.9325 -3.96095,6.69777 -7.24188,9.97852 -4.6137,4.61346 -8.86323,7.2702 -14.80125,9.25354 -5.28396,1.76488 -6.45236,1.87693 -21.86021,2.09648 -14.43903,0.20576 -14.27031,0.19105 -17.4625,1.5213 -4.20643,1.75286 -8.31509,5.61115 -10.31717,9.68846 -2.12709,4.33186 -2.11825,4.25725 -2.11825,17.90496 v 12.03855 l 38.83123,0.067 38.8312,0.067 -0.0697,8.66423 -0.0698,8.66424 -43.39167,0.0375 c -23.86542,0.0206 -43.91176,-0.0648 -44.54745,-0.18997 z m 155.45197,0.10832 c -0.097,-0.097 -0.17822,-8.75879 -0.18044,-19.24844 -0.003,-10.48962 -0.0967,-19.21785 -0.20993,-19.39607 -0.15996,-0.25178 -6.78211,-0.34028 -29.69543,-0.39688 l -29.48956,-0.0728 -1.51368,-0.61145 c -5.20107,-2.10098 -7.06755,-8.81494 -3.68437,-13.25322 0.51006,-0.6691 15.87436,-18.88673 34.14292,-40.48355 23.08735,-27.293573 33.55964,-39.485203 34.34402,-39.98262 1.61838,-1.026345 3.23231,-1.408165 5.30765,-1.255686 3.20331,0.235374 5.80647,2.024539 7.16653,4.925616 l 0.70152,1.496325 0.069,35.562775 c 0.0497,25.60929 0.15129,35.66198 0.36312,35.91719 0.22862,0.27546 1.5254,0.35441 5.8216,0.35441 h 5.52746 l -0.0697,8.66511 -0.0698,8.6651 -5.68855,0.13229 -5.68854,0.13229 -0.0679,19.30006 c -0.0529,15.0368 -0.14055,19.34618 -0.39688,19.50895 -0.39745,0.25241 -16.43821,0.29149 -16.68904,0.0406 z m -0.47186,-56.80411 c 0.4218,-0.50824 0.2925,-44.66461 -0.1312,-44.80584 -0.23342,-0.0778 -37.00077,43.05562 -37.76655,44.30562 -0.11142,0.1819 -0.12901,0.44979 -0.0391,0.59531 0.10652,0.17235 6.69473,0.26458 18.90094,0.26458 15.47124,0 18.78943,-0.0627 19.03589,-0.35967 z m -222.66855,-3.88906 c -48.17091,-2.09608 -93.28829,-24.48904 -124.44383,-61.764812 -16.35991,-19.573664 -28.45314,-43.016542 -34.76903,-67.400172 -9.07137,-35.02168 -7.088,-71.769925 5.69754,-105.565187 4.34338,-11.480569 10.93949,-24.239079 17.95664,-34.732569 27.20493,-40.68237 70.42865,-68.05485 118.41332,-74.98814 28.05618,-4.05382 56.78053,-1.09225 83.40442,8.59926 18.76933,6.83233 35.68589,16.64144 51.79766,30.03497 4.61788,3.83881 15.56666,14.60006 19.35517,19.02371 10.26597,11.98699 17.43914,22.79919 24.39911,36.77708 12.31236,24.727182 18.31866,51.070853 17.97672,78.845836 l -0.0831,6.746875 -17.31341,0.06808 c -13.67557,0.05376 -17.35778,-0.0026 -17.5246,-0.264584 -0.24429,-0.38481 -0.29943,-16.087805 -0.0587,-16.715185 0.14184,-0.369675 1.15752,-0.418517 8.70294,-0.418517 6.59558,0 8.56879,-0.07538 8.65841,-0.33073 0.15719,-0.447966 -0.22302,-5.387419 -0.73829,-9.591146 -3.72812,-30.416107 -15.70705,-58.024819 -35.47264,-81.756259 -3.44829,-4.14015 -11.75192,-12.65018 -16.02997,-16.42838 -25.03006,-22.10563 -56.02171,-35.47763 -88.82728,-38.32638 -2.39329,-0.20783 -4.44712,-0.31874 -4.56406,-0.24646 -0.11695,0.0723 -0.21445,3.90462 -0.21668,8.51632 -0.002,4.6117 -0.0996,8.53543 -0.21639,8.71941 -0.16545,0.26065 -2.07802,0.31907 -8.66105,0.26459 l -8.44872,-0.0699 -0.0699,-8.58565 c -0.0515,-6.33359 -0.15326,-8.63719 -0.38776,-8.78212 -0.36841,-0.22768 -1.96388,-0.11492 -8.53631,0.60334 -23.94496,2.61679 -47.52866,11.25573 -67.9998,24.90899 -36.77368,24.52626 -61.54338,63.669071 -67.84525,107.213779 -0.67059,4.633648 -1.40788,12.043834 -1.2956,13.021549 l 0.0846,0.736785 8.59896,0.132292 8.59896,0.132291 v 8.598959 8.598958 l -8.59896,0.132292 -8.59896,0.132292 -0.0844,0.594307 c -0.12122,0.853466 0.66091,8.816658 1.29296,13.1640266 9.06198,62.3304374 55.25308,113.4454494 116.19927,128.5859694 8.40037,2.08687 15.17366,3.16672 26.52552,4.22891 0.72761,0.0681 1.47007,0.0318 1.64991,-0.0807 0.24629,-0.15404 0.34425,-2.3237 0.39688,-8.79017 l 0.0699,-8.58565 8.44872,-0.0699 c 6.58303,-0.0545 8.4956,0.004 8.66105,0.26458 0.11678,0.18399 0.21416,8.02 0.21639,17.41337 0.003,12.93534 -0.073,17.15587 -0.31345,17.39635 -0.35838,0.35838 -8.21017,0.3768 -16.00693,0.0375 z m 4.81505,-140.92804194 c -3.67021,-0.33342793 -8.36276,-1.67124066 -11.64166,-3.31895986 -4.21537,-2.1183072 -9.04722,-6.3077463 -11.84703,-10.2719452 -3.77193,-5.340615 -5.74776,-11.748533 -5.74776,-18.640876 0,-4.776152 0.93682,-9.076796 2.96297,-13.601991 0.41893,-0.93562 0.72732,-1.854782 0.6853,-2.042557 -0.042,-0.187775 -9.87926,-10.227033 -21.86053,-22.309467 -11.98127,-12.082433 -21.7444,-22.073354 -21.69583,-22.20205 0.21635,-0.573318 11.5807,-11.937472 11.93768,-11.937472 0.21966,0 10.1927,9.882188 22.16231,21.960418 11.9696,12.078229 21.92751,21.960417 22.12868,21.960417 0.20116,0 0.92735,-0.28416 1.61373,-0.631468 4.16823,-2.109097 9.01408,-3.187134 14.21256,-3.161805 6.54273,0.03188 12.22245,1.753849 17.53455,5.316096 5.48532,3.678409 9.50679,8.714409 12.09468,15.145928 l 1.11784,2.778125 31.19313,0.132292 31.19313,0.132291 v 8.598959 8.598958 l -31.19313,0.132292 -31.19313,0.132292 -1.11784,2.778125 c -2.85964,7.106894 -7.52027,12.5664386 -13.87609,16.2546775 -5.52815,3.20796719 -12.44181,4.76294995 -18.66356,4.19772056 z m 5.75662,-17.66546206 c 2.63697,-0.5588 5.31381,-2.057268 7.37146,-4.126495 2.83695,-2.852896 4.19585,-6.189425 4.19585,-10.302108 0,-4.194678 -1.36961,-7.492524 -4.33826,-10.445989 -8.93793,-8.892177 -23.90568,-3.183043 -24.92522,9.507221 -0.33509,4.170891 1.19527,8.109585 4.37615,11.262916 2.28457,2.264754 3.91791,3.231118 6.68779,3.956738 2.33279,0.611134 4.2445,0.653706 6.63223,0.147717 z"
         style="fill:#fea674;stroke-width:0.26458335" />
      <path
         id="path4614"
         d="m -395.92283,201.50981 c -71.89797,-3.59571 -137.50729,-40.03159 -179.11206,-99.46921 -35.55515,-50.794971 -49.36455,-114.008958 -38.34998,-175.551044 6.56544,-36.683286 22.14947,-71.743096 45.04342,-101.335416 34.50906,-44.60582 83.49232,-75.1264 138.15346,-86.0809 36.42325,-7.29949 74.37245,-5.71294 109.93438,4.59604 28.52441,8.26889 55.254,22.0229 78.82805,40.56186 9.1394,7.18735 20.47211,17.73963 28.32124,26.37091 30.30969,33.32997 50.23382,74.26233 57.67882,118.495938 2.40655,14.298166 2.95101,21.2577 3.10785,39.724903 0.0853,10.046044 0.21791,14.928851 0.41177,15.165044 0.22278,0.271436 2.26254,-1.627558 9.2351,-8.597847 l 8.94916,-8.946251 6.01731,6.017313 6.01734,6.01734 -5.42163,5.490951 c -15.85592,16.05864768 -33.2351,33.404493 -33.4687,33.404493 -0.34796,0 -38.76173,-38.416363 -38.76173,-38.764343 0,-0.146368 2.68201,-2.944019 5.96001,-6.217021 l 5.96003,-5.950929 8.61502,8.797396 c 5.37255,5.486295 8.80552,8.797396 9.12122,8.797396 0.4908,0 0.50622,-0.349805 0.50622,-11.480033 0,-12.249309 -0.22534,-17.780397 -1.06836,-26.223093 -4.16769,-41.738612 -20.58429,-81.723107 -46.92859,-114.300007 -9.19689,-11.37269 -21.49393,-23.66909 -32.83326,-32.83151 -29.79144,-24.07213 -66.22745,-39.99163 -103.76325,-45.33588 -12.45671,-1.77356 -20.23053,-2.24452 -34.01078,-2.06049 -10.45634,0.13964 -15.38039,0.45424 -23.88638,1.52615 -71.7022,9.03571 -134.59112,54.32092 -166.56488,119.94043 -12.4399,25.53032 -19.32534,51.520437 -21.45862,80.998807 -0.68935,9.52553 -0.37293,25.44752 0.71772,36.1156266 7.53943,73.7465214 52.50661,138.6855964 119.04328,171.9156164 27.49705,13.7327 58.07698,21.40794 88.63541,22.24657 l 6.35,0.17428 v 8.46667 8.46666 l -3.43958,0.0293 c -1.89177,0.0161 -5.28433,-0.0629 -7.53901,-0.17571 z m 70.45688,-0.21357 c -1.8985,-0.65654 -3.36794,-1.73633 -4.32097,-3.17513 -1.6428,-2.48018 -1.6234,-2.20189 -1.50955,-21.65988 0.0982,-16.78874 0.13105,-17.78966 0.65942,-20.12331 1.76826,-7.8101 5.03772,-13.89121 10.35352,-19.25741 5.42057,-5.47192 12.43623,-9.14035 20.27054,-10.5992 1.93787,-0.36087 4.94308,-0.47565 16.13959,-0.6164 13.42403,-0.16878 13.80334,-0.18783 15.61041,-0.78399 7.2018,-2.37585 12.31588,-7.7782 14.14915,-14.94671 0.72917,-2.85118 0.73245,-7.22662 0.008,-10.10179 -1.47111,-5.835336 -5.59168,-10.948436 -10.93367,-13.567308 -4.07887,-1.999668 -3.85445,-1.973527 -17.88829,-2.082774 -10.76421,-0.08382 -12.84785,-0.03707 -14.65334,0.328771 -4.34888,0.881195 -8.05337,2.939786 -11.07261,6.153018 -3.07948,3.277341 -4.91773,7.137268 -5.53386,11.619763 -0.1565,1.13863 -0.37259,2.1613 -0.48022,2.27258 -0.10761,0.11129 -3.8789,0.17082 -8.38062,0.13229 l -8.18505,-0.07 0.0691,-2.3541 c 0.16968,-5.781945 2.38001,-12.607719 5.77327,-17.828636 5.89494,-9.069996 14.73218,-14.956208 25.37848,-16.903859 2.3399,-0.428069 4.20617,-0.484029 16.13959,-0.484135 14.6304,-1.06e-4 15.24712,0.04715 20.6375,1.581865 3.19759,0.910378 8.74535,3.701097 11.52453,5.797259 4.3919,3.31253 8.82034,8.606314 11.27199,13.474674 2.95008,5.858087 4.42262,13.721502 3.79934,20.288802 -0.91175,9.607 -4.66061,17.42438 -11.55094,24.08675 -5.23751,5.06423 -11.10951,8.17676 -18.48451,9.79794 -2.46483,0.54184 -3.60521,0.59455 -16.66875,0.77031 -12.17287,0.1638 -14.23109,0.24945 -15.60086,0.64926 -6.472,1.88899 -11.50951,6.43557 -13.98423,12.62142 -1.31512,3.28726 -1.50345,5.40554 -1.50345,16.91026 0,5.78988 0.0723,10.71536 0.16061,10.94555 0.14541,0.37896 3.80314,0.41889 38.69531,0.42256 21.19408,0.003 38.68526,0.0996 38.86927,0.21643 0.26057,0.1654 0.31909,2.05161 0.26459,8.52877 l -0.07,8.31638 -43.78854,0.0579 c -41.55141,0.055 -43.85884,0.0336 -45.16442,-0.41791 z m 156.41298,0.16155 c -0.0684,-0.1819 -0.15398,-8.96276 -0.19013,-19.51302 l -0.0657,-19.18229 -29.89791,-0.13229 -29.89792,-0.13229 -1.32292,-0.65514 c -1.68823,-0.83605 -3.28967,-2.43726 -4.1149,-4.11427 -0.9134,-1.85616 -0.92795,-5.25394 -0.0307,-7.17222 0.80061,-1.71167 67.71593,-80.861959 69.2331,-81.891849 4.39306,-2.982146 10.71973,-1.003327 12.56559,3.930227 0.52219,1.39565 0.53137,2.025967 0.53533,36.798062 0.003,19.45797 0.097,35.5245 0.21072,35.70341 0.15057,0.23704 1.74707,0.34472 5.88293,0.39687 l 5.67627,0.0716 v 8.46667 8.46667 l -5.55625,0.069 c -4.84513,0.0602 -5.59859,0.12591 -5.88698,0.51358 -0.25744,0.34605 -0.33073,4.6844 -0.33073,19.57628 v 19.13173 h -8.34269 c -6.43138,0 -8.37117,-0.0758 -8.46709,-0.33073 z m -0.18822,-78.84583 c 0.0571,-19.16353 0.0108,-22.688023 -0.29808,-22.688023 -0.42751,0 -38.26642,44.666753 -38.26642,45.171443 0,0.27493 3.70035,0.32729 19.24843,0.27247 l 19.24844,-0.0679 z m -225.49263,18.29131 c -45.82943,-2.75315 -88.58807,-23.72723 -118.98373,-58.364178 -27.79439,-31.67269 -43.07356,-72.245037 -43.07356,-114.377659 0,-57.980561 28.8837,-111.980433 77.12604,-144.191933 38.91873,-25.9861 86.46457,-34.8769 132.29167,-24.73779 49.65157,10.98526 92.30304,44.02405 115.78153,89.68701 10.11476,19.67203 16.15237,40.243779 18.36489,62.573962 0.45426,4.584806 0.99912,18.620609 0.87299,22.489584 l -0.0819,2.513542 -17.39636,0.06805 -17.39635,0.06805 v -8.468572 -8.468572 l 8.40052,-0.004 c 4.62029,-0.0026 8.56798,-0.110067 8.77266,-0.239659 0.42674,-0.270167 0.30482,-3.185346 -0.38262,-9.149001 -2.8394,-24.63221 -11.65129,-48.536838 -25.50474,-69.188624 -18.88004,-28.1451 -46.89007,-49.69479 -78.76207,-60.59606 -12.60578,-4.31158 -28.5794,-7.54328 -38.24902,-7.73833 l -2.99452,-0.0604 -0.0698,8.6651 -0.0698,8.66511 h -8.46305 -8.46306 l -0.004,-8.40052 c -0.002,-4.62029 -0.11004,-8.56794 -0.23958,-8.77255 -0.29098,-0.45962 -3.93766,-0.28119 -10.2479,0.50145 -44.40351,5.50716 -83.91297,29.78204 -109.46161,67.25396 -5.39295,7.90978 -11.35152,18.98741 -15.13155,28.131199 -3.49364,8.451017 -6.93932,19.888042 -8.68862,28.839585 -1.78982,9.158835 -3.15381,20.957779 -2.51216,21.730918 0.24246,0.292153 1.92376,0.361791 8.73453,0.361791 h 8.43427 v 8.466667 8.466667 h -8.43427 c -6.70052,0 -8.49438,0.07242 -8.72669,0.352345 -0.59192,0.713211 0.77858,12.870287 2.37627,21.0789055 11.3053,58.0841665 54.85598,105.0972725 111.75101,120.6356125 7.76288,2.12008 16.63928,3.76222 25.06521,4.63706 5.12648,0.53226 6.71612,0.52904 6.92453,-0.014 0.0883,-0.23019 0.1606,-4.15925 0.1606,-8.73125 v -8.31273 h 8.46857 8.46857 l -0.0681,17.39635 -0.068,17.39636 -7.40833,0.0296 c -4.07458,0.0161 -9.07521,-0.0706 -11.1125,-0.19296 z m 5.01046,-141.12150841 c -10.08628,-1.78173069 -18.58506,-7.99695219 -23.18936,-16.95854859 -1.36839,-2.663375 -2.63086,-6.426915 -3.14318,-9.370113 -0.44369,-2.548917 -0.44369,-8.034417 0,-10.583334 0.44209,-2.539762 1.72285,-6.582754 2.70068,-8.525272 0.41912,-0.832591 0.76203,-1.668833 0.76203,-1.858275 0,-0.189468 -0.96136,-1.294209 -2.13635,-2.454963 -1.175,-1.160743 -11.06863,-11.126184 -21.98585,-22.145419 l -19.8495,-20.034971 5.99317,-6.026488 5.99317,-6.026488 22.02887,22.158854 c 12.11589,12.18737 22.11452,22.158855 22.21919,22.158855 0.10467,0 0.75189,-0.280025 1.43828,-0.622279 3.74872,-1.869223 8.19897,-3.028067 12.51507,-3.258916 9.1879,-0.491416 17.74236,2.788272 24.20198,9.278787 3.46845,3.485042 6.00648,7.460999 7.53268,11.800325 0.33268,0.945885 0.78763,1.86862 1.01099,2.050521 0.31973,0.260376 6.98022,0.330729 31.31178,0.330729 h 30.90568 v 8.466667 8.466667 h -31.05615 c -24.53397,0 -31.10913,0.06945 -31.30844,0.330729 -0.13875,0.181901 -0.52425,1.104635 -0.85662,2.050521 -3.54818,10.097267 -12.44555,17.9806869 -23.03295,20.40813324 -3.01839,0.69204419 -9.15078,0.87735836 -12.05517,0.36427835 z m 8.48329,-17.09787859 c 2.26036,-0.437806 5.05552,-2.010145 7.02327,-3.950758 5.94473,-5.862744 5.9407,-15.214574 -0.009,-21.155026 -5.84626,-5.837079 -14.9066,-5.792205 -20.8018,0.102976 -3.03872,3.03874 -4.3826,6.283431 -4.37071,10.552748 0.0118,4.247885 1.60024,7.867729 4.74292,10.808759 3.73102,3.491627 8.0857,4.6736 13.41542,3.641301 z"
         style="fill:#fe8d4c;stroke-width:0.26458335" />
      <path
         id="path4612"
         d="m -396.5859,201.23338 c -75.30685,-4.02448 -143.3931,-44.00019 -184.10696,-108.095397 -15.75438,-24.801884 -26.97126,-53.435781 -32.31815,-82.500129 -2.66959,-14.5112319 -3.70576,-26.501276 -3.69366,-42.741005 0.0103,-13.819743 0.48486,-20.839319 2.23666,-33.083718 3.55993,-24.882602 10.62027,-47.613611 21.81559,-70.236081 11.49834,-23.23478 26.0344,-43.48757 44.33789,-61.77505 43.8235,-43.78518 102.14159,-68.00035 163.76717,-68.00035 52.95704,0 103.69571,17.96483 145.25625,51.43027 8.70474,7.00925 20.64914,18.39608 27.80379,26.50591 34.00817,38.54839 54.06094,85.30708 58.31449,135.976727 0.40333,4.804569 0.89662,19.551016 1.00383,30.008328 0.0474,4.619387 0.12745,5.689759 0.43333,5.791571 0.23315,0.07763 3.70816,-3.270382 9.1771,-8.841661 l 8.80184,-8.966571 5.8814,5.864966 5.88139,5.864966 -19.15837,19.3365978 c -10.53714,10.6351391 -19.27836,19.3365972 -19.42497,19.3365972 -0.23021,0 -23.49397,-23.22076 -34.79146,-34.727146 l -3.83231,-3.903186 5.81613,-5.820675 5.81615,-5.820648 8.90524,8.902356 c 6.42961,6.427497 9.02287,8.857192 9.32841,8.739955 0.37891,-0.145388 0.42278,-1.360328 0.41934,-11.613912 -0.004,-11.795972 -0.2173,-17.515893 -0.93535,-25.07758 -4.44384,-46.798078 -23.73242,-90.573515 -55.23958,-125.366355 -3.84979,-4.25124 -13.66385,-13.93633 -17.63998,-17.40816 -33.10927,-28.90987 -73.3198,-46.95571 -116.03626,-52.07521 -14.61385,-1.75144 -32.20396,-1.95109 -46.81478,-0.53134 -25.81578,2.50853 -51.43794,9.89736 -74.7868,21.56672 -27.49081,13.73945 -52.22047,33.63098 -71.57959,57.57571 -35.54376,43.96304 -52.47894,99.393067 -47.55827,155.661553 3.76755,43.082503 20.2164,83.743195 47.55827,117.561547 8.85795,10.95613 19.59479,21.78781 30.80645,31.07852 7.21279,5.97701 18.37693,13.86065 26.39535,18.63931 32.38276,19.29882 68.87418,29.72909 106.49479,30.43923 l 3.04271,0.0574 0.0699,8.26823 0.0699,8.26823 -3.77408,-0.0392 c -2.07575,-0.0217 -5.56002,-0.13467 -7.74283,-0.25132 z m 71.56979,0.0431 c -2.20385,-0.67281 -4.20621,-2.36911 -5.32977,-4.51509 l -0.62336,-1.19062 v -18.25626 c 0,-16.86607 0.038,-18.43756 0.49872,-20.6375 1.56056,-7.45132 4.72784,-13.55452 9.77267,-18.8315 4.30025,-4.49816 9.44544,-7.77248 15.2767,-9.72191 5.15327,-1.72275 6.03885,-1.80533 21.41546,-1.99675 13.52179,-0.16833 13.93981,-0.18902 15.7427,-0.77894 6.82649,-2.23366 11.88377,-7.24151 14.05203,-13.91465 0.85378,-2.62763 1.14313,-7.1478 0.64095,-10.01257 -1.26992,-7.244029 -6.52971,-13.523571 -13.43343,-16.03788 -3.53872,-1.288759 -4.93506,-1.386179 -18.19288,-1.269021 -13.56894,0.119909 -13.41247,0.101521 -17.48306,2.055283 -6.1251,2.939892 -10.83008,9.210094 -11.61163,15.474608 -0.0908,0.7276 -0.22474,1.70987 -0.29769,2.18281 l -0.13263,0.8599 h -8.22807 -8.22806 l 0.18238,-2.41594 c 0.70358,-9.319921 4.29823,-17.103011 10.98954,-23.794323 4.59132,-4.591315 9.05799,-7.352904 14.90631,-9.216047 5.2932,-1.686295 6.03925,-1.747705 21.22583,-1.747097 12.16266,0 14.04985,0.05599 16.27187,0.478579 12.92543,2.458297 23.4764,11.164464 28.3264,23.373557 3.1486,7.926176 3.35116,17.592651 0.54422,25.970791 -3.64029,10.86556 -12.58684,19.81716 -23.47285,23.48613 -5.07688,1.71109 -5.56691,1.75676 -21.00818,1.95752 -13.34265,0.17349 -14.25798,0.21593 -15.94533,0.73943 -7.61132,2.36133 -12.92958,7.8758 -14.92118,15.47162 -0.36039,1.37451 -0.45328,3.61392 -0.54795,13.20787 -0.0808,8.18965 -0.0281,11.71313 0.18095,12.10381 l 0.29493,0.55108 38.68648,0.067 38.68647,0.067 0.0699,8.26823 0.0699,8.26823 -43.85847,-0.0228 c -24.12214,-0.0124 -44.1561,-0.11362 -44.5199,-0.22466 z m 156.10417,-19.03479 c 0,-15.73667 -0.0648,-19.33596 -0.35245,-19.57467 -0.25165,-0.20886 -8.85839,-0.31271 -30.09636,-0.36314 l -29.7439,-0.0706 -1.25302,-0.62269 c -1.59879,-0.79452 -3.17526,-2.37099 -3.95597,-3.95595 -0.50368,-1.02261 -0.611,-1.66311 -0.60708,-3.62344 0.004,-2.02184 0.10385,-2.56757 0.66146,-3.61572 0.95766,-1.80025 67.77595,-80.704583 69.06532,-81.557864 4.23326,-2.801435 9.90209,-1.142286 12.12805,3.549624 l 0.6904,1.455208 0.1323,35.851042 0.13229,35.85104 5.68854,0.1323 5.68854,0.13229 0.0699,8.26823 0.0699,8.26823 h -5.40609 c -2.97334,0 -5.59441,0.0722 -5.8246,0.1606 -0.37637,0.14443 -0.41851,2.11606 -0.41851,19.57917 v 19.41856 h -8.33438 -8.33437 z m -0.0647,-59.64838 0.0676,-22.971207 -0.59168,0.08475 c -0.74523,0.106732 -38.56959,44.707407 -38.56959,45.479417 0,0.50485 0.34563,0.51276 19.51302,0.44608 l 19.51302,-0.0678 z m -226.15406,18.04363 c -66.62553,-4.11856 -124.898,-46.733647 -149.5574,-109.37243 -15.75011,-40.0077795 -15.78431,-85.840996 -0.094,-126.015408 17.3687,-44.471932 52.70161,-80.126952 96.86704,-97.750132 26.02018,-10.38274 54.48156,-14.18578 82.5495,-11.03034 30.39737,3.41731 59.34816,14.96206 83.70422,33.37886 27.73479,20.97161 48.68145,49.83384 59.7132,82.278271 6.44054,18.941736 9.36009,37.481006 9.37646,59.541351 l 0.003,4.696354 h -17.19791 -17.19792 v -8.202083 -8.202084 h 8.21947 c 5.50656,0 8.40023,-0.09673 8.76712,-0.293079 0.51787,-0.277177 0.5379,-0.438864 0.36852,-2.976562 -0.79537,-11.917234 -3.37998,-25.021803 -7.31309,-37.079318 -9.97905,-30.59218 -29.2381,-57.41885 -55.15343,-76.82532 -18.20671,-13.63395 -39.91567,-23.33945 -62.17708,-27.79771 -7.58269,-1.51858 -20.43321,-3.05435 -21.65004,-2.58741 -0.40128,0.15399 -0.44267,0.97459 -0.44267,8.77713 v 8.60726 h -8.20208 -8.20208 v -8.21947 c 0,-5.15992 -0.10196,-8.40998 -0.27389,-8.73125 -0.34405,-0.64286 -1.35711,-0.65838 -6.89894,-0.10565 -52.83342,5.26942 -99.57533,37.56224 -123.49393,85.31888 -8.57173,17.114589 -14.01743,35.764664 -15.76035,53.974999 -0.22981,2.401094 -0.47714,4.982157 -0.54961,5.735717 -0.22024,2.289863 -0.58619,2.201783 9.1477,2.201783 h 8.44777 v 8.202084 8.202083 h -8.44777 c -9.67233,0 -9.38993,-0.064 -9.15661,2.07526 0.0739,0.677624 0.26262,2.720314 0.41935,4.539324 2.3786,27.605964 13.26207,55.84423 30.35035,78.747041 26.19188,35.104018 65.50857,57.396119 109.1308,61.875879 5.34984,0.54939 6.4672,0.53105 6.81124,-0.11178 0.17193,-0.32126 0.27389,-3.57132 0.27389,-8.73125 v -8.21947 h 8.20208 8.20208 v 17.19792 17.19792 l -7.60677,-0.0383 c -4.18372,-0.0212 -9.21411,-0.13764 -11.17864,-0.25908 z m 5.18425,-141.15076801 c -6.32059,-1.14138609 -11.78511,-3.89567219 -16.31449,-8.22303859 -7.15216,-6.8331294 -10.81949,-16.5706964 -9.82152,-26.0783134 0.38988,-3.714406 1.3341,-7.278926 2.70054,-10.194846 0.57931,-1.236212 1.0533,-2.393579 1.0533,-2.571909 0,-0.178329 -9.87367,-10.261907 -21.94149,-22.407936 l -21.94149,-22.083692 5.8776,-5.873245 5.8776,-5.873242 21.53765,21.729748 c 11.84571,11.951362 21.79371,21.897524 22.10666,22.102578 0.51228,0.335656 0.76719,0.281268 2.55663,-0.545502 8.85362,-4.090625 18.5027,-4.096017 27.13134,-0.01516 7.63746,3.612081 13.47905,10.108618 16.33682,18.168454 0.53726,1.515215 0.86217,2.06494 1.28807,2.179214 0.31327,0.08403 14.35105,0.154411 31.19509,0.156395 l 30.62552,0.0036 v 8.202084 8.202083 l -30.62552,0.0037 c -16.84404,0.0026 -30.88182,0.07236 -31.19509,0.156395 -0.4259,0.114273 -0.75081,0.663998 -1.28807,2.179214 -3.9591,11.165999 -13.85006,19.3216749 -25.37707,20.92494408 -2.7564,0.38338126 -7.23422,0.31861126 -9.78208,-0.14147271 z m 9.09125,-16.63387799 c 3.83023,-1.019334 7.71656,-4.076674 9.48788,-7.464082 1.0568,-2.020993 1.9012,-5.230733 1.9012,-7.226829 0,-1.996096 -0.8444,-5.205836 -1.9012,-7.22683 -1.77132,-3.387407 -5.65765,-6.444747 -9.48788,-7.464081 -1.88634,-0.501994 -5.55995,-0.495115 -7.51479,0.01402 -5.15078,1.341596 -9.51263,5.703464 -10.85424,10.854241 -0.52358,2.010172 -0.51658,5.560324 0.015,7.620899 1.32473,5.134769 5.62845,9.494547 10.72583,10.865565 1.85534,0.499004 5.80213,0.513001 7.62818,0.02707 z"
         style="fill:#fe8037;stroke-width:0.26458335" />
    </g>
  </g>
</svg>
