<?xml version="1.0" encoding="UTF-8" standalone="no"?>
<svg
   xmlns:dc="http://purl.org/dc/elements/1.1/"
   xmlns:cc="http://creativecommons.org/ns#"
   xmlns:rdf="http://www.w3.org/1999/02/22-rdf-syntax-ns#"
   xmlns:svg="http://www.w3.org/2000/svg"
   xmlns="http://www.w3.org/2000/svg"
   id="svg8"
   version="1.1"
   viewBox="0 0 18.520834 15.352506"
   height="15.352506mm"
   width="18.520834mm">
  <defs
     id="defs2" />
  <metadata
     id="metadata5">
    <rdf:RDF>
      <cc:Work
         rdf:about="">
        <dc:format>image/svg+xml</dc:format>
        <dc:type
           rdf:resource="http://purl.org/dc/dcmitype/StillImage" />
        <dc:title></dc:title>
      </cc:Work>
    </rdf:RDF>
  </metadata>
  <g
     transform="translate(-0.71973802,-2.3935026)"
     id="layer1">
    <g
       transform="matrix(0.03716723,0,0,0.03716723,23.198409,13.490066)"
       id="g4583">
      <path
         id="path4597"
         d="m -604.08949,114.40442 c -0.26182,-0.0689 -0.51775,-0.47643 -0.60395,-0.9617 -0.24144,-1.35935 -0.0218,-411.5419 0.22046,-411.7842 0.28832,-0.28832 497.48111,-0.28832 497.76945,0 0.28832,0.28832 0.28832,412.28529 0,412.57363 -0.22246,0.22246 -496.54186,0.39436 -497.38596,0.17227 z M -125.40076,-62.289042 V -220.37759 h -230.1875 -230.1875 V -62.289042 95.799505 h 230.1875 230.1875 z M -427.48971,66.212076 c -0.26375,-0.167455 -0.31793,-7.737449 -0.26459,-36.971474 l 0.0671,-36.7608925 h 72.09896 72.09896 l 0.0671,36.7608925 c 0.0533,29.234025 0,36.804019 -0.26458,36.971474 -0.18241,0.115808 -32.53806,0.210581 -71.90145,0.210581 -39.36339,0 -71.71904,-0.09477 -71.90145,-0.210581 z M -302.14243,29.256794 V 10.868252 h -53.44583 -53.44583 v 18.388542 18.388542 h 53.44583 53.44583 z M -543.96229,-25.89145 c -0.18495,-0.345572 -0.27389,-12.207663 -0.27389,-36.529884 0,-24.322229 0.0889,-36.184307 0.27389,-36.529895 0.2704,-0.505238 2.67573,-0.511773 188.37403,-0.511773 185.69829,0 188.10364,0.0065 188.37402,0.511773 0.18497,0.345588 0.2739,12.207666 0.2739,36.529895 0,24.322221 -0.0889,36.184312 -0.2739,36.529884 -0.27038,0.505249 -2.67573,0.511784 -188.37402,0.511784 -185.6983,0 -188.10363,-0.0066 -188.37403,-0.511784 z m 55.68549,-36.397592 v -18.256251 l -18.45469,-0.06794 -18.45469,-0.06795 v 18.392141 18.39214 l 18.45469,-0.06795 18.45469,-0.06795 z m 302.28646,0 v -18.388543 h -141.68438 -141.68437 v 18.212145 c 0,10.016702 0.0794,18.291546 0.17639,18.388542 0.097,0.09702 63.85498,0.176398 141.68438,0.176398 h 141.50798 z m -241.76645,-0.06615 0.0696,-9.194271 8.96443,-0.06972 c 6.39538,-0.04972 9.06822,0.0164 9.32657,0.230849 0.29277,0.242967 0.36213,1.93712 0.36213,8.845471 0,4.699688 -0.0723,8.733235 -0.1606,8.963422 -0.1422,0.370576 -1.21861,0.418518 -9.39614,0.418518 h -9.23554 z m 31.32488,8.598958 c -0.26892,-1.003458 -0.18683,-16.515398 0.0913,-17.246838 l 0.25803,-0.678683 h 8.99308 c 8.62039,0 9.00442,0.02117 9.26696,0.511784 0.29449,0.550227 0.39943,16.844857 0.11329,17.590532 -0.14218,0.370523 -1.21558,0.418518 -9.36185,0.418518 h -9.20125 z m 31.47925,0.176795 c -0.28614,-0.745675 -0.18119,-17.040305 0.11329,-17.590532 0.26253,-0.490538 0.64639,-0.511784 9.25111,-0.511784 8.60472,0 8.98858,0.02117 9.25111,0.511784 0.29425,0.549804 0.39147,16.352705 0.10713,17.413737 l -0.15954,0.595313 h -9.20125 c -8.14626,0 -9.21967,-0.048 -9.36185,-0.418518 z m 31.48542,0 c -0.0883,-0.230187 -0.1606,-4.263734 -0.1606,-8.963422 0,-6.908351 0.0693,-8.602504 0.36213,-8.845471 0.25834,-0.214418 2.93119,-0.280564 9.32656,-0.230849 l 8.96443,0.06972 0.0696,9.194271 0.0696,9.194271 h -9.23555 c -8.1775,0 -9.25393,-0.04794 -9.39612,-0.418518 z m 31.48542,0 c -0.0883,-0.230187 -0.16061,-4.263734 -0.16061,-8.963422 0,-6.908351 0.0693,-8.602504 0.36214,-8.845471 0.25834,-0.214418 2.93119,-0.280564 9.32656,-0.230849 l 8.96443,0.06972 0.0696,9.194271 0.0696,9.194271 h -9.23554 c -8.17751,0 -9.25394,-0.04794 -9.39612,-0.418518 z M -543.8204,-117.34128 c -0.37392,-0.37392 -0.41578,-4.0575 -0.41578,-36.59422 0,-29.07661 0.0668,-36.26985 0.34046,-36.64405 0.32444,-0.4437 9.18546,-0.46461 188.31719,-0.44432 175.68792,0.0199 187.99834,0.0503 188.30746,0.46561 0.2608,0.35037 0.33073,8.09336 0.33073,36.62276 0,32.53672 -0.0419,36.2203 -0.41577,36.59422 -0.37719,0.3772 -17.84279,0.41578 -188.23215,0.41578 -170.38938,0 -187.85495,-0.0386 -188.23214,-0.41578 z m 55.5436,-36.75818 v -18.25625 l -18.45469,-0.068 -18.45469,-0.0679 v 18.39214 18.39214 l 18.45469,-0.0679 18.45469,-0.0679 z m 302.28646,-2.5e-4 v -18.38879 l -141.61823,0.0664 -141.61823,0.0664 -0.0685,17.99166 c -0.0377,9.89542 -0.0116,18.1405 0.0578,18.3224 0.10086,0.26402 28.6822,0.33073 141.68674,0.33073 h 141.56039 z m -241.6523,9.21705 c -0.0973,-0.0973 -0.17687,-4.2508 -0.17687,-9.23004 v -9.05317 l 0.59531,-0.15954 c 0.78041,-0.20914 142.49472,-0.20826 143.27526,8e-4 l 0.5987,0.16042 -0.0695,9.16253 -0.0695,9.16261 -71.98824,0.0666 c -39.59353,0.0366 -72.06782,-0.013 -72.1651,-0.11024 z m 302.24188,-114.78556 v -20.24062 h -230.1875 -230.1875 v 20.24062 20.24063 h 230.1875 230.1875 z m -433.26584,9.06354 c -0.0709,-0.18483 -0.0975,-4.32379 -0.0592,-9.19771 l 0.0698,-8.86166 h 9.26042 9.26042 v 9.12813 9.12812 l -9.20126,0.0696 c -7.24568,0.0548 -9.22866,-0.002 -9.33021,-0.26646 z m 35.98333,0 c -0.0709,-0.18483 -0.0975,-4.32379 -0.0592,-9.19771 l 0.0698,-8.86166 h 9.26042 9.26042 v 9.12813 9.12812 l -9.20126,0.0696 c -7.24568,0.0548 -9.22866,-0.002 -9.33021,-0.26646 z m 35.98334,0 c -0.0709,-0.18483 -0.0976,-4.32379 -0.0592,-9.19771 l 0.0698,-8.86166 h 9.26042 9.26041 v 9.12813 9.12812 l -9.20125,0.0696 c -7.24568,0.0548 -9.22867,-0.002 -9.33021,-0.26646 z"
         style="fill:#fee6d8;stroke-width:0.26458335" />
      <path
         id="path4595"
         d="m -604.24368,114.00284 c -0.46313,-0.46313 -0.46313,-411.65188 0,-412.11502 0.4632,-0.46319 496.84763,-0.46319 497.31084,0 0.46312,0.46314 0.46312,411.65189 0,412.11502 -0.46321,0.4632 -496.84764,0.4632 -497.31084,0 z m 479.04157,-176.358028 0.0664,-158.286982 h -230.45231 -230.4523 v 158.17673 c 0,86.997225 0.0794,158.256187 0.17654,158.353289 0.0971,0.0971 103.77077,0.146712 230.38593,0.110252 l 230.2094,-0.0663 z M -427.50201,65.84867 c -0.24386,-0.243866 -0.3175,-8.740934 -0.3175,-36.635479 0,-35.6357516 0.01,-36.3231392 0.51177,-36.5918765 0.34914,-0.1868487 23.14018,-0.2738966 71.71948,-0.2738966 48.5793,0 71.37035,0.087048 71.71947,0.2738966 0.50218,0.2687373 0.51178,0.9561249 0.51178,36.5918765 0,27.894545 -0.0736,36.391613 -0.3175,36.635479 -0.46241,0.462413 -143.36508,0.462413 -143.8275,0 z m 125.55982,-36.52573 0.0679,-18.454688 h -53.71222 -53.71222 v 18.344436 c 0,10.089462 0.0797,18.424129 0.17703,18.521495 0.0974,0.09737 24.23729,0.146977 53.64427,0.110226 l 53.46725,-0.06678 z M -543.5261,-25.710395 c -0.41961,-0.308822 -0.44488,-2.750582 -0.3813,-36.843231 l 0.0681,-36.512501 h 188.25104 188.25104 l 0.0681,36.512501 c 0.0636,34.092649 0.0383,36.534409 -0.38132,36.843231 -0.66141,0.486754 -375.21426,0.486754 -375.87567,0 z m 55.38159,-36.712738 v -18.522609 l -18.58698,0.06793 -18.58698,0.06793 -0.0679,18.454688 -0.0679,18.454688 h 18.65493 18.65492 z m 302.3544,0.06795 -0.0679,-18.454688 -141.75052,-0.06639 -141.75052,-0.06639 v 18.521085 18.521072 h 141.81846 141.81847 z m -241.73608,8.83203 c -0.21424,-0.258154 -0.28058,-2.862342 -0.23083,-9.06198 l 0.0698,-8.699738 h 9.12813 9.12812 l 0.0698,8.845683 c 0.0544,6.900677 -0.004,8.892355 -0.26458,9.057931 -0.18389,0.116734 -4.21907,0.214074 -8.96706,0.216297 -6.98773,0.0032 -8.69,-0.06498 -8.93335,-0.358193 z m 31.48542,0 c -0.21425,-0.258154 -0.28058,-2.862342 -0.23084,-9.06198 l 0.0698,-8.699738 h 9.12812 9.12813 l 0.0698,8.699738 c 0.0497,6.199638 -0.0166,8.803826 -0.23083,9.06198 -0.24327,0.293105 -1.95454,0.362241 -8.9671,0.362241 -7.01256,0 -8.72383,-0.06914 -8.96709,-0.362241 z m 31.48541,0 c -0.21424,-0.258154 -0.28058,-2.862342 -0.23083,-9.06198 l 0.0698,-8.699738 h 9.12812 9.12813 l 0.0698,8.699738 c 0.0498,6.199638 -0.0166,8.803826 -0.23083,9.06198 -0.24327,0.293105 -1.95454,0.362241 -8.9671,0.362241 -7.01256,0 -8.72383,-0.06914 -8.9671,-0.362241 z m 31.5192,0.141896 c -0.26082,-0.165576 -0.319,-2.157254 -0.26458,-9.057931 l 0.0698,-8.845683 h 9.12813 9.12812 l 0.0698,8.699738 c 0.0497,6.199638 -0.0167,8.803826 -0.23082,9.06198 -0.24337,0.293211 -1.94562,0.361474 -8.93334,0.358193 -4.748,-0.0026 -8.78319,-0.09956 -8.96708,-0.216297 z m 31.48542,0 c -0.26083,-0.165576 -0.31901,-2.157254 -0.26458,-9.057931 l 0.0698,-8.845683 8.978,-0.06972 c 7.00656,-0.05442 9.02462,0.0037 9.19022,0.264584 0.36285,0.571606 0.27086,17.243558 -0.0972,17.611593 -0.36809,0.368088 -17.30441,0.460137 -17.87623,0.09716 z M -543.81099,-117.6086 c -0.0883,-0.23018 -0.1606,-16.69653 -0.1606,-36.59188 0,-27.78206 0.0737,-36.24701 0.3175,-36.49086 0.46309,-0.46309 375.66856,-0.46309 376.13166,0 0.24384,0.24385 0.3175,8.7088 0.3175,36.49086 0,19.89535 -0.0722,36.3617 -0.1606,36.59188 -0.14623,0.38109 -16.97873,0.41851 -188.22273,0.41851 -171.244,0 -188.0765,-0.0374 -188.22273,-0.41851 z m 55.60213,-36.42472 0.0679,-18.45468 h -18.65493 -18.65492 v 18.34444 c 0,10.08945 0.0802,18.42462 0.17817,18.52262 0.098,0.098 8.46214,0.14761 18.58698,0.11024 l 18.40881,-0.0679 z m 302.41875,0 0.0679,-18.45468 h -141.81847 -141.81846 v 18.34444 c 0,10.08945 0.0795,18.42393 0.17663,18.52108 0.0971,0.0971 63.88488,0.14676 141.75052,0.11024 l 141.57389,-0.0664 z m -241.8688,8.64347 c -0.0883,-0.23018 -0.1606,-4.19497 -0.1606,-8.81063 0,-6.17441 0.0839,-8.47601 0.3175,-8.70961 0.46242,-0.46242 143.36509,-0.46242 143.8275,0 0.2336,0.2336 0.3175,2.5352 0.3175,8.70961 0,4.61566 -0.0723,8.58045 -0.1606,8.81063 -0.14589,0.38021 -6.74217,0.41851 -72.07065,0.41851 -65.32849,0 -71.92475,-0.0383 -72.07065,-0.41851 z m 302.45823,-114.21222 -0.0678,-20.43906 h -230.31979 -230.31979 l -0.0678,20.43906 -0.0678,20.43906 h 230.45535 230.45534 z m -433.14661,8.88559 c -0.097,-0.097 -0.17639,-4.1324 -0.17639,-8.96753 0,-7.77229 0.0485,-8.80975 0.41852,-8.95173 0.23018,-0.0883 4.27412,-0.1606 8.98652,-0.1606 8.20015,0 8.57977,0.022 8.84191,0.51177 0.29443,0.55016 0.39925,16.58075 0.11329,17.32596 -0.14205,0.37019 -1.19111,0.41852 -9.08403,0.41852 -4.90789,0 -9.0028,-0.0794 -9.09982,-0.17639 z m 35.86962,-8.88559 0.0696,-9.06198 h 8.99583 8.99584 l 0.0696,9.06198 0.0696,9.06198 h -9.13507 -9.13507 z m 35.82284,8.46667 c -0.0877,-0.32742 -0.16116,-4.23373 -0.16315,-8.68068 -0.003,-6.05597 0.0794,-8.19867 0.32712,-8.53678 0.30216,-0.41241 1.09636,-0.44535 9.19427,-0.3813 l 8.86354,0.0701 0.0696,9.06198 0.0696,9.06198 h -9.10074 -9.10074 z"
         style="fill:#fedbc7;stroke-width:0.26458335" />
      <path
         id="path4593"
         d="m -604.1454,113.90457 c -0.37727,-0.37727 -0.41578,-19.454335 -0.41578,-205.959238 0,-186.504912 0.0385,-205.581972 0.41578,-205.959232 0.37738,-0.37739 23.32685,-0.41578 248.55714,-0.41578 225.23029,0 248.17975,0.0384 248.55715,0.41578 0.37724,0.37726 0.41577,19.45432 0.41577,205.959232 0,186.504903 -0.0385,205.581968 -0.41577,205.959238 -0.3774,0.37738 -23.32686,0.41577 -248.55715,0.41577 -225.23029,0 -248.17976,-0.0384 -248.55714,-0.41577 z m 478.94329,-176.259758 -0.0664,-158.419272 H -355.5883 -585.90809 l -0.0664,158.419272 -0.0664,158.419276 h 230.45252 230.45253 z M -427.2242,65.990937 c -0.26235,-0.10586 -0.33073,-7.705567 -0.33073,-36.756183 V -7.3879988 h 71.96667 71.96667 V 29.228484 c 0,33.14536 -0.0397,36.631722 -0.41852,36.777084 -0.50083,0.192194 -142.70755,0.177668 -143.18409,-0.01455 z m 125.28201,-36.667997 -0.0679,-18.58698 h -53.57813 -53.57812 l -0.0679,18.58698 -0.0679,18.58698 h 53.71399 53.71399 z m -241.8688,-55.385707 c -0.29461,-0.767715 -0.18338,-72.069553 0.11329,-72.623879 0.27039,-0.505237 2.67273,-0.511773 188.10944,-0.511773 185.43672,0 187.83906,0.0065 188.10944,0.511773 0.29667,0.554326 0.4079,71.856164 0.11329,72.623879 -0.14623,0.381079 -16.97873,0.418518 -188.22273,0.418518 -171.244,0 -188.0765,-0.03744 -188.22273,-0.418518 z m 55.61356,-17.89065 c 0.2407,-0.240691 0.3175,-4.651851 0.3175,-18.234607 0,-9.854407 -0.0723,-18.105446 -0.1606,-18.335629 -0.14434,-0.376147 -2.04609,-0.418515 -18.78541,-0.418515 h -18.62482 v 18.476728 c 0,10.162223 0.0794,18.556129 0.17639,18.653126 0.097,0.09702 8.40757,0.176397 18.46792,0.176397 13.87396,0 18.3682,-0.07668 18.60902,-0.3175 z m 302.40732,-18.402009 0.0679,-18.587231 -141.88458,0.06639 -141.88461,0.06639 -0.068,18.226935 c -0.0494,13.251471 0.0137,18.32528 0.23103,18.587217 0.25175,0.303345 22.68274,0.349806 141.88465,0.2939 l 141.58563,-0.06638 z m -241.7022,0.0037 0.0697,-8.933154 8.92377,-0.06967 8.92376,-0.06964 0.14607,0.598805 c 0.0803,0.329353 0.11276,4.3493 0.0721,8.933207 l -0.074,8.334375 -9.0655,0.06961 -9.06551,0.06964 z m 31.31882,8.507704 c -0.28579,-0.744749 -0.1811,-16.511324 0.11329,-17.061366 0.26239,-0.490273 0.64467,-0.511784 9.09982,-0.511784 7.80401,0 8.84452,0.04845 8.98652,0.418518 0.0883,0.230188 0.1606,4.089983 0.1606,8.577316 0,4.487334 -0.0723,8.347128 -0.1606,8.577316 -0.14206,0.370205 -1.1925,0.418518 -9.09982,0.418518 -7.90732,0 -8.95775,-0.04831 -9.09981,-0.418518 z m 31.48541,0 c -0.0883,-0.230188 -0.1606,-4.089982 -0.1606,-8.577316 0,-4.487333 0.0723,-8.347128 0.1606,-8.577316 0.14206,-0.370205 1.1925,-0.418518 9.09982,-0.418518 7.90732,0 8.95776,0.04831 9.09982,0.418518 0.0883,0.230188 0.1606,4.089983 0.1606,8.577316 0,4.487334 -0.0723,8.347128 -0.1606,8.577316 -0.14206,0.370205 -1.1925,0.418518 -9.09982,0.418518 -7.90732,0 -8.95776,-0.04831 -9.09982,-0.418518 z m 31.50122,0.24212 c -0.25297,-0.252968 -0.21066,-17.087057 0.0439,-17.488165 0.16558,-0.260826 2.15726,-0.319008 9.05794,-0.264584 l 8.84568,0.06977 0.0697,8.929688 0.0697,8.929688 h -8.95525 c -4.9254,0 -9.03465,-0.07937 -9.13164,-0.176398 z m 31.48541,0 c -0.25296,-0.252968 -0.21066,-17.087057 0.0439,-17.488165 0.16558,-0.260826 2.15726,-0.319008 9.05793,-0.264584 l 8.84568,0.06977 0.0697,8.929688 0.0697,8.929688 h -8.95524 c -4.92541,0 -9.03465,-0.07937 -9.13165,-0.176398 z m -241.85437,-64.003958 c -0.3739,-0.3739 -0.41577,-4.03608 -0.41577,-36.35857 0,-19.76854 0.0723,-36.13113 0.1606,-36.36131 0.14623,-0.38109 16.97873,-0.41851 188.22273,-0.41851 171.244,0 188.0765,0.0374 188.22273,0.41851 0.0884,0.23018 0.1606,16.59277 0.1606,36.36131 0,32.32249 -0.0419,35.98467 -0.41576,36.35857 -0.37719,0.3772 -17.81871,0.41577 -187.96757,0.41577 -170.14885,0 -187.59037,-0.0386 -187.96756,-0.41577 z m 55.51529,-18.25899 c 0.0883,-0.23018 0.1606,-8.49045 0.1606,-18.35615 0,-14.80602 -0.0629,-17.98979 -0.36003,-18.23643 -0.26165,-0.21715 -5.37723,-0.28023 -18.71927,-0.23083 l -18.35924,0.068 -0.0679,18.58698 -0.0679,18.58698 h 18.6266 c 16.74095,0 18.64286,-0.0424 18.7872,-0.41851 z m 302.25042,-18.16847 -0.0679,-18.58698 h -141.81667 -141.81666 l -0.0685,18.25625 c -0.0377,10.04094 -0.0116,18.40508 0.0578,18.58698 0.10085,0.26402 28.73546,0.33073 141.9531,0.33073 h 141.82675 z m -241.58795,8.88608 c -0.0973,-0.0973 -0.17687,-4.13289 -0.17687,-8.96801 0,-7.77229 0.0485,-8.80975 0.41852,-8.95174 0.63456,-0.2435 142.80343,-0.18418 143.18771,0.0598 0.26083,0.16557 0.31901,2.15725 0.26459,9.05793 l -0.0698,8.84568 -71.72366,0.0666 c -39.448,0.0366 -71.80324,-0.013 -71.90052,-0.11024 z m 302.17735,-114.45483 0.0678,-20.57135 h -230.45372 -230.4537 v 20.46111 c 0,11.25361 0.0794,20.54055 0.17654,20.63765 0.0971,0.0971 103.77077,0.14671 230.38593,0.11024 l 230.2094,-0.0663 z m -433.20137,8.73263 c -0.071,-0.18502 -0.0976,-4.20497 -0.0592,-8.93322 l 0.0699,-8.59681 9.06551,-0.0696 9.0655,-0.0696 -0.0697,8.93316 -0.0697,8.93317 -8.93664,0.0697 c -7.03679,0.0549 -8.96408,-0.002 -9.06572,-0.26673 z m 35.98333,0 c -0.071,-0.18502 -0.0976,-4.20497 -0.0592,-8.93322 l 0.0699,-8.59681 h 8.99583 8.99584 v 8.86355 8.86354 l -8.93664,0.0697 c -7.0368,0.0549 -8.96408,-0.002 -9.06573,-0.26673 z m 35.98333,0 c -0.071,-0.18502 -0.0976,-4.20497 -0.0592,-8.93322 l 0.0699,-8.59681 h 8.99584 8.99583 v 8.86355 8.86354 l -8.93664,0.0697 c -7.0368,0.0549 -8.96408,-0.002 -9.06573,-0.26673 z"
         style="fill:#fecfb4;stroke-width:0.26458335" />
      <path
         id="path4591"
         d="m -604.174,113.72516 c -0.069,-0.18198 -0.0951,-92.90196 -0.0579,-206.044412 l 0.0676,-205.713548 h 248.57604 248.57604 V -92.054668 113.92346 l -248.51814,0.0663 c -198.6762,0.053 -248.54332,-5e-5 -248.64364,-0.26458 z m 478.97189,-17.614717 c 0.2644,-0.167878 0.31761,-32.051996 0.26458,-158.54752 l -0.0663,-158.337383 h -230.58438 -230.58438 l -0.0664,158.337383 c -0.053,126.495524 1.9e-4,158.379642 0.26458,158.54752 0.43277,0.27477 460.33956,0.27477 460.77231,0 z M -427.43262,65.571334 c -0.0693,-0.182166 -0.0954,-16.642768 -0.058,-36.579123 l 0.068,-36.2479181 71.3052,-0.072258 c 39.21787,-0.03974 71.57353,-0.00767 71.90145,0.071438 l 0.59627,0.1436687 -0.0671,36.4410634 -0.0671,36.44109 -71.77635,0.06662 c -57.28224,0.05318 -71.8018,-2.38e-4 -71.90239,-0.264583 z m 125.52419,-17.756876 c 0.21717,-0.261646 0.28025,-5.377207 0.23085,-18.719271 l -0.068,-18.359227 h -53.84271 -53.84271 l -0.068,18.359227 c -0.0494,13.342064 0.0137,18.457625 0.23084,18.719271 0.2502,0.301493 8.98043,0.360045 53.67984,0.360045 44.6994,0 53.42964,-0.05855 53.67983,-0.360045 z m -241.67639,-73.789251 c -0.0693,-0.182007 -0.0953,-16.642478 -0.0579,-36.578833 l 0.068,-36.247918 h 187.98646 187.98646 v 36.512502 36.512501 l -187.92855,0.06633 c -150.20428,0.05302 -187.95382,-1.06e-4 -188.05447,-0.264583 z m 55.5726,-36.446541 V -81.07446 h -18.78542 -18.78541 l -0.0685,18.388543 c -0.0377,10.113698 -0.0113,18.538164 0.0585,18.721044 0.10065,0.263525 4.01271,0.318426 18.8539,0.264583 l 18.72689,-0.06792 z m 302.41875,0 V -81.07446 h -141.94896 -141.94895 l -0.0679,18.71951 -0.0679,18.719536 142.01688,-0.06641 142.01688,-0.06638 z m -241.78156,8.822955 c -0.0989,-0.09895 -0.1799,-4.005765 -0.1799,-8.681853 0,-6.25983 0.0837,-8.585676 0.3175,-8.819436 0.36803,-0.368035 16.77564,-0.459898 17.34712,-0.09713 0.26077,0.16555 0.31903,2.130848 0.26458,8.92564 l -0.0698,8.713364 -8.74979,0.06967 c -4.81239,0.03829 -8.83075,-0.01138 -8.92969,-0.110252 z m 31.48542,0 c -0.099,-0.09895 -0.1799,-4.076383 -0.1799,-8.838751 0,-7.651644 0.0487,-8.677513 0.41852,-8.819436 0.62928,-0.241485 16.86014,-0.185234 17.2461,0.05977 0.26077,0.16555 0.31903,2.130848 0.26458,8.92564 l -0.0698,8.713364 -8.7498,0.06967 c -4.81238,0.03829 -8.83074,-0.01138 -8.92968,-0.110252 z m 31.48541,0 c -0.0989,-0.09895 -0.17989,-4.076383 -0.17989,-8.838751 0,-7.651644 0.0487,-8.677513 0.41851,-8.819436 0.62928,-0.241485 16.86014,-0.185234 17.2461,0.05977 0.26078,0.16555 0.31903,2.130848 0.26459,8.92564 l -0.0698,8.713364 -8.74979,0.06967 c -4.81238,0.03829 -8.83074,-0.01138 -8.92969,-0.110252 z m 31.48541,0 c -0.0989,-0.09895 -0.17989,-4.076383 -0.17989,-8.838751 0,-7.651644 0.0487,-8.677513 0.41852,-8.819436 0.23019,-0.08834 4.14467,-0.160602 8.69884,-0.160602 6.68644,0 8.33824,0.06974 8.58105,0.362321 0.21415,0.258021 0.28059,2.827893 0.23082,8.929688 l -0.0699,8.567367 -8.7498,0.06967 c -4.81237,0.03829 -8.83073,-0.01138 -8.92969,-0.110252 z m 31.48542,0 c -0.0989,-0.09895 -0.17989,-4.076383 -0.17989,-8.838751 0,-7.651644 0.0487,-8.677513 0.41852,-8.819436 0.23019,-0.08834 4.14467,-0.160602 8.69884,-0.160602 6.68644,0 8.33823,0.06974 8.58104,0.362321 0.21416,0.258021 0.28059,2.827893 0.23083,8.929688 l -0.0698,8.567367 -8.7498,0.06967 c -4.81238,0.03829 -8.83074,-0.01138 -8.92969,-0.110252 z m -242.15145,-64.186831 c -0.0693,-0.182 -0.0953,-16.64248 -0.0579,-36.57884 l 0.068,-36.24791 h 187.98646 187.98646 v 36.5125 36.5125 l -187.92855,0.0663 c -150.20428,0.053 -187.95382,-10e-5 -188.05447,-0.26458 z m 55.37598,-17.61577 c 0.26288,-0.1669 0.31831,-4.08703 0.26458,-18.71522 l -0.068,-18.5041 h -18.78542 -18.78541 l -0.068,18.5041 c -0.0537,14.62819 0.002,18.54832 0.26458,18.71522 0.1829,0.11612 8.54786,0.21112 18.58879,0.21112 10.04094,0 18.4059,-0.095 18.5888,-0.21112 z m 302.41876,0 c 0.26286,-0.1669 0.31829,-4.08703 0.26458,-18.71522 l -0.068,-18.5041 -142.0151,-0.0664 -142.01511,-0.0664 v 18.63132 c 0,14.6575 0.0705,18.65979 0.33073,18.76478 0.55812,0.2252 283.1479,0.18135 283.50287,-0.044 z m -241.64448,-10.16748 c -0.0704,-0.18342 -0.0965,-4.14247 -0.058,-8.79787 l 0.07,-8.46438 h 71.83438 71.83438 v 8.73125 8.73125 l -71.77635,0.0666 c -57.54386,0.0534 -71.80173,5.2e-4 -71.90433,-0.26688 z m 302.49846,-113.95083 c 0.0537,-16.21585 -0.003,-20.53259 -0.26458,-20.6996 -0.3828,-0.24303 -460.05275,-0.30142 -460.68573,-0.0585 -0.37663,0.14453 -0.41852,2.20544 -0.41852,20.5934 0,11.23805 0.0795,20.51225 0.17654,20.60935 0.0971,0.0971 103.88984,0.14671 230.65052,0.11024 l 230.47399,-0.0663 z m -432.99594,8.75882 c -0.26078,-0.16553 -0.31903,-2.13084 -0.26459,-8.92563 l 0.0698,-8.71337 8.71336,-0.0698 c 6.7948,-0.0544 8.7601,0.004 8.92564,0.26458 0.36276,0.57149 0.2709,16.97909 -0.0971,17.34712 -0.36802,0.36802 -16.77563,0.45989 -17.34711,0.0971 z m 35.80747,-0.19539 c -0.36022,-0.36023 -0.41577,-1.5197 -0.41577,-8.67834 0,-6.07365 0.0841,-8.34667 0.3175,-8.58006 0.45429,-0.4543 17.16695,-0.4543 17.62125,0 0.23339,0.23339 0.3175,2.50641 0.3175,8.58006 0,7.15864 -0.0555,8.31811 -0.41578,8.67834 -0.36029,0.36029 -1.52278,0.41577 -8.71235,0.41577 -7.18956,0 -8.35205,-0.0555 -8.71235,-0.41577 z m 36.03058,0.12999 c -0.4254,-0.24777 -0.46302,-0.94402 -0.46302,-8.56927 0,-4.56477 0.0723,-8.48792 0.1606,-8.7181 0.14194,-0.36988 1.17085,-0.41852 8.85423,-0.41852 8.32435,0 8.70527,0.0217 8.96753,0.51178 0.17162,0.32068 0.27389,3.52435 0.27389,8.58005 0,6.98203 -0.056,8.12427 -0.41577,8.48407 -0.36056,0.36055 -1.51133,0.4147 -8.66511,0.40772 -5.10923,-0.005 -8.42558,-0.1107 -8.71235,-0.27773 z"
         style="fill:#feb48a;stroke-width:0.26458335" />
      <path
         id="path4589"
         d="m -603.97909,113.73826 c -0.46314,-0.46313 -0.46314,-411.12272 0,-411.58585 0.46319,-0.4632 496.31846,-0.4632 496.78166,0 0.46313,0.46313 0.46313,411.12272 0,411.58585 -0.4632,0.4632 -496.31847,0.4632 -496.78166,0 z M -124.93753,-62.2733 c 0.053,-126.60136 -1.8e-4,-158.51192 -0.26458,-158.6798 -0.38182,-0.24245 -460.05282,-0.29996 -460.6843,-0.0576 -0.38099,0.1462 -0.41852,14.36574 -0.41852,158.57361 0,87.127163 0.0795,158.49246 0.17654,158.589562 0.0971,0.0971 103.88984,0.146712 230.65052,0.110252 l 230.47399,-0.0663 z M -427.11347,65.725692 c -0.0973,-0.09729 -0.17687,-16.528125 -0.17687,-36.513004 V -7.1234155 h 71.70301 71.70303 l -0.0671,36.4463555 -0.0671,36.446355 -71.45906,0.06662 c -39.30249,0.03665 -71.53866,-0.01296 -71.63594,-0.110225 z M -301.74555,29.256794 V 10.471377 h -53.84271 -53.84271 l -0.0685,18.520834 c -0.0377,10.186458 -0.0115,18.669953 0.0581,18.852198 0.10092,0.264239 11.02269,0.317844 53.91119,0.264583 l 53.78462,-0.06678 z m -241.80086,-55.584145 c -0.0883,-0.230187 -0.1606,-16.517938 -0.1606,-36.195001 0,-27.473374 0.0737,-35.85017 0.3175,-36.093983 0.46309,-0.463095 375.1394,-0.463095 375.6025,0 0.24381,0.243813 0.3175,8.620609 0.3175,36.093983 0,19.677063 -0.0723,35.964814 -0.1606,36.195001 -0.14624,0.38108 -16.95543,0.418518 -187.95815,0.418518 -171.00273,0 -187.81192,-0.03744 -187.95815,-0.418518 z m 55.65718,-17.555766 c 0.29604,-0.553164 0.4053,-36.144153 0.11329,-36.905119 -0.14437,-0.376224 -2.06941,-0.418515 -19.05,-0.418515 h -18.8894 v 18.741311 c 0,10.307744 0.0794,18.820713 0.17639,18.917709 0.097,0.09702 8.54626,0.176398 18.7761,0.176398 18.11821,0 18.60681,-0.01323 18.87362,-0.511784 z m 302.36368,-18.472309 0.0679,-18.851815 -142.14914,0.06639 -142.14917,0.06639 -0.0679,18.491545 c -0.0494,13.447237 0.0136,18.589811 0.23103,18.851801 0.25172,0.303292 22.72996,0.349779 142.14921,0.293873 l 141.85021,-0.06638 z m -241.76479,-0.06591 v -8.738394 l 8.79739,0.06972 8.7974,0.06972 v 8.598959 8.598959 l -8.7974,0.06972 -8.79739,0.06972 z m 31.38278,8.316278 c -0.21055,-0.548693 -0.21181,-16.080556 -0.001,-16.62901 0.14194,-0.369888 1.17123,-0.418518 8.8585,-0.418518 h 8.6979 l 0.14524,0.595312 c 0.0799,0.327422 0.11192,4.226719 0.0712,8.665105 l -0.074,8.069792 -8.76774,0.06966 c -7.82277,0.06218 -8.78518,0.02408 -8.92968,-0.352345 z m 31.50336,0.242094 c -0.22278,-0.22278 -0.24116,-16.292937 -0.0193,-16.871104 0.14194,-0.369888 1.17123,-0.418518 8.85851,-0.418518 h 8.6979 l 0.14524,0.595312 c 0.0799,0.327422 0.11191,4.226719 0.0712,8.665105 l -0.074,8.069792 -8.74979,0.06966 c -4.81239,0.03829 -8.83075,-0.01138 -8.92969,-0.110251 z m 31.42564,-0.160285 c -0.0703,-0.18325 -0.0963,-4.082547 -0.0578,-8.665104 l 0.07,-8.331942 8.79739,-0.06972 8.7974,-0.06972 v 8.734822 8.734822 h -8.73956 c -6.78162,0 -8.76819,-0.07464 -8.86741,-0.333163 z m 31.48542,0 c -0.0703,-0.18325 -0.0963,-4.082547 -0.0578,-8.665104 l 0.07,-8.331942 8.7974,-0.06972 8.79739,-0.06972 v 8.734822 8.734822 h -8.73955 c -6.78162,0 -8.76819,-0.07464 -8.86741,-0.333163 z m -241.89637,-63.748921 c -0.24381,-0.24381 -0.3175,-8.62061 -0.3175,-36.09399 0,-19.67706 0.0723,-35.96481 0.1606,-36.195 0.14623,-0.38108 16.95542,-0.41851 187.95815,-0.41851 171.00272,0 187.81191,0.0374 187.95815,0.41851 0.0883,0.23019 0.1606,16.51794 0.1606,36.195 0,27.47338 -0.0737,35.85018 -0.3175,36.09399 -0.4631,0.4631 -375.13941,0.4631 -375.6025,0 z m 55.61357,-17.8281 c 0.0883,-0.23018 0.1606,-8.5418 0.1606,-18.47026 0,-14.02499 -0.0738,-18.15214 -0.33073,-18.50179 -0.30676,-0.41742 -1.68254,-0.44506 -18.98386,-0.3813 l -18.65312,0.0687 -0.0685,18.52083 c -0.0377,10.18646 -0.0116,18.66967 0.0578,18.85157 0.0994,0.26028 4.12317,0.33073 18.89174,0.33073 16.86752,0 18.78165,-0.0423 18.92601,-0.41852 z m 302.18247,-18.49919 v -18.78542 l -141.78925,-0.0664 c -104.60546,-0.049 -141.88319,0.0116 -142.14741,0.23083 -0.29477,0.24464 -0.35813,3.51757 -0.35813,18.49944 0,10.01122 0.0723,18.39066 0.16069,18.62098 0.14634,0.38135 12.84448,0.41282 142.14739,0.35236 l 141.98671,-0.0664 z m -241.63429,0.0666 0.0697,-8.79788 h 71.56979 71.56979 v 8.73125 8.73125 l -71.6395,0.0666 -71.63951,0.0666 z m 302.02708,-84.82012 c 0.26307,-0.16702 0.31821,-4.5102 0.26458,-20.83189 l -0.0678,-20.62088 h -230.58438 -230.58438 l -0.0678,20.62088 c -0.0536,16.32169 0.002,20.66487 0.26459,20.83189 0.43461,0.27592 460.34052,0.27592 460.77515,0 z m -432.87847,-12.12456 c -0.099,-0.099 -0.17994,-4.02963 -0.17994,-8.7348 v -8.55486 h 8.86715 8.86716 l -0.0698,8.6651 -0.0698,8.6651 -8.61745,0.0697 c -4.7396,0.0383 -8.69843,-0.0113 -8.7974,-0.11024 z m 35.98333,0 c -0.099,-0.099 -0.17994,-4.02963 -0.17994,-8.7348 v -8.55486 h 8.86716 8.86715 l -0.0698,8.6651 -0.0698,8.6651 -8.61745,0.0697 c -4.7396,0.0383 -8.69843,-0.0113 -8.7974,-0.11024 z m 35.98334,0 c -0.099,-0.099 -0.17995,-4.02963 -0.17995,-8.7348 v -8.55486 h 8.86716 8.86716 l -0.0698,8.6651 -0.0698,8.6651 -8.61746,0.0697 c -4.7396,0.0383 -8.69842,-0.0113 -8.79739,-0.11024 z"
         style="fill:#fea776;stroke-width:0.26458335" />
      <path
         id="path4587"
         d="M -604.03201,-92.054668 V -297.90051 h 248.44375 248.44375 V -92.054668 113.79117 h -248.44375 -248.44375 z m 479.12824,188.289809 c 0.21932,-0.264239 0.2798,-41.885924 0.23083,-158.816151 l -0.0664,-158.45804 H -355.5883 -586.43726 l -0.0664,158.45804 c -0.049,116.930227 0.0115,158.551912 0.23083,158.816151 0.44474,0.535887 460.92425,0.535887 461.36898,0 z m -302.26427,-30.92839 c -0.0693,-0.182166 -0.0954,-16.523706 -0.058,-36.31454 l 0.068,-35.9833348 h 71.56979 71.56979 V 29.256794 65.504712 l -71.51176,0.06662 c -57.07057,0.05318 -71.53722,-2.38e-4 -71.63781,-0.264583 z m 125.52417,-17.227657 c 0.21719,-0.261699 0.28024,-5.446157 0.23085,-18.983854 l -0.0679,-18.623863 h -54.10729 -54.10729 l -0.0679,18.623863 c -0.0494,13.537697 0.0136,18.722155 0.23083,18.983854 0.25018,0.30144 9.02402,0.359992 53.9444,0.359992 44.92038,0 53.69422,-0.05855 53.94439,-0.359992 z m -241.62198,-74.164139 c -0.0971,-0.0971 -0.17658,-16.468276 -0.17658,-36.380395 v -36.203812 h 187.85511 187.85511 l -0.0671,36.314064 -0.0671,36.314064 -187.61145,0.06633 c -103.1863,0.03649 -187.69091,-0.01323 -187.78802,-0.110252 z m 55.58615,-36.187276 c 0.0537,-14.839879 -0.002,-18.812889 -0.26458,-18.979804 -0.18289,-0.116109 -8.67285,-0.212931 -18.86658,-0.215159 -14.06719,-0.0031 -18.61059,0.07247 -18.85157,0.313449 -0.24091,0.240909 -0.3175,4.793854 -0.3175,18.873603 0,10.205879 0.0802,18.636272 0.17813,18.734247 0.098,0.09798 8.70024,0.147585 19.11615,0.110252 l 18.93802,-0.06789 z m 302.41873,0.08329 c 0.0563,-15.494971 0.006,-18.736414 -0.29199,-18.984106 -0.26657,-0.221226 -37.16557,-0.281472 -142.28146,-0.232299 l -141.92155,0.06639 -0.0685,18.653126 c -0.0377,10.259219 -0.0116,18.802059 0.0579,18.984093 0.10101,0.264451 28.69634,0.317632 142.28203,0.264583 l 142.1556,-0.06638 z m -241.85298,8.322549 c -0.097,-0.097 -0.17639,-3.966528 -0.17639,-8.598959 v -8.422561 h 8.73125 8.73125 v 8.598959 8.598958 h -8.55486 c -4.70518,0 -8.63424,-0.07937 -8.73125,-0.176397 z m 31.48901,0.0037 c -0.099,-0.09909 -0.17999,-3.970232 -0.17999,-8.602663 v -8.422561 h 8.73492 8.73491 l -0.0698,8.532813 -0.0698,8.532813 -8.48511,0.06974 c -4.66681,0.03836 -8.56611,-0.01138 -8.66511,-0.110252 z m 31.48542,0 c -0.099,-0.09909 -0.17999,-3.970232 -0.17999,-8.602663 v -8.422561 h 8.73491 8.73492 l -0.0698,8.532813 -0.0698,8.532813 -8.48512,0.06974 c -4.66681,0.03836 -8.5661,-0.01138 -8.6651,-0.110252 z m 31.48542,0 c -0.099,-0.09898 -0.17999,-3.970126 -0.17999,-8.602557 V -70.8879 h 8.73492 8.73491 l -0.0698,8.532813 -0.0698,8.532812 -8.48511,0.06975 c -4.66683,0.03836 -8.56613,-0.01138 -8.66511,-0.110252 z m 31.30542,-8.422641 v -8.602583 h 8.73493 8.7349 l -0.0698,8.532813 -0.0698,8.532813 -8.6651,0.06977 -8.66511,0.06974 z m -242.02854,-91.747897 0.0671,-36.31406 h 187.72187 187.72188 l 0.0671,36.31406 0.0671,36.31407 H -355.58826 -543.4443 Z m 55.43294,18.89694 c 0.26291,-0.16691 0.3183,-4.13992 0.26458,-18.9798 l -0.0679,-18.7687 h -19.05001 -19.04999 l -0.0679,18.62385 c -0.0494,13.5377 0.0137,18.72217 0.23084,18.98385 0.24684,0.29743 3.52405,0.35931 18.85335,0.35596 10.20503,-0.002 18.70422,-0.0991 18.88711,-0.21516 z m 302.45249,-0.1408 c 0.2172,-0.26169 0.28025,-5.44615 0.23085,-18.98385 l -0.0679,-18.62385 h -142.21355 -142.21354 l -0.0679,18.7687 c -0.0537,14.83988 0.002,18.81289 0.26458,18.9798 0.18289,0.11611 64.10567,0.21293 142.05065,0.21516 119.20181,0.003 141.76558,-0.0531 142.01688,-0.35596 z m -241.73607,-18.75614 0.0698,-8.53281 h 71.56979 71.56979 l 0.0698,8.53281 0.0698,8.53282 h -71.70941 -71.70941 z m 302.55634,-105.34124 c 0.0494,-15.0051 -0.0135,-20.70625 -0.23084,-20.96823 -0.41585,-0.50108 -460.84865,-0.5433 -461.34965,-0.0423 -0.24149,0.24149 -0.3175,5.23483 -0.3175,20.85798 0,11.29727 0.0794,20.61993 0.17654,20.71703 0.0971,0.0971 104.00889,0.14671 230.9151,0.11025 l 230.73857,-0.0663 z m -433.32299,-0.29366 v -8.60619 l 8.6651,0.0698 8.66511,0.0698 v 8.46665 8.46667 l -8.66511,0.0698 -8.6651,0.0698 z m 35.98333,0 v -8.59895 h 8.59896 8.59896 v 8.59895 8.59896 h -8.59896 -8.59896 z m 35.89514,8.42257 c -0.22041,-0.22041 -0.23544,-16.03059 -0.0158,-16.60301 0.14187,-0.36971 1.16001,-0.41851 8.73125,-0.41851 h 8.57065 v 8.59895 8.59896 h -8.55486 c -4.70517,0 -8.63423,-0.0794 -8.73125,-0.17639 z"
         style="fill:#fe8e4d;stroke-width:0.26458335" />
      <path
         id="path4585"
         d="M -603.76743,-92.054668 V -297.63593 h 248.17917 248.17917 V -92.054668 113.52659 h -248.17917 -248.17917 z m 479.00924,188.49674 c 0.37703,-0.377058 0.41576,-15.169807 0.41576,-158.829381 0,-122.857811 -0.0713,-158.484881 -0.3175,-158.731111 -0.46318,-0.46317 -461.39349,-0.46317 -461.85666,0 -0.24624,0.24623 -0.3175,35.8733 -0.3175,158.731111 0,143.659574 0.0387,158.452323 0.41577,158.829381 0.37734,0.377322 21.7153,0.415766 230.83006,0.415766 209.11476,0 230.45272,-0.03844 230.83007,-0.415766 z M -427.02576,29.256794 V -6.8588321 h 71.4375 71.4375 V 29.256794 65.37242 h -71.4375 -71.4375 z m 125.5259,19.031109 c 0.37007,-0.370099 0.41577,-2.457767 0.41577,-18.997083 0,-14.099356 -0.0766,-18.657889 -0.3175,-18.898818 -0.46207,-0.4620685 -107.91127,-0.4620685 -108.37334,0 -0.24091,0.240929 -0.3175,4.799462 -0.3175,18.898818 0,16.539316 0.0457,18.626984 0.41578,18.997083 0.37524,0.375233 5.64788,0.415767 54.08839,0.415767 48.44053,0 53.71314,-0.04053 54.0884,-0.415767 z M -543.17784,-62.289042 v -36.115627 h 187.58958 187.58958 v 36.115627 36.115626 h -187.58958 -187.58958 z m 55.66648,18.763774 c 0.0883,-0.230187 0.1606,-8.798481 0.1606,-19.040687 0,-18.140414 -0.0132,-18.629263 -0.51177,-18.896072 -0.70814,-0.378981 -37.16207,-0.378981 -37.87021,0 -0.49857,0.26683 -0.51177,0.756804 -0.51177,18.99709 0,14.209713 0.0765,18.799731 0.3175,19.040687 0.24104,0.241035 4.88556,0.3175 19.28628,0.3175 17.05296,0 18.98499,-0.04228 19.12937,-0.418518 z m 302.26185,0.101018 c 0.24096,-0.240956 0.3175,-4.830974 0.3175,-19.040687 0,-18.240286 -0.0132,-18.73026 -0.51178,-18.99709 -0.7909,-0.423272 -283.96809,-0.379851 -284.39155,0.04361 -0.241,0.240993 -0.3175,4.852644 -0.3175,19.138186 0,10.3514 0.0794,18.900088 0.17639,18.997084 0.097,0.09702 64.12882,0.176398 142.29292,0.176398 110.18229,0 142.18785,-0.07133 142.43402,-0.3175 z m -241.71382,-18.930938 0.0699,-8.400521 8.40052,-0.06985 8.40052,-0.06988 v 8.470398 8.470371 h -8.47038 -8.47038 z m 31.42299,-0.06615 v -8.466667 h 8.46666 8.46667 v 8.466667 8.466667 h -8.46667 -8.46666 z m 31.48541,0 v -8.466667 h 8.46667 8.46667 v 8.466667 8.466667 h -8.46667 -8.46667 z m 31.48542,-0.0037 v -8.470398 l 8.40052,0.06988 8.40052,0.06985 0.0698,8.400521 0.0699,8.400521 h -8.4704 -8.47037 z m 31.48542,0 v -8.470398 l 8.40052,0.06988 8.40052,0.06985 0.0699,8.400521 0.0699,8.400521 h -8.47039 -8.47037 z m -242.09375,-91.674422 v -36.11563 h 187.58958 187.58958 v 36.11563 36.11562 h -187.58958 -187.58958 z m 55.38221,19.11614 c 0.41749,-0.30681 0.44505,-1.69836 0.3813,-19.24843 l -0.0687,-18.91771 -19.1656,-0.0679 c -15.15741,-0.0537 -19.20973,0.002 -19.37667,0.26458 -0.1161,0.18287 -0.21291,8.68812 -0.21514,18.90056 -0.004,16.53081 0.0416,18.6137 0.41172,18.98386 0.37009,0.37008 2.45798,0.41577 18.99943,0.41577 14.45053,0 18.68375,-0.0735 19.03368,-0.33073 z m 302.44785,-0.085 c 0.37016,-0.37016 0.41532,-2.45305 0.41172,-18.98386 -0.003,-10.21244 -0.0986,-18.71702 -0.2142,-18.89905 -0.16786,-0.26437 -28.85054,-0.31762 -142.54023,-0.26458 l -142.33006,0.0664 -0.0687,18.91771 c -0.0638,17.55007 -0.0362,18.94162 0.3813,19.24843 0.35869,0.26362 29.21585,0.33073 142.19721,0.33073 128.50831,0 141.78603,-0.0388 142.16298,-0.41577 z m -241.67798,-19.0311 v -8.33438 h 71.4375 71.4375 v 8.33438 8.33437 h -71.4375 -71.4375 z m 302.36583,-84.5873 c 0.24149,-0.24149 0.3175,-5.24043 0.3175,-20.88318 0,-18.3433 -0.0449,-20.61062 -0.41576,-20.98146 -0.37735,-0.37734 -21.71531,-0.41577 -230.83007,-0.41577 -209.11476,0 -230.45272,0.0384 -230.83006,0.41577 -0.37084,0.37084 -0.41577,2.63816 -0.41577,20.98146 0,15.64275 0.076,20.64169 0.3175,20.88318 0.46317,0.46318 461.39348,0.46318 461.85666,0 z m -433.07,-20.84545 v -8.47038 h 8.47039 8.47038 l -0.0699,8.40052 -0.0699,8.40052 -8.40052,0.0699 -8.40052,0.0699 z m 35.8402,8.13322 c -0.0712,-0.18546 -0.0978,-3.96737 -0.0593,-8.40425 l 0.0701,-8.06706 h 8.46666 8.46667 v 8.33438 8.33437 l -8.4074,0.0699 c -6.61894,0.055 -8.43492,-0.002 -8.53678,-0.26731 z m 36.04193,0.157 c -0.099,-0.099 -0.18004,-3.91232 -0.18004,-8.47399 v -8.29394 l 8.53281,0.0698 8.53281,0.0698 v 8.33438 8.33437 l -8.35277,0.0698 c -4.59402,0.0384 -8.43379,-0.0112 -8.53281,-0.11024 z"
         style="fill:#fe8037;stroke-width:0.26458335" />
    </g>
  </g>
</svg>
