<?xml version="1.0" encoding="UTF-8" standalone="no"?>
<svg
   xmlns:dc="http://purl.org/dc/elements/1.1/"
   xmlns:cc="http://creativecommons.org/ns#"
   xmlns:rdf="http://www.w3.org/1999/02/22-rdf-syntax-ns#"
   xmlns:svg="http://www.w3.org/2000/svg"
   xmlns="http://www.w3.org/2000/svg"
   id="svg8"
   version="1.1"
   viewBox="0 0 18.520836 20.262873"
   height="20.262873mm"
   width="18.520836mm">
  <defs
     id="defs2" />
  <metadata
     id="metadata5">
    <rdf:RDF>
      <cc:Work
         rdf:about="">
        <dc:format>image/svg+xml</dc:format>
        <dc:type
           rdf:resource="http://purl.org/dc/dcmitype/StillImage" />
        <dc:title></dc:title>
      </cc:Work>
    </rdf:RDF>
  </metadata>
  <g
     transform="translate(-0.61997088,-0.17909547)"
     id="layer1">
    <g
       transform="matrix(0.03781734,0,0,0.03781734,17.70138,5.9328903)"
       id="g4529">
      <path
         id="path4543"
         d="m -451.6156,202.32641 0.0663,-181.305736 48.73791,-0.06685 48.73791,-0.06685 50.98585,-51.526905 c 28.04221,-28.339797 51.15759,-51.628854 51.3675,-51.753462 0.28473,-0.169027 2.00004,1.387835 6.75463,6.130687 5.53324,5.519571 6.34028,6.426629 6.1248,6.883802 -0.1365,0.289605 -20.13162,20.613601 -44.4336,45.164438 -24.30198,24.55083618 -44.2251,44.742501 -44.27361,44.870363 -0.0506,0.133377 51.41987,0.232482 120.7382,0.232482 68.62542,0 120.788293,-0.09969 120.738181,-0.230735 -0.0485,-0.126905 -19.971621,-20.32105951 -44.273601,-44.875899 -24.30198,-24.554837 -44.27974,-44.809118 -44.39505,-45.009511 -0.11528,-0.20039 -0.094,-0.574283 0.0473,-0.830873 0.14128,-0.256591 2.99826,-3.193413 6.34883,-6.526271 5.66865,-5.638684 6.12778,-6.033953 6.60731,-5.688542 0.28342,0.20416 23.39269,23.498776 51.35388,51.765813 l 50.838575,51.394613 48.737097,0.06685 48.737096,0.06685 0.06633,181.305736 0.06636,181.30573 H -206.80968 -451.68193 Z M 19.673658,232.15818 V 99.337344 H -206.80967 -433.29301 l -0.0677,132.556256 c -0.0372,72.90594 -0.0111,132.70516 0.0579,132.88714 0.10037,0.2645 45.549,0.31758 226.55099,0.26458 l 226.425428,-0.0663 z m -435.989068,115.579 c -0.0971,-0.0971 -0.17656,-52.10368 -0.17656,-115.57019 0,-89.39779 0.0715,-115.46512 0.3175,-115.7111 0.49954,-0.49954 418.3357544,-0.45892 418.7504094,0.0407 0.2192073,0.26413 0.2798233,30.68122 0.2308225,115.82136 l -0.066437,115.46316 -209.4395949,0.0663 c -115.19177,0.0365 -209.51904,-0.0132 -209.61614,-0.11023 z m 400.601391,-115.64514 0.06652,-97.16824 H -206.80932 -397.97113 v 97.05798 c 0,53.38192 0.0795,97.13747 0.17657,97.23457 0.0971,0.0971 86.09,0.14674 191.09531,0.11025 l 190.918742,-0.0663 z m -243.518031,52.29802 c -1.12899,-0.32724 -2.56874,-1.99216 -3.21028,-3.71237 -8.38418,-22.48109 -35.36902,-97.00136 -35.45961,-97.92389 -0.11257,-1.14644 -0.0473,-1.32561 0.78612,-2.15905 0.67205,-0.67204 1.23523,-0.95782 2.16133,-1.0967 1.83272,-0.27485 12.55291,0.0393 13.83236,0.40537 1.32329,0.37859 2.86232,1.59827 3.45152,2.73534 0.23828,0.45985 5.40068,15.48077 11.47199,33.37984 10.33525,30.46976 12.25788,36.55965 13.61562,43.12708 0.24068,1.16417 0.49966,2.29526 0.57551,2.51354 0.0759,0.21829 0.6513,-1.8901 1.27879,-4.68532 1.45821,-6.49584 0.90909,-4.77798 13.45619,-42.09613 6.29505,-18.72306 10.97794,-32.24843 11.37104,-32.84244 1.38436,-2.0919 3.7441,-2.63983 11.41888,-2.65139 5.15288,-0.008 6.45731,0.20542 7.4733,1.22139 0.57583,0.57584 0.64319,0.83146 0.53463,2.02878 -0.0841,0.92776 -5.81084,16.96971 -17.74378,49.70468 -9.69077,26.58414 -17.85332,48.7893 -18.13899,49.34479 -0.62903,1.22319 -1.76075,2.33246 -2.76791,2.71298 -0.91406,0.34536 -12.91188,0.33983 -14.10671,-0.007 z m 64.06404,-0.0832 c -0.43656,-0.1927 -1.01343,-0.59688 -1.28193,-0.89818 -1.25324,-1.40632 -1.20774,0.50233 -1.21852,-51.11825 -0.007,-34.25338 0.0748,-48.86269 0.27833,-49.60937 0.32601,-1.19608 1.05756,-2.09614 2.22212,-2.73397 0.64365,-0.35253 1.80565,-0.45228 6.14461,-0.52745 5.93092,-0.10276 7.61441,0.1183 9.01057,1.18319 1.15064,0.87765 38.70605,57.24274 40.96644,61.4846 1.93881,3.63833 4.57121,9.29012 6.31494,13.55822 0.69985,1.71302 1.31429,3.07277 1.36538,3.02165 0.0511,-0.0511 -0.20698,-2.01245 -0.57359,-4.35853 -2.0597,-13.18189 -2.2934,-18.25043 -2.19252,-47.55063 0.0817,-23.73365 0.0907,-24.09193 0.62915,-25.11835 0.33904,-0.64627 0.94123,-1.24846 1.5875,-1.5875 0.96245,-0.50488 1.49186,-0.54623 6.9944,-0.54623 6.73425,0 7.5512,0.1887 8.5916,1.98437 0.53287,0.91975 0.53708,1.25759 0.6174,49.74167 0.0574,34.61819 -0.003,49.20803 -0.20849,50.16482 -0.2894,1.34934 -1.05709,2.34431 -2.3024,2.9841 -0.37873,0.19457 -2.71254,0.29691 -6.7714,0.29691 -8.14234,0 -7.47115,0.33584 -11.66032,-5.83416 -12.75736,-18.78976 -35.80816,-53.59565 -37.17177,-56.12816 -1.85732,-3.44937 -4.90008,-9.98114 -6.66017,-14.297 -0.63642,-1.56059 -1.20255,-2.79201 -1.25809,-2.7365 -0.0555,0.0555 0.20778,2.1658 0.5851,4.68952 1.90952,12.77261 1.8129,10.63091 1.91415,42.42401 l 0.0918,28.83959 -0.60283,1.05833 c -1.06079,1.8624 -1.59059,1.98496 -8.53233,1.97361 -4.45572,-0.007 -6.29798,-0.10377 -6.87917,-0.36031 z m -166.16893,-28.53301 c -0.0709,-0.18487 -0.0976,-4.32388 -0.0592,-9.19779 l 0.0698,-8.86167 h 8.99583 8.99584 v 9.12813 9.12812 l -8.93664,0.0697 c -7.0331,0.0548 -8.96412,-0.003 -9.06563,-0.26646 z M -70.237103,255.93 c -0.09893,-0.0989 -0.179864,-4.26921 -0.179864,-9.26735 v -9.08751 l 9.06198,0.0696 9.061979,0.0696 v 9.12813 9.12812 l -8.882116,0.0696 c -4.885187,0.0383 -8.963078,-0.0114 -9.061979,-0.11025 z M 19.673658,60.046717 V 39.806092 H -206.80967 -433.29301 l -0.0684,19.976042 c -0.0376,10.986823 -0.0116,20.124939 0.0579,20.306925 0.10097,0.264504 45.55009,0.317582 226.55175,0.264583 l 226.425428,-0.0663 z m -436.043948,8.931289 c -0.0709,-0.184851 -0.0976,-4.32384 -0.0592,-9.197753 l 0.0698,-8.861661 h 9.12813 9.12812 v 9.128125 9.128126 l -9.06894,0.06963 c -7.13939,0.05481 -9.09639,-0.0019 -9.19792,-0.266464 z m 35.45283,-0.0035 c -0.0702,-0.182935 -0.0962,-4.320357 -0.0578,-9.194271 l 0.0698,-8.86165 8.97801,-0.06972 c 7.00655,-0.05441 9.0246,0.0037 9.19022,0.264583 0.24492,0.385834 0.30123,17.145803 0.0597,17.775167 -0.14207,0.37025 -1.19572,0.418515 -9.13642,0.418515 -6.96367,0 -9.00445,-0.07456 -9.10347,-0.33261 z m 35.34501,-0.175657 c -0.29658,-0.554167 -0.39461,-16.351443 -0.10811,-17.420691 l 0.16044,-0.598746 9.03022,0.06958 9.03023,0.06959 v 9.128125 9.128126 l -8.91851,0.06965 c -8.60516,0.0672 -8.92819,0.05155 -9.19427,-0.445627 z M -209.5878,-77.317059 c -16.33176,-1.042368 -30.05819,-13.253546 -33.64995,-29.935341 -0.83352,-3.8713 -0.83352,-11.04506 0,-14.91636 1.55419,-7.21837 4.71874,-13.28466 9.64612,-18.49112 2.93664,-3.10296 6.03364,-5.45113 9.70612,-7.35925 5.59799,-2.90855 10.64193,-4.12787 17.07584,-4.12787 4.45202,0 7.79558,0.5017 11.41712,1.71311 5.81543,1.94529 10.24106,4.70101 14.64735,9.12053 5.47076,5.4872 8.71231,11.47529 10.3636,19.1446 0.83351,3.8713 0.83351,11.04506 0,14.91636 -2.85041,13.238693 -11.92538,23.668949 -24.43337,28.082393 -4.47671,1.579599 -9.39335,2.196293 -14.77283,1.852948 z m 7.52131,-19.130018 c 6.35715,-1.709899 11.52932,-6.907953 13.30217,-13.368713 0.64508,-2.3509 0.64865,-7.42757 0.007,-9.75981 -1.80078,-6.54358 -6.93444,-11.68343 -13.42202,-13.43816 -2.32846,-0.62979 -6.93195,-0.62979 -9.26041,0 -10.78242,2.91638 -16.72154,14.52293 -12.80053,25.0155 2.23851,5.99023 7.50176,10.48184 13.85886,11.827032 2.1072,0.445894 6.1276,0.312518 8.31506,-0.275849 z"
         style="fill:#fee3d3;stroke-width:0.26458335" />
      <path
         id="path4541"
         d="m -451.36405,383.31464 c -0.24632,-0.24632 -0.3175,-40.78218 -0.3175,-180.82107 0,-99.27697 0.0723,-180.691906 0.1606,-180.922089 0.14564,-0.379534 4.69628,-0.418515 48.85642,-0.418515 h 48.69582 l 2.57106,-2.579688 c 1.41408,-1.418828 24.44318,-24.6949916 51.17578,-51.724807 39.86275,-40.305957 48.68446,-49.101165 49.04804,-48.900725 0.74782,0.412266 12.21728,12.061603 12.21728,12.408885 0,0.179136 -20.03227,20.566158 -44.51615,45.304494 -24.48388,24.73833378 -44.55583,45.094225 -44.60434,45.235314 -0.0569,0.165402 43.02061,0.256527 121.26737,0.256527 77.45256,0 121.323651,-0.09193 121.267347,-0.254106 -0.0485,-0.139758 -20.120447,-20.49589549 -44.604327,-45.235864 -24.48388,-24.739969 -44.51615,-45.128078 -44.51615,-45.306913 0,-0.347004 11.4703,-11.996539 12.21759,-12.408504 0.36398,-0.200662 9.19202,8.600954 49.18014,49.033017 26.805093,27.1026684 49.834585,50.378906 51.176657,51.724974 l 2.440173,2.447396 h 48.694631 c 44.159038,0 48.70958,0.03898 48.855207,0.418515 0.08834,0.230183 0.160602,81.645119 0.160602,180.922089 0,140.03889 -0.07117,180.57475 -0.3175,180.82107 -0.46318,0.46318 -488.64556,0.46318 -489.10875,0 z M 19.740069,232.09204 19.806479,98.940469 H -206.80941 -433.4253 V 231.98178 c 0,73.17275 0.0794,133.12077 0.17654,133.21788 0.0971,0.0971 102.04437,0.14671 226.54948,0.11025 L 19.673658,365.2436 Z M -415.90988,347.59589 c -0.24598,-0.24598 -0.3175,-26.28741 -0.3175,-115.59461 0,-104.87358 0.0378,-115.29161 0.41851,-115.43771 0.54726,-0.21 417.4511212,-0.21 417.9983854,0 0.3807354,0.1461 0.4185179,10.56413 0.4185179,115.43771 0,89.3072 -0.071517,115.34863 -0.3175,115.59461 -0.4631266,0.46313 -417.7372833,0.46313 -418.2004133,0 z m 400.195861,-18.15708 c 0.264293,-0.1678 0.317686,-19.82835 0.264584,-97.42877 l -0.06649,-97.21853 H -206.80967 -398.10343 l -0.0665,97.21853 c -0.0531,77.60042 2.7e-4,97.26097 0.26459,97.42877 0.18209,0.11562 86.17514,0.21024 191.09567,0.21024 104.92052,0 190.913565,-0.0946 191.095651,-0.21024 z M -257.34509,284.55979 c -0.14552,-0.0567 -0.70756,-0.17709 -1.24898,-0.26755 -1.13929,-0.19037 -2.42713,-1.18253 -3.01795,-2.32508 -0.92638,-1.79141 -35.85311,-97.79556 -35.99737,-98.94703 -0.19263,-1.53765 0.3239,-2.45406 1.70957,-3.03302 0.79665,-0.33287 2.06056,-0.38119 7.4539,-0.28496 4.40982,0.0787 6.79184,0.22617 7.42062,0.45948 1.39038,0.51588 2.59176,1.50836 3.1484,2.60093 0.66833,1.31181 22.05182,64.42382 23.04141,68.00528 0.42881,1.55188 1.14316,4.48847 1.58747,6.52576 0.44431,2.03729 0.86948,3.98052 0.94483,4.31826 0.28758,1.28916 0.77354,0.28819 1.4624,-3.01225 0.3929,-1.88246 1.02016,-4.616 1.39389,-6.07454 0.70558,-2.7536 22.25904,-67.27106 23.13457,-69.2503 0.60275,-1.36263 2.07048,-2.70359 3.42199,-3.12648 1.42407,-0.44558 12.82227,-0.65828 14.13882,-0.26384 1.43299,0.42934 2.07414,1.2101 2.07414,2.52582 0,0.7748 -5.05155,14.9492 -17.68586,49.62565 -9.72723,26.69754 -17.93095,49.01726 -18.23051,49.59935 -0.64699,1.25722 -1.4938,2.09192 -2.58051,2.54365 -0.74214,0.30848 -11.49292,0.64489 -12.17083,0.38087 z m 63.05174,-0.24025 c -1.54998,-0.43182 -2.02291,-0.81925 -2.63057,-2.15511 -0.45988,-1.01097 -0.48169,-3.24207 -0.48724,-49.84327 -0.004,-36.64095 0.0717,-49.04345 0.30535,-49.82347 0.36578,-1.22087 1.4306,-2.20112 2.80593,-2.58308 1.32529,-0.36806 11.01666,-0.3525 12.36104,0.0198 0.58208,0.16121 1.39448,0.53207 1.80536,0.82412 1.00414,0.71374 38.18358,56.52231 40.6097,60.95762 2.20319,4.02773 4.53676,9.00994 6.67052,14.24168 0.82804,2.03028 1.66079,3.74316 1.85057,3.80642 0.2245,0.0748 0.28882,-0.0315 0.18407,-0.3045 -0.5825,-1.51797 -2.37797,-15.5765 -2.8221,-22.09718 -0.38287,-5.62161 -0.37028,-53.26648 0.0146,-54.68155 0.41486,-1.5258 1.39229,-2.43837 2.99032,-2.79196 0.84076,-0.18606 3.34327,-0.26461 6.64085,-0.20849 5.86037,0.0997 6.4302,0.24616 7.43863,1.91182 0.48408,0.79963 0.49887,2.29923 0.49887,50.61247 v 49.78839 l -0.55681,0.74703 c -0.30626,0.41084 -0.9611,0.98512 -1.45521,1.27616 -0.82494,0.48591 -1.37425,0.52917 -6.71923,0.52917 -6.34208,0 -7.17102,-0.13947 -8.48868,-1.42814 -0.87143,-0.85231 -36.83709,-54.43919 -38.97185,-58.06597 -2.55209,-4.3358 -6.16265,-11.96112 -8.6305,-18.22725 -0.5588,-1.41883 -1.11495,-2.57969 -1.23592,-2.57969 -0.28244,0 -0.31996,-0.36774 0.43775,4.29083 0.76793,4.72144 1.55668,10.98598 2.04153,16.21438 0.25463,2.74579 0.34351,10.5496 0.34351,30.1625 0,26.22143 -0.005,26.46765 -0.54623,27.4996 -0.99476,1.89619 -1.81931,2.12458 -7.92044,2.19366 -3.7148,0.0421 -5.66177,-0.0432 -6.53367,-0.28606 z m -167.00468,-28.89967 c -0.0883,-0.23018 -0.1606,-4.15073 -0.1606,-8.71236 0,-7.18706 0.0555,-8.34929 0.41577,-8.7096 0.3603,-0.36029 1.52279,-0.41577 8.71235,-0.41577 7.18957,0 8.35206,0.0555 8.71235,0.41577 0.36029,0.36031 0.41578,1.52254 0.41578,8.7096 0,4.56163 -0.0723,8.48218 -0.1606,8.71236 -0.142,0.37005 -1.18084,0.41852 -8.96753,0.41852 -7.78669,0 -8.82553,-0.0485 -8.96752,-0.41852 z m 291.041665,0 c -0.08834,-0.23018 -0.160602,-4.15073 -0.160602,-8.71236 0,-7.18706 0.05548,-8.34929 0.415767,-8.7096 0.360309,-0.36029 1.522783,-0.41577 8.712358,-0.41577 7.189576,0 8.35205,0.0555 8.712359,0.41577 0.360283,0.36031 0.415766,1.52254 0.415766,8.7096 0,4.56163 -0.07226,8.48218 -0.160602,8.71236 -0.142002,0.37005 -1.180835,0.41852 -8.967523,0.41852 -7.786687,0 -8.825521,-0.0485 -8.967523,-0.41852 z M 19.80595,60.046717 v -20.6375 H -206.80967 -433.4253 v 20.6375 20.637501 h 226.61563 226.61562 z m -435.85344,8.822953 c -0.0989,-0.09894 -0.17989,-4.084926 -0.17989,-8.85774 0,-8.308743 0.0218,-8.689494 0.51177,-8.951738 0.55072,-0.294736 15.82596,-0.390811 16.88806,-0.106217 l 0.59879,0.160446 -0.0696,8.897919 -0.0696,8.897919 -8.74979,0.06965 c -4.81238,0.03831 -8.83074,-0.0113 -8.92969,-0.110244 z m 35.27427,-8.791126 c 0,-7.936344 0.0483,-8.989568 0.41852,-9.131644 0.23018,-0.08833 4.07696,-0.1606 8.54839,-0.1606 6.08674,0 8.24332,0.08312 8.58131,0.33073 0.41227,0.302029 0.44536,1.088424 0.3813,9.061979 l -0.0701,8.73125 -8.92969,0.06967 -8.92969,0.06967 z m 35.35019,8.545492 c -0.0883,-0.230183 -0.1606,-4.214588 -0.1606,-8.854232 0,-8.069358 0.0222,-8.447614 0.51177,-8.709612 0.3212,-0.1719 3.56546,-0.273892 8.71235,-0.273892 7.10229,0 8.25626,0.05569 8.61635,0.415775 0.36029,0.360291 0.41578,1.522536 0.41578,8.70961 0,4.56161 -0.0723,8.482168 -0.1606,8.712351 -0.142,0.370033 -1.18084,0.418515 -8.96753,0.418515 -7.78669,0 -8.82553,-0.04848 -8.96752,-0.418515 z m 135.57065,-146.063991 c -6.64049,-0.623814 -13.69357,-3.363534 -19.05377,-7.401314 -7.23855,-5.452724 -12.36976,-13.680311 -14.19954,-22.768091 -0.65817,-3.26886 -0.65817,-10.93358 0,-14.20244 3.07487,-15.27166 14.94166,-26.9699 30.15145,-29.72321 3.23313,-0.58527 9.056,-0.58527 12.28913,0 15.2098,2.75331 27.07657,14.45155 30.15145,29.72321 0.65818,3.26886 0.65818,10.93358 0,14.20244 -3.46278,17.198328 -17.8989,29.570298 -35.21313,30.178205 -1.61423,0.05668 -3.47075,0.05272 -4.12559,-0.0088 z m 5.63128,-18.35834 c 7.69227,-1.112272 13.9156,-6.831605 15.82849,-14.546665 0.19846,-0.80036 0.36081,-2.76489 0.36081,-4.36562 0,-1.60073 -0.16235,-3.56526 -0.36081,-4.36563 -1.26601,-5.10602 -4.53554,-9.53543 -8.96468,-12.14497 -10.8814,-6.41101 -24.76916,-0.35899 -27.86946,12.14497 -0.19845,0.80037 -0.36081,2.7649 -0.36081,4.36563 0,1.60073 0.16236,3.56526 0.36081,4.36562 2.39358,9.65369 11.4536,15.927853 21.00565,14.546665 z"
         style="fill:#feccb0;stroke-width:0.26458335" />
      <path
         id="path4539"
         d="m -451.24044,383.19132 c -0.0971,-0.0971 -0.17653,-81.52318 -0.17653,-180.94685 0,-164.594801 0.0374,-180.784677 0.41852,-180.930905 0.23018,-0.08833 22.19145,-0.160599 48.80282,-0.160599 h 48.3843 l 50.98937,-51.527606 c 28.04416,-28.340183 51.11829,-51.559679 51.27583,-51.598877 0.45442,-0.113061 12.39175,11.975664 12.28545,12.441265 -0.051,0.223448 -20.03571,20.555511 -44.41045,45.18236 -24.37474,24.6268487 -44.41292,44.93961 -44.5293,45.139474 -0.17928,0.307904 18.35436,0.363384 121.39076,0.363384 102.7685,0 121.569554,-0.05602 121.390749,-0.361741 -0.116364,-0.198956 -20.154559,-20.51174682 -44.529299,-45.139535 -24.37474,-24.627788 -44.35943,-44.960589 -44.41047,-45.184003 -0.10628,-0.46554 11.83108,-12.554255 12.28548,-12.441204 0.15753,0.0392 23.23166,23.258694 51.27583,51.598877 l 50.989358,51.527606 48.47209,0.004 c 26.659655,0.0021 48.620998,0.09861 48.803005,0.214172 0.264424,0.167894 0.317606,36.549871 0.264583,181.037112 l -0.06633,180.82697 -244.364616,0.0663 c -134.40054,0.0365 -244.44405,-0.0132 -244.54115,-0.11023 z M 19.938242,232.15818 V 99.07276 H -206.80967 -433.55759 l -0.0677,132.82084 c -0.0372,73.05146 -0.0111,132.96974 0.0579,133.15172 0.10036,0.26451 45.60191,0.31758 226.81557,0.26459 l 226.690012,-0.0663 z m -435.901042,0 V 116.66755 H -206.80967 2.34345 V 232.15818 347.64881 H -206.80967 -415.9628 Z m 400.579167,0.0283 c 0,-88.63642 -0.03794,-97.4852 -0.418518,-97.63125 -0.547238,-0.21 -381.467799,-0.21 -382.015049,0 -0.38058,0.14605 -0.41852,8.99483 -0.41852,97.63125 v 97.47065 h 191.42605 191.426037 z m -243.512637,51.83934 c -1.40362,-0.50038 -2.4149,-1.54334 -3.0553,-3.151 -0.29713,-0.74592 -8.40122,-22.88382 -18.00907,-49.19531 -18.86495,-51.66241 -18.20801,-49.66644 -16.78656,-51.00283 0.67934,-0.63868 0.71066,-0.64177 7.29572,-0.72062 5.38029,-0.0645 6.87785,-0.003 8.03139,0.33301 1.56446,0.45479 2.85845,1.40456 3.43645,2.52227 0.40143,0.77629 21.54755,62.97758 22.39786,65.88329 0.78125,2.66973 2.25012,8.62415 2.74128,11.1125 0.78546,3.97928 1.10892,3.68903 2.35872,-2.11667 0.51688,-2.40109 1.28336,-5.55625 1.70329,-7.01145 1.66198,-5.75943 22.58648,-67.5294 23.1802,-68.4289 0.37184,-0.56335 1.16032,-1.21939 1.90797,-1.5875 1.22207,-0.60167 1.54887,-0.6309 7.98338,-0.71382 4.84504,-0.0624 6.92527,0.003 7.48696,0.23569 1.02205,0.42336 1.64308,1.63478 1.4274,2.78442 -0.14557,0.77594 -33.89555,93.7141 -35.39568,97.46996 -0.73985,1.85235 -2.0978,3.35852 -3.33878,3.70322 -1.50803,0.41886 -12.12315,0.32652 -13.36523,-0.11626 z m 64.29516,0.11552 c -0.41582,-0.12462 -0.99781,-0.4418 -1.2933,-0.70488 -1.31652,-1.17205 -1.25797,1.22462 -1.25797,-51.49525 v -49.31415 l 0.60058,-0.89903 c 1.13056,-1.69235 1.73304,-1.8242 8.3376,-1.82465 6.15198,0 7.08398,0.14084 8.3549,1.26643 0.28126,0.24913 9.16149,13.43076 19.73382,29.29253 17.99085,26.99178 19.39319,29.17862 21.88734,34.13125 1.46571,2.91042 3.46191,7.19667 4.43603,9.525 2.49875,5.97247 2.48957,5.95312 2.82723,5.95312 0.3383,0 0.34269,0.0422 -0.67651,-6.48229 -1.88603,-12.07333 -1.83198,-10.89771 -1.9345,-42.06184 -0.10488,-31.87621 -0.20894,-30.07792 1.79967,-31.10265 0.92794,-0.47339 1.57239,-0.52197 6.92483,-0.52197 6.7197,0 7.27879,0.13594 8.26127,2.00861 0.54039,1.03003 0.54282,1.22312 0.61426,48.91657 0.0441,29.4568 -0.0257,48.58552 -0.18145,49.70947 -0.29033,2.09494 -1.07223,3.16526 -2.65743,3.63765 -0.57623,0.17171 -3.17825,0.24585 -6.75785,0.19253 -5.56779,-0.0829 -5.86417,-0.11366 -6.81805,-0.7067 -0.77928,-0.4845 -2.6348,-3.05752 -8.49064,-11.77396 -22.93278,-34.13546 -31.14376,-46.59011 -32.90776,-49.91542 -2.01102,-3.79092 -5.05103,-10.43538 -6.93534,-15.15829 -0.65074,-1.631 -1.26659,-2.80991 -1.43637,-2.74963 -0.35065,0.12446 -0.3661,-0.0464 0.48265,5.34021 2.12617,13.49349 2.31156,17.44957 2.21314,47.22813 -0.0933,28.23366 0.0622,26.26238 -2.15069,27.26706 -0.97939,0.44466 -1.74721,0.50062 -6.66319,0.48564 -3.05594,-0.009 -5.89648,-0.11887 -6.31227,-0.24349 z m -166.47131,-28.63221 c -0.071,-0.18507 -0.0977,-4.20507 -0.0592,-8.93331 l 0.0699,-8.59682 h 8.73125 8.73125 v 8.86355 8.86354 l -8.67202,0.0698 c -6.82409,0.0549 -8.69953,-0.003 -8.80114,-0.26673 z m 291.041666,0 c -0.07102,-0.18507 -0.09768,-4.20507 -0.05924,-8.93331 l 0.0699,-8.59682 h 8.73125 8.73125 v 8.86355 8.86354 l -8.672009,0.0698 c -6.824107,0.0549 -8.699553,-0.003 -8.801153,-0.26673 z M 19.938242,59.914426 V 39.276925 H -206.80967 -433.55759 l -0.0684,20.372917 c -0.0376,11.205105 -0.0116,20.521815 0.0579,20.7038 0.10096,0.264504 45.60298,0.317582 226.81632,0.264584 l 226.690012,-0.0663 z m -435.780802,8.795247 c -0.0703,-0.183083 -0.0963,-4.201443 -0.0578,-8.929687 l 0.0699,-8.596811 8.58104,-0.06987 c 6.68892,-0.05447 8.62785,0.0039 8.79334,0.264583 0.36279,0.571518 0.27096,16.979123 -0.0971,17.347166 -0.46919,0.469196 -17.10907,0.454395 -17.28934,-0.01537 z m 35.19974,-0.258826 c -0.0804,-0.329406 -0.11279,-4.34939 -0.0721,-8.933296 l 0.074,-8.334376 h 8.73126 8.73125 v 8.863542 8.863542 l -8.65916,0.06976 -8.65916,0.06975 z m 35.4454,0.262449 c -0.071,-0.185077 -0.0977,-4.205066 -0.0592,-8.93331 l 0.0699,-8.596811 h 8.73125 8.73125 v 8.863542 8.863542 l -8.67202,0.06977 c -6.82409,0.0549 -8.69953,-0.0019 -8.80114,-0.266734 z m 134.15441,-146.413691 c -11.60599,-1.773246 -20.79508,-7.643347 -26.90593,-17.187818 -5.15196,-8.046787 -6.90398,-18.943577 -4.59283,-28.565277 3.38627,-14.0976 14.33756,-24.69765 28.72064,-27.79948 3.17257,-0.6842 10.85143,-0.68477 14.009,-0.001 4.85245,1.05072 9.46883,2.98395 13.48057,5.64536 2.93963,1.95013 7.88744,6.9018 9.87957,9.88723 4.24709,6.36477 6.35418,13.3321 6.35418,21.01085 0,10.61884 -4.10125,20.082729 -11.84119,27.324283 -4.869,4.555453 -10.56958,7.549758 -17.29577,9.084826 -2.23518,0.510117 -9.86245,0.898372 -11.80824,0.601078 z m 10.05417,-18.709776 c 2.88784,-0.944223 5.16585,-2.341282 7.40619,-4.542079 7.70276,-7.56674 7.70276,-19.94992 0,-27.51666 -2.22546,-2.18618 -4.49432,-3.58318 -7.40619,-4.56022 -1.89534,-0.63596 -2.50398,-0.71022 -5.82083,-0.71022 -3.31686,0 -3.9255,0.0743 -5.82084,0.71022 -7.15235,2.39988 -12.40437,8.92372 -13.04334,16.20188 -0.87123,9.92374 4.82363,18.229248 14.23942,20.767081 2.86321,0.771723 7.48892,0.616728 10.44559,-0.350002 z"
         style="fill:#feb890;stroke-width:0.26458335" />
      <path
         id="path4537"
         d="m -451.09947,383.05006 c -0.24632,-0.24633 -0.3175,-40.7234 -0.3175,-180.55649 0,-99.13145 0.0723,-180.427323 0.1606,-180.657505 0.14564,-0.379529 4.68906,-0.418516 48.77446,-0.418516 h 48.61387 l 51.0396,-51.603173 c 31.07263,-31.415729 51.20041,-51.573612 51.45068,-51.527606 0.2261,0.04156 3.0755,2.791029 6.33201,6.109928 l 5.92093,6.034363 -4.37826,4.416679 c -44.58057,44.971778 -84.88264,85.895209 -84.88264,86.19132 0,0.327716 16.30951,0.378489 121.57605,0.378489 104.60407,0 121.576037,-0.05223 121.576037,-0.374115 0,-0.291306 -42.240227,-43.184862 -85.013137,-86.328028 l -4.24768,-4.284435 5.9209,-6.034316 c 3.25647,-3.318875 6.10587,-6.068322 6.33196,-6.109885 0.25027,-0.04601 20.37805,20.111877 51.45069,51.527606 l 51.039605,51.603173 h 48.613854 c 44.085404,0 48.628829,0.03899 48.774456,0.418516 0.08834,0.230182 0.160602,81.526055 0.160602,180.657505 0,139.83309 -0.07117,180.31016 -0.3175,180.55649 -0.46318,0.46318 -488.116397,0.46318 -488.579587,0 z M 20.06122,365.12869 c 0.383752,-0.71702 0.383752,-265.224008 0,-265.941032 -0.270457,-0.505362 -3.11187,-0.511773 -226.87089,-0.511773 -223.75903,0 -226.60044,0.0064 -226.8709,0.511773 -0.38374,0.717024 -0.38374,265.224012 0,265.941032 0.27046,0.50538 3.11187,0.51179 226.8709,0.51179 223.75902,0 226.600433,-0.006 226.87089,-0.51179 z m -435.69359,-17.69816 c -0.26433,-0.16785 -0.31764,-23.42666 -0.26459,-115.42044 l 0.0664,-115.21025 H -206.80967 2.2111583 l 0.066437,115.21025 c 0.053075,91.99378 -2.381e-4,115.25259 -0.2645833,115.42044 -0.1820598,0.1156 -94.15227,0.21018 -208.822682,0.21018 -114.67042,0 -208.64063,-0.0946 -208.8227,-0.21018 z m 400.216696,-17.86708 c 0.219128,-0.26405 0.279849,-25.95803 0.230822,-97.6974 l -0.06649,-97.33912 H -206.80967 -398.36801 l -0.0665,97.33912 c -0.049,71.73937 0.0117,97.43335 0.23083,97.6974 0.44493,0.5361 382.343082,0.5361 382.788006,0 z M -257.74197,284.18043 c -1.62435,-0.26141 -2.75722,-0.9107 -3.39084,-1.94345 -0.39551,-0.64463 -34.24274,-92.86917 -35.99404,-98.07401 -0.70583,-2.09772 -0.17288,-3.52152 1.49112,-3.98367 1.28333,-0.35639 10.80814,-0.35263 13.01341,0.005 2.07331,0.33637 3.5606,1.12816 4.26741,2.2718 0.77723,1.25756 22.49623,65.47101 23.61203,69.81026 0.52387,2.03729 1.26057,5.13291 1.63711,6.87916 1.05426,4.88929 1.39432,4.81365 2.53255,-0.56332 1.37607,-6.50052 2.15691,-8.97107 13.44553,-42.54127 8.73879,-25.98748 11.27766,-33.25313 11.88041,-33.99896 1.36806,-1.6928 2.51667,-1.94932 9.31203,-2.0796 3.98279,-0.0764 6.32757,-0.014 7.07831,0.18809 1.45782,0.39254 2.0278,1.23521 1.8494,2.7341 -0.17862,1.5008 -35.21923,97.63702 -36.12942,99.12348 -1.25474,2.04912 -1.97624,2.25459 -8.12272,2.3133 -2.91041,0.0278 -5.82744,-0.0357 -6.48229,-0.14107 z m 63.78538,-0.0412 c -1.4261,-0.29617 -2.58345,-1.34485 -2.9382,-2.66226 -0.17117,-0.63569 -0.23905,-18.07036 -0.19422,-49.88658 0.0651,-46.18461 0.095,-48.957 0.53642,-49.76477 0.88686,-1.62274 1.54169,-1.78078 7.7699,-1.87505 6.41409,-0.0971 7.36098,0.0628 8.83203,1.49191 1.04286,1.01309 37.10996,54.92705 39.24398,58.66286 1.93313,3.3841 5.8597,11.61828 7.5669,15.86804 0.86249,2.14699 1.69529,4.03077 1.85068,4.18616 0.72917,0.72917 0.76478,-0.36301 0.13669,-4.19018 -0.74192,-4.52075 -1.52932,-10.58399 -2.027,-15.60914 -0.25326,-2.55694 -0.34068,-10.39898 -0.34068,-30.55938 0,-25.42821 0.0292,-27.17316 0.46749,-27.97522 0.90871,-1.66272 1.48868,-1.79041 8.13147,-1.79041 6.49544,0 6.97317,0.0915 8.046,1.54072 l 0.55295,0.74698 0.0689,49.3472 c 0.0673,48.19065 0.057,49.37416 -0.43984,50.49726 -0.88363,1.99763 -1.33541,2.11368 -8.22801,2.11368 -6.94349,0 -7.31327,-0.1025 -9.15072,-2.53675 -3.11563,-4.12755 -38.03933,-56.85967 -39.58654,-59.77263 -1.92553,-3.62521 -4.76977,-9.81794 -6.67467,-14.53255 -0.67183,-1.66275 -1.35649,-3.18585 -1.52149,-3.38466 -0.75173,-0.90578 -0.74689,0.35063 0.0201,5.24896 2.05939,13.14969 1.97821,11.44585 2.0719,43.49221 0.0828,28.34706 0.0754,28.85406 -0.43905,29.68665 -0.98994,1.60221 -1.68222,1.77374 -7.42593,1.8402 -2.83765,0.0328 -5.68579,-0.0496 -6.3292,-0.18325 z m -167.07686,-28.98399 c -0.0883,-0.23019 -0.1606,-4.07591 -0.1606,-8.54604 0,-5.96863 0.0843,-8.21188 0.3175,-8.44503 0.454,-0.454 16.63808,-0.454 17.09208,0 0.23317,0.23315 0.3175,2.4764 0.3175,8.44503 0,4.47013 -0.0723,8.31585 -0.1606,8.54604 -0.14185,0.36968 -1.15751,0.41852 -8.70294,0.41852 -7.54542,0 -8.56108,-0.0488 -8.70294,-0.41852 z m 291.057464,0.24212 c -0.09702,-0.097 -0.176397,-3.94272 -0.176397,-8.54604 0,-6.15694 0.08392,-8.45357 0.3175,-8.68715 0.453998,-0.454 16.638084,-0.454 17.092083,0 0.233151,0.23315 0.3175,2.4764 0.3175,8.44503 0,4.47013 -0.07226,8.31585 -0.160602,8.54604 -0.141843,0.36965 -1.156123,0.41852 -8.687144,0.41852 -4.689607,0 -8.605943,-0.0794 -8.70294,-0.1764 z M 20.06122,80.437028 c 0.295698,-0.552521 0.398515,-39.609785 0.10713,-40.697082 L 20.008806,39.144633 H -206.80968 -433.62817 l -0.15953,0.595313 c -0.29139,1.087297 -0.18858,40.144561 0.10713,40.697082 0.27046,0.505363 3.11187,0.511773 226.8709,0.511773 223.75902,0 226.600433,-0.0064 226.87089,-0.511773 z M -415.9628,60.046717 v -8.73125 h 8.73125 8.73125 v 8.73125 8.731251 h -8.73125 -8.73125 z m 35.45417,0 v -8.738481 l 8.6651,0.06976 8.66511,0.06976 v 8.598958 8.598959 l -8.66511,0.06976 -8.6651,0.06976 z m 35.30971,8.398087 c -0.0703,-0.18324 -0.0964,-4.082537 -0.0578,-8.665104 l 0.07,-8.331941 8.66511,-0.06976 8.6651,-0.06976 v 8.734867 8.734865 h -8.60726 c -6.67527,0 -8.63596,-0.07478 -8.73511,-0.333164 z m 134.8197,-146.256224 c -14.24377,-1.455962 -26.55087,-11.306731 -31.05973,-24.86062 -1.57359,-4.73029 -1.88202,-6.70319 -1.88202,-12.03854 0,-5.33535 0.30843,-7.30826 1.88202,-12.03854 4.19279,-12.60376 15.28891,-22.17237 28.41157,-24.50038 3.32135,-0.58922 9.10272,-0.58589 12.43541,0.007 13.14773,2.33964 24.21615,11.88158 28.41157,24.49322 1.57358,4.73028 1.88201,6.70319 1.88201,12.03854 0,5.33535 -0.30843,7.30825 -1.88201,12.03854 -3.58399,10.7737 -12.32458,19.51596 -23.1199,23.124324 -4.70128,1.571416 -10.33999,2.220698 -15.07892,1.736296 z m 8.33204,-18.107067 c 0.87313,-0.22256 2.59954,-0.906135 3.83646,-1.519061 1.83098,-0.90729 2.71859,-1.583333 4.77581,-3.637472 2.07807,-2.07496 2.72267,-2.92248 3.62958,-4.77202 1.61462,-3.29292 2.03232,-5.11462 2.03232,-8.86354 0,-3.75262 -0.41878,-5.57604 -2.03573,-8.86354 -0.88847,-1.80643 -1.57663,-2.72288 -3.49729,-4.65748 -4.05262,-4.08207 -7.86163,-5.72086 -13.37135,-5.75292 -3.62055,-0.0211 -5.54886,0.41541 -8.59896,1.94638 -3.70221,1.85829 -6.76886,4.92724 -8.58988,8.59631 -1.55674,3.13658 -1.98013,5.0035 -1.98013,8.73125 0,3.75262 0.4188,5.57604 2.03573,8.86354 1.92497,3.91378 6.39008,7.903514 10.53134,9.410125 3.26195,1.186715 7.79033,1.395725 11.2321,0.518428 z"
         style="fill:#fea775;stroke-width:0.26458335" />
      <path
         id="path4535"
         d="m -451.08643,202.32641 0.0663,-180.776569 48.74704,-0.132292 48.74705,-0.132291 1.68352,-1.719792 c 11.14116,-11.3811821 100.2687,-101.33542 100.40412,-101.33542 0.43456,0 11.99841,11.862697 11.9131,12.220959 -0.051,0.214196 -20.09525,20.596805 -44.54275,45.294684 -24.4475,24.69787847 -44.4885,45.077723 -44.53554,45.288545 -0.0746,0.334267 15.51002,0.383315 121.79388,0.383315 105.90029,0 121.868216,-0.04991 121.793868,-0.380709 -0.04704,-0.209388 -20.088038,-20.5894149 -44.535538,-45.288947 -24.4475,-24.699533 -44.49173,-45.083314 -44.54274,-45.29729 -0.0854,-0.358317 11.47916,-12.220557 11.9139,-12.220557 0.13644,0 90.794045,91.4977377 100.536029,101.467712 l 1.5512,1.5875 48.746833,0.132291 48.74686,0.132292 0.06633,180.776569 0.06636,180.77657 H -206.80971 -451.15281 Z M 20.202825,232.15818 V 98.808177 H -206.80967 -433.82218 l -0.0676,133.085423 c -0.0372,73.19698 -0.0111,133.23433 0.0579,133.41631 0.10036,0.2645 45.65483,0.31758 227.08015,0.26458 l 226.954595,-0.0663 z M -415.84027,347.05366 c -0.0691,-0.18198 -0.0951,-52.00402 -0.0579,-115.16006 l 0.0677,-114.82917 h 209.0208 209.0208283 v 115.09375 115.09376 l -208.9629283,0.0663 c -167.03196,0.053 -208.98812,-8e-5 -209.0885,-0.26458 z m 400.655418,-114.96181 0.06652,-97.69758 -191.624838,0.0663 -191.62484,0.0663 -0.0677,97.36667 c -0.0372,53.55167 -0.0112,97.51558 0.0579,97.69758 0.1004,0.26448 38.56411,0.31761 191.62604,0.26459 l 191.500422,-0.0663 z M -259.32406,283.5535 c -0.64078,-0.32743 -1.381,-0.89297 -1.64493,-1.25678 -0.26393,-0.3638 -8.52715,-22.68553 -18.36271,-49.60387 -13.17609,-36.06083 -17.8875,-49.25118 -17.90056,-50.1156 -0.0146,-0.96862 0.11136,-1.28424 0.72269,-1.81007 l 0.74043,-0.63688 7.17348,0.0848 c 6.40148,0.0756 7.27315,0.13804 8.09953,0.57971 1.23016,0.65746 1.82756,1.20372 2.28607,2.09039 0.54421,1.05238 21.41502,62.61423 22.62479,66.73551 0.55532,1.89177 1.42935,5.34459 1.94229,7.67292 0.51294,2.32833 0.99534,4.50895 1.072,4.84582 0.10074,0.44267 0.2949,0.58938 0.70034,0.52916 0.49699,-0.0738 0.65823,-0.53586 1.41402,-4.05206 0.46919,-2.18282 1.1816,-5.20984 1.58313,-6.72672 0.73205,-2.76548 22.59558,-68.04774 23.11435,-69.01707 0.56022,-1.04677 2.10354,-2.12254 3.4635,-2.41419 1.8182,-0.38994 13.26446,-0.38769 14.12142,0.003 0.68744,0.31322 1.23225,1.24603 1.23225,2.10979 0,0.59177 -35.24493,97.48536 -35.98635,98.93187 -0.63298,1.23494 -1.56852,2.07314 -2.66485,2.38757 -0.49528,0.14203 -3.52521,0.25826 -6.73318,0.25826 -5.52709,0 -5.89369,-0.0312 -6.99771,-0.59531 z m 64.56208,0.25871 c -1.35905,-0.48152 -2.05029,-1.70043 -2.25102,-3.96942 -0.093,-1.05142 -0.13267,-23.28341 -0.0881,-49.4044 0.0805,-47.20368 0.0843,-47.49835 0.61919,-48.41875 0.99857,-1.71829 1.60969,-1.85177 8.45766,-1.84732 5.80139,0.004 6.13482,0.0315 7.14375,0.59491 0.92596,0.51703 3.46705,4.19817 20.31582,29.43053 l 19.25746,28.83959 3.23956,6.48229 c 1.78176,3.56526 3.99515,8.35753 4.91868,10.64948 1.38473,3.43649 1.77218,4.16719 2.20978,4.16719 0.61555,0 0.63063,0.23429 -0.41709,-6.48229 -1.96887,-12.62185 -2.02867,-13.93135 -2.03018,-44.47702 l -0.003,-26.74993 0.60325,-0.89517 c 1.00536,-1.49185 1.32778,-1.55617 7.82344,-1.56046 6.71459,-0.004 7.32342,0.13015 8.15546,1.8025 0.46302,0.93065 0.48347,3.0533 0.48347,50.18424 0,53.93622 0.11586,50.07936 -1.54104,51.30538 -0.70956,0.52504 -1.07032,0.55296 -7.14375,0.55296 -5.92537,0 -6.46157,-0.039 -7.28059,-0.52917 -0.90038,-0.53888 -4.27839,-5.48669 -29.44405,-43.12708 -11.63484,-17.40231 -13.59053,-20.87849 -18.3606,-32.63554 -1.46209,-3.6037 -2.04809,-4.48897 -2.49391,-3.76761 -0.10835,0.17531 -0.0373,1.23446 0.1579,2.35365 0.52655,3.01908 1.61298,10.76431 2.12257,15.13179 0.38618,3.30991 0.46114,7.64791 0.54626,31.60755 0.0888,25.01992 0.0565,27.88139 -0.3265,28.88427 -0.76332,1.99871 -1.03716,2.07388 -7.80608,2.14241 -4.17121,0.0422 -6.22758,-0.037 -6.87001,-0.26458 z m -165.98745,-28.41115 c -0.099,-0.099 -0.18004,-4.02971 -0.18004,-8.7349 v -8.55485 h 8.60258 8.60257 l -0.0698,8.6651 -0.0698,8.66511 -8.35277,0.0698 c -4.59403,0.0384 -8.43379,-0.0111 -8.53282,-0.11025 z m 291.041679,0 c -0.09903,-0.099 -0.180049,-4.02971 -0.180049,-8.7349 v -8.55485 h 8.602583 8.602557 l -0.06974,8.6651 -0.06977,8.66511 -8.352764,0.0698 c -4.594039,0.0384 -8.433805,-0.0111 -8.532812,-0.11025 z M 20.270611,60.208084 c 0.04935,-15.005103 -0.01349,-20.706253 -0.230849,-20.96823 -0.415845,-0.501076 -453.175742,-0.543295 -453.676732,-0.0423 -0.24149,0.24149 -0.3175,5.234832 -0.3175,20.857986 0,11.297269 0.0795,20.619932 0.17655,20.717029 0.0971,0.0971 102.28248,0.146709 227.07864,0.110244 l 226.902105,-0.0663 z m -436.103071,7.978228 c -0.0804,-0.329433 -0.11283,-4.230376 -0.0721,-8.668761 l 0.074,-8.069792 h 8.59896 8.59896 v 8.598958 8.598959 l -8.52686,0.0698 -8.52685,0.06981 z m 35.44396,0.258492 c -0.0703,-0.18324 -0.0963,-4.082537 -0.0578,-8.665104 l 0.07,-8.331941 8.53281,-0.06981 8.53281,-0.06981 v 8.734918 8.734915 h -8.47497 c -6.56891,0 -8.50372,-0.07493 -8.60281,-0.333164 z m 35.33403,-8.394422 v -8.734915 h 8.60258 8.60257 l -0.0698,8.665105 -0.0698,8.665104 -8.53281,0.06981 -8.53282,0.06981 z m 132.55625,-138.258433 c -9.67879,-1.530369 -18.70173,-7.254629 -24.28534,-15.406918 -4.37147,-6.382518 -6.4836,-13.244131 -6.4936,-21.095611 -0.0154,-12.08551 5.3838,-22.77477 15.15783,-30.00926 8.78681,-6.50377 20.7687,-8.5683 31.62841,-5.4497 6.79563,1.95151 13.84569,6.76063 18.23709,12.44021 5.38739,6.96772 7.91562,14.31987 7.91562,23.01875 0,4.38557 -0.40466,7.09672 -1.67833,11.24479 -4.04379,13.169913 -15.70099,23.203921 -29.36918,25.279731 -3.0708,0.466368 -8.08665,0.456441 -11.1125,-0.02199 z m 11.50938,-17.937536 c 2.95404,-0.96587 5.20795,-2.359682 7.55883,-4.674363 2.2933,-2.25799 3.84574,-4.71876 4.92408,-7.80521 0.68273,-1.95404 0.73953,-2.4216 0.73953,-6.08542 0,-3.66382 -0.0568,-4.13138 -0.73953,-6.08542 -1.07834,-3.08645 -2.63078,-5.54722 -4.92408,-7.80521 -2.33599,-2.30001 -4.57966,-3.69288 -7.55883,-4.69251 -1.89534,-0.63596 -2.50398,-0.71022 -5.82083,-0.71022 -3.31686,0 -3.9255,0.0743 -5.82084,0.71022 -2.97917,0.99963 -5.22284,2.3925 -7.55883,4.69251 -2.2933,2.25799 -3.84573,4.71876 -4.92409,7.80521 -0.68271,1.95404 -0.73953,2.4216 -0.73953,6.08542 0,3.66382 0.0568,4.13138 0.73953,6.08542 2.27986,6.52535 7.12148,11.060485 13.70317,12.835712 2.83764,0.765374 7.47616,0.606859 10.42142,-0.356139 z"
         style="fill:#fe9b63;stroke-width:0.26458335" />
      <path
         id="path4533"
         d="m -451.02981,382.77238 c -0.069,-0.18198 -0.0951,-81.47196 -0.0579,-180.64441 l 0.0676,-180.313546 48.6167,-0.132291 48.6167,-0.132292 8.57587,-8.598959 c 4.71672,-4.7294268 27.64564,-27.887084 50.95314,-51.46146 23.3075,-23.574375 42.51694,-42.894579 42.68764,-42.933788 0.1707,-0.03921 2.98745,2.609102 6.25944,5.885133 l 5.94907,5.956419 -7.81871,7.873201 c -26.30025,26.48356 -81.37405,82.220674 -81.56362,82.545995 -0.12738,0.218588 -0.12149,0.491953 0.0135,0.626951 0.14227,0.142272 49.64931,0.212423 122.04443,0.17294 96.75803,-0.05277 121.827596,-0.13402 121.914618,-0.395121 0.0889,-0.266647 -44.985438,-46.04794 -81.797998,-83.080948 l -7.69274,-7.7388 5.95117,-5.958528 c 3.27316,-3.277191 6.09087,-5.92645 6.26155,-5.887242 0.17071,0.03921 19.38015,19.359413 42.68764,42.933788 23.307512,23.574376 46.236436,46.7320332 50.953163,51.46146 l 8.575861,8.598959 48.616684,0.132292 48.616712,0.132291 V 202.39256 382.97069 l -244.15252,0.0663 c -195.18368,0.053 -244.17769,-5e-5 -244.27803,-0.26458 z M 19.916599,365.74446 c 0.380867,-0.14616 0.418518,-12.16359 0.418518,-133.58628 0,-121.42269 -0.03765,-133.440128 -0.418518,-133.586279 -0.547264,-0.210002 -452.905289,-0.210002 -453.452549,0 -0.38087,0.146151 -0.41852,12.164139 -0.41852,133.592549 0,106.49797 0.0668,133.45886 0.33073,133.56538 0.47651,0.19227 453.039377,0.20688 453.540339,0.0145 z M -415.52166,347.20801 c -0.0971,-0.0971 -0.17656,-51.9489 -0.17656,-115.22623 V 116.93214 H -206.80937 2.0794752 l -0.066463,115.1599 -0.066437,115.1599 -208.6458352,0.0663 c -114.75522,0.0365 -208.7253,-0.0132 -208.8224,-0.11023 z m 400.15541,-17.2956 c 0.50456,-0.27003 0.511783,-1.64856 0.511783,-97.71063 0,-75.43133 -0.0717,-97.50843 -0.3175,-97.75423 -0.4631,-0.4631 -382.812313,-0.4631 -383.275413,0 -0.2458,0.2458 -0.3175,22.29136 -0.3175,97.61237 0,88.09707 0.0393,97.33415 0.41577,97.71062 0.37721,0.37719 18.1347,0.41577 191.44344,0.41577 131.17423,0 191.188,-0.0858 191.53942,-0.2739 z m -242.64411,-45.99575 c -1.28487,-0.26731 -2.48942,-1.02558 -2.99867,-1.88767 -0.58908,-0.99724 -35.65535,-96.93606 -35.97911,-98.4363 -0.36809,-1.70563 -0.10109,-2.48145 1.04044,-3.02313 0.84684,-0.40185 1.7168,-0.44212 7.47735,-0.34605 8.96088,0.14941 9.47777,0.40458 11.21922,5.53818 0.51126,1.50712 5.45733,16.0858 10.99128,32.39702 10.33397,30.45925 11.37515,33.74842 12.76087,40.31228 0.73854,3.49835 1.08795,4.51824 1.5441,4.5071 0.58479,-0.0143 0.89613,-0.79004 1.49042,-3.71369 0.36823,-1.81155 1.07751,-4.84153 1.57617,-6.7333 1.16785,-4.43048 22.75612,-68.76693 23.45364,-69.89554 1.24795,-2.01925 3.21318,-2.46816 10.80221,-2.46758 4.65052,0 5.57613,0.0676 6.36756,0.46302 1.88858,0.94345 2.87323,-2.09899 -16.67617,51.52718 -9.76113,26.77584 -18.03483,49.17385 -18.38602,49.77339 -1.11164,1.89773 -1.79517,2.0754 -8.19719,2.13061 -3.05594,0.0265 -5.97468,-0.0391 -6.4861,-0.14552 z m 63.91394,-0.0543 c -0.57478,-0.141 -1.27583,-0.46165 -1.55787,-0.71255 -1.28767,-1.14546 -1.23351,1.0927 -1.23351,-50.97772 0,-44.43334 0.0386,-48.91525 0.42967,-49.89264 0.73507,-1.83714 1.23114,-1.96705 7.88306,-2.06465 6.3921,-0.0938 7.36807,0.0726 8.67151,1.47886 0.90495,0.97628 37.39671,55.72699 38.92857,58.40682 1.87092,3.2729 6.03874,12.01256 7.72345,16.1956 1.62761,4.04119 2.02364,4.6396 2.65356,4.00968 0.33229,-0.33229 0.33285,-0.63915 0.004,-2.35852 -0.49556,-2.59347 -1.60075,-10.48097 -2.16768,-15.47027 -0.38885,-3.42215 -0.46521,-7.75676 -0.55438,-31.47232 -0.11776,-31.31418 -0.24243,-29.38198 1.95903,-30.3558 1.06773,-0.47231 1.67823,-0.51052 6.92465,-0.43347 5.03793,0.074 5.84541,0.14467 6.49089,0.56811 1.57861,1.03558 1.48672,-2.13029 1.48672,51.22858 0,44.55541 -0.0386,49.0475 -0.42968,50.02493 -0.71933,1.79781 -1.28752,1.95783 -7.33745,2.06631 -5.53363,0.0992 -7.07753,-0.0908 -8.40201,-1.03386 -0.75284,-0.53604 -36.92885,-54.35306 -39.38053,-58.58415 -2.55743,-4.41362 -8.54831,-17.38828 -9.16699,-19.85322 -0.19431,-0.77425 -0.90564,-1.24013 -1.41388,-0.92601 -0.29059,0.1796 -0.25202,0.84349 0.21796,3.75184 2.48489,15.37671 2.53662,16.33456 2.54101,47.0576 0.004,26.6015 0,26.86397 -0.53867,27.78125 -0.92485,1.57869 -1.47931,1.71138 -7.39497,1.76978 -2.91041,0.0287 -5.76194,-0.0632 -6.33674,-0.20418 z m -166.77057,-37.08591 0.0698,-8.53281 h 8.46667 8.46667 l 0.0698,8.53281 0.0698,8.53281 h -8.60629 -8.60629 z m 291.041658,0 0.06982,-8.53281 h 8.466666 8.466667 l 0.06982,8.53281 0.0698,8.53281 h -8.606288 -8.606287 z M 20.006001,80.994283 c 0.263102,-0.167031 0.318215,-4.563094 0.264584,-21.096471 l -0.06776,-20.88547 H -206.80967 -433.82218 l -0.0678,20.88547 c -0.0536,16.533377 10e-4,20.92944 0.26459,21.096471 0.43458,0.27591 453.196773,0.27591 453.631351,0 z m -435.641741,-21.013711 0.0698,-8.532813 h 8.33437 8.33438 l 0.0698,8.532813 0.0698,8.532812 h -8.474 -8.474 z m 35.45417,0 0.0698,-8.532813 h 8.33438 8.33437 l 0.0698,8.532813 0.0698,8.532812 h -8.47399 -8.474 z m 35.18958,0.0037 0.0698,-8.53649 h 8.46667 8.46667 v 8.466667 8.466667 l -8.53648,0.06981 -8.53649,0.06982 0.0698,-8.536483 z m 134.24235,-138.04816 c -8.73757,-1.10204 -16.25782,-4.879134 -22.30174,-11.201186 -4.81457,-5.03613 -7.94901,-11.027796 -9.51232,-18.183356 -0.6944,-3.17839 -0.6944,-11.34587 0,-14.52426 1.56331,-7.15556 4.69775,-13.14722 9.51232,-18.18335 5.36138,-5.6081 11.62903,-9.08307 19.31269,-10.70751 3.80911,-0.8053 10.04892,-0.8053 13.85803,0 11.49472,2.43016 20.96503,9.81735 25.86045,20.17211 2.66991,5.64736 3.45287,9.27111 3.45287,15.98088 0,3.9031 -0.10919,5.52681 -0.48832,7.26213 -3.24141,14.836548 -14.24836,25.89977 -28.69764,28.844347 -2.97912,0.607105 -8.36723,0.871797 -10.99634,0.540195 z m 8.68453,-17.621182 c 5.33749,-1.366055 10.28816,-5.46866 12.70664,-10.5299 1.42092,-2.97363 1.83274,-4.88261 1.83274,-8.49559 0,-3.61298 -0.41182,-5.52196 -1.83274,-8.49559 -2.46616,-5.16103 -7.45606,-9.23868 -12.9606,-10.59111 -2.4413,-0.59982 -6.82207,-0.59442 -9.12081,0.0112 -5.52037,1.45446 -10.37882,5.46848 -12.83117,10.60102 -1.41054,2.95215 -1.82256,4.86792 -1.82256,8.47444 0,3.61298 0.41182,5.52196 1.83274,8.49559 2.75233,5.75996 8.36199,9.955914 14.63855,10.94945 1.91897,0.303761 5.51004,0.104397 7.55721,-0.419549 z"
         style="fill:#fe8b49;stroke-width:0.26458335" />
      <path
         id="path4531"
         d="M -450.8878,202.39256 V 21.946716 l 48.08802,-0.0036 c 26.44841,-0.0021 48.3647,-0.07771 48.70287,-0.168259 0.33875,-0.09071 23.434,-23.2275339 51.43142,-51.523995 27.94912,-28.24764 50.94915,-51.391433 51.11119,-51.430652 0.16204,-0.03922 2.91078,2.548184 6.1083,5.749783 l 5.81368,5.821084 -9.00014,9.066885 c -37.29101,37.567578 -80.19287,81.045558 -80.39794,81.477575 -0.17881,0.376719 -0.14198,0.589008 0.1323,0.762564 0.50951,0.3224 243.667351,0.3224 244.176859,0 0.274161,-0.173487 0.311044,-0.385628 0.132291,-0.761243 -0.206163,-0.433208 -46.74738,-47.599189 -80.52856,-81.609571 l -8.87277,-8.932968 5.8153,-5.822712 c 3.19842,-3.202493 5.94789,-5.790626 6.10992,-5.75141 0.16206,0.03922 23.16207,23.183012 51.1112,51.430652 27.997416,28.2964609 51.092684,51.433282 51.43143,51.523994 0.338164,0.09055 22.254448,0.166272 48.702859,0.16826 l 48.088021,0.0036 V 202.39256 382.83839 H -206.80967 -450.8878 Z m 471.421619,29.82531 0.06641,-133.554883 -0.678947,-0.258136 c -0.933715,-0.354994 -452.527942,-0.355094 -453.461652,-9.7e-5 l -0.67868,0.258034 V 232.10754 c 0,73.3946 0.0794,133.52418 0.17654,133.62128 0.0971,0.0971 102.40155,0.14671 227.34323,0.11025 l 227.166688,-0.0663 z m -435.967449,-0.0597 V 117.19672 H -206.80967 1.8142833 V 232.15818 347.11964 H -206.80967 -415.43363 Z m 400.570908,97.51436 c 0.189151,-0.3534 0.254,-30.91021 0.207751,-97.90549 -0.0595,-86.23361 -0.112686,-97.42046 -0.464079,-97.64261 -0.436668,-0.27604 -382.50876,-0.37412 -383.22732,-0.0984 -0.38059,0.14605 -0.41851,9.02592 -0.41851,97.98402 0,53.80289 0.0794,97.90283 0.17639,97.99982 0.097,0.097 86.41313,0.1764 191.8136,0.1764 189.45067,0 191.640362,-0.006 191.912168,-0.51377 z M -258.48686,283.63126 c -0.99043,-0.24437 -2.0382,-1.12549 -2.58269,-2.17192 -0.72062,-1.3849 -35.6285,-97.21001 -35.76098,-98.16695 -0.20129,-1.45389 0.085,-2.22142 0.96465,-2.58577 1.07367,-0.44471 13.83885,-0.25675 14.97287,0.22047 1.00735,0.42395 1.9224,1.27358 2.43671,2.26254 0.65713,1.26354 21.9682,64.27539 22.95744,67.87973 0.50023,1.8226 1.27246,4.9807 1.71607,7.01799 0.44361,2.03729 0.86945,3.97931 0.94631,4.31556 0.11567,0.50602 0.28536,0.59722 0.98456,0.52917 l 0.84481,-0.0822 0.71835,-3.50084 c 0.39509,-1.92545 1.13576,-5.0806 1.64592,-7.01145 1.0906,-4.12764 22.64896,-68.34921 23.3633,-69.59844 0.29341,-0.51308 1.01133,-1.11477 1.80555,-1.51323 1.30601,-0.65519 1.3841,-0.66146 8.25396,-0.66146 7.83721,0 7.89961,0.0154 7.84233,1.92307 -0.0371,1.23611 -35.3187,98.15177 -36.23643,99.53856 -1.08594,1.64094 -1.41205,1.71272 -8.04242,1.77011 -3.27422,0.0283 -6.34786,-0.0459 -6.83031,-0.16491 z m 63.98946,-0.0927 c -0.52387,-0.18044 -1.17596,-0.70114 -1.52134,-1.21483 l -0.60448,-0.89903 v -49.19954 c 0,-54.53832 -0.13478,-50.49837 1.71408,-51.3757 0.71856,-0.341 1.95064,-0.41733 6.73492,-0.41733 6.26607,0 7.02699,0.12702 8.11702,1.35496 1.451,1.63459 38.06451,56.85356 39.77613,59.98869 2.24261,4.10773 4.8613,9.72076 7.01535,15.03703 1.4859,3.66726 1.84642,4.19442 2.65604,3.88374 0.54124,-0.20769 0.5052,-0.99898 -0.25997,-5.70941 -0.81275,-5.00325 -1.61679,-11.63942 -1.97898,-16.33342 -0.16373,-2.12196 -0.27459,-14.06197 -0.27459,-29.57568 0,-28.87708 -0.0821,-27.5132 1.70178,-28.25856 1.3154,-0.54962 11.6636,-0.55864 12.97352,-0.0114 1.86939,0.78108 1.72887,-3.38291 1.72887,51.23074 0,55.06443 0.16259,50.61146 -1.87783,51.42786 -0.82738,0.33108 -2.1236,0.41714 -6.26345,0.41598 -5.66717,-0.003 -6.83673,-0.18777 -7.98878,-1.27161 -0.41582,-0.39122 -9.38297,-13.62956 -19.92701,-29.41858 l -19.17102,-28.70729 -2.91804,-5.95312 c -2.48931,-5.0785 -3.51245,-7.38852 -6.30682,-14.23951 -0.30086,-0.73763 -0.47543,-0.86455 -1.09164,-0.79375 -0.90477,0.10398 -0.90483,0.098 0.0399,6.10524 2.10661,13.39556 2.31732,17.90385 2.21898,47.47175 -0.0816,24.5431 -0.0845,24.65644 -0.63596,25.4 -0.8945,1.20608 -1.8511,1.37848 -7.64812,1.37848 -3.41135,0 -5.61748,-0.11221 -6.20856,-0.31578 z m -166.16748,-36.69601 v -8.46667 h 8.33437 8.33438 v 8.46667 8.46666 h -8.33438 -8.33437 z m 291.041663,0 v -8.46667 h 8.334375 8.334375 v 8.46667 8.46666 h -8.334375 -8.334375 z M 19.921017,81.219933 20.5997,80.961898 V 60.106182 c 0,-15.868335 -0.07593,-20.93164 -0.3175,-21.173215 -0.46318,-0.463167 -453.72058,-0.463167 -454.18375,0 -0.24157,0.241575 -0.3175,5.305322 -0.3175,21.175192 v 20.857695 l 0.59531,0.239286 c 0.84,0.337638 452.656842,0.352375 453.544757,0.01479 z M -415.43363,60.046717 v -8.474205 l 8.26823,0.06991 8.26823,0.06992 v 8.334375 8.334376 l -8.26823,0.06992 -8.26823,0.06991 z m 35.36597,8.290278 c -0.097,-0.09701 -0.17639,-3.907013 -0.17639,-8.466667 V 51.58005 h 8.33438 8.33437 v 8.466667 8.466667 h -8.15799 c -4.48689,0 -8.23736,-0.07937 -8.33437,-0.176389 z m 35.27778,-8.290278 V 51.58005 h 8.33437 8.33438 v 8.466667 8.466667 h -8.33438 -8.33437 z m 133.4639,-138.370576 c -11.92243,-1.696935 -22.12154,-8.878459 -27.50518,-19.367297 -2.87683,-5.604874 -4.09414,-10.665264 -4.09414,-17.019424 0,-4.45546 0.49121,-7.685 1.74573,-11.47764 1.76986,-5.35059 4.43115,-9.80065 8.28872,-13.8599 5.03471,-5.29795 11.08389,-8.74287 18.34873,-10.44936 2.63072,-0.61794 3.51391,-0.69763 7.73245,-0.69763 4.21853,0 5.10172,0.0797 7.73244,0.69763 10.78651,2.53371 19.60142,9.42052 24.51129,19.14989 2.66126,5.27349 3.87189,10.47544 3.87189,16.63701 0,4.45077 -0.49112,7.68471 -1.74088,11.46317 -4.06408,12.287154 -13.99804,21.386916 -26.50635,24.280449 -3.16093,0.731216 -9.4655,1.058596 -12.3847,0.643102 z m 9.29493,-17.208551 c 5.51496,-1.410489 10.28021,-5.32657 12.81995,-10.53539 2.62377,-5.38122 2.61022,-11.93215 -0.0359,-17.35925 -5.52069,-11.32259 -20.07759,-14.58141 -29.84667,-6.6817 -4.6008,3.72041 -7.22124,9.30809 -7.22124,15.39817 0,7.63677 4.07514,14.29295 10.86135,17.740517 3.89471,1.978615 9.11938,2.538214 13.42254,1.437653 z"
         style="fill:#fe8037;stroke-width:0.26458335" />
    </g>
  </g>
</svg>
