<?xml version="1.0" encoding="UTF-8" standalone="no"?>
<svg
   xmlns:dc="http://purl.org/dc/elements/1.1/"
   xmlns:cc="http://creativecommons.org/ns#"
   xmlns:rdf="http://www.w3.org/1999/02/22-rdf-syntax-ns#"
   xmlns:svg="http://www.w3.org/2000/svg"
   xmlns="http://www.w3.org/2000/svg"
   id="svg8"
   version="1.1"
   viewBox="0 0 18.520834 19.060637"
   height="19.060637mm"
   width="18.520834mm">
  <defs
     id="defs2" />
  <metadata
     id="metadata5">
    <rdf:RDF>
      <cc:Work
         rdf:about="">
        <dc:format>image/svg+xml</dc:format>
        <dc:type
           rdf:resource="http://purl.org/dc/dcmitype/StillImage" />
        <dc:title></dc:title>
      </cc:Work>
    </rdf:RDF>
  </metadata>
  <g
     transform="translate(-3.3828351,0.21155763)"
     id="layer1">
    <g
       transform="matrix(0.03696307,0,0,0.03696307,12.899799,6.9296989)"
       id="g4637">
      <path
         id="path4651"
         d="m -9.8510333,322.34257 c -8.3716067,-1.06035 -15.6607537,-6.29013 -19.3009727,-13.84795 -1.756276,-3.64641 -2.254637,-6.0135 -2.238423,-10.63202 0.01617,-4.60613 0.475009,-6.74446 2.238891,-10.43405 2.391349,-5.00206 6.090293,-8.77165 11.182268,-11.39582 l 2.429695,-1.25214 v -8.30273 -8.30276 l -120.836505,-0.0664 -120.8365,-0.0664 -0.15283,-0.85961 c -0.24363,-1.37022 -0.0272,-449.92181 0.21715,-450.16621 0.28833,-0.28833 500.12695,-0.28833 500.41529,0 0.2444,0.2444 0.46077,448.79599 0.21714,450.16621 l -0.15282,0.85961 -120.8365,0.0664 -120.8365083,0.0664 v 8.30276 8.30273 l 2.4296952,1.25214 c 5.0919856,2.62417 8.7909131,6.39376 11.1822711,11.39582 1.763871,3.68959 2.222711,5.82792 2.238877,10.43405 0.01164,3.33129 -0.08319,4.32999 -0.590761,6.21771 -2.805034,10.43207 -11.8738919,17.77426 -22.6684157,18.35251 -1.3096875,0.0702 -3.1551562,0.0296 -4.1010416,-0.0902 z m 5.610561,-17.35058 c 1.6891661,-0.57555 3.2238024,-1.98507 4.09675011,-3.76278 0.97511923,-1.98572 1.01387804,-4.56988 0.09716294,-6.47837 -1.21073335,-2.52061 -4.18115755,-4.42886 -6.89405745,-4.42886 -2.7128999,0 -5.6833243,1.90825 -6.8940573,4.42886 -0.916715,1.90849 -0.877956,4.49265 0.09716,6.47837 0.847463,1.7258 2.397921,3.18207 3.9884349,3.74613 1.4534858,0.51549 4.0218121,0.52324 5.5086038,0.0167 z M 226.42188,64.632387 V -111.8447 H -6.9406167 -240.30312 V 64.632387 241.10948 H -6.9406167 226.42188 Z M -224.90437,225.71073 c -0.2446,-0.24461 -0.3175,-11.32523 -0.3175,-48.26482 0,-26.37102 0.0723,-48.13565 0.1606,-48.36584 0.14627,-0.38115 19.61367,-0.41851 218.1206533,-0.41851 198.5069767,0 217.9743867,0.0374 218.1206467,0.41851 0.0884,0.23019 0.1606,21.99482 0.1606,48.36584 0,36.93959 -0.0729,48.02021 -0.3175,48.26482 -0.46315,0.46315 -435.46434,0.46315 -435.9275,0 z m 419.04709,-48.36584 v -31.75 H -6.9406167 -208.02395 v 31.75 31.75 H -6.9406167 194.14272 Z m -241.53612,8.10408 c -0.213773,-0.25757 -0.28062,-2.6902 -0.230836,-8.40052 l 0.07008,-8.03793 h 8.334375 8.334375 l 0.07008,8.03793 c 0.04978,5.71032 -0.01706,8.14295 -0.230836,8.40052 -0.242488,0.29218 -1.829437,0.36259 -8.173616,0.36259 -6.344179,0 -7.931129,-0.0704 -8.173617,-0.36259 z m 32.279167,0 c -0.213773,-0.25757 -0.28062,-2.6902 -0.230836,-8.40052 l 0.07008,-8.03793 h 8.3343753 8.334375 l 0.070078,8.03793 c 0.049784,5.71032 -0.017066,8.14295 -0.2308358,8.40052 -0.24248793,0.29218 -1.8294376,0.36259 -8.1736168,0.36259 -6.3441797,0 -7.9311287,-0.0704 -8.1736167,-0.36259 z m 32.279169,0 c -0.213783,-0.25757 -0.280617,-2.6902 -0.230849,-8.40052 l 0.07009,-8.03793 h 8.334375 8.334375 l 0.07009,8.03793 c 0.04977,5.71032 -0.01693,8.14295 -0.230849,8.40052 -0.24249,0.29218 -1.829435,0.36259 -8.173614,0.36259 -6.344179,0 -7.931124,-0.0704 -8.173614,-0.36259 z M -176.3401,105.09245 c -0.42467,-0.24736 -0.46268,-0.92049 -0.45897,-8.127899 0.002,-4.322022 0.0996,-8.008779 0.21646,-8.192823 0.16536,-0.260509 2.02521,-0.319114 8.39647,-0.264584 l 8.18407,0.07004 0.07,8.184065 c 0.0545,6.371271 -0.004,8.231101 -0.26458,8.396471 -0.5018,0.3185 -15.58927,0.25752 -16.14348,-0.0653 z m 54.32726,-0.12327 c -1.7957,-0.49687 -2.88105,-1.162 -4.10276,-2.51429 -0.63883,-0.70712 -3.83855,-6.826697 -9.61672,-18.392322 l -8.65934,-17.332644 -0.0724,-21.089964 c -0.0675,-19.664019 -0.0417,-21.112375 0.3813,-21.421673 0.33874,-0.247703 2.3792,-0.331735 8.05438,-0.331735 4.18039,0 7.78904,0.07226 8.01922,0.160603 0.37629,0.144383 0.41851,2.091293 0.41851,19.298285 v 19.137684 l 3.68792,7.398967 c 2.02836,4.069451 3.78453,7.458578 3.90261,7.531444 0.11807,0.07284 1.91675,-3.219609 3.99705,-7.316549 l 3.78237,-7.448974 -0.0121,-19.06323 c -0.009,-14.48779 0.0641,-19.13943 0.30544,-19.38073 0.39398,-0.393964 15.733515,-0.448971 16.351249,-0.05861 0.344942,0.217964 0.414186,2.80543 0.529166,19.773557 l 0.132292,19.522758 3.569555,7.077604 c 1.963253,3.892683 3.631099,7.077605 3.706325,7.077605 0.07522,0 1.832441,-3.393837 3.904925,-7.541842 l 3.768161,-7.541843 v -19.03947 c 0,-18.552981 0.01307,-19.046482 0.511773,-19.313367 0.318963,-0.170709 3.396867,-0.273897 8.169685,-0.273897 6.171303,0 7.716473,0.07057 7.959556,0.363459 0.221581,0.266991 0.282848,5.988791 0.230836,21.5578 l -0.07081,21.194343 -8.668575,17.339417 c -6.966122,13.93407 -8.881047,17.551894 -9.750436,18.421294 -3.164374,3.16436 -8.288002,3.30398 -11.610925,0.31639 -1.211276,-1.08903 -1.765268,-2.05473 -5.83297,-10.167803 -2.472017,-4.930458 -4.583397,-8.964481 -4.691957,-8.964481 -0.10856,0 -2.16047,3.943879 -4.5598,8.764138 -4.76204,9.567016 -5.45916,10.588936 -8.00829,11.739476 -1.84092,0.83093 -3.91695,1.01897 -5.72531,0.51859 z m 97.11939,0.13557 c -1.552938,-0.32012 -3.15971,-1.30083 -4.419677,-2.69761 -0.740206,-0.82058 -3.540152,-6.120557 -9.642073,-18.251333 L -47.554158,67.060865 -47.62649,45.80543 c -0.06745,-19.819673 -0.04169,-21.277872 0.381299,-21.587169 0.582237,-0.425741 15.194047,-0.478605 15.980301,-0.05781 0.498698,0.266885 0.511773,0.760386 0.511773,19.313367 v 19.03947 l 3.768154,7.541843 c 2.072484,4.148005 3.83218,7.541842 3.910438,7.541842 0.07826,0 1.839577,-3.423047 3.914045,-7.606771 l 3.77176,-7.606771 -0.0093,-19.087836 c -0.0084,-17.166988 0.03284,-19.104002 0.409234,-19.248438 0.546237,-0.209603 15.55006485,-0.209603 16.0963024,0 0.3763989,0.144436 0.4175813,2.08145 0.4092337,19.248438 l -0.00929,19.087836 3.7717572,7.606771 c 2.0744656,4.183724 3.8357968,7.606771 3.9140606,7.606771 0.078237,0 1.8379281,-3.393837 3.9104361,-7.541842 l 3.768143,-7.541843 v -19.03947 c 0,-18.552981 0.01296,-19.046482 0.511783,-19.313367 0.786236,-0.420793 15.398062,-0.367929 15.980304,0.05781 0.422963,0.309297 0.448734,1.767496 0.381291,21.586984 l -0.07234,21.255276 -8.73125,17.323939 c -7.827565,15.53091 -8.862218,17.44731 -9.996699,18.5161 -1.801045,1.69677 -3.312186,2.30335 -5.7480728,2.30732 -1.5748529,0.003 -2.2874816,-0.13613 -3.4395833,-0.66945 -2.6810335,-1.24105 -3.3162214,-2.16003 -8.1508997,-11.792369 -2.4281103,-4.837642 -4.4742761,-8.795703 -4.5470366,-8.795703 -0.07276,0 -2.1189262,3.958061 -4.5470366,8.795703 -4.794297,9.551909 -5.489368,10.567879 -8.020672,11.723849 -1.551193,0.70834 -3.763295,0.96914 -5.385125,0.63484 z m 96.889604,0.0111 c -0.604811,-0.12692 -1.592024,-0.48196 -2.193766,-0.78896 -2.449566,-1.24968 -2.668059,-1.61814 -11.850476,-19.985382 l -8.66857,-17.339417 -0.0708,-21.194342 c -0.05202,-15.56901 0.0093,-21.29081 0.230823,-21.557801 0.243099,-0.292894 1.788266,-0.363458 7.959566,-0.363458 4.772819,0 7.850717,0.103187 8.169672,0.273896 0.498713,0.266885 0.511783,0.760386 0.511783,19.313367 v 19.03947 l 3.768143,7.541843 c 2.072508,4.148005 3.829712,7.541842 3.904933,7.541842 0.07522,0 1.743075,-3.184922 3.706336,-7.077604 l 3.569547,-7.077605 0.132291,-19.522758 c 0.114988,-16.968127 0.18423,-19.555593 0.529167,-19.773557 0.617723,-0.390366 15.957285,-0.335359 16.35125,0.05861 0.2413,0.2413 0.314616,4.892939 0.305435,19.380729 l -0.01217,19.06323 3.782352,7.448974 c 2.08031,4.09694 3.87897,7.389389 3.99706,7.316549 0.11808,-0.07287 1.87425,-3.461993 3.9026,-7.531444 l 3.68792,-7.398967 V 43.345387 c 0,-17.206992 0.0422,-19.153902 0.41852,-19.298285 0.23019,-0.08835 3.83884,-0.160602 8.01923,-0.160602 5.67518,0 7.71562,0.08403 8.05437,0.331734 0.42298,0.309298 0.44875,1.757892 0.38129,21.425642 l -0.0724,21.093907 -8.77824,17.55865 c -8.27497,16.552047 -8.85563,17.628237 -10.12817,18.772377 -3.38301,3.04162 -8.55805,2.85707 -11.711246,-0.41762 -0.866696,-0.90011 -2.155693,-3.231914 -5.494761,-9.940134 -2.399321,-4.820259 -4.451244,-8.764138 -4.559803,-8.764138 -0.108558,0 -2.219933,4.034023 -4.691962,8.964481 -4.067677,8.113081 -4.621688,9.078781 -5.832951,10.167801 -1.949741,1.75297 -4.838197,2.55696 -7.317131,2.03666 z m 74.319236,0.0418 c -0.26051,-0.16537 -0.31911,-2.02521 -0.26458,-8.396478 l 0.07,-8.184065 8.18407,-0.07004 c 6.37127,-0.05453 8.23111,0.004 8.39647,0.264584 0.11681,0.184044 0.21423,3.872547 0.21646,8.196659 0.004,7.50441 -0.0193,7.87451 -0.50774,8.13594 -0.60934,0.32613 -15.58679,0.37579 -16.09471,0.0534 z M -225.06127,0.18470038 c -0.0883,-0.2301875 -0.1606,-21.95057538 -0.1606,-48.26756838 0,-43.146344 0.0409,-47.8899 0.41578,-48.264809 0.3773,-0.377302 20.5367,-0.415775 217.8654733,-0.415775 197.3287667,0 217.4881567,0.03847 217.8654867,0.415775 0.37491,0.374909 0.41576,5.118465 0.41576,48.264809 0,26.316993 -0.0722,48.03738088 -0.1606,48.26756838 C 211.03377,0.56585915 191.56636,0.60321832 -6.9406167,0.60321832 -205.4476,0.60321832 -224.915,0.56585915 -225.06127,0.18470038 Z M 194.14272,-48.080117 V -79.830118 H -6.9406167 -208.02395 v 31.750001 31.750001 H -6.9406167 194.14272 Z m -338.49028,8.29027 c -0.097,-0.097 -0.17639,-3.764122 -0.17639,-8.149167 0,-5.848271 0.0846,-8.057383 0.3175,-8.29027 0.46073,-0.460719 56.318851,-0.460719 56.779583,0 0.232455,0.232463 0.3175,2.388209 0.3175,8.048149 0,4.251855 -0.07227,7.91898 -0.160599,8.149167 -0.145063,0.378037 -2.904972,0.418518 -28.530904,0.418518 -15.60367,0 -28.44968,-0.07937 -28.54669,-0.176397 z m 72.761602,0 c -0.09767,-0.09647 -0.177575,-3.834739 -0.177575,-8.306065 0,-7.169124 0.04945,-8.148638 0.418515,-8.29027 0.230182,-0.08834 12.955291,-0.160602 28.278018,-0.160602 23.269893,0 27.909079,0.05974 28.160417,0.362585 0.213773,0.257572 0.28062,2.690204 0.230836,8.400522 l -0.07008,8.037936 -28.331279,0.06734 c -15.582204,0.03701 -28.411189,-0.0127 -28.508854,-0.110252 z m 72.4958331,0 C 0.81220946,-39.886315 0.7323,-43.553969 0.7323,-47.939014 c 0,-5.848271 0.0846032,-8.057383 0.3175,-8.29027 0.2429854,-0.242993 6.871679,-0.316547 28.244271,-0.313451 15.359724,0.0026 28.077345,0.09964 28.261389,0.216455 0.260509,0.165365 0.319114,2.0252 0.264584,8.396473 l -0.07004,8.184066 -28.331292,0.06734 c -15.582186,0.03701 -28.4111752,-0.0127 -28.5088409,-0.110252 z m 72.4793099,-0.242121 c -0.08858,-0.230849 -0.161052,-3.898503 -0.161052,-8.150357 0,-5.659941 0.08504,-7.815686 0.3175,-8.048149 0.500671,-0.500671 56.387917,-0.456327 56.804027,0.04509 0.21379,0.257572 0.28062,2.690204 0.23085,8.400521 l -0.0701,8.037936 -28.48009,0.06734 c -25.799202,0.06099 -28.495254,0.02781 -28.641145,-0.352372 z M 226.42188,-152.72283 v -23.68021 H -6.9406167 -240.30312 v 23.68021 23.68021 H -6.9406167 226.42188 Z m -451.32625,8.28146 c -0.45351,-0.45352 -0.45351,-15.84482 0,-16.29833 0.23299,-0.23299 2.45326,-0.3175 8.34093,-0.3175 h 8.02342 l 0.25804,0.67868 c 0.14441,0.37984 0.25803,3.80906 0.25803,7.78798 0,3.97893 -0.11362,7.40814 -0.25803,7.78799 l -0.25804,0.67868 h -8.02342 c -5.88767,0 -8.10794,-0.0845 -8.34093,-0.3175 z m 32.28291,0.004 c -0.49593,-0.49593 -0.45689,-15.91303 0.0413,-16.32652 0.25759,-0.21378 2.69022,-0.28062 8.40053,-0.23084 l 8.03794,0.0701 v 8.33437 8.33438 l -8.07928,0.0699 c -6.0625,0.0524 -8.15946,-0.0103 -8.40052,-0.25136 z m 32.11996,-0.10102 c -0.0891,-0.23223 -0.16203,-3.91027 -0.16203,-8.17341 0,-6.24126 0.0706,-7.80979 0.36257,-8.05208 0.25758,-0.21378 2.69022,-0.28062 8.40052,-0.23084 l 8.03795,0.0701 v 8.33437 8.33438 l -8.23849,0.0699 c -7.34006,0.0623 -8.25616,0.0238 -8.40052,-0.35237 z m 32.27773,-0.004 c -0.0883,-0.23018 -0.1606,-3.8973 -0.1606,-8.14916 0,-5.65995 0.085,-7.8157 0.3175,-8.04815 0.46305,-0.46305 338.62696,-0.46305 339.09,0 0.45353,0.45351 0.45353,15.84481 0,16.29833 -0.24627,0.24628 -38.31124,0.3175 -169.701895,0.3175 -154.212345,0 -169.398785,-0.0375 -169.545005,-0.41852 z m -96.6806,450.68645 c -0.36655,-0.36655 -0.46001,-15.71715 -0.0992,-16.2855 0.16778,-0.26424 18.16152,-0.31768 89.09438,-0.26458 l 88.884148,0.0665 0.07004,8.18407 c 0.05453,6.37127 -0.0041,8.2311 -0.264583,8.39647 -0.184042,0.11681 -40.166981,0.21423 -88.850975,0.21645 -68.4978,0.003 -88.58816,-0.0678 -88.83386,-0.31345 z m 258.242676,0.097 c -0.260508,-0.16537 -0.319114,-2.0252 -0.264583,-8.39647 l 0.07003,-8.18407 88.884147,-0.0665 c 70.93286,-0.0531 88.92659,0 89.09439,0.26458 0.36086,0.56835 0.2674,15.91895 -0.0992,16.2855 -0.24568,0.24569 -20.33606,0.31658 -88.83384,0.31345 -48.684001,-0.003 -88.666934,-0.0996 -88.850979,-0.21645 z"
         style="fill:#fee6d8;stroke-width:0.26458335" />
      <path
         id="path4649"
         d="m -11.198117,321.94355 c -10.054923,-1.91146 -17.571397,-9.26354 -19.700476,-19.2696 -0.505769,-2.37697 -0.488955,-7.0983 0.03437,-9.65116 0.869823,-4.24309 2.983833,-8.31056 6.028454,-11.59904 2.06774,-2.23335 4.20298,-3.82133 7.248028,-5.39033 l 2.312746,-1.19168 v -8.33332 -8.33332 l -120.623235,-0.0664 c -88.6419,-0.0488 -120.71802,-0.1451 -120.98073,-0.36312 -0.49901,-0.41415 -0.53892,-450.00091 -0.04,-450.49984 0.4632,-0.4632 499.49346,-0.4632 499.95667,0 0.49892,0.49893 0.45902,450.08569 -0.04,450.49984 -0.2627,0.21802 -32.3388,0.3143 -120.98073,0.36312 L 1.3937583,258.1751 v 8.33332 8.33332 l 2.3127494,1.19168 c 5.7340235,2.95455 9.8451983,7.37097 12.0694983,12.96564 2.062824,5.18861 2.195909,11.62429 0.350281,16.93929 -2.677345,7.71006 -9.0512366,13.50886 -17.1843351,15.63378 -2.7082697,0.7076 -7.4567177,0.88154 -10.1400689,0.37142 z m 7.9420799,-17.21665 c 2.68601825,-1.46193 3.99055695,-3.74568 3.98575212,-6.97756 -0.009922,-6.66888 -8.18451762,-10.02626 -13.05977002,-5.36377 -1.513501,1.44743 -2.277755,3.24929 -2.280893,5.37763 -0.0054,3.67609 1.780995,6.26091 5.2104154,7.53906 1.6311801,0.60796 4.4564247,0.34341 6.1444955,-0.57536 z M 226.62051,64.698533 226.55418,-111.97699 H -6.9406167 -240.43541 l -0.0663,176.675523 -0.0663,176.675527 H -6.9406167 226.68686 Z M -224.78073,225.5874 c -0.0971,-0.0971 -0.17655,-21.80225 -0.17655,-48.2337 0,-37.025 0.0729,-48.13004 0.3175,-48.37464 0.49999,-0.49999 435.00452,-0.45887 435.41958,0.0412 0.21865,0.2635 0.27993,13.13323 0.23082,48.4849 l -0.0669,48.1262 -217.773974,0.0663 c -119.775686,0.0365 -217.853416,-0.0132 -217.950516,-0.11026 z M 194.4073,177.2126 V 145.33031 H -6.9406167 -208.28853 v 31.88229 31.88229 H -6.9406167 194.4073 Z m -241.652777,8.15798 c -0.09701,-0.097 -0.17639,-3.77521 -0.17639,-8.17378 0,-7.0485 0.04966,-8.01642 0.418516,-8.15797 0.692814,-0.26586 15.288921,-0.17479 15.721068,0.0981 0.33456,0.21127 0.409083,1.43547 0.474617,7.79688 0.0519,5.03801 -0.01714,7.72358 -0.207745,8.07971 -0.276448,0.51655 -0.535218,0.53345 -8.169585,0.53345 -4.336251,0 -7.963469,-0.0794 -8.060481,-0.17639 z m 32.282974,0.004 c -0.09911,-0.099 -0.180197,-3.77891 -0.180197,-8.17748 0,-7.0485 0.04966,-8.01642 0.418515,-8.15797 0.628939,-0.24136 15.27253608,-0.18529 15.65887273,0.06 0.26042937,0.16531 0.31912987,1.9988 0.26458337,8.26416 l -0.070096,8.05174 -7.9557404,0.07 c -4.3756577,0.0385 -8.0368297,-0.0111 -8.1359377,-0.11025 z m 32.098758,-0.357 c -0.193225,-0.36103 -0.26207,-3.013 -0.209815,-8.08358 0.06554,-6.3614 0.140044,-7.5856 0.47461,-7.79687 0.483076,-0.30504 15.335911,-0.34089 15.812796,-0.0382 0.26043,0.16532 0.319141,1.9988 0.264584,8.26416 l -0.07009,8.05175 -7.992269,0.07 c -7.798223,0.0683 -7.999254,0.057 -8.279818,-0.46731 z M -176.36214,104.93724 c -0.097,-0.097 -0.17639,-3.77521 -0.17639,-8.173772 0,-7.048501 0.0497,-8.016426 0.41851,-8.157978 0.23018,-0.08834 3.83778,-0.160602 8.01688,-0.160602 5.55705,0 7.68365,0.0853 7.91586,0.3175 0.45334,0.453337 0.45334,15.580412 0,16.033752 -0.23266,0.23265 -2.41261,0.3175 -8.15799,0.3175 -4.31227,0 -7.91986,-0.0794 -8.01687,-0.1764 z m 54.14896,-0.18849 c -1.44286,-0.47202 -2.66701,-1.2441 -3.69364,-2.32963 -0.49996,-0.52866 -4.28558,-7.726626 -9.525,-18.11086 l -8.69525,-17.233478 V 45.679092 24.283427 l 7.90558,-0.07014 c 5.61243,-0.04979 8.01077,0.0172 8.26823,0.230849 0.30098,0.249793 0.36264,3.534384 0.36264,19.317362 V 62.77787 l 3.76816,7.541842 c 2.07248,4.148005 3.85801,7.541842 3.96783,7.541842 0.10983,0 1.89674,-3.363515 3.97091,-7.474479 l 3.77123,-7.47448 0.13229,-19.314584 0.13229,-19.314584 7.90558,-0.07014 c 5.612434,-0.04979 8.010779,0.0172 8.268234,0.230849 0.300985,0.249793 0.362646,3.534384 0.362646,19.317362 V 62.77787 l 3.768154,7.541842 c 2.072483,4.148005 3.858011,7.541842 3.967837,7.541842 0.109826,0 1.896734,-3.363515 3.970909,-7.474479 l 3.771225,-7.47448 0.132292,-19.314584 0.132291,-19.314584 7.992269,-0.07001 c 7.776768,-0.06813 7.99996,-0.05564 8.277463,0.462888 0.198761,0.371369 0.26235,6.78442 0.209815,21.159762 l -0.07538,20.626864 -8.73125,17.501024 c -9.329915,18.700995 -9.440532,18.886415 -12.095599,20.275605 -1.183936,0.61947 -1.722453,0.73234 -3.514818,0.73668 -1.770798,0.004 -2.35445,-0.11168 -3.571875,-0.70967 -2.58953,-1.2719 -3.130547,-2.06763 -8.057089,-11.8505 -3.443044,-6.837019 -4.617734,-8.948605 -4.831544,-8.685054 -0.15536,0.191532 -2.26077,4.307761 -4.67869,9.147202 -4.72156,9.450122 -5.27528,10.270382 -7.71155,11.423312 -1.60431,0.75922 -4.27822,0.96342 -5.85619,0.44722 z m 96.884022,0.0109 c -3.72046,-1.23285 -3.624551,-1.08564 -13.420254,-20.600221 l -8.540163,-17.01345 V 45.714678 24.283427 l 7.9375,-0.07041 c 7.227443,-0.06408 7.967086,-0.02998 8.268229,0.381317 0.257321,0.35142 0.330729,4.669235 0.330729,19.452935 v 19.001264 l 3.70508,7.406508 c 2.037794,4.073578 3.823319,7.406508 3.967837,7.406508 0.144518,0 1.930043,-3.33293 3.967837,-7.406508 l 3.70508,-7.406508 V 43.917337 c 0,-14.527054 0.07641,-19.207613 0.3175,-19.448701 0.453517,-0.453523 15.844816,-0.453523 16.298333,0 0.241091,0.241088 0.3175,4.921647 0.3175,19.448701 v 19.131201 l 3.7050663,7.406508 c 2.0377943,4.073578 3.823335,7.406508 3.9678504,7.406508 0.1445154,0 1.9300563,-3.33293 3.9678503,-7.406508 l 3.705066,-7.406508 V 44.047274 c 0,-14.7837 0.07342,-19.101515 0.330729,-19.452935 0.301149,-0.411294 1.040792,-0.445399 8.26823,-0.381317 l 7.9375,0.07041 v 21.431251 21.431251 l -8.545857,17.024774 c -9.292484,18.512152 -9.56429,18.958082 -12.299659,20.178652 -1.925373,0.85913 -4.802346,0.85913 -6.7277189,0 -2.5215003,-1.12516 -3.3319429,-2.31201 -8.1324344,-11.909576 -2.4091451,-4.816555 -4.4986258,-8.757391 -4.6432894,-8.757391 -0.1446635,0 -2.2341443,3.940836 -4.6432893,8.757391 -4.815983,9.628526 -5.62274,10.807806 -8.13235,11.887406 -1.668298,0.71768 -4.170219,0.91041 -5.612902,0.43233 z m 96.969791,0.12253 c -1.41351,-0.46538 -2.974366,-1.42156 -3.913531,-2.39744 -0.717497,-0.74555 -3.3283,-5.72408 -9.71251,-18.520653 l -8.73125,-17.501024 -0.07538,-20.626865 c -0.05255,-14.375342 0.01111,-20.788392 0.209814,-21.159761 0.277495,-0.518531 0.500698,-0.531019 8.277464,-0.462889 l 7.992268,0.07001 0.132292,19.314584 0.132292,19.314584 3.771212,7.474479 c 2.074174,4.110964 3.861091,7.47448 3.970919,7.47448 0.109829,0 1.895343,-3.393837 3.967851,-7.541843 L 81.430217,62.778 V 43.761577 c 0,-15.782979 0.06167,-19.067569 0.362638,-19.317362 0.257466,-0.213678 2.655808,-0.280644 8.268229,-0.230849 l 7.905591,0.07014 0.132292,19.314584 0.132291,19.314584 3.771212,7.474479 c 2.07418,4.110964 3.86109,7.47448 3.97092,7.47448 0.10983,0 1.89534,-3.393837 3.96785,-7.541843 l 3.76814,-7.541842 V 43.761577 c 0,-15.782979 0.0617,-19.067569 0.36264,-19.317362 0.25747,-0.213678 2.65581,-0.280644 8.26823,-0.230849 l 7.90559,0.07014 v 21.394182 21.394157 l -8.73125,17.3169 c -9.46158,18.765365 -9.43501,18.721975 -12.25664,20.017005 -1.81549,0.83322 -4.99118,0.79459 -6.78219,-0.0825 -2.45237,-1.20097 -2.997864,-2.01054 -7.711549,-11.444922 -2.417921,-4.839441 -4.523343,-8.95567 -4.678706,-9.147201 -0.213784,-0.263552 -1.388481,1.848035 -4.83153,8.685054 -4.908603,9.747249 -5.475367,10.584549 -8.001185,11.820419 -1.491615,0.72985 -4.355571,1.05929 -5.612157,0.64556 z M 146.30983,104.8 c -0.4568,-0.4568 -0.46037,-15.580941 -0.004,-16.037533 0.3679,-0.367903 15.45384,-0.459184 16.02446,-0.09694 0.26043,0.165312 0.31914,1.998795 0.26459,8.264155 l -0.0701,8.051748 -7.94695,0.0699 c -5.9595,0.0525 -8.02727,-0.0103 -8.26823,-0.25136 z M -224.66102,0.24460205 c -0.21867,-0.26349855 -0.27995,-13.13322905 -0.23083,-48.48489705 l 0.0669,-48.126282 H -6.9406167 210.94376 l 0.0669,48.126202 c 0.0491,35.351668 -0.0122,48.22139913 -0.23082,48.48489768 -0.44562,0.53691897 -434.99521,0.53691897 -435.44082,0 z M 194.4073,-47.947825 V -79.830118 H -6.9406167 -208.28853 v 31.882293 31.882293 H -6.9406167 194.4073 Z m -338.33989,8.113819 c -0.26043,-0.165312 -0.31913,-1.998795 -0.26458,-8.264155 l 0.0701,-8.051748 h 28.31041 28.310418 l 0.07014,7.905592 c 0.04979,5.612421 -0.01717,8.010763 -0.230836,8.268229 -0.251449,0.302975 -4.877464,0.361977 -28.115972,0.35859 -15.29825,-0.0026 -27.9656,-0.09964 -28.14968,-0.216508 z m 72.486557,-0.09694 c -0.232397,-0.23241 -0.3175,-2.38125 -0.3175,-8.016875 0,-5.635625 0.0851,-7.784465 0.3175,-8.016875 0.242943,-0.242941 6.888858,-0.3175 28.301108,-0.3175 27.787569,0 27.985607,0.0037 28.269097,0.533453 0.190595,0.356129 0.259649,3.041703 0.207746,8.079713 -0.06554,6.361404 -0.140058,7.585605 -0.474618,7.796875 -0.632058,0.399124 -55.903143,0.341392 -56.303333,-0.05879 z m 72.7074997,0.05879 c -0.33456037,-0.21127 -0.40908291,-1.435471 -0.47461755,-7.796875 -0.0519033,-5.03801 0.017145,-7.723584 0.20774554,-8.079713 C 1.2780851,-56.27847 1.4761231,-56.2822 29.263697,-56.2822 c 21.412253,0 28.058163,0.07456 28.301103,0.3175 0.23241,0.23241 0.3175,2.38125 0.3175,8.016875 0,5.635625 -0.08509,7.784465 -0.3175,8.016875 -0.400182,0.400183 -55.6712755,0.457915 -56.3033333,0.05879 z m 72.5242493,-0.103929 c -0.213677,-0.257466 -0.280643,-2.655808 -0.230849,-8.268229 l 0.07014,-7.905592 h 28.310423 28.31041 l 0.0701,8.051748 c 0.0546,6.26536 -0.004,8.098843 -0.26458,8.264155 -0.18407,0.116866 -12.85142,0.214286 -28.14969,0.216508 -23.238483,0.0034 -27.864511,-0.05562 -28.115945,-0.35859 z M 226.68647,-152.59054 v -23.8125 H -6.9406167 -240.5677 v 23.8125 23.8125 H -6.9406167 226.68647 Z m -451.52239,7.87214 c -0.0713,-0.18569 -0.098,-3.84859 -0.0593,-8.13977 l 0.0702,-7.80216 h 8.20208 8.20209 v 8.06979 8.0698 l -8.14277,0.07 c -6.40996,0.0551 -8.17035,-0.002 -8.27233,-0.26763 z m 32.27917,0 c -0.0713,-0.18569 -0.0979,-3.84859 -0.0593,-8.13977 l 0.0703,-7.80216 8.12993,-0.07 8.12994,-0.07 0.14633,0.59913 c 0.0805,0.32952 0.11294,3.99241 0.0722,8.13975 l -0.0742,7.54063 -8.14277,0.07 c -6.40996,0.0551 -8.17034,-0.002 -8.27232,-0.26763 z m 32.27769,-0.004 c -0.0704,-0.18358 -0.0965,-3.84475 -0.0578,-8.13594 l 0.0702,-7.80215 8.05174,-0.0701 c 6.26538,-0.0545 8.09886,0.004 8.26417,0.26458 0.24524,0.38634 0.3013,15.02993 0.0599,15.65887 -0.14158,0.36894 -1.11411,0.41852 -8.21039,0.41852 -6.23503,0 -8.07866,-0.0752 -8.17787,-0.33379 z m 32.27925,2.1e-4 c -0.0705,-0.1837 -0.0966,-3.84496 -0.0579,-8.13615 l 0.0702,-7.80215 H 41.478133 210.94376 v 8.06979 8.0698 l -169.407709,0.0663 c -136.212268,0.0533 -169.432811,7.9e-4 -169.535861,-0.26764 z m -96.78108,450.74261 c -0.097,-0.097 -0.17639,-3.72422 -0.17639,-8.06048 0,-7.52398 0.0234,-7.89659 0.51177,-8.15798 0.34984,-0.18721 28.38966,-0.27389 88.61652,-0.27389 79.742443,0 88.144204,0.0394 88.520516,0.41576 0.358174,0.3582 0.415774,1.4419 0.415774,7.82262 0,4.59973 -0.103801,7.60077 -0.273891,7.91859 -0.269955,0.50442 -1.548257,0.51178 -88.855909,0.51178 -48.7201,0 -88.66138,-0.0794 -88.75839,-0.1764 z m 258.066465,-0.33499 c -0.170365,-0.31829 -0.274108,-3.31562 -0.274108,-7.91898 0,-6.38072 0.0576,-7.46442 0.415766,-7.82262 0.376317,-0.37631 8.783928,-0.41576 88.584857,-0.41576 70.11797,0 88.26156,0.0677 88.62076,0.33073 0.41129,0.30115 0.4454,1.04079 0.38131,8.26823 l -0.0704,7.9375 -88.69204,0.0665 c -87.475006,0.0656 -88.69582,0.0595 -88.966145,-0.44564 z"
         style="fill:#fedac5;stroke-width:0.26458335" />
      <path
         id="path4647"
         d="m -9.8510333,322.04071 c -8.0142267,-0.91763 -15.1894617,-6.00364 -18.8850377,-13.3862 -0.525333,-1.04945 -1.273447,-2.95445 -1.662475,-4.23334 -0.626277,-2.0588 -0.70943,-2.77997 -0.725728,-6.29398 -0.01545,-3.33378 0.07796,-4.32856 0.58393,-6.21771 1.81764,-6.78656 6.621941,-12.64171 12.949544,-15.78203 l 2.4481,-1.21494 v -8.40655 c 0,-7.42159 -0.04903,-8.42534 -0.418515,-8.56713 -0.230182,-0.0883 -54.629008,-0.1606 -120.886275,-0.1606 -109.60677,0 -120.48224,-0.0377 -120.62836,-0.41852 -0.0883,-0.23019 -0.1606,-101.48433 -0.1606,-225.009242 0,-203.820588 0.0385,-224.629158 0.41577,-225.006478 0.37739,-0.37739 23.44713,-0.41578 249.8800633,-0.41578 226.4329267,0 249.5026667,0.0384 249.8800667,0.41578 0.37732,0.37732 0.41577,21.18589 0.41577,225.006478 0,123.524912 -0.0723,224.779052 -0.16061,225.009242 -0.14612,0.38079 -11.02158,0.41852 -120.62835,0.41852 -66.257278,0 -120.6560959,0.0722 -120.8862781,0.1606 -0.36948,0.14179 -0.4185152,1.14554 -0.4185152,8.56713 v 8.40655 l 2.4481102,1.21494 c 6.3275901,3.14032 11.1318941,8.99547 12.9495281,15.78203 0.505963,1.88915 0.599387,2.88393 0.583936,6.21771 -0.0164,3.51401 -0.09946,4.23518 -0.725726,6.29398 -1.607264,5.28376 -4.510458,9.56377 -8.6598387,12.76673 -3.3835446,2.61181 -7.83384953,4.38579 -12.2079782,4.86638 -2.8190772,0.30972 -2.6737337,0.31009 -5.5005314,-0.0135 z m 5.81338,-16.83296 c 1.591302,-0.56795 3.51627545,-2.42305 4.26857847,-4.11358 0.4507812,-1.01298 0.61460062,-1.87153 0.61661145,-3.23157 0.00463,-3.12335 -1.5087891,-5.56376 -4.30052162,-6.9347 -1.2394248,-0.60865 -1.8515277,-0.73821 -3.4876317,-0.73821 -3.3098763,0 -5.8809603,1.6393 -7.2409283,4.61676 -0.778447,1.70429 -0.75582,4.45527 0.05125,6.23115 1.797815,3.95595 5.9203514,5.65934 10.0926417,4.17015 z M 226.68647,64.632387 V -112.10929 H -6.9406167 -240.5677 V 64.632387 241.37406 H -6.9406167 226.68647 Z M -224.63978,225.44614 c -0.2446,-0.2446 -0.3175,-11.26643 -0.3175,-48.00023 0,-26.2255 0.0723,-47.87107 0.1606,-48.10125 0.14626,-0.38116 19.59034,-0.41852 217.8560633,-0.41852 198.2657367,0 217.7098067,0.0374 217.8560667,0.41852 0.0883,0.23018 0.1606,21.87575 0.1606,48.10125 0,36.7338 -0.0729,47.75563 -0.3175,48.00023 -0.46315,0.46316 -434.93518,0.46316 -435.39833,0 z m 418.98199,-48.16739 0.0672,-31.94844 H -6.939553 -208.28853 v 31.83818 c 0,17.51103 0.0795,31.91767 0.17656,32.01477 0.0971,0.0971 90.67391,0.14671 201.2817693,0.11025 l 201.1052107,-0.0663 z m -241.471149,7.90551 c -0.213558,-0.25734 -0.280632,-2.62139 -0.230833,-8.13594 l 0.0702,-7.77322 h 8.069792 8.069791 l 0.07016,7.9194 c 0.05457,6.1595 -0.0042,7.96663 -0.264583,8.13189 -0.184108,0.11687 -3.743209,0.21431 -7.909116,0.21654 -6.096754,0.003 -7.633099,-0.0667 -7.875405,-0.35867 z m 32.312957,0.14213 c -0.260353,-0.16526 -0.319148,-1.97239 -0.264583,-8.13189 l 0.07016,-7.9194 h 8.0697913 8.0697917 l 0.070157,7.9194 c 0.054565,6.1595 -0.00423,7.96663 -0.26458332,8.13189 -0.18410766,0.11687 -3.72802148,0.21249 -7.87536528,0.21249 -4.1473434,0 -7.6912574,-0.0956 -7.8753654,-0.21249 z m 32.279156,0 c -0.26035,-0.16526 -0.31914,-1.97239 -0.264583,-8.13189 l 0.07017,-7.9194 h 8.069792 8.069792 l 0.07019,7.77322 c 0.04979,5.51455 -0.0172,7.8786 -0.230823,8.13594 -0.242305,0.29196 -1.778661,0.36192 -7.875402,0.35867 -4.165918,-0.003 -7.725013,-0.0997 -7.909137,-0.21654 z M -176.24561,104.75092 c -0.21355,-0.25733 -0.28063,-2.62138 -0.23083,-8.135937 l 0.0702,-7.77322 8.13594,-0.06998 8.13593,-0.06996 v 8.045318 c 0,7.092189 -0.0496,8.064319 -0.41851,8.205899 -0.23018,0.0883 -3.78748,0.1606 -7.9051,0.1606 -6.01866,0 -7.54562,-0.0711 -7.78763,-0.36272 z m 54.79929,0.0817 c -1.56559,-0.30853 -3.66632,-1.50405 -4.60475,-2.62051 -0.43222,-0.51422 -4.67613,-8.706298 -9.43092,-18.204655 l -8.64508,-17.269699 -0.0739,-20.926187 c -0.0547,-15.493842 0.005,-21.021464 0.23083,-21.293297 0.24673,-0.297286 1.72888,-0.367136 7.79128,-0.367136 4.11763,0 7.67492,0.07226 7.9051,0.160602 0.37626,0.144383 0.41852,2.079678 0.41852,19.166523 v 19.005948 l 3.82036,7.6631 c 2.10121,4.214734 3.94368,7.739328 4.09441,7.832488 0.16141,0.09975 1.85346,-2.988046 4.11713,-7.513294 l 3.8431,-7.68268 V 43.604811 24.4258 l 0.59531,-0.145362 c 0.32742,-0.07996 3.9886,-0.111998 8.13594,-0.0712 l 7.540625,0.07419 0.132292,19.314584 0.132291,19.314584 3.8343,7.606771 c 2.108864,4.183725 3.92417,7.606772 4.034014,7.606772 0.109842,0 1.926516,-3.452019 4.037055,-7.671145 l 3.83734,-7.67117 V 43.784992 c 0,-14.424104 0.07645,-19.075294 0.3175,-19.316356 0.368133,-0.368141 15.189681,-0.458894 15.760607,-0.09652 0.267227,0.169624 0.321006,4.529931 0.264583,21.451782 l -0.07082,21.238899 -8.713886,17.32497 c -8.021463,15.948293 -8.815758,17.416573 -9.995897,18.477603 -2.511954,2.25845 -5.998372,2.72256 -9.074883,1.20801 -0.938228,-0.46191 -2.064139,-1.27418 -2.517122,-1.81595 -0.45077,-0.53914 -2.838177,-4.998609 -5.305348,-9.909938 -2.467171,-4.911328 -4.573141,-8.929423 -4.679931,-8.929105 -0.10681,0 -2.19514,3.995975 -4.64076,8.879178 -2.746,5.482987 -4.81192,9.282985 -5.40184,9.935925 -1.21728,1.34739 -2.74109,2.22065 -4.51825,2.58929 -1.55886,0.32338 -1.57798,0.32343 -3.16925,0.01 z m 96.849319,0.008 c -1.529252,-0.30949 -2.72162,-0.90895 -4.022153,-2.02216 -0.961615,-0.82312 -2.179119,-3.094355 -9.883566,-18.437755 l -8.786855,-17.499039 -0.07234,-20.999795 c -0.05335,-15.486963 0.0073,-21.095706 0.230836,-21.365105 0.244769,-0.294931 1.745387,-0.36531 7.789762,-0.36531 4.117623,0 7.67492,0.07226 7.905102,0.160602 0.376261,0.144383 0.418515,2.080974 0.418515,19.181128 v 19.020526 l 3.900519,7.806373 c 2.145284,4.2935 3.961927,7.806373 4.036981,7.806373 0.07505,0 1.891697,-3.512873 4.036981,-7.806373 L -15.1427,62.513392 V 43.492866 c 0,-17.100154 0.04225,-19.036745 0.418515,-19.181128 0.546201,-0.209603 15.02093585,-0.209603 15.5671364,0 0.3762613,0.144383 0.4185153,2.080974 0.4185153,19.181128 v 19.020526 l 3.9005139,7.806373 c 2.1452946,4.2935 3.9619238,7.806373 4.0369861,7.806373 0.075062,0 1.8916913,-3.512873 4.0369863,-7.806373 l 3.900514,-7.806373 V 43.492866 c 0,-17.100154 0.04225,-19.036745 0.418518,-19.181128 0.230187,-0.08834 3.787484,-0.160602 7.905088,-0.160602 6.04438,0 7.544991,0.07038 7.789783,0.36531 0.223573,0.269399 0.284163,5.878142 0.230823,21.365105 l -0.07234,20.999795 -8.786866,17.499013 C 15.245648,103.0523 15.29322,102.97292 12.762534,104.17381 9.60706,105.67117 5.4824175,104.90859 3.2255772,102.41052 2.6965931,101.825 0.45461979,97.677338 -2.178032,92.413797 c -2.4747326,-4.947788 -4.6178946,-8.995993 -4.7625847,-8.995993 -0.14469,0 -2.2770465,4.026588 -4.7385733,8.947997 -2.461528,4.921409 -4.803482,9.337779 -5.204341,9.814159 -1.752238,2.08243 -5.012622,3.20691 -7.71347,2.66031 z m 96.259171,-0.13904 c -1.770724,-0.4858 -2.881921,-1.15776 -4.031006,-2.43763 -0.534855,-0.59577 -4.291118,-7.762324 -9.484413,-18.095282 L 49.547925,67.05949 49.477096,45.822258 c -0.05641,-16.920502 -0.0026,-21.280491 0.264583,-21.450116 0.570945,-0.362373 15.39248,-0.271621 15.760621,0.09652 0.241062,0.241062 0.3175,4.892252 0.3175,19.316357 v 18.99883 l 3.837331,7.671171 c 2.110555,4.219125 3.927211,7.671144 4.037066,7.671144 0.109828,0 1.925135,-3.423047 4.034023,-7.606771 l 3.834288,-7.606771 0.132292,-19.314584 0.132292,-19.314584 7.540625,-0.07419 c 4.147343,-0.0408 7.808515,-0.0087 8.135937,0.0712 l 0.595313,0.145362 v 19.179012 19.179011 l 3.843103,7.68268 c 2.26367,4.525248 3.95573,7.613042 4.11712,7.513294 0.15074,-0.09316 1.99322,-3.617754 4.0944,-7.832487 l 3.82038,-7.663101 V 43.478287 c 0,-17.086845 0.0423,-19.02214 0.41851,-19.166523 0.23019,-0.08834 3.78749,-0.160602 7.90509,-0.160602 6.06243,0 7.54457,0.06985 7.79129,0.367136 0.22559,0.271833 0.28552,5.799455 0.23083,21.293297 l -0.0739,20.926188 -8.64507,17.269698 c -4.7548,9.498357 -8.99872,17.690439 -9.43094,18.204659 -0.4322,0.51422 -1.38145,1.25912 -2.10942,1.65534 -3.5397,1.92653 -7.54706,1.28352 -10.182835,-1.63396 -0.589888,-0.65294 -2.655834,-4.452941 -5.401813,-9.935928 -2.445623,-4.883203 -4.533979,-8.878835 -4.640765,-8.879179 -0.106786,0 -2.212763,4.017777 -4.67995,8.929106 -2.46716,4.911328 -4.854575,9.370801 -5.305345,9.909941 -1.002824,1.19938 -3.637651,2.50807 -5.430944,2.69743 -0.789146,0.0833 -1.901375,-0.0191 -2.756588,-0.25363 z m 74.92169,0.23717 c -0.25442,-0.10266 -0.33073,-1.99133 -0.33073,-8.185017 v -8.051562 l 8.13594,0.06996 8.13594,0.06998 0.0702,7.773221 c 0.0498,5.514548 -0.0172,7.878598 -0.23082,8.135938 -0.24294,0.29271 -1.76313,0.35869 -7.8754,0.34184 -4.16592,-0.0114 -7.72322,-0.081 -7.90512,-0.15436 z M -224.79668,-0.07988296 c -0.0883,-0.23018751 -0.1606,-21.87575104 -0.1606,-48.10125204 0,-36.73379 0.0729,-47.755637 0.3175,-48.000233 0.46315,-0.463153 434.93518,-0.463153 435.39833,0 0.24461,0.244596 0.3175,11.26644 0.3175,48.000233 0,26.225501 -0.0723,47.87106453 -0.1606,48.10125204 -0.14626,0.38115877 -19.59033,0.41851793 -217.8560667,0.41851793 -198.2657233,0 -217.7098033,-0.0373592 -217.8560633,-0.41851793 z M 194.34221,-48.013971 194.27501,-79.962409 H -6.9406167 -208.15624 l -0.0672,31.948438 -0.0672,31.948439 H -6.9406167 194.40942 Z m -338.424,7.960731 c -0.0977,-0.09766 -0.17758,-3.64625 -0.17758,-7.885774 0,-5.642478 0.0851,-7.793276 0.3175,-8.025686 0.50077,-0.500777 55.858776,-0.456274 56.274992,0.04522 0.213558,0.257334 0.280633,2.621386 0.230833,8.135938 l -0.0702,7.77322 -28.198975,0.06734 c -15.50944,0.03704 -28.2789,-0.01244 -28.37657,-0.110252 z m 72.64516,-7.95954 0.06997,-8.137129 27.648958,-0.07263 c 15.206927,-0.03995 27.91859,-0.0074 28.248142,0.07215 l 0.599183,0.14478 -0.07002,7.99764 -0.07002,7.99764 -28.248097,0.06734 -28.248097,0.06736 z m 72.6099031,7.958349 c -0.097015,-0.097 -0.17638977,-3.726153 -0.17638977,-8.064738 v -7.888367 l 0.59531247,-0.143828 c 0.3274219,-0.07911 13.0373442,-0.111125 28.2442712,-0.07117 l 27.648958,0.07263 0.06998,8.135938 0.06996,8.135938 H 29.487508 c -15.475823,0 -28.2172228,-0.07937 -28.3142349,-0.176398 z m 72.4970319,0 c -0.09768,-0.09766 -0.177588,-3.646249 -0.177588,-7.885774 0,-5.642478 0.08509,-7.793276 0.3175,-8.025686 0.500777,-0.500777 55.858783,-0.456274 56.274993,0.04522 0.21355,0.257334 0.28062,2.621386 0.23083,8.135938 l -0.0702,7.773221 -28.19897,0.06734 c -15.509454,0.03704 -28.278907,-0.01244 -28.376565,-0.110252 z m 152.951415,-112.602249 -0.0675,-23.87865 H -6.9406167 -240.43541 l -0.0676,23.87865 -0.0676,23.87864 H -6.9406167 226.68927 Z m -451.4184,7.84971 c -0.0883,-0.23018 -0.1606,-3.77824 -0.1606,-7.88458 0,-5.45417 0.0855,-7.55163 0.3175,-7.78357 0.23248,-0.23248 2.39094,-0.3175 8.06048,-0.3175 7.38447,0 7.75566,0.0237 8.01688,0.51177 0.16949,0.31671 0.27389,3.24794 0.27389,7.69031 0,4.44238 -0.1044,7.37361 -0.27389,7.69031 -0.26141,0.48844 -0.63419,0.51178 -8.17378,0.51178 -6.95959,0 -7.919,-0.0498 -8.06048,-0.41852 z m 32.28063,0.004 c -0.0891,-0.2323 -0.16207,-3.79132 -0.16207,-7.90894 0,-6.01865 0.0711,-7.54562 0.36272,-7.78762 0.25733,-0.21356 2.62139,-0.28064 8.13594,-0.23084 l 7.77322,0.0702 v 8.06979 8.0698 l -7.97387,0.07 c -7.09869,0.0623 -7.99165,0.0236 -8.13594,-0.35237 z m 32.27917,0 c -0.0891,-0.2323 -0.16207,-3.79132 -0.16207,-7.90894 0,-6.01865 0.0711,-7.54562 0.36272,-7.78762 0.25733,-0.21356 2.62138,-0.28064 8.13594,-0.23084 l 7.77322,0.0702 v 8.06979 8.0698 l -7.97387,0.07 c -7.09869,0.0623 -7.99166,0.0236 -8.13594,-0.35237 z m 32.29349,0.23829 c -0.22042,-0.22042 -0.23542,-15.23694 -0.0158,-15.80927 0.14622,-0.38102 15.30934,-0.41851 169.280425,-0.41851 131.184865,0 169.191045,0.0712 169.437315,0.3175 0.23193,0.23194 0.3175,2.3294 0.3175,7.78357 0,4.10634 -0.0723,7.6544 -0.1606,7.88458 -0.14621,0.38103 -15.32178,0.41852 -169.421521,0.41852 -93.093516,0 -169.340309,-0.0794 -169.437319,-0.17639 z m -96.696,450.44472 c -0.36682,-0.36682 -0.46045,-15.18833 -0.0996,-15.75674 0.16778,-0.26424 18.10861,-0.31768 88.8298,-0.26458 l 88.619565,0.0665 v 8.06979 8.0698 l -88.515965,0.0665 c -68.62737,0.0516 -88.58739,-0.005 -88.83385,-0.25135 z m 258.035323,-0.0167 c -0.07043,-0.1836 -0.09647,-3.84477 -0.05784,-8.13594 l 0.07025,-7.80217 88.619567,-0.0665 c 70.72119,-0.0531 88.66201,0 88.82981,0.26458 0.36057,0.56791 0.26728,15.38989 -0.0992,15.75634 -0.47736,0.47736 -177.179419,0.46114 -177.362616,-0.0164 z"
         style="fill:#fecfb3;stroke-width:0.26458335" />
      <path
         id="path4645"
         d="m -11.306242,321.70005 c -9.558906,-1.85758 -16.975428,-8.92987 -19.205175,-18.31374 -0.687676,-2.89409 -0.748041,-7.51702 -0.135152,-10.35037 0.610965,-2.82445 1.864495,-5.86168 3.381462,-8.19311 2.459583,-3.78008 6.808039,-7.46411 10.738231,-9.09741 l 1.384176,-0.57526 v -8.69566 -8.69569 l -120.84844,-0.0664 -120.84843,-0.0664 V 32.485511 -192.67491 H -6.9406167 242.95834 V 32.485511 257.64594 l -120.84844,0.0664 -120.8484333,0.0664 v 8.69569 8.69566 l 1.3841756,0.57526 c 5.4981396,2.28492 10.7359367,7.67474 12.8923707,13.26658 1.196049,3.10145 1.641263,5.53114 1.646052,8.98289 0.01508,10.94275 -7.287445,20.42309 -17.94034258,23.29046 -2.67896972,0.72109 -7.91440982,0.92688 -10.54996442,0.4147 z m 7.088672,-16.29894 c 4.09167279,-1.53088 6.2035479,-5.99662 4.79322873,-10.13568 -0.56158606,-1.64817 -2.54619653,-3.81252 -4.20361803,-4.58433 -1.0206407,-0.47527 -1.7878795,-0.61855 -3.3126574,-0.61855 -1.5247778,0 -2.2920166,0.14328 -3.3126573,0.61855 -1.657422,0.77181 -3.642032,2.93616 -4.203618,4.58433 -2.167221,6.36045 4.003569,12.46878 10.239322,10.13568 z M 226.88509,64.780422 c 0.053,-141.206384 -1.6e-4,-176.768172 -0.26458,-176.936062 -0.38182,-0.24244 -466.40282,-0.29995 -467.03428,-0.0576 -0.38105,0.14622 -0.41851,15.974678 -0.41851,176.829862 0,97.168098 0.0794,176.748708 0.17653,176.845808 0.0971,0.0971 105.31859,0.14672 233.8255254,0.11026 l 233.6489846,-0.0663 z m -451.51236,112.498328 0.0669,-48.22032 H -6.9406167 210.67918 l 0.0669,48.22032 0.0669,48.22031 H -6.9406167 -224.69412 Z m 419.16686,-0.0661 V 145.19801 H -6.9406167 -208.42082 l -0.0681,31.75001 c -0.0374,17.4625 -0.0114,31.8989 0.0579,32.08091 0.10071,0.26448 40.54902,0.31758 201.5482927,0.26458 l 201.4222973,-0.0663 z m -241.800857,7.65127 c -0.284361,-0.74102 -0.180679,-14.66 0.113292,-15.20928 0.261046,-0.48778 0.630907,-0.51178 7.884583,-0.51178 5.566651,0 7.695965,0.0853 7.928192,0.3175 0.231672,0.23167 0.3175,2.29999 0.3175,7.65127 0,4.03357 -0.07227,7.52211 -0.160599,7.75229 -0.14147,0.36867 -1.099222,0.41852 -8.041484,0.41852 -6.942262,0 -7.900014,-0.0498 -8.041484,-0.41852 z m 32.279166,0 c -0.08833,-0.23018 -0.160599,-3.71872 -0.160599,-7.75229 0,-5.35128 0.08583,-7.4196 0.3175,-7.65127 0.453165,-0.45315 15.31600156,-0.45315 15.76916667,0 0.23167183,0.23167 0.31750003,2.29999 0.31750003,7.65127 0,4.03357 -0.072268,7.52211 -0.1605995,7.75229 -0.14147003,0.36867 -1.09922201,0.41852 -8.0414839,0.41852 -6.9422623,0 -7.9000143,-0.0498 -8.0414843,-0.41852 z m 32.27917,0 c -0.08835,-0.23018 -0.160602,-3.71872 -0.160602,-7.75229 0,-5.35128 0.08583,-7.4196 0.3175,-7.65127 0.232224,-0.23223 2.361538,-0.3175 7.928186,-0.3175 7.253685,0 7.623546,0.0241 7.884584,0.51178 0.293978,0.54928 0.397668,14.46826 0.113294,15.20928 -0.141472,0.36867 -1.099211,0.41852 -8.041481,0.41852 -6.94227,0 -7.900009,-0.0498 -8.041481,-0.41852 z M -176.15261,104.51904 c -0.0713,-0.18584 -0.098,-3.78926 -0.0594,-8.007588 l 0.0703,-7.669689 h 7.9375 7.9375 v 7.9375 7.937497 l -7.87814,0.0701 c -6.19887,0.0552 -7.90578,-0.003 -8.00781,-0.26781 z m 53.82251,-0.0191 c -1.4405,-0.53896 -2.74839,-1.41626 -3.66111,-2.45578 -0.45036,-0.51295 -4.65564,-8.607269 -9.34506,-17.987384 l -8.52622,-17.054883 -0.0708,-21.297002 -0.0708,-21.297001 8.00826,0.07004 8.00826,0.07003 0.13229,19.314584 0.13229,19.314584 3.76033,7.452704 c 2.06818,4.098978 3.88089,7.527184 4.02825,7.61828 0.15331,0.09475 1.91198,-3.120998 4.11103,-7.517077 l 3.8431,-7.68268 0.004,-18.985601 c 0.002,-10.442099 0.0997,-19.136255 0.21653,-19.320378 0.16526,-0.26035 1.9724,-0.319141 8.13189,-0.264584 l 7.919405,0.07017 0.132292,19.314584 0.132291,19.314584 3.760327,7.452704 c 2.06818,4.098978 3.882322,7.528084 4.031428,7.620238 0.157644,0.09742 1.933477,-3.166321 4.243318,-7.798673 l 3.972219,-7.966234 V 43.44659 24.407967 l 8.003646,0.07001 8.003646,0.07003 v 21.124678 21.124678 l -8.73125,17.330235 c -8.255786,16.386522 -8.80795,17.400882 -10.139723,18.627232 -3.222037,2.96698 -8.297772,2.72729 -11.241331,-0.53089 -0.616413,-0.68228 -2.628108,-4.384707 -5.47407,-10.074731 -2.474728,-4.947787 -4.588468,-8.994828 -4.697198,-8.993373 -0.10872,0.0026 -2.25583,4.099402 -4.77135,9.106589 -4.88941,9.732515 -5.50528,10.652125 -7.91475,11.818545 -1.50439,0.72827 -4.53273,0.94213 -5.93127,0.41889 z m 97.133233,0.11737 c -1.451395,-0.4776 -2.862633,-1.37107 -3.794122,-2.40213 -0.667782,-0.73914 -3.738081,-6.605372 -9.639244,-18.41714 l -8.659342,-17.332511 -0.07762,-20.429617 c -0.04269,-11.236299 -0.01066,-20.697508 0.07119,-21.02493 l 0.148804,-0.595313 h 7.904152 c 6.963479,0 7.923266,0.04979 8.064752,0.418518 0.08833,0.230188 0.160599,8.863013 0.160599,19.184065 v 18.765521 l 3.837339,7.67117 c 2.110539,4.219126 3.946031,7.671145 4.07887,7.671145 0.132839,0 1.948146,-3.303985 4.034015,-7.342188 l 3.792484,-7.342188 0.132292,-19.446876 0.132292,-19.446875 H -6.9406147 1.129177 L 1.2614687,43.994836 1.3937603,63.441712 5.1862449,70.7839 c 2.0858692,4.038203 3.9011754,7.342188 4.0340227,7.342188 0.1328209,0 1.9683144,-3.452019 4.0788694,-7.671145 l 3.837332,-7.67117 V 44.018302 c 0,-10.321052 0.07226,-18.953877 0.160602,-19.184065 0.141472,-0.368723 1.101275,-0.418518 8.064738,-0.418518 h 7.904162 l 0.148802,0.595313 c 0.08184,0.327422 0.113877,9.788631 0.0712,21.02493 l -0.07763,20.429617 -8.659337,17.332511 c -5.907881,11.825182 -8.971094,17.67761 -9.640517,18.41855 -0.539617,0.59732 -1.584007,1.40253 -2.320845,1.78937 -1.14509,0.60114 -1.666452,0.70332 -3.5886763,0.70332 -1.9222244,0 -2.4435859,-0.10218 -3.5886761,-0.70332 -2.2895189,-1.202 -3.0005496,-2.28446 -7.7883226,-11.856797 -2.4747326,-4.947787 -4.6178946,-8.995992 -4.7625847,-8.995992 -0.14469,0 -2.287852,4.048205 -4.7625843,8.995992 -4.796769,9.590327 -5.511261,10.676127 -7.788334,11.835657 -1.430305,0.72837 -4.410093,1.05871 -5.705332,0.63249 z m 96.260629,-0.17042 c -0.745357,-0.23889 -1.798637,-0.91284 -2.645833,-1.69299 -1.33051,-1.2252 -1.885077,-2.24401 -10.138754,-18.626348 L 49.547925,66.797367 V 45.672689 24.548011 l 8.003646,-0.07003 8.003646,-0.07001 V 43.44659 62.485214 l 3.972216,7.966234 c 2.309839,4.632352 4.085669,7.896093 4.243334,7.798673 0.149093,-0.09215 1.963235,-3.52126 4.031404,-7.620238 l 3.760337,-7.452704 0.132292,-19.314584 0.132292,-19.314584 7.919402,-0.07017 c 6.1595,-0.05456 7.966631,0.0042 8.13189,0.264584 0.116866,0.184123 0.214312,8.878279 0.216535,19.320378 l 0.004,18.985601 3.843101,7.68268 c 2.19905,4.396079 3.95771,7.611825 4.11101,7.517077 0.14738,-0.0911 1.96009,-3.519302 4.02826,-7.61828 l 3.76042,-7.452704 0.13229,-19.314584 0.13229,-19.314584 8.00825,-0.07003 8.00827,-0.07004 -0.0708,21.297001 -0.0708,21.297002 -8.53591,17.074145 c -5.40131,10.804049 -8.86963,17.443533 -9.44467,18.080043 -0.49985,0.55324 -1.54025,1.35572 -2.31201,1.78326 -1.24386,0.68908 -1.65867,0.77737 -3.6522,0.77737 -1.81579,0 -2.48822,-0.11784 -3.49115,-0.61185 -2.44915,-1.20636 -3.046758,-2.09743 -7.942476,-11.842482 -2.515526,-5.007187 -4.66262,-9.10516 -4.771337,-9.106589 -0.108744,-0.0026 -2.222474,4.045586 -4.697201,8.993373 -4.796764,9.590328 -5.511271,10.676128 -7.788328,11.835658 -1.66833,0.84958 -4.437724,1.05326 -6.282214,0.46207 z m 75.310708,0.0721 c -0.0713,-0.18584 -0.098,-3.78926 -0.0593,-8.007588 l 0.0703,-7.669689 h 7.9375 7.9375 v 7.9375 7.937497 l -7.87815,0.0701 c -6.19884,0.0552 -7.90578,-0.003 -8.0078,-0.26781 z M -224.5704,0.00806455 c -0.0692,-0.18198043 -0.0952,-21.88120155 -0.0579,-48.22047255 l 0.0679,-47.889585 H -6.9406167 210.67918 V -47.947825 0.2063433 L -6.8827126,0.27264789 C -180.79375,0.32564393 -224.46984,0.27256851 -224.5704,0.00806455 Z M 194.53959,-47.947825 V -79.962409 H -6.9406167 -208.42082 l -0.0681,31.750001 c -0.0374,17.4625 -0.0114,31.898908 0.0579,32.080915 0.10071,0.264478 40.54902,0.31758 201.5482927,0.264583 L 194.53957,-15.93324 Z m -338.35678,7.894611 c -0.0977,-0.09768 -0.17759,-3.729619 -0.17759,-8.071009 v -7.893394 h 28.182 28.182007 l -0.07003,8.003646 -0.07003,8.003646 -27.934387,0.06734 c -15.36392,0.03704 -28.01431,-0.01244 -28.11198,-0.110226 z m 72.438067,-0.158776 c -0.07048,-0.183674 -0.09651,-3.785315 -0.05784,-8.003646 l 0.07031,-7.669689 28.029469,-0.06736 c 22.248751,-0.05347 28.072931,0 28.240217,0.264583 0.360775,0.568246 0.268084,15.125833 -0.09865,15.492572 -0.475821,0.475827 -56.000843,0.459555 -56.183506,-0.0164 z m 72.6947075,0.01773 c -0.367829,-0.367824 -0.46163173,-14.923929 -0.099846,-15.493762 0.1672855,-0.263473 5.9914711,-0.318056 28.2402305,-0.264584 l 28.029456,0.06736 v 7.9375 7.937501 l -27.92558,0.06734 c -21.5007829,0.05186 -27.9988834,-0.0061 -28.2442607,-0.251354 z m 72.6193035,0.141129 C 73.837208,-40.150891 73.7573,-43.78283 73.7573,-48.12422 v -7.893394 h 28.18201 28.18199 l -0.07,8.003646 -0.07,8.003646 -27.93439,0.06734 c -15.363907,0.03704 -28.014297,-0.01244 -28.111982,-0.110226 z M 226.81876,-152.59054 v -23.94479 H -6.9406167 -240.69999 l -0.0683,23.68021 c -0.0376,13.02411 -0.0115,23.8291 0.0579,24.01109 0.10087,0.2645 47.0051,0.31758 233.8276521,0.26458 l 233.7014779,-0.0663 z m -451.18073,8.02686 c -0.25424,-0.10259 -0.33073,-1.96488 -0.33073,-8.05279 v -7.91933 l 8.00365,0.07 8.00364,0.07 0.0702,7.78708 c 0.0546,6.0536 -0.004,7.83439 -0.26458,7.9996 -0.35773,0.22706 -14.92611,0.26978 -15.4822,0.0454 z m 32.27917,0 c -0.25425,-0.10259 -0.33073,-1.96488 -0.33073,-8.05279 v -7.91933 l 8.00364,0.07 8.00365,0.07 0.0702,7.78708 c 0.0546,6.0536 -0.004,7.83439 -0.26459,7.9996 -0.35772,0.22706 -14.9261,0.26978 -15.48219,0.0454 z m 32.27916,0 c -0.25424,-0.10259 -0.33073,-1.96488 -0.33073,-8.05279 v -7.91933 l 8.00365,0.07 8.00365,0.07 0.0703,7.64085 c 0.0498,5.41668 -0.0174,7.74646 -0.23084,8.00365 -0.24279,0.29254 -1.74218,0.35875 -7.74317,0.34191 -4.09315,-0.0115 -7.59092,-0.0809 -7.77282,-0.15434 z m 32.27917,0 c -0.25424,-0.10259 -0.33073,-1.96411 -0.33073,-8.0489 v -7.91546 H 41.478133 210.81147 v 7.9092 c 0,6.96807 -0.0498,7.9283 -0.41852,8.06979 -0.50096,0.19223 -337.44091,0.17764 -337.91742,-0.0146 z m -97.10597,442.49283 0.07,-8.00405 88.34325,-0.0665 c 65.656843,-0.0495 88.436278,0.0106 88.705504,0.2341 0.294463,0.2444 0.349137,1.74221 0.292166,8.00405 l -0.07008,7.70339 -88.70544,0.0666 -88.70545,0.0665 z M 33.452448,305.756 c -0.09702,-0.097 -0.176398,-3.59476 -0.176398,-7.7728 0,-6.06623 0.07218,-7.65633 0.358325,-7.89379 0.263975,-0.2191 23.613666,-0.27988 88.701565,-0.23085 l 88.34324,0.0665 0.07,8.00365 0.07,8.00365 h -88.5952 c -48.727361,0 -88.674576,-0.0794 -88.771572,-0.1764 z"
         style="fill:#feb58c;stroke-width:0.26458335" />
      <path
         id="path4643"
         d="m -9.8510333,321.78353 c -4.3061017,-0.47699 -9.4274697,-2.74415 -12.8996867,-5.71058 -3.226072,-2.75611 -6.015378,-7.1492 -7.370797,-11.60881 -0.640368,-2.10695 -0.721796,-2.80601 -0.738174,-6.33695 -0.01532,-3.30145 0.07925,-4.32755 0.562414,-6.10275 1.92319,-7.06602 6.359248,-12.41843 13.111658,-15.82018 l 2.175211,-1.09582 0.06977,-8.49742 c 0.05682,-6.92057 0.0028,-8.55302 -0.291346,-8.7971 -0.267523,-0.22204 -31.622958,-0.31692 -120.984356,-0.36613 l -120.62322,-0.0664 -0.0663,-224.736242 c -0.0489,-165.935798 0.0114,-224.829938 0.23084,-225.094288 0.44464,-0.53576 499.0242,-0.53576 499.46883,0 0.21939,0.26435 0.27979,59.15849 0.23085,225.094288 l -0.0663,224.736242 -120.62322,0.0664 C 32.973711,257.497 1.6182785,257.59188 1.3507556,257.81392 1.056658,258.058 1.002593,259.69045 1.0594097,266.61102 l 0.069765,8.49742 2.175211,1.09582 c 6.7524133,3.40175 11.1884703,8.75416 13.1116473,15.82018 0.483182,1.7752 0.577744,2.8013 0.562425,6.10275 -0.0164,3.53094 -0.09782,4.23 -0.738188,6.33695 -2.913406,9.58575 -10.8311688,16.24748 -20.5907722,17.32434 -2.8093088,0.30998 -2.656004,0.31012 -5.5005314,-0.005 z m 6.2568561,-16.51431 c 1.690243,-0.75168 3.22682918,-2.25947 4.05426593,-3.9782 0.86168437,-1.78988 0.90700757,-4.74559 0.0997215,-6.50351 -0.804545,-1.75197 -2.29113563,-3.27872 -4.01836733,-4.12692 -3.1052559,-1.52492 -7.1184639,-0.75144 -9.4413279,1.8197 -1.541386,1.70611 -2.105314,3.19561 -2.08787,5.5146 0.01148,1.52713 0.160441,2.28664 0.646433,3.29613 1.975564,4.10364 6.6087624,5.81867 10.7471448,3.9782 z M 226.95105,64.632387 V -112.37387 H -6.9406167 -240.83228 V 64.632387 241.63864 H -6.9406167 226.95105 Z M -224.5704,225.16849 c -0.0692,-0.18198 -0.0952,-21.82167 -0.0579,-48.08818 l 0.0679,-47.7573 H -6.9406167 210.67918 v 48.02188 48.02188 l -217.5618926,0.0663 c -173.9110374,0.053 -217.5871274,-8e-5 -217.6876874,-0.26458 z m 419.1772,-47.88974 0.0672,-32.21303 H -6.9395636 -208.55312 v 32.10277 c 0,17.65655 0.0795,32.18225 0.17657,32.27936 0.0971,0.0971 90.79296,0.14671 201.5463493,0.11025 L 194.53959,209.4918 Z m -241.583775,7.83116 c -0.09917,-0.0992 -0.180308,-3.67279 -0.180308,-7.94142 v -7.7611 h 7.941437 7.941437 l -0.07008,7.87136 -0.07008,7.87135 -7.691046,0.0701 c -4.230074,0.0386 -7.772183,-0.0111 -7.871354,-0.11025 z m 32.279167,0 c -0.09917,-0.0992 -0.180309,-3.67279 -0.180309,-7.94142 v -7.7611 h 7.9414373 7.941437 l -0.0700828,7.87136 -0.0700828,7.87135 -7.6910459,0.0701 c -4.2300738,0.0386 -7.7721828,-0.0111 -7.8713538,-0.11025 z m 32.279172,0 c -0.09917,-0.0992 -0.180314,-3.67279 -0.180314,-7.94142 v -7.7611 h 7.941442 7.941443 l -0.07009,7.87136 -0.07009,7.87135 -7.69104,0.0701 c -4.230079,0.0386 -7.772189,-0.0111 -7.871354,-0.11025 z M -175.94736,104.63069 c -0.26015,-0.16692 -0.31918,-1.92283 -0.26458,-7.869604 l 0.0703,-7.65474 7.8753,-0.07009 7.8753,-0.07009 -0.0701,7.875297 -0.0701,7.875297 -7.54063,0.0644 c -4.14734,0.0354 -7.69131,-0.0323 -7.87549,-0.15045 z m 54.37191,-0.0562 c -0.54797,-0.13644 -1.44629,-0.47765 -1.99627,-0.75821 -2.2233,-1.13425 -2.7702,-2.06502 -11.73076,-19.964695 l -8.56001,-17.099492 -0.0738,-21.028952 -0.0738,-21.028951 0.60294,-0.147373 c 0.33162,-0.08104 3.87716,-0.11393 7.87898,-0.07308 l 7.27605,0.07424 0.13229,19.182292 0.13229,19.182292 3.90348,7.739063 c 2.14692,4.256485 4.05289,7.739063 4.2355,7.739063 0.1826,0 2.05744,-3.423047 4.1663,-7.606771 l 3.8343,-7.606771 0.13229,-19.314584 0.13229,-19.314584 h 7.80521 7.805212 l 0.132291,19.182292 0.132292,19.182292 3.903485,7.739063 c 2.146919,4.256485 4.052859,7.739063 4.235421,7.739063 0.182563,0 2.087166,-3.512873 4.23245,-7.806373 L -79.4365,62.777941 V 43.734166 24.690383 l 0.595312,-0.145441 c 0.327422,-0.07998 3.869532,-0.112025 7.871355,-0.07117 l 7.276041,0.07424 0.07053,20.769792 c 0.06996,20.602602 0.06602,20.781514 -0.489599,22.225001 -0.30807,0.800365 -4.3284,8.89426 -8.934069,17.986455 -8.142419,16.07418 -8.409797,16.55818 -9.670719,17.50547 -3.337732,2.50751 -7.788558,2.15691 -10.586077,-0.83386 -0.910397,-0.9733 -2.24023,-3.375318 -5.716275,-10.325076 -3.479399,-6.956452 -4.602359,-8.984536 -4.842459,-8.745564 -0.17192,0.171106 -2.45571,4.49879 -5.07508,9.617049 -4.47912,8.752201 -4.83879,9.363441 -6.04457,10.272681 -1.91515,1.44413 -4.54591,2.06439 -6.59339,1.55456 z m 96.837495,0 c -1.543296,-0.38309 -3.032543,-1.23639 -4.107849,-2.3537 -0.71692,-0.74494 -3.297793,-5.663145 -9.580229,-18.256439 L -47.024992,66.72757 V 45.638161 24.548778 h 7.805209 7.805208 l 0.132292,19.314584 0.132291,19.314584 3.930113,7.619656 c 2.16744,4.202192 4.066106,7.580392 4.233334,7.532132 0.166769,-0.04813 2.029626,-3.476969 4.139678,-7.619656 l 3.836459,-7.532132 0.132291,-19.314584 0.132292,-19.314584 h 7.8052083 7.80520837 L 0.99688333,43.863362 1.129175,63.177946 4.9656333,70.710078 c 2.1100521,4.142687 3.972904,7.571529 4.1396709,7.619656 0.1672431,0.04826 2.0658928,-3.32994 4.2333338,-7.532132 l 3.93012,-7.619656 0.132292,-19.314584 0.132292,-19.314584 h 7.805208 7.805208 V 45.638161 66.72757 L 24.5448,83.964381 c -9.306692,18.655509 -9.377918,18.773139 -12.129717,20.037799 -2.225331,1.02269 -4.4328822,0.96848 -6.7362124,-0.16545 -1.0425112,-0.51324 -2.0534312,-1.25206 -2.5181639,-1.84041 -0.4270349,-0.54063 -2.81533866,-5.060847 -5.3073406,-10.044935 -2.4920019,-4.984856 -4.6492927,-9.062747 -4.7939828,-9.062747 -0.14469,0 -2.3019808,4.077891 -4.7939823,9.061979 -2.492002,4.984089 -4.880306,9.504313 -5.307341,10.044933 -1.503431,1.90333 -5.29613,3.17389 -7.696015,2.57821 z m 96.42788,-0.12509 c -1.613535,-0.44889 -3.487658,-1.65076 -4.22439,-2.70907 -0.278368,-0.39987 -4.36417,-8.393034 -9.079574,-17.762618 L 49.812508,66.94212 V 45.745449 24.548778 l 7.276042,-0.07424 c 4.001823,-0.04085 7.543932,-0.0087 7.871354,0.07117 l 0.595313,0.145441 v 19.043783 19.04381 l 3.900514,7.806372 c 2.145294,4.2935 4.049897,7.806373 4.23246,7.806373 0.182562,0 2.088488,-3.482578 4.235423,-7.739063 l 3.903478,-7.739062 0.132291,-19.182293 0.132292,-19.182292 h 7.805208 7.805209 l 0.132291,19.314584 0.132292,19.314584 3.834285,7.606771 c 2.10889,4.183724 3.98373,7.606771 4.16632,7.606771 0.18261,0 2.08857,-3.482578 4.2355,-7.739063 l 3.90348,-7.739062 0.13229,-19.182293 0.13229,-19.182292 7.27604,-0.07424 c 4.00183,-0.04085 7.54738,-0.0079 7.87898,0.07308 l 0.60296,0.147373 -0.0738,21.028952 -0.0738,21.028951 -8.56538,17.110235 c -6.8502,13.683986 -8.7992,17.360232 -9.73305,18.358562 -2.77952,2.97156 -7.24683,3.31404 -10.5673,0.81015 -1.224593,-0.92344 -1.561884,-1.49592 -6.059272,-10.283792 -2.619375,-5.118259 -4.903152,-9.445943 -5.075078,-9.617049 -0.24011,-0.238972 -1.363054,1.789113 -4.842458,8.745564 -4.918762,9.834217 -5.775854,11.108687 -8.160649,12.134607 -1.754955,0.75494 -3.600186,0.90787 -5.288148,0.43826 z m 75.004185,0.22399 c -0.097,-0.0978 -0.17639,-3.67141 -0.17639,-7.942179 V 88.96617 l 7.87135,0.07009 7.87135,0.07009 0.0703,7.65474 c 0.0546,5.94772 -0.005,7.70215 -0.26458,7.8673 -0.40156,0.2549 -15.11901,0.29729 -15.37201,0.0443 z M -224.51615,-0.10218733 c -0.0971,-0.0971021 -0.17655,-21.62365567 -0.17655,-47.83682667 0,-36.716321 0.0729,-47.733177 0.3175,-47.977771 0.5,-0.499996 434.47539,-0.458877 434.89041,0.04121 0.21865,0.26348 0.27996,13.029804 0.23083,48.088012 L 210.67918,-0.05824004 -6.830214,0.00806455 C -126.46038,0.04452413 -224.41905,-0.00516462 -224.51615,-0.10218733 Z M 194.6068,-48.013971 194.53959,-80.226993 H -6.9406167 -208.42082 l -0.0672,32.213022 -0.0672,32.213022 H -6.9406167 194.674 Z m -338.48136,7.538429 c -0.0708,-0.184414 -0.097,-3.727079 -0.0583,-7.872545 l 0.0704,-7.537238 h 28.04583 28.045835 v 7.805208 7.805209 l -27.987525,0.06736 c -22.40001,0.0539 -28.01322,0 -28.11621,-0.267997 z m 72.702402,-7.538429 0.07008,-7.871354 h 27.913542 27.913541 l 0.07008,7.871354 0.07008,7.871355 H -43.188542 -71.24225 Z m 72.4958335,0 0.070083,-7.871354 H 29.3073 57.220842 l 0.07009,7.871354 0.07009,7.871355 H 29.3073 1.2535927 Z m 72.5538515,7.538429 c -0.07078,-0.184414 -0.09702,-3.727079 -0.05831,-7.872545 l 0.07038,-7.537238 h 28.045833 28.04583 v 7.805208 7.805209 l -27.98751,0.06736 c -22.400028,0.0539 -28.013242,0 -28.116218,-0.267997 z M 226.95105,-152.56223 c 0,-21.68526 -0.0411,-24.06456 -0.41852,-24.20937 -0.54726,-0.21001 -466.39904,-0.21001 -466.9463,0 -0.37738,0.14481 -0.41851,2.52411 -0.41851,24.20937 v 24.04878 H -6.9406167 226.95105 Z m -451.52399,7.57507 c -0.0705,-0.18377 -0.0966,-3.72588 -0.0578,-7.87135 l 0.0704,-7.53724 7.78708,-0.0702 c 6.0536,-0.0546 7.83438,0.004 7.99959,0.26458 0.24533,0.38649 0.30133,14.50101 0.06,15.12983 -0.14141,0.36851 -1.09079,0.41851 -7.9458,0.41851 -6.02626,0 -7.81417,-0.0755 -7.91342,-0.33412 z m 32.27917,0 c -0.0705,-0.18377 -0.0966,-3.72588 -0.0579,-7.87135 l 0.0704,-7.53724 7.87135,-0.0701 7.87136,-0.0701 v 7.94144 7.94143 h -7.81351 c -6.04906,0 -7.84247,-0.0754 -7.94173,-0.33412 z m 32.27916,0 c -0.0705,-0.18377 -0.0965,-3.72588 -0.0578,-7.87135 l 0.0704,-7.53724 7.87135,-0.0701 7.87135,-0.0701 v 7.94144 7.94143 h -7.81351 c -6.04906,0 -7.84246,-0.0754 -7.94173,-0.33412 z m 32.27925,2.1e-4 c -0.0706,-0.18388 -0.0966,-3.72609 -0.0579,-7.87156 l 0.0704,-7.53724 H 41.478133 210.67918 v 7.80521 7.80521 l -169.143129,0.0663 c -136.089999,0.0534 -169.168191,0.001 -169.271411,-0.26797 z m -96.83743,450.58563 c -0.0706,-0.184 -0.0967,-3.72629 -0.058,-7.87176 l 0.0704,-7.53723 88.57321,-0.0666 88.57321,-0.0665 -0.07008,7.87175 -0.07008,7.87175 -88.44513,0.0666 c -71.09434,0.0535 -88.47032,0 -88.5735,-0.26797 z m 258.290191,0.15771 c -0.09721,-0.0972 -0.176768,-3.66945 -0.176768,-7.93826 v -7.76153 l 88.569267,0.0665 88.56928,0.0666 v 7.8052 7.80521 l -88.39251,0.0666 c -48.615862,0.0366 -88.472034,-0.013 -88.569269,-0.11026 z"
         style="fill:#fea877;stroke-width:0.26458335" />
      <path
         id="path4641"
         d="m -11.083576,321.4341 c -10.108687,-1.93117 -17.631733,-9.44544 -19.408114,-19.38547 -0.424574,-2.37577 -0.200729,-8.08908 0.402429,-10.27144 0.241313,-0.87313 0.889997,-2.55416 1.441521,-3.7356 2.484758,-5.32278 6.234629,-9.12694 11.45689,-11.62275 1.053721,-0.50358 2.064686,-1.11652 2.246588,-1.36202 0.247663,-0.33428 0.330729,-2.48106 0.330729,-8.54734 0,-6.06518 -0.08311,-8.21365 -0.330729,-8.54943 -0.309936,-0.42029 -7.916717,-0.45257 -120.980728,-0.51358 l -120.65,-0.0651 -0.0663,-224.961985 -0.0663,-224.961985 H -6.9406167 242.82637 l -0.0663,224.961985 -0.0663,224.961985 -120.65,0.0651 C 8.9797594,257.50748 1.3729647,257.53976 1.0630292,257.96005 0.81541356,258.29583 0.7323,260.4443 0.7323,266.50948 c 0,6.06628 0.0830659,8.21306 0.3307292,8.54734 0.181901,0.2455 1.192866,0.85844 2.2465876,1.36202 5.2222559,2.49581 8.9721422,6.29997 11.4568972,11.62275 0.551524,1.18144 1.200203,2.86247 1.441503,3.7356 0.603171,2.18236 0.827008,7.89567 0.402432,10.27144 -1.12186,6.27758 -4.773745,11.98126 -9.9525407,15.54435 -1.8330333,1.26116 -5.3409479,2.83739 -7.64539997,3.43535 -2.72951573,0.70826 -7.50756793,0.9003 -10.09608433,0.40577 z m 7.6053074,-16.00084 c 2.85798156,-1.35832 4.5400569,-3.95595 4.6981666,-7.25538 0.090353,-1.88547 0.02667,-2.21289 -0.72890065,-3.74766 -3.08576395,-6.26809 -11.71222335,-6.31503 -14.82755735,-0.0807 -1.327319,2.6562 -1.059301,5.94085 0.682477,8.36398 0.921044,1.28132 2.575544,2.52714 4.067633,3.06284 1.6238802,0.58301 4.4994565,0.42151 6.1081814,-0.34308 z M 227.14967,64.924328 c 0.049,-130.526582 -0.0114,-176.940418 -0.23082,-177.204708 -0.41458,-0.49954 -467.19875,-0.54004 -467.69822,-0.0406 -0.24631,0.24631 -0.3175,39.95404 -0.3175,177.094439 0,97.227341 0.0795,176.856401 0.17654,176.953501 0.0971,0.0971 105.43764,0.14671 234.0901054,0.11025 l 233.9135646,-0.0663 z m -451.51236,112.354422 0.0669,-47.95574 H -6.9406167 210.41459 l 0.0669,47.95574 0.0669,47.95573 H -6.9406167 -224.42955 Z m 419.23407,0.0824 c 0.0534,-25.52972 0,-32.17389 -0.26458,-32.34126 -0.38241,-0.24278 -402.37365,-0.30081 -403.00598,-0.0582 -0.37845,0.14523 -0.41852,3.23141 -0.41852,32.23506 0,17.64097 0.0795,32.15394 0.17656,32.25105 0.0971,0.0971 90.91203,0.14671 201.8109392,0.11025 l 201.6343808,-0.0663 z m -241.701937,-0.0784 0.07015,-7.74306 7.600714,-0.0702 7.600715,-0.0702 0.146494,0.59937 c 0.08057,0.32964 0.113065,3.81404 0.0722,7.74311 l -0.07429,7.14375 -7.743066,0.0701 -7.743065,0.0702 z m 32.217024,-0.0701 v -7.80521 H -6.9406167 0.7323 v 7.80521 7.80521 h -7.6729167 -7.6729163 z m 32.190981,7.62881 c -0.253021,-0.25299 -0.210635,-14.70586 0.04429,-15.1075 0.1651,-0.26008 1.8932,-0.31922 7.735014,-0.26458 l 7.522422,0.0703 0.07014,7.73907 0.07014,7.73906 h -7.632806 c -4.198064,0 -7.712207,-0.0794 -7.809203,-0.1764 z m -193.524668,-87.992006 0.0701,-7.743058 h 7.67291 7.67292 v 7.672917 7.672917 l -7.74307,0.0701 -7.74306,0.0702 z m 53.69413,7.358376 c -1.41253,-0.4605 -2.94445,-1.50071 -3.68474,-2.502 -0.30736,-0.41571 -4.40661,-8.421292 -9.10945,-17.790162 l -8.55063,-17.034272 -0.0723,-21.104517 -0.0723,-21.104543 7.7452,0.07017 7.7452,0.07014 0.13229,19.182292 0.13229,19.182293 3.90348,7.739063 c 2.14692,4.256484 4.05286,7.739062 4.23542,7.739062 0.18257,0 2.11694,-3.542109 4.2986,-7.871354 l 3.96666,-7.871355 0.0729,-19.116146 0.0729,-19.116147 h 7.7985 7.798493 v 19.207931 19.20793 l 3.938506,7.713425 c 2.166178,4.242382 4.102603,7.746498 4.303162,7.786952 0.240562,0.0485 1.739781,-2.697718 4.405484,-8.069792 l 4.040831,-8.143319 -0.0096,-18.855559 -0.0096,-18.855558 7.739063,0.07014 7.739062,0.07014 v 20.826413 20.826387 l -8.64934,17.312588 c -4.757137,9.521931 -9.005425,17.718138 -9.440638,18.213808 -2.624621,2.98929 -7.41467,3.37812 -10.701181,0.86868 -1.150763,-0.87865 -1.554851,-1.58258 -6.002978,-10.456965 -3.529634,-7.04186 -4.888944,-9.514867 -5.229944,-9.514867 -0.34088,0 -1.64467,2.369 -5.01119,9.105424 -2.50274,5.00798 -4.932,9.539998 -5.39836,10.071158 -1.81895,2.07168 -5.42595,3.02275 -8.12574,2.14256 z m 96.653816,-0.0837 c -1.758574,-0.62955 -2.869832,-1.45 -3.804997,-2.80921 -0.422981,-0.61476 -4.50115,-8.58859 -9.062598,-17.719573 l -8.293539,-16.601811 -0.07079,-21.160582 -0.07079,-21.160608 7.743704,0.07017 7.743703,0.07014 0.0801,19.182292 0.08011,19.182293 3.888644,7.672917 c 2.491283,4.915694 4.031261,7.672917 4.28552,7.672917 0.254259,0 1.794237,-2.757223 4.28552,-7.672917 l 3.888645,-7.672917 0.0801,-19.182293 0.0801,-19.182292 h 7.8052083 7.80520837 l 0.0801053,19.182292 0.0801053,19.182293 3.8886553,7.672917 c 2.4912638,4.915694 4.0312446,7.672917 4.2855092,7.672917 0.2542646,0 1.7942452,-2.757223 4.2855092,-7.672917 l 3.88866,-7.672917 0.08009,-19.182293 0.08012,-19.182292 7.743692,-0.07014 7.74372,-0.07017 -0.0708,21.164841 -0.07078,21.164842 -8.51281,17.005301 c -4.68204,9.352941 -8.881428,17.44424 -9.33196,17.98069 -2.064147,2.45779 -6.2591949,3.23059 -9.3357699,1.71979 C 4.8648535,103.29833 3.8153308,102.52443 3.3663726,101.98796 2.9174011,101.45151 0.503954,96.934971 -1.99684,91.951199 c -2.9391452,-5.857346 -4.687234,-9.061397 -4.9437767,-9.061397 -0.2565426,0 -2.0046315,3.204051 -4.9437763,9.061397 -2.500794,4.983772 -4.914241,9.500311 -5.363213,10.036761 -1.793714,2.14323 -5.607185,3.11859 -8.351668,2.13611 z m 96.896663,0.0788 C 69.877635,103.69649 68.35517,102.6361 67.586635,101.6184 67.225134,101.13972 63.078082,93.034421 58.370933,83.606628 L 49.812508,66.465103 V 45.638849 24.812594 l 7.739063,-0.07014 7.739062,-0.07014 -0.0095,18.855558 -0.0095,18.855559 4.040823,8.143319 c 2.665703,5.372074 4.164938,8.11829 4.405498,8.069792 0.200554,-0.04045 2.136986,-3.54457 4.303156,-7.786952 l 3.938509,-7.713425 V 43.888233 24.680302 h 7.798487 7.798515 l 0.07284,19.116147 0.07287,19.116146 3.966659,7.871355 c 2.18167,4.329245 4.11604,7.871354 4.2986,7.871354 0.18257,0 2.08849,-3.482578 4.23543,-7.739062 l 3.90347,-7.739063 0.1323,-19.182293 0.13229,-19.182292 7.7452,-0.07014 7.7452,-0.07017 -0.0723,21.104543 -0.0723,21.104517 -8.65709,17.247235 c -9.20234,18.333481 -9.38411,18.637231 -11.82446,19.758001 -1.86537,0.85672 -5.00481,0.78735 -6.79435,-0.15012 -0.7407,-0.38804 -1.72831,-1.14009 -2.19466,-1.67124 -0.466352,-0.53116 -2.895624,-5.06318 -5.398344,-10.07116 -3.366532,-6.736424 -4.670319,-9.105424 -5.011208,-9.105424 -0.340995,0 -1.700292,2.473007 -5.229913,9.514867 -4.440688,8.859547 -4.853755,9.579477 -5.99747,10.452767 -2.087774,1.59416 -5.075316,2.14436 -7.311786,1.34659 z m 75.340021,0.0473 c -0.0706,-0.18386 -0.0966,-3.66644 -0.0578,-7.739062 l 0.0704,-7.404762 h 7.67292 7.67291 l 0.0701,7.739063 0.0701,7.739061 h -7.68522 c -5.94788,0 -7.71421,-0.0756 -7.81349,-0.3343 z M -224.25157,-0.10218733 c -0.0971,-0.0971021 -0.17655,-21.70699967 -0.17655,-48.02203567 V -95.969702 H -6.9399023 210.54831 l -0.0669,47.955731 -0.0669,47.95573096 L -6.830214,0.00806455 C -126.31486,0.04452413 -224.15447,-0.00516462 -224.25157,-0.10218733 Z M 194.80418,-47.947825 V -80.226993 H -6.9406167 -208.68541 l -0.0681,32.014585 c -0.0374,17.608021 -0.0114,32.163492 0.0579,32.345498 0.1007,0.264478 40.60193,0.31758 201.8128727,0.264584 l 201.6868873,-0.06633 z m -338.35678,7.630028 c -0.0977,-0.09768 -0.1776,-3.610557 -0.1776,-7.806426 v -7.628811 h 27.91754 27.917536 l -0.07014,7.739063 -0.07014,7.739063 -27.669796,0.06736 c -15.21839,0.03704 -27.74972,-0.01244 -27.8474,-0.110252 z m 72.437926,-0.15912 c -0.07056,-0.183859 -0.09658,-3.666438 -0.05784,-7.739063 l 0.07044,-7.404762 h 27.913542 27.913541 l 0.07429,7.14375 c 0.04086,3.929063 0.0088,7.411641 -0.07119,7.739063 l -0.145479,0.595313 h -27.784515 c -22.141836,0 -27.810566,-0.06789 -27.912795,-0.334301 z m 72.5056304,-0.259795 c -0.080182,-0.328083 -0.1123527,-3.811217 -0.07149,-7.74028 l 0.074292,-7.14375 H 29.3073 57.220842 v 7.672917 7.672917 l -27.842052,0.06736 -27.8420508,0.06736 z m 72.8085416,0.418915 c -0.09768,-0.09768 -0.177615,-3.610557 -0.177615,-7.806426 v -7.628811 h 27.917537 27.91754 l -0.0701,7.739063 -0.0702,7.739063 -27.66978,0.06736 c -15.218406,0.03704 -27.749734,-0.01244 -27.847392,-0.110252 z M 227.08334,-152.59054 v -24.20937 H -6.9406167 -240.96457 l -0.0683,23.94479 c -0.0376,13.16964 -0.0115,24.09369 0.0579,24.27567 0.10086,0.26451 47.05799,0.31758 234.0922221,0.26458 l 233.9660579,-0.0663 z m -451.51146,0 v -7.67291 h 7.80521 7.80521 v 7.67291 7.67292 h -7.80521 -7.80521 z m 32.27917,0 v -7.67291 h 7.80521 7.80521 v 7.67291 7.67292 h -7.80521 -7.80521 z m 32.27917,0 v -7.67291 h 7.80521 7.8052 v 7.67291 7.67292 h -7.8052 -7.80521 z m 32.27916,0 v -7.67291 H 41.478133 210.54688 v 7.67291 7.67292 H 41.478133 -127.59062 Z m -96.77535,450.51969 0.0702,-7.73946 88.07866,-0.0666 c 65.47658,-0.0494 88.171655,0.0106 88.44104,0.23421 0.294196,0.24416 0.349165,1.70027 0.292166,7.73946 l -0.0702,7.43871 -88.440986,0.0665 -88.44097,0.0666 z m 258.083001,7.56226 c -0.09702,-0.097 -0.176398,-3.47569 -0.176398,-7.50821 0,-5.84372 0.07273,-7.39219 0.358326,-7.62921 0.263974,-0.2191 23.544715,-0.27987 88.436981,-0.23085 l 88.07865,0.0666 0.0701,7.73906 0.0701,7.73906 h -88.33072 c -48.581917,0 -88.410123,-0.0794 -88.507119,-0.1764 z"
         style="fill:#fe8d4d;stroke-width:0.26458335" />
      <path
         id="path4639"
         d="m -10.734808,321.28344 c -7.613314,-1.38369 -14.060426,-6.12984 -17.43833,-12.8375 -1.509387,-2.99726 -2.112418,-5.5653 -2.251567,-9.58842 -0.111959,-3.23694 -0.04921,-4.11859 0.445489,-6.25941 1.013561,-4.38621 3.406193,-8.57721 6.670368,-11.684 2.145438,-2.042 3.682061,-3.08496 6.470105,-4.39148 l 2.232123,-1.046 -0.0696,-9.04764 -0.0696,-9.04764 -120.84843,-0.0664 -120.84845,-0.0664 V 32.48522 -192.27804 H -6.9406167 242.56147 V 32.48522 257.24848 l -120.84844,0.0664 -120.84843833,0.0664 -0.0696013,9.04764 -0.0696039,9.04764 2.23212283,1.046 c 2.7880363,1.30652 4.3246569,2.34948 6.4701103,4.39148 3.2641644,3.10679 5.6567914,7.29779 6.6703574,11.684 0.494718,2.14082 0.557451,3.02247 0.445506,6.25941 -0.109221,3.15722 -0.24818,4.13191 -0.857859,6.01654 -2.54852,7.8781 -8.2401834,13.41599 -16.20167047,15.76393 -1.81104653,0.53409 -3.05299273,0.70652 -5.63082023,0.78171 -1.8190104,0.0531 -3.8835833,-0.008 -4.5879413,-0.13626 z m 7.3660663,-15.63455 c 5.3652315,-2.53735 6.5799573,-9.70306 2.3379642,-13.79172 -5.1959166,-5.00814 -13.8466305,-1.68013 -14.3181305,5.50828 -0.264171,4.02744 1.885775,7.2617 5.7638841,8.67082 1.6669782,0.60571 4.4881244,0.42992 6.2162822,-0.38738 z M 227.16272,241.85031 c 0.2463,-0.2463 0.3175,-39.99116 0.3175,-177.261526 0,-174.668594 -0.007,-176.947554 -0.51179,-177.217924 -0.71763,-0.38408 -467.10046,-0.38408 -467.81811,0 -0.50519,0.27037 -0.51177,2.54933 -0.51177,177.217924 0,137.270366 0.0712,177.015226 0.3175,177.261526 0.46318,0.46318 467.74349,0.46318 468.20667,0 z M -224.16353,177.2126 V 129.45531 H -6.9406167 210.2823 v 47.75729 47.75729 H -6.9406167 -224.16353 Z m 419.20398,32.25752 c 0.0883,-0.23018 0.1606,-14.79153 0.1606,-32.35854 0,-24.48946 -0.0741,-32.01408 -0.3175,-32.25752 -0.46313,-0.46313 -403.18521,-0.46313 -403.64833,0 -0.24344,0.24344 -0.3175,7.76806 -0.3175,32.25752 0,17.56701 0.0723,32.12836 0.1606,32.35854 0.14625,0.38114 18.19127,0.41852 201.9810633,0.41852 183.7897967,0 201.8348267,-0.0374 201.9810667,-0.41852 z M -46.628117,177.20847 v -7.54472 l 7.47448,0.0702 7.474479,0.0703 0.07027,7.47448 0.07027,7.47447 h -7.544747 -7.544745 z m 32.07661,0.0703 0.07027,-7.47448 h 7.5406253 7.54062503 l 0.0702654,7.47448 0.070268,7.47447 H -6.9406167 -14.621775 Z m 32.279159,0 0.07027,-7.47448 7.474479,-0.0703 7.474479,-0.0702 v 7.54472 7.54475 H 25.202131 17.657405 Z M -175.74478,96.779263 v -7.540625 h 7.54062 7.54063 v 7.540625 7.540627 h -7.54063 -7.54062 z m 53.26703,7.123347 c -0.60766,-0.2241 -1.65973,-0.8959 -2.33792,-1.49288 -1.12996,-0.99462 -1.96141,-2.542911 -9.94151,-18.512421 l -8.70844,-17.426994 V 45.707587 24.944886 h 7.54063 7.54062 v 18.97343 18.973457 l 4.0349,8.010842 c 2.9664,5.889493 4.15728,8.011716 4.49706,8.014071 0.34235,0.0026 1.4913,-2.054172 4.43177,-7.932579 l 3.96961,-7.935807 V 43.996606 24.944886 h 7.67291 7.67292 v 19.03476 19.034735 l 3.965501,7.952766 c 3.242114,6.502004 4.063201,7.952741 4.50107,7.952741 0.438235,0 1.280298,-1.493309 4.633455,-8.216874 l 4.097891,-8.216848 V 43.715513 24.944886 h 7.548348 7.548348 l -0.07387,20.760135 -0.07387,20.760108 -8.563343,17.141456 c -4.709837,9.427792 -8.898035,17.564235 -9.307102,18.080965 -1.090417,1.37747 -3.152407,2.40652 -5.142103,2.56625 -2.203794,0.1769 -3.983577,-0.42778 -5.620724,-1.90963 -1.121494,-1.01513 -1.788128,-2.19544 -5.889307,-10.427367 -2.543564,-5.105453 -4.786724,-9.344845 -4.984814,-9.420833 -0.19808,-0.07601 -0.47308,-0.06842 -0.6111,0.01693 -0.13802,0.0853 -2.31948,4.290854 -4.84769,9.345666 -2.52821,5.054812 -4.895,9.545034 -5.25954,9.978264 -0.36454,0.43323 -1.28972,1.12889 -2.05597,1.54596 -1.7159,0.9339 -4.48863,1.16501 -6.23773,0.51988 z m 96.582322,-0.11713 c -2.694357,-1.06831 -2.967876,-1.51662 -12.248644,-20.076555 L -46.628117,66.742281 V 45.843583 24.944886 h 7.540625 7.540625 V 43.996606 63.0483 l 3.969605,7.935807 c 3.213058,6.423343 4.070128,7.935781 4.497062,7.935781 0.426934,0 1.284004,-1.512438 4.497062,-7.935781 L -14.613533,63.0483 V 43.996606 24.944886 H -6.9406167 0.7323 V 43.996606 63.0483 l 3.9695967,7.935807 c 3.2130735,6.423343 4.0701383,7.935781 4.49707,7.935781 0.4269316,0 1.2839963,-1.512438 4.4970703,-7.935781 L 17.665633,63.0483 V 43.996606 24.944886 h 7.540625 7.540625 v 20.898697 20.898698 l -8.484049,16.966644 c -9.380115,18.758615 -9.54712,19.029765 -12.380225,20.099625 -2.7846338,1.05156 -6.0110688,0.36915 -8.038174,-1.70013 -0.5295133,-0.54052 -2.704129,-4.502254 -5.6256767,-10.248899 -3.0675606,-6.033849 -4.9037451,-9.367758 -5.159375,-9.367758 -0.2556298,0 -2.0918143,3.333909 -5.1593753,9.367758 -2.921547,5.746645 -5.096163,9.708379 -5.625679,10.248899 -2.017829,2.05981 -5.435179,2.76133 -8.169757,1.67706 z m 97.240337,0.16912 c -1.456188,-0.52035 -2.75008,-1.39975 -3.493347,-2.37423 -0.368856,-0.48358 -4.519004,-8.582347 -9.222555,-17.997227 L 50.077092,66.465129 50.00322,45.705021 49.929348,24.944886 h 7.548351 7.548351 v 18.770627 18.770653 l 4.097893,8.216848 c 3.353144,6.723565 4.195207,8.216874 4.633463,8.216874 0.437859,0 1.25894,-1.450737 4.501065,-7.952741 l 3.965496,-7.952766 V 43.979646 24.944886 H 89.896883 97.5698 V 43.996606 63.0483 l 3.9696,7.935807 c 2.94047,5.878407 4.08942,7.93496 4.43177,7.932579 0.33978,-0.0026 1.53067,-2.124578 4.49707,-8.014071 l 4.03489,-8.010842 V 43.918316 24.944886 h 7.54063 7.54062 v 20.762701 20.762728 l -8.70844,17.426994 c -7.98385,15.977024 -8.81113,17.517431 -9.94288,18.513641 -1.61698,1.4233 -3.40665,2.01604 -5.56424,1.84285 -1.89437,-0.15206 -4.00918,-1.16108 -5.06601,-2.41703 -0.364539,-0.43322 -2.731317,-4.923442 -5.259543,-9.978254 -2.528199,-5.054812 -4.709662,-9.260364 -4.847696,-9.345666 -0.138006,-0.0853 -0.413014,-0.09289 -0.611081,-0.01693 -0.198094,0.07599 -2.441258,4.31538 -4.98483,9.420834 -4.092231,8.213986 -4.769511,9.413796 -5.882957,10.421646 -2.017554,1.82626 -4.9716,2.47388 -7.371794,1.61615 z M 146.7823,96.779263 v -7.540625 h 7.54062 7.54063 v 7.540625 7.540627 h -7.54063 -7.54062 z M -224.16353,-47.947825 V -95.705118 H -6.9406167 210.2823 v 47.757293 47.75729329 H -6.9406167 -224.16353 Z m 419.04708,32.358543 c 0.24344,-0.243443 0.3175,-7.768061 0.3175,-32.257525 0,-17.567011 -0.0723,-32.128355 -0.1606,-32.358543 -0.14624,-0.381132 -18.19127,-0.418518 -201.9810667,-0.418518 -183.7897933,0 -201.8348133,0.03739 -201.9810633,0.418518 -0.0883,0.230188 -0.1606,14.791532 -0.1606,32.358543 0,24.489464 0.0741,32.014082 0.3175,32.257525 0.46312,0.463126 403.1852,0.463126 403.64833,0 z m -338.34917,-32.358543 v -7.540625 h 27.64896 27.64896 v 7.540625 7.540625 h -27.64896 -27.64896 z m 72.495837,0 v -7.541842 h 27.785369 27.785372 l -0.07027,7.474479 -0.07026,7.47448 -27.715104,0.06736 -27.715104,0.06736 z m 72.6722228,7.36301 C 1.605425,-40.680594 1.52605,-44.073875 1.52605,-48.124223 V -55.48845 H 29.3073 57.08855 v 7.540625 7.540625 H 29.483698 c -15.182692,0 -27.6842461,-0.07937 -27.7812582,-0.176397 z m 72.5840272,-7.36301 v -7.540625 h 27.648963 27.64895 v 7.540625 7.540625 H 101.93543 74.286467 Z M 227.16272,-128.30179 c 0.46024,-0.46025 0.46024,-48.11724 0,-48.5775 -0.46318,-0.46317 -467.74349,-0.46317 -468.20667,0 -0.46026,0.46026 -0.46026,48.11725 0,48.5775 0.46318,0.46318 467.74349,0.46318 468.20667,0 z m -451.32625,-24.15234 v -7.54474 h 7.54474 7.54475 l -0.0703,7.47448 -0.0703,7.47448 -7.47448,0.0703 -7.47448,0.0703 z m 32.27916,0 v -7.54474 h 7.54475 7.54475 l -0.0703,7.47448 -0.0703,7.47448 -7.47448,0.0703 -7.47448,0.0703 z m 32.27917,0 v -7.54474 h 7.54474 7.54475 l -0.0703,7.47448 -0.0703,7.47448 -7.47448,0.0703 -7.47448,0.0703 z m 32.27917,-0.004 v -7.54063 H 41.478133 210.2823 v 7.54063 7.54062 H 41.478133 -127.32603 Z m -96.8375,450.32045 v -7.54102 l 88.17239,0.0665 88.172398,0.0665 0.07027,7.47448 0.07027,7.47448 h -88.242658 -88.24266 z m 258.030765,0.0665 0.07027,-7.47448 88.172395,-0.0665 88.1724,-0.0665 v 7.54102 7.54102 H 122.03963 33.796988 Z"
         style="fill:#fe8037;stroke-width:0.26458335" />
    </g>
  </g>
</svg>
