<?xml version="1.0" encoding="UTF-8" standalone="no"?>
<svg
   xmlns:dc="http://purl.org/dc/elements/1.1/"
   xmlns:cc="http://creativecommons.org/ns#"
   xmlns:rdf="http://www.w3.org/1999/02/22-rdf-syntax-ns#"
   xmlns:svg="http://www.w3.org/2000/svg"
   xmlns="http://www.w3.org/2000/svg"
   id="svg8"
   version="1.1"
   viewBox="0 0 18.520834 16.39674"
   height="16.39674mm"
   width="18.520834mm">
  <defs
     id="defs2" />
  <metadata
     id="metadata5">
    <rdf:RDF>
      <cc:Work
         rdf:about="">
        <dc:format>image/svg+xml</dc:format>
        <dc:type
           rdf:resource="http://purl.org/dc/dcmitype/StillImage" />
        <dc:title></dc:title>
      </cc:Work>
    </rdf:RDF>
  </metadata>
  <g
     transform="translate(-1.9432728,-6.0252634)"
     id="layer1">
    <g
       transform="matrix(0.03757329,0,0,0.03757329,29.592189,16.239654)"
       id="g4664">
      <path
         id="path4678"
         d="m -534.58125,164.39544 c -0.43873,-0.11467 -0.46302,-2.53336 -0.46302,-46.10825 V 72.299955 l 0.59531,-0.159544 c 0.32742,-0.08776 8.84093,-0.161158 18.9189,-0.163142 l 18.32359,-0.0036 -0.0673,-28.376564 -0.0673,-28.376563 h -42.20104 -42.20104 l -0.13229,36.247918 -0.1323,36.247918 -31.08854,0.132291 -31.08854,0.132292 -0.0679,18.903179 c -0.0529,14.71933 -0.14073,18.94943 -0.39688,19.1121 -0.18092,0.11491 -20.66182,0.21074 -45.5131,0.21296 l -45.18415,0.004 -0.25804,-0.67868 c -0.28153,-0.74047 -0.37082,-90.022444 -0.0911,-91.066331 l 0.15973,-0.596079 45.54342,0.06691 45.54343,0.06689 0.0679,18.983855 0.0679,18.983855 h 23.41507 23.41506 l -0.0673,-28.376564 -0.0673,-28.376563 -30.94132,-0.06726 c -24.35011,-0.05292 -30.98591,-0.137451 -31.15064,-0.396875 -0.30761,-0.484426 -0.26619,-285.725068 0.0416,-286.211918 0.22258,-0.35211 19.42923,-0.39688 170.26497,-0.39688 150.83576,0 170.04239,0.0448 170.26499,0.39688 0.30773,0.48685 0.34917,285.727492 0.0415,286.211918 -0.16473,0.259424 -6.80051,0.343958 -31.15062,0.396875 l -30.94133,0.06726 -0.0673,28.376563 -0.0673,28.376564 h 23.41507 23.41507 l 0.0679,-18.983855 0.0679,-18.983855 45.54342,-0.06689 45.54345,-0.06691 0.15972,0.596079 c 0.27975,1.043887 0.19045,90.325861 -0.0911,91.066341 l -0.25804,0.67868 -45.18414,-0.004 c -24.85131,-0.003 -45.3322,-0.0981 -45.51312,-0.21295 -0.25615,-0.16268 -0.34399,-4.39277 -0.39688,-19.1121 l -0.0679,-18.903269 -31.08854,-0.132292 -31.08854,-0.132291 -0.13229,-36.247918 -0.1323,-36.247918 h -42.20104 -42.20104 l -0.0673,28.376563 -0.0673,28.376564 18.32359,0.0037 c 10.07797,0.0026 18.59147,0.07538 18.91889,0.163142 l 0.59532,0.159544 v 45.975775 45.97577 l -0.59532,0.15955 c -0.68384,0.18327 -89.52071,0.16787 -90.22291,-0.0156 z m 75.20781,-46.11971 V 87.848644 h -30.03021 -30.03021 v 30.427086 30.42708 h 30.03021 30.03021 z m -46.50052,7.76227 c -0.25384,-0.10242 -0.33073,-1.90553 -0.33073,-7.756 0,-6.70671 0.0503,-7.64188 0.41852,-7.78317 0.54678,-0.20981 32.21826,-0.20981 32.76505,0 0.36822,0.14129 0.41851,1.0759 0.41851,7.7769 0,6.701 -0.0503,7.63561 -0.41851,7.7769 -0.50015,0.19193 -32.37613,0.17772 -32.85284,-0.0146 z M -659.92761,79.911144 V 49.48406 h -30.03021 -30.0302 v 30.427084 30.427086 h 30.0302 30.03021 z m -46.65289,7.763087 c -0.0981,-0.09811 -0.17836,-3.597434 -0.17836,-7.776316 v -7.59796 l 0.59532,-0.159544 c 1.03164,-0.276463 31.5916,-0.188754 32.33215,0.09282 l 0.68275,0.259582 -0.0702,7.611772 -0.0702,7.611772 -16.55653,0.06813 c -9.1061,0.03744 -16.6368,-0.01217 -16.7349,-0.110252 z m 447.76123,-7.763087 V 49.48406 h -30.03021 -30.03021 v 30.427084 30.427086 h 30.03021 30.03021 z m -46.6529,7.763087 c -0.0981,-0.09811 -0.17835,-3.554756 -0.17835,-7.681436 v -7.503081 l 0.67868,-0.258048 c 0.73848,-0.28075 31.30259,-0.366051 32.33203,-0.09022 l 0.59925,0.160575 -0.0701,7.707154 -0.0701,7.707181 -16.55654,0.06813 c -9.10609,0.03744 -16.63679,-0.01217 -16.7349,-0.110252 z M -334.6224,-22.350318 V -44.046152 H -489.40365 -644.1849 l -0.0684,21.431251 c -0.0376,11.787188 -0.0115,21.5801848 0.0579,21.76219164 0.10091,0.26447751 31.20967,0.31763231 154.8496,0.26458335 l 154.72332,-0.0663575 z m -263.53711,7.472178 c -0.0708,-0.184573 -0.0971,-3.667707 -0.0583,-7.740333 l 0.0704,-7.404761 h 26.59063 26.59062 v 7.672916 7.672917 l -26.53229,0.06742 c -21.23526,0.05395 -26.55801,0 -26.66107,-0.268155 z m 82.06742,-0.262282 c -0.26615,-0.99314 -0.18585,-13.607547 0.0913,-14.336421 l 0.25803,-0.678683 h 26.33914 26.33914 l 0.25805,0.678683 c 0.2771,0.728874 0.3574,13.343281 0.0913,14.336421 l -0.15954,0.595313 h -26.5289 -26.52891 z m 82.23882,0.262282 c -0.0708,-0.184573 -0.0971,-3.667707 -0.0583,-7.740333 l 0.0704,-7.404761 h 26.59063 26.59062 v 7.672916 7.672917 l -26.53228,0.06742 c -21.23528,0.05395 -26.558,0 -26.66109,-0.268155 z m 99.09858,-86.84718 v -41.93646 h -154.64896 -154.64896 v 41.93646 41.93646 h 154.64896 154.64896 z m 0.19997,-79.44115 -0.0677,-21.62969 H -489.40365 -644.1849 l -0.0684,21.29896 c -0.0376,11.71443 -0.0116,21.44779 0.0578,21.62969 0.10076,0.26406 31.32811,0.33073 154.9173,0.33073 h 154.7911 z m -210.89589,7.69558 c -0.0974,-0.0974 -0.177,-3.59723 -0.177,-7.77751 0,-6.6866 0.0503,-7.61983 0.41852,-7.76112 0.63488,-0.24362 111.31812,-0.18411 111.7028,0.0601 0.26019,0.16515 0.31919,1.91959 0.26458,7.8673 l -0.0703,7.65474 -55.98081,0.0668 c -30.78945,0.0367 -56.06046,-0.0129 -56.15782,-0.11024 z m 210.82821,-63.98568 v -18.52084 H -489.40365 -644.1849 l -0.0685,18.25625 c -0.0377,10.04094 -0.0116,18.40518 0.0579,18.58721 0.10102,0.26446 31.20987,0.31762 154.84974,0.26458 l 154.72332,-0.0664 z m -288.46605,7.79545 -0.59938,-0.24079 0.0702,-7.61379 0.0702,-7.61379 h 7.67292 7.67291 l 0.0702,7.61177 0.0702,7.61178 -0.68275,0.25958 c -0.85852,0.32641 -13.52776,0.31338 -14.34456,-0.0148 z m 29.63334,0 -0.59939,-0.24079 0.0702,-7.61379 0.0702,-7.61379 h 7.67292 7.67292 l 0.0702,7.61177 0.0702,7.61178 -0.68275,0.25958 c -0.85852,0.32641 -13.52776,0.31338 -14.34455,-0.0148 z m 29.63333,0 -0.59938,-0.24079 0.0702,-7.61379 0.0702,-7.61379 h 7.67291 7.67292 l 0.0702,7.61177 0.0702,7.61178 -0.68274,0.25958 c -0.85853,0.32641 -13.52776,0.31338 -14.34456,-0.0148 z"
         style="fill:#fee4d6;stroke-width:0.26458335" />
      <path
         id="path4676"
         d="m -534.72677,163.99573 c -0.4618,-0.4618 -0.4618,-90.978199 0,-91.440003 0.24092,-0.240929 4.80366,-0.3175 18.9177,-0.3175 h 18.60021 V 43.662433 15.086611 l -42.39948,0.06697 -42.39948,0.06694 -0.0671,36.180687 -0.0671,36.180661 -31.02145,0.06726 -31.02146,0.06723 -0.13667,19.050001 c -0.0752,10.4775 -0.16447,19.08011 -0.19844,19.11689 -0.034,0.0368 -20.51075,0.0368 -45.50395,0 l -45.44219,-0.0669 -0.0669,-45.612607 c -0.0491,-33.493129 0.0122,-45.707937 0.23084,-45.971356 0.41405,-0.498898 90.16903,-0.539723 90.66752,-0.04125 0.24101,0.241009 0.3175,4.862459 0.3175,19.182292 v 18.864792 h 23.41563 23.41562 V 43.663226 15.088225 l -30.75781,-0.004 c -16.9168,-0.0026 -30.90675,-0.09861 -31.08879,-0.214207 -0.26437,-0.167852 -0.31761,-29.009288 -0.26458,-143.333968 l 0.0664,-143.12391 h 170.12708 170.12708 l 0.0664,143.12383 c 0.053,114.32468 -2.1e-4,143.166117 -0.26458,143.333969 -0.18204,0.115596 -14.17199,0.211984 -31.08878,0.214206 l -30.75782,0.004 v 28.575001 28.575001 h 23.41563 23.41562 V 53.373435 c 0,-14.319833 0.0765,-18.941283 0.3175,-19.182292 0.49848,-0.498475 90.25348,-0.45765 90.66753,0.04125 0.21862,0.263419 0.27995,12.478227 0.23082,45.971356 l -0.0669,45.612601 -45.44219,0.0669 c -24.9932,0.0368 -45.46996,0.0368 -45.50394,0 -0.034,-0.0368 -0.12327,-8.63939 -0.19843,-19.11689 l -0.13669,-19.049995 -31.02144,-0.06723 -31.02147,-0.06726 -0.0671,-36.180661 -0.0671,-36.180687 h -42.46563 -42.46562 v 28.442709 28.44271 l 18.62817,0.06794 c 13.22554,0.04823 18.73134,0.153564 18.98386,0.363114 0.49617,0.411797 0.53395,90.96295 0.0382,91.45873 -0.46178,0.46178 -90.18448,0.46178 -90.64625,0 z m 75.48562,-45.72 V 87.716353 h -30.1625 -30.1625 l -0.0681,30.294797 c -0.0375,16.66213 -0.0112,30.44412 0.0583,30.62666 0.10053,0.26394 6.28676,0.31808 30.23062,0.26458 l 30.10422,-0.0673 z m -46.64604,7.35542 c -0.23103,-0.23104 -0.3175,-2.23425 -0.3175,-7.35542 0,-5.12117 0.0865,-7.12438 0.3175,-7.35542 0.45868,-0.45868 32.5084,-0.45868 32.96708,0 0.45239,0.45239 0.45239,14.25845 0,14.71084 -0.45868,0.45868 -32.5084,0.45868 -32.96708,0 z m -153.84087,-45.65386 0.0673,-30.49323 h -30.2959 -30.29591 v 30.382978 c 0,16.710661 0.0799,30.462882 0.17751,30.560512 0.0976,0.0976 13.70052,0.14724 30.22865,0.11023 l 30.05113,-0.0673 z m -46.8702,7.188253 c -0.0883,-0.230187 -0.1606,-3.540125 -0.1606,-7.355417 0,-5.042588 0.0867,-7.023603 0.3175,-7.254399 0.24004,-0.24003 4.27243,-0.3175 16.52715,-0.3175 15.75522,0 16.21733,0.01429 16.48355,0.511784 0.29375,0.548878 0.39692,13.676392 0.11329,14.415532 -0.14407,0.375444 -1.85706,0.418518 -16.64045,0.418518 -14.78338,0 -16.49637,-0.04307 -16.64044,-0.418518 z m 447.97854,-7.188253 0.0672,-30.49323 h -30.2959 -30.2959 v 30.382978 c 0,16.710661 0.0799,30.462882 0.17751,30.560512 0.0976,0.0976 13.70052,0.14724 30.22864,0.11023 l 30.05114,-0.0673 z m -46.8702,7.188253 c -0.28363,-0.73914 -0.18047,-13.866654 0.11329,-14.415532 0.2662,-0.497443 0.72832,-0.511784 16.48354,-0.511784 12.25474,0 16.28712,0.07747 16.52715,0.3175 0.2308,0.230796 0.3175,2.211811 0.3175,7.254399 0,3.815292 -0.0723,7.12523 -0.1606,7.355417 -0.14407,0.375444 -1.85706,0.418518 -16.64044,0.418518 -14.78338,0 -16.49638,-0.04307 -16.64044,-0.418518 z m -29.00019,-109.515861 v -21.828125 h -154.91354 -154.91354 v 21.828125 21.82812616 h 154.91354 154.91354 z m -263.515,7.294722 c -0.16952,-0.316759 -0.27458,-3.144679 -0.27458,-7.390712 0,-5.899653 0.0591,-6.936794 0.41577,-7.293452 0.3723,-0.372295 3.09085,-0.415396 25.99532,-0.412141 14.06874,0.0026 25.84923,0.07586 26.17885,0.164174 l 0.59932,0.160602 -0.0702,7.574862 -0.0702,7.574862 -26.2499,0.06742 c -25.74025,0.06612 -26.25523,0.05747 -26.52448,-0.445611 z m 82.32834,0.192987 c -0.23142,-0.231405 -0.3175,-2.273353 -0.3175,-7.531312 0,-6.861307 0.025,-7.2272 0.51177,-7.487708 0.34265,-0.183383 8.96079,-0.273897 26.07885,-0.273897 17.11807,0 25.73621,0.09051 26.07884,0.273897 0.48678,0.260508 0.51179,0.626401 0.51179,7.487708 0,5.257959 -0.0861,7.299907 -0.3175,7.531312 -0.46051,0.460507 -52.08575,0.460507 -52.54625,0 z m 82.14431,0.141102 c -0.097,-0.097 -0.1764,-3.535918 -0.1764,-7.64204 v -7.465669 l 0.59532,-0.159543 c 0.32742,-0.08776 12.10611,-0.161158 26.17485,-0.163142 22.90445,-0.0032 25.62302,0.03985 25.99532,0.412141 0.35663,0.356658 0.41576,1.393799 0.41576,7.293452 0,4.234973 -0.10525,7.074297 -0.27389,7.389415 -0.26795,0.500672 -0.84082,0.511784 -26.41423,0.511784 -14.37719,0 -26.21973,-0.07938 -26.31673,-0.176398 z m 98.97703,-87.069963 -0.067,-42.0026 H -489.40365 -644.1849 l -0.067,42.0026 -0.067,42.00261 h 154.91517 154.91518 z m 0.0653,-79.30885 v -21.82813 h -154.91354 -154.91354 v 21.82813 21.82812 h 154.91354 154.91354 z m -210.9769,7.12211 c -0.0883,-0.23019 -0.1606,-3.54012 -0.1606,-7.35542 0,-5.04259 0.0867,-7.0236 0.3175,-7.2544 0.46211,-0.46211 111.3508,-0.46211 111.81292,0 0.2308,0.2308 0.3175,2.21181 0.3175,7.2544 0,3.8153 -0.0723,7.12523 -0.1606,7.35542 -0.14573,0.3798 -5.33144,0.41851 -56.06336,0.41851 -50.73193,0 -55.91761,-0.0387 -56.06336,-0.41851 z m 210.91253,-63.41222 -0.0679,-18.85156 H -489.40365 -644.1849 l -0.0685,18.52083 c -0.0377,10.18646 -0.0116,18.66966 0.0578,18.85157 0.10086,0.26406 31.32835,0.33072 154.91764,0.33072 h 154.79131 z m -288.68424,7.56267 c -0.097,-0.097 -0.17639,-3.54443 -0.17639,-7.66092 v -7.48454 l 0.8599,-0.15955 c 1.26207,-0.23418 13.8755,-0.0349 14.13364,0.22332 0.34541,0.34549 0.43008,14.08919 0.0907,14.72332 -0.27647,0.51658 -0.53179,0.53476 -7.50883,0.53476 -3.97245,0 -7.30201,-0.0794 -7.39903,-0.17639 z m 29.45618,-0.3542 c -0.34143,-0.63796 -0.25887,-14.38007 0.0885,-14.72749 0.25864,-0.25869 12.87279,-0.45728 14.13768,-0.22257 l 0.86393,0.16031 -0.0702,7.59403 -0.0702,7.59402 -7.33065,0.0703 c -7.14066,0.0685 -7.33813,0.0563 -7.61908,-0.46861 z m 29.64564,0.023 c -0.35215,-0.658 -0.36815,-14.01818 -0.0174,-14.57364 0.21009,-0.33276 1.36265,-0.40958 7.13375,-0.47552 4.60998,-0.0527 7.06125,0.0167 7.42239,0.20994 0.52564,0.28132 0.53745,0.47654 0.46898,7.75156 l -0.0703,7.46297 -7.33065,0.0703 c -7.0353,0.0675 -7.34178,0.0495 -7.60677,-0.44562 z"
         style="fill:#fedbc7;stroke-width:0.26458335" />
      <path
         id="path4674"
         d="m -534.6285,163.89746 c -0.37473,-0.37473 -0.41577,-4.8782 -0.41577,-45.62173 0,-40.743534 0.041,-45.247007 0.41577,-45.621736 0.37011,-0.3701 2.46257,-0.415767 19.05,-0.415767 h 18.63423 v -28.54669 c 0,-25.786769 -0.0405,-28.562222 -0.41852,-28.707293 -0.62929,-0.241485 -84.06428,-0.185261 -84.44564,0.05691 -0.26014,0.165206 -0.34395,7.832408 -0.39687,36.310016 l -0.0671,36.100597 -31.02239,0.06723 c -17.06232,0.03699 -31.05019,0.09652 -31.08416,0.132292 -0.034,0.0358 -0.12327,8.637561 -0.19844,19.115061 l -0.13667,19.05 -45.11146,0.068 c -42.1775,0.0635 -45.13297,0.0387 -45.44219,-0.3813 -0.26153,-0.35528 -0.33073,-9.87311 -0.33073,-45.488516 0,-24.771589 0.0723,-45.227586 0.1606,-45.457773 0.14558,-0.379386 4.40105,-0.418518 45.50658,-0.418518 h 45.34598 l 0.0679,18.983855 0.0679,18.983855 23.61406,0.06757 23.61406,0.06755 V 43.664655 c 0,-15.717044 -0.0298,-28.604978 -0.0661,-28.63985 -0.0364,-0.03487 -14.05599,-0.124169 -31.15469,-0.198438 l -31.08854,-0.135017 -0.0676,-142.875 c -0.0634,-134.09663 -0.04,-142.89533 0.3813,-143.20574 0.66057,-0.4867 338.96614,-0.4867 339.62673,0 0.42129,0.31041 0.44474,9.10911 0.38129,143.20574 l -0.0676,142.875 -31.08854,0.135017 c -17.09869,0.07427 -31.1183,0.163566 -31.15468,0.198438 -0.0364,0.03487 -0.0661,12.922806 -0.0661,28.63985 v 28.576403 l 23.61406,-0.06755 23.61406,-0.06757 0.0679,-18.983855 0.0679,-18.983855 h 45.34598 c 41.10554,0 45.36102,0.03913 45.50659,0.418518 0.0883,0.230187 0.1606,20.686184 0.1606,45.457773 0,35.615401 -0.0692,45.133231 -0.33073,45.488511 -0.30921,0.42003 -3.26469,0.44485 -45.44218,0.3813 l -45.11146,-0.068 -0.13669,-19.05 c -0.0752,-10.477495 -0.16446,-19.079258 -0.19843,-19.115056 -0.034,-0.03577 -14.02183,-0.0953 -31.08415,-0.132292 l -31.0224,-0.06723 -0.0671,-36.100597 c -0.0529,-28.477608 -0.13673,-36.14481 -0.39687,-36.310016 -0.38135,-0.242173 -83.81634,-0.298397 -84.44564,-0.05691 -0.37805,0.145071 -0.41851,2.920524 -0.41851,28.707293 v 28.54669 h 18.63423 c 16.58742,0 18.67987,0.04567 19.05,0.415767 0.37473,0.374729 0.41577,4.878202 0.41577,45.621741 0,40.74352 -0.041,45.24699 -0.41577,45.62172 -0.3747,0.37471 -4.84211,0.41578 -45.22486,0.41578 -40.38275,0 -44.85015,-0.0411 -45.22485,-0.41578 z m 75.51964,-45.62173 V 87.584061 h -30.29479 -30.29479 v 30.691669 30.69167 h 30.29479 30.29479 z m -46.71085,7.34044 c -0.071,-0.18508 -0.0974,-3.60902 -0.0586,-7.60878 l 0.0705,-7.27229 h 16.40416 16.40417 v 7.54063 7.54062 l -16.34555,0.0682 c -13.03176,0.0543 -16.37173,-5e-5 -16.47468,-0.26834 z m -153.90835,-45.63888 -0.0673,-30.625522 h -30.1625 -30.16249 l -0.0673,30.625522 -0.0672,30.62552 h 30.297 30.29701 z m -46.58782,7.432384 c -0.0981,-0.09811 -0.17839,-3.479562 -0.17839,-7.514325 0,-6.44533 0.0508,-7.355417 0.41851,-7.49652 0.63271,-0.242808 31.94245,-0.184547 32.32794,0.06014 0.26002,0.165047 0.31924,1.866794 0.26459,7.602723 l -0.0704,7.390077 -16.29192,0.06816 c -8.96056,0.03746 -16.3722,-0.01217 -16.47031,-0.110252 z m 447.69616,-7.432384 -0.0673,-30.625522 h -30.1625 -30.1625 l -0.0673,30.625522 -0.0673,30.62552 h 30.29702 30.29701 z m -46.58784,7.432384 c -0.0981,-0.09811 -0.17838,-3.479562 -0.17838,-7.514325 0,-6.44533 0.0508,-7.355417 0.41852,-7.49652 0.6327,-0.242808 31.94246,-0.184547 32.32793,0.06014 0.26003,0.165047 0.31924,1.866794 0.26458,7.602723 l -0.0704,7.390077 -16.29193,0.06816 c -8.96053,0.03746 -16.37217,-0.01217 -16.47031,-0.110252 z m -29.14861,-88.26259502 c 0.0792,-0.32742188 0.11123,-10.17984398 0.0712,-21.89427198 l -0.0728,-21.298959 H -489.4036 -644.44943 l -0.0728,21.298959 c -0.0401,11.714428 -0.008,21.5668501 0.0712,21.89427198 l 0.14401,0.59531252 h 154.90346 154.90346 z m -263.2,-13.87535898 c -0.43461,-0.113321 -0.46222,-0.640398 -0.39688,-7.576079 l 0.0702,-7.454292 h 26.32605 26.32604 l 0.0706,7.276042 c 0.0641,6.60572 0.029,7.306522 -0.3813,7.606771 -0.35486,0.259688 -5.93958,0.324141 -25.99981,0.300037 -14.05132,-0.01693 -25.75806,-0.08549 -26.01497,-0.152479 z m 81.97767,-0.232595 c -0.35653,-0.356526 -0.41577,-1.390253 -0.41577,-7.254399 0,-3.761264 0.0723,-7.026963 0.1606,-7.257151 0.14495,-0.377746 2.71981,-0.418518 26.43002,-0.418518 23.71021,0 26.28509,0.04077 26.43002,0.418518 0.0883,0.230188 0.16061,3.495887 0.16061,7.257151 0,5.864146 -0.0592,6.897873 -0.41577,7.254399 -0.37229,0.372269 -3.11028,0.415766 -26.17486,0.415766 -23.06456,0 -25.80257,-0.0435 -26.17485,-0.415766 z m 82.31258,0.08504 c -0.41029,-0.300249 -0.44542,-1.001051 -0.38129,-7.606771 l 0.0706,-7.276042 h 26.32605 26.32604 l 0.0702,7.442544 0.0702,7.442571 -0.59936,0.160602 c -0.32967,0.08832 -12.0364,0.162216 -26.01497,0.1642 -19.91966,0.0029 -25.51329,-0.06789 -25.86752,-0.327104 z m 98.71049,-86.915635 0.0669,-42.13489 h -154.91435 -154.91435 v 42.02465 c 0,23.113565 0.0795,42.104121 0.17661,42.201276 0.0971,0.09713 69.77847,0.146738 154.8474,0.110226 l 154.67078,-0.06636 z m 0.26532,-79.14757 c 0.0494,-15.68988 -0.0132,-21.63218 -0.23082,-21.89427 -0.41569,-0.50086 -309.24261,-0.54296 -309.74334,-0.0422 -0.24173,0.24172 -0.3175,5.44061 -0.3175,21.78403 0,11.80659 0.0795,21.546 0.17661,21.64314 0.0971,0.0971 69.89753,0.14674 155.11198,0.11024 l 154.93536,-0.0664 z m -210.89591,7.20357 c -0.0974,-0.0974 -0.177,-3.47817 -0.177,-7.51293 0,-6.44534 0.0508,-7.35543 0.41851,-7.49653 0.63502,-0.24368 110.78901,-0.18409 111.17377,0.0601 0.26003,0.16504 0.31924,1.8668 0.26458,7.60272 l -0.0704,7.39008 -55.71622,0.0668 c -30.64392,0.0367 -55.79588,-0.0129 -55.89323,-0.11024 z m 210.90115,-63.19194 c 0.0401,-10.04094 0.008,-18.52414 -0.0712,-18.85156 l -0.14415,-0.59531 h -154.88019 c -140.98641,0 -154.8946,0.0375 -155.04079,0.41851 -0.2099,0.54699 -0.20982,36.45162 8e-5,36.99861 0.14635,0.38138 13.98704,0.41282 155.11198,0.35237 l 154.95129,-0.0664 z m -288.68729,6.94531 c -0.41031,-0.30026 -0.44543,-1.00105 -0.3813,-7.60677 l 0.0706,-7.27604 h 7.40834 7.40833 l 0.0702,7.44256 0.0702,7.44256 -0.59938,0.1606 c -0.32966,0.0883 -3.52342,0.16223 -7.09725,0.16421 -4.78574,0.003 -6.61695,-0.0835 -6.94981,-0.32712 z m 29.64932,0.14756 c -0.43461,-0.11331 -0.46222,-0.64039 -0.39687,-7.57608 l 0.0702,-7.45429 h 7.40833 7.40834 l 0.0706,7.27604 c 0.0641,6.60572 0.029,7.30651 -0.3813,7.60677 -0.3359,0.24582 -2.15428,0.32285 -7.0821,0.30004 -3.64659,-0.0169 -6.84036,-0.0855 -7.09727,-0.15248 z m 29.50086,-0.0376 c -0.26002,-0.16504 -0.31924,-1.86679 -0.26458,-7.60272 l 0.0704,-7.39008 h 7.40833 7.40834 l 0.0706,7.27604 c 0.0641,6.60572 0.029,7.30651 -0.3813,7.60677 -0.51801,0.37909 -13.72796,0.4806 -14.31184,0.10999 z"
         style="fill:#feceb3;stroke-width:0.26458335" />
      <path
         id="path4672"
         d="m -534.65718,163.71869 c -0.0693,-0.18233 -0.0955,-20.75072 -0.0581,-45.70754 l 0.0679,-45.376048 18.78542,-0.132291 18.78541,-0.132292 V 43.663226 14.955934 l -42.53177,-0.06694 -42.53177,-0.06697 V 50.69127 c 0,24.219589 -0.0889,36.035458 -0.27389,36.381004 -0.26839,0.501517 -0.89527,0.511783 -31.21908,0.511783 h -30.94519 l -0.0679,18.983863 -0.0679,18.98385 -45.31065,0.0669 -45.31065,0.0669 0.0669,-45.707517 0.0669,-45.707539 h 45.24375 45.24376 l 0.13229,19.05 0.13229,19.050001 h 23.54792 23.54791 V 43.663226 14.955934 l -30.95625,-0.132292 -30.95625,-0.132292 v -143.0073 -143.00729 h 169.8625 169.8625 v 143.00729 143.0073 l -30.95625,0.132292 -30.95625,0.132292 v 28.707292 28.707293 h 23.54792 23.54791 l 0.1323,-19.050001 0.13229,-19.05 h 45.24375 45.24375 l 0.0669,45.707539 0.0669,45.707513 -45.31067,-0.0669 -45.31063,-0.0669 -0.0679,-18.98385 -0.0679,-18.983859 h -30.94519 c -30.32381,0 -30.95069,-0.01032 -31.21908,-0.511783 -0.18495,-0.345546 -0.2739,-12.161415 -0.2739,-36.381004 V 14.822028 l -42.53177,0.06697 -42.53177,0.06694 V 43.66323 72.370523 l 18.78541,0.132292 18.78542,0.132291 v 45.640624 45.64063 l -45.18561,0.0669 c -36.00943,0.0533 -45.21122,0 -45.31167,-0.26458 z m 75.68061,-45.44296 V 87.716353 h -30.42708 -30.42708 l -0.0681,30.294797 c -0.0375,16.66213 -0.0113,30.44412 0.0583,30.62663 0.10052,0.26395 6.33966,0.31808 30.49519,0.26458 l 30.36881,-0.0673 z m -46.84329,7.07549 c -0.0711,-0.18529 -0.0975,-3.4902 -0.0586,-7.34423 l 0.0707,-7.0073 h 16.40416 16.40417 v 7.27604 7.27604 l -16.34555,0.0682 c -13.04152,0.0544 -16.37168,8e-5 -16.47483,-0.26871 z M -659.6943,110.5082 c 0.21813,-0.26284 0.28006,-8.51382 0.23083,-30.757817 l -0.0673,-30.398615 h -30.42709 -30.42708 l -0.0673,30.543078 c -0.0534,24.259674 10e-4,30.586414 0.26458,30.753764 0.18252,0.11586 13.8011,0.21251 30.26352,0.21474 24.89108,0.003 29.98186,-0.0564 30.22976,-0.35515 z m -46.50738,-23.287253 c -0.21295,-0.256593 -0.28067,-2.449327 -0.23083,-7.474479 l 0.0705,-7.111366 h 16.40416 16.40417 l 0.0705,7.111366 c 0.0498,5.025152 -0.0179,7.217886 -0.23083,7.474479 -0.24933,0.300408 -3.05413,0.363114 -16.24387,0.363114 -13.18973,0 -15.99453,-0.06271 -16.24386,-0.363114 z m 447.58196,23.427663 c 0.26357,-0.16735 0.318,-6.49409 0.26458,-30.753764 l -0.0673,-30.543078 h -30.42708 -30.42709 l -0.0673,30.398615 c -0.0492,22.243997 0.0127,30.494977 0.23082,30.757817 0.24791,0.29871 5.33868,0.35851 30.22976,0.35515 16.46243,-0.003 30.08101,-0.0989 30.26352,-0.21474 z m -46.47362,-23.427663 c -0.21296,-0.256593 -0.28067,-2.449327 -0.23085,-7.474479 l 0.0705,-7.111366 h 16.40417 16.40416 l 0.0705,7.111366 c 0.0498,5.025152 -0.018,7.217886 -0.23085,7.474479 -0.24931,0.300408 -3.05411,0.363114 -16.24385,0.363114 -13.18975,0 -15.99454,-0.06271 -16.24386,-0.363114 z m -29.26448,-109.571265 v -21.960417 h -155.04583 -155.04583 l -0.0683,21.695834 c -0.0376,11.932709 -0.0115,21.84476811 0.0579,22.02677499 0.10091,0.26447751 31.26258,0.3176323 155.11418,0.26458334 l 154.9879,-0.0663575 z m -263.4809,7.364228 c -0.097,-0.097 -0.17639,-3.356637 -0.17639,-7.24363 0,-5.631869 0.073,-7.127849 0.35942,-7.365551 0.26252,-0.217884 7.34184,-0.280114 26.25989,-0.230822 l 25.90048,0.06744 0.0703,7.474479 0.0703,7.47448 h -26.15378 c -14.38457,0 -26.23314,-0.07938 -26.33016,-0.176398 z m 82.22907,-0.156977 c -0.0709,-0.184785 -0.0972,-3.548883 -0.0583,-7.475776 l 0.0706,-7.139808 h 26.19375 26.19375 v 7.408333 7.408334 l -26.13541,0.06744 c -20.9307,0.054 -26.16109,0 -26.26434,-0.268525 z m 82.22739,-7.139808 0.0703,-7.475776 25.90048,-0.06744 c 19.09342,-0.04974 25.99603,0.01191 26.26408,0.234288 0.29533,0.24511 0.35039,1.648883 0.29326,7.475802 l -0.0703,7.174019 -26.26403,0.06744 -26.26402,0.06742 z m 99.09141,-79.282055 c 0.0491,-30.75424 -0.0122,-42.00387 -0.23085,-42.26719 -0.415,-0.50006 -309.24264,-0.54126 -309.74257,-0.0413 -0.24427,0.24427 -0.3175,9.96793 -0.3175,42.15695 0,23.011695 0.0795,41.918908 0.17661,42.016063 0.0971,0.09713 69.89753,0.146738 155.11198,0.110226 l 154.93536,-0.06636 z m -0.067,-79.53539 v -21.96042 h -155.04583 -155.04583 l -0.0683,21.69583 c -0.0376,11.93271 -0.0115,21.84477 0.0579,22.02679 0.10091,0.26447 31.26258,0.31762 155.11418,0.26459 l 154.9879,-0.0664 z m -210.71261,7.1775 c -0.21295,-0.2566 -0.28067,-2.44933 -0.23083,-7.47448 l 0.0705,-7.11136 h 55.82708 55.82708 l 0.0705,7.11136 c 0.0498,5.02515 -0.018,7.21788 -0.23085,7.47448 -0.25365,0.30566 -9.06303,0.36312 -55.66677,0.36312 -46.60373,0 -55.4131,-0.0575 -55.66678,-0.36312 z m 210.42639,-44.51206 c 0.37624,-0.14437 0.41852,-2.06944 0.41852,-19.05023 v -18.88962 l -155.11198,0.0664 -155.11198,0.0664 -0.0679,18.76869 c -0.0537,14.83988 0.002,18.81289 0.26459,18.97981 0.38292,0.2431 308.97577,0.30152 309.60879,0.0586 z m -288.61047,-11.89958 c -0.28337,-0.73846 -0.18038,-13.60223 0.11329,-14.15097 0.26012,-0.48603 0.62342,-0.51177 7.22313,-0.51177 5.05218,0 7.03591,0.0867 7.26673,0.3175 0.23049,0.23048 0.3175,2.18241 0.3175,7.12211 0,3.74254 -0.0723,6.99294 -0.1606,7.22313 -0.14101,0.36748 -1.04093,0.41851 -7.38002,0.41851 -6.3391,0 -7.23901,-0.051 -7.38003,-0.41851 z m 29.63334,0 c -0.0883,-0.23019 -0.1606,-3.48059 -0.1606,-7.22313 0,-4.9397 0.087,-6.89163 0.3175,-7.12211 0.45216,-0.45217 13.99408,-0.45217 14.44625,0 0.23048,0.23048 0.3175,2.18241 0.3175,7.12211 0,3.74254 -0.0723,6.99294 -0.1606,7.22313 -0.14102,0.36748 -1.04093,0.41851 -7.38003,0.41851 -6.33909,0 -7.23901,-0.051 -7.38002,-0.41851 z m 29.64912,0.24212 c -0.097,-0.097 -0.17639,-3.35665 -0.17639,-7.24364 0,-5.66811 0.0719,-7.12694 0.36321,-7.3687 0.25643,-0.21282 2.41492,-0.28068 7.34219,-0.23083 l 6.97897,0.0706 0.0703,7.47448 0.0703,7.47448 h -7.23607 c -3.97983,0 -7.31544,-0.0794 -7.41245,-0.17639 z"
         style="fill:#feb890;stroke-width:0.26458335" />
      <path
         id="path4670"
         d="m -534.46219,163.73115 c -0.49577,-0.49578 -0.45798,-90.517801 0.0382,-90.929572 0.25252,-0.20955 5.75831,-0.314881 18.98386,-0.363114 l 18.62818,-0.06794 0.0683,-28.575001 c 0.0636,-26.629784 0.0377,-28.597517 -0.38129,-28.90573 -0.35522,-0.261303 -9.25928,-0.330729 -42.4172,-0.330729 -33.15877,0 -42.06164,0.06943 -42.4156,0.330729 -0.41655,0.307525 -0.4526,2.856071 -0.51359,36.314064 l -0.0656,35.983334 -30.79818,0.06726 c -22.1337,0.04834 -30.89799,0.150072 -31.15294,0.361659 -0.28934,0.240136 -0.36727,3.764545 -0.42265,19.11504 l -0.0679,18.82063 -45.04008,0.0669 -45.04008,0.0669 -0.14377,-0.59605 c -0.0791,-0.32785 -0.1112,-20.83671 -0.0714,-45.575253 l 0.0724,-44.979168 45.17761,-0.06691 45.1776,-0.06689 0.004,18.720012 c 0.002,10.296023 0.0989,18.869502 0.21494,19.052197 0.16715,0.263287 5.11855,0.318135 23.87459,0.264584 l 23.66371,-0.06758 0.0673,-28.560581 c 0.0466,-19.755063 -0.0187,-28.646597 -0.21163,-28.839585 -0.19087,-0.190896 -10.02949,-0.32078 -31.15587,-0.411294 l -30.87692,-0.132292 -0.0664,-142.72695 c -0.053,-114.00718 2.1e-4,-142.76923 0.26459,-142.9371 0.43278,-0.2748 338.89582,-0.2748 339.3286,0 0.26437,0.16787 0.31763,28.92992 0.26459,142.9371 l -0.0664,142.72695 -30.8769,0.132292 c -21.1264,0.09051 -30.96501,0.220398 -31.1559,0.411294 -0.19294,0.192988 -0.25818,9.084522 -0.21162,28.839585 l 0.0673,28.560581 23.6637,0.06758 c 18.75604,0.05355 23.70746,0 23.87459,-0.264584 0.116,-0.182695 0.21273,-8.756174 0.21495,-19.052197 l 0.004,-18.720012 45.1776,0.06689 45.17761,0.06691 0.0724,44.979168 c 0.0398,24.738543 0.008,45.247403 -0.0714,45.575253 l -0.14377,0.59605 -45.0401,-0.0669 -45.04008,-0.0669 -0.0679,-18.82063 c -0.0554,-15.350495 -0.13332,-18.874904 -0.42267,-19.11504 -0.25493,-0.211587 -9.01922,-0.313319 -31.15292,-0.361659 l -30.79811,-0.06726 -0.0656,-35.983334 c -0.061,-33.457993 -0.097,-36.006539 -0.5136,-36.314064 -0.35396,-0.261303 -9.25682,-0.330729 -42.4156,-0.330729 -33.15792,0 -42.06198,0.06943 -42.41719,0.330729 -0.41898,0.308213 -0.44494,2.275946 -0.3813,28.90573 l 0.0683,28.575001 18.62818,0.06794 c 13.22554,0.04823 18.73134,0.153564 18.98385,0.363114 0.49618,0.411771 0.53396,90.433792 0.0382,90.929572 -0.46177,0.46177 -89.65531,0.46177 -90.11708,0 z m 75.48562,-45.45542 V 87.451769 h -30.42708 -30.42708 l -0.0681,30.559381 c -0.0375,16.80765 -0.0112,30.7087 0.0583,30.89121 0.10052,0.26395 6.33965,0.31808 30.49519,0.26459 l 30.36881,-0.0673 z m -46.57869,7.07551 c -0.0711,-0.18531 -0.0975,-3.49022 -0.0586,-7.34425 l 0.0707,-7.0073 h 16.13958 16.13958 v 7.27604 7.27604 l -16.08095,0.0682 c -12.82807,0.0544 -16.10711,3e-5 -16.21024,-0.26874 z M -659.46347,80.059734 c 0.0534,-24.365506 -10e-4,-30.718708 -0.26459,-30.886057 -0.38289,-0.243099 -59.73966,-0.300302 -60.37062,-0.05818 -0.37829,0.145151 -0.41851,3.103166 -0.41851,30.779854 0,16.840597 0.0799,30.699149 0.1775,30.796759 0.0976,0.0976 13.81958,0.14724 30.49323,0.11025 l 30.31573,-0.0673 z m -46.70426,-0.08244 0.0703,-7.342188 h 16.13958 16.13959 l 0.0703,7.342188 0.0703,7.342188 h -16.28024 -16.28025 z m 447.81259,0.08244 c 0.0534,-24.365506 0,-30.718708 -0.26458,-30.886057 -0.38288,-0.243099 -59.73967,-0.300302 -60.37062,-0.05818 -0.3783,0.145151 -0.41852,3.103166 -0.41852,30.779854 0,16.840597 0.0799,30.699149 0.17751,30.796759 0.0976,0.0976 13.81956,0.14724 30.49323,0.11025 l 30.31572,-0.0673 z m -46.70425,-0.08244 0.0703,-7.342188 h 16.13959 16.13958 l 0.0703,7.342188 0.0703,7.342188 h -16.28023 -16.28024 z m -29.17545,-80.48209872 c 0.29626,-0.55353478 0.40611,-42.75664128 0.1133,-43.51970028 -0.14618,-0.380973 -14.07565,-0.418518 -155.28211,-0.418518 -141.20645,0 -155.13591,0.03755 -155.28211,0.418518 -0.29281,0.763059 -0.18295,42.9661655 0.11329,43.51970028 0.27032,0.50508960175 2.29954,0.51178356 155.16882,0.51178356 152.86929,0 154.89852,-0.006614583 155.16881,-0.51178356 z M -597.41979,-14.984926 c -0.2533,-0.102208 -0.33073,-1.832054 -0.33073,-7.388728 v -7.255298 l 26.1276,0.06744 26.1276,0.06744 0.0706,7.125415 c 0.0547,5.52413 -0.005,7.173198 -0.26458,7.338139 -0.35701,0.22659 -51.17086,0.271384 -51.73045,0.04559 z m 81.98262,-0.187986 c -0.21282,-0.256435 -0.28068,-2.414905 -0.23083,-7.342188 l 0.0706,-6.978968 h 26.19375 26.19375 l 0.0706,6.978968 c 0.0498,4.927283 -0.018,7.085753 -0.23085,7.342188 -0.25175,0.303344 -4.54329,0.36322 -26.03352,0.36322 -21.49022,0 -25.78177,-0.05988 -26.03352,-0.36322 z m 82.31921,0.142398 c -0.25982,-0.164941 -0.31928,-1.814009 -0.26459,-7.338139 l 0.0706,-7.125415 26.1276,-0.06744 26.12761,-0.06744 v 7.249028 c 0,6.366086 -0.051,7.268607 -0.41852,7.40963 -0.63408,0.24331 -51.25747,0.184282 -51.64267,-0.06022 z m 98.76014,-86.694806 v -42.33333 h -155.04583 -155.04583 l -0.0679,42.06875 c -0.0374,23.13781 -0.0113,42.217682 0.0579,42.399689 0.10059,0.264477 31.26201,0.317632 155.11378,0.264583 l 154.9879,-0.06636 z m 0.23628,-57.70081 c 0.29281,-0.76306 0.18296,-42.96618 -0.1133,-43.51971 -0.2703,-0.50508 -2.29952,-0.51178 -155.16881,-0.51178 -152.86928,0 -154.8985,0.007 -155.16882,0.51178 -0.29575,0.55263 -0.39883,42.25443 -0.10712,43.34291 l 0.15953,0.59532 h 155.11896 c 141.20412,0 155.13338,-0.0376 155.27956,-0.41852 z m -210.91494,-21.74034 0.0703,-7.34219 h 55.5625 55.5625 l 0.0703,7.34219 0.0703,7.34219 h -55.70315 -55.70316 z m 210.91494,-37.52633 c 0.0883,-0.23018 0.1606,-8.71934 0.1606,-18.86479 0,-13.99433 -0.0766,-18.52291 -0.3175,-18.76378 -0.24622,-0.24622 -35.08169,-0.3175 -155.16882,-0.3175 -152.82616,0 -154.85489,0.007 -155.12521,0.51178 -0.29561,0.55235 -0.39803,36.17199 -0.10712,37.2575 l 0.15953,0.59531 h 155.11896 c 141.20412,0 155.13338,-0.0375 155.27956,-0.41852 z m -288.70266,-11.44151 c -0.25978,-0.1668 -0.31928,-1.81748 -0.26459,-7.34061 l 0.0706,-7.12541 7.21409,-0.0704 7.21408,-0.0704 -0.0703,7.34645 -0.0703,7.34645 -6.87917,0.0646 c -3.78354,0.0355 -7.02998,-0.0323 -7.2143,-0.15064 z m 29.4834,0.042 c -0.097,-0.097 -0.17639,-3.43268 -0.17639,-7.41258 v -7.2362 l 7.2099,0.0704 7.20989,0.0704 0.0706,7.12541 c 0.0547,5.52413 -0.005,7.17322 -0.26459,7.33814 -0.40183,0.25506 -13.79638,0.29743 -14.04937,0.0444 z m 29.63333,0 c -0.097,-0.097 -0.17639,-3.43268 -0.17639,-7.41258 v -7.2362 l 7.2099,0.0704 7.20989,0.0704 0.0706,7.12541 c 0.0547,5.52413 -0.005,7.17322 -0.26458,7.33814 -0.40184,0.25506 -13.79639,0.29743 -14.04938,0.0444 z"
         style="fill:#fea776;stroke-width:0.26458335" />
      <path
         id="path4668"
         d="m -534.3926,163.4541 c -0.0693,-0.18232 -0.0955,-20.63165 -0.0581,-45.44295 l 0.0679,-45.111464 18.78542,-0.132292 18.78542,-0.132292 V 43.663226 14.69135 l -42.56984,-0.06694 c -31.24333,-0.04916 -42.6653,0.01217 -42.92864,0.230822 -0.29881,0.247994 -0.35881,6.310154 -0.35881,36.248712 v 35.950949 h -30.6411 c -24.09789,0 -30.73663,0.07062 -31.08847,0.33073 -0.41169,0.30435 -0.45264,1.828773 -0.51359,19.116147 l -0.0662,18.78542 -45.04606,0.0669 -45.04607,0.0669 0.0669,-45.442934 0.0669,-45.442956 h 44.97916 44.97917 l 0.13229,19.050001 0.1323,19.05 h 23.8125 23.81249 V 43.663226 14.69135 l -31.02239,-0.06723 -31.0224,-0.06726 v -142.8739 -142.87391 h 169.73021 169.73021 v 142.87391 142.873903 l -31.0224,0.06726 -31.02239,0.06723 v 28.971876 28.971876 h 23.8125 23.8125 l 0.13229,-19.05 0.13229,-19.050001 h 44.97917 44.97916 l 0.0669,45.442956 0.0669,45.44293 -45.04608,-0.0669 -45.04605,-0.0669 -0.0662,-18.78542 c -0.0609,-17.28737 -0.10189,-18.811793 -0.51359,-19.116143 -0.35184,-0.260112 -6.99058,-0.33073 -31.08846,-0.33073 h -30.6411 v -35.93042 c 0,-27.593106 -0.0737,-36.004078 -0.3175,-36.247918 -0.24432,-0.244317 -10.12264,-0.3175 -42.85319,-0.3175 -41.78301,0 -42.54054,0.009 -42.80959,0.511783 -0.43162,0.806477 -0.37616,56.663328 0.0568,57.249009 0.30431,0.411639 1.82088,0.452676 18.98385,0.513609 l 18.65313,0.06623 v 45.37604 45.37604 l -44.92103,0.0669 c -35.79775,0.0533 -44.94663,0 -45.04709,-0.26459 z m 75.30113,-14.23143 c 0.50146,-0.26837 0.51178,-0.89218 0.51178,-30.94694 0,-30.054764 -0.0103,-30.678572 -0.51178,-30.946939 -0.34409,-0.18415 -10.27597,-0.273897 -30.31218,-0.273897 -20.0362,0 -29.9681,0.08975 -30.31218,0.273897 -0.50146,0.268367 -0.51178,0.892149 -0.51178,30.943099 0,28.92965 0.0263,30.6845 0.46302,30.9389 0.64814,0.3775 59.96824,0.38912 60.67312,0.0119 z m -46.46395,-24.13643 c -0.0712,-0.18553 -0.0976,-3.37138 -0.0586,-7.07965 l 0.0708,-6.74232 h 16.13958 16.13958 v 7.01146 7.01146 l -16.08095,0.0682 c -12.83832,0.0544 -16.10705,1.6e-4 -16.2104,-0.26916 z m -153.87431,-14.31343 c 0.21815,-0.26287 0.28006,-8.5828 0.23084,-31.0224 l -0.0673,-30.663225 h -30.69167 -30.69166 l -0.0673,30.663225 c -0.0492,22.4396 0.0127,30.75953 0.23084,31.0224 0.44446,0.53554 60.61172,0.53554 61.05617,0 z m -46.73814,-30.793483 0.0705,-7.079641 h 16.13958 16.13959 v 7.011458 7.011459 l -16.21006,0.06818 -16.21005,0.06818 z m 447.84649,30.793483 c 0.21812,-0.26287 0.28003,-8.5828 0.23082,-31.0224 l -0.0673,-30.663225 h -30.69166 -30.69167 l -0.0673,30.663225 c -0.0492,22.4396 0.0127,30.75953 0.23083,31.0224 0.44447,0.53554 60.61173,0.53554 61.0562,0 z m -46.68065,-24.053196 c -0.0708,-0.184414 -0.0968,-3.369336 -0.0579,-7.077604 l 0.0708,-6.742324 h 16.13958 16.13958 l 0.0705,7.077604 0.0705,7.077604 h -16.15224 c -12.79469,0 -16.17892,-0.06969 -16.28084,-0.33528 z m -29.0912,-109.069932 v -22.225 h -155.31042 -155.31041 l -0.0683,21.960417 c -0.0376,12.07823 -0.0115,22.10935145 0.0579,22.29135833 0.1009,0.26447751 31.31548,0.3176323 155.37875,0.26458334 l 155.25249,-0.0663575 z m -263.4809,7.099645 c -0.097,-0.097 -0.17639,-3.309435 -0.17639,-7.138697 v -6.962326 l 0.59531,-0.14388 c 0.32742,-0.07914 12.02531,-0.111178 25.99531,-0.07117 l 25.4,0.07268 0.0704,7.209896 0.0704,7.209896 h -25.88932 c -14.23913,0 -25.9687,-0.07938 -26.06571,-0.176397 z m 82.22892,-0.157375 c -0.071,-0.184996 -0.0973,-3.430058 -0.0583,-7.211192 l 0.0707,-6.874828 h 25.92916 25.92917 v 7.14375 7.143751 l -25.87083,0.06744 c -20.73341,0.05405 -25.89645,0 -25.9999,-0.268923 z m 82.22741,-6.874827 0.0704,-7.211193 25.4,-0.07268 c 13.97,-0.04 25.66982,-0.0074 25.99963,0.07226 l 0.59962,0.144965 -0.0705,7.071466 -0.0705,7.071493 -25.99957,0.06744 -25.99957,0.06744 z m 99.09153,-79.282065 c 0.0491,-30.94987 -0.0122,-42.26844 -0.23084,-42.53177 -0.415,-0.50006 -309.77181,-0.54126 -310.27175,-0.0413 -0.24428,0.24428 -0.3175,10.02673 -0.3175,42.42153 0,23.157224 0.0795,42.183492 0.17662,42.280647 0.0971,0.09713 70.01658,0.146738 155.37656,0.110225 l 155.19995,-0.06636 z m -0.067,-79.53538 v -22.225 H -489.40369 -644.7141 l -0.0683,21.96041 c -0.0376,12.07823 -0.0115,22.10935 0.0579,22.29138 0.1009,0.26446 31.31548,0.31761 155.37875,0.26458 l 155.25249,-0.0664 z m -210.88566,6.67679 c -0.0709,-0.18475 -0.097,-3.36995 -0.0581,-7.07822 l 0.0708,-6.74232 h 55.5625 55.5625 v 7.01146 7.01145 l -55.50442,0.0668 c -44.66407,0.0537 -55.52959,0.001 -55.63332,-0.26914 z m 210.59943,-43.74677 c 0.37627,-0.14438 0.41852,-2.08025 0.41852,-19.17298 0,-18.5262 -0.0132,-19.01939 -0.51178,-19.28628 -0.71721,-0.38385 -309.14463,-0.38385 -309.86186,0 -0.49869,0.26689 -0.51178,0.76015 -0.51178,19.29254 0,14.96735 0.0705,19.04707 0.33073,19.15209 0.47651,0.19228 309.63524,0.20686 310.13617,0.0146 z m -288.44459,-19.2158 0.0704,-7.21423 6.77698,-0.0705 c 5.52635,-0.0575 6.83329,-0.003 7.08214,0.29716 0.21733,0.26188 0.28482,2.33813 0.23448,7.21429 l -0.0707,6.8466 -7.08187,0.0705 -7.08186,0.0705 z m 29.48325,7.02918 c -0.097,-0.097 -0.17639,-3.23759 -0.17639,-6.97906 0,-5.44553 0.0725,-6.86285 0.3634,-7.10427 0.25608,-0.21253 2.34611,-0.2807 7.0776,-0.23084 l 6.71421,0.0708 0.0704,7.2099 0.0704,7.2099 h -6.97161 c -3.83439,0 -7.05099,-0.0794 -7.148,-0.17639 z m 29.63333,0 c -0.097,-0.097 -0.17639,-3.23759 -0.17639,-6.97906 0,-5.44553 0.0725,-6.86285 0.3634,-7.10427 0.25609,-0.21253 2.34612,-0.2807 7.0776,-0.23084 l 6.71421,0.0708 0.0704,7.2099 0.0704,7.2099 h -6.97162 c -3.83438,0 -7.05098,-0.0794 -7.148,-0.17639 z"
         style="fill:#fe8d4c;stroke-width:0.26458335" />
      <path
         id="path4666"
         d="M -534.25052,118.27573 V 73.031977 l 18.58698,-0.004 c 10.22283,-0.0026 18.73633,-0.09887 18.91888,-0.214789 0.26352,-0.167296 0.31803,-6.203077 0.26458,-29.298557 l -0.0673,-29.087896 -42.93489,-0.06694 -42.93489,-0.06694 -0.25834,0.679476 c -0.16343,0.429842 -0.25834,13.795349 -0.25834,36.379919 v 35.700415 l -31.02239,0.06726 -31.0224,0.06723 -0.0679,18.983855 -0.0679,18.98386 h -44.84513 -44.84512 V 79.911144 34.667393 h 44.84687 44.84688 v 18.864792 c 0,14.319833 0.0765,18.941283 0.3175,19.182292 0.24225,0.242253 5.90153,0.316548 23.87865,0.313452 12.95863,-0.0026 23.7105,-0.09888 23.89304,-0.214789 0.26353,-0.167296 0.31803,-6.203077 0.26459,-29.298557 l -0.0673,-29.087816 -31.0224,-0.06723 -31.02239,-0.06726 V -128.31704 -270.92637 h 169.46562 169.46563 v 142.60933 142.609319 l -31.0224,0.06726 -31.0224,0.06723 -0.0673,29.087816 c -0.0534,23.09548 0,29.131261 0.26459,29.298557 0.18253,0.115914 10.93441,0.212567 23.89304,0.214789 17.97711,0.0032 23.63639,-0.0712 23.87864,-0.313452 0.24101,-0.241009 0.3175,-4.862459 0.3175,-19.182292 V 34.667393 h 44.84688 44.84687 V 79.911144 125.1549 h -44.84513 -44.84512 l -0.0679,-18.98386 -0.0679,-18.983854 -31.02239,-0.06723 -31.0224,-0.06726 V 51.352283 c 0,-22.58457 -0.0949,-35.950077 -0.25834,-36.379919 l -0.25834,-0.679476 -42.93489,0.06694 -42.93489,0.06694 -0.0673,29.087816 c -0.0534,23.09548 0.001,29.131261 0.26459,29.298557 0.18254,0.115914 8.69604,0.212567 18.91888,0.214789 l 18.58698,0.004 v 45.24375 45.24375 h -44.84688 -44.84687 v -45.24375 z m 75.77481,30.80232 c 0.20992,-0.54703 0.20992,-61.057612 0,-61.604638 -0.14518,-0.378301 -3.11621,-0.418518 -30.92794,-0.418518 -27.81172,0 -30.78277,0.04022 -30.92794,0.418518 -0.20992,0.547026 -0.20992,61.057608 0,61.604638 0.14517,0.3783 3.11622,0.41851 30.92794,0.41851 27.81173,0 30.78276,-0.0402 30.92794,-0.41851 z m -46.93523,-30.80232 v -6.87917 h 16.00729 16.00729 v 6.87917 6.87917 h -16.00729 -16.00729 z m -153.87411,-7.29493 c 0.37319,-0.3732 0.41578,-3.55219 0.41578,-31.03563 0,-23.462669 -0.0742,-30.694076 -0.3175,-30.93736 -0.24329,-0.243285 -7.4726,-0.3175 -30.92795,-0.3175 -27.66864,0 -30.62587,0.04022 -30.77104,0.418518 -0.0883,0.230187 -0.1606,14.214105 -0.1606,31.075393 0,28.917899 0.0263,30.672169 0.46302,30.926569 0.30696,0.17877 10.64572,0.27238 30.67277,0.27773 27.11755,0.007 30.25231,-0.0345 30.62552,-0.40772 z m -46.50161,-24.10024 c -0.0981,-0.09813 -0.17845,-3.254216 -0.17845,-7.013522 v -6.835061 h 16.01169 16.01168 l -0.0705,6.945313 -0.0705,6.945313 -15.76269,0.06821 c -8.66948,0.03752 -15.843,-0.01217 -15.94115,-0.110252 z m 447.51394,24.24211 c 0.50146,-0.26837 0.51178,-0.89205 0.51178,-30.934613 0,-16.863404 -0.0723,-30.849042 -0.1606,-31.079229 -0.14515,-0.378302 -3.1024,-0.418518 -30.77104,-0.418518 -23.45534,0 -30.68466,0.07422 -30.92794,0.3175 -0.24329,0.243284 -0.3175,7.474691 -0.3175,30.93736 0,27.48344 0.0426,30.66243 0.41576,31.03563 0.37312,0.37311 3.51047,0.41576 30.57679,0.41576 20.28475,0 30.32858,-0.0897 30.67275,-0.27389 z m -46.40559,-24.24211 c -0.0982,-0.09813 -0.17846,-3.254216 -0.17846,-7.013522 v -6.835061 h 16.01168 16.01168 l -0.0705,6.945313 -0.0705,6.945313 -15.76269,0.06821 c -8.66949,0.03752 -15.84301,-0.01217 -15.94114,-0.110252 z m -29.08268,-109.082023 c 0.0536,-17.697662 -0.003,-22.384597 -0.26459,-22.551682 -0.18272,-0.11602 -70.10881,-0.212778 -155.3913,-0.215 -120.25322,-0.0032 -155.13033,0.06723 -155.37656,0.313452 -0.24188,0.241882 -0.3175,5.587603 -0.3175,22.445478 0,12.17041 0.0795,22.20745859 0.17661,22.30461359 0.0971,0.09712855 70.13565,0.14673792 155.64115,0.11022542 l 155.46453,-0.0663575 z m -263.6632,-0.08271 0.0705,-6.945312 25.73073,-0.06744 25.73073,-0.06747 v 7.012782 7.012755 h -25.80127 -25.80127 z m 82.22367,-0.06615 v -7.011458 h 25.79687 25.79688 v 7.011458 7.011459 h -25.79688 -25.79687 z m 82.28541,0 v -7.012781 l 25.73073,0.06747 25.73073,0.06744 0.0705,6.945313 0.0705,6.945312 h -25.80127 -25.80127 z m 99.05815,-37.062014 c 0.0883,-0.230187 0.1606,-19.395054 0.1606,-42.588613 0,-41.42155 -0.009,-42.17495 -0.51178,-42.44399 -0.71723,-0.38384 -309.6738,-0.38384 -310.39103,0 -0.50269,0.26775 -0.51177,1.02116 -0.51177,42.4427 0,23.193552 0.0723,42.358419 0.1606,42.588607 0.14619,0.380973 14.09897,0.418518 155.54669,0.418518 141.44773,0 155.40051,-0.03755 155.54669,-0.418518 z m -0.13486,-99.424483 c 0.21757,-0.26217 0.28017,-6.37672 0.23083,-22.55574 l -0.0677,-22.19736 h -155.575 -155.575 l -0.0677,22.19606 c -0.0493,16.17901 0.0132,22.29357 0.23083,22.55573 0.44692,0.53851 310.37676,0.53851 310.82366,0 z m -210.84204,-22.39579 v -6.87917 h 55.43021 55.43021 v 6.87917 6.87916 h -55.43021 -55.43021 z m 210.84228,-36.87246 c 0.21725,-0.26177 0.28019,-5.58402 0.23082,-19.51302 l -0.0679,-19.15308 h -155.575 -155.575 l -0.0687,19.18229 c -0.0637,17.79883 -0.0362,19.20615 0.3813,19.51303 0.69769,0.51276 310.24881,0.48365 310.67447,-0.0292 z m -288.62978,-19.35598 v -7.01592 l 6.81302,0.0706 6.81302,0.0706 0.0705,6.94531 0.0705,6.94531 h -6.88356 -6.88356 z m 29.43051,0.0706 0.0705,-6.94531 h 6.87917 6.87917 l 0.0705,6.94531 0.0705,6.94531 h -7.02025 -7.02024 z m 29.63333,0 0.0705,-6.94531 6.81302,-0.0706 6.81302,-0.0706 v 7.01593 7.01592 h -6.88356 -6.88356 z"
         style="fill:#fe8037;stroke-width:0.26458335" />
    </g>
  </g>
</svg>
