<?xml version="1.0" encoding="UTF-8" standalone="no"?>
<!-- Created with Inkscape (http://www.inkscape.org/) -->

<svg
   xmlns:dc="http://purl.org/dc/elements/1.1/"
   xmlns:cc="http://creativecommons.org/ns#"
   xmlns:rdf="http://www.w3.org/1999/02/22-rdf-syntax-ns#"
   xmlns:svg="http://www.w3.org/2000/svg"
   xmlns="http://www.w3.org/2000/svg"
   xmlns:sodipodi="http://sodipodi.sourceforge.net/DTD/sodipodi-0.dtd"
   xmlns:inkscape="http://www.inkscape.org/namespaces/inkscape"
   width="69.999939mm"
   height="70.005707mm"
   viewBox="0 0 69.999936 70.005707"
   version="1.1"
   id="svg8"
   inkscape:version="0.92.4 (5da689c313, 2019-01-14)"
   sodipodi:docname="ds_horizontal_icon_3.svg">
  <defs
     id="defs2" />
  <sodipodi:namedview
     id="base"
     pagecolor="#ffffff"
     bordercolor="#666666"
     borderopacity="1.0"
     inkscape:pageopacity="0.0"
     inkscape:pageshadow="2"
     inkscape:zoom="1.979899"
     inkscape:cx="228.9706"
     inkscape:cy="187.59264"
     inkscape:document-units="mm"
     inkscape:current-layer="layer1"
     showgrid="false"
     fit-margin-top="0"
     fit-margin-left="0"
     fit-margin-right="0"
     fit-margin-bottom="0"
     inkscape:window-width="1920"
     inkscape:window-height="1017"
     inkscape:window-x="-8"
     inkscape:window-y="-8"
     inkscape:window-maximized="1" />
  <metadata
     id="metadata5">
    <rdf:RDF>
      <cc:Work
         rdf:about="">
        <dc:format>image/svg+xml</dc:format>
        <dc:type
           rdf:resource="http://purl.org/dc/dcmitype/StillImage" />
        <dc:title></dc:title>
      </cc:Work>
    </rdf:RDF>
  </metadata>
  <g
     inkscape:label="Layer 1"
     inkscape:groupmode="layer"
     id="layer1"
     transform="translate(764.39422,-856.25706)">
    <path
       style="fill:#fe8138;stroke-width:0.03837719"
       d="m -729.76946,926.22423 c -0.23492,-0.0664 -0.56817,-0.29582 -0.69377,-0.47773 -0.0539,-0.078 -0.13761,-0.2282 -0.18608,-0.33374 l -0.0881,-0.19189 -0.0103,-7.25052 c -0.007,-4.79898 0.003,-7.32199 0.0288,-7.46186 0.083,-0.4492 0.32746,-0.77891 0.72105,-0.97268 0.23285,-0.11463 0.28879,-0.12634 0.60364,-0.12634 0.31485,0 0.37079,0.0117 0.60364,0.12634 0.39092,0.19245 0.63557,0.52023 0.7198,0.9644 0.0214,0.11295 0.0389,0.7719 0.0389,1.46432 0,0.69242 0.0142,1.26772 0.0316,1.27845 0.0941,0.0582 1.96376,-0.17559 2.90429,-0.36311 1.88373,-0.37558 3.59202,-0.96031 5.3728,-1.83906 5.9312,-2.92684 10.17289,-8.18985 11.76443,-14.5971 0.1666,-0.6707 0.2835,-0.92694 0.51215,-1.12266 0.69223,-0.59252 1.7174,-0.38968 2.11255,0.41798 0.21085,0.43094 0.17065,0.79786 -0.24894,2.27242 -0.88015,3.09319 -2.38217,6.01534 -4.38906,8.53892 -0.67226,0.84534 -1.05183,1.26576 -1.97668,2.18937 -2.03457,2.03189 -4.11514,3.51576 -6.69989,4.77839 -2.8531,1.39371 -5.6389,2.14392 -8.99945,2.42351 l -0.36458,0.0303 -0.0192,4.62445 -0.0192,4.62445 -0.12107,0.25554 c -0.22662,0.47832 -0.62467,0.75371 -1.13205,0.7832 -0.17076,0.01 -0.35426,-0.004 -0.46528,-0.0354 z m -8.45155,-5.33687 c -4.34067,-1.31046 -8.16495,-3.43378 -11.6091,-6.44561 -0.58291,-0.50974 -1.89196,-1.80087 -2.44358,-2.41013 -3.17597,-3.50782 -5.50702,-7.66555 -6.80404,-12.13589 -0.1859,-0.64072 -0.20057,-0.92427 -0.0649,-1.25411 0.22878,-0.5561 0.66268,-0.84959 1.2579,-0.85083 0.61414,-10e-4 1.10163,0.37484 1.29143,0.99643 0.0437,0.14323 0.16091,0.52809 0.26038,0.85526 1.42855,4.69851 4.27955,9.1513 8.03788,12.55382 3.05111,2.76227 6.86633,4.92089 10.70724,6.05807 0.92605,0.27419 0.97899,0.29652 1.2158,0.51295 0.70225,0.64182 0.57066,1.72996 -0.26305,2.17522 -0.21174,0.11308 -0.28448,0.13118 -0.56898,0.14152 -0.30205,0.011 -0.37736,-0.004 -1.017,-0.1967 z m 16.31031,0.16735 c -0.21874,-0.064 -0.53512,-0.28626 -0.67972,-0.47748 -0.46325,-0.61263 -0.34007,-1.4381 0.28547,-1.91303 0.16039,-0.12177 0.28583,-0.16836 1.10423,-0.41021 4.82592,-1.42608 9.45699,-4.39382 12.87337,-8.24967 2.87796,-3.24818 4.91784,-6.98111 6.10266,-11.16776 0.25243,-0.89199 1.14531,-1.3078 1.93712,-0.90211 0.17555,0.0899 0.4346,0.33609 0.54864,0.52131 0.0907,0.14724 0.18294,0.48757 0.18294,0.67467 0,0.32665 -0.62017,2.28941 -1.11663,3.53398 -3.50846,8.79533 -10.89422,15.5558 -19.90807,18.22264 -0.72518,0.21455 -1.03592,0.25372 -1.33001,0.16766 z m -12.81798,-5.62453 c -0.0422,-0.0108 -0.32717,-0.0812 -0.63323,-0.15632 -5.89402,-1.44759 -11.21529,-5.21626 -14.64737,-10.37371 -2.30835,-3.46879 -3.66423,-7.33884 -4.03365,-11.51315 l -0.0662,-0.74836 -4.62445,-0.0192 -4.62446,-0.0192 -0.25554,-0.12107 c -0.30472,-0.14437 -0.52855,-0.36341 -0.67398,-0.65953 -0.0926,-0.18866 -0.10666,-0.2626 -0.10666,-0.5626 0,-0.29999 0.014,-0.37394 0.10666,-0.5626 0.14543,-0.29612 0.36926,-0.51516 0.67398,-0.65953 l 0.25554,-0.12107 7.25105,-0.0102 c 4.78745,-0.007 7.32266,0.003 7.46185,0.0288 0.44868,0.0829 0.77848,0.32752 0.97217,0.72095 0.11456,0.23272 0.12634,0.2889 0.12634,0.60283 0,0.295 -0.0152,0.37854 -0.10248,0.56482 -0.18753,0.40007 -0.54603,0.67556 -0.98826,0.75943 -0.11296,0.0214 -0.7719,0.0389 -1.46432,0.0389 -0.69242,0 -1.26661,0.0129 -1.27598,0.0288 -0.009,0.0158 -0.001,0.21875 0.0175,0.45093 0.50874,6.21838 3.69315,11.95703 8.75419,15.77605 2.36804,1.78691 5.02331,3.05904 7.87963,3.77513 0.40232,0.10085 0.79952,0.21535 0.88268,0.25443 0.37411,0.1758 0.6666,0.60926 0.72911,1.08052 0.0716,0.5397 -0.29838,1.1389 -0.84656,1.37106 -0.15421,0.0653 -0.62426,0.11052 -0.76754,0.0738 z m 5.02741,-10.27626 c -0.19914,-0.0485 -6.56959,-3.36467 -7.12327,-3.70808 -2.23228,-1.3845 -3.6207,-3.72592 -3.73869,-6.30489 -0.013,-0.28372 0.0759,-3.08535 0.22548,-7.10757 0.23863,-6.41676 0.24971,-6.64665 0.33064,-6.8598 0.10095,-0.26588 0.39819,-0.60529 0.62649,-0.71537 0.089,-0.0429 2.31189,-0.76306 4.93977,-1.60032 4.40963,-1.40495 4.79867,-1.5223 5.0466,-1.52219 0.24765,1.1e-4 0.64189,0.11905 5.0466,1.52266 2.62788,0.83741 4.85077,1.5575 4.93977,1.60021 0.22858,0.10971 0.52557,0.44894 0.62596,0.71501 0.0802,0.21263 0.0922,0.46154 0.33311,6.93655 0.27454,7.37799 0.27353,7.25955 0.0702,8.25235 -0.42542,2.07761 -1.74587,3.93543 -3.63398,5.1129 -0.14045,0.0876 -1.74618,0.94036 -3.56829,1.89504 -2.19437,1.14972 -3.38446,1.75263 -3.52479,1.78567 -0.25331,0.0596 -0.34312,0.0593 -0.59563,-0.002 z m 3.23486,-4.36527 c 1.57691,-0.82602 2.988,-1.57939 3.13575,-1.67417 0.93403,-0.59911 1.68585,-1.51235 2.09046,-2.5393 0.22915,-0.58161 0.3521,-1.40099 0.32003,-2.13281 -0.009,-0.21108 -0.10956,-2.93795 -0.22292,-6.05971 -0.16085,-4.42956 -0.21719,-5.68643 -0.2566,-5.72373 -0.0571,-0.0541 -7.88697,-2.5505 -7.99894,-2.55033 -0.0745,1.1e-4 -7.98735,2.51008 -8.02178,2.5445 -0.0266,0.0266 -0.43728,11.25699 -0.44026,12.03872 -0.003,0.71394 0.0553,1.12129 0.2367,1.66287 0.14247,0.42525 0.40554,0.95285 0.66262,1.3289 0.28078,0.41074 0.97282,1.08588 1.39361,1.35959 0.40707,0.26479 6.06435,3.24275 6.16547,3.24547 0.0378,0.001 1.35894,-0.67398 2.93586,-1.5 z m 16.285,-8.21021 c -0.25171,-0.05 -0.50163,-0.1849 -0.68832,-0.37159 -0.57952,-0.57952 -0.49632,-1.58842 0.16872,-2.04598 0.34732,-0.23897 0.36588,-0.24156 1.89612,-0.26444 l 1.40077,-0.0209 -0.0114,-0.24945 c -0.0528,-1.15609 -0.34547,-2.86845 -0.72156,-4.22149 -1.959,-7.04767 -7.38346,-12.76144 -14.31142,-15.07472 -0.59312,-0.19805 -1.50915,-0.45576 -2.01429,-0.5667 -0.68106,-0.14957 -1.07867,-0.53046 -1.19163,-1.14152 -0.13542,-0.73253 0.42487,-1.4685 1.17762,-1.54686 0.28293,-0.0294 0.81024,0.0791 1.89914,0.39093 3.29916,0.94482 6.29352,2.54763 9.07156,4.8558 0.7152,0.59424 2.27653,2.13871 2.8811,2.85 3.12899,3.68134 5.08796,8.00169 5.73584,12.6499 0.0455,0.32665 0.11136,0.92245 0.14629,1.32401 l 0.0635,0.7301 4.62445,0.0192 4.62446,0.0192 0.25553,0.12107 c 0.30473,0.14437 0.52856,0.36341 0.67398,0.65953 0.0926,0.18866 0.10667,0.26261 0.10667,0.5626 0,0.3 -0.014,0.37394 -0.10667,0.5626 -0.14542,0.29612 -0.36925,0.51516 -0.67398,0.65953 l -0.25553,0.12107 -7.29167,0.006 c -4.01042,0.003 -7.3671,-0.009 -7.45931,-0.0276 z m -42.32191,-5.06315 c -0.17345,-0.0361 -0.42821,-0.15595 -0.59787,-0.28138 -0.25505,-0.18857 -0.48988,-0.68847 -0.48988,-1.04285 0,-0.0874 0.0696,-0.44265 0.15467,-0.78936 0.85913,-3.5014 2.45067,-6.72095 4.72245,-9.55308 3.43495,-4.28221 8.16359,-7.32063 13.40961,-8.61643 1.33039,-0.32862 2.39278,-0.50473 3.76096,-0.62344 l 0.76755,-0.0666 0.0192,-4.62445 0.0192,-4.62445 0.12106,-0.25554 c 0.14437,-0.30472 0.36341,-0.52856 0.65954,-0.67398 0.18865,-0.0927 0.2626,-0.10667 0.5626,-0.10667 0.29999,0 0.37394,0.014 0.56259,0.10667 0.29613,0.14542 0.51517,0.36926 0.65954,0.67398 l 0.12107,0.25554 0.0102,7.25104 c 0.007,4.78745 -0.003,7.32267 -0.0288,7.46185 -0.0829,0.44866 -0.32752,0.77848 -0.72093,0.97217 -0.73395,0.36136 -1.57785,0.0263 -1.8795,-0.74632 -0.0538,-0.13782 -0.0671,-0.38374 -0.0848,-1.56429 l -0.021,-1.40077 -0.23026,0.0106 c -1.93163,0.0891 -4.46253,0.6708 -6.54398,1.50409 -0.74896,0.29984 -2.1946,1.00992 -2.89681,1.42289 -5.17804,3.04515 -8.90264,7.98651 -10.34014,13.7181 -0.20967,0.83598 -0.2832,1.00484 -0.54651,1.25498 -0.2937,0.27902 -0.77854,0.41897 -1.16979,0.33767 z m -5.72256,-2.82039 c -0.41537,-0.1165 -0.67863,-0.33085 -0.86078,-0.70084 -0.16804,-0.34136 -0.18889,-0.67511 -0.0691,-1.10621 1.11624,-4.01682 3.13171,-7.87123 5.86816,-11.22235 0.89366,-1.09438 2.30515,-2.5602 3.38073,-3.51083 3.51407,-3.10586 7.6888,-5.39577 12.06669,-6.61876 0.4748,-0.13265 0.64983,-0.14311 0.9421,-0.0563 0.90738,0.26946 1.26956,1.33496 0.71203,2.09474 -0.17948,0.24459 -0.41537,0.39709 -0.79435,0.51355 -1.79823,0.55257 -2.85019,0.93805 -4.07908,1.49474 -4.26076,1.93014 -8.04531,4.96578 -10.87363,8.72191 -2.0663,2.74414 -3.59131,5.78102 -4.55084,9.06249 -0.12609,0.4312 -0.20998,0.64514 -0.30981,0.79009 -0.31502,0.4574 -0.9152,0.68277 -1.43213,0.53778 z m 56.9813,-0.002 c -0.11609,-0.0321 -0.3005,-0.11959 -0.40979,-0.19441 -0.33017,-0.22601 -0.44321,-0.43465 -0.70107,-1.29404 -0.50317,-1.67696 -1.02526,-2.99314 -1.80903,-4.56046 -3.29786,-6.59484 -9.0615,-11.64741 -16.04149,-14.06243 -0.26552,-0.0919 -0.80081,-0.26267 -1.18954,-0.37955 -0.90996,-0.27363 -1.10146,-0.39652 -1.33684,-0.8579 -0.3252,-0.63745 -0.0673,-1.4282 0.57789,-1.7721 0.19642,-0.10469 0.29609,-0.13202 0.53101,-0.14562 0.25412,-0.0147 0.35668,0.003 0.84527,0.14344 3.84163,1.10665 7.60988,3.06885 10.72602,5.58526 1.66427,1.34396 3.41556,3.09525 4.75952,4.75952 2.46787,3.05604 4.36946,6.66903 5.50911,10.46722 0.21214,0.70701 0.23201,0.80332 0.21978,1.06512 -0.0404,0.86639 -0.85912,1.47323 -1.68084,1.24595 z"
       id="path852"
       inkscape:connector-curvature="0" />
  </g>
</svg>
