<?xml version="1.0" encoding="UTF-8" standalone="no"?>
<!-- Created with Inkscape (http://www.inkscape.org/) -->

<svg
   xmlns:dc="http://purl.org/dc/elements/1.1/"
   xmlns:cc="http://creativecommons.org/ns#"
   xmlns:rdf="http://www.w3.org/1999/02/22-rdf-syntax-ns#"
   xmlns:svg="http://www.w3.org/2000/svg"
   xmlns="http://www.w3.org/2000/svg"
   xmlns:sodipodi="http://sodipodi.sourceforge.net/DTD/sodipodi-0.dtd"
   xmlns:inkscape="http://www.inkscape.org/namespaces/inkscape"
   width="18.521547mm"
   height="18.795605mm"
   viewBox="0 0 18.521547 18.795605"
   version="1.1"
   id="svg8"
   inkscape:version="0.92.4 (5da689c313, 2019-01-14)"
   sodipodi:docname="ds_horizontal_icon_1.svg">
  <defs
     id="defs2" />
  <sodipodi:namedview
     id="base"
     pagecolor="#ffffff"
     bordercolor="#666666"
     borderopacity="1.0"
     inkscape:pageopacity="0.0"
     inkscape:pageshadow="2"
     inkscape:zoom="2.8"
     inkscape:cx="15.248797"
     inkscape:cy="11.984552"
     inkscape:document-units="mm"
     inkscape:current-layer="layer1"
     showgrid="false"
     fit-margin-top="0"
     fit-margin-left="0"
     fit-margin-right="0"
     fit-margin-bottom="0"
     inkscape:window-width="1920"
     inkscape:window-height="1017"
     inkscape:window-x="-8"
     inkscape:window-y="-8"
     inkscape:window-maximized="1" />
  <metadata
     id="metadata5">
    <rdf:RDF>
      <cc:Work
         rdf:about="">
        <dc:format>image/svg+xml</dc:format>
        <dc:type
           rdf:resource="http://purl.org/dc/dcmitype/StillImage" />
        <dc:title></dc:title>
      </cc:Work>
    </rdf:RDF>
  </metadata>
  <g
     inkscape:label="Layer 1"
     inkscape:groupmode="layer"
     id="layer1"
     transform="translate(545.86751,-323.85784)">
    <path
       style="fill:#fe8139;stroke-width:0.00993249"
       d="m -530.73724,342.64319 c -0.003,-0.007 -0.004,-0.91095 -0.002,-2.00899 l 0.003,-1.99643 0.30544,-0.003 0.30545,-0.003 -0.003,2.00899 -0.003,2.009 -0.30072,0.003 c -0.23523,0.002 -0.30175,-1.1e-4 -0.30549,-0.01 z m -5.49123,-0.25161 c -0.009,-0.0239 -0.007,-3.73202 0.002,-3.74651 0.006,-0.01 0.075,-0.012 0.31023,-0.01 l 0.30227,0.003 v 1.88221 1.88221 l -0.30431,0.003 c -0.27102,0.002 -0.30497,8.9e-4 -0.31039,-0.0132 z m -4.11355,-0.0664 c -0.003,-0.007 -0.004,-0.8393 -0.002,-1.84993 l 0.003,-1.83751 0.30543,-0.003 0.30542,-0.003 v 1.85256 1.85255 h -0.30325 c -0.23347,0 -0.30434,-0.003 -0.30798,-0.0124 z m 6.85877,-1.87476 v -1.81793 l 0.30542,0.003 0.30543,0.003 v 1.81268 1.81268 l -0.30543,0.003 -0.30542,0.003 z m -4.11707,1.64631 c -0.003,-0.0123 -0.004,-0.79559 -0.003,-1.74067 l 0.003,-1.71832 0.30226,-0.003 c 0.2352,-0.002 0.30403,1.5e-4 0.31024,0.01 0.004,0.007 0.008,0.78603 0.008,1.73138 1.1e-4,1.32379 -0.003,1.72156 -0.0118,1.73074 -0.009,0.009 -0.0909,0.0119 -0.30772,0.0119 h -0.2958 z m -6.84592,-0.004 c -0.01,-0.004 -0.0124,-0.35982 -0.0124,-1.73258 v -1.72757 l 0.30542,0.003 0.30543,0.003 0.003,1.71727 c 0.002,1.26101 -4.6e-4,1.72085 -0.009,1.73074 -0.009,0.0108 -0.0676,0.0133 -0.29552,0.0127 -0.15638,-4.3e-4 -0.28993,-0.003 -0.29675,-0.006 z m 12.33831,-0.39306 c -0.003,-0.007 -0.004,-0.69865 -0.002,-1.5372 l 0.003,-1.52464 h 0.30294 0.30294 v 1.53457 1.53457 l -0.30071,0.003 c -0.23523,0.002 -0.30176,-1.1e-4 -0.30549,-0.01 z m -10.98005,-1.74082 v -1.32627 l 0.30543,0.003 0.30542,0.003 v 1.32102 1.32103 l -0.30542,0.003 -0.30543,0.003 z m 4.11664,1.31357 c -0.003,-0.007 -0.004,-0.6024 -0.002,-1.3235 l 0.003,-1.31109 0.30543,-0.003 0.30542,-0.003 v 1.32614 1.32613 h -0.30325 c -0.23346,0 -0.30434,-0.003 -0.30798,-0.0124 z m 10.97745,-0.4511 c -0.008,-0.008 -0.009,-2.15121 -6e-4,-2.17275 0.005,-0.0138 0.0417,-0.0157 0.30684,-0.0157 0.26515,0 0.30154,0.002 0.30685,0.0157 0.008,0.0205 0.008,2.14313 0,2.16366 -0.005,0.0139 -0.0417,0.0157 -0.30625,0.0157 -0.16513,0 -0.30321,-0.003 -0.30685,-0.007 z m -17.82978,-0.45594 c -0.0139,-0.014 -0.0156,-0.10547 -0.0156,-0.85835 0,-0.46351 0.003,-0.84981 0.006,-0.85846 0.005,-0.0138 0.0417,-0.0157 0.30685,-0.0157 0.26514,0 0.30153,0.002 0.30684,0.0157 0.003,0.009 0.006,0.39661 0.006,0.86215 0,0.64509 -0.003,0.84926 -0.0119,0.85834 -0.009,0.009 -0.0886,0.0119 -0.29726,0.0119 -0.24617,0 -0.28749,-0.002 -0.30096,-0.0156 z m 4.11874,0.007 c -0.01,-0.006 -0.0119,-0.18718 -0.01,-0.87142 l 0.003,-0.86351 h 0.30295 0.30294 l 0.003,0.86351 c 0.002,0.68424 -3e-5,0.86515 -0.01,0.87142 -0.007,0.004 -0.13985,0.008 -0.29555,0.008 -0.15569,0 -0.28868,-0.004 -0.29554,-0.008 z m 12.3383,-0.23264 c -0.003,-0.007 -0.004,-0.34764 -0.002,-0.75735 l 0.003,-0.74494 0.30542,-0.003 0.30543,-0.003 v 0.75998 0.75998 h -0.30326 c -0.23345,0 -0.30434,-0.003 -0.30799,-0.0124 z m -5.48068,-0.41137 c -0.004,-0.004 -0.007,-0.25177 -0.007,-0.5514 v -0.54477 l 0.30543,0.003 0.30542,0.003 0.003,0.53523 c 0.002,0.38702 -5.4e-4,0.53899 -0.009,0.54878 -0.009,0.0109 -0.0685,0.0135 -0.30138,0.0135 -0.15957,0 -0.29311,-0.003 -0.29675,-0.007 z m -11.0095,-1.82924 c -0.01,-0.006 -0.012,-0.075 -0.01,-0.31024 l 0.003,-0.30226 h 9.25709 9.25708 l 0.003,0.30226 c 0.002,0.23521 -1.5e-4,0.30404 -0.01,0.31024 -0.0164,0.0104 -18.48314,0.0104 -18.49957,0 z m 14.4343,-1.29536 c -0.003,-0.007 -0.006,-0.10628 -0.007,-0.221 l -0.003,-0.20858 -0.33771,-0.005 -0.3377,-0.005 v -3.13867 -3.13867 l 0.3377,-0.005 0.33771,-0.005 0.003,-0.85861 c 0.002,-0.67175 0.005,-0.86032 0.0149,-0.86646 0.0144,-0.009 0.56422,-0.0111 0.58763,-0.002 0.0142,0.005 0.0157,0.0902 0.0157,0.85717 0,0.64876 0.003,0.85398 0.0119,0.86307 0.009,0.009 0.0987,0.0119 0.34269,0.0119 h 0.33077 l -0.003,3.14115 -0.002,3.14115 -0.33771,0.005 -0.3377,0.005 -0.003,0.221 -0.003,0.221 h -0.30306 c -0.23338,0 -0.30412,-0.003 -0.30766,-0.0124 z m 0.67566,-3.57818 v -2.51292 h -0.37247 -0.37247 l -0.003,2.50299 c -0.001,1.37664 -4e-4,2.50863 0.002,2.51552 0.004,0.01 0.0841,0.012 0.37501,0.01 l 0.37025,-0.003 z m -11.6511,3.5684 c -0.003,-0.007 -0.006,-0.59585 -0.007,-1.30876 l -0.002,-1.29619 -0.3377,-0.005 -0.33771,-0.005 v -3.22309 -3.2231 l 0.33771,-0.005 0.3377,-0.005 0.005,-0.21355 0.005,-0.21355 h 0.30294 0.30295 l 0.005,0.21355 0.005,0.21355 0.3377,0.005 0.33771,0.005 v 3.2231 3.22309 l -0.33771,0.005 -0.3377,0.005 -0.005,1.30613 -0.005,1.30612 -0.30072,0.003 c -0.23524,0.002 -0.30174,-1.2e-4 -0.30545,-0.01 z m 0.67569,-5.83797 v -2.59735 h -0.37247 -0.37246 l -0.003,2.58741 c -10e-4,1.42308 -4e-4,2.59306 0.002,2.59995 0.004,0.01 0.0841,0.012 0.37501,0.01 l 0.37025,-0.003 z m 2.07838,5.09457 c -0.0157,-0.009 -0.0174,-0.031 -0.0174,-0.22815 v -0.21802 l -0.33026,-1.5e-4 c -0.18164,-1.1e-4 -0.33585,-0.004 -0.34269,-0.008 -0.01,-0.006 -0.0119,-0.59935 -0.01,-2.93242 l 0.003,-2.92453 0.3377,-0.005 c 0.18574,-0.003 0.33883,-0.006 0.34019,-0.007 10e-4,-10e-4 0.002,-0.21804 0.002,-0.48189 0,-0.35989 0.003,-0.48272 0.0119,-0.49166 0.009,-0.009 0.0874,-0.0119 0.2922,-0.0119 0.15415,0 0.28735,0.003 0.29599,0.006 0.014,0.005 0.0157,0.0574 0.0157,0.4847 0,0.35906 0.003,0.48166 0.0119,0.4906 0.009,0.009 0.0987,0.0119 0.34267,0.0119 h 0.33075 v 2.93008 c 0,1.61155 -10e-4,2.93106 -0.002,2.93224 -0.001,0.001 -0.15445,0.005 -0.34019,0.007 l -0.3377,0.005 -0.003,0.21805 c -0.002,0.15923 -0.006,0.22015 -0.0149,0.22581 -0.0186,0.0118 -0.56525,0.009 -0.58581,-0.003 z m 0.65225,-1.07794 c 0.0143,-0.005 0.0157,-0.21819 0.0157,-2.30943 v -2.30339 l -0.37495,0.003 -0.37496,0.003 -0.003,2.29441 c -0.002,2.14833 -10e-4,2.29519 0.0143,2.30682 0.0127,0.009 0.10146,0.0124 0.36179,0.0124 0.18971,0 0.352,-0.003 0.36064,-0.006 z m 4.82059,-1.63518 -0.003,-1.32364 -0.33771,-0.005 -0.3377,-0.005 -0.002,-3.73213 -0.002,-3.73214 h 0.33153 c 0.26366,0 0.33378,-0.003 0.3425,-0.0132 0.007,-0.009 0.0119,-0.0933 0.0136,-0.24086 l 0.003,-0.22766 h 0.30294 0.30294 l 0.005,0.23838 0.005,0.23838 0.3377,0.005 0.33771,0.005 v 3.72965 3.72965 l -0.33771,0.005 -0.3377,0.005 -0.005,1.32102 -0.005,1.32102 -0.30538,0.003 -0.30539,0.003 z m 0.67665,-1.96781 c 0.008,-0.01 0.0105,-0.82822 0.009,-3.10639 l -0.002,-3.09293 h -0.37247 -0.37247 l -0.003,3.09397 c -10e-4,1.70168 -4.2e-4,3.09956 0.002,3.10639 0.007,0.019 0.72339,0.0179 0.73914,-0.001 z m 4.82045,2.62371 c -0.009,-0.009 -0.0119,-0.13398 -0.0119,-0.50159 0,-0.26932 -10e-4,-0.49064 -0.002,-0.49182 -10e-4,-10e-4 -0.15445,-0.005 -0.34019,-0.007 l -0.3377,-0.005 v -1.9567 -1.9567 l 0.34019,-0.003 0.34018,-0.003 v -0.15183 c 0,-0.10486 0.004,-0.15553 0.0119,-0.16376 0.009,-0.009 0.0886,-0.0119 0.29727,-0.0119 0.24616,0 0.28749,0.002 0.30095,0.0156 0.0128,0.0128 0.0156,0.0423 0.0156,0.16388 v 0.14828 h 0.33075 c 0.24401,0 0.33388,0.003 0.34267,0.0119 0.009,0.009 0.0119,0.45551 0.0118,1.94925 -1.1e-4,1.06554 -0.004,1.94286 -0.008,1.94962 -0.006,0.009 -0.0894,0.0129 -0.34004,0.0149 l -0.33223,0.003 -0.003,0.49075 c -0.002,0.34225 -0.006,0.49479 -0.0136,0.50407 -0.0152,0.0183 -0.58435,0.0196 -0.60259,10e-4 z m 0.67098,-2.96038 -0.003,-1.33344 -0.36137,-0.003 c -0.25845,-0.002 -0.36524,6e-4 -0.37495,0.009 -0.0114,0.009 -0.0136,0.22514 -0.0136,1.32034 0,0.71998 0.003,1.31613 0.006,1.32477 0.005,0.0139 0.0479,0.0157 0.37747,0.0157 h 0.37145 z m -8.90918,2.70164 c -10e-4,-10e-4 -0.005,-0.16786 -0.007,-0.36998 l -0.005,-0.36751 -0.33771,-0.005 -0.3377,-0.005 -0.003,-1.22063 c -0.002,-0.8938 4.7e-4,-1.22424 0.009,-1.23411 0.009,-0.0109 0.0756,-0.0135 0.34271,-0.0135 h 0.33152 v -1.07697 c 0,-0.96582 0.002,-1.07858 0.0156,-1.09257 0.0134,-0.0134 0.0541,-0.0156 0.29366,-0.0156 0.17268,0 0.28534,0.004 0.29727,0.0103 0.0188,0.0101 0.0192,0.0327 0.0192,1.09257 v 1.0823 h 0.33152 c 0.26707,0 0.3337,0.003 0.34271,0.0135 0.008,0.01 0.0105,0.34031 0.009,1.23411 l -0.003,1.22063 -0.33771,0.005 c -0.18574,0.003 -0.33882,0.006 -0.34019,0.007 -0.001,10e-4 -0.002,0.16046 -0.002,0.35394 0,0.19349 -0.003,0.35886 -0.006,0.3675 -0.005,0.0138 -0.0418,0.0157 -0.3079,0.0157 -0.16604,0 -0.30286,-0.001 -0.30406,-0.002 z m 0.67518,-1.97657 -0.003,-0.60836 h -0.3675 -0.36751 l -0.003,0.60836 -0.003,0.60837 h 0.37263 0.37262 z m -8.90661,0.70849 c -0.006,-0.012 -0.0104,-0.11905 -0.0104,-0.28322 v -0.26386 h -0.32707 c -0.28408,0 -0.32911,-0.002 -0.34267,-0.0156 -0.014,-0.014 -0.0156,-0.15592 -0.0156,-1.41339 0,-1.07393 0.003,-1.40055 0.0119,-1.40971 0.009,-0.009 0.0987,-0.0119 0.34267,-0.0119 h 0.33076 v -1.16139 c 0,-1.04257 0.002,-1.16299 0.0156,-1.177 0.0135,-0.0135 0.0543,-0.0156 0.29608,-0.0156 0.20879,0 0.28477,0.003 0.29728,0.0124 0.0156,0.0115 0.017,0.0959 0.0193,1.17451 l 0.002,1.16211 0.3377,0.005 0.33771,0.005 0.003,1.40935 c 0.002,1.03334 -4.7e-4,1.41295 -0.009,1.42283 -0.009,0.0109 -0.0757,0.0135 -0.34255,0.0135 h -0.33137 l -0.003,0.28059 -0.003,0.28059 -0.30004,0.003 c -0.28866,0.003 -0.30042,0.002 -0.31039,-0.0167 z m 0.67463,-1.19204 c 0.007,-0.0128 0.0103,-0.27718 0.0103,-0.78842 0,-0.63854 -0.002,-0.77112 -0.0136,-0.78048 -0.01,-0.008 -0.1165,-0.0105 -0.37496,-0.009 l -0.36136,0.003 -0.003,0.78901 c -0.002,0.62463 3e-5,0.79066 0.01,0.79693 0.007,0.004 0.17211,0.008 0.36721,0.008 0.34064,1.5e-4 0.35515,-6.2e-4 0.36502,-0.0191 z"
       id="path826"
       inkscape:connector-curvature="0" />
  </g>
</svg>
