<?xml version="1.0" encoding="UTF-8" standalone="no"?>
<!-- Created with Inkscape (http://www.inkscape.org/) -->

<svg
   xmlns:dc="http://purl.org/dc/elements/1.1/"
   xmlns:cc="http://creativecommons.org/ns#"
   xmlns:rdf="http://www.w3.org/1999/02/22-rdf-syntax-ns#"
   xmlns:svg="http://www.w3.org/2000/svg"
   xmlns="http://www.w3.org/2000/svg"
   xmlns:sodipodi="http://sodipodi.sourceforge.net/DTD/sodipodi-0.dtd"
   xmlns:inkscape="http://www.inkscape.org/namespaces/inkscape"
   width="18.521599mm"
   height="18.520403mm"
   viewBox="0 0 18.521598 18.520403"
   version="1.1"
   id="svg8"
   inkscape:version="0.92.4 (5da689c313, 2019-01-14)"
   sodipodi:docname="ds_horizontal_icon_2.svg">
  <defs
     id="defs2" />
  <sodipodi:namedview
     id="base"
     pagecolor="#ffffff"
     bordercolor="#666666"
     borderopacity="1.0"
     inkscape:pageopacity="0.0"
     inkscape:pageshadow="2"
     inkscape:zoom="7.9195959"
     inkscape:cx="34.4486"
     inkscape:cy="36.60264"
     inkscape:document-units="mm"
     inkscape:current-layer="layer1"
     showgrid="false"
     fit-margin-top="0"
     fit-margin-left="0"
     fit-margin-right="0"
     fit-margin-bottom="0"
     inkscape:window-width="1920"
     inkscape:window-height="1017"
     inkscape:window-x="-8"
     inkscape:window-y="-8"
     inkscape:window-maximized="1" />
  <metadata
     id="metadata5">
    <rdf:RDF>
      <cc:Work
         rdf:about="">
        <dc:format>image/svg+xml</dc:format>
        <dc:type
           rdf:resource="http://purl.org/dc/dcmitype/StillImage" />
        <dc:title></dc:title>
      </cc:Work>
    </rdf:RDF>
  </metadata>
  <g
     inkscape:label="Layer 1"
     inkscape:groupmode="layer"
     id="layer1"
     transform="translate(734.20783,-632.41087)">
    <path
       style="fill:#fe8138;stroke-width:0.01013331"
       d="m -729.83787,650.91859 c -0.36354,-0.066 -0.65984,-0.34371 -0.74287,-0.69636 -0.0446,-0.18939 -0.13822,-1.23471 -0.17725,-1.97905 -0.0601,-1.14526 -0.0567,-2.1674 0.0103,-3.13625 0.0664,-0.96011 0.1917,-1.80174 0.38084,-2.55726 0.0333,-0.13299 0.0592,-0.24297 0.0575,-0.24439 -0.002,-0.001 -0.12849,-0.008 -0.28176,-0.0141 -0.15327,-0.006 -0.33111,-0.0185 -0.3952,-0.0271 -1.22818,-0.16435 -2.27891,-0.9163 -2.83668,-2.03006 -0.33894,-0.67679 -0.45926,-1.46436 -0.33996,-2.22522 0.15509,-0.98911 0.69932,-1.86157 1.53198,-2.45589 0.30455,-0.21739 0.72161,-0.41843 1.08403,-0.52258 0.30881,-0.0887 0.68871,-0.14794 0.94929,-0.14794 0.0436,0 0.0784,-0.005 0.0856,-0.0122 0.009,-0.009 0.0122,-0.0881 0.0122,-0.29303 0,-0.15448 -0.003,-0.28809 -0.006,-0.29691 -0.006,-0.0144 -0.0722,-0.016 -0.64907,-0.016 -0.55557,0 -0.65282,-0.002 -0.71584,-0.0164 -0.22845,-0.0514 -0.40612,-0.22201 -0.4631,-0.44478 -0.0185,-0.0724 -0.0202,-0.11248 -0.0202,-0.47057 0,-0.43588 0.002,-0.45354 0.0677,-0.58802 0.051,-0.10449 0.1615,-0.21444 0.26805,-0.26681 0.14971,-0.0736 -0.11127,-0.0683 3.25893,-0.0654 l 3.03756,0.003 0.0811,0.0227 c 0.32774,0.0918 0.57701,0.3415 0.66514,0.66636 0.0291,0.10718 0.0321,0.33905 0.006,0.44413 -0.0843,0.33622 -0.33207,0.58995 -0.67116,0.68718 -0.0796,0.0228 -0.0906,0.0232 -0.76983,0.0286 l -0.68906,0.005 v 0.304 0.304 l 1.93039,0.005 1.9304,0.005 0.0907,0.0284 c 0.17305,0.0542 0.33968,0.16032 0.4446,0.28313 0.11453,0.13406 0.19735,0.32079 0.21901,0.49379 0.007,0.0526 0.0108,0.3401 0.0108,0.74166 0,0.40523 0.004,0.65809 0.01,0.66178 0.0168,0.0104 0.5619,0.11743 0.58313,0.11452 0.0199,-0.003 0.0204,-0.0124 0.0253,-0.59557 0.005,-0.55618 0.006,-0.59499 0.0242,-0.62826 0.0386,-0.0715 0.0782,-0.1107 0.14533,-0.14377 0.19096,-0.094 0.39816,0.0122 0.43847,0.22477 0.006,0.032 0.0101,0.29921 0.0101,0.66499 v 0.61148 l 0.0228,0.005 c 0.13907,0.0333 0.88503,0.1754 0.89066,0.1697 0.004,-0.004 0.009,-0.13069 0.0106,-0.28117 l 0.003,-0.2736 0.0283,-0.0576 c 0.0307,-0.0625 0.0747,-0.10673 0.14174,-0.14243 0.0618,-0.0329 0.20613,-0.0329 0.26797,0 0.067,0.0357 0.11106,0.08 0.14174,0.14243 l 0.0283,0.0576 0.003,0.33947 c 0.002,0.1867 0.006,0.3429 0.0107,0.34711 0.009,0.009 0.85509,0.17982 0.88908,0.17982 0.021,0 0.0221,-0.005 0.0262,-0.11907 0.005,-0.14011 0.0291,-0.20665 0.0993,-0.27473 0.1159,-0.11247 0.31705,-0.10886 0.42944,0.008 0.074,0.0767 0.082,0.1058 0.0876,0.31916 0.004,0.15596 0.008,0.19302 0.0203,0.1999 0.0196,0.0109 0.67584,0.14078 0.70933,0.1404 0.0188,-2.3e-4 0.0339,-0.013 0.0588,-0.0497 0.18173,-0.26799 0.5348,-0.42711 0.85923,-0.38724 0.49267,0.0605 0.84764,0.47711 0.82153,0.96409 -0.007,0.13834 -0.0353,0.24473 -0.097,0.36987 -0.11354,0.23031 -0.3161,0.3988 -0.57413,0.47756 -0.0825,0.0252 -0.10503,0.0276 -0.25271,0.0276 -0.14772,0 -0.17019,-0.002 -0.25283,-0.0277 -0.21692,-0.0662 -0.35926,-0.17016 -0.52295,-0.38192 l -0.0259,-0.0335 -0.3632,0.0727 c -0.19977,0.04 -0.36594,0.0754 -0.36929,0.0787 -0.003,0.003 -0.008,0.0912 -0.0112,0.19524 -0.006,0.21291 -0.0149,0.24621 -0.0888,0.3204 -0.15443,0.15503 -0.41301,0.10571 -0.50154,-0.0957 -0.015,-0.0342 -0.0214,-0.0769 -0.0253,-0.16981 -0.004,-0.0837 -0.009,-0.12414 -0.0168,-0.12414 -0.0146,0 -0.86473,0.17011 -0.88957,0.17799 -0.017,0.005 -0.0182,0.0269 -0.0182,0.32752 0,0.35432 -0.004,0.38778 -0.0607,0.4656 -0.0627,0.0866 -0.1458,0.12663 -0.26033,0.12547 -0.10952,-10e-4 -0.21035,-0.0653 -0.26492,-0.16874 l -0.0271,-0.0513 -0.003,-0.27844 c -0.002,-0.17011 -0.007,-0.28087 -0.0132,-0.28467 -0.0124,-0.008 -0.88834,0.1667 -0.90095,0.17931 -0.005,0.005 -0.0103,0.29427 -0.012,0.65241 -0.003,0.63264 -0.003,0.64418 -0.0246,0.69023 -0.0298,0.0644 -0.0887,0.12687 -0.14996,0.15895 -0.043,0.0226 -0.0644,0.0269 -0.13238,0.0269 -0.1318,1.2e-4 -0.22064,-0.0539 -0.27819,-0.1691 l -0.0309,-0.0618 -1.5e-4,-0.57344 c -1.1e-4,-0.32129 -0.004,-0.57978 -0.009,-0.58783 -0.008,-0.0121 -0.0566,-0.005 -0.30637,0.0456 l -0.29728,0.06 -0.006,0.7144 c -0.005,0.69367 -0.006,0.71684 -0.0279,0.79868 -0.0794,0.30091 -0.29097,0.53906 -0.57331,0.64526 -0.13771,0.0518 -0.18972,0.0577 -0.56863,0.0646 l -0.35467,0.006 -0.002,0.0507 c -0.031,0.68199 -0.21309,1.23738 -0.55636,1.69733 -0.0964,0.12918 -0.27938,0.31965 -0.40358,0.42012 -0.29207,0.23625 -0.68958,0.42812 -1.07315,0.51799 -0.0438,0.0103 -0.0818,0.0242 -0.0844,0.0311 -0.007,0.0172 0.0692,0.31665 0.13561,0.53563 0.2798,0.92266 0.74929,1.78334 1.37635,2.52319 0.0709,0.0836 0.14139,0.17024 0.15674,0.19254 0.0466,0.0677 0.0999,0.18182 0.12869,0.27574 0.0248,0.0808 0.0274,0.10449 0.0279,0.25626 5.5e-4,0.14562 -0.002,0.1776 -0.0227,0.24781 -0.0497,0.17156 -0.15035,0.3299 -0.2816,0.44288 -0.19756,0.17006 -0.52216,0.37502 -0.86546,0.54647 -1.0136,0.50621 -2.31007,0.79806 -3.91146,0.88052 -0.25227,0.013 -0.37194,0.0118 -0.46267,-0.005 z m 0.7008,-0.62933 c 1.64899,-0.1124 2.99246,-0.48902 3.90132,-1.09366 0.1968,-0.13092 0.25761,-0.18233 0.29387,-0.24845 0.027,-0.0493 0.0304,-0.0649 0.0304,-0.14157 0,-0.11283 -0.0187,-0.15043 -0.14532,-0.29173 -0.39961,-0.44601 -0.69309,-0.87937 -0.97936,-1.44613 -0.62814,-1.24361 -1.00731,-2.86699 -1.06745,-4.57012 l -0.007,-0.19254 h -0.31413 -0.31413 l -0.003,0.2888 c -0.0163,1.48239 0.21353,3.02764 0.6113,4.10906 0.17635,0.47946 0.35928,0.84637 0.60056,1.20458 0.0643,0.0955 0.1297,0.20352 0.14534,0.24014 0.0976,0.22861 0.0423,0.4917 -0.14185,0.67482 -0.0541,0.0538 -0.0904,0.0773 -0.22294,0.14429 -0.62942,0.31824 -1.32133,0.5152 -2.04815,0.58302 -0.37094,0.0346 -0.69083,0.0299 -1.05246,-0.0154 -0.0912,-0.0114 -0.17229,-0.0183 -0.18024,-0.0152 -0.0109,0.004 -0.013,0.0174 -0.009,0.0539 0.003,0.0266 0.017,0.15318 0.0308,0.28137 0.0213,0.19784 0.029,0.24105 0.051,0.28591 0.0315,0.0644 0.10022,0.12689 0.17018,0.15481 0.0481,0.0192 0.0665,0.0204 0.23959,0.0151 0.10311,-0.003 0.28779,-0.0126 0.4104,-0.0209 z m 0.30239,-1.3671 c 0.50981,-0.045 0.97639,-0.15572 1.44054,-0.34194 0.16904,-0.0678 0.41424,-0.18186 0.42361,-0.19702 0.003,-0.005 -0.0305,-0.0642 -0.0752,-0.13065 -0.85338,-1.26932 -1.31575,-3.22437 -1.31611,-5.56495 l -8e-5,-0.3876 h -0.64785 c -0.60827,0 -0.64816,0.001 -0.65301,0.0177 -0.28734,0.98599 -0.44007,2.03609 -0.50442,3.46813 -0.0159,0.35308 -0.0157,1.47034 2.3e-4,1.86453 0.0231,0.57133 0.0602,1.18635 0.0727,1.20665 0.0113,0.0183 0.22561,0.0507 0.45551,0.069 0.18214,0.0145 0.61986,0.0124 0.80399,-0.004 z m -0.20424,-0.77031 c -0.27291,-0.0759 -0.30992,-0.44534 -0.0576,-0.57503 0.0567,-0.0291 0.16919,-0.0355 0.23602,-0.0133 0.0616,0.0205 0.13445,0.0822 0.17138,0.14517 0.0218,0.0372 0.0279,0.0625 0.0314,0.1297 0.004,0.0728 0.001,0.0904 -0.0205,0.13773 -0.0358,0.0778 -0.0715,0.11526 -0.1428,0.14986 -0.0774,0.0376 -0.14639,0.0457 -0.21789,0.0258 z m 3.02709,-3.81411 c 0.70692,-0.23303 1.15671,-0.74009 1.32222,-1.49054 0.0367,-0.16664 0.0661,-0.43808 0.0579,-0.53454 -8.6e-4,-0.01 -0.19386,-0.0127 -0.92828,-0.0127 h -0.9272 l 1.2e-4,0.0785 c 3.4e-4,0.27296 0.0595,0.96525 0.11713,1.37053 0.0244,0.17139 0.091,0.57785 0.10276,0.62698 0.005,0.0221 0.01,0.0236 0.053,0.0185 0.026,-0.003 0.11705,-0.0286 0.2024,-0.0567 z m 2.74835,-2.69909 c 0.0737,-0.0382 0.13096,-0.10533 0.15231,-0.17872 0.0112,-0.0384 0.0136,-0.54491 0.0136,-2.88392 v -2.83733 l -0.0241,-0.0534 c -0.0329,-0.0727 -0.11748,-0.14927 -0.18749,-0.16963 -0.0472,-0.0137 -0.46616,-0.0151 -3.77138,-0.0125 l -3.71831,0.003 -0.14187,0.0231 c -0.59456,0.0969 -1.0704,0.30723 -1.52506,0.67405 -0.11303,0.0912 -0.34987,0.33149 -0.44605,0.45258 -0.92206,1.16073 -0.9019,2.78998 0.0485,3.92159 0.10653,0.12683 0.32783,0.3417 0.44819,0.43516 0.23237,0.18042 0.54779,0.36016 0.81067,0.46193 0.21183,0.082 0.54845,0.16218 0.78026,0.18583 0.0474,0.005 1.75355,0.009 3.79151,0.0101 l 3.70537,10e-4 z m -7.31014,-4.91283 c -0.0921,-0.0218 -0.17152,-0.0879 -0.212,-0.17648 -0.033,-0.0722 -0.0322,-0.18324 0.002,-0.25317 0.0335,-0.0691 0.10026,-0.13125 0.16803,-0.15661 l 0.0558,-0.0209 h 3.29763 3.29763 l 0.0558,0.0209 c 0.0678,0.0254 0.13448,0.0875 0.16804,0.15661 0.0339,0.0697 0.0345,0.18046 0.002,0.25418 -0.0288,0.0643 -0.0924,0.1276 -0.15876,0.15811 l -0.0507,0.0233 -3.29333,0.002 c -1.89773,8.9e-4 -3.3095,-0.002 -3.33148,-0.007 z m 8.42347,2.65511 c 0.17953,-0.0353 0.27273,-0.058 0.2812,-0.0685 0.01,-0.0122 0.0126,-0.17266 0.0125,-0.72565 -1.2e-4,-0.39046 -0.004,-0.71564 -0.008,-0.72262 -0.008,-0.0121 -0.53712,-0.12411 -0.58645,-0.12411 h -0.0233 v 0.84444 c 0,0.46444 0.003,0.84773 0.007,0.85174 0.004,0.004 0.0166,0.005 0.0279,0.002 0.0113,-0.003 0.14141,-0.0286 0.28911,-0.0577 z m 1.38644,-0.27763 c 0.2355,-0.0472 0.43257,-0.0885 0.43793,-0.0918 0.006,-0.004 0.01,-0.16756 0.01,-0.42528 0,-0.3944 -10e-4,-0.41959 -0.0182,-0.42502 -0.0263,-0.008 -0.87545,-0.17799 -0.89094,-0.17799 -0.0104,0 -0.013,0.11898 -0.013,0.60293 v 0.60293 h 0.0231 c 0.0127,0 0.21582,-0.0386 0.45131,-0.0858 z m 4.27975,-0.23595 c 0.0596,-0.0263 0.12587,-0.0924 0.15373,-0.15303 0.033,-0.0719 0.0306,-0.19217 -0.005,-0.25991 -0.0887,-0.1678 -0.29101,-0.22441 -0.44104,-0.12344 -0.0655,0.0441 -0.10995,0.10618 -0.13414,0.18741 -0.0199,0.0668 -0.0199,0.0696 -0.002,0.12883 0.0101,0.0333 0.0258,0.0748 0.0348,0.0922 0.0251,0.0484 0.11493,0.12359 0.16784,0.14057 0.062,0.0199 0.16567,0.0141 0.22602,-0.0126 z m -2.75805,-0.0684 c 0.23643,-0.0474 0.43805,-0.0887 0.44806,-0.0919 0.016,-0.005 0.0182,-0.0189 0.0182,-0.11596 0,-0.0752 -0.004,-0.11259 -0.0122,-0.11776 -0.0177,-0.0109 -0.89321,-0.18512 -0.90228,-0.17952 -0.009,0.006 -0.0102,0.57511 -8.4e-4,0.58448 0.009,0.009 -0.0223,0.0151 0.44912,-0.0794 z m -8.49268,-3.93044 c 0.008,-0.01 0.0108,-0.0991 0.009,-0.30653 l -0.003,-0.29264 -1.07667,-0.003 -1.07666,-0.003 v 0.30236 c 0,0.16629 0.003,0.30539 0.007,0.30911 0.004,0.004 0.48423,0.007 1.06782,0.007 0.88651,0 1.06296,-0.002 1.0726,-0.0139 z m 1.99337,-1.25474 c 0.23304,-0.12295 0.23089,-0.44023 -0.004,-0.55685 l -0.048,-0.0238 h -2.96906 -2.96906 l -0.003,0.29374 c -0.001,0.16156 -4.7e-4,0.29953 0.002,0.30662 0.004,0.0104 0.5802,0.0124 2.97175,0.0102 l 2.96681,-0.003 z"
       id="path839"
       inkscape:connector-curvature="0" />
  </g>
</svg>
