<?xml version="1.0" encoding="UTF-8" standalone="no"?>
<!-- Created with Inkscape (http://www.inkscape.org/) -->

<svg
   xmlns:dc="http://purl.org/dc/elements/1.1/"
   xmlns:cc="http://creativecommons.org/ns#"
   xmlns:rdf="http://www.w3.org/1999/02/22-rdf-syntax-ns#"
   xmlns:svg="http://www.w3.org/2000/svg"
   xmlns="http://www.w3.org/2000/svg"
   xmlns:sodipodi="http://sodipodi.sourceforge.net/DTD/sodipodi-0.dtd"
   xmlns:inkscape="http://www.inkscape.org/namespaces/inkscape"
   width="22.750376mm"
   height="18.521687mm"
   viewBox="0 0 22.750375 18.521687"
   version="1.1"
   id="svg8"
   inkscape:version="0.92.4 (5da689c313, 2019-01-14)"
   sodipodi:docname="ds_vertical_icon_3.svg">
  <defs
     id="defs2" />
  <sodipodi:namedview
     id="base"
     pagecolor="#ffffff"
     bordercolor="#666666"
     borderopacity="1.0"
     inkscape:pageopacity="0.0"
     inkscape:pageshadow="2"
     inkscape:zoom="3.959798"
     inkscape:cx="66.150948"
     inkscape:cy="53.095212"
     inkscape:document-units="mm"
     inkscape:current-layer="layer1"
     showgrid="false"
     fit-margin-top="0"
     fit-margin-left="0"
     fit-margin-right="0"
     fit-margin-bottom="0"
     inkscape:window-width="1920"
     inkscape:window-height="1017"
     inkscape:window-x="-8"
     inkscape:window-y="-8"
     inkscape:window-maximized="1" />
  <metadata
     id="metadata5">
    <rdf:RDF>
      <cc:Work
         rdf:about="">
        <dc:format>image/svg+xml</dc:format>
        <dc:type
           rdf:resource="http://purl.org/dc/dcmitype/StillImage" />
        <dc:title></dc:title>
      </cc:Work>
    </rdf:RDF>
  </metadata>
  <g
     inkscape:label="Layer 1"
     inkscape:groupmode="layer"
     id="layer1"
     transform="translate(-100.88587,-615.81993)">
    <path
       style="fill:#fe8139;stroke-width:0.01222845"
       d="m 102.08395,634.33249 c -0.29246,-0.0455 -0.57708,-0.18929 -0.78358,-0.39591 -0.20781,-0.20792 -0.33192,-0.46477 -0.39336,-0.81407 -0.0287,-0.16317 -0.028,-0.62067 0.001,-0.83168 0.15255,-1.10027 0.73672,-2.52005 1.75051,-4.25446 0.33496,-0.57305 0.79516,-1.29639 0.895,-1.40674 0.19581,-0.21644 0.45611,-0.35855 0.74877,-0.40878 0.10181,-0.0175 0.28623,-0.0198 1.5798,-0.0198 0.8055,0 1.46728,-0.004 1.47064,-0.01 0.003,-0.005 -0.01,-0.0728 -0.0296,-0.1498 -0.0802,-0.31401 -0.15372,-0.72766 -0.19448,-1.09374 -0.11106,-0.99749 -0.0306,-2.03597 0.23318,-3.0082 0.52694,-1.94246 1.75721,-3.64338 3.4408,-4.75711 1.59637,-1.05604 3.47525,-1.51157 5.44166,-1.31932 0.82628,0.0808 1.67709,0.30607 2.44781,0.64815 1.60099,0.71059 2.93132,1.89673 3.82041,3.40632 0.19635,0.33338 0.51099,0.99445 0.59375,1.24746 0.0239,0.0732 0.0177,0.20559 -0.0124,0.26387 -0.1041,0.20131 -0.3786,0.24149 -0.53757,0.0787 -0.0351,-0.0359 -0.0663,-0.0962 -0.13102,-0.25321 -0.15261,-0.37007 -0.3635,-0.80292 -0.40349,-0.82814 -0.0134,-0.008 -0.0934,0.0155 -0.28728,0.086 -0.69679,0.2536 -1.52332,0.49471 -2.21909,0.64734 -0.12522,0.0275 -0.11962,-0.007 -0.0575,0.35804 0.10035,0.59064 0.16323,1.20414 0.19303,1.88318 0.009,0.21244 0.019,0.32715 0.028,0.33304 0.008,0.005 0.74362,0.009 1.63563,0.009 1.28276,1.4e-4 1.62446,-0.003 1.63444,-0.0151 0.0187,-0.0226 -0.011,-0.40755 -0.054,-0.70008 -0.0412,-0.2802 -0.006,-0.39594 0.14555,-0.48265 0.12765,-0.0729 0.27883,-0.0574 0.38386,0.0394 0.0983,0.0906 0.11258,0.14248 0.16228,0.58995 0.19642,1.76833 -0.19523,3.57915 -1.1031,5.10024 -1.35308,2.26706 -3.69463,3.75422 -6.31262,4.00924 -0.22017,0.0214 -0.63932,0.0428 -0.84733,0.0433 l -0.13808,2.7e-4 0.01,0.0948 c 0.0189,0.18486 0.009,0.57135 -0.0187,0.72516 -0.0859,0.47816 -0.33107,0.82747 -0.72364,1.031 -0.15799,0.0819 -0.3072,0.13022 -0.428,0.13858 -0.0864,0.006 -0.0963,0.004 -0.17119,-0.035 -0.17068,-0.0887 -0.23043,-0.28328 -0.13874,-0.45175 0.0496,-0.0911 0.11503,-0.13564 0.25735,-0.17512 0.15604,-0.0433 0.24971,-0.0941 0.33995,-0.18432 0.48453,-0.48453 0.2098,-1.84973 -0.7641,-3.79693 -0.38444,-0.76865 -0.91837,-1.70021 -1.36322,-2.37843 -0.15564,-0.23729 -0.22271,-0.30614 -0.36117,-0.37075 l -0.0917,-0.0428 -0.33017,-0.0105 c -0.18159,-0.006 -1.82968,-0.009 -3.66242,-0.007 l -3.33225,0.003 -0.0868,0.0318 c -0.10684,0.0391 -0.21308,0.10826 -0.26853,0.17482 -0.12873,0.15452 -0.75044,1.16977 -1.07163,1.74996 -0.79032,1.4276 -1.26458,2.60651 -1.41187,3.50957 -0.0313,0.19173 -0.0315,0.59795 -3.7e-4,0.73052 0.0624,0.26581 0.18039,0.42895 0.38291,0.52928 0.26615,0.13185 0.58039,0.1005 0.98893,-0.0986 0.36542,-0.17812 0.75485,-0.47043 1.23201,-0.92477 0.10593,-0.10086 0.1926,-0.19045 0.1926,-0.1991 0,-0.009 -0.0221,-0.054 -0.0492,-0.10076 -0.0624,-0.10779 -0.12704,-0.28799 -0.15332,-0.42746 -0.0302,-0.16001 -0.0188,-0.43402 0.0244,-0.58999 0.0684,-0.24664 0.18387,-0.44852 0.35926,-0.62802 0.17121,-0.17522 0.36042,-0.28924 0.59069,-0.35597 0.82964,-0.24042 1.66644,0.3161 1.77131,1.17802 0.007,0.057 0.0126,0.12954 0.0126,0.16121 0,0.0443 0.005,0.059 0.0214,0.0639 0.0482,0.0143 0.43234,0.0447 0.72453,0.0575 0.41508,0.0181 0.91949,0.003 1.32679,-0.0391 0.074,-0.008 0.14414,-0.019 0.15591,-0.025 0.0174,-0.009 0.0214,-0.0277 0.0214,-0.10073 0,-0.16948 0.0508,-0.38656 0.12908,-0.55189 0.18948,-0.40007 0.55345,-0.68272 1.00205,-0.7782 0.11203,-0.0238 0.41857,-0.0201 0.54417,0.007 0.8996,0.19128 1.3686,1.20015 0.93446,2.01009 -0.0297,0.0554 -0.054,0.10841 -0.054,0.11775 0,0.0413 0.54451,0.54115 0.80534,0.73925 0.15861,0.12046 0.19112,0.15355 0.22248,0.22645 0.0218,0.0507 0.0257,0.0782 0.0211,0.14995 -0.008,0.13135 -0.0629,0.21448 -0.18067,0.2758 -0.0813,0.0423 -0.21536,0.0403 -0.2996,-0.004 -0.14017,-0.0745 -0.54127,-0.41187 -0.85107,-0.71573 -0.11835,-0.11609 -0.22352,-0.21107 -0.2337,-0.21107 -0.0102,0 -0.0555,0.0168 -0.1006,0.0372 -0.26249,0.11902 -0.61246,0.14514 -0.90702,0.0677 -0.16984,-0.0447 -0.38624,-0.15497 -0.52351,-0.26688 -0.0952,-0.0776 -0.1407,-0.12708 -0.28836,-0.31354 l -0.0306,-0.0386 -0.13451,0.0181 c -0.37019,0.0498 -0.57717,0.0607 -1.16782,0.0613 -0.38256,3.7e-4 -0.64346,-0.005 -0.76427,-0.0155 -0.18196,-0.0159 -0.4429,-0.0446 -0.52961,-0.0582 -0.0446,-0.007 -0.0459,-0.006 -0.11129,0.0858 -0.12754,0.179 -0.3329,0.34983 -0.52927,0.44027 -0.20061,0.0924 -0.37361,0.13015 -0.59684,0.13028 -0.21787,1.4e-4 -0.32996,-0.0241 -0.60139,-0.1302 l -0.0572,-0.0224 -0.18893,0.18385 c -0.76492,0.74434 -1.43842,1.17269 -2.04448,1.30032 -0.13979,0.0294 -0.43328,0.0423 -0.55028,0.0241 z m 3.61845,-2.04136 c 0.24447,-0.0625 0.43165,-0.23998 0.51625,-0.48944 0.0347,-0.1022 0.0315,-0.32158 -0.006,-0.42799 -0.0754,-0.21311 -0.23782,-0.37777 -0.44867,-0.45478 -0.0529,-0.0193 -0.10981,-0.0279 -0.21047,-0.0318 -0.12292,-0.005 -0.14885,-0.002 -0.23845,0.0263 -0.34814,0.10928 -0.56617,0.46942 -0.49306,0.81443 0.0876,0.41335 0.48145,0.6653 0.88049,0.56324 z m 5.08356,-0.0154 c 0.21544,-0.0788 0.36977,-0.23066 0.45061,-0.44345 0.0348,-0.0915 0.0474,-0.28186 0.0255,-0.38328 -0.0269,-0.1243 -0.10386,-0.26497 -0.19432,-0.3551 -0.1419,-0.14139 -0.30724,-0.20932 -0.50946,-0.20932 -0.0611,0 -0.14332,0.008 -0.18279,0.0187 -0.23882,0.0622 -0.44124,0.26196 -0.51306,0.5063 -0.0243,0.0826 -0.0256,0.27665 -0.002,0.36354 0.0712,0.26723 0.27297,0.4637 0.5393,0.525 0.10829,0.0249 0.28532,0.0147 0.38666,-0.0224 z m 5.14792,-0.71835 c 0.72888,-0.24191 1.40174,-0.95748 1.9492,-2.07296 0.24003,-0.48906 0.45509,-1.05278 0.61581,-1.61415 0.0754,-0.26344 0.10192,-0.37559 0.0911,-0.38562 -0.0203,-0.0189 -0.64858,-0.11344 -1.08597,-0.16348 -0.51492,-0.0589 -1.04518,-0.0981 -1.5255,-0.1127 l -0.2782,-0.008 v 2.21051 2.2105 l 0.0459,-0.008 c 0.0252,-0.005 0.10968,-0.0295 0.18769,-0.0553 z m -0.90914,-2.21664 -0.003,-2.13081 -0.2568,0.002 c -0.3888,0.004 -0.90813,0.0384 -1.44295,0.0967 -0.15469,0.0169 -0.28604,0.0354 -0.29189,0.0412 -0.006,0.006 0.0797,0.16129 0.19699,0.357 0.80206,1.33826 1.35254,2.47221 1.68045,3.46163 0.0552,0.16646 0.10482,0.30265 0.11034,0.30265 0.006,0 0.009,-0.95886 0.007,-2.1308 z m 2.56489,1.98334 c 0.37357,-0.11005 0.81957,-0.29019 1.21061,-0.48898 1.09193,-0.55507 2.02784,-1.35737 2.7406,-2.34934 0.0564,-0.0785 0.10252,-0.15079 0.10252,-0.16071 0,-0.0213 0.0181,-0.0135 -0.27744,-0.11923 -0.46563,-0.16663 -1.01303,-0.33087 -1.5446,-0.46346 -0.37917,-0.0946 -0.53203,-0.1277 -0.55267,-0.11979 -0.009,0.004 -0.027,0.0495 -0.0394,0.10265 -0.0422,0.18097 -0.17658,0.63408 -0.26407,0.89056 -0.3638,1.06651 -0.83629,1.93184 -1.41049,2.58318 -0.0783,0.0888 -0.14239,0.16487 -0.14239,0.16896 0,0.009 -0.003,0.009 0.17732,-0.0438 z m 4.51328,-3.74729 c 0.38012,-0.71507 0.66974,-1.60614 0.78696,-2.42124 0.0406,-0.28206 0.0773,-0.71491 0.0627,-0.73854 -0.006,-0.01 -0.45434,-0.0128 -1.64627,-0.0105 l -1.63786,0.003 -0.008,0.14674 c -0.004,0.0807 -0.0144,0.27055 -0.0222,0.42188 -0.03,0.5808 -0.0945,1.15515 -0.19643,1.74804 -0.0294,0.17117 -0.0336,0.21613 -0.0212,0.22736 0.009,0.008 0.0733,0.0263 0.14388,0.0415 0.65448,0.14001 1.69221,0.44802 2.28672,0.67871 0.0773,0.03 0.14806,0.0535 0.15714,0.0521 0.009,-10e-4 0.0516,-0.0685 0.0945,-0.14917 z m -3.36073,-0.76734 c 0.0118,-0.0148 0.0802,-0.41172 0.11864,-0.68785 0.0678,-0.48738 0.11747,-1.09832 0.12086,-1.48576 l 0.002,-0.22622 h -1.63861 -1.63862 l -0.003,1.06082 c -0.002,0.84463 0,1.06082 0.0122,1.06086 0.26291,7.7e-4 1.06403,0.0478 1.47665,0.0866 0.44973,0.0424 1.1749,0.1394 1.44296,0.19309 0.0788,0.0158 0.0933,0.0156 0.10702,-0.002 z m -5.81771,-0.12457 c 0.51097,-0.0644 1.02462,-0.10824 1.51722,-0.12959 0.17101,-0.007 0.37147,-0.0172 0.44545,-0.0218 l 0.13451,-0.008 v -1.05776 -1.05776 l -1.63795,-0.003 c -0.90088,-0.002 -1.64261,0.002 -1.64828,0.007 -0.012,0.012 0.007,0.4887 0.0339,0.83353 0.0323,0.41975 0.0962,0.9612 0.11601,0.98264 0.005,0.006 0.049,0.0237 0.0971,0.0399 0.19934,0.0671 0.36162,0.17264 0.52606,0.34203 0.0985,0.1015 0.11712,0.11554 0.14525,0.10972 0.0177,-0.004 0.13955,-0.0202 0.2707,-0.0367 z m -1.73368,-0.49818 c 0.003,-0.008 4.6e-4,-0.0451 -0.005,-0.0825 -0.049,-0.34539 -0.10453,-1.02041 -0.11583,-1.40717 -0.004,-0.14461 -0.0131,-0.26979 -0.0197,-0.2782 -0.01,-0.0121 -0.35292,-0.0153 -1.64345,-0.0153 -1.51609,0 -1.63194,10e-4 -1.63926,0.0205 -0.0116,0.0302 0.0285,0.49086 0.0639,0.7344 0.0511,0.35201 0.19142,0.98262 0.22855,1.02737 0.0179,0.0216 3.12349,0.0225 3.1307,9e-4 z m -0.13937,-2.46493 c 0.006,-0.0118 0.0145,-0.13971 0.0188,-0.28431 0.0178,-0.59786 0.0842,-1.26037 0.19289,-1.92315 0.0273,-0.16658 0.047,-0.30983 0.0437,-0.31834 -0.003,-0.009 -0.0765,-0.0311 -0.16325,-0.0504 -0.71181,-0.15784 -1.55581,-0.40824 -2.25619,-0.66937 -0.0922,-0.0344 -0.17544,-0.0596 -0.18491,-0.0559 -0.0216,0.008 -0.25309,0.47178 -0.34953,0.69985 -0.28345,0.67039 -0.47164,1.38881 -0.55094,2.10329 -0.0373,0.33619 -0.0449,0.49554 -0.0243,0.5086 0.009,0.006 0.73033,0.0108 1.63983,0.0109 1.53339,1.8e-4 1.62351,-9.9e-4 1.63389,-0.0212 z m 3.957,0.014 c 0.0174,-0.007 0.0194,-0.11113 0.0194,-1.05626 0,-0.82449 -0.003,-1.05142 -0.0153,-1.0609 -0.008,-0.007 -0.1446,-0.0155 -0.30265,-0.0197 -0.76245,-0.0204 -1.62254,-0.10356 -2.44333,-0.2363 -0.17517,-0.0283 -0.277,-0.0399 -0.28457,-0.0323 -0.0247,0.0247 -0.12199,0.64867 -0.16932,1.08615 -0.0563,0.52 -0.0989,1.2788 -0.0736,1.30933 0.0124,0.015 0.24547,0.0175 1.63227,0.0175 0.88977,0 1.62647,-0.003 1.63711,-0.007 z m 3.96804,-0.004 c 0.0392,-0.0249 -0.0161,-0.91458 -0.0973,-1.56339 -0.0327,-0.26134 -0.11274,-0.77242 -0.12946,-0.8266 -0.008,-0.0269 0.0103,-0.0285 -0.38357,0.0337 -0.81954,0.12958 -1.89138,0.22757 -2.48928,0.22757 -0.0758,0 -0.14654,0.003 -0.15718,0.007 -0.0174,0.007 -0.0193,0.11163 -0.0193,1.06184 0,0.57993 0.004,1.05808 0.008,1.06256 0.0125,0.0125 3.24812,0.009 3.26798,-0.003 z m -3.95172,-5.00099 0.003,-2.20584 -0.0564,0.008 c -0.22108,0.0303 -0.60878,0.22423 -0.89134,0.44584 -0.125,0.098 -0.42493,0.40336 -0.54875,0.55861 -0.12731,0.15962 -0.35323,0.4942 -0.46651,0.69091 -0.32875,0.5708 -0.63143,1.31077 -0.85588,2.09236 -0.0833,0.28988 -0.0912,0.33582 -0.0594,0.34543 0.0702,0.0212 0.69945,0.11381 1.04396,0.15361 0.57317,0.0662 1.39192,0.12273 1.7181,0.11859 l 0.11005,-0.001 z m 1.33593,2.1866 c 0.44919,-0.0232 0.86672,-0.0601 1.31455,-0.11622 0.40699,-0.051 0.90393,-0.12851 0.9187,-0.14327 0.0162,-0.0162 -0.12662,-0.51263 -0.25983,-0.90327 -0.53318,-1.56359 -1.3049,-2.66023 -2.16296,-3.07363 -0.13914,-0.067 -0.38601,-0.15272 -0.44,-0.15272 h -0.0308 v 2.19909 c 0,1.20949 0.004,2.2033 0.009,2.20847 0.009,0.01 0.22742,0.003 0.65117,-0.0185 z m -4.86375,-0.52492 c 0.22305,-0.83871 0.48007,-1.53099 0.79677,-2.14609 0.26943,-0.52331 0.57419,-0.97387 0.90986,-1.34513 0.0547,-0.0605 0.0996,-0.11462 0.0997,-0.1202 4.2e-4,-0.016 -0.0614,7.6e-4 -0.32991,0.0894 -1.54162,0.50911 -2.87223,1.49268 -3.82642,2.82846 -0.0422,0.0591 -0.0739,0.11481 -0.0704,0.12383 0.015,0.0391 0.85918,0.3182 1.46952,0.48591 0.33049,0.0908 0.85956,0.21807 0.89248,0.21469 0.02,-0.002 0.0303,-0.0251 0.0584,-0.1309 z m 7.98002,0.0912 c 0.28138,-0.0636 0.68005,-0.16712 0.99061,-0.25727 0.40878,-0.11867 1.15002,-0.36777 1.1804,-0.3967 0.0118,-0.0112 -0.0996,-0.17634 -0.24523,-0.36346 -0.83217,-1.0695 -1.90762,-1.89036 -3.15239,-2.40612 -0.31958,-0.13241 -0.82579,-0.29986 -0.82579,-0.27316 0,0.007 0.0429,0.0602 0.0953,0.11845 0.49233,0.54671 0.89922,1.22512 1.23773,2.06364 0.19399,0.48054 0.31743,0.86118 0.48837,1.50592 0.008,0.0286 0.0196,0.052 0.0266,0.052 0.007,0 0.099,-0.0195 0.20435,-0.0433 z m -11.95133,9.84618 c -0.0695,-0.0324 -0.14308,-0.10778 -0.17172,-0.17579 -0.0497,-0.11806 -0.0103,-0.28276 0.0885,-0.36972 0.0948,-0.0834 0.11303,-0.0861 0.59593,-0.086 0.25416,0 0.44719,0.005 0.47384,0.0126 0.13326,0.037 0.2424,0.17673 0.2424,0.31031 0,0.13358 -0.0694,0.2477 -0.18585,0.30575 l -0.0635,0.0317 -0.45922,-1.4e-4 c -0.45535,-1.4e-4 -0.45974,-3.7e-4 -0.52037,-0.0286 z m -2.08732,-0.89256 c -0.0606,-0.017 -0.0768,-0.0269 -0.14238,-0.0869 -0.076,-0.0695 -0.0923,-0.11742 -0.0975,-0.28801 -0.003,-0.0841 -0.0104,-0.15973 -0.0172,-0.16814 -0.009,-0.0106 -0.0559,-0.0153 -0.15468,-0.0154 -0.12332,-1.3e-4 -0.15031,-0.004 -0.20333,-0.0287 -0.12566,-0.0588 -0.1942,-0.16533 -0.19381,-0.30133 2.7e-4,-0.0942 0.0217,-0.14986 0.0848,-0.21965 0.0788,-0.0872 0.12187,-0.10247 0.3108,-0.11003 l 0.16508,-0.007 0.006,-0.16508 c 0.006,-0.15095 0.009,-0.1698 0.0387,-0.22011 0.0685,-0.11581 0.1662,-0.17273 0.29657,-0.17273 0.0996,0 0.17344,0.0339 0.24345,0.11175 0.0675,0.0751 0.0817,0.12522 0.0817,0.28923 0,0.0877 0.005,0.13876 0.0147,0.14838 0.01,0.01 0.0597,0.0147 0.14369,0.0148 0.0709,0 0.14924,0.006 0.17398,0.0125 0.0775,0.0215 0.15758,0.0855 0.19857,0.15858 0.0328,0.0585 0.0377,0.0792 0.0377,0.15897 0,0.0788 -0.005,0.10093 -0.0363,0.1572 -0.0737,0.13306 -0.15883,0.17296 -0.36901,0.17296 -0.12394,0 -0.13931,0.002 -0.15068,0.0237 -0.007,0.013 -0.0127,0.0847 -0.0127,0.15936 0,0.0924 -0.006,0.14959 -0.0182,0.17919 -0.0643,0.15391 -0.24132,0.2407 -0.39997,0.19611 z m 5.04661,0.006 c -0.10214,-0.0268 -0.19625,-0.10499 -0.2362,-0.19618 -0.0125,-0.0286 -0.0215,-0.0987 -0.026,-0.20266 l -0.007,-0.15897 -0.16508,-0.006 c -0.1379,-0.005 -0.17314,-0.0106 -0.214,-0.0326 -0.11292,-0.0607 -0.17678,-0.16818 -0.17678,-0.29747 0,-0.13016 0.0669,-0.23982 0.18037,-0.29571 0.0484,-0.0238 0.0829,-0.0293 0.21652,-0.0345 l 0.15897,-0.006 0.007,-0.15897 c 0.007,-0.1699 0.0204,-0.21326 0.0911,-0.29734 0.0845,-0.10046 0.26401,-0.13234 0.39214,-0.0697 0.13287,0.065 0.17871,0.15589 0.18818,0.37311 l 0.007,0.15285 0.15897,0.006 c 0.1341,0.005 0.16806,0.0106 0.21703,0.0347 0.20468,0.1008 0.24253,0.39939 0.0691,0.5453 -0.0785,0.066 -0.10509,0.0736 -0.28003,0.0802 l -0.16509,0.006 -0.007,0.15897 c -0.006,0.14564 -0.01,0.16443 -0.0422,0.22418 -0.0385,0.0708 -0.0813,0.11229 -0.15353,0.14916 -0.053,0.027 -0.15915,0.0397 -0.21327,0.0255 z"
       id="path852"
       inkscape:connector-curvature="0" />
  </g>
</svg>
