<?xml version="1.0" encoding="UTF-8" standalone="no"?>
<!-- Created with Inkscape (http://www.inkscape.org/) -->

<svg
   xmlns:dc="http://purl.org/dc/elements/1.1/"
   xmlns:cc="http://creativecommons.org/ns#"
   xmlns:rdf="http://www.w3.org/1999/02/22-rdf-syntax-ns#"
   xmlns:svg="http://www.w3.org/2000/svg"
   xmlns="http://www.w3.org/2000/svg"
   xmlns:sodipodi="http://sodipodi.sourceforge.net/DTD/sodipodi-0.dtd"
   xmlns:inkscape="http://www.inkscape.org/namespaces/inkscape"
   width="17.983648mm"
   height="18.520567mm"
   viewBox="0 0 17.983648 18.520567"
   version="1.1"
   id="svg8"
   inkscape:version="0.92.4 (5da689c313, 2019-01-14)"
   sodipodi:docname="ds_vertical_icon_1.svg">
  <defs
     id="defs2" />
  <sodipodi:namedview
     id="base"
     pagecolor="#ffffff"
     bordercolor="#666666"
     borderopacity="1.0"
     inkscape:pageopacity="0.0"
     inkscape:pageshadow="2"
     inkscape:zoom="0.35"
     inkscape:cx="489.21574"
     inkscape:cy="725.7872"
     inkscape:document-units="mm"
     inkscape:current-layer="layer1"
     showgrid="false"
     fit-margin-top="0"
     fit-margin-left="0"
     fit-margin-right="0"
     fit-margin-bottom="0"
     inkscape:window-width="1920"
     inkscape:window-height="1017"
     inkscape:window-x="-8"
     inkscape:window-y="-8"
     inkscape:window-maximized="1" />
  <metadata
     id="metadata5">
    <rdf:RDF>
      <cc:Work
         rdf:about="">
        <dc:format>image/svg+xml</dc:format>
        <dc:type
           rdf:resource="http://purl.org/dc/dcmitype/StillImage" />
        <dc:title></dc:title>
      </cc:Work>
    </rdf:RDF>
  </metadata>
  <g
     inkscape:label="Layer 1"
     inkscape:groupmode="layer"
     id="layer1"
     transform="translate(146.44726,-322.34396)">
    <path
       style="fill:#fe8139;stroke-width:0.00969254"
       d="m -141.23544,340.8459 c -0.22361,-0.0586 -0.40716,-0.24561 -0.45289,-0.46146 -0.0116,-0.0546 -0.0141,-0.18834 -0.0143,-0.74289 l -1.8e-4,-0.6763 -0.0449,-0.0264 c -0.0247,-0.0145 -0.15445,-0.0989 -0.28835,-0.1874 -1.4368,-0.95012 -2.60166,-2.26478 -3.37408,-3.808 -0.54619,-1.09124 -0.88224,-2.26001 -0.99772,-3.47004 -0.0395,-0.41441 -0.0394,-0.40649 -0.0394,-2.87384 v -2.38437 l 0.021,-0.0388 c 0.0115,-0.0213 0.0356,-0.0528 0.0534,-0.0699 0.0505,-0.0485 6.85307,-3.75149 6.90625,-3.75946 0.0613,-0.009 0.11137,0.001 0.18768,0.0399 0.12358,0.0622 6.8949,3.65007 6.94753,3.68121 0.0569,0.0336 0.0997,0.0874 0.11718,0.14724 0.008,0.029 0.0106,0.62242 0.008,2.38657 -0.002,1.29141 -0.003,2.34905 -0.003,2.35032 0,0.001 0.73493,0.005 1.63319,0.007 l 1.63319,0.005 0.0653,0.0254 c 0.0955,0.0371 0.16727,0.0831 0.23414,0.15002 0.0694,0.0694 0.11354,0.13972 0.14948,0.23809 l 0.026,0.0711 0.003,1.89726 c 0.003,2.11467 0.007,1.9703 -0.0651,2.11546 -0.0877,0.17586 -0.24776,0.29427 -0.44631,0.33024 -0.0561,0.0102 -0.21237,0.0132 -0.68471,0.0135 -0.54894,3e-4 -0.61263,0.002 -0.6179,0.0157 -0.008,0.0199 -0.008,0.16266 0,0.18258 0.005,0.0138 0.0701,0.0154 0.63244,0.0155 0.70361,1.8e-4 0.7049,2.9e-4 0.84252,0.0681 0.14434,0.0711 0.25356,0.19645 0.30983,0.35547 l 0.0267,0.0754 v 1.92397 1.92397 l -0.0267,0.0754 c -0.0738,0.20861 -0.24953,0.36563 -0.45795,0.40924 -0.0592,0.0124 -0.84412,0.0142 -6.14023,0.0138 -5.94361,-3.7e-4 -6.07387,-7.6e-4 -6.14298,-0.0189 z m 12.19502,-0.49796 c 0.0698,-0.0292 0.064,0.14628 0.064,-1.90561 0,-1.69184 -0.001,-1.84885 -0.0158,-1.86952 -0.0348,-0.0496 -0.0342,-0.0496 -0.70022,-0.0496 h -0.61971 l -0.0421,0.0354 c -0.0232,0.0195 -0.0617,0.0446 -0.0857,0.0557 l -0.0436,0.0203 h -4.59426 c -4.45264,0 -4.59571,-5.5e-4 -4.64091,-0.018 -0.0257,-0.01 -0.0663,-0.035 -0.0902,-0.0557 l -0.0436,-0.0377 h -0.62004 c -0.67519,0 -0.66738,-6e-4 -0.70348,0.0545 -0.017,0.0259 -0.0177,0.10107 -0.0177,1.86462 0,1.76271 7.2e-4,1.83869 0.0177,1.8646 0.01,0.0148 0.0315,0.033 0.0485,0.0404 0.0464,0.0202 12.039,0.0208 12.08734,6.3e-4 z m -3.62406,-1.04425 c -0.36234,-0.0425 -0.67127,-0.32798 -0.7455,-0.6889 -0.0197,-0.0956 -0.0197,-0.24932 0,-0.34491 0.10034,-0.48786 0.59278,-0.79147 1.08019,-0.66598 0.24846,0.064 0.47753,0.26215 0.57661,0.49886 0.18076,0.43186 0.002,0.908 -0.42115,1.11969 -0.13696,0.0686 -0.32809,0.10025 -0.49015,0.0812 z m 0.25855,-0.53388 c 0.0766,-0.0352 0.13769,-0.0948 0.17519,-0.171 0.0289,-0.0586 0.0315,-0.0717 0.0315,-0.15648 0,-0.0848 -0.003,-0.0978 -0.0315,-0.15647 -0.0373,-0.0759 -0.0982,-0.13541 -0.17519,-0.17152 -0.0481,-0.0225 -0.0672,-0.0258 -0.15193,-0.0258 -0.0877,0 -0.10221,0.003 -0.15224,0.028 -0.10556,0.0535 -0.17965,0.15076 -0.20195,0.26518 -0.0322,0.16511 0.0697,0.33938 0.23411,0.40028 0.0754,0.0279 0.19646,0.0225 0.27201,-0.0122 z m 1.86412,0.53529 c -0.29407,-0.0334 -0.55118,-0.2122 -0.68331,-0.47506 -0.12203,-0.24277 -0.12419,-0.51568 -0.006,-0.76087 0.16118,-0.33446 0.511,-0.52913 0.87775,-0.48845 0.30498,0.0338 0.56075,0.21341 0.69353,0.48696 0.18739,0.38605 0.0584,0.85817 -0.2993,1.0956 -0.16656,0.11056 -0.3866,0.16412 -0.58264,0.14182 z m 0.25226,-0.53777 c 0.19926,-0.0975 0.26665,-0.34898 0.14164,-0.52854 -0.17114,-0.24581 -0.55122,-0.18917 -0.64102,0.0955 -0.0245,0.0778 -0.0246,0.13791 -2.2e-4,0.21604 0.0232,0.0743 0.0756,0.14551 0.13938,0.18925 0.0689,0.0473 0.12291,0.0616 0.22019,0.0583 0.0683,-0.002 0.0933,-0.008 0.14001,-0.0306 z m -10.13902,0.45496 c -0.0567,-0.021 -0.10796,-0.0671 -0.13809,-0.12427 l -0.0263,-0.0499 v -0.60579 -0.60578 l 0.0263,-0.0499 c 0.0846,-0.16033 0.30174,-0.18687 0.41797,-0.0511 0.0657,0.0768 0.0646,0.0643 0.0646,0.70676 0,0.64244 0.001,0.63 -0.0646,0.70676 -0.0189,0.0221 -0.0525,0.0495 -0.0746,0.0607 -0.0516,0.0263 -0.15142,0.0324 -0.20529,0.0125 z m 0.95956,0 c -0.059,-0.0218 -0.10681,-0.0666 -0.13714,-0.12833 l -0.0273,-0.0555 v -0.5961 -0.59609 l 0.0273,-0.0555 c 0.0484,-0.0985 0.1403,-0.15044 0.24874,-0.1406 0.0896,0.008 0.16345,0.0573 0.20705,0.13798 0.0208,0.0386 0.0209,0.0418 0.0209,0.65424 0,0.58166 -9.9e-4,0.61734 -0.018,0.6494 -0.0256,0.048 -0.0724,0.0953 -0.11765,0.11862 -0.0501,0.0258 -0.15051,0.0317 -0.20391,0.0119 z m 0.96166,4.8e-4 c -0.06,-0.023 -0.11001,-0.0693 -0.13934,-0.12902 l -0.0272,-0.0553 v -0.59609 -0.5961 l 0.0272,-0.0553 c 0.0477,-0.0971 0.14193,-0.15051 0.24851,-0.14084 0.0899,0.008 0.16372,0.0573 0.20738,0.13801 0.0208,0.0386 0.021,0.0418 0.021,0.65425 0,0.58165 -0.001,0.61734 -0.0181,0.6494 -0.0256,0.048 -0.0724,0.0953 -0.11765,0.11861 -0.0498,0.0257 -0.15094,0.0319 -0.20181,0.0124 z m 0.96707,10e-4 c -0.0755,-0.0291 -0.13261,-0.0848 -0.15893,-0.15497 -0.007,-0.0181 -0.0102,-0.23011 -0.01,-0.63002 2.2e-4,-0.56694 0.001,-0.60509 0.0183,-0.64248 0.0223,-0.0491 0.0729,-0.10079 0.123,-0.12564 0.0543,-0.0269 0.16911,-0.0256 0.22199,0.003 0.0513,0.0273 0.0962,0.0754 0.1204,0.12896 0.0191,0.0423 0.0197,0.0611 0.0198,0.63971 l 1.1e-4,0.59609 -0.0229,0.0485 c -0.0439,0.0928 -0.13201,0.15024 -0.22887,0.14928 -0.0293,-2.9e-4 -0.0666,-0.006 -0.0828,-0.0119 z m 0.95956,0 c -0.0814,-0.0313 -0.15214,-0.10666 -0.1646,-0.17512 -0.003,-0.0166 -0.004,-0.30053 -0.003,-0.63105 0.003,-0.66583 -8.2e-4,-0.62482 0.0678,-0.69346 0.0756,-0.0756 0.19102,-0.0976 0.28436,-0.0542 0.0581,0.0271 0.12262,0.0968 0.13847,0.14966 0.0162,0.0539 0.0162,1.19046 0,1.24439 -0.0159,0.0529 -0.0803,0.12259 -0.13847,0.14967 -0.0542,0.0252 -0.13435,0.0296 -0.18498,0.0101 z m -5.1222,-1.45314 c -8e-5,-0.31586 -0.003,-0.57876 -0.007,-0.58423 -0.004,-0.005 -0.066,-0.0531 -0.13797,-0.10579 -0.50036,-0.36648 -1.00356,-0.8405 -1.41203,-1.33015 -0.96343,-1.15489 -1.58814,-2.59269 -1.77643,-4.08856 -0.0547,-0.43447 -0.0522,-0.32408 -0.056,-2.46675 -0.003,-1.55879 -9.2e-4,-1.99144 0.009,-2.02574 0.0271,-0.0981 -0.12022,-0.0137 2.80454,-1.60688 1.48199,-0.80727 2.72184,-1.48081 2.75522,-1.49676 0.087,-0.0415 0.15352,-0.0403 0.24727,0.005 0.0385,0.0184 1.31529,0.69312 2.83726,1.49934 2.14649,1.13704 2.77645,1.4748 2.80837,1.50572 0.0822,0.0797 0.0752,-0.10793 0.0752,1.99866 0,1.2359 0.003,1.87308 0.01,1.87778 0.0139,0.0102 0.79208,0.009 0.80829,-10e-4 0.0105,-0.007 0.0152,-0.0591 0.0212,-0.23974 0.0102,-0.30322 0.0109,-4.24995 8.2e-4,-4.26585 -0.006,-0.01 -6.37689,-3.39139 -6.64314,-3.52638 l -0.0651,-0.033 -3.25457,1.77328 -3.25457,1.77329 v 2.30967 c 0,2.51028 -0.002,2.3916 0.0535,2.86921 0.21043,1.80309 0.9303,3.48672 2.08777,4.88281 0.20389,0.24593 0.34134,0.39559 0.6057,0.65949 0.33726,0.33666 0.63056,0.59236 0.98948,0.86263 0.1942,0.14622 0.45894,0.32864 0.47736,0.32891 0.016,2.2e-4 0.017,-0.0334 0.0168,-0.57403 z m 0.0211,-1.29695 c 0.0302,-0.10754 0.0743,-0.18181 0.15835,-0.26702 0.0616,-0.0625 0.0945,-0.0868 0.15994,-0.1189 0.14041,-0.0687 0.14003,-0.0687 0.84568,-0.0689 l 0.62759,-1.9e-4 v -0.10661 -0.10662 l -0.60821,-1.1e-4 c -0.36776,0 -0.63311,-0.004 -0.67121,-0.01 -0.0996,-0.0157 -0.17992,-0.0463 -0.25721,-0.098 -0.0913,-0.0611 -0.16037,-0.13858 -0.20783,-0.2332 -0.0737,-0.14695 -0.0689,0.007 -0.0659,-2.11576 l 0.003,-1.89974 0.0216,-0.063 c 0.063,-0.18405 0.19853,-0.32247 0.38804,-0.3962 l 0.0653,-0.0254 3.56847,-0.005 c 1.96266,-0.003 3.5721,-0.008 3.57654,-0.0129 0.0101,-0.01 0.0157,-3.5257 0.006,-3.54031 -0.008,-0.0109 -5.26949,-2.80106 -5.31352,-2.81744 -0.0219,-0.008 -0.30911,0.14583 -2.60771,1.39831 -1.42069,0.77412 -2.5864,1.4125 -2.59047,1.41862 -0.004,0.006 -0.006,0.83111 -0.004,1.83332 0.003,1.96357 0.002,1.9016 0.0556,2.34075 0.23199,1.89918 1.19589,3.63915 2.69754,4.86945 0.0632,0.0518 0.11954,0.0925 0.12528,0.0906 0.006,-0.002 0.0183,-0.0316 0.028,-0.0659 z m 10.88801,-0.58098 v -0.22778 h -4.28895 -4.28895 l -0.003,0.21786 c -0.001,0.11983 -4.8e-4,0.22342 0.002,0.23021 0.004,0.01 0.82665,0.0119 4.29156,0.01 l 4.28683,-0.002 z m -9.0349,-0.6447 c 0.0201,-0.0241 0.0592,-0.0557 0.0869,-0.0703 l 0.0503,-0.0265 h 4.60395 4.60396 l 0.0542,0.0254 c 0.0339,0.0159 0.0683,0.0422 0.0917,0.0703 l 0.0375,0.0448 h 0.6236 c 0.67676,0 0.66398,9.8e-4 0.68859,-0.053 0.009,-0.0194 0.0116,-0.45971 0.0116,-1.86639 v -1.84097 l -0.0283,-0.0317 -0.0283,-0.0317 -6.04504,-0.002 -6.04505,-0.002 -0.0321,0.0321 c -0.0229,0.0229 -0.0339,0.0444 -0.0383,0.0751 -0.003,0.0237 -0.005,0.8543 -0.003,1.84585 0.003,1.6953 0.004,1.80423 0.0197,1.82666 0.0349,0.0493 0.0187,0.0481 0.6862,0.0485 l 0.62554,3.3e-4 0.0366,-0.0437 z m 7.10233,-1.01801 c -0.19372,-0.042 -0.33306,-0.1208 -0.4671,-0.26406 -0.15567,-0.16639 -0.23185,-0.35941 -0.23185,-0.58741 0,-0.23966 0.0814,-0.43564 0.252,-0.60662 0.12561,-0.12589 0.25034,-0.19649 0.42305,-0.23948 0.10327,-0.0257 0.30482,-0.0233 0.41051,0.005 0.53771,0.14365 0.80791,0.72276 0.56834,1.21809 -0.14844,0.30689 -0.44621,0.49076 -0.79127,0.48858 -0.056,-3.7e-4 -0.12963,-0.007 -0.16368,-0.0141 z m 0.32379,-0.52647 c 0.0752,-0.0352 0.13905,-0.0982 0.17615,-0.1737 0.0243,-0.0495 0.0272,-0.0657 0.0272,-0.15234 0,-0.0879 -0.003,-0.10214 -0.0283,-0.15281 -0.0335,-0.0661 -0.11427,-0.14592 -0.17475,-0.17267 -0.10801,-0.0478 -0.22233,-0.0433 -0.32779,0.0127 -0.0702,0.0373 -0.11719,0.0889 -0.1555,0.17079 -0.0259,0.0553 -0.0299,0.0744 -0.0294,0.14174 3.9e-4,0.0558 0.007,0.0934 0.0218,0.13303 0.0233,0.0605 0.0888,0.13998 0.14268,0.17329 0.10463,0.0647 0.23617,0.0722 0.34785,0.0199 z m 1.78809,0.52669 c -0.38847,-0.0797 -0.66353,-0.389 -0.70233,-0.78973 -0.0141,-0.14589 0.0328,-0.34931 0.11397,-0.49432 0.0564,-0.10067 0.21684,-0.26082 0.31885,-0.31822 0.34121,-0.192 0.75557,-0.14294 1.03728,0.12281 0.44015,0.41522 0.33252,1.13348 -0.21045,1.40434 -0.0702,0.035 -0.16386,0.0659 -0.24167,0.0797 -0.0772,0.0137 -0.23809,0.0113 -0.31565,-0.005 z m 0.3247,-0.5273 c 0.23007,-0.11327 0.27711,-0.41893 0.0903,-0.58688 -0.18688,-0.16802 -0.47176,-0.10945 -0.57781,0.11879 -0.0218,0.0469 -0.0258,0.0689 -0.026,0.14266 -1.8e-4,0.0759 0.003,0.0951 0.0276,0.14754 0.0442,0.0958 0.14556,0.18069 0.2458,0.206 0.0677,0.0171 0.17338,0.005 0.24004,-0.0281 z m -10.12937,0.45713 c -0.0907,-0.0324 -0.14979,-0.099 -0.16877,-0.19041 -0.007,-0.0346 -0.01,-0.23536 -0.008,-0.62212 l 0.003,-0.57097 0.0226,-0.0459 c 0.0277,-0.0562 0.094,-0.11635 0.14513,-0.13167 0.057,-0.0171 0.14597,-0.0138 0.19087,0.007 0.048,0.0223 0.0967,0.0699 0.12436,0.12162 0.0208,0.0389 0.0211,0.0455 0.0241,0.62083 0.002,0.39828 -2.9e-4,0.59683 -0.008,0.63002 -0.031,0.14101 -0.19042,0.22989 -0.32567,0.18162 z m 0.95698,-8.7e-4 c -0.0641,-0.0228 -0.13104,-0.0863 -0.15421,-0.14637 -0.0155,-0.0403 -0.017,-0.095 -0.017,-0.64017 0,-0.66006 -0.003,-0.62592 0.0641,-0.70252 0.0462,-0.0526 0.11495,-0.0824 0.1906,-0.0825 0.10064,-1.4e-4 0.17323,0.042 0.22106,0.12829 l 0.0282,0.0509 0.003,0.59515 c 0.002,0.51456 7e-4,0.60122 -0.0122,0.64001 -0.0432,0.13013 -0.19372,0.20329 -0.32331,0.15716 z m 0.95964,0 c -0.0608,-0.0216 -0.11917,-0.075 -0.14965,-0.13687 l -0.0216,-0.0439 v -0.59609 -0.59609 l 0.0223,-0.0485 c 0.0457,-0.0992 0.12543,-0.15013 0.23453,-0.14992 0.10152,1.8e-4 0.18361,0.0509 0.22838,0.14117 0.0179,0.036 0.0189,0.0667 0.0214,0.63208 0.002,0.39272 -8.1e-4,0.60706 -0.008,0.63203 -0.0353,0.13098 -0.19668,0.21275 -0.32782,0.16607 z m 0.96385,0.003 c -0.0611,-0.0194 -0.14223,-0.0988 -0.15895,-0.15539 -0.009,-0.0295 -0.0117,-0.19552 -0.0116,-0.63486 2.2e-4,-0.5776 8e-4,-0.59624 0.02,-0.63859 0.0265,-0.0586 0.0621,-0.0948 0.12037,-0.12229 0.10173,-0.0481 0.23704,-0.0205 0.30526,0.0623 0.0596,0.0724 0.0591,0.0648 0.0561,0.72489 l -0.003,0.60002 -0.0265,0.045 c -0.0636,0.10826 -0.18518,0.15613 -0.30197,0.11895 z m 0.96299,10e-4 c -0.0599,-0.0192 -0.12365,-0.0763 -0.15116,-0.13534 l -0.0228,-0.049 1.1e-4,-0.60093 c 1.5e-4,-0.66271 -0.002,-0.63364 0.0614,-0.70923 0.0689,-0.0816 0.20787,-0.10582 0.30773,-0.0537 0.0579,0.0303 0.10908,0.09 0.12442,0.14522 0.006,0.0231 0.01,0.24966 0.01,0.62735 v 0.59124 l -0.0226,0.0485 c -0.0246,0.0527 -0.0786,0.10615 -0.12845,0.12697 -0.0496,0.0207 -0.12924,0.0247 -0.17861,0.009 z"
       id="path826"
       inkscape:connector-curvature="0" />
  </g>
</svg>
