<?xml version="1.0" encoding="UTF-8" standalone="no"?>
<!-- Created with Inkscape (http://www.inkscape.org/) -->

<svg
   xmlns:dc="http://purl.org/dc/elements/1.1/"
   xmlns:cc="http://creativecommons.org/ns#"
   xmlns:rdf="http://www.w3.org/1999/02/22-rdf-syntax-ns#"
   xmlns:svg="http://www.w3.org/2000/svg"
   xmlns="http://www.w3.org/2000/svg"
   xmlns:sodipodi="http://sodipodi.sourceforge.net/DTD/sodipodi-0.dtd"
   xmlns:inkscape="http://www.inkscape.org/namespaces/inkscape"
   width="19.654411mm"
   height="18.520842mm"
   viewBox="0 0 19.654411 18.520842"
   version="1.1"
   id="svg8"
   inkscape:version="0.92.4 (5da689c313, 2019-01-14)"
   sodipodi:docname="ds_vertical_icon_2.svg">
  <defs
     id="defs2" />
  <sodipodi:namedview
     id="base"
     pagecolor="#ffffff"
     bordercolor="#666666"
     borderopacity="1.0"
     inkscape:pageopacity="0.0"
     inkscape:pageshadow="2"
     inkscape:zoom="3.959798"
     inkscape:cx="13.414437"
     inkscape:cy="39.10487"
     inkscape:document-units="mm"
     inkscape:current-layer="layer1"
     showgrid="false"
     fit-margin-top="0"
     fit-margin-left="0"
     fit-margin-right="0"
     fit-margin-bottom="0"
     inkscape:window-width="1920"
     inkscape:window-height="1017"
     inkscape:window-x="-8"
     inkscape:window-y="-8"
     inkscape:window-maximized="1" />
  <metadata
     id="metadata5">
    <rdf:RDF>
      <cc:Work
         rdf:about="">
        <dc:format>image/svg+xml</dc:format>
        <dc:type
           rdf:resource="http://purl.org/dc/dcmitype/StillImage" />
        <dc:title></dc:title>
      </cc:Work>
    </rdf:RDF>
  </metadata>
  <g
     inkscape:label="Layer 1"
     inkscape:groupmode="layer"
     id="layer1"
     transform="translate(-12.71978,-353.39861)">
    <path
       style="fill:#fe8139;stroke-width:0.01056857"
       d="m 18.044822,371.9036 c -0.03778,-0.008 -0.10912,-0.0346 -0.158529,-0.0588 -0.120827,-0.0592 -0.251582,-0.1884 -0.308957,-0.30527 -0.07165,-0.14594 -0.07118,-0.14009 -0.07136,-0.89482 -8e-5,-0.37299 -0.003,-0.68569 -0.0066,-0.69488 -0.0058,-0.0152 -0.178854,-0.0167 -1.852419,-0.0167 -1.203538,0 -1.876225,-0.004 -1.932838,-0.0109 -0.108899,-0.0137 -0.24668,-0.0532 -0.347431,-0.0998 -0.339562,-0.15689 -0.590037,-0.49589 -0.637685,-0.86308 -0.0082,-0.063 -0.01061,-2.17434 -0.0085,-7.35429 l 0.003,-7.2659 0.0251,-0.0898 c 0.03467,-0.12407 0.09355,-0.25692 0.155019,-0.34977 0.06354,-0.096 0.209144,-0.24451 0.298423,-0.30443 0.10014,-0.0672 0.248891,-0.13513 0.366943,-0.16755 l 0.105685,-0.029 h 8.872316 8.872316 l 0.105685,0.029 c 0.118052,0.0324 0.266803,0.10034 0.366943,0.16755 0.08928,0.0599 0.234884,0.20846 0.298423,0.30443 0.06147,0.0928 0.120349,0.2257 0.155019,0.34977 l 0.0251,0.0898 0.003,7.2659 c 0.0021,5.17995 -3.2e-4,7.29127 -0.0085,7.35429 -0.04765,0.36719 -0.298124,0.70619 -0.637686,0.86308 -0.100751,0.0466 -0.238531,0.0861 -0.34743,0.0998 -0.05661,0.007 -0.7293,0.0109 -1.932838,0.0109 -1.673565,0 -1.846604,0.002 -1.85242,0.0167 -0.0035,0.009 -0.0065,0.32189 -0.0066,0.69488 -1.6e-4,0.75473 2.8e-4,0.74888 -0.07136,0.89482 -0.05741,0.11695 -0.188157,0.2461 -0.308957,0.3052 -0.167228,0.0818 0.262014,0.075 -4.666024,0.0743 -3.747985,-5.6e-4 -4.438784,-0.003 -4.496927,-0.0154 z m 8.930845,-0.52521 c 0.03445,-0.0174 0.05356,-0.0365 0.07094,-0.0709 l 0.02378,-0.0472 v -1.22405 c 0,-1.01587 -0.0025,-1.22984 -0.01455,-1.25807 -0.02018,-0.0472 -0.06744,-0.088 -0.117556,-0.10166 -0.05996,-0.0163 -8.722525,-0.0163 -8.782483,0 -0.05011,0.0136 -0.09738,0.0545 -0.117556,0.10166 -0.01208,0.0282 -0.01455,0.2422 -0.01455,1.25807 v 1.22405 l 0.02378,0.0472 c 0.01737,0.0344 0.03649,0.0536 0.07093,0.0709 l 0.04716,0.0238 h 4.381478 4.381479 z m -3.071764,-0.63077 c -0.07705,-0.0123 -0.156638,-0.0398 -0.241885,-0.0836 -0.105335,-0.0541 -0.240712,-0.19135 -0.293595,-0.29756 -0.107104,-0.2151 -0.108259,-0.43759 -0.0034,-0.64997 0.08264,-0.16733 0.216686,-0.28706 0.399765,-0.35707 0.08398,-0.0321 0.0937,-0.0335 0.245965,-0.0336 0.145726,-2e-4 0.164788,0.002 0.236045,0.0281 0.114124,0.0416 0.187694,0.0889 0.27653,0.1777 0.139074,0.13908 0.200673,0.27655 0.20904,0.46654 0.01321,0.29989 -0.13536,0.55009 -0.40654,0.68463 -0.117547,0.0583 -0.293495,0.0854 -0.421953,0.0649 z m 0.207359,-0.53974 c 0.04923,-0.0251 0.07954,-0.0658 0.09662,-0.12962 0.01679,-0.0628 2.4e-4,-0.12076 -0.05045,-0.17689 -0.132756,-0.14695 -0.385779,-0.0197 -0.342639,0.17227 0.03061,0.13623 0.169396,0.19907 0.296478,0.13424 z m 1.696176,0.54277 c -0.167764,-0.0269 -0.296303,-0.0928 -0.418416,-0.21449 -0.155037,-0.15444 -0.218704,-0.31966 -0.207546,-0.53858 0.0098,-0.19285 0.07067,-0.32854 0.208952,-0.46605 0.09002,-0.0895 0.16331,-0.13665 0.276082,-0.1776 0.07044,-0.0256 0.0915,-0.0281 0.230761,-0.0283 0.140256,-1.6e-4 0.160491,0.002 0.238749,0.0292 0.214348,0.0736 0.378562,0.23848 0.455113,0.45688 0.02649,0.0756 0.02962,0.0989 0.02984,0.22184 2e-4,0.11598 -0.0036,0.14892 -0.02434,0.21137 -0.03934,0.11841 -0.09272,0.2037 -0.185864,0.29695 -0.09165,0.0918 -0.203725,0.15751 -0.32327,0.18965 -0.06128,0.0165 -0.226393,0.0278 -0.280067,0.0191 z m 0.200916,-0.54752 c 0.13636,-0.0799 0.117951,-0.29802 -0.02987,-0.35387 -0.04111,-0.0155 -0.117402,-0.0141 -0.158345,0.003 -0.083,0.0347 -0.136666,0.14183 -0.114042,0.22768 0.03639,0.13811 0.178153,0.19587 0.302252,0.12315 z m -7.193923,0.48717 c -0.08281,-0.023 -0.14924,-0.0849 -0.176153,-0.16425 -0.0078,-0.0231 -0.0121,-0.12293 -0.01195,-0.28007 2e-4,-0.22287 0.0021,-0.24829 0.02179,-0.2917 0.02823,-0.0623 0.05649,-0.0915 0.119761,-0.12365 0.04431,-0.0225 0.06313,-0.0259 0.127853,-0.0226 0.09645,0.005 0.163708,0.0429 0.210951,0.11925 l 0.03198,0.0517 0.0033,0.24552 c 0.0021,0.1511 -9.83e-4,0.26156 -0.0079,0.28723 -0.03527,0.13098 -0.186575,0.21551 -0.319679,0.17858 z m 0.866623,0 c -0.08281,-0.023 -0.149241,-0.0849 -0.176153,-0.16425 -0.0078,-0.0231 -0.0121,-0.12293 -0.01195,-0.28007 2e-4,-0.22287 0.0021,-0.24829 0.02179,-0.2917 0.02801,-0.0618 0.05647,-0.0914 0.117656,-0.12259 0.136505,-0.0695 0.312514,-4e-4 0.363687,0.14277 0.01942,0.0543 0.01895,0.49843 -5.87e-4,0.55318 -0.04443,0.1245 -0.186704,0.1981 -0.314443,0.16266 z m 0.865491,-2.8e-4 c -0.0687,-0.019 -0.123319,-0.065 -0.158142,-0.13311 l -0.02906,-0.0568 2.4e-4,-0.24911 c 1.99e-4,-0.22786 0.0021,-0.25316 0.02179,-0.29666 0.02823,-0.0623 0.05649,-0.0915 0.119762,-0.12366 0.0443,-0.0225 0.06313,-0.0259 0.127852,-0.0226 0.09645,0.005 0.163708,0.0429 0.210951,0.11926 l 0.03199,0.0517 0.0033,0.24552 c 0.0021,0.1511 -9.83e-4,0.26156 -0.0079,0.28723 -0.03541,0.13151 -0.186497,0.21548 -0.32081,0.17829 z m 0.866623,0 c -0.0687,-0.019 -0.123319,-0.065 -0.158142,-0.13311 l -0.02906,-0.0568 2.39e-4,-0.24911 c 2e-4,-0.22786 0.0021,-0.25316 0.02179,-0.29666 0.02823,-0.0623 0.05649,-0.0915 0.119762,-0.12366 0.0443,-0.0225 0.06313,-0.0259 0.127852,-0.0226 0.09645,0.005 0.163708,0.0429 0.210951,0.11926 l 0.03198,0.0517 0.0033,0.24552 c 0.0021,0.1511 -9.83e-4,0.26156 -0.0079,0.28723 -0.03541,0.13151 -0.186496,0.21548 -0.320809,0.17829 z m -3.920025,-1.28742 c 0.0093,-0.009 0.01268,-0.0986 0.01268,-0.33597 0,-0.36383 0.0039,-0.39197 0.07355,-0.53435 0.0557,-0.11381 0.145474,-0.21053 0.262799,-0.2831 l 0.09168,-0.0567 0.0026,-0.15745 c 0.0014,-0.0866 -9.31e-4,-0.16237 -0.0053,-0.16838 -0.0044,-0.006 -0.04324,-0.0317 -0.0864,-0.0571 -0.144526,-0.085 -0.260489,-0.22943 -0.310245,-0.38647 l -0.02344,-0.074 v -1.33692 -1.33693 l 0.02772,-0.0712 c 0.0616,-0.15834 0.175637,-0.29639 0.303431,-0.36734 0.103915,-0.0577 0.09688,-0.0381 0.09688,-0.2695 0,-0.23139 0.007,-0.21181 -0.09688,-0.2695 -0.134443,-0.0746 -0.258354,-0.22998 -0.307711,-0.38575 l -0.02344,-0.074 v -1.33693 -1.33693 l 0.02772,-0.0713 c 0.04195,-0.10784 0.09178,-0.18497 0.168803,-0.26129 0.08094,-0.0802 0.156358,-0.1279 0.264958,-0.16757 l 0.07752,-0.0283 h 4.496926 4.496927 l 0.07752,0.0283 c 0.212188,0.0775 0.372866,0.24157 0.438041,0.44727 l 0.02344,0.074 v 1.32635 1.32636 l -0.02344,0.074 c -0.04936,0.15578 -0.173269,0.31111 -0.307711,0.38575 -0.103916,0.0577 -0.09688,0.0381 -0.09688,0.2695 0,0.23139 -0.007,0.21181 0.09688,0.2695 0.134442,0.0746 0.258354,0.22998 0.307711,0.38575 l 0.02344,0.074 v 1.32636 1.32635 l -0.02344,0.074 c -0.04933,0.15569 -0.172382,0.30967 -0.308273,0.38576 -0.101785,0.057 -0.09631,0.0445 -0.09631,0.21922 0,0.12874 0.0029,0.1575 0.01749,0.17363 0.0096,0.0106 0.02206,0.0193 0.02764,0.0193 0.0056,0 0.04272,0.0217 0.08253,0.0481 0.09742,0.0648 0.181931,0.16066 0.232347,0.26365 0.06943,0.14183 0.0733,0.17011 0.0733,0.53464 0,0.26214 0.0028,0.32642 0.01453,0.33618 0.0108,0.009 0.495165,0.0113 1.883848,0.009 l 1.869314,-0.003 0.0687,-0.0235 c 0.199673,-0.0683 0.349359,-0.2224 0.409203,-0.42124 0.01794,-0.0596 0.01895,-0.3315 0.02154,-5.77806 0.0019,-3.95031 -6.87e-4,-5.72186 -0.0083,-5.73609 -0.01091,-0.0204 -0.104742,-0.0206 -9.300048,-0.0206 -9.195305,0 -9.289141,2.1e-4 -9.300047,0.0206 -0.0076,0.0142 -0.01018,1.78578 -0.0083,5.73609 0.0026,5.44656 0.0036,5.71845 0.02154,5.77806 0.0687,0.22828 0.259984,0.40055 0.486847,0.43845 0.02995,0.005 0.88222,0.01 1.893923,0.0103 1.41798,9.5e-4 1.842365,-0.002 1.852142,-0.0114 z m 9.141681,-1.36496 c 0.002,-0.0677 -0.0013,-0.10929 -0.0092,-0.11889 -0.01046,-0.0126 -0.609283,-0.0148 -4.077751,-0.0148 -3.147958,0 -4.068355,0.003 -4.078174,0.0127 -0.01353,0.0135 -0.01849,0.2105 -0.0056,0.22336 0.0039,0.004 1.84321,0.006 4.087395,0.004 l 4.080335,-0.003 z m 0.358161,-0.67857 c 0.01641,-0.012 0.04061,-0.0428 0.05379,-0.0686 l 0.02395,-0.0469 -0.0028,-1.23741 -0.0028,-1.23741 -0.02961,-0.0388 c -0.01628,-0.0214 -0.0434,-0.046 -0.06024,-0.0547 -0.02708,-0.014 -0.541296,-0.0158 -4.42821,-0.0158 -3.886914,0 -4.401133,0.002 -4.42821,0.0158 -0.01685,0.009 -0.04396,0.0333 -0.06024,0.0547 l -0.02961,0.0388 -0.0032,1.22678 c -0.0021,0.83314 4e-4,1.23904 0.0079,1.26498 0.01459,0.0503 0.04914,0.093 0.08945,0.11061 0.02717,0.0119 0.766888,0.0138 4.436279,0.012 l 4.403678,-0.002 z m -3.130164,-0.63348 c -0.341163,-0.0762 -0.575621,-0.36248 -0.575621,-0.70282 0,-0.2631 0.148172,-0.50986 0.380102,-0.63302 0.197122,-0.10468 0.447935,-0.11338 0.642563,-0.0223 0.18699,0.0875 0.312406,0.22292 0.386344,0.41716 0.03066,0.0806 0.03232,0.0928 0.03232,0.23816 0,0.14537 -0.0017,0.15761 -0.03232,0.23816 -0.07403,0.19448 -0.202672,0.33314 -0.386332,0.41642 -0.131725,0.0597 -0.309673,0.0789 -0.447056,0.0482 z m 0.232945,-0.52188 c 0.06784,-0.0308 0.120983,-0.1103 0.120983,-0.18094 0,-0.0706 -0.05314,-0.15012 -0.120983,-0.18094 -0.116865,-0.0531 -0.246367,0.01 -0.279938,0.13602 -0.04167,0.15664 0.129061,0.29439 0.279938,0.22586 z m 1.648427,0.52088 c -0.329622,-0.0737 -0.565585,-0.36654 -0.565585,-0.70182 0,-0.28423 0.160332,-0.53153 0.424863,-0.65532 0.194627,-0.0911 0.445441,-0.0824 0.642562,0.0223 0.231931,0.12316 0.380102,0.36992 0.380102,0.63302 0,0.31229 -0.20173,0.58699 -0.50164,0.68309 -0.108875,0.0349 -0.272128,0.0429 -0.380302,0.0187 z m 0.245146,-0.52324 c 0.08502,-0.0412 0.131261,-0.1367 0.108168,-0.2235 -0.03357,-0.12618 -0.163072,-0.1891 -0.279938,-0.13602 -0.116753,0.053 -0.153108,0.19297 -0.07731,0.29761 0.0574,0.0792 0.160401,0.10484 0.249083,0.0619 z m -7.17308,0.47799 c -0.04846,-0.0159 -0.0894,-0.0414 -0.123576,-0.077 -0.06255,-0.0652 -0.06659,-0.0874 -0.06659,-0.36574 0,-0.24881 3.2e-4,-0.25258 0.02694,-0.30597 0.0794,-0.15934 0.28365,-0.18979 0.412016,-0.0614 0.07427,0.0743 0.07893,0.0965 0.0788,0.37676 -8e-5,0.22595 -0.0012,0.23896 -0.02491,0.28985 -0.02532,0.0544 -0.06849,0.0982 -0.125926,0.12793 -0.03734,0.0193 -0.138308,0.0282 -0.176754,0.0156 z m 0.866623,0 c -0.04846,-0.0159 -0.0894,-0.0414 -0.123577,-0.077 -0.06255,-0.0652 -0.06659,-0.0874 -0.06659,-0.36574 0,-0.24881 3.2e-4,-0.25258 0.02694,-0.30597 0.0794,-0.15934 0.28365,-0.18979 0.412016,-0.0614 0.07427,0.0743 0.07892,0.0965 0.0788,0.37676 -8e-5,0.22595 -0.0012,0.23896 -0.02491,0.28985 -0.02532,0.0544 -0.06849,0.0982 -0.125927,0.12793 -0.03734,0.0193 -0.138307,0.0282 -0.176753,0.0156 z m 0.866623,0 c -0.0523,-0.0172 -0.09249,-0.0432 -0.126508,-0.0819 -0.061,-0.0695 -0.06366,-0.0845 -0.06366,-0.36086 0,-0.24881 3.2e-4,-0.25258 0.02694,-0.30597 0.0794,-0.15934 0.28365,-0.18979 0.412016,-0.0614 0.07431,0.0743 0.07895,0.0965 0.07867,0.37676 -2e-4,0.2151 -0.0022,0.24089 -0.02176,0.28413 -0.02672,0.059 -0.06594,0.10121 -0.119919,0.12896 -0.04534,0.0233 -0.143817,0.0341 -0.185783,0.0203 z m 0.866623,0 c -0.0523,-0.0172 -0.09249,-0.0432 -0.126508,-0.0819 -0.061,-0.0695 -0.06366,-0.0845 -0.06366,-0.36086 0,-0.24881 3.19e-4,-0.25258 0.02694,-0.30597 0.0794,-0.15934 0.28365,-0.18979 0.412016,-0.0614 0.07431,0.0743 0.07895,0.0965 0.07867,0.37676 -2e-4,0.2151 -0.0022,0.24089 -0.02176,0.28413 -0.02672,0.059 -0.06594,0.10121 -0.119919,0.12896 -0.04534,0.0233 -0.143817,0.0341 -0.185783,0.0203 z m 5.20826,-2.55046 c 0.0087,-0.009 0.01268,-0.0599 0.01268,-0.1617 0,-0.10181 -0.004,-0.15303 -0.01268,-0.1617 -0.01848,-0.0185 -8.136225,-0.0185 -8.154709,0 -0.0087,0.009 -0.01268,0.0599 -0.01268,0.1617 0,0.10181 0.004,0.15304 0.01268,0.1617 0.01848,0.0185 8.136225,0.0185 8.154709,0 z m 0.350856,-0.86978 c 0.01685,-0.009 0.04396,-0.0333 0.06024,-0.0547 l 0.02961,-0.0388 0.0028,-1.23741 0.0028,-1.2374 -0.02395,-0.0469 c -0.01317,-0.0258 -0.03738,-0.0567 -0.05379,-0.0686 l -0.02984,-0.0218 H 22.547 18.130888 l -0.02984,0.0218 c -0.01641,0.012 -0.04062,0.0428 -0.05379,0.0686 l -0.02395,0.0469 0.0028,1.23658 0.0028,1.23658 0.02524,0.0354 c 0.01388,0.0195 0.04004,0.0444 0.05813,0.0555 0.03215,0.0196 0.130905,0.02 4.432576,0.0201 3.888847,0 4.403249,-0.002 4.430327,-0.0158 z m -3.136489,-0.64929 c -0.323494,-0.0795 -0.551555,-0.36818 -0.551555,-0.69822 0,-0.205 0.09712,-0.41413 0.254747,-0.54859 0.161609,-0.13785 0.410975,-0.2002 0.617721,-0.15445 0.255404,0.0565 0.443163,0.21922 0.536469,0.46488 0.03049,0.0803 0.03227,0.0933 0.03256,0.23816 2.79e-4,0.14641 -0.0012,0.15707 -0.03253,0.23893 -0.07494,0.19551 -0.198188,0.32837 -0.386235,0.41636 -0.135411,0.0634 -0.319644,0.0801 -0.471178,0.0429 z m 0.257011,-0.51728 c 0.06784,-0.0308 0.120983,-0.11029 0.120983,-0.18094 0,-0.0361 -0.02364,-0.0966 -0.05005,-0.12799 -0.105657,-0.12557 -0.308112,-0.0776 -0.35087,0.0831 -0.04167,0.15664 0.129061,0.29439 0.279938,0.22585 z m 1.644359,0.52144 c -0.141919,-0.0308 -0.301926,-0.12886 -0.395665,-0.24251 -0.301264,-0.36523 -0.177467,-0.91154 0.251606,-1.11031 0.30584,-0.14168 0.67905,-0.0518 0.879566,0.21185 0.201611,0.26508 0.201028,0.61183 -0.0015,0.87947 -0.129878,0.17165 -0.354492,0.2791 -0.57897,0.27695 -0.04826,-4.7e-4 -0.118037,-0.007 -0.155059,-0.0154 z m 0.248206,-0.52179 c 0.08307,-0.0377 0.132158,-0.13912 0.109176,-0.2255 -0.03329,-0.12514 -0.164038,-0.18867 -0.279938,-0.13602 -0.06784,0.0308 -0.120983,0.11029 -0.120983,0.18093 0,0.0362 0.02364,0.0966 0.05005,0.128 0.05759,0.0685 0.158451,0.0904 0.241693,0.0526 z m -7.190867,0.47259 c -0.04949,-0.0168 -0.128774,-0.0901 -0.151518,-0.14019 -0.01708,-0.0376 -0.01939,-0.0729 -0.01939,-0.29633 0,-0.2244 0.0023,-0.25862 0.01959,-0.29677 0.07807,-0.1719 0.312102,-0.20346 0.43593,-0.0588 0.05648,0.066 0.06191,0.0979 0.06165,0.36207 -1.99e-4,0.2151 -0.0022,0.24088 -0.02176,0.28413 -0.04346,0.096 -0.12041,0.1485 -0.226058,0.1542 -0.03505,0.002 -0.07935,-0.002 -0.09844,-0.008 z m 0.866622,0 c -0.04949,-0.0168 -0.128773,-0.0901 -0.151517,-0.14019 -0.01708,-0.0376 -0.01939,-0.0729 -0.01939,-0.29633 0,-0.2244 0.0023,-0.25862 0.01959,-0.29677 0.07807,-0.1719 0.312102,-0.20346 0.43593,-0.0588 0.05648,0.066 0.0619,0.0979 0.06165,0.36207 -2e-4,0.2151 -0.0022,0.24088 -0.02176,0.28413 -0.04346,0.096 -0.12041,0.1485 -0.226058,0.1542 -0.03505,0.002 -0.07935,-0.002 -0.09844,-0.008 z m 0.848497,-0.0119 c -0.02906,-0.0141 -0.06806,-0.0417 -0.08666,-0.0613 -0.06266,-0.066 -0.06661,-0.0878 -0.06636,-0.36557 2e-4,-0.22185 0.0025,-0.25641 0.01982,-0.29447 0.07807,-0.1719 0.312102,-0.20346 0.43593,-0.0588 0.05648,0.066 0.0619,0.0979 0.06165,0.36207 -2e-4,0.2151 -0.0022,0.24088 -0.02176,0.28413 -0.04309,0.0952 -0.119702,0.14779 -0.226058,0.15522 -0.05193,0.004 -0.07351,-3.2e-4 -0.116566,-0.0213 z m 0.866623,0 c -0.02906,-0.0141 -0.06806,-0.0417 -0.08666,-0.0613 -0.06266,-0.066 -0.06661,-0.0878 -0.06636,-0.36557 2e-4,-0.22185 0.0025,-0.25641 0.01982,-0.29447 0.07807,-0.1719 0.312102,-0.20346 0.43593,-0.0588 0.05648,0.066 0.0619,0.0979 0.06165,0.36207 -2e-4,0.2151 -0.0022,0.24088 -0.02176,0.28413 -0.04309,0.0952 -0.119702,0.14779 -0.226059,0.15522 -0.05193,0.004 -0.0735,-3.2e-4 -0.116565,-0.0213 z m 10.473683,-5.66398 c 0.0033,-0.0131 0.0044,-0.57546 0.0027,-1.24973 -0.0031,-1.15849 -0.0043,-1.22916 -0.02276,-1.28408 -0.03773,-0.11252 -0.08129,-0.18286 -0.163871,-0.26464 -0.09128,-0.0904 -0.179211,-0.13933 -0.294093,-0.16368 -0.108345,-0.023 -17.547234,-0.023 -17.655578,0 -0.211035,0.0447 -0.383377,0.2059 -0.457965,0.42832 -0.01842,0.0549 -0.01967,0.12559 -0.02275,1.28408 -0.0018,0.67427 -6e-4,1.23665 0.0027,1.24973 l 0.0059,0.0238 h 9.29994 9.299939 z m -17.26038,-0.5837 c -0.300619,-0.0546 -0.554409,-0.24592 -0.684911,-0.51645 -0.107562,-0.22298 -0.123824,-0.46605 -0.04678,-0.69915 0.08659,-0.26198 0.307026,-0.48871 0.567479,-0.58369 0.342556,-0.12493 0.733798,-0.0407 0.991501,0.21355 0.193745,0.19111 0.288629,0.43487 0.275617,0.70806 -0.01214,0.25492 -0.100346,0.44826 -0.285681,0.62619 -0.221651,0.21279 -0.521683,0.30512 -0.817227,0.25149 z m 0.263991,-0.51802 c 0.08559,-0.0223 0.139887,-0.0525 0.196879,-0.10948 0.05999,-0.06 0.102526,-0.14366 0.118164,-0.23244 0.03026,-0.17175 -0.0685,-0.35737 -0.232939,-0.43784 -0.06499,-0.0318 -0.07704,-0.0341 -0.180608,-0.0341 -0.09844,0 -0.117835,0.003 -0.171767,0.0285 -0.139486,0.0654 -0.236691,0.20203 -0.247756,0.34833 -0.02164,0.28608 0.242383,0.5088 0.518027,0.43701 z m 2.198486,0.51877 c -0.348461,-0.0667 -0.624845,-0.3026 -0.731599,-0.62451 -0.11697,-0.3527 -0.02836,-0.71295 0.238015,-0.96767 0.09043,-0.0865 0.15079,-0.12787 0.260918,-0.17892 0.140556,-0.0652 0.210516,-0.0791 0.398153,-0.0792 0.13975,-8e-5 0.176164,0.003 0.247888,0.0242 0.266115,0.077 0.482002,0.25885 0.598262,0.50406 0.07401,0.15609 0.08871,0.22407 0.08796,0.40689 -5.47e-4,0.13477 -0.004,0.16444 -0.02887,0.24621 -0.09998,0.32909 -0.344989,0.56538 -0.678019,0.6539 -0.09913,0.0263 -0.294495,0.0338 -0.392712,0.015 z m 0.266311,-0.51937 c 0.292886,-0.0763 0.411947,-0.4245 0.225697,-0.66013 -0.192176,-0.24312 -0.577346,-0.19835 -0.71043,0.0826 -0.03073,0.0649 -0.03355,0.0797 -0.03355,0.1765 0,0.0927 0.0035,0.11316 0.02849,0.16649 0.03559,0.0759 0.118603,0.16485 0.185069,0.19822 0.106192,0.0533 0.197672,0.0642 0.304721,0.0364 z m 2.1369,0.51825 c -0.445356,-0.0844 -0.768692,-0.47056 -0.768692,-0.91793 0,-0.45455 0.309906,-0.83009 0.760327,-0.92136 0.128538,-0.026 0.321166,-0.017 0.449774,0.0211 0.326215,0.0967 0.574768,0.35971 0.650781,0.68865 0.01984,0.0858 0.02222,0.11971 0.01727,0.24475 -0.0067,0.16855 -0.02224,0.23435 -0.08681,0.36706 -0.09304,0.19123 -0.233286,0.33334 -0.422707,0.42833 -0.05813,0.0292 -0.143733,0.0627 -0.190234,0.0746 -0.11235,0.0287 -0.300481,0.0355 -0.409704,0.0148 z m 0.344612,-0.54179 c 0.116706,-0.0546 0.187803,-0.13425 0.229314,-0.25686 0.06373,-0.18824 -0.03254,-0.40582 -0.220488,-0.4983 -0.06611,-0.0325 -0.07665,-0.0345 -0.181342,-0.034 -0.09703,4.6e-4 -0.11884,0.004 -0.171604,0.0283 -0.173202,0.0797 -0.277636,0.27905 -0.240454,0.45903 0.055,0.2662 0.342951,0.41486 0.584574,0.30179 z m 3.367248,-0.17521 c -0.122525,-0.0332 -0.200281,-0.13043 -0.200281,-0.25056 0,-0.0946 0.06433,-0.19291 0.152391,-0.2329 0.04174,-0.019 0.170948,-0.0196 4.025176,-0.0198 3.573846,-2e-4 3.986077,10e-4 4.021342,0.0162 0.09427,0.0393 0.154765,0.13206 0.154765,0.23725 0,0.10597 -0.05877,0.19535 -0.157747,0.2399 -0.04045,0.0182 -0.21319,0.0191 -3.99492,0.021 -3.101614,0.002 -3.962997,-8.3e-4 -4.000726,-0.011 z"
       id="path839"
       inkscape:connector-curvature="0" />
  </g>
</svg>
