<svg xmlns="http://www.w3.org/2000/svg" viewBox="0 0 93.68 116.27"><defs><style>.cls-1{fill:#fff;}</style></defs><title>firewall</title><g id="Слой_2" data-name="Слой 2"><g id="Layer_1" data-name="Layer 1"><path class="cls-1" d="M46.84,116.27l-.63-.22A68.79,68.79,0,0,1,0,51.1V23.38H1.94A21.46,21.46,0,0,0,23.39,1.94V0H70.31V1.94A21.45,21.45,0,0,0,91.74,23.38h1.94V51.1a68.78,68.78,0,0,1-46.2,64.95ZM3.89,27.2V51.1a64.89,64.89,0,0,0,43,61.05,64.9,64.9,0,0,0,43-61V27.2A25.37,25.37,0,0,1,66.49,3.89H27.2A25.37,25.37,0,0,1,3.89,27.2Z"/><path class="cls-1" d="M46.84,108l-.72-.28A60.7,60.7,0,0,1,7.77,51.1V30.61l1.46-.37a29.26,29.26,0,0,0,21-21l.38-1.46H63.08l.37,1.46a29.25,29.25,0,0,0,21,21l1.46.37V51.1a60.68,60.68,0,0,1-38.35,56.63ZM11.66,33.59V51.1a56.8,56.8,0,0,0,35.18,52.72A56.8,56.8,0,0,0,82,51.1V33.59A33.11,33.11,0,0,1,60.1,11.66H33.59A33.11,33.11,0,0,1,11.66,33.59Z"/><path class="cls-1" d="M73.24,51.11V36.94H27.1V47.6H16.44V61.77H27.1V72.42H73.24V58.26H62.58V51.11ZM51.92,40.44H69.74V47.6H51.92Zm-21.32,0H48.42V47.6H30.6ZM19.94,58.26V51.11H37.76v7.15H19.94ZM48.42,68.92H30.6V61.77H48.42Zm21.32-7.15v7.15H51.92V61.77H69.74ZM59.08,58.26H41.26V51.11H59.08Z"/></g></g></svg>