<?xml version="1.0" encoding="UTF-8" standalone="no"?>
<svg
   xmlns:dc="http://purl.org/dc/elements/1.1/"
   xmlns:cc="http://creativecommons.org/ns#"
   xmlns:rdf="http://www.w3.org/1999/02/22-rdf-syntax-ns#"
   xmlns:svg="http://www.w3.org/2000/svg"
   xmlns="http://www.w3.org/2000/svg"
   id="svg8"
   version="1.1"
   viewBox="0 0 111.12519 51.606644"
   height="51.606644mm"
   width="111.12519mm">
  <defs
     id="defs2" />
  <metadata
     id="metadata5">
    <rdf:RDF>
      <cc:Work
         rdf:about="">
        <dc:format>image/svg+xml</dc:format>
        <dc:type
           rdf:resource="http://purl.org/dc/dcmitype/StillImage" />
        <dc:title></dc:title>
      </cc:Work>
    </rdf:RDF>
  </metadata>
  <g
     transform="translate(-1.9192781,-2.5468046)"
     id="layer1">
    <path
       id="path842"
       d="m 23.661258,54.146709 c -0.008,-0.009 -0.0281,-1.67916 -0.0455,-3.71215 l -0.0315,-3.69636 -10.81639,-0.0303 -10.8163899,-0.0303 -0.0161,-1.71139 -0.0161,-1.71138 6.33975,-13.49822 c 3.4868599,-7.42402 6.3674199,-13.5323 6.4012399,-13.57396 0.0476,-0.0586 0.68998,-0.0757 2.83792,-0.0757 1.52703,0 2.7892,0.0207 2.80483,0.046 0.0156,0.0253 -2.85851,5.9902 -6.38698,13.25538 -3.52846,7.26517 -6.4164299,13.24349 -6.4177099,13.28515 -0.002,0.0602 1.64868,0.0757 8.0569399,0.0757 h 8.05927 v -5.8212 c 0,-3.89682 0.0207,-5.85995 0.0627,-5.93841 0.0605,-0.11298 0.15307,-0.11721 2.56321,-0.11721 1.86403,0 2.51899,0.0185 2.5732,0.0727 0.0555,0.0556 0.0727,1.457 0.0727,5.93841 v 5.8657 h 2.77999 c 2.28005,0 2.79239,0.0149 2.8489,0.083 0.049,0.059 0.0643,0.62401 0.0529,1.95422 l -0.016,1.8712 -2.81772,0.0303 -2.81771,0.0303 -0.0303,3.69636 -0.0303,3.69635 -2.59048,0.0158 c -1.42476,0.009 -2.59677,0.009 -2.60445,0 z m 78.526872,-0.0253 c -0.0226,-0.0226 -0.041,-1.66925 -0.041,-3.65929 0,-2.96246 -0.0148,-3.63054 -0.0817,-3.68609 -0.0595,-0.0494 -3.016292,-0.072 -10.861837,-0.0832 l -10.780086,-0.0153 -0.01608,-1.70205 -0.01608,-1.70204 6.342307,-13.50756 c 3.488265,-7.42915 6.368818,-13.54164 6.401225,-13.5833 0.04564,-0.0587 0.693623,-0.0757 2.873301,-0.0757 2.652802,0 2.812441,0.006 2.780678,0.10605 -0.01853,0.0583 -2.910803,6.03177 -6.427263,13.27433 -3.516461,7.24256 -6.393558,13.19385 -6.393558,13.22509 0,0.0484 16.087033,0.0899 16.132943,0.0416 0.008,-0.008 0.0284,-2.67379 0.0455,-5.92326 l 0.031,-5.90811 2.45413,-0.0169 c 1.34978,-0.009 2.5155,-0.002 2.59049,0.0163 l 0.13634,0.0332 v 5.90696 5.90695 l 2.77226,9.2e-4 c 1.52475,4.6e-4 2.80675,0.0228 2.8489,0.0496 0.0597,0.0379 0.0731,0.46987 0.0606,1.95329 l -0.016,1.90466 -2.81772,0.0303 -2.81772,0.0303 -0.0303,3.69635 -0.0303,3.69636 -2.54943,0.0158 c -1.40219,0.009 -2.56791,-0.003 -2.59048,-0.0252 z M 58.229318,42.249269 c -1.57054,-0.19024 -3.3195,-0.58953 -5.06228,-1.15574 -3.03035,-0.98452 -5.12576,-2.05061 -6.93266,-3.52716 -2.40332,-1.96393 -3.77671,-4.47159 -4.26922,-7.79511 -0.10768,-0.72663 -0.10913,-3.83082 -0.002,-4.69619 0.40178,-3.25142 1.38507,-6.91448 2.84655,-10.6043 1.50196,-3.79203 3.31092,-6.7055904 5.36305,-8.6378804 3.8175,-3.59457 8.72566,-4.22127 15.45021,-1.97278 2.58697,0.86501 4.4896,1.79691 6.087357,2.98154 0.65968,0.48911 1.734308,1.5089 2.227729,2.11403 1.315314,1.6131304 2.133859,3.5721804 2.493088,5.9668104 0.128943,0.85949 0.176062,3.02856 0.08966,4.12669 -0.339998,4.32095 -1.997964,10.26679 -4.00362,14.35784 -2.711514,5.53084 -6.084814,8.30675 -10.785864,8.87577 -0.70615,0.0855 -2.67504,0.0666 -3.50181,-0.0335 z m 1.53547,-4.09138 c 3.20827,-0.3224 5.61838,-2.33861 7.65261,-6.4019 1.62858,-3.25302 3.23542,-8.55685 3.804759,-12.55873 0.08181,-0.57501 0.108189,-1.15883 0.109526,-2.42384 0.0018,-1.8167 -0.07139,-2.41405 -0.429105,-3.49607 -0.95471,-2.88783 -3.2878,-4.7489504 -7.41576,-5.9156004 -1.57127,-0.44407 -2.51418,-0.58999 -3.81635,-0.59059 -2.22372,-10e-4 -3.92286,0.71297 -5.55316,2.33348 -1.91145,1.8999704 -3.54787,5.0003804 -5.08499,9.6342104 -1.21697,3.66871 -1.81015,6.48779 -1.88786,8.97215 -0.12616,4.03288 1.22745,6.66339 4.33185,8.41817 1.74392,0.98577 4.5209,1.85213 6.49969,2.02778 0.83815,0.0744 1.05669,0.0745 1.78879,9.1e-4 z"
       style="fill:#ffffff;stroke-width:0.06059602;fill-opacity:1" />
  </g>
</svg>
