<?xml version="1.0" encoding="UTF-8" standalone="no"?>
<svg
   xmlns:dc="http://purl.org/dc/elements/1.1/"
   xmlns:cc="http://creativecommons.org/ns#"
   xmlns:rdf="http://www.w3.org/1999/02/22-rdf-syntax-ns#"
   xmlns:svg="http://www.w3.org/2000/svg"
   xmlns="http://www.w3.org/2000/svg"
   id="svg8"
   version="1.1"
   viewBox="0 0 18.52083 17.192131"
   height="17.192131mm"
   width="18.52083mm">
  <defs
     id="defs2" />
  <metadata
     id="metadata5">
    <rdf:RDF>
      <cc:Work
         rdf:about="">
        <dc:format>image/svg+xml</dc:format>
        <dc:type
           rdf:resource="http://purl.org/dc/dcmitype/StillImage" />
        <dc:title></dc:title>
      </cc:Work>
    </rdf:RDF>
  </metadata>
  <g
     transform="translate(880.92988,-555.6977)"
     id="layer1">
    <path
       id="path839"
       d="m -880.92288,572.88488 c -0.004,-0.004 -0.007,-0.14264 -0.007,-0.30885 v -0.3022 h 9.26042 9.26041 l -0.003,0.30635 -0.003,0.30635 -9.25113,0.003 c -5.08813,10e-4 -9.25413,-5e-4 -9.25779,-0.004 z m -0.002,-1.35063 c -0.003,-0.007 -0.004,-0.69853 -0.002,-1.53688 l 0.003,-1.52429 1.01511,-0.003 c 0.74181,-0.002 1.01876,4.9e-4 1.02865,0.009 0.0203,0.0169 0.0202,3.03943 -1.2e-4,3.05629 -0.01,0.008 -0.0987,0.0106 -0.30635,0.009 l -0.29269,-0.003 -0.005,-1.22043 c -0.003,-0.67123 -0.006,-1.22159 -0.007,-1.22302 -0.001,-0.001 -0.18508,-0.001 -0.40837,0 l -0.40598,0.003 -0.005,1.22042 -0.005,1.22043 -0.30163,0.003 c -0.23594,0.002 -0.30267,-1.1e-4 -0.30642,-0.01 z m 2.74635,-0.001 c -0.008,-0.0101 -0.0107,-0.67949 -0.009,-2.59791 l 0.002,-2.58426 h 1.02616 1.02615 v 2.59527 2.59527 h -0.30386 -0.30386 l -0.005,-2.28643 -0.005,-2.28643 -0.40597,-0.003 c -0.22329,-0.001 -0.40708,-0.001 -0.40842,0 -10e-4,10e-4 -0.005,1.0315 -0.007,2.28903 l -0.005,2.28643 -0.29504,0.003 c -0.24003,0.002 -0.29716,1.2e-4 -0.30637,-0.011 z m 2.74307,0.001 c -0.003,-0.007 -0.004,-1.65569 -0.002,-3.66391 l 0.003,-3.6513 1.02367,-0.003 1.02367,-0.003 -0.003,3.66381 -0.002,3.6638 -0.29505,0.003 c -0.23961,0.002 -0.29717,1.1e-4 -0.30634,-0.011 -0.008,-0.0101 -0.0119,-0.88358 -0.0138,-3.35506 l -0.003,-3.34146 h -0.40348 -0.40349 l -0.005,3.35242 -0.005,3.35243 -0.30163,0.003 c -0.23595,0.002 -0.30267,-1.1e-4 -0.30641,-0.01 z m 2.73973,0 c -0.003,-0.007 -0.004,-2.13539 -0.002,-4.72991 l 0.003,-4.71731 h 1.02615 1.02615 v 4.72727 4.72727 h -0.30386 -0.30386 l -0.005,-4.41344 -0.005,-4.41345 h -0.40847 -0.40847 l -0.005,4.41345 -0.005,4.41344 -0.30163,0.003 c -0.23595,0.002 -0.30266,-1.1e-4 -0.3064,-0.01 z m 2.75166,0.006 c -0.004,-0.004 -0.007,-2.61014 -0.007,-5.7922 0,-5.26649 10e-4,-5.78611 0.0158,-5.79162 0.0237,-0.009 2.0097,-0.007 2.0241,0.002 0.01,0.006 0.012,1.17202 0.01,5.79561 l -0.002,5.7877 h -0.30386 -0.30386 l -0.005,-5.47945 -0.005,-5.47945 -0.40597,-0.003 -0.40598,-0.003 v 5.47259 c 0,4.24317 -0.003,5.47527 -0.012,5.48454 -0.009,0.009 -0.0897,0.012 -0.3022,0.012 -0.15963,0 -0.29323,-0.003 -0.29688,-0.007 z m 2.73775,-0.006 c -0.003,-0.007 -0.004,-3.09255 -0.002,-6.85693 l 0.003,-6.84434 h 1.02616 1.02615 l 0.002,6.84331 c 0.002,5.09466 -3.8e-4,6.84678 -0.009,6.85693 -0.009,0.0111 -0.0665,0.0131 -0.30636,0.011 l -0.29504,-0.003 -0.003,-6.53448 c -0.002,-4.84302 -0.005,-6.538 -0.0138,-6.54806 -0.009,-0.0111 -0.0833,-0.0131 -0.41095,-0.011 l -0.39968,0.003 -0.005,6.54545 -0.005,6.54546 -0.30162,0.003 c -0.23595,0.002 -0.30267,-1.1e-4 -0.30641,-0.01 z m 2.74716,5e-4 c -0.009,-0.009 -0.0121,-1.72838 -0.0119,-7.91297 1.1e-4,-4.34548 0.004,-7.9065 0.008,-7.91338 0.006,-0.01 0.21863,-0.012 1.02849,-0.01 l 1.02055,0.003 v 7.9203 7.92029 h -0.30386 -0.30386 l -0.002,-7.60589 c -0.002,-6.06955 -0.005,-7.60748 -0.0149,-7.61379 -0.018,-0.0114 -0.77635,-0.01 -0.79451,0.002 -0.0133,0.008 -0.0155,0.86884 -0.0199,7.6138 l -0.005,7.60435 -0.29425,0.003 c -0.22052,0.002 -0.29728,-4e-4 -0.30635,-0.009 z m -16.46372,-9.69843 c -0.004,-0.004 -0.007,-0.14217 -0.007,-0.30779 0,-0.26541 0.002,-0.30185 0.0158,-0.30718 0.009,-0.003 1.13564,-0.006 2.50438,-0.006 2.09556,0 2.49042,0.002 2.49996,0.0137 0.008,0.01 0.0106,0.10001 0.009,0.31134 l -0.003,0.29767 -2.50641,0.003 c -1.37853,10e-4 -2.50941,-4.9e-4 -2.51308,-0.004 z m -0.002,-1.39075 c -0.003,-0.007 -0.004,-0.14477 -0.002,-0.30635 l 0.003,-0.29378 0.83437,-0.003 0.83437,-0.003 v 0.3089 0.3089 h -0.83219 c -0.66062,0 -0.83319,-0.003 -0.83702,-0.0126 z m 2.51212,-0.003 c -0.003,-0.009 -0.006,-0.14055 -0.006,-0.29308 0,-0.15253 0.003,-0.28442 0.006,-0.29308 0.005,-0.0143 0.23641,-0.0158 2.51557,-0.0158 h 2.50952 v 0.30884 0.30884 h -2.50952 c -2.27916,0 -2.51008,-0.001 -2.51557,-0.0158 z m -2.51202,-1.37152 c -0.003,-0.007 -0.004,-0.76789 -0.002,-1.69117 l 0.003,-1.67871 h 3.76588 3.76587 v 1.68867 1.68867 l -3.76369,0.003 c -3.00573,0.002 -3.76465,-10e-6 -3.76843,-0.01 z m 6.91942,-1.68015 c 0,-0.96189 -0.002,-1.06552 -0.0158,-1.07098 -0.0206,-0.008 -6.25423,-0.008 -6.27484,0 -0.0142,0.005 -0.0158,0.10851 -0.0158,1.06434 0,0.58206 0.003,1.06129 0.007,1.06494 0.004,0.004 1.42258,0.007 3.15317,0.007 h 3.14653 z m -4.68561,0.30128 c -0.004,-0.004 -0.007,-0.14284 -0.007,-0.30913 v -0.30234 l 0.30635,0.003 0.30635,0.003 v 0.30386 0.30386 l -0.29956,0.003 c -0.16476,10e-4 -0.30262,-4.2e-4 -0.30635,-0.004 z m 1.23536,0 c -0.004,-0.004 -0.007,-0.14284 -0.007,-0.30913 v -0.30234 l 0.30635,0.003 0.30635,0.003 v 0.30386 0.30386 l -0.29957,0.003 c -0.16476,10e-4 -0.30261,-4.2e-4 -0.30635,-0.004 z m 1.22859,-0.30249 v -0.30898 l 0.30635,0.003 0.30635,0.003 0.003,0.28393 c 0.002,0.15617 3.4e-4,0.29403 -0.003,0.30635 l -0.005,0.0224 h -0.30367 -0.30367 z m 3.53128,0.29642 c -0.003,-0.007 -0.004,-0.14477 -0.002,-0.30635 l 0.003,-0.29378 1.37734,-0.003 1.37733,-0.003 v 0.30888 0.30888 h -1.37516 c -1.09764,0 -1.37613,-0.003 -1.37998,-0.0126 z m 3e-5,-1.38474 c -0.003,-0.007 -0.004,-0.14484 -0.002,-0.30642 l 0.003,-0.29378 h 0.68742 0.68742 v 0.30386 0.30386 l -0.68521,0.003 c -0.54617,0.002 -0.6862,0 -0.69007,-0.0101 z"
       style="fill:#fe8139;stroke-width:0.00996264" />
  </g>
</svg>
