<?xml version="1.0" encoding="UTF-8" standalone="no"?>
<svg
   xmlns:dc="http://purl.org/dc/elements/1.1/"
   xmlns:cc="http://creativecommons.org/ns#"
   xmlns:rdf="http://www.w3.org/1999/02/22-rdf-syntax-ns#"
   xmlns:svg="http://www.w3.org/2000/svg"
   xmlns="http://www.w3.org/2000/svg"
   id="svg8"
   version="1.1"
   viewBox="0 0 18.52165 19.057671"
   height="19.057671mm"
   width="18.52165mm">
  <defs
     id="defs2" />
  <metadata
     id="metadata5">
    <rdf:RDF>
      <cc:Work
         rdf:about="">
        <dc:format>image/svg+xml</dc:format>
        <dc:type
           rdf:resource="http://purl.org/dc/dcmitype/StillImage" />
        <dc:title></dc:title>
      </cc:Work>
    </rdf:RDF>
  </metadata>
  <g
     transform="translate(617.45393,-366.23295)"
     id="layer1">
    <path
       id="path842"
       d="m -609.03204,385.27802 c -0.005,-0.007 -0.0792,-0.36248 -0.16414,-0.79008 -0.0849,-0.4276 -0.16001,-0.78665 -0.1669,-0.79789 -0.009,-0.014 -0.0327,-0.0246 -0.0769,-0.0337 -0.0957,-0.0197 -0.42194,-0.11543 -0.55012,-0.16146 -0.32133,-0.11539 -0.68267,-0.28518 -0.95784,-0.45008 -0.0887,-0.0532 -0.1668,-0.0967 -0.17353,-0.0967 -0.007,0 -0.29503,0.21145 -0.64069,0.4699 -0.34566,0.25844 -0.63408,0.46858 -0.64094,0.46697 -0.007,-0.002 -0.29261,-0.28161 -0.63502,-0.62224 -0.41355,-0.41142 -0.62066,-0.62424 -0.61693,-0.63396 0.003,-0.008 0.21256,-0.28962 0.46549,-0.62572 0.25293,-0.3361 0.46461,-0.61876 0.4704,-0.62814 0.008,-0.0137 -0.009,-0.0491 -0.087,-0.17861 -0.25638,-0.42458 -0.46925,-0.93186 -0.5943,-1.41621 -0.0247,-0.0955 -0.0495,-0.17129 -0.0576,-0.17579 -0.008,-0.004 -0.36768,-0.0783 -0.79961,-0.16422 -0.43192,-0.086 -0.78973,-0.15903 -0.79512,-0.16236 -0.0134,-0.008 -0.0134,-1.66744 0,-1.67571 0.005,-0.003 0.3632,-0.0764 0.79512,-0.16237 0.43193,-0.086 0.79175,-0.15986 0.79961,-0.16421 0.008,-0.005 0.033,-0.0803 0.0576,-0.1758 0.12505,-0.48435 0.33792,-0.99162 0.5943,-1.4162 0.0782,-0.12955 0.0955,-0.16493 0.087,-0.17861 -0.006,-0.009 -0.21747,-0.29205 -0.4704,-0.62814 -0.25293,-0.3361 -0.4624,-0.61767 -0.46549,-0.62572 -0.004,-0.01 0.20338,-0.22255 0.61693,-0.63396 0.34241,-0.34064 0.62816,-0.62065 0.63502,-0.62225 0.007,-0.002 0.29528,0.20854 0.64094,0.46698 0.34566,0.25844 0.63397,0.46989 0.64069,0.46989 0.007,0 0.0848,-0.0435 0.17353,-0.0967 0.27517,-0.16489 0.63651,-0.33468 0.95784,-0.45008 0.12818,-0.046 0.45439,-0.14177 0.55012,-0.16146 0.0442,-0.009 0.0683,-0.0197 0.0769,-0.0337 0.007,-0.0112 0.082,-0.37029 0.1669,-0.7979 0.0849,-0.4276 0.15877,-0.78313 0.16414,-0.79007 0.0143,-0.0185 1.66628,-0.0185 1.68058,0 0.005,0.007 0.0793,0.36247 0.16415,0.79007 0.0849,0.42761 0.16001,0.78666 0.1669,0.7979 0.009,0.014 0.0327,0.0246 0.0769,0.0337 0.0957,0.0197 0.42194,0.11543 0.55012,0.16146 0.32133,0.1154 0.68267,0.28519 0.95784,0.45008 0.0887,0.0532 0.1668,0.0967 0.17352,0.0967 0.007,0 0.29504,-0.21145 0.6407,-0.46989 0.34566,-0.25844 0.63408,-0.46858 0.64094,-0.46698 0.007,0.002 0.29261,0.28161 0.63501,0.62225 0.41356,0.41141 0.62067,0.62424 0.61694,0.63396 -0.003,0.008 -0.21256,0.28962 -0.46549,0.62572 -0.25293,0.33609 -0.46461,0.61876 -0.4704,0.62814 -0.008,0.0137 0.009,0.0491 0.087,0.17861 0.25638,0.42458 0.46925,0.93185 0.5943,1.4162 0.0247,0.0955 0.0495,0.17129 0.0576,0.1758 0.008,0.004 0.36768,0.0782 0.7996,0.16421 0.43193,0.086 0.78974,0.15903 0.79513,0.16237 0.0134,0.008 0.0134,1.66743 0,1.67571 -0.005,0.003 -0.3632,0.0764 -0.79513,0.16236 -0.43192,0.086 -0.79175,0.15987 -0.7996,0.16422 -0.008,0.005 -0.033,0.0803 -0.0576,0.17579 -0.12505,0.48435 -0.33792,0.99163 -0.5943,1.41621 -0.0782,0.12955 -0.0955,0.16493 -0.087,0.17861 0.006,0.009 0.21747,0.29204 0.4704,0.62814 0.25293,0.3361 0.4624,0.61767 0.46549,0.62572 0.004,0.01 -0.20338,0.22254 -0.61694,0.63396 -0.3424,0.34063 -0.62816,0.62064 -0.63501,0.62224 -0.007,0.002 -0.29528,-0.20853 -0.64094,-0.46697 -0.34566,-0.25845 -0.63397,-0.4699 -0.6407,-0.4699 -0.007,0 -0.0848,0.0435 -0.17352,0.0967 -0.27517,0.1649 -0.63651,0.33469 -0.95784,0.45008 -0.12818,0.046 -0.4544,0.14178 -0.55012,0.16146 -0.0442,0.009 -0.0683,0.0197 -0.0769,0.0337 -0.007,0.0112 -0.082,0.37029 -0.1669,0.79789 -0.0849,0.4276 -0.15877,0.78314 -0.16415,0.79008 -0.008,0.01 -0.18782,0.0126 -0.84029,0.0126 -0.65247,0 -0.83261,-0.003 -0.84029,-0.0126 z m 1.28335,-1.03511 c 0.0581,-0.28616 0.0872,-0.45047 0.081,-0.45668 -0.006,-0.006 -0.0514,-0.006 -0.12553,7.3e-4 -0.0637,0.006 -0.24302,0.0104 -0.39852,0.0104 -0.15549,0 -0.33482,-0.005 -0.39852,-0.0104 -0.0743,-0.007 -0.11929,-0.007 -0.12554,-7.2e-4 -0.006,0.006 0.0218,0.16615 0.0784,0.44659 0.0485,0.24027 0.0901,0.44259 0.0925,0.4496 0.003,0.01 0.0796,0.0122 0.35489,0.0101 l 0.35062,-0.003 0.0907,-0.44697 z m 0.0921,-1.06707 c 0.95198,-0.11349 1.77786,-0.46509 2.52421,-1.07462 0.15988,-0.13057 0.47092,-0.43898 0.602,-0.5969 0.51266,-0.61764 0.85067,-1.30645 1.01321,-2.06472 0.0747,-0.3487 0.10093,-0.608 0.10093,-0.99967 0,-0.39166 -0.0262,-0.65096 -0.10093,-0.99966 -0.16245,-0.75786 -0.50095,-1.44765 -1.01323,-2.06473 -0.13009,-0.1567 -0.43036,-0.45465 -0.59527,-0.59068 -0.74226,-0.61224 -1.57448,-0.96665 -2.54102,-1.08211 -0.21714,-0.0259 -0.83293,-0.0259 -1.05007,0 -0.96654,0.11546 -1.79876,0.46987 -2.54103,1.08211 -0.16491,0.13603 -0.46517,0.43398 -0.59526,0.59068 -0.51228,0.61708 -0.85078,1.30687 -1.01323,2.06473 -0.0747,0.3487 -0.10093,0.608 -0.10093,0.99966 0,0.39167 0.0262,0.65097 0.10093,0.99967 0.16254,0.75827 0.50055,1.44708 1.01321,2.06472 0.13108,0.15792 0.44212,0.46633 0.602,0.5969 0.58309,0.4762 1.20482,0.79007 1.90777,0.9631 0.26724,0.0658 0.43651,0.0927 0.81838,0.13005 0.10976,0.0108 0.73461,-0.003 0.86833,-0.0185 z m -0.74212,-0.57172 c -1.33199,-0.062 -2.55706,-0.76222 -3.29491,-1.88324 -0.37008,-0.56227 -0.59599,-1.2051 -0.66498,-1.89222 -0.0163,-0.16261 -0.0163,-0.61484 0,-0.77746 0.0983,-0.9796 0.51645,-1.86657 1.20392,-2.55403 0.74399,-0.74399 1.72251,-1.17469 2.77468,-1.22129 1.18429,-0.0524 2.31617,0.38623 3.15123,1.22129 0.68747,0.68746 1.10557,1.57443 1.20392,2.55403 0.0165,0.1644 0.0162,0.61528 -5.4e-4,0.78251 -0.13621,1.36137 -0.90607,2.54829 -2.09535,3.23045 -0.46504,0.26675 -1.01472,0.4477 -1.56659,0.51573 -0.10211,0.0126 -0.52037,0.0384 -0.53973,0.0333 -0.003,-7.3e-4 -0.08,-0.005 -0.17165,-0.009 z m 0.67144,-0.6194 c 1.2029,-0.17187 2.19487,-0.87345 2.7361,-1.93513 0.63032,-1.23642 0.47611,-2.73925 -0.3931,-3.83096 -0.54132,-0.67989 -1.3296,-1.14942 -2.1764,-1.29636 -0.24262,-0.0421 -0.30268,-0.0465 -0.63106,-0.0465 -0.32808,0 -0.38734,0.004 -0.63105,0.0464 -0.99982,0.17254 -1.91344,0.79933 -2.44036,1.6742 -0.77112,1.28033 -0.66616,2.89666 0.26396,4.06488 0.58751,0.7379 1.46341,1.22465 2.38844,1.32728 0.0528,0.006 0.11182,0.0124 0.13125,0.0146 0.0907,0.0103 0.64684,-0.003 0.75222,-0.0184 z m -1.94797,-1.17275 c -0.0238,-0.0238 -0.0238,-0.55025 0,-0.57408 0.0136,-0.0136 0.0536,-0.0159 0.28337,-0.0159 0.1651,0 0.27499,0.004 0.28704,0.0104 0.0186,0.01 0.0195,0.024 0.0195,0.29079 0,0.20457 -0.003,0.28361 -0.0121,0.29245 -0.009,0.009 -0.0867,0.0121 -0.28704,0.0121 -0.23647,0 -0.27714,-0.002 -0.29079,-0.0159 z m 1.19828,0.009 c -0.01,-0.004 -0.0126,-0.0727 -0.0126,-0.29598 0,-0.25594 0.002,-0.29162 0.016,-0.29702 0.009,-0.003 0.13563,-0.006 0.28188,-0.006 0.14626,0 0.27311,0.003 0.28189,0.006 0.014,0.005 0.016,0.0411 0.016,0.29678 0,0.25572 -0.002,0.29139 -0.016,0.29678 -0.019,0.007 -0.54892,0.007 -0.56712,-5.6e-4 z m 1.19092,-0.005 c -0.009,-0.009 -0.0121,-0.0879 -0.0121,-0.29245 0,-0.26683 9.4e-4,-0.28084 0.0195,-0.29079 0.0121,-0.006 0.12194,-0.0104 0.28703,-0.0104 0.22973,0 0.26975,0.002 0.28338,0.0159 0.0136,0.0136 0.0159,0.054 0.0159,0.28704 0,0.23306 -0.002,0.2734 -0.0159,0.28704 -0.0137,0.0137 -0.0543,0.0159 -0.29079,0.0159 -0.20037,0 -0.27821,-0.003 -0.28704,-0.0121 z m -1.00665,-1.19007 c -0.4683,-0.039 -0.88205,-0.36069 -1.02976,-0.80071 -0.0483,-0.14379 -0.0589,-0.21332 -0.0589,-0.38501 0,-0.20868 0.0329,-0.35773 0.11549,-0.52295 0.20597,-0.41208 0.61427,-0.66477 1.07413,-0.66477 0.51336,0 0.96902,0.32243 1.12962,0.79934 0.0134,0.0397 0.0285,0.0764 0.0335,0.0814 0.005,0.005 0.25413,0.008 0.60437,0.007 l 0.59513,-0.003 -0.002,-0.0454 c -0.008,-0.1669 -0.10311,-0.47339 -0.22036,-0.70908 -0.37906,-0.76199 -1.15845,-1.27875 -1.98702,-1.31745 -0.0917,-0.004 -0.13376,-0.0102 -0.14388,-0.0204 -0.0116,-0.0116 -0.0143,-0.0646 -0.0141,-0.28368 8e-5,-0.14815 0.004,-0.2759 0.009,-0.28388 0.0176,-0.0279 0.359,-0.004 0.5757,0.0406 0.49439,0.10127 0.9143,0.29761 1.30292,0.6092 0.10132,0.0812 0.30821,0.28346 0.39853,0.38952 0.3779,0.44381 0.61931,0.99945 0.68654,1.58016 0.0162,0.13971 0.0316,0.57541 0.0218,0.61461 l -0.007,0.0264 -0.91042,0.003 -0.91042,0.003 -0.0366,0.0959 c -0.0201,0.0528 -0.0494,0.12091 -0.065,0.15146 -0.17586,0.3442 -0.55642,0.60272 -0.92957,0.63147 -0.0389,0.003 -0.0866,0.007 -0.10601,0.008 -0.0194,0.002 -0.0762,-3.8e-4 -0.12621,-0.005 z m 0.25096,-0.61106 c 0.19345,-0.0499 0.34974,-0.19761 0.41619,-0.3933 0.0567,-0.16695 0.0296,-0.35753 -0.0727,-0.51139 -0.0789,-0.11874 -0.20583,-0.20911 -0.34349,-0.24463 -0.0787,-0.0203 -0.22412,-0.0206 -0.30092,-5.7e-4 -0.13552,0.0353 -0.26431,0.12747 -0.34257,0.24519 -0.13538,0.20365 -0.13518,0.46048 5e-4,0.6611 0.0787,0.11636 0.20609,0.20827 0.33774,0.24368 0.0737,0.0198 0.22827,0.0198 0.30525,-1.2e-4 z m -3.94485,3.82515 c 0.19073,-0.14293 0.34678,-0.26487 0.34678,-0.27098 0,-0.006 -0.0466,-0.0514 -0.10349,-0.10075 -0.12977,-0.11241 -0.39099,-0.37364 -0.4967,-0.49671 -0.0441,-0.0514 -0.0859,-0.0934 -0.0929,-0.0934 -0.0105,0 -0.4645,0.58952 -0.52339,0.6797 l -0.0186,0.0285 0.25678,0.25678 c 0.14123,0.14122 0.26306,0.25678 0.27074,0.25678 0.008,0 0.17001,-0.11695 0.36074,-0.25989 z m 8.22119,0.003 0.25678,-0.25678 -0.0186,-0.0285 c -0.0589,-0.0902 -0.51285,-0.6797 -0.5234,-0.6797 -0.007,0 -0.0487,0.042 -0.0929,0.0934 -0.10582,0.1232 -0.36697,0.38434 -0.49707,0.49703 -0.0571,0.0495 -0.10255,0.0957 -0.10097,0.10267 0.004,0.0169 0.68527,0.52805 0.7044,0.52838 0.008,1.5e-4 0.13048,-0.1153 0.27171,-0.25653 z m -9.78946,-3.92837 c -0.0128,-0.37945 -0.0144,-0.68859 -0.004,-0.827 0.007,-0.0978 0.008,-0.16425 0.003,-0.16991 -0.008,-0.008 -0.73944,0.13051 -0.87251,0.16499 l -0.0379,0.01 v 0.34776 0.34776 l 0.0278,0.007 c 0.0833,0.0213 0.84876,0.17311 0.86581,0.17167 0.0175,-10e-4 0.02,-0.008 0.0185,-0.0522 z m 11.17374,-0.0303 c 0.23558,-0.0472 0.43648,-0.0884 0.44645,-0.0916 0.017,-0.005 0.0181,-0.0278 0.0181,-0.35303 v -0.34727 l -0.0379,-0.01 c -0.13495,-0.035 -0.86468,-0.17283 -0.87265,-0.16486 -0.006,0.006 -0.005,0.0628 10e-4,0.14972 0.0136,0.17969 0.0136,0.56469 1.2e-4,0.74378 -0.01,0.13117 -0.008,0.15882 0.009,0.15882 0.004,0 0.20006,-0.0386 0.43564,-0.0858 z m -9.85888,-3.97565 c 0.10571,-0.12308 0.36693,-0.3843 0.4967,-0.49671 0.0569,-0.0493 0.10349,-0.0947 0.10349,-0.10075 0,-0.006 -0.15654,-0.12843 -0.34788,-0.27181 -0.25021,-0.18751 -0.35303,-0.25908 -0.36623,-0.25489 -0.0101,0.003 -0.13138,0.11919 -0.26954,0.25776 l -0.25119,0.25193 0.0185,0.0283 c 0.0588,0.0901 0.51277,0.67955 0.5233,0.67955 0.007,0 0.0488,-0.042 0.0929,-0.0934 z m 8.44813,-0.23223 c 0.13534,-0.1791 0.2544,-0.33837 0.26457,-0.35393 l 0.0185,-0.0283 -0.25119,-0.25193 c -0.13816,-0.13857 -0.25946,-0.25456 -0.26955,-0.25776 -0.0132,-0.004 -0.11601,0.0674 -0.36622,0.25489 -0.19134,0.14338 -0.34788,0.2657 -0.34788,0.27181 0,0.006 0.0466,0.0514 0.10349,0.10075 0.12977,0.11241 0.39099,0.37363 0.4967,0.49671 0.0441,0.0514 0.0859,0.0934 0.0929,0.0934 0.007,0 0.12339,-0.14653 0.25874,-0.32562 z m -4.61099,-1.59194 c 0.1176,-0.004 0.31176,-0.004 0.4383,0.002 0.12495,0.005 0.24308,0.0103 0.26252,0.0111 0.0284,10e-4 0.0358,-0.003 0.0377,-0.0188 10e-4,-0.0111 -0.0376,-0.21557 -0.0864,-0.45436 l -0.0888,-0.43416 h -0.35227 -0.35227 l -0.0898,0.44214 c -0.0494,0.24318 -0.0871,0.4492 -0.0838,0.45783 0.005,0.0125 0.0158,0.0143 0.0548,0.009 0.0268,-0.004 0.14383,-0.0102 0.25995,-0.0145 z m -9.04804,9.8108 c -0.003,-0.007 -0.004,-3.75884 -0.002,-8.3375 l 0.003,-8.32485 h 9.2588 9.25881 v 8.33494 8.33495 h -1.48929 -1.48928 v -0.29281 -0.29281 l 1.19143,-0.005 1.19142,-0.005 v -6.5478 -6.5478 h -8.66309 -8.66309 v 6.5478 6.5478 l 1.19143,0.005 1.19143,0.005 v 0.29281 0.29281 l -1.48707,0.003 c -1.18434,0.002 -1.48804,0 -1.49186,-0.0101 z m 17.92225,-15.17811 v -0.88852 h -8.66309 -8.66309 l -0.003,0.87842 c -0.001,0.48313 -4.4e-4,0.88411 0.002,0.89105 0.004,0.0101 1.74228,0.0121 8.66569,0.0101 l 8.66088,-0.003 z m -16.72938,0.28188 c -0.008,-0.0208 -0.008,-0.54293 0,-0.56377 0.005,-0.014 0.0411,-0.016 0.29677,-0.016 0.25572,0 0.29139,0.002 0.29678,0.016 0.008,0.0208 0.008,0.54293 0,0.56377 -0.005,0.014 -0.0411,0.016 -0.29678,0.016 -0.25571,0 -0.29138,-0.002 -0.29677,-0.016 z m 1.20002,0.003 c -0.003,-0.007 -0.004,-0.14007 -0.002,-0.29549 l 0.003,-0.28257 h 0.29281 0.29281 v 0.29281 0.29281 l -0.29054,0.003 c -0.22858,0.002 -0.2916,-8e-5 -0.2955,-0.0102 z m 1.19143,0 c -0.003,-0.007 -0.004,-0.14007 -0.002,-0.29549 l 0.003,-0.28257 h 0.29281 0.2928 v 0.29281 0.29281 l -0.29054,0.003 c -0.22857,0.002 -0.2916,-8e-5 -0.29549,-0.0102 z m 1.19293,-0.003 c -0.003,-0.009 -0.006,-0.13563 -0.006,-0.28188 0,-0.14626 0.003,-0.2731 0.006,-0.28189 0.006,-0.0145 0.56784,-0.016 6.2741,-0.016 5.70627,0 6.26853,10e-4 6.27411,0.016 0.008,0.0208 0.008,0.54293 0,0.56377 -0.006,0.0145 -0.56784,0.016 -6.27411,0.016 -5.70626,0 -6.26852,-10e-4 -6.2741,-0.016 z m -3.58436,13.70147 c -0.008,-0.0209 -0.008,-11.86146 -2e-5,-11.88238 0.006,-0.0145 0.72579,-0.016 8.06629,-0.016 7.34051,0 8.06072,10e-4 8.0663,0.016 0.009,0.0241 0.007,11.87113 -0.002,11.88573 -0.006,0.01 -0.1923,0.0121 -0.89594,0.0101 l -0.88789,-0.003 v -0.29281 -0.29281 l 0.59066,-0.005 0.59067,-0.005 v -5.35638 -5.35637 h -7.46157 -7.46156 v 5.35637 5.35638 l 0.59066,0.005 0.59067,0.005 v 0.29281 0.29281 l -0.88995,0.003 c -0.80498,0.002 -0.89053,10e-4 -0.89609,-0.0134 z"
       style="fill:#fe8139;stroke-width:0.01009684" />
  </g>
</svg>
