<?xml version="1.0" encoding="UTF-8" standalone="no"?>
<svg
   xmlns:dc="http://purl.org/dc/elements/1.1/"
   xmlns:cc="http://creativecommons.org/ns#"
   xmlns:rdf="http://www.w3.org/1999/02/22-rdf-syntax-ns#"
   xmlns:svg="http://www.w3.org/2000/svg"
   xmlns="http://www.w3.org/2000/svg"
   id="svg8"
   version="1.1"
   viewBox="0 0 18.52083 18.249151"
   height="18.249151mm"
   width="18.52083mm">
  <defs
     id="defs2" />
  <metadata
     id="metadata5">
    <rdf:RDF>
      <cc:Work
         rdf:about="">
        <dc:format>image/svg+xml</dc:format>
        <dc:type
           rdf:resource="http://purl.org/dc/dcmitype/StillImage" />
        <dc:title></dc:title>
      </cc:Work>
    </rdf:RDF>
  </metadata>
  <g
     transform="translate(385.36559,-325.9899)"
     id="layer1">
    <path
       id="path826"
       d="m -376.31254,344.16599 c -0.71102,-0.262 -1.31879,-0.59123 -1.90539,-1.03217 -0.57369,-0.43124 -1.03516,-0.89393 -1.49687,-1.50082 l -0.0638,-0.0839 -2.79349,-0.005 -2.7935,-0.005 v -7.7746 -7.7746 h 9.26042 9.26041 v 7.7746 7.7746 l -2.79349,0.005 -2.7935,0.005 -0.0638,0.0839 c -0.23802,0.31287 -0.45882,0.56757 -0.70644,0.81493 -0.69135,0.69059 -1.48689,1.22281 -2.38977,1.59875 -0.15286,0.0636 -0.49935,0.19298 -0.51537,0.19237 -0.004,-1.9e-4 -0.0967,-0.033 -0.20533,-0.0731 z m -0.13328,-1.46981 c 0,-0.53183 0.003,-0.688 0.0124,-0.70109 0.0113,-0.0154 0.0403,-0.0166 0.33319,-0.0142 l 0.32086,0.003 0.005,0.69601 0.005,0.69601 0.028,-0.002 c 0.0341,-0.002 0.42174,-0.19126 0.60725,-0.29583 1.40108,-0.78979 2.46868,-2.04561 3.027,-3.56066 0.19944,-0.5412 0.32417,-1.09289 0.38762,-1.71457 0.0164,-0.16019 0.0176,-0.32982 0.0176,-2.32872 v -2.15596 l -2.02769,-0.94735 c -1.56151,-0.72955 -2.0296,-0.94431 -2.03605,-0.93414 -0.005,0.007 -0.008,0.31419 -0.009,0.68207 l -1.5e-4,0.66886 h -0.32968 c -0.29151,0 -0.33036,-0.002 -0.33566,-0.0156 -0.003,-0.009 -0.006,-0.31513 -0.006,-0.68121 0,-0.36607 -0.003,-0.66544 -0.007,-0.66526 -0.004,1.8e-4 -0.91814,0.42612 -2.03127,0.94653 l -2.02386,0.9462 v 2.15591 c 0,2.36814 -0.003,2.23287 0.0599,2.67422 0.14095,0.98845 0.5116,1.95759 1.06835,2.79345 0.54832,0.82322 1.29284,1.5336 2.13954,2.04147 0.23213,0.13923 0.73428,0.39563 0.77746,0.39697 0.0163,5.1e-4 0.0173,-0.0384 0.0173,-0.68372 z m 0.0938,-2.48107 c -0.42322,-0.0431 -0.81739,-0.16265 -1.15596,-0.35056 -0.86952,-0.48263 -1.42637,-1.32926 -1.52418,-2.31735 -0.0131,-0.13203 -0.013,-0.42495 1.5e-4,-0.5557 0.0527,-0.52462 0.23341,-1.00897 0.53345,-1.43009 0.20498,-0.2877 0.48375,-0.55723 0.77739,-0.75162 0.60441,-0.40014 1.32893,-0.56235 2.04274,-0.45735 0.33742,0.0496 0.69883,0.17175 0.99088,0.33479 0.84972,0.4744 1.4136,1.33161 1.50925,2.2944 0.0151,0.15165 0.0124,0.47001 -0.005,0.62339 -0.064,0.55824 -0.2757,1.06821 -0.62755,1.51176 -0.10546,0.13294 -0.33151,0.35914 -0.46287,0.46317 -0.3294,0.26087 -0.71091,0.45065 -1.11158,0.55295 -0.24486,0.0625 -0.38563,0.0799 -0.67535,0.0833 -0.13846,0.002 -0.26952,10e-4 -0.29123,-0.001 z m 0.50292,-0.68014 c 0.57234,-0.0669 1.08943,-0.34216 1.46375,-0.77905 0.27076,-0.31602 0.44444,-0.68625 0.52138,-1.11141 0.0259,-0.14334 0.0314,-0.49409 0.0102,-0.66019 -0.0652,-0.51193 -0.30066,-0.98214 -0.67333,-1.3444 -0.19166,-0.1863 -0.36525,-0.30702 -0.61063,-0.42464 -0.20101,-0.0964 -0.38235,-0.15387 -0.60716,-0.19257 -0.12542,-0.0216 -0.46935,-0.03 -0.60333,-0.0148 -0.50549,0.0575 -0.96232,0.27204 -1.32552,0.62258 -0.36002,0.34749 -0.5894,0.7867 -0.67453,1.29156 -0.0252,0.1497 -0.0249,0.56543 6.7e-4,0.70763 0.091,0.50732 0.30192,0.91555 0.65283,1.26368 0.487,0.48315 1.1701,0.72061 1.84564,0.64159 z m -1.14461,-1.64371 -0.61185,-0.61215 0.23612,-0.23627 c 0.1939,-0.19403 0.23917,-0.23465 0.25315,-0.22717 0.009,0.005 0.17609,0.17122 0.37052,0.36935 0.19443,0.19814 0.36012,0.36279 0.36821,0.3659 0.01,0.004 0.21899,-0.19862 0.65696,-0.63655 l 0.64224,-0.64219 0.23679,0.23694 0.23678,0.23693 -0.87847,0.87869 c -0.48316,0.48327 -0.883,0.87868 -0.88853,0.87868 -0.006,0 -0.28539,-0.27547 -0.62192,-0.61216 z m -3.23327,2.9677 c 0,-0.008 -0.0161,-0.0421 -0.0358,-0.0765 -0.0647,-0.11332 -0.26471,-0.52377 -0.32883,-0.67475 -0.26816,-0.63136 -0.45379,-1.31772 -0.53801,-1.98931 -0.0515,-0.41079 -0.0487,-0.25886 -0.0523,-2.8295 -0.003,-1.93242 -9.1e-4,-2.39209 0.009,-2.40019 0.026,-0.0206 5.04862,-2.36227 5.0669,-2.36227 0.0182,0 5.04189,2.34155 5.06752,2.36198 0.016,0.0128 0.0181,4.50382 0.002,4.75133 -0.0555,0.86258 -0.24893,1.68169 -0.58289,2.46796 -0.0641,0.15098 -0.26416,0.56143 -0.32884,0.67475 -0.0197,0.0344 -0.0358,0.0689 -0.0358,0.0765 0,0.0119 0.31988,0.0135 2.23366,0.0114 l 2.23365,-0.002 v -5.98274 -5.98274 h -8.58908 -8.58909 l -0.003,5.97287 c -0.001,3.28508 -4.2e-4,5.97842 0.002,5.98521 0.004,0.01 0.46006,0.0123 2.23617,0.0123 1.90911,0 2.2315,-0.002 2.2315,-0.0139 z m 12.71086,-13.41769 v -0.77993 h -8.58908 -8.58909 l -0.003,0.77005 c -10e-4,0.42353 -4.3e-4,0.77562 0.002,0.78241 0.004,0.01 1.72727,0.0118 8.59164,0.01 l 8.58692,-0.002 z m -15.90708,0.33406 c -0.01,-0.004 -0.0123,-0.08 -0.0123,-0.33383 0,-0.29076 0.002,-0.32954 0.0156,-0.33484 0.009,-0.003 0.15431,-0.006 0.32382,-0.006 0.22655,0 0.31134,0.003 0.32005,0.0118 0.017,0.017 0.017,0.64056 0,0.65751 -0.009,0.009 -0.0933,0.0116 -0.32332,0.0111 -0.17132,-4.3e-4 -0.31704,-0.003 -0.32382,-0.006 z m 1.34266,0 c -0.01,-0.004 -0.0123,-0.08 -0.0123,-0.33383 0,-0.29076 0.002,-0.32954 0.0156,-0.33484 0.009,-0.003 0.15266,-0.006 0.32016,-0.006 0.26368,0 0.30661,0.002 0.32004,0.0155 0.0134,0.0134 0.0155,0.0568 0.0155,0.32509 0,0.26826 -0.002,0.31164 -0.0155,0.32508 -0.0135,0.0135 -0.056,0.0154 -0.32332,0.0147 -0.1693,-4.3e-4 -0.31336,-0.003 -0.32015,-0.006 z m 1.33229,-0.005 c -0.017,-0.017 -0.017,-0.64056 0,-0.65751 0.009,-0.009 0.0935,-0.0118 0.32005,-0.0118 0.16951,0 0.31523,0.003 0.32382,0.006 0.0138,0.005 0.0156,0.0441 0.0156,0.33461 0,0.29054 -0.002,0.32931 -0.0156,0.33461 -0.009,0.003 -0.15431,0.006 -0.32382,0.006 -0.22655,0 -0.31134,-0.003 -0.32005,-0.0119 z"
       style="fill:#fe8139;stroke-width:0.00987251" />
  </g>
</svg>
