<?xml version="1.0" encoding="UTF-8" standalone="no"?>
<svg
   xmlns:dc="http://purl.org/dc/elements/1.1/"
   xmlns:cc="http://creativecommons.org/ns#"
   xmlns:rdf="http://www.w3.org/1999/02/22-rdf-syntax-ns#"
   xmlns:svg="http://www.w3.org/2000/svg"
   xmlns="http://www.w3.org/2000/svg"
   width="69.983055"
   height="70"
   viewBox="0 0 18.51635 18.520834"
   version="1.1"
   id="svg8">
  <defs
     id="defs2" />
  <metadata
     id="metadata5">
    <rdf:RDF>
      <cc:Work
         rdf:about="">
        <dc:format>image/svg+xml</dc:format>
        <dc:type
           rdf:resource="http://purl.org/dc/dcmitype/StillImage" />
        <dc:title></dc:title>
      </cc:Work>
    </rdf:RDF>
  </metadata>
  <g
     id="layer1"
     transform="translate(1574.2667,-624.19909)">
    <path
       style="fill:#fe8139;stroke-width:0.0100338"
       d="m -1573.2781,640.59553 c -0.4252,-0.0613 -0.7903,-0.36849 -0.9286,-0.78129 -0.064,-0.19153 -0.06,0.23723 -0.06,-5.64428 0,-3.50038 0,-5.3824 0.01,-5.42828 0.063,-0.44372 0.3621,-0.80664 0.7808,-0.94769 0.1503,-0.0506 0.1851,-0.054 0.6136,-0.06 l 0.4064,-0.006 0.01,-0.83782 v -0.83782 h 6.3915 6.3916 v 0.83782 l 0.01,0.83782 0.903,0.005 0.9031,0.005 v 0.83783 l 0.01,0.83782 0.6923,0.005 c 0.3808,0.003 0.6935,0.006 0.6949,0.008 0,10e-4 0,0.88168 0,1.95642 0,1.07475 0,1.95967 0.01,1.96649 0.01,0.009 0.091,0.0131 0.3485,0.0151 l 0.3406,0.003 v 1.64805 c 0,0.90643 0,1.64903 0,1.65023 0,10e-4 -0.1583,0.005 -0.3487,0.008 l -0.3462,0.005 -0.01,1.96161 v 1.96161 l -8.3833,10e-4 c -4.6708,7.2e-4 -8.4099,-0.003 -8.4434,-0.007 z m 16.1984,-0.63462 c 0.01,-0.01 0.011,-0.44837 0.01,-1.64805 v -1.63445 l -1.3546,-0.005 c -1.3456,-0.005 -1.3554,-0.006 -1.4743,-0.0277 -0.6813,-0.12692 -1.1982,-0.63778 -1.3369,-1.3214 -0.028,-0.14009 -0.026,-0.49418 0,-0.63487 0.033,-0.15006 0.067,-0.2536 0.1274,-0.38068 0.2118,-0.44732 0.6077,-0.77568 1.0808,-0.89648 0.1907,-0.0487 0.2067,-0.0492 1.6205,-0.0494 l 1.3268,-1.9e-4 0.01,-0.0226 c 0,-0.0124 0,-0.75404 0,-1.64805 v -1.62548 l -8.0923,-0.005 -8.0922,-0.005 -0.091,-0.0213 c -0.05,-0.0117 -0.1321,-0.0376 -0.1819,-0.0575 -0.05,-0.0199 -0.093,-0.0362 -0.097,-0.0362 0,0 -0.01,2.15506 -0.01,4.78903 0,4.26791 0,4.79545 0.015,4.84802 0.049,0.188 0.2182,0.35037 0.4011,0.38501 0.031,0.006 3.079,0.01 8.0885,0.0106 6.7549,9.4e-4 8.0402,-10e-4 8.0497,-0.0125 z m -15.7808,-0.7726 c -0.01,-0.01 -0.011,-0.0991 -0.01,-0.3137 v -0.29981 h 0.311 0.3111 v 0.31105 0.31105 l -0.3022,0.003 c -0.2476,0.002 -0.3043,1.6e-4 -0.3137,-0.0112 z m 1.4202,0.007 c 0,-0.004 -0.01,-0.14597 -0.01,-0.31621 v -0.30951 l 0.3236,0.003 0.3236,0.003 v 0.29098 c 0,0.16004 4e-4,0.30114 0,0.31356 l -0.01,0.0226 h -0.3142 c -0.1728,0 -0.3172,-0.003 -0.3209,-0.007 z m 1.4386,-0.0127 c -0.011,-0.0208 -0.015,-0.56871 0,-0.59685 0.01,-0.014 0.043,-0.0159 0.325,-0.0159 0.2816,0 0.3196,0.002 0.325,0.0159 0.011,0.0281 0.01,0.57601 0,0.59685 -0.01,0.0185 -0.024,0.0194 -0.3207,0.0194 -0.2966,0 -0.3108,-8.7e-4 -0.3207,-0.0194 z m 1.4394,-0.003 c 0,-0.0125 0,-0.15366 0,-0.3137 v -0.29098 l 0.3237,-0.003 0.3237,-0.003 v 0.31369 0.3137 l -0.3183,0.003 -0.3184,0.003 z m 1.4445,0.01 c 0,-0.007 0,-0.1482 0,-0.3137 V 638.575 h 0.3211 0.3211 v 0.31105 0.31105 l -0.3188,0.003 c -0.2511,0.002 -0.3199,-1.1e-4 -0.3238,-0.0101 z m 1.447,0.006 c 0,-0.004 -0.01,-0.14597 -0.01,-0.31621 v -0.30951 l 0.3236,0.003 0.3236,0.003 v 0.29981 c 0,0.21284 -6e-4,0.30379 -0.01,0.31355 -0.01,0.0111 -0.071,0.0138 -0.3196,0.0138 -0.1695,0 -0.3112,-0.003 -0.3148,-0.007 z m 1.4393,-0.007 c -0.01,-0.01 -0.011,-0.0991 -0.01,-0.3137 v -0.29981 l 0.3238,-0.003 0.3237,-0.003 v 0.31369 0.3137 l -0.3122,0.003 c -0.2561,0.002 -0.3143,1.5e-4 -0.3238,-0.0112 z m 1.4383,10e-4 c 0,-0.007 0,-0.1482 0,-0.31369 v -0.30091 h 0.3211 0.3211 v 0.31105 0.31105 l -0.3189,0.003 c -0.251,0.002 -0.3198,-1.1e-4 -0.3237,-0.0101 z m 1.4471,0.006 c 0,-0.004 -0.01,-0.14611 -0.01,-0.31634 v -0.30951 l 0.3235,0.003 0.3236,0.003 v 0.31105 0.31105 l -0.3167,0.003 c -0.1742,10e-4 -0.3199,-4.2e-4 -0.3236,-0.004 z m 1.4447,-1.5e-4 c 0,-0.004 -0.01,-0.14591 -0.01,-0.31606 v -0.30938 h 0.32 c 0.2826,0 0.3208,0.002 0.3261,0.0159 0.011,0.0281 0.01,0.57601 0,0.59685 -0.01,0.0186 -0.024,0.0194 -0.3194,0.0194 -0.1699,0 -0.312,-0.003 -0.3157,-0.007 z m 1.4394,-0.007 c -0.01,-0.01 -0.011,-0.0991 -0.01,-0.3137 v -0.2998 h 0.311 0.3111 v 0.31105 0.31104 l -0.3022,0.003 c -0.2476,0.002 -0.3043,1.5e-4 -0.3137,-0.0112 z m -14.4029,-1.33746 c 0,-0.004 -0.01,-0.12744 -0.01,-0.27485 0,-0.21475 0,-0.27028 0.014,-0.27942 0.01,-0.008 0.1007,-0.0106 0.3136,-0.009 l 0.2998,0.003 v 0.28095 0.28095 l -0.3068,0.003 c -0.1687,10e-4 -0.3098,-4.2e-4 -0.3135,-0.004 z m 14.3985,0 c 0,-0.004 -0.01,-0.12744 -0.01,-0.27485 0,-0.21475 0,-0.27028 0.014,-0.27942 0.01,-0.008 0.1007,-0.0106 0.3136,-0.009 l 0.2998,0.003 v 0.28095 0.28095 l -0.3068,0.003 c -0.1687,10e-4 -0.3098,-4.2e-4 -0.3135,-0.004 z m -14.3943,-1.28152 c -0.01,-0.01 -0.011,-0.0929 -0.01,-0.28345 v -0.26969 h 0.311 0.3111 v 0.27524 c 0,0.2135 0,0.27704 -0.01,0.2833 -0.01,0.004 -0.1442,0.008 -0.3049,0.008 -0.2356,1.1e-4 -0.2945,-0.003 -0.3037,-0.0136 z m 0,-1.2771 c -0.013,-0.0129 -0.01,-0.5402 0.01,-0.55334 0.014,-0.014 0.586,-0.0174 0.6077,-0.004 0.01,0.006 0.012,0.0698 0.01,0.2833 v 0.27524 l -0.3067,0.003 c -0.1687,0.001 -0.3098,-4.2e-4 -0.3135,-0.004 z m 0,-1.28138 c -0.01,-0.01 -0.011,-0.0914 -0.01,-0.28359 v -0.26969 h 0.311 0.3111 v 0.28095 0.28094 l -0.3022,0.003 c -0.2478,0.002 -0.3042,1.5e-4 -0.3137,-0.0113 z m 0,-1.27724 c -0.013,-0.0129 -0.01,-0.5402 0.01,-0.55334 0.014,-0.014 0.586,-0.0174 0.6077,-0.004 0.01,0.006 0.012,0.0698 0.01,0.2833 v 0.27524 l -0.3067,0.003 c -0.1687,10e-4 -0.3098,-4.2e-4 -0.3135,-0.004 z m 14.3985,0 c -0.013,-0.0129 -0.01,-0.5402 0.01,-0.55334 0.014,-0.014 0.5861,-0.0174 0.6077,-0.004 0.01,0.006 0.012,0.0698 0.01,0.2833 v 0.27524 l -0.3067,0.003 c -0.1687,10e-4 -0.3098,-4.2e-4 -0.3136,-0.004 z m -14.3941,-1.28136 c -0.01,-0.01 -0.011,-0.0991 -0.01,-0.3137 v -0.2998 l 0.3137,-0.003 0.3137,-0.003 v 0.3137 0.3137 l -0.3021,0.003 c -0.2477,0.002 -0.3043,1.5e-4 -0.3137,-0.0112 z m 1.4202,0.007 c 0,-0.004 -0.01,-0.14597 -0.01,-0.3162 v -0.30952 l 0.3236,0.003 0.3236,0.003 v 0.2998 c 0,0.21284 -7e-4,0.30379 -0.01,0.31356 -0.01,0.0111 -0.071,0.0137 -0.3195,0.0137 -0.1695,0 -0.3112,-0.003 -0.3149,-0.007 z m 1.4386,-0.0127 c -0.011,-0.0208 -0.015,-0.5687 0,-0.59685 0.01,-0.014 0.043,-0.0159 0.325,-0.0159 0.2816,0 0.3196,0.002 0.325,0.0159 0.011,0.0282 0.01,0.57601 0,0.59685 -0.01,0.0186 -0.024,0.0194 -0.3207,0.0194 -0.2966,0 -0.3108,-8.6e-4 -0.3207,-0.0194 z m 1.4457,0.006 c -0.01,-0.01 -0.011,-0.0991 -0.01,-0.3137 v -0.2998 l 0.3237,-0.003 0.3237,-0.003 v 0.3137 0.31369 l -0.3122,0.003 c -0.2561,0.002 -0.3143,1.5e-4 -0.3237,-0.0113 z m 1.4382,10e-4 c 0,-0.007 0,-0.1482 0,-0.3137 v -0.3009 h 0.3211 0.3211 v 0.31104 0.31105 l -0.3188,0.003 c -0.2511,0.002 -0.3199,-1.1e-4 -0.3238,-0.0101 z m 1.447,0.006 c 0,-0.004 -0.01,-0.14597 -0.01,-0.3162 v -0.30952 l 0.3236,0.003 0.3236,0.003 v 0.2998 c 0,0.21284 -6e-4,0.30379 -0.01,0.31356 -0.01,0.0111 -0.071,0.0137 -0.3196,0.0137 -0.1695,0 -0.3112,-0.003 -0.3148,-0.007 z m 1.4393,-0.007 c -0.01,-0.01 -0.011,-0.0991 -0.01,-0.3137 v -0.2998 l 0.3238,-0.003 0.3237,-0.003 v 0.3137 0.31369 l -0.3122,0.003 c -0.2561,0.002 -0.3143,1.6e-4 -0.3238,-0.0112 z m 1.4383,10e-4 c 0,-0.007 0,-0.1482 0,-0.3137 v -0.30091 l 0.3237,-0.003 0.3238,-0.003 v 0.3137 0.31369 l -0.3189,0.003 c -0.2511,0.002 -0.3198,-1.1e-4 -0.3237,-0.0101 z m 1.4469,0.006 c 0,-0.004 -0.01,-0.14597 -0.01,-0.31621 v -0.30951 l 0.3235,0.003 0.3236,0.003 v 0.30535 c 0,0.2376 0,0.30713 -0.01,0.3134 -0.015,0.01 -0.6236,0.0113 -0.6332,0.002 z m 1.4449,0 c 0,-0.004 -0.01,-0.14591 -0.01,-0.31607 v -0.30937 h 0.32 c 0.2826,0 0.3208,0.002 0.3261,0.0159 0.011,0.0281 0.01,0.57601 0,0.59685 -0.01,0.0185 -0.024,0.0194 -0.3194,0.0194 -0.1699,0 -0.312,-0.003 -0.3157,-0.007 z m 1.4394,-0.007 c -0.01,-0.01 -0.011,-0.0991 -0.01,-0.3137 v -0.29981 l 0.3137,-0.003 0.3137,-0.003 v 0.3137 0.3137 l -0.3022,0.003 c -0.2476,0.002 -0.3043,1.5e-4 -0.3137,-0.0113 z m 2.0834,3.56307 v -1.01593 h -1.6957 -1.6957 l -0.096,0.0267 c -0.4241,0.11724 -0.7168,0.45927 -0.7606,0.88866 -0.048,0.47244 0.2435,0.9234 0.6897,1.06676 0.051,0.0165 0.1169,0.034 0.1455,0.0387 0.029,0.005 0.8094,0.009 1.7352,0.01 l 1.6832,10e-4 z m -3.5472,0 v -0.31356 l 0.301,-0.003 c 0.2741,-0.002 0.3021,-10e-4 0.3135,0.0145 0.01,0.0127 0.013,0.0896 0.013,0.30035 0,0.15578 0,0.29037 -0.01,0.2991 -0.01,0.014 -0.043,0.0159 -0.3162,0.0159 h -0.3101 z m -12.527,-6.12062 v -0.52427 l -0.3311,-0.003 c -0.1898,-0.002 -0.3595,0.002 -0.3977,0.007 -0.1922,0.0295 -0.3515,0.15761 -0.4202,0.33807 -0.028,0.0736 -0.038,0.21888 -0.02,0.29565 0.031,0.13516 0.1399,0.28354 0.2523,0.34469 0.1155,0.0629 0.1276,0.0643 0.5431,0.0649 l 0.3788,5.4e-4 v -0.52426 z m 12.1584,-0.84535 v -1.36458 h -5.7594 -5.7594 v 1.35456 c 0,0.74501 -4e-4,1.36021 0,1.36711 0,0.01 1.1615,0.012 5.762,0.01 l 5.7572,-0.003 z m 1.8187,0.84535 v -0.52427 l -0.5669,-0.003 c -0.3118,-0.002 -0.5771,-3e-4 -0.5895,0.003 l -0.023,0.005 v 0.52156 0.52157 h 0.5921 0.5921 z"
       id="path868" />
  </g>
</svg>
