<?xml version="1.0" encoding="UTF-8" standalone="no"?>
<svg
   xmlns:dc="http://purl.org/dc/elements/1.1/"
   xmlns:cc="http://creativecommons.org/ns#"
   xmlns:rdf="http://www.w3.org/1999/02/22-rdf-syntax-ns#"
   xmlns:svg="http://www.w3.org/2000/svg"
   xmlns="http://www.w3.org/2000/svg"
   id="svg8"
   version="1.1"
   viewBox="0 0 18.5217 18.520835"
   height="70"
   width="70.003273">
  <defs
     id="defs2" />
  <metadata
     id="metadata5">
    <rdf:RDF>
      <cc:Work
         rdf:about="">
        <dc:format>image/svg+xml</dc:format>
        <dc:type
           rdf:resource="http://purl.org/dc/dcmitype/StillImage" />
        <dc:title></dc:title>
      </cc:Work>
    </rdf:RDF>
  </metadata>
  <g
     transform="translate(1122.7868,-484.39612)"
     id="layer1">
    <path
       id="path855"
       d="m -1110.5225,498.96432 v -2.89406 l 0.267,-1.5e-4 c 0.1468,-1.1e-4 0.277,-0.003 0.2894,-0.006 l 0.022,-0.006 10e-5,-0.78472 c 2e-4,-0.80504 0.01,-0.9758 0.04,-1.18421 0.1522,-0.93926 0.8111,-1.71549 1.7116,-2.01642 0.2727,-0.0911 0.4968,-0.12716 0.7935,-0.1276 0.2697,-4e-4 0.4728,0.0275 0.7172,0.0985 0.6657,0.19344 1.2348,0.66703 1.5525,1.29175 0.1322,0.25993 0.2069,0.49312 0.2576,0.80394 0.02,0.12394 0.021,0.16942 0.025,1.01791 0,0.81156 0.01,0.88925 0.02,0.90065 0.012,0.009 0.086,0.0125 0.289,0.0125 h 0.2725 v 2.89406 2.89406 h -0.2096 -0.2095 v -2.67842 c 0,-2.43318 0,-2.67899 -0.016,-2.6845 -0.01,-0.003 -1.2226,-0.006 -2.6975,-0.006 -2.0724,0 -2.6844,0.003 -2.6936,0.012 -0.01,0.009 -0.012,0.61918 -0.012,2.68449 v 2.67252 h -0.2096 -0.2096 v -2.89406 z m 5.2442,-2.91042 c 0.015,-0.015 0.016,-0.0897 0.012,-0.8807 0,-0.9461 0,-0.93507 -0.067,-1.19002 -0.1222,-0.49142 -0.4233,-0.93179 -0.8381,-1.22596 -0.2696,-0.19117 -0.55,-0.306 -0.8939,-0.36611 -0.1399,-0.0245 -0.5172,-0.0245 -0.6582,-1.2e-4 -0.9542,0.16529 -1.6649,0.91249 -1.7811,1.87268 -0.01,0.0517 -0.01,0.41701 -0.01,0.93984 0,0.80616 10e-4,0.85554 0.017,0.85984 0.01,0.003 0.9591,0.005 2.11,0.006 1.9269,0.001 2.0938,-1.5e-4 2.1088,-0.0152 z m -3.4941,-0.68698 c 0,-0.008 0,-0.23634 0,-0.50667 0.01,-0.54325 0.01,-0.58868 0.072,-0.78149 0.068,-0.20772 0.1692,-0.37662 0.319,-0.53197 0.2695,-0.2794 0.6056,-0.42346 0.9883,-0.42362 0.1641,-1.1e-4 0.2843,0.0188 0.4306,0.0678 0.4883,0.16335 0.8243,0.55345 0.9285,1.07797 0.016,0.0792 0.018,0.15016 0.018,0.59877 l 10e-5,0.50895 -0.2062,0.003 -0.2062,0.003 v -0.50167 c 0,-0.41044 -0.01,-0.51347 -0.02,-0.56654 -0.074,-0.3056 -0.2561,-0.53952 -0.5206,-0.66876 -0.15,-0.0733 -0.2387,-0.0933 -0.4142,-0.0936 -0.159,-2.7e-4 -0.2201,0.0107 -0.3601,0.0647 -0.2323,0.0896 -0.4491,0.31134 -0.5376,0.54996 -0.055,0.14829 -0.054,0.1366 -0.06,0.69155 l -0.01,0.51893 -0.2073,0.003 c -0.1779,0.002 -0.2082,5.5e-4 -0.2131,-0.0125 z m -8.8256,6.21714 v -0.21448 l 0.4666,-0.003 0.4665,-0.003 v -1.2469 c 0,-0.86365 -7e-4,-1.25013 -0.01,-1.25742 -0.01,-0.007 -0.8102,-0.012 -2.6172,-0.0155 l -2.6066,-0.005 -0.08,-0.0232 c -0.3971,-0.11551 -0.6712,-0.3934 -0.7861,-0.79679 l -0.022,-0.0781 v -5.74322 c 0,-4.30551 0,-5.76195 0.01,-5.81806 0.035,-0.22951 0.1523,-0.4531 0.3222,-0.61588 0.1373,-0.13156 0.2822,-0.21488 0.4705,-0.27063 l 0.09,-0.0266 7.4447,-0.003 c 5.5704,-0.002 7.4636,-1.1e-4 7.5196,0.008 0.1773,0.0272 0.3608,0.10999 0.5129,0.23148 0.2105,0.16816 0.3598,0.44136 0.3941,0.72108 0.01,0.0632 0.011,0.79284 0.011,2.45746 v 2.36764 h -0.2094 -0.2094 v -2.40257 c 0,-2.28424 0,-2.40552 -0.021,-2.46245 -0.042,-0.1397 -0.1195,-0.25984 -0.2237,-0.34738 -0.065,-0.0543 -0.19,-0.118 -0.2717,-0.1381 -0.046,-0.0113 -1.2707,-0.0135 -7.4597,-0.0135 h -7.4048 l -0.088,0.029 c -0.1713,0.0562 -0.3167,0.18094 -0.395,0.33907 -0.077,0.15481 -0.07,-0.31535 -0.07,5.00644 0,3.70908 0,4.78837 0.012,4.79765 0.01,0.009 1.2635,0.012 5.5838,0.012 h 5.5717 v 0.20707 0.20708 l -5.5785,0.005 c -3.0682,0.003 -5.5797,0.006 -5.5811,0.007 0,10e-4 0,0.30224 0,0.66861 0,0.54737 0,0.67847 0.015,0.73535 0.047,0.22342 0.2285,0.41921 0.4591,0.49624 l 0.07,0.0233 5.3091,0.005 5.3091,0.005 v 0.20708 0.20707 h -0.4486 c -0.2674,0 -0.459,0.004 -0.4742,0.01 l -0.026,0.01 10e-5,1.2402 c 10e-5,0.68211 0,1.24577 0.01,1.25258 0.01,0.009 0.1158,0.013 0.4714,0.015 l 0.4635,0.003 v 0.20957 0.20957 l -3.1959,0.003 -3.196,0.003 v -0.21447 z m 5.0273,-1.46983 v -1.25017 l -0.026,-0.01 c -0.032,-0.0122 -3.6211,-0.009 -3.6333,0.004 -0.013,0.0128 -0.016,2.46821 0,2.49202 0.01,0.0193 0.032,0.0195 1.8338,0.017 l 1.8234,-0.003 z m 3.1504,1.67154 c 0,-0.007 0,-0.10246 0,-0.21208 v -0.19931 h 2.0258 2.0258 v 0.20957 0.20957 l -2.0236,0.003 c -1.6374,0.002 -2.0246,1.1e-4 -2.0286,-0.0103 z m 0.5912,-1.76013 c 0,-0.004 -0.01,-0.10037 -0.01,-0.21472 v -0.20791 h 0.2746 0.2746 v 0.21207 0.21206 l -0.2651,0.003 c -0.1458,10e-4 -0.2682,-4.1e-4 -0.2719,-0.004 z m 1.1674,-1.5e-4 c 0,-0.004 -0.01,-0.10021 -0.01,-0.21456 v -0.20791 h 0.2744 0.2744 v 0.21456 0.21456 h -0.2677 c -0.1473,0 -0.2708,-0.003 -0.2745,-0.007 z m 1.1676,0 c 0,-0.004 -0.01,-0.10021 -0.01,-0.21456 v -0.20791 h 0.2744 0.2744 v 0.21456 0.21456 h -0.2677 c -0.1473,0 -0.2708,-0.003 -0.2745,-0.007 z m -2.3418,-1.39048 v -0.20957 h 0.2744 0.2744 v 0.20957 0.20957 h -0.2744 -0.2744 z m 1.1676,0 v -0.20957 h 0.2744 0.2744 v 0.20957 0.20957 h -0.2744 -0.2744 z m 1.1676,0 v -0.20957 h 0.2744 0.2744 v 0.20957 0.20957 h -0.2744 -0.2744 z m -8.7621,-1.17759 v -0.20957 h 0.8583 0.8582 v 0.20957 0.20957 h -0.8582 -0.8583 z m 6.4269,0 v -0.20957 h 0.2744 0.2744 v 0.20957 0.20957 h -0.2744 -0.2744 z m 1.1676,0 v -0.20957 h 0.2744 0.2744 v 0.20957 0.20957 h -0.2744 -0.2744 z m 1.1676,0 v -0.20957 h 0.2744 0.2744 v 0.20957 0.20957 h -0.2744 -0.2744 z m -15.119,-6.48171 v -4.3361 h 7.2202 7.2202 v 2.30527 2.30527 h -0.2095 -0.2095 v -2.08608 c 0,-1.84157 0,-2.0872 -0.018,-2.09555 -0.01,-0.006 -2.5346,-0.01 -6.7817,-0.01 -5.3979,-1.1e-4 -6.7701,0.002 -6.7836,0.0123 -0.016,0.0117 -0.017,0.25438 -0.014,3.90947 v 3.89701 l 5.2842,0.005 5.2841,0.005 v 0.21206 0.21207 h -5.4989 -5.4989 z m 7.0106,3.15209 c -0.017,-0.002 -0.079,-0.008 -0.1397,-0.0143 -0.6303,-0.0623 -1.296,-0.36702 -1.7665,-0.80859 -0.5561,-0.52188 -0.8919,-1.17114 -0.9925,-1.91932 -0.058,-0.42909 -0.016,-0.91582 0.1138,-1.34545 0.1044,-0.34398 0.2992,-0.72056 0.5211,-1.00751 0.3194,-0.41279 0.7473,-0.74729 1.2209,-0.95437 0.4327,-0.18914 0.8618,-0.27159 1.3423,-0.2579 0.3932,0.0112 0.7644,0.0908 1.1127,0.23849 1.199,0.50855 1.9655,1.70709 1.9228,3.00667 -0.027,0.82913 -0.3463,1.57146 -0.9246,2.15107 -0.5266,0.52773 -1.206,0.84361 -1.9512,0.90721 -0.1111,0.009 -0.3902,0.0119 -0.4591,0.004 z m 0.6038,-0.44719 c 0.3197,-0.0487 0.6577,-0.16607 0.9331,-0.32403 0.9957,-0.57117 1.5279,-1.6943 1.3422,-2.83251 -0.074,-0.45134 -0.2756,-0.90373 -0.5669,-1.26982 -0.093,-0.11683 -0.2975,-0.32229 -0.4111,-0.41294 -0.4502,-0.35924 -0.9708,-0.56042 -1.5371,-0.594 -0.5041,-0.0299 -1.0171,0.085 -1.45,0.32463 -0.7525,0.41664 -1.2571,1.14568 -1.391,2.00958 -0.023,0.14592 -0.025,0.61374 0,0.75346 0.096,0.63882 0.3629,1.16996 0.8063,1.60233 0.065,0.0635 0.1538,0.144 0.1971,0.17896 0.3681,0.29703 0.8725,0.5127 1.3283,0.56802 0.049,0.006 0.1011,0.0128 0.1148,0.015 0.068,0.0113 0.5304,-0.002 0.6387,-0.0187 z m -1.339,-1.88161 c -0.3531,-0.35677 -0.6432,-0.65429 -0.6447,-0.66114 0,-0.007 0.063,-0.0776 0.143,-0.15716 l 0.1457,-0.1447 0.4957,0.50179 c 0.2726,0.27598 0.5024,0.50157 0.5107,0.5013 0.01,-2.7e-4 0.4348,-0.42481 0.948,-0.94342 l 0.933,-0.94294 0.1492,0.14929 0.1493,0.1493 -0.1989,0.20252 c -0.5372,0.54691 -1.9754,1.99385 -1.9817,1.99385 0,0 -0.2962,-0.29191 -0.6493,-0.64869 z"
       style="fill:#fe8037;stroke-width:0.00997952" />
  </g>
</svg>
