<?xml version="1.0" encoding="UTF-8" standalone="no"?>
<svg
   xmlns:osb="http://www.openswatchbook.org/uri/2009/osb"
   xmlns:dc="http://purl.org/dc/elements/1.1/"
   xmlns:cc="http://creativecommons.org/ns#"
   xmlns:rdf="http://www.w3.org/1999/02/22-rdf-syntax-ns#"
   xmlns:svg="http://www.w3.org/2000/svg"
   xmlns="http://www.w3.org/2000/svg"
   viewBox="0 0 62 60"
   version="1.1"
   id="svg46">
  <metadata
     id="metadata50">
    <rdf:RDF>
      <cc:Work
         rdf:about="">
        <dc:format>image/svg+xml</dc:format>
        <dc:type
           rdf:resource="http://purl.org/dc/dcmitype/StillImage" />
        <dc:title>hosting</dc:title>
      </cc:Work>
    </rdf:RDF>
  </metadata>
  <defs
     id="defs4">
    <linearGradient
       id="linearGradient2342"
       osb:paint="solid">
      <stop
         style="stop-color:#ff0000;stop-opacity:1;"
         offset="0"
         id="stop2340" />
    </linearGradient>
    <style
       id="style2">.cls-1{fill:#fff;}</style>
  </defs>
  <title
     id="title6">hosting</title>
  <path
     id="path847"
     d=""
     style="fill:#000000" />
  <path
     id="path860"
     d="m 27.165899,58.384757 v -0.967494 h 0.951088 0.951088 v 0.967494 0.967493 h -0.951088 -0.951088 z m 5.739338,-5.788579 v -6.755955 h 0.951088 0.9511 v 6.755955 6.756072 h -0.9511 -0.951088 z m -5.739338,1.918604 v -0.967493 h 0.951088 0.951088 v 0.967493 0.967494 H 28.116987 27.165899 Z M 12.210811,51.592266 C 11.68684,51.494444 11.525304,51.456023 11.246088,51.359379 10.58368,51.130146 10.012813,50.780109 9.4963139,50.286757 8.8525753,49.671775 8.4202499,48.950958 8.1799852,48.092011 l -0.093225,-0.333183 -1.0044419,-0.01179 -1.0044301,-0.01179 v -0.95005 -0.950169 l 1.0044301,-0.01179 1.0044419,-0.01178 0.093225,-0.333302 c 0.4306637,-1.539692 1.5998706,-2.778141 3.0911708,-3.274321 0.58204,-0.193523 0.819393,-0.229587 1.513587,-0.229587 0.667145,0 0.918441,0.03536 1.443037,0.200594 0.359772,0.113143 0.889684,0.370191 1.224353,0.592824 0.34907,0.232297 0.898499,0.758414 1.170727,1.12118 0.339972,0.452927 0.656502,1.117526 0.798592,1.676643 l 0.06246,0.245969 h 0.70044 c 0.773747,0 0.994613,-0.03654 1.418535,-0.206016 0.804048,-0.321987 1.419961,-1.005915 1.701087,-1.889258 l 0.07307,-0.229587 0.0165,-7.526626 0.0165,-7.526743 0.959904,-0.01179 0.959903,-0.01179 -0.0083,7.535465 -0.0083,7.535348 -0.07507,0.353101 c -0.04125,0.19423 -0.127522,0.504078 -0.191613,0.688761 -0.484147,1.394491 -1.592882,2.497403 -2.975835,2.960113 -0.598434,0.20024 -0.744837,0.221101 -1.705306,0.242197 l -0.881081,0.02004 -0.06164,0.245969 c -0.09228,0.367951 -0.182279,0.599424 -0.396096,1.018526 -0.646673,1.267441 -1.810317,2.164338 -3.237715,2.495518 -0.212108,0.0495 -0.431595,0.06836 -0.888423,0.07661 -0.333702,0.01179 -0.643632,0 -0.688725,0 z m 1.165365,-1.965394 c 1.117349,-0.230766 1.999679,-1.131316 2.23101,-2.27701 0.06612,-0.327291 0.04985,-0.985173 -0.03159,-1.277813 -0.272263,-0.97869 -0.983887,-1.734393 -1.92174,-2.040588 -0.259581,-0.08486 -0.379973,-0.104893 -0.721524,-0.117857 -0.679697,-0.02711 -1.188442,0.110786 -1.724081,0.467777 -1.2917314,0.859418 -1.6674616,2.56635 -0.864592,3.927842 0.167382,0.283801 0.615288,0.74156 0.916073,0.936143 0.239922,0.155101 0.640438,0.31963 0.934681,0.383863 0.27488,0.06011 0.886019,0.05893 1.181771,0 z m -1.558927,-2.835538 v -0.951111 h 0.967494 0.967493 v 0.951111 0.950994 h -0.967493 -0.967494 z m 15.34865,3.853474 v -0.967493 h 0.951088 0.951088 v 0.967493 0.967494 h -0.951088 -0.951088 z m 21.333946,0.933079 c -1.528614,-0.235244 -2.855892,-1.189773 -3.552206,-2.554564 -0.213806,-0.419102 -0.303837,-0.650575 -0.396085,-1.018526 l -0.06164,-0.245969 -0.88108,-0.02004 c -0.96047,-0.02121 -1.106872,-0.04243 -1.705307,-0.242198 -1.382953,-0.462709 -2.491676,-1.565621 -2.975835,-2.960113 -0.06411,-0.184683 -0.150315,-0.49453 -0.191601,-0.68876 l -0.07507,-0.353101 -0.0083,-7.535348 -0.0082,-7.535465 0.959903,0.01179 0.959904,0.01179 0.0165,7.526743 0.0165,7.526626 0.07307,0.229587 c 0.281125,0.883343 0.897026,1.567271 1.701075,1.889258 0.423934,0.169833 0.644787,0.201891 1.418534,0.206016 h 0.70044 l 0.06246,-0.245969 c 0.142089,-0.559117 0.458619,-1.223716 0.798603,-1.676643 0.272216,-0.362766 0.821645,-0.888883 1.170716,-1.12118 0.515238,-0.342848 1.138658,-0.602253 1.765496,-0.734607 0.395707,-0.08368 1.410756,-0.08368 1.803788,5.89e-4 1.813122,0.386691 3.211373,1.687368 3.702863,3.444508 l 0.09323,0.333302 1.00443,0.01179 1.004442,0.01179 v 0.950169 0.95005 l -1.004442,0.01179 -1.00443,0.01179 -0.09323,0.333183 c -0.239145,0.855058 -0.67556,1.582711 -1.316328,2.194746 -0.651034,0.621935 -1.422896,1.03479 -2.304542,1.232555 -0.337356,0.07543 -1.334408,0.110786 -1.672612,0.05893 z m 1.263469,-1.947008 c 0.307031,-0.06482 0.703646,-0.226051 0.950287,-0.385513 0.300772,-0.194583 0.748679,-0.652342 0.916072,-0.936143 0.802858,-1.361492 0.427128,-3.068424 -0.864604,-3.927842 -0.535639,-0.356402 -1.044384,-0.494413 -1.724081,-0.467777 -0.341551,0.01296 -0.461943,0.033 -0.721512,0.117857 -0.937865,0.306195 -1.649489,1.061898 -1.921752,2.040588 -0.08144,0.29264 -0.0977,0.950522 -0.03159,1.277813 0.230188,1.140155 1.10191,2.034459 2.219366,2.276774 0.27363,0.05893 0.906879,0.06129 1.17781,0 z m -1.542226,-2.839545 v -0.951111 h 0.967482 0.967493 v 0.951111 0.950994 H 49.18857 48.221088 Z M 27.165899,40.986373 V 34.2303 h 0.951088 0.951088 v 6.756073 6.755955 h -0.951088 -0.951088 z m 5.739338,1.951369 v -0.967493 h 0.951088 0.9511 v 0.967493 0.967494 h -0.9511 -0.951088 z m 0,-3.869974 v -0.967493 h 0.951088 0.9511 v 0.967493 0.967494 h -0.9511 -0.951088 z M 8.1604798,36.12828 C 6.7807673,35.996751 5.3961048,35.508467 4.2645062,34.754296 3.6883355,34.370433 3.3506733,34.095707 2.895837,33.640894 1.3261262,32.071148 0.43347227,30.012646 0.34967547,27.769461 0.23771069,24.756195 1.6918385,21.911228 4.2089128,20.221385 c 1.0449496,-0.701489 2.3752208,-1.213109 3.5252051,-1.355716 0.3309561,-0.04125 0.2951745,0.07896 0.2951745,-0.991065 0,-1.07498 0.035122,-1.392017 0.2463815,-2.223385 0.2634354,-1.036558 0.6408392,-1.873348 1.2499512,-2.771187 1.8421039,-2.715441 5.0884809,-4.1484715 8.3228599,-3.6737412 0.240819,0.035357 0.462922,0.071893 0.493553,0.081322 0.04479,0.014143 0.07696,-0.038893 0.164329,-0.2696583 0.946668,-2.5038857 2.796668,-4.8174316 5.068445,-6.3382668 1.806734,-1.2094553 3.76501,-1.92650139 5.968807,-2.18555253 0.686462,-0.0801432 2.199613,-0.0801432 2.886075,0 2.203796,0.25905114 4.162084,0.97609723 5.968807,2.18555253 2.271741,1.5208352 4.119184,3.831199 5.068291,6.3382668 0.08745,0.231001 0.119708,0.2839191 0.164483,0.2696583 0.157245,-0.0495 0.989332,-0.1487364 1.407762,-0.16724 1.34894,-0.060107 2.899864,0.2717797 4.109897,0.8781574 2.272143,1.1386228 3.922999,3.1899348 4.548705,5.6520988 0.21126,0.831368 0.246393,1.148406 0.246393,2.223385 0,1.070148 -0.03583,0.950051 0.295163,0.991065 0.542723,0.06718 1.350283,0.281562 1.926407,0.511031 3.395915,1.352888 5.594609,4.733753 5.458,8.392762 -0.06117,1.637043 -0.550714,3.179093 -1.426797,4.493913 -0.389731,0.584927 -0.662737,0.920822 -1.119329,1.37752 -1.256575,1.256481 -2.87753,2.101402 -4.592312,2.393571 -0.730152,0.12434 -1.005892,0.130822 -5.59996,0.130822 h -4.501279 v -0.967493 -0.967494 l 4.517685,-3.53e-4 c 2.809349,-2.36e-4 4.629296,-0.01297 4.812847,-0.033 2.754522,-0.307726 5.047844,-2.27642 5.768225,-4.951436 0.547791,-2.034223 0.11609,-4.225197 -1.164327,-5.908322 -0.880774,-1.157952 -2.207321,-2.046127 -3.594541,-2.406653 -0.531373,-0.138012 -0.894917,-0.186687 -1.566894,-0.209669 -0.620662,-0.02121 -0.664741,-0.02711 -0.819912,-0.107251 -0.328375,-0.171247 -0.519317,-0.474377 -0.522216,-0.829246 -8.84e-4,-0.108429 0.03807,-0.38127 0.08651,-0.606731 0.22156,-1.030194 0.20255,-2.02892 -0.05822,-3.0577 -0.599059,-2.363164 -2.489083,-4.268215 -4.820532,-4.858917 -0.631057,-0.159815 -0.936968,-0.196233 -1.654804,-0.196704 -0.76598,-5.9e-4 -1.219249,0.06129 -1.895481,0.260819 -0.61227,0.180086 -0.868328,0.141193 -1.191105,-0.181266 C 42.104134,10.966495 42.0917,10.942334 41.958203,10.517693 40.765271,6.7235017 37.82893,3.8378747 34.083732,2.7795129 32.995446,2.4719044 32.237232,2.3721968 30.986585,2.3721968 c -1.250646,0 -2.008848,0.1001791 -3.097146,0.4073161 -3.745186,1.0583618 -6.681539,3.9439888 -7.874459,7.7381801 -0.133509,0.424641 -0.145943,0.448802 -0.322965,0.625588 -0.322777,0.322459 -0.578835,0.361352 -1.191105,0.181266 -0.676232,-0.199062 -1.129489,-0.261409 -1.89547,-0.260819 -0.717847,4.71e-4 -1.023758,0.03654 -1.654804,0.196704 -2.332155,0.59082 -4.221307,2.495046 -4.820531,4.858917 -0.124729,0.492056 -0.1821606,0.89619 -0.2038346,1.43421 -0.023336,0.580214 0.0165,1.013694 0.1569746,1.705518 0.107604,0.530006 0.106661,0.642089 -0.0071,0.900433 -0.084976,0.192462 -0.2343604,0.346502 -0.4395977,0.453516 -0.1551714,0.08132 -0.1992384,0.08721 -0.8199122,0.107251 -0.6719772,0.02357 -1.035521,0.07189 -1.566894,0.209669 -2.1481916,0.558291 -3.9501645,2.263927 -4.6471983,4.398801 -0.6523775,1.997923 -0.3633198,4.177936 0.7805241,5.886754 1.1273203,1.684069 2.8845781,2.758341 4.8760425,2.980856 0.1835516,0.02004 2.0034856,0.033 4.8128466,0.033 l 4.517685,3.53e-4 v 0.967494 0.967493 h -4.566878 c -2.511783,0 -4.699704,-0.0165 -4.8620411,-0.033 z M 32.905237,35.197794 V 34.2303 h 0.951088 0.9511 v 0.967494 0.967494 h -0.9511 -0.951088 z M 21.418771,13.642453 C 21.478525,11.652662 22.139588,9.7505575 23.332803,8.1354365 23.758139,7.5597018 24.540125,6.7574447 25.099737,6.3226678 26.068656,5.5699109 27.223308,4.9789726 28.368224,4.6496783 29.079,4.4453131 30.112836,4.2873838 30.740251,4.2873838 h 0.263789 l -0.0083,0.9592435 -0.0083,0.9593614 -0.196775,0.011786 c -2.617418,0.1013575 -4.902007,1.419124 -6.297429,3.6328441 -0.428967,0.6803922 -0.838782,1.6944392 -0.997041,2.4668782 -0.08486,0.414034 -0.166674,1.098905 -0.166674,1.39461 v 0.221572 H 22.37033 21.411039 Z"
     style="fill:#ffffff;stroke-width:0.03279624;stroke:none;stroke-opacity:1;fill-opacity:1" />
</svg>
