<?xml version="1.0" encoding="UTF-8" standalone="no"?>
<svg
   xmlns:dc="http://purl.org/dc/elements/1.1/"
   xmlns:cc="http://creativecommons.org/ns#"
   xmlns:rdf="http://www.w3.org/1999/02/22-rdf-syntax-ns#"
   xmlns:svg="http://www.w3.org/2000/svg"
   xmlns="http://www.w3.org/2000/svg"
   id="svg8"
   version="1.1"
   viewBox="0 0 13.493663 13.49766"
   height="13.49766mm"
   width="13.493663mm">
  <defs
     id="defs2" />
  <metadata
     id="metadata5">
    <rdf:RDF>
      <cc:Work
         rdf:about="">
        <dc:format>image/svg+xml</dc:format>
        <dc:type
           rdf:resource="http://purl.org/dc/dcmitype/StillImage" />
        <dc:title></dc:title>
      </cc:Work>
    </rdf:RDF>
  </metadata>
  <g
     transform="translate(-0.41499349,-0.59025316)"
     id="layer1">
    <path
       id="path826"
       d="m 0.61035594,14.082807 c -0.0738,-0.0186 -0.14247,-0.0763 -0.17566,-0.14754 -0.0169,-0.0362 -0.0198,-0.0525 -0.0197,-0.10963 2.3e-4,-0.11222 -0.01,-0.0992 0.38168,-0.49005 0.38783996,-0.38709 0.37086996,-0.37394 0.48324996,-0.37461 0.0575,-3.4e-4 0.0732,0.002 0.10963,0.0194 0.0542,0.0253 0.10615,0.0772 0.13141,0.13142 0.0169,0.0362 0.0198,0.0524 0.0197,0.10963 -2.2e-4,0.11223 0.01,0.0992 -0.38167,0.49005 -0.28335996,0.28281 -0.34787996,0.34358 -0.37881996,0.35682 -0.0424,0.0181 -0.12684,0.0254 -0.16982,0.0145 z m 3.29531996,-0.0222 c -0.1195,-0.0401 -0.19072,-0.14714 -0.18033,-0.27115 0.0155,-0.18527 0.20748,-0.29419 0.37565,-0.21315 0.15756,0.0759 0.19589,0.28183 0.0767,0.41221 -0.0685,0.075 -0.17734,0.10383 -0.27205,0.0721 z m 0.67881,-0.65204 c -0.10876,-0.0269 -0.18894,-0.11773 -0.20201,-0.22889 -0.006,-0.0546 0.0123,-0.12655 0.0453,-0.17462 0.0322,-0.0469 1.34808,-1.36089 1.38438,-1.38245 0.0709,-0.0421 0.16798,-0.0472 0.24307,-0.0129 0.13673,0.0626 0.19425,0.22403 0.12772,0.35844 -0.0187,0.0377 -1.36063,1.3838 -1.40716,1.41148 -0.0334,0.0199 -0.10235,0.0395 -0.13537,0.0386 -0.0102,-2.8e-4 -0.0354,-0.005 -0.0559,-0.01 z m 4.4998702,-0.0946 c -0.0776,-0.0183 -0.14642,-0.0739 -0.18251,-0.14736 -0.0181,-0.0368 -0.0207,-0.0509 -0.0206,-0.10935 2.2e-4,-0.12347 -0.0511,-0.0641 0.72562,-0.84074 0.7768299,-0.77683 0.7176099,-0.72573 0.8408499,-0.72573 0.0608,-10e-6 0.072,0.002 0.11669,0.0243 0.0576,0.0283 0.0971,0.0688 0.12446,0.1277 0.0163,0.035 0.0195,0.0524 0.0193,0.10533 -3.4e-4,0.11825 0.0512,0.0587 -0.7186099,0.83037 -0.37785,0.37875 -0.69777,0.69353 -0.71573,0.70421 -0.056,0.0333 -0.12943,0.0454 -0.18948,0.0313 z m -7.0600502,-0.65871 c -0.0771,-0.0252 -0.13131,-0.073 -0.16545,-0.14593 -0.0161,-0.0343 -0.0194,-0.0522 -0.0194,-0.10477 -9e-5,-0.12065 -0.12477,0.0148 1.29691,-1.40849 0.90871,-0.90971 1.27871,-1.27545 1.30296,-1.28795 0.0982,-0.0506 0.21963,-0.0341 0.3011,0.041 0.0835,0.0769 0.10589,0.20985 0.0528,0.31285 -0.0125,0.0242 -0.37821,0.39439 -1.28422,1.29983 -1.07112,1.07046 -1.27251,1.26851 -1.30405,1.28243 -0.0463,0.0204 -0.13517,0.0258 -0.18062,0.011 z m 5.6595702,-0.3489 c -0.0286,-0.0112 -0.0546,-0.0299 -0.0858,-0.0618 -0.0415,-0.0424 -0.10594,-0.15717 -0.89116,-1.58827 -0.4655302,-0.84843 -0.8515502,-1.54529 -0.8578402,-1.54856 -0.006,-0.003 -0.87579,-0.27029 -1.93223,-0.59334 -1.05644,-0.32306 -1.93056,-0.59236 -1.94249,-0.59845 -0.0411,-0.021 -0.0915,-0.0757 -0.11348,-0.12334 -0.0188,-0.0406 -0.0215,-0.0551 -0.0212,-0.11364 2.6e-4,-0.0584 0.003,-0.0726 0.0214,-0.10932 0.0116,-0.0232 0.035,-0.0557 0.0519,-0.0723 0.0347,-0.0338 4.7220202,-2.81039 4.7969202,-2.84145 0.0383,-0.0159 0.0529,-0.0179 0.10816,-0.0153 0.055,0.003 0.0705,0.007 0.11109,0.0283 0.0522,0.0279 0.0892,0.0663 0.11343,0.11793 0.0522,0.11107 0.0179,0.25249 -0.0777,0.32075 -0.0169,0.0121 -0.9689102,0.57656 -2.1156102,1.25446 -1.1467,0.6779 -2.08774,1.23522 -2.09119,1.23848 -0.003,0.003 0.005,0.009 0.0186,0.0138 0.0137,0.004 0.73476,0.22495 1.60233,0.49022 0.97798,0.29903 1.58074,0.47987 1.5862,0.47589 0.008,-0.006 6.3485001,-6.5859903 6.4134701,-6.6559903 0.0218,-0.0234 0.0253,-0.0298 0.012,-0.0217 -0.0102,0.006 -0.79454,0.47005 -1.74286,1.03071 -1.4074499,0.83211 -1.7327899,1.02158 -1.7708799,1.03134 -0.0604,0.0155 -0.11587,0.009 -0.17632,-0.0199 -0.12171,-0.0587 -0.17709,-0.20154 -0.12847,-0.33149 0.0344,-0.0918 -0.12336,0.006 2.5228699,-1.55887 1.36278,-0.80571 2.44275,-1.43964996 2.46886,-1.44921996 0.12417,-0.0455 0.26718,0.0155 0.32488,0.13862 l 0.0199,0.0425 v 5.24772026 5.24771 l -0.0199,0.0425 c -0.0254,0.0542 -0.0773,0.10613 -0.13153,0.13153 -0.036,0.0169 -0.0522,0.0199 -0.1059,0.0195 -0.0623,-4.1e-4 -0.0953,-0.0102 -1.89468,-0.5616 -1.00719,-0.30865 -1.8365799,-0.56022 -1.8430699,-0.55905 -0.006,10e-4 -0.45414,0.43468 -0.99478,0.96332 -1.099,1.07463 -1.01343,0.99877 -1.13059,1.00238 -0.0506,0.002 -0.0717,-0.001 -0.10443,-0.0141 z m 1.00703,-1.50246 c 0.35078,-0.34278 0.63858,-0.62553 0.63956,-0.62834 10e-4,-0.004 -1.22528,-0.38338 -1.27796,-0.3954 -0.009,-0.002 -0.0106,0.11456 -0.0106,0.8224 0,0.45365 0.003,0.82476 0.006,0.82469 0.003,-9e-5 0.2926,-0.28058 0.64338,-0.62335 z m -1.14876,-1.49137 c 0.0103,-0.0206 0.88939,-1.29442 1.95363,-2.83084 1.0642399,-1.53641 1.9416699,-2.8035503 1.9498499,-2.8158503 0.008,-0.0123 -0.0121,0.004 -0.045,0.0373 -0.0807,0.0805 -5.0370899,5.2247303 -5.0370899,5.2280203 0,0.003 1.0926,1.99293 1.12891,2.05612 l 0.0236,0.041 0.004,-0.83921 0.004,-0.83921 z m 5.8388899,-5.2448803 -0.002,-2.26494 -2.58728,3.7349703 c -1.4229999,2.05423 -2.5861099,3.73591 -2.5846899,3.73707 10e-4,0.001 1.16569,0.35783 2.5872799,0.7926 l 2.58469,0.79049 0.002,-2.26263 c 10e-4,-1.24444 10e-4,-3.28185 0,-4.5275603 z M 7.6316661,4.625267 c -0.078,-0.0257 -0.13674,-0.0771 -0.17056,-0.14919 -0.0167,-0.0356 -0.0197,-0.052 -0.0196,-0.10906 6e-5,-0.0582 0.003,-0.0728 0.0208,-0.10958 0.027,-0.0552 0.0887,-0.11178 0.14509,-0.1330403 0.035,-0.0132 0.0544,-0.0156 0.10627,-0.0132 0.0545,0.003 0.07,0.006 0.11059,0.0282 0.18919,0.1010403 0.18243,0.3725903 -0.0116,0.4675303 -0.0327,0.016 -0.0541,0.0207 -0.10189,0.0224 -0.0333,0.001 -0.0689,-6.4e-4 -0.0791,-0.004 z"
       style="fill:#ffffff;stroke-width:0.00745943;fill-opacity:1" />
  </g>
</svg>
