<?xml version="1.0" encoding="UTF-8" standalone="no"?>
<!-- Created with Inkscape (http://www.inkscape.org/) -->

<svg
   xmlns:dc="http://purl.org/dc/elements/1.1/"
   xmlns:cc="http://creativecommons.org/ns#"
   xmlns:rdf="http://www.w3.org/1999/02/22-rdf-syntax-ns#"
   xmlns:svg="http://www.w3.org/2000/svg"
   xmlns="http://www.w3.org/2000/svg"
   xmlns:sodipodi="http://sodipodi.sourceforge.net/DTD/sodipodi-0.dtd"
   xmlns:inkscape="http://www.inkscape.org/namespaces/inkscape"
   width="15.87613mm"
   height="16.429928mm"
   viewBox="0 0 15.87613 16.429928"
   version="1.1"
   id="svg8"
   inkscape:version="0.92.4 (5da689c313, 2019-01-14)"
   sodipodi:docname="ram_icon.svg">
  <defs
     id="defs2" />
  <sodipodi:namedview
     id="base"
     pagecolor="#ffffff"
     bordercolor="#666666"
     borderopacity="1.0"
     inkscape:pageopacity="0.0"
     inkscape:pageshadow="2"
     inkscape:zoom="3.959798"
     inkscape:cx="-21.637338"
     inkscape:cy="12.181586"
     inkscape:document-units="mm"
     inkscape:current-layer="layer1"
     showgrid="false"
     fit-margin-top="0"
     fit-margin-left="0"
     fit-margin-right="0"
     fit-margin-bottom="0"
     inkscape:window-width="1920"
     inkscape:window-height="1017"
     inkscape:window-x="-8"
     inkscape:window-y="-8"
     inkscape:window-maximized="1" />
  <metadata
     id="metadata5">
    <rdf:RDF>
      <cc:Work
         rdf:about="">
        <dc:format>image/svg+xml</dc:format>
        <dc:type
           rdf:resource="http://purl.org/dc/dcmitype/StillImage" />
        <dc:title></dc:title>
      </cc:Work>
    </rdf:RDF>
  </metadata>
  <g
     inkscape:label="Layer 1"
     inkscape:groupmode="layer"
     id="layer1"
     transform="translate(321.22368,-374.95733)">
    <path
       style="fill:#ffffff;stroke-width:0.00865286"
       d="m -320.63468,391.38345 c -0.16201,-0.0229 -0.34141,-0.12503 -0.44174,-0.25156 -0.0482,-0.0608 -0.11115,-0.18598 -0.1315,-0.2615 -0.0143,-0.0531 -0.0152,-0.24213 -0.0152,-3.40508 v -3.34884 l 0.0285,-0.058 c 0.0363,-0.0738 0.0947,-0.13208 0.16613,-0.16595 l 0.0563,-0.0267 0.38938,-0.004 0.38938,-0.004 0.002,-0.33963 0.002,-0.33962 -0.3354,-2.6e-4 c -0.18447,-1.7e-4 -0.36365,-0.004 -0.39818,-0.008 -0.12282,-0.0159 -0.22071,-0.0865 -0.27287,-0.19659 l -0.0278,-0.0586 v -3.69045 c 0,-3.48838 8.3e-4,-3.69352 0.0152,-3.74669 0.0204,-0.0755 0.0833,-0.20074 0.1315,-0.2615 0.0569,-0.0717 0.14492,-0.14104 0.23408,-0.18426 0.15306,-0.0742 0.0676,-0.0691 1.15083,-0.0691 h 0.96046 l 0.0501,0.0202 c 0.0701,0.0283 0.14544,0.10018 0.18125,0.17291 l 0.0283,0.0574 0.003,0.38742 0.003,0.38742 h 0.34536 0.34536 l 0.003,-0.38289 c 0.002,-0.37759 0.003,-0.38357 0.0226,-0.43261 0.0234,-0.058 0.0893,-0.13388 0.14401,-0.16596 0.0858,-0.0503 0.0554,-0.049 1.08314,-0.046 1.04797,0.003 0.96911,-10e-4 1.10786,0.0626 0.15395,0.071 0.26227,0.17885 0.33544,0.33398 0.055,0.1165 0.0593,0.14379 0.0633,0.39919 l 0.004,0.23122 0.56387,0.002 0.56387,0.002 0.057,0.0279 c 0.1007,0.0493 0.17129,0.14563 0.18989,0.25919 0.0112,0.0686 0.0112,13.72095 0,13.78956 -0.0186,0.11338 -0.0889,0.20948 -0.18956,0.25905 l -0.057,0.028 -0.56406,0.002 -0.56407,0.002 -0.004,0.23123 c -0.004,0.25485 -0.008,0.28282 -0.0626,0.39774 -0.0893,0.18936 -0.24025,0.31753 -0.44322,0.37636 l -0.0675,0.0196 h -0.96047 -0.96047 l -0.0519,-0.0208 c -0.0717,-0.0288 -0.15803,-0.1151 -0.18683,-0.18683 -0.0208,-0.0518 -0.0209,-0.0532 -0.0233,-0.43481 l -0.003,-0.38289 h -0.34536 -0.34536 l -0.003,0.38742 -0.003,0.38742 -0.0283,0.0574 c -0.0358,0.0727 -0.11118,0.14463 -0.18125,0.17291 l -0.0501,0.0202 -0.93883,9.4e-4 c -0.51636,5.2e-4 -0.95052,-7.1e-4 -0.9648,-0.003 z m 1.47723,-1.05603 c 0.003,-0.33533 0.005,-0.38301 0.018,-0.4175 0.0378,-0.0974 0.12248,-0.18087 0.21665,-0.21373 0.0416,-0.0145 0.0949,-0.0156 0.79741,-0.0156 0.83331,0 0.79504,-0.002 0.88721,0.0571 0.0574,0.0371 0.10277,0.0935 0.13145,0.16354 0.019,0.0465 0.0196,0.0565 0.0223,0.42615 l 0.003,0.37856 h 0.68739 0.68739 l 0.002,-2.90952 0.002,-2.90952 0.34395,-0.002 0.34395,-0.002 v 2.39694 2.39694 h 0.34612 0.34611 v -6.50262 -6.50262 h -0.34611 -0.34611 v 2.39694 2.39694 l -0.34396,-0.002 -0.34395,-0.002 -0.002,-2.90952 -0.002,-2.90952 h -0.68739 -0.68739 l -0.003,0.37856 c -0.003,0.36967 -0.003,0.37968 -0.0223,0.42615 -0.0287,0.07 -0.074,0.12644 -0.13145,0.16354 -0.0922,0.0596 -0.0539,0.0571 -0.8872,0.0571 -0.70247,0 -0.75578,-0.001 -0.79741,-0.0156 -0.0942,-0.0329 -0.17882,-0.11636 -0.21665,-0.21373 -0.0134,-0.0345 -0.0155,-0.0822 -0.018,-0.4175 l -0.003,-0.37856 h -0.68741 -0.6874 v 3.4222 3.42221 l 0.34395,1e-4 c 0.18917,0 0.36661,0.004 0.39432,0.008 0.11338,0.0186 0.20948,0.0889 0.25904,0.18957 l 0.0281,0.057 v 0.77462 0.77461 l -0.0244,0.0528 c -0.0442,0.0956 -0.14503,0.17423 -0.2486,0.19387 -0.0252,0.005 -0.20153,0.009 -0.39877,0.009 l -0.35358,-3e-5 v 3.08041 3.08042 h 0.6874 0.68741 z m -0.10327,-1.69332 c -0.12717,-0.0399 -0.21794,-0.15092 -0.23723,-0.29008 -0.005,-0.0354 -0.007,-0.34679 -0.006,-0.76338 0.003,-0.69912 0.003,-0.70386 0.0214,-0.75351 0.0365,-0.0967 0.11223,-0.17277 0.21041,-0.21155 0.0366,-0.0145 0.10553,-0.0154 1.1465,-0.0154 1.04403,0 1.11013,9e-4 1.15218,0.0156 0.0941,0.0328 0.17834,0.11589 0.21684,0.21373 0.0141,0.036 0.0155,0.0938 0.0179,0.75278 0.002,0.47887 -5.1e-4,0.73357 -0.007,0.77381 -0.0176,0.1135 -0.0931,0.21425 -0.19714,0.263 l -0.0495,0.0232 -1.11622,0.002 c -0.9051,0.001 -1.12312,-5.2e-4 -1.15268,-0.01 z m 1.83193,-1.01286 v -0.34179 h -0.69223 -0.69223 v 0.34179 0.34179 h 0.69223 0.69223 z m -2.07669,-2.05073 v -0.34179 h 1.38446 1.38446 v 0.34179 0.34179 h -1.38446 -1.38446 z m 0.69223,-1.71326 v -0.34179 h 1.03834 1.03835 v 0.34179 0.34178 h -1.03835 -1.03834 z m 3.10638,0 v -0.34179 h 0.34611 0.34612 v 0.34179 0.34178 h -0.34612 -0.34611 z m 0,-1.36716 v -0.34178 h 0.34611 0.34612 v 0.34178 0.34179 h -0.34612 -0.34611 z m -2.41415,-0.34587 v -0.34203 h 0.34611 0.34612 v -0.34179 -0.34178 h -0.69223 -0.69223 v 0.34178 0.34179 h -0.34611 -0.34612 l 7e-5,-0.50835 c 3e-5,-0.30579 0.004,-0.53077 0.009,-0.5646 0.0229,-0.14491 0.12603,-0.25461 0.26786,-0.28503 0.0355,-0.008 0.32418,-0.01 1.13785,-0.008 l 1.09027,0.003 0.0583,0.0276 c 0.10538,0.0499 0.17866,0.14599 0.19706,0.25835 0.0111,0.0676 0.0112,1.40151 1.9e-4,1.469 -0.0186,0.11337 -0.0889,0.20947 -0.18956,0.25905 l -0.057,0.028 -0.56479,0.002 -0.56479,0.002 v -0.34203 z m -1.12466,-2.40654 c -0.13551,-0.0367 -0.2305,-0.14502 -0.25092,-0.28624 -0.0108,-0.0748 -0.0115,-1.38002 -7.2e-4,-1.45427 0.0167,-0.11555 0.0871,-0.21353 0.18977,-0.26406 l 0.057,-0.0281 h 1.12938 1.12938 l 0.0495,0.0232 c 0.10401,0.0487 0.17953,0.1495 0.19714,0.263 0.006,0.0402 0.008,0.29494 0.007,0.77382 -0.002,0.65898 -0.004,0.71682 -0.0179,0.75277 -0.0375,0.0953 -0.113,0.17192 -0.20764,0.21076 l -0.0452,0.0185 -1.09458,0.002 c -0.94332,0.001 -1.10114,-9e-5 -1.14197,-0.0111 z m 1.81689,-1.01158 v -0.34179 h -0.69223 -0.69223 v 0.34179 0.34179 h 0.69223 0.69223 z m 5.04462,12.65056 c -0.29822,-0.0608 -0.51586,-0.29386 -0.55326,-0.59257 -0.0131,-0.10453 -0.0129,-6.5704 2.3e-4,-6.64187 0.0196,-0.10693 0.0968,-0.20646 0.19637,-0.25313 l 0.0495,-0.0232 0.39154,-0.002 0.39155,-0.002 v -0.34146 -0.34145 l -0.3353,-3e-4 c -0.18442,-1.6e-4 -0.36131,-0.004 -0.3931,-0.008 -0.15168,-0.0196 -0.27348,-0.13355 -0.30054,-0.28127 -0.013,-0.0711 -0.0133,-7.22048 -3.3e-4,-7.32545 0.0371,-0.29931 0.26006,-0.53524 0.5606,-0.59322 0.0912,-0.0176 1.86961,-0.018 1.93531,-4.9e-4 0.0985,0.0263 0.18161,0.0933 0.2241,0.18061 0.034,0.0698 0.0395,0.13931 0.0396,0.50202 l 1.7e-4,0.3353 h 0.34179 0.34178 v -0.34926 c 0,-0.19842 0.004,-0.36912 0.009,-0.39524 0.0214,-0.11286 0.0856,-0.19748 0.18825,-0.24822 l 0.066,-0.0326 0.92198,-0.003 c 0.65162,-0.002 0.94207,2.6e-4 0.99048,0.007 0.25596,0.0365 0.47112,0.2188 0.55633,0.47133 0.0225,0.0667 0.0235,0.0779 0.0281,0.30718 l 0.005,0.23795 0.56263,0.004 0.56263,0.004 0.0573,0.0282 c 0.0938,0.0462 0.15978,0.12472 0.18526,0.22044 0.0182,0.0685 0.0182,13.79794 0,13.86645 -0.026,0.0975 -0.0931,0.17723 -0.18668,0.22185 l -0.0562,0.0268 -0.56243,0.004 -0.56244,0.004 -0.005,0.23796 c -0.004,0.21726 -0.007,0.24322 -0.0247,0.29852 -0.0677,0.20653 -0.22111,0.36969 -0.41587,0.44238 -0.0406,0.0152 -0.10305,0.0321 -0.13875,0.0376 -0.0468,0.007 -0.32251,0.009 -0.9912,0.007 l -0.92631,-0.003 -0.066,-0.0326 c -0.10267,-0.0507 -0.16684,-0.13537 -0.18825,-0.24823 -0.005,-0.0261 -0.009,-0.19681 -0.009,-0.39523 v -0.34926 h -0.34178 -0.34179 l -1.7e-4,0.3353 c -9e-5,0.18441 -0.004,0.36255 -0.009,0.39586 -0.017,0.11882 -0.0879,0.21508 -0.19629,0.26643 l -0.0586,0.0278 -0.94316,10e-4 c -0.7532,10e-4 -0.95449,-8.7e-4 -0.9994,-0.01 z m 1.51607,-1.05809 0.003,-0.38742 0.028,-0.057 c 0.035,-0.071 0.0959,-0.1293 0.17336,-0.16602 l 0.0582,-0.0276 0.73549,-0.003 c 0.52828,-0.002 0.75004,1.6e-4 0.78712,0.007 0.12919,0.0249 0.2314,0.11702 0.26776,0.24136 0.0116,0.0397 0.0137,0.10414 0.0137,0.41318 v 0.36617 h 0.69257 0.69258 l -7.1e-4,-0.3526 c -3.9e-4,-0.19393 -5.4e-4,-1.50419 -3.4e-4,-2.91169 l 3.5e-4,-2.55908 h 0.34179 0.34179 v 2.39684 2.39684 h 0.34611 0.34612 v -6.50262 -6.50262 h -0.34612 -0.34611 v 2.39684 2.39684 h -0.34179 -0.34178 l -3.7e-4,-2.55908 c -1.9e-4,-1.4075 0,-2.71776 3.5e-4,-2.91169 l 7.1e-4,-0.3526 h -0.69258 -0.69258 v 0.36617 c 0,0.30904 -0.002,0.37351 -0.0137,0.41318 -0.0364,0.12434 -0.13857,0.21648 -0.26776,0.24137 -0.0371,0.007 -0.25884,0.009 -0.78712,0.007 l -0.7355,-0.003 -0.0582,-0.0276 c -0.0775,-0.0367 -0.13841,-0.095 -0.17337,-0.16602 l -0.028,-0.057 -0.003,-0.38741 -0.002,-0.38742 h -0.69189 -0.69189 v 3.42171 3.4217 l 0.37856,0.003 c 0.36439,0.003 0.38043,0.003 0.42853,0.0216 0.0677,0.0255 0.12754,0.0712 0.16501,0.12594 0.0659,0.0963 0.0616,0.0393 0.0645,0.85022 0.002,0.52075 -1.9e-4,0.74147 -0.007,0.77846 -0.0267,0.13881 -0.13533,0.24634 -0.27557,0.27274 -0.0267,0.005 -0.19763,0.009 -0.4002,0.009 h -0.35358 v 3.08042 3.08042 h 0.69189 0.69189 l 0.002,-0.38742 z m -0.12012,-1.68863 c -0.0928,-0.0335 -0.15217,-0.0886 -0.19675,-0.18235 l -0.0267,-0.0562 v -0.7701 -0.77011 l 0.0282,-0.0576 c 0.0464,-0.0948 0.13926,-0.16735 0.24241,-0.18936 0.0266,-0.006 0.42163,-0.008 1.13118,-0.006 l 1.09026,0.002 0.0573,0.0272 c 0.10145,0.0481 0.16802,0.12551 0.19355,0.22518 0.0118,0.0462 0.0132,0.14523 0.0111,0.79578 l -0.002,0.74302 -0.0278,0.0586 c -0.0335,0.0707 -0.092,0.13042 -0.16314,0.16635 l -0.0514,0.026 -1.12055,0.002 c -1.07538,0.002 -1.12235,0.001 -1.16529,-0.0143 z m 1.84021,-1.0087 v -0.34179 h -0.6879 -0.6879 v 0.34179 0.34179 h 0.6879 0.6879 z m -2.06803,-2.05073 v -0.34179 h 1.38013 1.38013 v 0.34179 0.34179 h -1.38013 -1.38013 z m 0.69223,-1.71326 v -0.34179 h 1.03402 1.03401 v 0.34179 0.34178 h -1.03401 -1.03402 z m 3.10638,0 v -0.34179 h 0.34178 0.34179 v 0.34179 0.34178 h -0.34179 -0.34178 z m 0,-1.36716 v -0.34178 h 0.34178 0.34179 v 0.34178 0.34179 h -0.34179 -0.34178 z m -2.42074,-0.34371 0.002,-0.33986 0.34395,-0.002 0.34395,-0.002 v -0.34169 -0.34168 h -0.6879 -0.6879 v 0.34178 0.34179 h -0.34642 -0.34641 l 0.002,-0.55614 0.002,-0.55614 0.0283,-0.0574 c 0.0358,-0.0727 0.11118,-0.14463 0.18126,-0.17292 l 0.05,-0.0202 h 1.1119 c 1.07981,0 1.1132,4.8e-4 1.15722,0.0168 0.0873,0.0324 0.17389,0.11737 0.20764,0.20383 0.014,0.0358 0.0154,0.0974 0.0179,0.77444 0.002,0.53725 0,0.74832 -0.007,0.78308 -0.0217,0.10237 -0.0929,0.19123 -0.19,0.23725 l -0.0563,0.0267 -0.5647,0.002 -0.5647,0.002 z m -1.11828,-2.40672 c -0.10054,-0.0279 -0.18271,-0.0951 -0.22709,-0.18587 l -0.0282,-0.0576 v -0.77056 -0.77055 l 0.0326,-0.066 c 0.0371,-0.0752 0.085,-0.12277 0.16097,-0.16009 l 0.0487,-0.0239 h 1.13352 1.13353 l 0.0514,0.026 c 0.0711,0.0359 0.12963,0.0956 0.16314,0.16635 l 0.0278,0.0586 0.002,0.74302 c 0.002,0.65055 7.1e-4,0.74959 -0.0111,0.79578 -0.0255,0.0997 -0.0921,0.17712 -0.19356,0.22518 l -0.0573,0.0272 -1.09891,0.002 c -0.85602,0.001 -1.10752,-7.3e-4 -1.13785,-0.009 z m 1.80844,-1.01356 v -0.34179 h -0.6879 -0.6879 v 0.34179 0.34179 h 0.6879 0.6879 z"
       id="path826"
       inkscape:connector-curvature="0" />
  </g>
</svg>
