<?xml version="1.0" encoding="UTF-8" standalone="no"?>
<svg
   xmlns:dc="http://purl.org/dc/elements/1.1/"
   xmlns:cc="http://creativecommons.org/ns#"
   xmlns:rdf="http://www.w3.org/1999/02/22-rdf-syntax-ns#"
   xmlns:svg="http://www.w3.org/2000/svg"
   xmlns="http://www.w3.org/2000/svg"
   id="svg8"
   version="1.1"
   viewBox="0 0 13.493733 13.492269"
   height="13.49227mm"
   width="13.493731mm">
  <defs
     id="defs2" />
  <metadata
     id="metadata5">
    <rdf:RDF>
      <cc:Work
         rdf:about="">
        <dc:format>image/svg+xml</dc:format>
        <dc:type
           rdf:resource="http://purl.org/dc/dcmitype/StillImage" />
        <dc:title></dc:title>
      </cc:Work>
    </rdf:RDF>
  </metadata>
  <g
     transform="translate(24.406846,-26.404718)"
     id="layer1">
    <path
       id="path852"
       d="m -24.207495,39.891299 c -0.08716,-0.02188 -0.158538,-0.09143 -0.186703,-0.181922 -0.0172,-0.05527 -0.01688,-0.101007 0.0011,-0.158091 0.04747,-0.150487 0.216088,-0.22688 0.357693,-0.162052 0.05195,0.02379 0.106797,0.07653 0.131149,0.126111 0.01791,0.0365 0.01992,0.04823 0.01992,0.116374 0,0.09107 -0.0122,0.123778 -0.06836,0.183148 -0.04835,0.05112 -0.107558,0.07828 -0.176988,0.08117 -0.02781,0.0011 -0.06284,-0.0011 -0.07786,-0.0047 z m 6.481126,-5.29e-4 c -0.05976,-0.01408 -0.127564,-0.06271 -0.160769,-0.11531 -0.0399,-0.0632 -0.03457,0.0118 -0.125642,-1.769486 -0.04706,-0.920495 -0.08696,-1.675026 -0.08868,-1.676738 -0.0016,-0.0016 -0.04506,0.02967 -0.09633,0.06972 -0.05127,0.04006 -0.108979,0.08088 -0.128246,0.09072 -0.04811,0.02458 -0.10608,0.03312 -0.15938,0.02349 -0.04934,-0.0089 -0.07588,-0.02156 -0.211458,-0.100909 -0.05423,-0.03173 -0.102012,-0.05628 -0.106185,-0.05454 -0.0042,0.0019 -0.221932,0.182218 -0.483915,0.401071 -0.305138,0.2549 -0.490601,0.404939 -0.516027,0.41746 -0.03513,0.0173 -0.04799,0.01955 -0.111866,0.01955 -0.06982,3e-6 -0.07422,-0.0011 -0.135096,-0.0301 -0.141301,-0.06759 -0.357902,-0.195821 -0.496406,-0.293881 -0.460145,-0.325778 -0.838885,-0.767254 -1.090393,-1.271013 -0.06749,-0.13517 -0.07802,-0.175334 -0.06502,-0.248054 0.0048,-0.02703 0.01799,-0.06462 0.02952,-0.08438 0.01143,-0.01961 0.197855,-0.246719 0.41425,-0.504709 l 0.39344,-0.469066 -0.01513,-0.02532 c -0.07927,-0.132538 -0.152701,-0.267713 -0.164581,-0.302979 -0.01749,-0.05191 -0.01842,-0.09968 -0.003,-0.152242 0.01487,-0.0506 0.02527,-0.06707 0.107437,-0.169889 0.03757,-0.04702 0.06596,-0.08747 0.06309,-0.08989 -0.0029,-0.0024 -0.74863,-0.0426 -1.657238,-0.08929 -1.184487,-0.06087 -1.661721,-0.08778 -1.686295,-0.09508 -0.114004,-0.03385 -0.195945,-0.155985 -0.184793,-0.275418 0.0028,-0.02961 0.01241,-0.06426 0.02593,-0.09315 0.01982,-0.04237 0.08683,-0.111686 0.846381,-0.875699 0.812096,-0.816859 0.919776,-0.922181 1.077452,-1.053851 0.755877,-0.631206 1.709668,-0.996905 2.688391,-1.030774 0.125952,-0.0044 0.978389,0.01532 1.607943,0.03714 l 0.09595,0.0033 0.286157,-0.354545 c 0.157385,-0.194998 0.317002,-0.39189 0.354703,-0.437538 0.173418,-0.209979 0.389882,-0.442876 0.607089,-0.65318 1.268759,-1.228444 2.934969,-2.005665 4.694728,-2.189913 0.217279,-0.02275 0.578176,-0.04571 0.643229,-0.04092 0.277116,0.0204 0.502115,0.225522 0.555164,0.506137 0.01363,0.07203 0.01191,0.168153 -0.0079,0.443679 -0.157302,2.190517 -1.186632,4.20358 -2.862909,5.598998 -0.06537,0.05442 -0.258197,0.207499 -0.428498,0.340182 -0.170302,0.132681 -0.326689,0.255532 -0.347528,0.273005 l -0.03789,0.03177 v 0.834829 c 0,0.955918 -0.003,1.025004 -0.05796,1.363871 -0.139335,0.858576 -0.522272,1.65123 -1.114639,2.30723 -0.09914,0.109789 -1.70879,1.727154 -1.740072,1.748411 -0.05607,0.03811 -0.139625,0.05314 -0.207023,0.03726 z m 1.447905,-2.030994 c 0.149694,-0.156773 0.241528,-0.263186 0.340741,-0.394829 0.409303,-0.543089 0.667555,-1.16532 0.764217,-1.841302 0.03427,-0.239654 0.03486,-0.254502 0.03797,-0.949713 0.0024,-0.550672 0.0013,-0.665755 -0.0065,-0.659585 -0.0052,0.0041 -0.551863,0.430472 -1.21476,0.947475 -0.662895,0.517001 -1.211334,0.945822 -1.21875,0.952939 -0.01318,0.01262 -0.01164,0.04953 0.06362,1.538306 0.04241,0.838954 0.07874,1.53327 0.08071,1.542925 0.0032,0.01553 0.06261,-0.04138 0.516157,-0.494374 0.281905,-0.281561 0.568372,-0.570388 0.636595,-0.641839 z m -3.343522,-1.512683 c 0.176321,-0.147251 0.329337,-0.275971 0.340031,-0.286046 l 0.01945,-0.01831 -0.08079,-0.06134 c -0.418994,-0.318138 -0.82387,-0.721386 -1.144979,-1.140378 -0.03732,-0.0487 -0.07011,-0.08603 -0.07286,-0.08297 -0.0028,0.0031 -0.131024,0.156297 -0.285057,0.340508 l -0.280056,0.334933 0.02109,0.04036 c 0.01159,0.0222 0.04604,0.08022 0.07653,0.128942 0.247068,0.394763 0.58406,0.72369 0.986192,0.962596 0.04577,0.02719 0.08696,0.04944 0.09154,0.04944 0.0046,0 0.152587,-0.120478 0.328908,-0.267726 z m 3.275908,-2.067671 c 1.162479,-0.907372 2.158505,-1.68712 2.213395,-1.732774 0.337045,-0.280331 0.680985,-0.623917 0.95976,-0.958768 0.596072,-0.715973 1.052473,-1.536403 1.348888,-2.424771 0.218398,-0.654547 0.340521,-1.309793 0.377968,-2.027964 0.0077,-0.148101 0.0033,-0.16891 -0.04033,-0.189714 -0.02217,-0.01058 -0.04002,-0.0105 -0.217183,0.0011 -0.318612,0.02064 -0.548119,0.04635 -0.820743,0.09198 -0.614817,0.102897 -1.244843,0.294521 -1.808067,0.549931 -0.30386,0.137795 -0.526732,0.254688 -0.811929,0.425844 -0.118896,0.07136 -0.417875,0.271322 -0.541287,0.362035 -0.474469,0.348747 -0.935207,0.781235 -1.307322,1.227163 -0.05114,0.06128 -3.413767,4.224295 -3.475386,4.302609 -0.01275,0.01619 0.183994,0.321609 0.350121,0.543485 0.08454,0.112914 0.225438,0.286502 0.296007,0.364691 l 0.02606,0.02887 0.716481,-0.720021 c 0.813337,-0.817353 0.747196,-0.759494 0.868193,-0.759494 0.05887,0 0.06967,0.0021 0.112749,0.02344 0.05649,0.02781 0.100833,0.07311 0.127715,0.13045 0.01656,0.03534 0.01921,0.05036 0.01921,0.109522 0,0.05999 -0.0026,0.07398 -0.02021,0.111865 -0.02148,0.04603 0.03872,-0.01574 -1.126958,1.15629 l -0.324546,0.326319 0.04302,0.03886 c 0.194503,0.175707 0.425429,0.355629 0.645647,0.503044 0.10554,0.07065 0.259945,0.165894 0.268933,0.165894 0.0034,0 0.957368,-0.742394 2.119844,-1.649767 z m -1.069975,-1.150551 c -0.07699,-0.01341 -0.146483,-0.06504 -0.186234,-0.138356 -0.02371,-0.04371 -0.02474,-0.04878 -0.02474,-0.121398 0,-0.0685 0.0019,-0.07976 0.02035,-0.117203 0.02593,-0.05279 0.07315,-0.100007 0.125894,-0.125862 0.03654,-0.01791 0.04947,-0.02029 0.109974,-0.02032 0.05881,0 0.07426,0.0026 0.108587,0.01873 0.07673,0.03599 0.126995,0.09697 0.148222,0.179829 0.04673,0.182417 -0.115763,0.357034 -0.302048,0.324577 z m 2.57846,-1.710962 c -0.248502,-0.03151 -0.47734,-0.143716 -0.653151,-0.320267 -0.09464,-0.09503 -0.155456,-0.179031 -0.213283,-0.29455 -0.133755,-0.267208 -0.157268,-0.568923 -0.06705,-0.860319 0.0099,-0.03187 0.03878,-0.100169 0.06425,-0.15177 0.11031,-0.223478 0.277056,-0.393602 0.494289,-0.504301 0.172482,-0.08789 0.317725,-0.122693 0.512067,-0.122693 0.14175,0 0.225203,0.01283 0.34817,0.05352 0.392163,0.129778 0.668647,0.443386 0.756912,0.858551 0.02328,0.109498 0.02371,0.315495 7.94e-4,0.42944 -0.09874,0.492792 -0.483227,0.852392 -0.975849,0.912683 -0.07003,0.0086 -0.198427,0.0084 -0.267224,-2.65e-4 z m 0.283964,-0.543869 c 0.169087,-0.04289 0.30685,-0.154353 0.384151,-0.310804 0.04751,-0.09615 0.06265,-0.161562 0.06265,-0.270642 0,-0.107037 -0.01508,-0.174072 -0.05948,-0.264435 -0.156483,-0.318463 -0.549135,-0.430945 -0.849918,-0.243477 -0.132988,0.08289 -0.235405,0.2307 -0.269418,0.388829 -0.01434,0.06668 -0.01085,0.198225 0.0071,0.267036 0.04451,0.170904 0.160663,0.314872 0.314692,0.390061 0.129215,0.06308 0.27287,0.07828 0.410263,0.04343 z m -4.917603,0.951449 c 0.540467,-0.669263 0.980953,-1.218554 0.97886,-1.220644 -0.0021,-0.0021 -0.258053,-0.01159 -0.568804,-0.02109 -0.614172,-0.01879 -0.730551,-0.01738 -0.987739,0.01201 -0.530762,0.06064 -1.05147,0.232449 -1.518671,0.501086 -0.185433,0.106624 -0.427204,0.279313 -0.617067,0.440756 -0.07695,0.06543 -1.341482,1.328473 -1.342109,1.340527 -1.64e-4,0.003 0.01678,0.0056 0.03761,0.0058 0.0294,2.64e-4 2.972786,0.153612 3.023306,0.157461 0.0077,5.29e-4 0.361513,-0.431956 0.994616,-1.215929 z m -3.519278,7.232484 c -0.19623,-0.03561 -0.377997,-0.165079 -0.474821,-0.338217 -0.04809,-0.086 -0.0769,-0.181961 -0.087,-0.289821 -0.0054,-0.05825 0.01976,-0.450096 0.03663,-0.569463 0.05959,-0.421412 0.308324,-0.795073 0.674283,-1.012965 0.03374,-0.02008 0.219834,-0.115575 0.413541,-0.21219 l 0.352194,-0.175665 h 0.07001 c 0.06275,0 0.07446,0.0021 0.112919,0.02106 0.136218,0.06688 0.190312,0.227933 0.121941,0.363063 -0.03759,0.0743 -0.05755,0.08694 -0.436269,0.276339 -0.192092,0.09607 -0.376864,0.192897 -0.410604,0.215183 -0.194426,0.128424 -0.334589,0.349922 -0.371692,0.587375 -0.01548,0.09908 -0.03767,0.449757 -0.03095,0.489127 0.0065,0.03819 0.0327,0.07709 0.06794,0.100944 0.03683,0.02492 0.08192,0.02604 0.328387,0.008 0.155588,-0.01135 0.223446,-0.01937 0.274865,-0.0324 0.162957,-0.04134 0.287301,-0.110699 0.405606,-0.226251 0.0972,-0.09494 0.123534,-0.138864 0.320779,-0.53504 0.204655,-0.411057 0.208369,-0.416817 0.295028,-0.457369 0.04164,-0.01947 0.0562,-0.02257 0.10627,-0.02244 0.107474,2.44e-4 0.189929,0.05101 0.236427,0.145542 0.02207,0.04484 0.02368,0.05316 0.02368,0.121648 v 0.07351 l -0.189672,0.380193 c -0.226785,0.454581 -0.260646,0.509514 -0.404193,0.655725 -0.189974,0.1935 -0.426196,0.326324 -0.687179,0.386392 -0.0926,0.02133 -0.150696,0.02811 -0.375147,0.0439 -0.233394,0.0164 -0.299633,0.01709 -0.372972,0.0038 z"
       style="fill:#ffffff;stroke-width:0.00721715;fill-opacity:1" />
  </g>
</svg>
