<?xml version="1.0" encoding="UTF-8" standalone="no"?>
<!-- Created with Inkscape (http://www.inkscape.org/) -->

<svg
   xmlns:dc="http://purl.org/dc/elements/1.1/"
   xmlns:cc="http://creativecommons.org/ns#"
   xmlns:rdf="http://www.w3.org/1999/02/22-rdf-syntax-ns#"
   xmlns:svg="http://www.w3.org/2000/svg"
   xmlns="http://www.w3.org/2000/svg"
   xmlns:sodipodi="http://sodipodi.sourceforge.net/DTD/sodipodi-0.dtd"
   xmlns:inkscape="http://www.inkscape.org/namespaces/inkscape"
   width="11.642333mm"
   height="12.6504mm"
   viewBox="0 0 11.642333 12.6504"
   version="1.1"
   id="svg8"
   inkscape:version="0.92.4 (5da689c313, 2019-01-14)"
   sodipodi:docname="server_icon.svg">
  <defs
     id="defs2" />
  <sodipodi:namedview
     id="base"
     pagecolor="#ffffff"
     bordercolor="#666666"
     borderopacity="1.0"
     inkscape:pageopacity="0.0"
     inkscape:pageshadow="2"
     inkscape:zoom="5.6"
     inkscape:cx="65.821102"
     inkscape:cy="24.646978"
     inkscape:document-units="mm"
     inkscape:current-layer="layer1"
     showgrid="false"
     fit-margin-top="0"
     fit-margin-left="0"
     fit-margin-right="0"
     fit-margin-bottom="0"
     inkscape:window-width="1920"
     inkscape:window-height="1017"
     inkscape:window-x="-8"
     inkscape:window-y="-8"
     inkscape:window-maximized="1" />
  <metadata
     id="metadata5">
    <rdf:RDF>
      <cc:Work
         rdf:about="">
        <dc:format>image/svg+xml</dc:format>
        <dc:type
           rdf:resource="http://purl.org/dc/dcmitype/StillImage" />
        <dc:title></dc:title>
      </cc:Work>
    </rdf:RDF>
  </metadata>
  <g
     inkscape:label="Layer 1"
     inkscape:groupmode="layer"
     id="layer1"
     transform="translate(414.65148,-422.57505)">
    <path
       style="fill:#ffffff;stroke-width:0.00627651"
       d="m -413.71694,434.57654 v -0.64935 l -0.30912,-0.002 c -0.29968,-0.002 -0.31037,-0.002 -0.34992,-0.0158 -0.12239,-0.0416 -0.22076,-0.1411 -0.25911,-0.26211 l -0.0139,-0.0439 v -1.27413 -1.27413 l 0.0139,-0.0439 c 0.0322,-0.10156 0.10714,-0.19057 0.19791,-0.235 0.0904,-0.0442 0.0911,-0.0443 0.42342,-0.0443 h 0.29682 v -0.4425 -0.44249 h -0.29682 c -0.33255,0 -0.33302,-7e-5 -0.42382,-0.0445 -0.10215,-0.05 -0.18191,-0.15402 -0.20536,-0.26779 -0.008,-0.0397 -0.009,-0.20728 -0.008,-1.30551 l 0.002,-1.25998 0.0168,-0.046 c 0.0233,-0.0637 0.0519,-0.10924 0.0968,-0.15418 0.0449,-0.0449 0.0905,-0.0735 0.15418,-0.0968 l 0.046,-0.0168 0.30912,-0.002 0.30911,-0.002 v -0.44194 -0.44195 l -0.31225,-0.002 -0.31226,-0.002 -0.0469,-0.0171 c -0.0959,-0.035 -0.17577,-0.10614 -0.22033,-0.19627 -0.0467,-0.0945 -0.0438,0.002 -0.042,-1.40134 l 0.002,-1.25991 0.0146,-0.0408 c 0.0226,-0.0631 0.059,-0.11943 0.10606,-0.16381 0.0514,-0.0485 0.0839,-0.0684 0.14993,-0.0917 l 0.0495,-0.0175 h 5.49823 5.49822 l 0.0495,0.0175 c 0.0667,0.0236 0.0992,0.0436 0.15132,0.0933 0.0501,0.0477 0.0783,0.0909 0.10244,0.15703 l 0.0168,0.046 0.002,1.25998 c 0.002,1.40357 0.005,1.30686 -0.0419,1.40127 -0.0446,0.0901 -0.12443,0.16127 -0.22033,0.19627 -0.0464,0.017 -0.049,0.0172 -0.2415,0.0203 l -0.19457,0.003 -0.002,0.44045 -0.002,0.44045 0.19305,0.002 c 0.19079,0.002 0.19358,0.002 0.23908,0.0189 0.0636,0.0231 0.10916,0.0517 0.15418,0.0967 0.0449,0.0449 0.0735,0.0905 0.0968,0.15418 l 0.0168,0.046 0.002,1.25998 c 0.001,1.09823 4.5e-4,1.26582 -0.008,1.30551 -0.0235,0.11377 -0.10321,0.21778 -0.20536,0.26779 -0.0857,0.0419 -0.10341,0.0445 -0.3077,0.0445 h -0.1807 v 0.44249 0.4425 h 0.1807 c 0.20429,0 0.22205,0.003 0.3077,0.0445 0.10215,0.05 0.18191,0.15401 0.20536,0.26778 0.008,0.0397 0.009,0.20729 0.008,1.30552 l -0.002,1.25998 -0.014,0.0408 c -0.0414,0.12095 -0.139,0.21848 -0.25907,0.25882 -0.0377,0.0127 -0.0554,0.0139 -0.2338,0.0159 l -0.193,0.002 v 0.64921 0.64921 h -0.21026 -0.21027 v -0.64962 -0.64962 h -4.58185 -4.58186 v 0.64962 0.64962 h -0.21026 -0.21026 z m 10.2872,-2.24727 v -1.18312 h -5.40094 -5.40094 v 1.18312 1.18312 h 5.40094 5.40094 z m -10.31231,0.46132 v -0.20712 h 0.23537 0.23537 v 0.20712 0.20713 h -0.23537 -0.23537 z m 0.9352,0 v -0.20712 h 0.23537 0.23537 v 0.20712 0.20713 h -0.23537 -0.23537 z m 0.9352,0 v -0.20712 h 0.23537 0.23537 v 0.20712 0.20713 h -0.23537 -0.23537 z m 0.9352,0 v -0.20712 h 0.23537 0.23537 v 0.20712 0.20713 h -0.23537 -0.23537 z m 0.9352,0 v -0.20712 h 0.23537 0.23537 v 0.20712 0.20713 h -0.23537 -0.23537 z m 3.83495,0.1949 c -0.1536,-0.0326 -0.30289,-0.12706 -0.39954,-0.25266 -0.057,-0.074 -0.10392,-0.17862 -0.12401,-0.2762 -0.0131,-0.0636 -0.0131,-0.19108 0,-0.25472 0.0701,-0.34122 0.38286,-0.57331 0.72867,-0.5407 0.29818,0.0281 0.5404,0.24607 0.60091,0.5407 0.021,0.10201 0.0107,0.2437 -0.025,0.34619 -0.0766,0.2199 -0.27159,0.38999 -0.50171,0.43773 -0.0752,0.0156 -0.20509,0.0154 -0.27931,-3.4e-4 z m 0.24629,-0.42544 c 0.16048,-0.0751 0.20184,-0.27593 0.083,-0.40298 -0.0505,-0.054 -0.11469,-0.082 -0.18807,-0.082 -0.15672,0 -0.27708,0.13876 -0.25315,0.29186 0.0152,0.0972 0.0781,0.17 0.17775,0.20561 0.0502,0.0179 0.12679,0.0126 0.18047,-0.0125 z m 1.40208,0.4283 c -0.22134,-0.046 -0.41114,-0.19861 -0.49379,-0.39715 -0.0375,-0.0901 -0.0512,-0.15772 -0.0518,-0.25565 -5.6e-4,-0.093 0.005,-0.13196 0.0314,-0.21341 0.0639,-0.19829 0.22717,-0.3629 0.42552,-0.42891 0.14729,-0.049 0.32076,-0.045 0.46495,0.0108 0.0907,0.0351 0.15566,0.0784 0.23175,0.15448 0.10351,0.10352 0.15618,0.20082 0.18541,0.34256 0.0184,0.0892 0.0149,0.20633 -0.009,0.2972 -0.06,0.22912 -0.24337,0.41332 -0.47595,0.47812 -0.0493,0.0137 -0.0744,0.0166 -0.1619,0.0186 -0.0735,0.002 -0.1161,-2.7e-4 -0.14671,-0.007 z m 0.23567,-0.4283 c 0.0887,-0.0419 0.14276,-0.12007 0.14821,-0.21424 0.006,-0.11079 -0.0469,-0.19975 -0.14852,-0.2479 -0.0384,-0.0182 -0.0466,-0.0197 -0.10761,-0.0197 -0.0618,0 -0.0687,10e-4 -0.10728,0.0203 -0.18358,0.0904 -0.19873,0.33571 -0.0275,0.44593 0.0689,0.0444 0.16834,0.0508 0.24273,0.0156 z m -9.45831,-0.69367 0.002,-0.2087 h 0.23223 0.23223 l 0.002,0.2087 0.002,0.20869 h -0.23554 -0.23554 z m 0.9352,0 0.002,-0.2087 h 0.23223 0.23223 l 0.002,0.2087 0.002,0.20869 h -0.23554 -0.23554 z m 0.9352,0 0.002,-0.2087 h 0.23223 0.23223 l 0.002,0.2087 0.002,0.20869 h -0.23554 -0.23554 z m 0.9352,0 0.002,-0.2087 h 0.23223 0.23223 l 0.002,0.2087 0.002,0.20869 h -0.23554 -0.23554 z m 0.9352,0 0.002,-0.2087 h 0.23223 0.23223 l 0.002,0.2087 0.002,0.20869 h -0.23554 -0.23554 z m 5.86706,-1.57698 v -0.44249 h -4.58185 -4.58186 v 0.44249 0.4425 h 4.58186 4.58185 z m 0.70297,-2.03986 v -1.18313 h -5.40094 -5.40094 v 1.18313 1.18312 h 5.40094 5.40094 z m -10.30805,0.67061 c -0.002,-0.002 -0.004,-0.097 -0.004,-0.21034 v -0.20607 h 0.23545 0.23546 l -0.002,0.20869 -0.002,0.20869 -0.22954,0.002 c -0.12625,9.1e-4 -0.23146,-2.7e-4 -0.2338,-0.003 z m 0.9352,0 c -0.002,-0.002 -0.004,-0.097 -0.004,-0.21034 v -0.20607 h 0.23545 0.23546 l -0.002,0.20869 -0.002,0.20869 -0.22954,0.002 c -0.12625,9.1e-4 -0.23146,-2.7e-4 -0.2338,-0.003 z m 0.9352,0 c -0.002,-0.002 -0.004,-0.097 -0.004,-0.21034 v -0.20607 h 0.23545 0.23546 l -0.002,0.20869 -0.002,0.20869 -0.22954,0.002 c -0.12625,9.1e-4 -0.23146,-2.7e-4 -0.2338,-0.003 z m 0.9352,0 c -0.002,-0.002 -0.004,-0.097 -0.004,-0.21034 v -0.20607 h 0.23545 0.23546 l -0.002,0.20869 -0.002,0.20869 -0.22954,0.002 c -0.12625,9.1e-4 -0.23146,-2.7e-4 -0.2338,-0.003 z m 0.9352,0 c -0.002,-0.002 -0.004,-0.097 -0.004,-0.21034 v -0.20607 h 0.23545 0.23546 l -0.002,0.20869 -0.002,0.20869 -0.22954,0.002 c -0.12624,9.1e-4 -0.23145,-2.7e-4 -0.2338,-0.003 z m 3.89667,-0.003 c -0.0718,-0.008 -0.15372,-0.0326 -0.22603,-0.0682 -0.19091,-0.0938 -0.32027,-0.26195 -0.36352,-0.47252 -0.0131,-0.0637 -0.0131,-0.19119 7e-5,-0.25473 0.0523,-0.25346 0.23773,-0.45037 0.49036,-0.5207 0.0564,-0.0157 0.0706,-0.0171 0.17439,-0.0171 0.10376,0 0.11798,10e-4 0.17438,0.0171 0.25264,0.0703 0.43808,0.26724 0.49036,0.5207 0.0203,0.0985 0.011,0.24035 -0.0224,0.34077 -0.0984,0.29572 -0.40398,0.48933 -0.71756,0.45464 z m 0.17431,-0.43203 c 0.0227,-0.009 0.0503,-0.0272 0.0736,-0.0488 0.13586,-0.12579 0.10147,-0.3381 -0.0677,-0.41826 -0.0387,-0.0183 -0.0474,-0.02 -0.10497,-0.02 -0.0575,0 -0.0663,0.002 -0.10496,0.02 -0.15902,0.0753 -0.20177,0.27472 -0.0858,0.40048 0.0353,0.0383 0.0564,0.0528 0.10241,0.0702 0.0508,0.0193 0.1332,0.0177 0.18747,-0.004 z m 1.46463,0.43183 c -0.22778,-0.024 -0.43359,-0.16724 -0.53583,-0.37285 -0.0215,-0.0432 -0.0475,-0.12089 -0.0589,-0.17574 -0.0114,-0.0552 -0.01,-0.19071 0.003,-0.25036 0.0593,-0.27233 0.26922,-0.4772 0.54137,-0.52834 0.0763,-0.0143 0.21674,-0.01 0.28874,0.009 0.24033,0.0632 0.42807,0.24795 0.48924,0.48151 0.0238,0.0909 0.0273,0.20795 0.009,0.2972 -0.0284,0.13759 -0.0818,0.23801 -0.17914,0.33673 -0.0345,0.035 -0.0808,0.0757 -0.10281,0.0905 -0.0902,0.0604 -0.20527,0.10156 -0.31508,0.11283 -0.0696,0.007 -0.0688,0.007 -0.13987,-3.5e-4 z m 0.15503,-0.42679 c 0.17844,-0.0586 0.23201,-0.28685 0.0986,-0.42023 -0.0815,-0.0815 -0.21206,-0.0981 -0.31181,-0.0397 -0.0389,0.0228 -0.0822,0.0726 -0.10453,0.12018 -0.0178,0.0379 -0.0198,0.048 -0.0195,0.0987 4.2e-4,0.0662 0.0133,0.10548 0.0504,0.15422 0.0659,0.0864 0.18148,0.12139 0.28673,0.0868 z m -9.4357,-0.70238 v -0.20712 h 0.23537 0.23537 v 0.20712 0.20713 h -0.23537 -0.23537 z m 0.9352,0 v -0.20712 h 0.23537 0.23537 v 0.20712 0.20713 h -0.23537 -0.23537 z m 0.9352,0 v -0.20712 h 0.23537 0.23537 v 0.20712 0.20713 h -0.23537 -0.23537 z m 0.9352,0 v -0.20712 h 0.23537 0.23537 v 0.20712 0.20713 h -0.23537 -0.23537 z m 0.9352,0 v -0.20712 h 0.23537 0.23537 v 0.20712 0.20713 h -0.23537 -0.23537 z m 5.86854,-1.57854 v -0.44249 h -4.58185 -4.58186 v 0.44249 0.44249 h 4.58186 4.58185 z m 0.70297,-2.03987 v -1.18312 h -5.40094 -5.40094 v 1.18312 1.18313 h 5.40094 5.40094 z m -10.31083,0.46603 0.002,-0.20869 h 0.23223 0.23223 l 0.002,0.20869 0.002,0.2087 h -0.23554 -0.23554 z m 0.9352,0 0.002,-0.20869 h 0.23223 0.23223 l 0.002,0.20869 0.002,0.2087 h -0.23554 -0.23554 z m 0.9352,0 0.002,-0.20869 h 0.23223 0.23223 l 0.002,0.20869 0.002,0.2087 h -0.23554 -0.23554 z m 0.9352,0 0.002,-0.20869 h 0.23223 0.23223 l 0.002,0.20869 0.002,0.2087 h -0.23554 -0.23554 z m 0.9352,0 0.002,-0.20869 h 0.23223 0.23223 l 0.002,0.20869 0.002,0.2087 h -0.23554 -0.23554 z m 3.88682,0.20153 c -0.27099,-0.0344 -0.49584,-0.23244 -0.56916,-0.50123 -0.0129,-0.0472 -0.0145,-0.0667 -0.0141,-0.16947 4.1e-4,-0.10748 0.002,-0.12031 0.0175,-0.1726 0.009,-0.0311 0.028,-0.0797 0.0415,-0.10799 0.14945,-0.31455 0.51315,-0.46279 0.84471,-0.34428 0.20383,0.0729 0.35605,0.23632 0.42112,0.45227 0.0158,0.0523 0.0171,0.0651 0.0175,0.1726 4e-4,0.10279 -10e-4,0.12225 -0.0141,0.16947 -0.0742,0.27209 -0.29847,0.4675 -0.57544,0.50144 -0.0642,0.008 -0.10631,0.008 -0.16947,-2.1e-4 z m 0.19877,-0.43697 c 0.15885,-0.0782 0.19415,-0.28392 0.07,-0.40819 -0.0997,-0.0999 -0.26213,-0.0999 -0.36186,0 -0.098,0.0981 -0.10075,0.24972 -0.006,0.35054 0.0573,0.0613 0.10855,0.0819 0.19729,0.0794 0.0531,-0.001 0.0649,-0.004 0.10099,-0.0218 z m 1.4394,0.43706 c -0.22718,-0.0284 -0.42853,-0.17474 -0.5269,-0.383 -0.0871,-0.18444 -0.0848,-0.39443 0.006,-0.57964 0.0357,-0.0726 0.0767,-0.12654 0.1459,-0.19218 0.30268,-0.28703 0.80002,-0.2264 1.02952,0.12551 0.0668,0.10246 0.0998,0.20542 0.10584,0.33084 0.01,0.19945 -0.0597,0.37351 -0.20412,0.51219 -0.0636,0.0611 -0.10566,0.0901 -0.18499,0.12761 -0.11584,0.0548 -0.24261,0.0748 -0.37155,0.0587 z m 0.19817,-0.43709 c 0.0504,-0.0243 0.10011,-0.0747 0.12371,-0.12541 0.0148,-0.0318 0.0168,-0.0439 0.0169,-0.10201 1.2e-4,-0.0611 -10e-4,-0.0689 -0.0198,-0.10796 -0.0753,-0.15888 -0.28047,-0.19777 -0.40902,-0.0775 -0.14318,0.13392 -0.0878,0.3651 0.10256,0.42809 0.0157,0.005 0.0473,0.008 0.0847,0.007 0.052,-0.002 0.0649,-0.004 0.10088,-0.0217 z m -9.46544,-0.69188 v -0.20713 h 0.23537 0.23537 v 0.20713 0.20712 h -0.23537 -0.23537 z m 0.9352,0 v -0.20713 h 0.23537 0.23537 v 0.20713 0.20712 h -0.23537 -0.23537 z m 0.9352,0 v -0.20713 h 0.23537 0.23537 v 0.20713 0.20712 h -0.23537 -0.23537 z m 0.9352,0 v -0.20713 h 0.23537 0.23537 v 0.20713 0.20712 h -0.23537 -0.23537 z m 0.9352,0 v -0.20713 h 0.23537 0.23537 v 0.20713 0.20712 h -0.23537 -0.23537 z m -2.8056,11.31028 v -0.20713 h 3.97617 3.97617 v 0.20713 0.20712 h -3.97617 -3.97617 z"
       id="path826"
       inkscape:connector-curvature="0" />
  </g>
</svg>
