<?xml version="1.0" encoding="UTF-8" standalone="no"?>
<svg
   xmlns:dc="http://purl.org/dc/elements/1.1/"
   xmlns:cc="http://creativecommons.org/ns#"
   xmlns:rdf="http://www.w3.org/1999/02/22-rdf-syntax-ns#"
   xmlns:svg="http://www.w3.org/2000/svg"
   xmlns="http://www.w3.org/2000/svg"
   id="svg90"
   version="1.1"
   viewBox="0 0 44 58">
  <metadata
     id="metadata94">
    <rdf:RDF>
      <cc:Work
         rdf:about="">
        <dc:format>image/svg+xml</dc:format>
        <dc:type
           rdf:resource="http://purl.org/dc/dcmitype/StillImage" />
        <dc:title>server</dc:title>
      </cc:Work>
    </rdf:RDF>
  </metadata>
  <defs
     id="defs4">
    <style
       id="style2">.cls-1{fill:#fff;}</style>
  </defs>
  <title
     id="title6">server</title>
  <path
     id="path941"
     d="m 3.9902663,53.707918 -0.00605,-2.307369 -1.8921591,-0.0062 -1.89216071,-0.0062 V 44.009628 36.630941 H 2.0979956 3.9960877 V 35.242958 33.854979 H 2.0979956 0.19990308 v -7.3907 -7.3907 H 2.0979956 3.9960877 V 17.697466 16.321354 H 2.0979956 0.19990308 V 8.9306542 1.5399765 H 21.980507 43.76111 v 7.3906777 7.3906998 h -1.898093 -1.89809 v 1.376112 1.376113 h 1.89809 1.898092 v 7.3907 7.3907 h -1.898092 -1.89809 v 1.387979 1.387983 h 1.89809 1.898092 v 7.378687 7.378688 l -1.892161,0.0062 -1.892158,0.0062 -0.0061,2.307369 -0.0061,2.307363 h -0.936947 -0.936949 l -0.0061,-2.307363 -0.0061,-2.307369 H 21.980527 5.8823349 l -0.00605,2.307369 -0.00605,2.307363 H 4.9332993 3.9963523 Z M 41.863013,44.02171 V 38.481656 H 21.980502 2.0979904 v 5.540054 5.540058 H 21.980502 41.863013 Z M 3.9960826,44.009821 v -2.775969 h 0.937181 0.9371834 v 2.775969 2.77595 H 4.9332636 3.9960826 Z m 3.7782881,0.006 0.00603,-2.770033 0.9431145,-0.0063 0.9431149,-0.0063 v 2.776216 2.776229 H 8.71748 7.7683374 Z m 3.7903523,-0.006 v -2.775969 h 0.949046 0.949046 v 2.775969 2.77595 h -0.949046 -0.949046 z m 11.364825,1.850635 v -0.925321 h 0.949046 0.949046 v 0.925321 0.925315 h -0.949046 -0.949046 z m 3.796183,0 v -0.925321 h 0.937182 0.937184 v 0.925321 0.925315 h -0.937184 -0.937182 z m 3.772458,0 v -0.925321 h 0.949046 0.949047 v 0.925321 0.925315 h -0.949047 -0.949046 z m 6.346745,0.910414 c -1.804977,-0.195655 -2.968817,-1.945649 -2.407737,-3.620369 0.467329,-1.394882 1.958364,-2.184547 3.421306,-1.811935 1.071519,0.272917 1.885654,1.145977 2.072764,2.222802 0.0558,0.321105 0.03627,0.808123 -0.04477,1.1168 -0.274242,1.044587 -1.10848,1.821943 -2.198487,2.048551 -0.179524,0.03733 -0.669355,0.06297 -0.843077,0.04417 z m 0.686879,-1.926595 c 0.587113,-0.27474 0.72537,-1.02146 0.272901,-1.473929 -0.373873,-0.373881 -0.960438,-0.37221 -1.343638,0.004 -0.402807,0.395262 -0.345389,1.061566 0.119037,1.381441 0.287171,0.197779 0.6469,0.231292 0.9517,0.08866 z M 22.929548,42.158902 v -0.925587 l 0.943115,0.0063 0.943115,0.0063 0.0063,0.919386 0.0063,0.919396 h -0.949402 -0.949324 z m 3.796183,0 v -0.925321 h 0.937182 0.937184 v 0.925321 0.925315 h -0.937184 -0.937182 z m 3.772458,0 v -0.925321 h 0.949046 0.949047 v 0.925321 0.925315 h -0.949047 -0.949046 z m 7.586628,-6.922102 0.0062,-1.382047 H 21.980692 5.870447 v 1.372165 c 0,0.754682 0.00712,1.379284 0.015836,1.388001 0.00872,0.0087 7.255565,0.01314 16.104124,0.0098 l 16.088287,-0.006 0.0062,-1.382049 z m 3.778196,-8.772759 V 20.923995 H 21.980502 2.0979904 v 5.540046 5.540064 H 21.980502 41.863013 Z m -37.8669304,0 v -2.764097 h 0.937181 0.9371834 v 2.764097 2.764097 H 4.9332636 3.9960826 Z m 3.7724565,0 v -2.764097 h 0.9490457 0.9490469 v 2.764097 2.764097 H 8.7175848 7.7685391 Z m 3.7961839,0 v -2.764097 h 0.949046 0.949046 v 2.764097 2.764097 h -0.949046 -0.949046 z m 11.364825,1.850647 v -0.913461 h 0.949046 0.949046 v 0.913461 0.91345 h -0.949046 -0.949046 z m 3.796183,0 v -0.913461 h 0.937182 0.937184 v 0.913461 0.91345 h -0.937184 -0.937182 z m 3.772458,0 v -0.913461 h 0.949046 0.949047 v 0.913461 0.91345 h -0.949047 -0.949046 z m 6.111786,0.875326 c -0.870073,-0.157106 -1.647688,-0.737154 -2.040669,-1.522168 -0.165774,-0.331147 -0.275,-0.803734 -0.274839,-1.189107 6.23e-4,-1.33365 0.959045,-2.466479 2.313205,-2.733925 0.246004,-0.0486 0.851963,-0.0426 1.098427,0.01094 0.980173,0.212681 1.768376,0.878508 2.093028,1.768078 0.133074,0.364638 0.154106,0.497961 0.152041,0.963972 -0.0017,0.384467 -0.0082,0.450752 -0.06534,0.664333 -0.279797,1.046273 -1.142233,1.829646 -2.244513,2.038745 -0.2448,0.04644 -0.77196,0.04605 -1.03134,-0.0017 z m 0.686222,-1.814602 c 0.199425,-0.03688 0.383676,-0.138403 0.52787,-0.290877 0.575115,-0.608158 0.09702,-1.578308 -0.753537,-1.529066 -0.340289,0.01971 -0.646022,0.222858 -0.796458,0.529254 -0.06305,0.12844 -0.06974,0.164813 -0.06974,0.379318 0,0.207775 0.0079,0.254129 0.06358,0.37293 0.124373,0.265371 0.400801,0.482934 0.683784,0.538208 0.150387,0.02939 0.186732,0.02939 0.344496,0 z M 22.929548,24.625277 v -0.925333 h 0.949046 0.949046 v 0.925333 0.925315 h -0.949046 -0.949046 z m 3.796183,0 v -0.925333 h 0.937182 0.937184 v 0.925333 0.925315 h -0.937184 -0.937182 z m 3.772458,0 v -0.925333 h 0.949046 0.949047 v 0.925333 0.925315 h -0.949047 -0.949046 z m 7.592367,-6.928049 V 16.321116 H 21.980502 5.870447 v 1.376112 1.376118 H 21.980502 38.090556 Z M 41.863013,8.9304163 V 3.3903688 H 21.980502 2.0979904 V 8.9304163 14.47048 H 21.980502 41.863013 Z m -37.8669304,0 V 6.1663196 H 4.9332636 5.870447 V 8.9304163 11.694519 H 4.9332636 3.9960826 Z m 3.7724565,0 V 6.1663196 H 8.7175848 9.6666317 V 8.9304163 11.694519 H 8.7175848 7.7685391 Z m 3.7961839,0 V 6.1663196 h 0.949046 0.949046 V 8.9304163 11.694519 H 12.513769 11.564723 Z M 22.929548,10.769197 V 9.8438825 h 0.949046 0.949046 v 0.9253145 0.925322 h -0.949046 -0.949046 z m 3.796183,0 V 9.8438825 h 0.937182 0.937184 v 0.9253145 0.925322 h -0.937184 -0.937182 z m 3.772458,0 V 9.8438825 h 0.949046 0.949047 v 0.9253145 0.925322 h -0.949047 -0.949046 z m 6.299292,0.908981 C 36.435825,11.631336 36.128982,11.53445 35.78912,11.3599 35.503212,11.213062 35.303718,11.062464 35.063102,10.811818 34.527098,10.253508 34.271346,9.5815862 34.301839,8.8117912 c 0.0486,-1.2270154 0.891056,-2.2443068 2.126135,-2.567383 0.305159,-0.079822 0.859725,-0.1012657 1.179416,-0.045594 0.78242,0.1362459 1.458976,0.5657753 1.888937,1.199217 0.293097,0.4318233 0.441331,0.8823543 0.462134,1.4045849 0.0157,0.3941241 -0.01573,0.6351919 -0.126099,0.9674831 -0.286163,0.8614888 -0.956615,1.5144878 -1.842244,1.7942578 -0.339228,0.107149 -0.860343,0.15689 -1.192637,0.113816 z m 0.606642,-1.8719832 c 0.681579,-0.1993079 0.895604,-1.0478315 0.385886,-1.5298936 -0.472664,-0.4470365 -1.224587,-0.3176328 -1.508778,0.2596511 -0.07121,0.144651 -0.0769,0.1738089 -0.0769,0.3939656 0,0.2106356 0.0074,0.2527355 0.06444,0.3689762 0.210849,0.4293254 0.682032,0.6398648 1.135351,0.5073007 z M 22.929548,7.0797862 V 6.1663196 h 0.949046 0.949046 v 0.9134666 0.9134604 h -0.949046 -0.949046 z m 3.796183,0 V 6.1663196 h 0.937182 0.937184 v 0.9134666 0.9134604 h -0.937184 -0.937182 z m 3.772458,0 V 6.1663196 h 0.949046 0.949047 V 7.0797862 7.9932466 H 31.447235 30.498189 Z M 9.6666317,55.089644 v -0.925316 h 12.3138703 12.31387 v 0.925316 0.92532 H 21.980502 9.6666317 Z"
     style="fill:#ffffff;stroke-width:0.02372615;stroke:none;stroke-opacity:1;fill-opacity:1" />
</svg>
