<?xml version="1.0" encoding="UTF-8" standalone="no"?>
<!-- Created with Inkscape (http://www.inkscape.org/) -->

<svg
   xmlns:dc="http://purl.org/dc/elements/1.1/"
   xmlns:cc="http://creativecommons.org/ns#"
   xmlns:rdf="http://www.w3.org/1999/02/22-rdf-syntax-ns#"
   xmlns:svg="http://www.w3.org/2000/svg"
   xmlns="http://www.w3.org/2000/svg"
   xmlns:sodipodi="http://sodipodi.sourceforge.net/DTD/sodipodi-0.dtd"
   xmlns:inkscape="http://www.inkscape.org/namespaces/inkscape"
   width="18.520971mm"
   height="20.967253mm"
   viewBox="0 0 18.520971 20.967253"
   version="1.1"
   id="svg8"
   inkscape:version="0.92.4 (5da689c313, 2019-01-14)"
   sodipodi:docname="ssd_icon.svg">
  <defs
     id="defs2" />
  <sodipodi:namedview
     id="base"
     pagecolor="#ffffff"
     bordercolor="#666666"
     borderopacity="1.0"
     inkscape:pageopacity="0.0"
     inkscape:pageshadow="2"
     inkscape:zoom="1.979899"
     inkscape:cx="-37.894636"
     inkscape:cy="4.0115363"
     inkscape:document-units="mm"
     inkscape:current-layer="layer1"
     showgrid="false"
     fit-margin-top="0"
     fit-margin-left="0"
     fit-margin-right="0"
     fit-margin-bottom="0"
     inkscape:window-width="1920"
     inkscape:window-height="1017"
     inkscape:window-x="-8"
     inkscape:window-y="-8"
     inkscape:window-maximized="1" />
  <metadata
     id="metadata5">
    <rdf:RDF>
      <cc:Work
         rdf:about="">
        <dc:format>image/svg+xml</dc:format>
        <dc:type
           rdf:resource="http://purl.org/dc/dcmitype/StillImage" />
        <dc:title></dc:title>
      </cc:Work>
    </rdf:RDF>
  </metadata>
  <g
     inkscape:label="Layer 1"
     inkscape:groupmode="layer"
     id="layer1"
     transform="translate(-433.00722,-299.7944)">
    <path
       style="fill:#ffffff;stroke-width:0.00996311"
       d="m 435.04861,320.75865 c -0.32926,-0.0244 -0.66115,-0.12615 -0.94649,-0.29004 -0.59365,-0.34098 -0.9974,-0.943 -1.08051,-1.61116 -0.0147,-0.11855 -0.0159,-0.85035 -0.0133,-8.63801 l 0.003,-8.5085 0.0221,-0.10959 c 0.10511,-0.52017 0.34845,-0.94587 0.72507,-1.26843 0.31739,-0.27184 0.67616,-0.43872 1.11132,-0.51691 0.088,-0.0158 0.57225,-0.0172 7.31749,-0.0204 5.23975,-0.003 7.25471,-4.5e-4 7.33783,0.008 0.50572,0.0488 0.97613,0.26461 1.33368,0.61188 0.38131,0.37034 0.61063,0.84774 0.65837,1.37064 0.0147,0.1607 0.0147,16.82639 0,16.98709 -0.0693,0.7592 -0.53135,1.42715 -1.21961,1.76317 -0.21404,0.1045 -0.399,0.16296 -0.65289,0.20634 -0.0999,0.0171 -0.4285,0.0179 -7.32786,0.0188 -3.97279,5e-4 -7.24343,-5.8e-4 -7.26809,-0.002 z m 14.4839,-0.88505 c 0.16334,-0.0265 0.34046,-0.0913 0.47571,-0.17417 0.30851,-0.18893 0.51382,-0.47129 0.60501,-0.83202 l 0.0227,-0.0897 v -8.50351 -8.50351 l -0.0323,-0.11955 c -0.11011,-0.40735 -0.40355,-0.73636 -0.79568,-0.89213 -0.0423,-0.0168 -0.12218,-0.0427 -0.17743,-0.0574 l -0.10047,-0.0268 -7.21827,-0.003 c -8.0016,-0.003 -7.30595,-0.009 -7.51809,0.0622 -0.46104,0.15427 -0.78461,0.51941 -0.88763,1.00167 -0.0174,0.0814 -0.0181,0.40848 -0.0181,8.54336 0,8.13489 7e-4,8.46192 0.0181,8.54337 0.11814,0.55304 0.53692,0.95747 1.08782,1.05055 0.0664,0.0112 1.27734,0.0136 7.2631,0.0145 6.34207,8.5e-4 7.1942,-7.8e-4 7.27559,-0.014 z m -13.68132,-0.8778 c -0.33133,-0.0598 -0.64863,-0.2614 -0.84505,-0.53687 -0.078,-0.10945 -0.16284,-0.29337 -0.19808,-0.42959 -0.0405,-0.15654 -0.0502,-0.37464 -0.0238,-0.53278 0.11305,-0.6761 0.73587,-1.15784 1.41509,-1.09455 0.32847,0.0306 0.59955,0.15613 0.8273,0.3831 0.51606,0.51428 0.51129,1.34149 -0.0107,1.85434 -0.18451,0.18129 -0.44084,0.31251 -0.69705,0.35685 -0.1123,0.0194 -0.35877,0.0192 -0.46772,-5e-4 z m 0.32526,-0.86182 c 0.0861,-0.0181 0.15775,-0.0575 0.22288,-0.12268 0.17459,-0.17459 0.17459,-0.43464 0,-0.60915 -0.0725,-0.0724 -0.14829,-0.11162 -0.2449,-0.12657 -0.23627,-0.0366 -0.46056,0.12689 -0.49991,0.36434 -0.0488,0.29448 0.22747,0.556 0.52193,0.49406 z m 12.02845,0.86201 c -0.17334,-0.0307 -0.35889,-0.10619 -0.51491,-0.20959 -0.0955,-0.0633 -0.28109,-0.24799 -0.34415,-0.3425 -0.10079,-0.15104 -0.16625,-0.30575 -0.20343,-0.4808 -0.0305,-0.14371 -0.0305,-0.36907 0,-0.51278 0.0543,-0.25552 0.16515,-0.4636 0.34692,-0.65102 0.19863,-0.20482 0.44404,-0.33512 0.7233,-0.38406 0.11948,-0.0209 0.33291,-0.021 0.45192,-1.6e-4 0.54454,0.0955 0.95854,0.49858 1.07579,1.04753 0.0237,0.11106 0.0236,0.37816 -2.3e-4,0.4882 -0.0594,0.27434 -0.17355,0.4843 -0.36846,0.6777 -0.26473,0.26268 -0.56544,0.38479 -0.94184,0.38247 -0.0799,-4.9e-4 -0.18107,-0.007 -0.22491,-0.015 z m 0.38461,-0.88027 c 0.26835,-0.10196 0.37234,-0.4203 0.21383,-0.65459 -0.0912,-0.13475 -0.27113,-0.2128 -0.4285,-0.18585 -0.12387,0.0212 -0.22005,0.0793 -0.2912,0.17583 -0.18637,0.25287 -0.0431,0.61797 0.26841,0.6841 0.0609,0.0129 0.17726,0.003 0.23746,-0.0195 z m -6.76598,-0.84739 v -0.87696 l 0.44086,0.003 0.44087,0.003 v 0.87177 0.87178 l -0.44087,0.003 -0.44086,0.003 z m -2.20185,-0.43837 v -0.43838 h 0.43838 0.43837 v 0.43838 0.43837 h -0.43837 -0.43838 z m 4.40608,0.002 0.003,-0.43589 0.44087,-0.003 0.44087,-0.003 v 0.43848 0.43848 h -0.44346 -0.44347 z m -5.37782,-0.87969 c -0.11403,-0.0112 -0.19558,-0.0342 -0.30008,-0.0846 -0.23461,-0.11317 -0.411,-0.33134 -0.47131,-0.58293 -0.0202,-0.084 -0.0202,-0.0967 -0.0203,-5.00724 l -8e-5,-4.92299 0.0242,-0.0955 c 0.078,-0.30749 0.31527,-0.54524 0.63124,-0.63252 l 0.0967,-0.0267 3.58672,-0.003 c 2.45216,-0.002 3.61786,4.3e-4 3.68518,0.008 0.19703,0.0209 0.37003,0.1 0.51203,0.23397 0.12531,0.11827 0.19559,0.23157 0.24873,0.40099 l 0.0275,0.0876 v 4.95167 4.95166 l -0.0275,0.0876 c -0.10009,0.31912 -0.33544,0.54031 -0.66151,0.62173 -0.0636,0.0159 -0.30855,0.0171 -3.65989,0.0187 -1.97544,9.1e-4 -3.62772,-0.002 -3.67175,-0.006 z m 7.1389,-5.67354 v -4.8072 h -3.52694 -3.52694 v 4.8072 4.80719 h 3.52694 3.52694 z m -5.72878,3.05867 v -0.4334 h 2.20683 2.20682 v 0.4334 0.43339 h -2.20682 -2.20683 z m 0.34871,-1.32109 c -0.12758,-0.0249 -0.24752,-0.12136 -0.30773,-0.24745 l -0.036,-0.0754 v -0.97639 -0.97638 l 0.0223,-0.0548 c 0.0451,-0.11055 0.14109,-0.20656 0.25164,-0.25164 l 0.0548,-0.0224 h 1.87358 1.87358 l 0.075,0.0371 c 0.1359,0.0672 0.22525,0.1851 0.24746,0.32661 0.0134,0.0854 0.0138,1.79586 4.9e-4,1.87804 -0.029,0.17831 -0.16954,0.32522 -0.34684,0.36252 -0.0647,0.0136 -3.63865,0.0138 -3.70828,1.6e-4 z m 3.17823,-1.30423 v -0.43841 l -1.32261,0.003 -1.3226,0.003 -0.003,0.43588 -0.003,0.43589 h 1.3252 1.3252 z m -7.9406,3.93547 v -0.43838 h 0.88174 0.88173 v 0.43838 0.43837 h -0.88173 -0.88174 z m 11.46754,0 v -0.43838 h 0.88173 0.88174 v 0.43838 0.43837 h -0.88174 -0.88173 z m -10.58082,-2.18192 v -0.43838 h 0.43837 0.43838 v 0.43838 0.43837 h -0.43838 -0.43837 z m 10.58756,0.43183 c -0.004,-0.004 -0.007,-0.20102 -0.007,-0.43848 v -0.43173 h 0.44346 0.44346 l -0.003,0.43589 -0.003,0.43588 -0.43412,0.003 c -0.23877,0.001 -0.43716,-4.4e-4 -0.44087,-0.004 z m -11.47428,-2.61873 v -0.4334 h 0.88174 0.88173 v 0.4334 0.43339 h -0.88173 -0.88174 z m 11.46754,0 v -0.4334 h 0.88173 0.88174 v 0.4334 0.43339 h -0.88174 -0.88173 z m -10.58082,-2.18691 v -0.43837 h 0.43837 0.43838 v 0.43837 0.43838 h -0.43838 -0.43837 z m 10.58082,0 v -0.43837 h 0.44335 0.44336 v 0.43837 0.43838 h -0.44336 -0.44335 z M 435.6464,305.9099 v -0.43837 h 0.88174 0.88173 v 0.43837 0.43838 h -0.88173 -0.88174 z m 11.46754,0 v -0.43837 h 0.88173 0.88174 v 0.43837 0.43838 h -0.88174 -0.88173 z m -11.25831,-1.76921 c -0.50882,-0.0922 -0.91933,-0.47111 -1.04757,-0.96683 -0.0405,-0.15654 -0.0502,-0.37464 -0.0238,-0.53278 0.0923,-0.55206 0.51414,-0.9757 1.07635,-1.08095 0.12737,-0.0238 0.34791,-0.022 0.47898,0.004 0.41178,0.0818 0.75272,0.34127 0.93847,0.71414 0.0843,0.16918 0.12121,0.32095 0.12849,0.52805 0.008,0.23849 -0.0357,0.43747 -0.14308,0.64532 -0.18571,0.35956 -0.55091,0.62466 -0.94954,0.68926 -0.11585,0.0188 -0.354,0.0186 -0.4583,-2.7e-4 z m 0.32082,-0.86219 c 0.0861,-0.0181 0.15775,-0.0576 0.22288,-0.12268 0.16926,-0.16926 0.17465,-0.42108 0.0128,-0.59815 -0.13828,-0.1513 -0.35658,-0.18703 -0.53833,-0.0881 -0.0648,0.0353 -0.1529,0.12972 -0.18368,0.19696 -0.0781,0.17059 -0.0447,0.35531 0.088,0.48739 0.11236,0.11177 0.25183,0.1554 0.39828,0.1246 z m 3.44523,0.4445 v -0.43339 h 0.43838 0.43837 v 0.43339 0.4334 h -0.43837 -0.43838 z m 2.20185,-0.43848 v -0.87187 l 0.44086,0.003 0.44087,0.003 0.003,0.86929 0.003,0.86928 h -0.44341 -0.44341 z m 2.20184,0.43848 v -0.43339 h 0.44336 0.44336 v 0.43339 0.4334 h -0.44336 -0.44336 z m 4.18949,0.4187 c -0.29554,-0.0547 -0.52934,-0.17922 -0.73312,-0.39062 -0.17477,-0.18129 -0.28594,-0.39211 -0.33933,-0.64346 -0.0305,-0.14371 -0.0305,-0.36907 0,-0.51278 0.0543,-0.25552 0.16515,-0.4636 0.34692,-0.65103 0.19853,-0.2047 0.4431,-0.33461 0.7233,-0.38422 0.11985,-0.0212 0.33255,-0.0213 0.45192,-1.5e-4 0.54619,0.0967 0.95842,0.49818 1.07579,1.04769 0.0265,0.12411 0.0237,0.37887 -0.006,0.50791 -0.0609,0.26856 -0.17018,0.46652 -0.36314,0.65799 -0.26474,0.26268 -0.56546,0.3848 -0.94185,0.38247 -0.0799,-5e-4 -0.17658,-0.007 -0.21494,-0.0138 z m 0.37531,-0.88171 c 0.22088,-0.0839 0.33664,-0.31743 0.26756,-0.53972 -0.0632,-0.20336 -0.27617,-0.33588 -0.48288,-0.30047 -0.12388,0.0212 -0.22006,0.0793 -0.29121,0.17583 -0.18611,0.25252 -0.0427,0.61806 0.26841,0.6841 0.0612,0.013 0.17735,0.003 0.23812,-0.0197 z"
       id="path826"
       inkscape:connector-curvature="0" />
  </g>
</svg>
