<?xml version="1.0" encoding="UTF-8" standalone="no"?>
<svg
   xmlns:dc="http://purl.org/dc/elements/1.1/"
   xmlns:cc="http://creativecommons.org/ns#"
   xmlns:rdf="http://www.w3.org/1999/02/22-rdf-syntax-ns#"
   xmlns:svg="http://www.w3.org/2000/svg"
   xmlns="http://www.w3.org/2000/svg"
   height="32.961502"
   width="50.006298"
   id="svg32"
   version="1.1"
   viewBox="0 0 50.006298 32.961502">
  <metadata
     id="metadata36">
    <rdf:RDF>
      <cc:Work
         rdf:about="">
        <dc:format>image/svg+xml</dc:format>
        <dc:type
           rdf:resource="http://purl.org/dc/dcmitype/StillImage" />
        <dc:title>ssl</dc:title>
      </cc:Work>
    </rdf:RDF>
  </metadata>
  <defs
     id="defs4">
    <style
       id="style2">.cls-1{fill:none;stroke:#fff;stroke-miterlimit:10;stroke-width:2px;}.cls-2{fill:#fff;}</style>
  </defs>
  <title
     id="title6">ssl</title>
  <g
     transform="translate(-1.5109682,-0.48090952)"
     style="display:inline"
     id="layer1">
    <path
       id="path874"
       d="m 4.9456682,33.423393 c -1.4861,-0.191383 -2.7308,-1.20558 -3.2152,-2.619761 -0.1905,-0.55594 -0.196,-0.614359 -0.2085,-2.196238 l -0.011,-1.42739 h 1.9587 1.9586 V 14.875171 c 0,-11.1097512 0,-12.3249012 0.042,-12.5114482 0.1952,-0.9520223 0.981,-1.70255428 1.9413,-1.85405828 0.2429,-0.03834 37.9546998,-0.03834 38.1976998,0 0.4989,0.07872 0.961,0.319676 1.317,0.68678798 0.2894,0.298441 0.4654,0.5974773 0.5927,1.0072603 l 0.061,0.194648 0.01,12.3908222 0.01,12.390821 h 1.9586 1.9587 l -0.011,1.440793 c -0.011,1.351137 -0.015,1.456257 -0.068,1.68929 -0.1842,0.802285 -0.5302,1.442257 -1.076,1.990193 -0.5431,0.545196 -1.1824,0.893307 -1.9794,1.07782 l -0.26,0.06019 -21.4979,0.0038 C 14.801068,33.44419 5.0485682,33.43579 4.9527682,33.42342 Z M 48.073668,31.83116 c 0.2626,-0.05524 0.573,-0.179915 0.7793,-0.313034 0.2393,-0.154426 0.6094,-0.532375 0.7454,-0.761152 0.2626,-0.442161 0.3312,-0.731494 0.3474,-1.466041 l 0.012,-0.556213 h -8.4285 -8.4286 l -0.7879,0.790761 -0.7879,0.790761 h -5.0153 -5.0152 l -0.7856,-0.790761 -0.7856,-0.790761 h -8.4271 -8.4270998 v 0.422888 c 0,0.507366 0.033,0.793758 0.124,1.08701 0.2452,0.786893 0.9247,1.406704 1.7382,1.585454 0.1333,0.02929 3.9055,0.03598 21.5572998,0.0382 18.8244,0.0024 21.4184,-0.0021 21.5849,-0.03711 z m -16.4164,-3.873798 0.777,-0.777358 h 6.8021 6.8022 l -0.01,-12.272092 -0.01,-12.2720952 -0.081,-0.158171 c -0.09,-0.175423 -0.2707,-0.333111 -0.4408,-0.384074 -0.145,-0.04346 -37.8402998,-0.04346 -37.9853998,0 -0.1701,0.05096 -0.351,0.208651 -0.4407,0.384074 l -0.081,0.158171 -0.01,12.2720952 -0.01,12.272092 h 6.8020998 6.8022 l 0.777,0.777358 0.777,0.777358 h 4.3696 4.3697 z M 9.3148682,22.073624 v -2.747618 h 0.7907998 0.7908 v 1.956729 1.956728 l 5.0729,0.0068 5.0729,0.0068 v 0.777358 0.777358 l -5.8637,0.0068 -5.8636998,0.0068 z m 13.2954998,1.956739 v -0.790761 h 0.7774 0.7774 v 0.790761 0.790761 h -0.7774 -0.7774 z m 3.1158,0.0067 0.01,-0.78406 h 0.7773 0.7774 l 0.01,0.78406 0.01,0.784059 h -0.7916 -0.7915 z m 3.1299,-0.0067 v -0.790761 h 0.7774 0.7773 v 0.790761 0.790761 h -0.7773 -0.7774 z m 3.1216,0.756892 c -0.01,-0.01863 -0.01,-0.371454 -0.01,-0.784059 l 0.01,-0.750191 5.0729,-0.0068 5.0729,-0.0068 v -1.956728 -1.956729 h 0.7908 0.7907 v 2.747559 2.747559 h -5.8578 c -4.6949,0 -5.8604,-0.0067 -5.8708,-0.03387 z m -11.8334,-7.098119 c -0.3673,-0.02257 -0.7928,-0.100555 -1.0881,-0.199456 -0.2186,-0.07321 -0.7355,-0.295849 -0.7968,-0.343188 -0.036,-0.02791 -0.014,-0.08915 0.1714,-0.485519 0.117,-0.249468 0.218,-0.45888 0.2245,-0.465353 0.01,-0.0065 0.1481,0.04337 0.3148,0.110768 0.5832,0.235818 1.0118,0.317856 1.6835,0.322244 0.3866,0.0025 0.4662,-0.0046 0.6316,-0.05638 0.2298,-0.07196 0.3951,-0.186761 0.4635,-0.321812 0.1222,-0.241541 0.1066,-0.461664 -0.045,-0.630229 -0.158,-0.175891 -0.4443,-0.291898 -1.2023,-0.487246 -0.6855,-0.176639 -1.0487,-0.293062 -1.2819,-0.410843 -0.6242,-0.315203 -0.9242,-0.774296 -0.924,-1.41394 3e-4,-0.496323 0.1516,-0.867893 0.4926,-1.208603 0.2406,-0.240506 0.4528,-0.371933 0.7734,-0.479105 0.7694,-0.257254 1.9798,-0.160408 3.0329,0.242674 l 0.2545,0.09742 -0.1895,0.378949 c -0.1042,0.208421 -0.2181,0.428165 -0.2532,0.488319 l -0.064,0.109371 -0.3445,-0.115103 c -0.5581,-0.186414 -0.9627,-0.260152 -1.4383,-0.26213 -0.3629,-0.0015 -0.4177,0.0045 -0.5629,0.06217 -0.4452,0.17674 -0.5937,0.609187 -0.3151,0.91759 0.173,0.191485 0.4227,0.290555 1.2399,0.491817 0.6151,0.151491 0.8577,0.229804 1.1671,0.376706 0.5305,0.251914 0.8181,0.56481 0.9363,1.018763 0.053,0.202173 0.053,0.64361 -3e-4,0.867607 -0.1878,0.796942 -0.8992,1.300616 -1.9708,1.395467 -0.3351,0.02965 -0.4126,0.02957 -0.9097,-9.65e-4 z m 5.9777,0 c -0.5778,-0.03549 -1.1139,-0.176119 -1.6802,-0.44078 l -0.2496,-0.11662 0.1473,-0.313525 c 0.081,-0.172439 0.1791,-0.384382 0.218,-0.470985 0.039,-0.0866 0.079,-0.157458 0.09,-0.157458 0.01,0 0.1325,0.04746 0.2713,0.105461 0.5677,0.237212 1.0271,0.327152 1.6995,0.33272 0.4021,0.0033 0.4779,-0.0032 0.6449,-0.05559 0.3264,-0.102405 0.5037,-0.275308 0.5379,-0.524502 0.024,-0.176098 -0.01,-0.301403 -0.1041,-0.411347 -0.1785,-0.203268 -0.4119,-0.301389 -1.1679,-0.491033 -0.9045,-0.226861 -1.2463,-0.351489 -1.5889,-0.579271 -0.5442,-0.361746 -0.767,-0.946593 -0.6253,-1.641127 0.1431,-0.701065 0.7093,-1.212607 1.5394,-1.390762 0.3402,-0.07301 1.1013,-0.06562 1.563,0.01516 0.404,0.07067 0.805,0.17962 1.1567,0.314233 l 0.253,0.09683 -0.2429,0.486182 c -0.1336,0.2674 -0.2446,0.488157 -0.2466,0.490572 0,0.0024 -0.1617,-0.04841 -0.3548,-0.112954 -0.5679,-0.189768 -0.9681,-0.262884 -1.4449,-0.263948 -0.3597,-8.01e-4 -0.4186,0.0057 -0.5597,0.06172 -0.2947,0.117068 -0.4493,0.315889 -0.4493,0.57786 0,0.169692 0.046,0.270498 0.1777,0.385737 0.1966,0.172595 0.4138,0.25299 1.2334,0.45643 0.8188,0.203237 1.1892,0.348719 1.533,0.60217 0.3999,0.294731 0.5803,0.678005 0.5771,1.226116 0,0.489061 -0.1644,0.88788 -0.4876,1.203922 -0.3687,0.360587 -0.8378,0.552069 -1.5059,0.614646 -0.3313,0.03104 -0.4309,0.03106 -0.9341,2.68e-4 z m 4.3424,-3.094292 v -3.042419 h 0.6166 0.6165 v 2.519712 2.519713 h 1.5547 1.5547 v 0.522706 0.522707 h -2.1712 -2.1713 z M 9.3214682,7.1496278 l 0.01,-2.740858 h 17.1822998 17.1823 l 0.01,2.740858 0.01,2.740859 h -0.7909 -0.7909 v -1.956798 -1.9568 h -15.6142 -15.6141 v 1.9568 1.956798 h -0.7909 -0.7908998 z"
       style="fill:#ffffff;stroke-width:0.02680545;fill-opacity:1;stroke:none" />
  </g>
  <g
     transform="translate(-1.5109682,-0.48090952)"
     style="display:inline"
     id="layer3" />
</svg>
