<svg xmlns="http://www.w3.org/2000/svg" viewBox="0 0 64 42"><defs><style>.cls-1{fill:none;stroke:#ff8138;stroke-miterlimit:10;stroke-width:2px;}.cls-2{fill:#ff8138;}</style></defs><title>1</title><g id="Слой_2" data-name="Слой 2"><g id="Layer_1" data-name="Layer 1"><path class="cls-1" d="M58,35V3a2,2,0,0,0-2-2H8A2,2,0,0,0,6,3V35"/><path class="cls-1" d="M40,35l-2,2H26l-2-2H1v2a4,4,0,0,0,4,4H59a4,4,0,0,0,4-4V35Z"/><polyline class="cls-1" points="11 12 11 6 53 6 53 12"/><line class="cls-1" x1="35" y1="30" x2="37" y2="30"/><line class="cls-1" x1="31" y1="30" x2="33" y2="30"/><line class="cls-1" x1="27" y1="30" x2="29" y2="30"/><polyline class="cls-1" points="25 30 11 30 11 24"/><polyline class="cls-1" points="53 24 53 30 39 30"/><path class="cls-2" d="M27.61,19.57c0,1.49-1.2,2.37-3,2.37a6,6,0,0,1-3.22-.73L22,20a5.46,5.46,0,0,0,2.71.6c.84,0,1.35-.31,1.35-.88s-.52-.76-1.65-1c-1.59-.37-2.88-.82-2.88-2.35C21.48,15,22.57,14,24.34,14a7.52,7.52,0,0,1,3,.63l-.64,1.25a7,7,0,0,0-2.36-.52c-.8,0-1.24.36-1.24.84s.55.78,1.72,1.05C26.46,17.62,27.61,18.15,27.61,19.57Z"/><path class="cls-2" d="M35.26,19.57c0,1.49-1.2,2.37-3,2.37A6,6,0,0,1,29,21.21L29.61,20a5.45,5.45,0,0,0,2.7.6c.85,0,1.36-.31,1.36-.88s-.52-.76-1.65-1c-1.6-.37-2.89-.82-2.89-2.35C29.13,15,30.22,14,32,14a7.57,7.57,0,0,1,3,.63l-.64,1.25A7,7,0,0,0,32,15.36c-.79,0-1.23.36-1.23.84s.55.78,1.72,1.05C34.12,17.62,35.26,18.15,35.26,19.57Z"/><path class="cls-2" d="M42.62,20.52v1.32H37.05V14.09h1.58v6.43Z"/></g></g></svg>