<svg xmlns="http://www.w3.org/2000/svg" viewBox="0 0 64 64"><defs><style>.cls-1{fill:none;stroke:#ff8138;stroke-miterlimit:10;stroke-width:2px;}</style></defs><title>2</title><g id="Слой_2" data-name="Слой 2"><g id="Layer_1" data-name="Layer 1"><line class="cls-1" x1="23" y1="33" x2="25" y2="33"/><line class="cls-1" x1="27" y1="33" x2="29" y2="33"/><line class="cls-1" x1="31" y1="33" x2="33" y2="33"/><line class="cls-1" x1="23" y1="37" x2="25" y2="37"/><line class="cls-1" x1="27" y1="37" x2="29" y2="37"/><line class="cls-1" x1="31" y1="37" x2="33" y2="37"/><line class="cls-1" x1="23" y1="41" x2="25" y2="41"/><line class="cls-1" x1="27" y1="41" x2="37" y2="41"/><line class="cls-1" x1="35" y1="33" x2="37" y2="33"/><line class="cls-1" x1="23" y1="29" x2="25" y2="29"/><line class="cls-1" x1="27" y1="29" x2="29" y2="29"/><line class="cls-1" x1="31" y1="29" x2="33" y2="29"/><line class="cls-1" x1="35" y1="29" x2="37" y2="29"/><line class="cls-1" x1="35" y1="37" x2="37" y2="37"/><line class="cls-1" x1="39" y1="33" x2="41" y2="33"/><line class="cls-1" x1="39" y1="29" x2="41" y2="29"/><line class="cls-1" x1="39" y1="37" x2="41" y2="37"/><line class="cls-1" x1="39" y1="41" x2="41" y2="41"/><path class="cls-1" d="M43,60H40a2,2,0,0,1-2-2V53"/><circle class="cls-1" cx="46" cy="60" r="3"/><circle class="cls-1" cx="57" cy="60" r="3"/><line class="cls-1" x1="64" y1="60" x2="60" y2="60"/><line class="cls-1" x1="54" y1="60" x2="49" y2="60"/><path class="cls-1" d="M21,60h3a2,2,0,0,0,2-2V53"/><circle class="cls-1" cx="18" cy="60" r="3"/><circle class="cls-1" cx="7" cy="60" r="3"/><line class="cls-1" x1="10" y1="60" x2="15" y2="60"/><line class="cls-1" x1="4" y1="60" y2="60"/><path class="cls-1" d="M45,20V14a13,13,0,0,0-26,0v6"/><path class="cls-1" d="M23,17V14a9,9,0,0,1,18,0v3"/><polyline class="cls-1" points="14 21 18 25 18 45 14 49"/><polyline class="cls-1" points="50 21 46 25 46 45 50 49"/><path class="cls-1" d="M48,20H16a2,2,0,0,0-2,2V48a2,2,0,0,0,2,2H29a3,3,0,0,1,6,0H48a2,2,0,0,0,2-2V22A2,2,0,0,0,48,20Z"/></g></g></svg>