<svg xmlns="http://www.w3.org/2000/svg" viewBox="0 0 112.92 98.2"><defs><style>.cls-1{fill:#ff8138;}</style></defs><title>3</title><g id="Слой_2" data-name="Слой 2"><g id="Layer_1" data-name="Layer 1"><path class="cls-1" d="M103.72,51h-22a9.21,9.21,0,1,1,0-18.41h22a9.21,9.21,0,0,1,0,18.41Zm-22-14.53a5.32,5.32,0,0,0,0,10.64h22a5.32,5.32,0,0,0,0-10.64Z"/><path class="cls-1" d="M99.61,65.56H81.75a9.21,9.21,0,0,1,0-18.41H99.61a9.21,9.21,0,0,1,0,18.41ZM81.75,51a5.32,5.32,0,1,0,0,10.63H99.61a5.32,5.32,0,0,0,0-10.63Z"/><path class="cls-1" d="M95.58,80.08H81.75a9.21,9.21,0,0,1,0-18.41H95.58a9.21,9.21,0,1,1,0,18.41ZM81.75,65.56a5.32,5.32,0,0,0,0,10.64H95.58a5.32,5.32,0,0,0,0-10.64Z"/><path class="cls-1" d="M91.56,94.61H81.75a9.21,9.21,0,1,1,0-18.41h9.81a9.21,9.21,0,0,1,0,18.41ZM81.75,80.08a5.32,5.32,0,0,0,0,10.64h9.81a5.32,5.32,0,0,0,0-10.64Z"/><rect class="cls-1" x="29.25" y="90.71" width="52.5" height="3.89"/><path class="cls-1" d="M81.75,36.51H67.92a2,2,0,0,1-1.67-.93,1.94,1.94,0,0,1,0-1.91,44.37,44.37,0,0,0,3.72-9.75,42.67,42.67,0,0,0,1.24-10.19V9.2a5.32,5.32,0,0,0-10.64,0,25.64,25.64,0,0,1-2.26,10.55,29,29,0,0,1-6.38,9.46,25.21,25.21,0,0,1-8.18,5.41,25.36,25.36,0,0,1-9.61,1.89H29.25V32.63h4.84A21.2,21.2,0,0,0,42.22,31a21.44,21.44,0,0,0,6.93-4.57,25,25,0,0,0,5.52-8.21,21.76,21.76,0,0,0,2-9,9.07,9.07,0,0,1,2.71-6.5,9.17,9.17,0,0,1,13,0A9.1,9.1,0,0,1,75,9.2v4.53a46.36,46.36,0,0,1-1.35,11.12A47.15,47.15,0,0,1,71,32.63H81.75Z"/><path class="cls-1" d="M40,72.82H36.06V68.94H40A19.87,19.87,0,0,0,59.85,49.09h3.89A23.76,23.76,0,0,1,40,72.82Z"/><path class="cls-1" d="M29.25,98.2H0V94.31H27.31V32.91H0V29H29.25A2,2,0,0,1,31.2,31V96.25A2,2,0,0,1,29.25,98.2Z"/><rect class="cls-1" x="18.89" y="85.05" width="3.89" height="3.89"/><rect class="cls-1" x="11.12" y="85.05" width="3.89" height="3.89"/></g></g></svg>