<?xml version="1.0" encoding="UTF-8" standalone="no"?>
<svg
   xmlns:dc="http://purl.org/dc/elements/1.1/"
   xmlns:cc="http://creativecommons.org/ns#"
   xmlns:rdf="http://www.w3.org/1999/02/22-rdf-syntax-ns#"
   xmlns:svg="http://www.w3.org/2000/svg"
   xmlns="http://www.w3.org/2000/svg"
   id="svg8"
   version="1.1"
   viewBox="0 0 13.493876 13.492385"
   height="13.492386mm"
   width="13.493875mm">
  <defs
     id="defs2" />
  <metadata
     id="metadata5">
    <rdf:RDF>
      <cc:Work
         rdf:about="">
        <dc:format>image/svg+xml</dc:format>
        <dc:type
           rdf:resource="http://purl.org/dc/dcmitype/StillImage" />
        <dc:title></dc:title>
      </cc:Work>
    </rdf:RDF>
  </metadata>
  <g
     transform="translate(781.6412,-208.91569)"
     id="layer1">
    <path
       id="path865"
       d="m -775.37893,222.40352 c -0.0277,-0.007 -0.19355,-0.0752 -0.34415,-0.14136 -0.13943,-0.0613 -0.45183,-0.21675 -0.60895,-0.30303 -0.81112,-0.44544 -1.63108,-1.04668 -2.38868,-1.75152 -0.1555,-0.14468 -0.51063,-0.49842 -0.66309,-0.6605 -0.83845,-0.89137 -1.51763,-1.84467 -1.97555,-2.7729 -0.13065,-0.26484 -0.26175,-0.5665 -0.2769,-0.63714 -0.0155,-0.0721 0.006,-0.16019 0.0556,-0.22482 0.0474,-0.0622 -0.0534,-0.0266 2.38511,-0.84231 1.25994,-0.42149 2.29196,-0.76727 2.29336,-0.7684 0.001,-10e-4 -0.0477,-0.0781 -0.10916,-0.17108 -0.0614,-0.093 -0.12247,-0.18615 -0.13561,-0.20708 -0.0131,-0.0209 -0.0267,-0.0381 -0.0301,-0.0381 -0.003,0 -0.49484,0.16713 -1.09209,0.37141 l -1.08591,0.37141 -0.0616,1.2e-4 c -0.0519,1e-4 -0.0682,-0.003 -0.1032,-0.0194 -0.0573,-0.0269 -0.0869,-0.051 -0.11686,-0.0951 -0.0902,-0.13303 -0.0435,-0.32301 0.0966,-0.39239 0.0181,-0.009 0.49495,-0.1739 1.0597,-0.36655 l 1.02684,-0.35027 -0.0396,-0.0732 c -0.0658,-0.12166 -0.22047,-0.43572 -0.27343,-0.55526 -0.26182,-0.59105 -0.41682,-1.1254 -0.47259,-1.62924 -0.0158,-0.14276 -0.0213,-0.41808 -0.011,-0.54921 0.0535,-0.6806 0.34611,-1.17338 0.86463,-1.45602 0.18919,-0.10313 0.43839,-0.17814 0.7056,-0.21239 0.14032,-0.018 0.48301,-0.018 0.63795,2e-5 0.45151,0.0525 0.87325,0.16289 1.35201,0.35407 0.25602,0.10223 0.58196,0.25491 0.82216,0.38513 l 0.11535,0.0625 0.0478,-0.0352 c 0.44131,-0.32556 0.98915,-0.54759 1.53752,-0.62314 0.18159,-0.025 0.29495,-0.0324 0.48933,-0.032 0.29406,6.6e-4 0.55086,0.0321 0.82612,0.10114 0.25502,0.064 0.43528,0.13104 0.68901,0.25636 0.3455,0.17065 0.61609,0.3651 0.892,0.64101 0.27165,0.27164 0.46684,0.54192 0.63637,0.88113 0.12251,0.24514 0.19712,0.4452 0.261,0.69988 0.0691,0.27526 0.10049,0.53207 0.10114,0.82612 4.3e-4,0.19439 -0.007,0.30774 -0.032,0.48934 -0.0756,0.54837 -0.29759,1.09621 -0.62314,1.53752 l -0.0352,0.0478 0.0625,0.11534 c 0.13022,0.2402 0.28291,0.56615 0.38514,0.82216 0.19118,0.47877 0.30162,0.9005 0.35407,1.35202 0.018,0.15494 0.018,0.49762 0,0.63794 -0.0532,0.41507 -0.19406,0.75049 -0.42315,1.00767 -0.29855,0.33517 -0.70855,0.52039 -1.24527,0.56256 -0.13113,0.0103 -0.40644,0.005 -0.54921,-0.011 -0.50384,-0.0558 -1.03819,-0.21076 -1.62924,-0.47259 -0.11953,-0.053 -0.43359,-0.2076 -0.55526,-0.27342 l -0.0732,-0.0396 -0.35027,1.02683 c -0.19264,0.56476 -0.35759,1.04162 -0.36655,1.0597 -0.024,0.0483 -0.0705,0.0924 -0.12522,0.11825 -0.0438,0.0208 -0.0546,0.0228 -0.11714,0.0226 -0.0607,-2.2e-4 -0.0739,-0.003 -0.11191,-0.0211 -0.0567,-0.0275 -0.10137,-0.0733 -0.12968,-0.13304 -0.0203,-0.0428 -0.023,-0.0559 -0.0229,-0.11019 l 1.4e-4,-0.0616 0.37141,-1.08592 c 0.2043,-0.59725 0.37143,-1.08869 0.37143,-1.09209 0,-0.003 -0.0171,-0.0169 -0.0381,-0.0301 -0.0209,-0.0131 -0.11412,-0.0742 -0.20708,-0.1356 -0.093,-0.0615 -0.16995,-0.11057 -0.17108,-0.10917 -0.001,10e-4 -0.34691,1.03342 -0.7684,2.29337 -0.81576,2.43854 -0.78014,2.33769 -0.84231,2.38511 -0.0463,0.0353 -0.10332,0.0565 -0.15837,0.0588 -0.0281,0.001 -0.0627,-7.8e-4 -0.0767,-0.004 z m 0.6428,-2.84959 c 0.40784,-1.21785 0.74164,-2.21616 0.74178,-2.21848 1.4e-4,-0.002 -0.0629,-0.0537 -0.14001,-0.11417 -0.83442,-0.65418 -1.66433,-1.48409 -2.31851,-2.31852 -0.0605,-0.0771 -0.11109,-0.14026 -0.11246,-0.14026 -0.004,0 -3.18732,1.06577 -3.18934,1.06779 -10e-4,0.001 0.0218,0.0442 0.0506,0.0959 0.50808,0.91078 1.1825,1.78033 2.03555,2.62445 0.41188,0.40759 0.74751,0.70113 1.24084,1.08526 0.0734,0.0572 0.10805,0.10475 0.12521,0.17206 0.0312,0.12252 -0.0306,0.25214 -0.14764,0.30961 -0.037,0.0182 -0.0492,0.0204 -0.11394,0.0204 -0.0898,0 -0.10808,-0.008 -0.21755,-0.0908 -0.13081,-0.0994 -0.39167,-0.31107 -0.54004,-0.43825 -1.18606,-1.01671 -2.19915,-2.23129 -2.86618,-3.43622 -0.0463,-0.0836 -0.0854,-0.15541 -0.0868,-0.15949 -10e-4,-0.004 -0.16088,0.0453 -0.36433,0.11298 -0.32435,0.10794 -0.3616,0.1219 -0.3602,0.13501 0.005,0.0435 0.22534,0.47946 0.37529,0.74139 1.09583,1.91414 3.10004,3.80906 4.95924,4.68882 0.16915,0.08 0.17076,0.0807 0.18018,0.0785 0.004,-9e-4 0.34041,-0.99806 0.74824,-2.2159 z m -1.15923,1.09445 c -0.12863,-0.0303 -0.21553,-0.15018 -0.2067,-0.28514 0.006,-0.0985 0.0635,-0.18012 0.15642,-0.22391 0.0428,-0.0201 0.056,-0.0229 0.1102,-0.0227 0.0839,2.1e-4 0.13433,0.0203 0.18875,0.075 0.0868,0.0874 0.1073,0.20738 0.0536,0.31345 -0.0563,0.11109 -0.18327,0.17128 -0.30222,0.14326 z m 6.16754,-2.18452 c 0.3032,-0.0498 0.52033,-0.151 0.6928,-0.32291 0.18322,-0.18263 0.28778,-0.41636 0.33414,-0.74692 0.0145,-0.10322 0.0125,-0.43351 -0.003,-0.56183 -0.0513,-0.41537 -0.17474,-0.84859 -0.37528,-1.31727 -0.0681,-0.1591 -0.17873,-0.3946 -0.23549,-0.5012 l -0.0341,-0.0641 -0.34882,0.34778 c -0.40567,0.40445 -0.37569,0.38232 -0.51557,0.38044 -0.0983,-0.001 -0.30722,-0.0247 -0.47121,-0.0527 -0.68718,-0.11736 -1.37895,-0.41185 -1.98996,-0.84714 -0.39335,-0.28022 -0.76015,-0.62757 -1.06516,-1.00868 -0.32829,-0.4102 -0.58663,-0.85495 -0.77269,-1.33027 -0.19065,-0.48704 -0.30178,-1.02822 -0.30368,-1.47888 -6.5e-4,-0.15331 0,-0.16103 0.0168,-0.19936 0.015,-0.0342 0.0598,-0.0824 0.31784,-0.34152 l 0.30041,-0.30165 -0.0677,-0.036 c -0.11262,-0.0598 -0.33425,-0.16403 -0.49546,-0.23291 -0.47307,-0.20215 -0.90274,-0.32463 -1.31939,-0.37611 -0.12832,-0.0159 -0.45861,-0.0178 -0.56183,-0.003 -0.33127,0.0465 -0.56187,0.14968 -0.74711,0.33441 -0.17574,0.17526 -0.28022,0.40579 -0.32701,0.72153 -0.0131,0.0882 -0.0131,0.47994 -8e-5,0.58358 0.0362,0.28746 0.0972,0.54899 0.20031,0.85905 0.47778,1.43604 1.68307,3.09441 3.2175,4.427 1.158,1.00567 2.4088,1.72305 3.45955,1.98418 0.16647,0.0414 0.38043,0.0791 0.53646,0.0947 0.10596,0.0106 0.47325,0.004 0.5582,-0.01 z m -0.27547,-0.85289 c -0.28758,-0.0227 -0.54496,-0.1978 -0.67597,-0.45979 -0.029,-0.0581 -0.0567,-0.14257 -0.0707,-0.21566 -0.0132,-0.0689 -0.0153,-0.21187 -0.004,-0.28093 0.0448,-0.27837 0.23346,-0.52298 0.48703,-0.63143 0.3181,-0.13604 0.67798,-0.0678 0.92021,0.17439 0.30605,0.30605 0.32618,0.79311 0.0465,1.12546 -0.13038,0.15494 -0.35368,0.27213 -0.54345,0.28519 -0.0319,0.002 -0.0661,0.005 -0.0761,0.006 -0.01,10e-4 -0.0475,-3.6e-4 -0.0834,-0.003 z m 0.13643,-0.54675 c 0.0913,-0.0238 0.15059,-0.0715 0.19144,-0.15418 0.0255,-0.0517 0.0274,-0.0597 0.0274,-0.12095 0,-0.0781 -0.0134,-0.12218 -0.0528,-0.1742 -0.0615,-0.0812 -0.13306,-0.11621 -0.23722,-0.11607 -0.0581,8e-5 -0.0706,0.003 -0.11411,0.0232 -0.18388,0.0868 -0.22705,0.3236 -0.0849,0.46575 0.0727,0.0727 0.17429,0.10148 0.2702,0.0765 z m -3.0507,-0.20954 c -0.2626,-0.0505 -0.47856,-0.21062 -0.59795,-0.44343 -0.035,-0.0683 -0.0601,-0.14434 -0.0766,-0.23241 -0.0178,-0.0949 -0.0116,-0.25701 0.0136,-0.35269 0.0369,-0.14004 0.11244,-0.27176 0.21513,-0.37489 0.32929,-0.33075 0.8613,-0.32807 1.1833,0.006 0.069,0.0716 0.10699,0.12466 0.14875,0.20784 0.0757,0.15083 0.10336,0.32349 0.0784,0.48936 -0.0515,0.34167 -0.29164,0.60469 -0.62942,0.68942 -0.0771,0.0193 -0.26016,0.0253 -0.33516,0.0109 z m 0.26653,-0.5581 c 0.0578,-0.0278 0.10964,-0.0805 0.13792,-0.1402 0.0214,-0.0451 0.0233,-0.055 0.0233,-0.12177 0,-0.0675 -0.002,-0.0761 -0.0239,-0.1212 -0.0304,-0.0618 -0.0793,-0.11065 -0.13919,-0.13903 -0.0434,-0.0205 -0.0533,-0.0223 -0.12326,-0.0223 -0.0687,0 -0.0802,0.002 -0.11739,0.0203 -0.11837,0.0581 -0.1879,0.18724 -0.16565,0.30761 0.0195,0.10526 0.082,0.18291 0.18077,0.22454 0.0355,0.0149 0.0499,0.0168 0.11314,0.0147 0.0613,-0.002 0.0789,-0.006 0.11429,-0.0226 z m -2.78007,-1.9395 c -0.1639,-0.0356 -0.28925,-0.10081 -0.40879,-0.21263 -0.10254,-0.0959 -0.19319,-0.24943 -0.23221,-0.39324 -0.0179,-0.0659 -0.0197,-0.0844 -0.0201,-0.20299 -3.3e-4,-0.11142 0.002,-0.13971 0.0156,-0.19361 0.0749,-0.29591 0.27782,-0.51455 0.56007,-0.60344 0.12239,-0.0386 0.24575,-0.0485 0.36978,-0.0298 0.17802,0.0268 0.32661,0.10053 0.45791,0.22711 0.22128,0.2133 0.30476,0.52957 0.21857,0.82804 -0.0387,0.13407 -0.10986,0.25296 -0.21261,0.35526 -0.10307,0.10262 -0.23463,0.17813 -0.37489,0.2152 -0.0979,0.0259 -0.27827,0.0307 -0.37336,0.0101 z m 0.20823,-0.5297 c 0.095,-0.0155 0.17509,-0.076 0.21897,-0.1654 0.0183,-0.0372 0.0203,-0.0487 0.0203,-0.11738 0,-0.07 -0.002,-0.0799 -0.0223,-0.12326 -0.0284,-0.0599 -0.0772,-0.10874 -0.13903,-0.13919 -0.0451,-0.0222 -0.0537,-0.0239 -0.12119,-0.0239 -0.0667,0 -0.0766,0.002 -0.12177,0.0233 -0.0595,0.0282 -0.11208,0.0798 -0.14058,0.13792 -0.0187,0.0382 -0.0205,0.0487 -0.0205,0.12154 -2e-5,0.0714 0.002,0.0841 0.0194,0.1212 0.038,0.0811 0.12246,0.14756 0.20893,0.16444 0.045,0.009 0.0486,0.009 0.0979,7.7e-4 z m -0.86313,-2.29863 c -0.15172,-0.0118 -0.30668,-0.0704 -0.42845,-0.16193 -0.0236,-0.0178 -0.0698,-0.0602 -0.10257,-0.0944 -0.15005,-0.1563 -0.22666,-0.34715 -0.22687,-0.56521 -1.3e-4,-0.14984 0.0221,-0.24546 0.0879,-0.37776 0.25196,-0.50636 0.92583,-0.61515 1.3268,-0.21418 0.37041,0.37041 0.31063,0.98136 -0.12497,1.27717 -0.10406,0.0707 -0.25705,0.12557 -0.37195,0.13348 -0.0319,0.002 -0.0661,0.005 -0.0761,0.006 -0.01,10e-4 -0.0477,-3.4e-4 -0.0838,-0.003 z m 0.12036,-0.54325 c 0.0942,-0.0179 0.1708,-0.0774 0.21208,-0.16493 0.0205,-0.0436 0.0231,-0.056 0.0231,-0.11412 1.4e-4,-0.10416 -0.0348,-0.17567 -0.11607,-0.23721 -0.052,-0.0394 -0.0961,-0.0528 -0.17419,-0.0528 -0.0613,0 -0.0693,0.002 -0.12095,0.0273 -0.17917,0.0885 -0.21829,0.32103 -0.0777,0.46164 0.0686,0.0686 0.16072,0.0977 0.25368,0.08 z m 5.89315,3.92594 c 0.14152,-0.14158 0.21692,-0.22194 0.21019,-0.22402 -0.006,-0.002 -0.0643,-0.0153 -0.13012,-0.03 -0.35031,-0.0784 -0.68854,-0.19955 -1.04029,-0.37258 -0.52243,-0.25699 -0.97778,-0.5833 -1.39198,-0.9975 -0.73171,-0.73171 -1.23122,-1.65673 -1.40348,-2.59901 -0.0127,-0.0698 -0.0244,-0.12835 -0.026,-0.13016 -0.002,-0.002 -0.0975,0.0912 -0.21336,0.2066 l -0.21058,0.20991 0.005,0.0797 c 0.0355,0.61708 0.24138,1.2645 0.58556,1.84135 0.68592,1.14958 1.84215,1.97218 3.08294,2.19335 0.0728,0.013 0.26257,0.0397 0.30089,0.0423 0.006,4.1e-4 0.11023,-0.0986 0.23161,-0.22002 z m 0.73238,-0.79393 c 0.28117,-0.39679 0.45213,-0.84828 0.51204,-1.35222 0.018,-0.1512 0.0181,-0.47288 1.6e-4,-0.61976 -0.0504,-0.41413 -0.16644,-0.77441 -0.35829,-1.11285 -0.0584,-0.103 -0.17919,-0.2802 -0.25948,-0.3806 -0.10061,-0.12581 -0.31284,-0.33796 -0.43801,-0.43783 -0.10141,-0.0809 -0.27977,-0.20263 -0.38059,-0.2597 -0.76396,-0.43247 -1.68823,-0.49281 -2.50467,-0.1635 -0.16943,0.0683 -0.38959,0.18527 -0.52558,0.27916 l -0.0507,0.035 10e-4,0.0831 c 6.9e-4,0.0457 0.006,0.12391 0.0129,0.17375 0.10598,0.8279 0.48501,1.64186 1.07943,2.31805 0.48338,0.54988 1.1082,0.99537 1.7591,1.25423 0.30947,0.12307 0.60811,0.2043 0.9243,0.2514 0.1786,0.0266 0.15625,0.0333 0.22822,-0.0683 z m -4.65036,7.27528 c -0.0527,-0.0167 -0.0879,-0.0392 -0.12524,-0.0801 -0.0796,-0.0871 -0.093,-0.20266 -0.036,-0.31044 0.0277,-0.0524 0.0663,-0.0876 0.1276,-0.1163 0.0414,-0.0194 0.0557,-0.0223 0.10601,-0.022 0.0761,5.3e-4 0.12812,0.0203 0.18121,0.0688 0.15458,0.14128 0.10115,0.39322 -0.0966,0.4556 -0.0518,0.0164 -0.11369,0.0181 -0.15691,0.004 z m -6.42464,-6.4422 c -0.11836,-0.0234 -0.20917,-0.12607 -0.21777,-0.24631 -0.0183,-0.25541 0.29519,-0.38853 0.46846,-0.19894 0.0485,0.0531 0.0683,0.10513 0.0688,0.18121 3.5e-4,0.0503 -0.003,0.0646 -0.022,0.10601 -0.0123,0.0263 -0.0341,0.0608 -0.0484,0.0767 -0.0315,0.0348 -0.0958,0.07 -0.1481,0.081 -0.0431,0.009 -0.057,0.009 -0.10099,4e-4 z"
       style="fill:#ffffff;stroke-width:0.00724941;fill-opacity:1" />
  </g>
</svg>
