<?xml version="1.0" encoding="UTF-8" standalone="no"?>
<svg
   xmlns:dc="http://purl.org/dc/elements/1.1/"
   xmlns:cc="http://creativecommons.org/ns#"
   xmlns:rdf="http://www.w3.org/1999/02/22-rdf-syntax-ns#"
   xmlns:svg="http://www.w3.org/2000/svg"
   xmlns="http://www.w3.org/2000/svg"
   width="44.450001mm"
   height="47.946823mm"
   viewBox="0 0 44.45 47.946823"
   version="1.1"
   id="svg8">
  <defs
     id="defs2" />
  <metadata
     id="metadata5">
    <rdf:RDF>
      <cc:Work
         rdf:about="">
        <dc:format>image/svg+xml</dc:format>
        <dc:type
           rdf:resource="http://purl.org/dc/dcmitype/StillImage" />
        <dc:title></dc:title>
      </cc:Work>
    </rdf:RDF>
  </metadata>
  <g
     style="fill:#ffffff;fill-opacity:1"
     id="layer1"
     transform="translate(-6.7339818,-3.6506664)">
    <path
       style="fill:#ffffff;stroke-width:0.04801016;fill-opacity:1"
       d="m 33.015685,51.575627 c -7.474175,-0.26032 -16.671156,-3.56358 -22.996868,-8.25974 -1.4024061,-1.04114 -3.0268581,-2.47987 -3.1886801,-2.82413 -0.121767,-0.25905 -0.128441,-0.58305 -0.01684,-0.8171 0.0581,-0.12184 1.871326,-1.80512 6.0132741,-5.58233 3.261549,-2.97434 6.016506,-5.48976 6.122128,-5.58982 0.187828,-0.17793 0.189935,-0.18355 0.09602,-0.25619 -0.238881,-0.18478 -1.288829,-0.83759 -1.326784,-0.82494 -0.02329,0.008 -1.329655,1.20231 -2.903037,2.65454 -1.573381,1.45223 -2.93775,2.68052 -3.031931,2.72954 -0.26788,0.13941 -0.721737,0.0948 -0.954822,-0.0938 -0.344648,-0.27895 -0.457421,-0.73278 -0.27991,-1.12643 0.05832,-0.12934 0.823469,-0.86665 2.704572,-2.60617 3.093143,-2.86034 2.887298,-2.6671 2.887298,-2.71062 0,-0.0191 -0.124226,-0.13072 -0.276058,-0.24809 -1.105974,-0.85488 -2.647117,-2.29936 -3.480453,-3.26213 -1.698269,-1.96204 -2.7070161,-3.91919 -2.9686481,-5.75971 -0.08649,-0.60842 -0.0332,-1.60083 0.117013,-2.17923 0.211082,-0.81278 0.6277391,-1.58641 1.2333951,-2.2901 1.010754,-1.17438 2.975995,-2.16373 5.18476,-2.6101504 1.761296,-0.35598 3.191755,-0.42289 6.500399,-0.30406 l 0.237121,0.009 0.284065,-0.45533 c 0.492565,-0.78954 0.941697,-1.3466 1.68725,-2.09269 0.397711,-0.39801 0.94996,-0.8918 1.227219,-1.09733 1.669974,-1.23792 3.541078,-1.9917 5.617189,-2.26291 0.846669,-0.1106 2.581049,-0.0752 3.36071,0.0687 2.562681,0.47273 4.683752,1.59262 6.434226,3.39716 0.909677,0.93777 1.519679,1.80484 2.089849,2.9705704 0.433119,0.88552 0.655315,1.48353 0.864764,2.32741 0.226333,0.91189 0.310712,1.52763 0.342744,2.50121 0.0302,0.91766 -0.02062,1.6023 -0.184426,2.48462 -0.05656,0.30468 -0.08254,0.55982 -0.05905,0.58022 0.02305,0.02 0.310184,0.25025 0.638069,0.51163 3.533476,2.81671 5.716594,5.89367 6.12286,8.62974 0.42867,2.88694 -1.101309,5.26059 -4.202304,6.51956 -2.044546,0.83006 -4.722693,1.19457 -7.719237,1.05063 -0.643317,-0.0309 -1.187718,-0.0381 -1.209774,-0.016 -0.02206,0.0221 0.0989,1.61732 0.268794,3.54493 0.169899,1.92761 0.309215,3.64634 0.309589,3.81941 5.44e-4,0.2651 -0.02115,0.3491 -0.137905,0.5332 -0.16155,0.25473 -0.464225,0.42496 -0.752756,0.42335 -0.355976,-0.002 -0.762579,-0.27419 -0.8821,-0.59051 -0.02815,-0.0745 -0.204682,-1.8893 -0.392291,-4.03286 -0.187614,-2.14356 -0.358867,-3.91638 -0.380562,-3.93959 -0.04159,-0.0445 -1.272706,-0.26461 -1.498561,-0.26792 -0.101243,-10e-4 -0.132027,0.0207 -0.132027,0.0954 0,0.0535 0.336488,3.67768 0.747757,8.0537 0.411266,4.37601 0.749463,8.07521 0.751552,8.22045 0.0049,0.34022 -0.138442,0.62803 -0.398461,0.8001 -0.277926,0.18392 -0.918376,0.22942 -2.469138,0.17541 z m 0.904881,-1.87587 c 0.02237,-0.0362 -1.44237,-15.78527 -1.477186,-15.8829 -0.01014,-0.0284 -0.339226,-0.1335 -0.731286,-0.23344 -3.306134,-0.84279 -6.931654,-2.23989 -10.095572,-3.89035 -0.381096,-0.1988 -0.719035,-0.36145 -0.750977,-0.36145 -0.03194,0 -1.826586,1.61201 -3.988094,3.58225 -3.913747,3.56742 -4.48213,4.09369 -4.48213,4.14999 0,0.0953 2.269056,1.64548 3.384715,2.31233 3.415706,2.04164 7.561046,3.75716 11.594455,4.7983 0.661544,0.17076 0.983172,0.27713 1.096319,0.36258 0.448889,0.33898 0.507619,0.92163 0.135609,1.34532 -0.293207,0.33394 -0.60966,0.37441 -1.391263,0.17791 -5.654882,-1.42171 -11.348444,-4.0491 -15.484714,-7.14568 -0.378885,-0.28365 -0.716288,-0.52625 -0.749785,-0.5391 -0.06869,-0.0264 -1.8644261,1.59274 -1.8914431,1.7054 -0.0096,0.0399 0.03571,0.1168 0.100646,0.17082 0.06493,0.054 0.364428,0.30607 0.665549,0.56012 5.3088681,4.47898 14.0003581,8.04396 21.4079051,8.78086 1.137332,0.11314 2.616655,0.17273 2.657252,0.10704 z m -3.298798,-2.96277 c -0.383035,-0.13654 -0.61358,-0.46421 -0.61358,-0.87205 0,-0.49887 0.334897,-0.86534 0.834169,-0.91282 0.310077,-0.0295 0.605859,0.10631 0.821121,0.377 0.374287,0.47063 0.10596,1.26378 -0.482872,1.4273 -0.233607,0.0649 -0.331951,0.0615 -0.558838,-0.0194 z m 11.851918,-13.90235 c 2.882731,-0.30034 4.947192,-1.12429 6.007064,-2.39748 1.675815,-2.01311 0.802898,-5.05979 -2.405395,-8.39538 -0.739016,-0.76834 -2.216917,-2.07214 -2.348835,-2.07214 -0.03751,0 -0.278709,0.56093 -0.603843,1.4043 -0.297758,0.77236 -0.584696,1.48339 -0.637637,1.58007 -0.146382,0.26731 -0.316517,0.36407 -1.08311,0.61601 -2.629598,0.86421 -5.639008,0.98248 -8.586818,0.33746 -3.261312,-0.71362 -6.289923,-2.32696 -8.600497,-4.58149 -1.345991,-1.31335 -2.210646,-2.4728 -3.019009,-4.04833 -0.474182,-0.9242 -0.478811,-0.838 0.129605,-2.41352 0.264056,-0.68379 0.480101,-1.27444 0.480101,-1.31257 0,-0.0381 -0.0578,-0.0838 -0.128451,-0.10156 -0.213221,-0.0535 -2.733386,-0.0388 -3.37629,0.0198 -3.831587,0.34877 -6.213012,1.58497 -6.894349,3.57884 -0.174094,0.50947 -0.215353,1.39174 -0.09347,1.99874 0.250887,1.24947 0.958162,2.61901 2.068001,4.00442 0.471742,0.58887 1.746018,1.89883 2.423291,2.49116 1.215127,1.06272 2.48347,2.00288 3.936832,2.91817 5.723176,3.60433 13.001742,6.03815 19.204063,6.42149 0.820975,0.0507 2.845564,0.0232 3.528748,-0.0479 z m -8.675993,-2.03799 c -1.262719,-0.32082 -2.150297,-1.45381 -2.150297,-2.74485 0,-0.83161 0.259567,-1.47297 0.824957,-2.03836 0.547529,-0.54752 1.198891,-0.80912 2.017167,-0.81012 0.82898,-10e-4 1.50231,0.29452 2.068613,0.90795 0.53512,0.57966 0.783045,1.27255 0.739989,2.06811 -0.04032,0.74498 -0.299884,1.32966 -0.822159,1.85194 -0.330896,0.33089 -0.618971,0.5131 -1.078034,0.68186 -0.404049,0.14853 -1.184011,0.18922 -1.600236,0.0835 z m 1.055268,-1.87541 c 0.36481,-0.15243 0.584302,-0.48953 0.58618,-0.90028 0.0011,-0.25362 -0.08711,-0.46574 -0.280485,-0.67405 -0.593406,-0.63921 -1.66818,-0.19277 -1.657372,0.68844 0.0018,0.14523 0.03724,0.32887 0.07879,0.40808 0.0952,0.18148 0.358709,0.4361 0.515836,0.49842 0.182986,0.0726 0.558468,0.0624 0.757048,-0.0206 z m 8.910973,0.29077 c -1.616103,-0.3515 -2.605448,-2.1188 -2.061584,-3.68267 0.146228,-0.42048 0.305156,-0.68738 0.604021,-1.01439 1.113293,-1.21812 3.061204,-1.21915 4.173413,-0.002 0.79497,0.86982 0.979186,2.06895 0.481282,3.13294 -0.565042,1.20746 -1.881596,1.85247 -3.197132,1.56634 z m 1.170776,-1.95552 c 0.23523,-0.15567 0.44406,-0.54588 0.442534,-0.82691 -0.0027,-0.50723 -0.48026,-0.98625 -0.983152,-0.98625 -0.366568,0 -0.77934,0.29305 -0.915693,0.65009 -0.166974,0.43721 0.04165,0.98636 0.459597,1.20978 0.294709,0.15755 0.71804,0.13771 0.996714,-0.0467 z m -22.122604,-0.75847 c -1.197419,-0.18455 -2.136324,-1.09182 -2.377754,-2.29764 -0.361378,-1.80491 1.140899,-3.4832 3.001936,-3.35366 0.980859,0.0683 1.875578,0.66538 2.306219,1.53911 0.318497,0.64619 0.400213,1.22948 0.263483,1.88072 -0.149452,0.71184 -0.618198,1.39228 -1.24033,1.80049 -0.529832,0.34765 -1.337759,0.52589 -1.953554,0.43098 z m 0.686877,-1.87428 c 0.37939,-0.10536 0.704099,-0.53504 0.705313,-0.93331 9.07e-4,-0.29525 -0.194611,-0.66573 -0.435423,-0.82509 -0.176123,-0.11655 -0.2514,-0.13512 -0.54786,-0.13512 -0.300023,0 -0.368878,0.0175 -0.54203,0.13746 -0.222717,0.15434 -0.44174,0.53756 -0.441311,0.77216 7.26e-4,0.41591 0.275629,0.82731 0.638688,0.95593 0.246057,0.0872 0.386694,0.0935 0.622623,0.028 z m -7.094813,-5.99944 c -1.050978,-0.21095 -1.935685,-1.04784 -2.206384,-2.08713 -0.09576,-0.36766 -0.0948,-1.05842 0.002,-1.43363 0.248567,-0.96347 1.0678,-1.7775 2.042313,-2.02934 0.370869,-0.0958 0.979447,-0.1056 1.338314,-0.0214 1.021282,0.23948 1.896095,1.10879 2.134778,2.12134 0.353519,1.49971 -0.568862,3.02117 -2.063299,3.40338 -0.385448,0.0986 -0.894645,0.11769 -1.247727,0.0468 z m 0.962188,-1.91357 c 0.376539,-0.17104 0.577423,-0.54022 0.539935,-0.99227 -0.02518,-0.30367 -0.168068,-0.53633 -0.436133,-0.71014 -0.730595,-0.47373 -1.674197,0.19029 -1.471444,1.03546 0.144355,0.60174 0.803526,0.92319 1.367642,0.66695 z m 20.354322,5.70528 c 1.098377,-0.0937 2.885857,-0.45627 3.171066,-0.64314 0.06803,-0.0446 0.215647,-0.3611 0.44574,-0.95572 0.189219,-0.48899 0.344031,-0.91213 0.344031,-0.94031 0,-0.0684 -0.09761,-0.0647 -0.544434,0.0208 -0.953127,0.18239 -1.588503,0.23409 -2.912297,0.23701 -1.700899,0.004 -2.699626,-0.11046 -4.224893,-0.48312 -4.14175,-1.01194 -7.861934,-3.49571 -10.151406,-6.77756 -0.152802,-0.21904 -0.302135,-0.39015 -0.33185,-0.38024 -0.06228,0.0208 -0.703112,1.64051 -0.703112,1.77717 0,0.26182 0.901768,1.69635 1.60006,2.54536 3.111672,3.78329 8.419479,6.01686 13.307095,5.59974 z m 2.586254,-4.26801 c 0.608015,-0.0938 1.745323,-0.35718 2.051979,-0.47515 0.132853,-0.0511 0.13028,-0.0438 0.265956,-0.75186 0.09993,-0.52148 0.13985,-2.04573 0.06929,-2.64575 -0.260868,-2.21834 -1.176129,-4.1734 -2.689192,-5.7442704 -0.855489,-0.88818 -1.596578,-1.44328 -2.627836,-1.96835 -2.75961,-1.40507 -5.984611,-1.42815 -8.778385,-0.0628 -1.553359,0.75914 -2.958574,1.98621 -3.87282,3.38186 -0.127627,0.1948304 -0.232048,0.3820704 -0.232048,0.4160804 0,0.0961 0.488205,0.93497 0.844953,1.45193 0.647027,0.93761 1.720356,2.10702 2.61734,2.85165 2.143152,1.77913 4.943956,3.04609 7.724075,3.49404 1.024631,0.16509 1.376147,0.18747 2.688567,0.17118 0.999631,-0.0124 1.414956,-0.0378 1.938118,-0.11854 z m -2.730284,28.2552 c -0.189368,-0.0845 -0.384984,-0.29693 -0.477557,-0.51853 -0.246201,-0.5894 0.185736,-1.23781 0.824569,-1.23781 0.326225,0 0.527287,0.0849 0.719347,0.3036 0.140198,0.15968 0.253383,0.43154 0.253383,0.60859 0,0.16246 -0.106794,0.43817 -0.223392,0.57674 -0.256537,0.30488 -0.745319,0.4241 -1.09635,0.26741 z M 8.4805059,35.149317 c -0.897765,-0.42024 -0.604794,-1.75804 0.38482,-1.75721 0.892852,7.5e-4 1.2479701,1.15465 0.514765,1.67264 -0.257558,0.18195 -0.618951,0.21593 -0.899585,0.0846 z"
       id="path855" />
  </g>
</svg>
