<?xml version="1.0" encoding="UTF-8" standalone="no"?>
<svg
   xmlns:dc="http://purl.org/dc/elements/1.1/"
   xmlns:cc="http://creativecommons.org/ns#"
   xmlns:rdf="http://www.w3.org/1999/02/22-rdf-syntax-ns#"
   xmlns:svg="http://www.w3.org/2000/svg"
   xmlns="http://www.w3.org/2000/svg"
   xmlns:sodipodi="http://sodipodi.sourceforge.net/DTD/sodipodi-0.dtd"
   xmlns:inkscape="http://www.inkscape.org/namespaces/inkscape"
   id="svg50"
   version="1.1"
   viewBox="0 0 62 54"
   sodipodi:docname="vps.svg"
   inkscape:version="0.92.4 (5da689c313, 2019-01-14)">
  <sodipodi:namedview
     pagecolor="#ffffff"
     bordercolor="#666666"
     borderopacity="1"
     objecttolerance="10"
     gridtolerance="10"
     guidetolerance="10"
     inkscape:pageopacity="0"
     inkscape:pageshadow="2"
     inkscape:window-width="1920"
     inkscape:window-height="1017"
     id="namedview29"
     showgrid="false"
     inkscape:zoom="6.180637"
     inkscape:cx="20.706434"
     inkscape:cy="40.839333"
     inkscape:window-x="-8"
     inkscape:window-y="-8"
     inkscape:window-maximized="1"
     inkscape:current-layer="svg50" />
  <metadata
     id="metadata54">
    <rdf:RDF>
      <cc:Work
         rdf:about="">
        <dc:format>image/svg+xml</dc:format>
        <dc:type
           rdf:resource="http://purl.org/dc/dcmitype/StillImage" />
        <dc:title>vps</dc:title>
      </cc:Work>
    </rdf:RDF>
  </metadata>
  <defs
     id="defs4">
    <style
       id="style2">.cls-1{fill:#fff;}</style>
  </defs>
  <title
     id="title6">vps</title>
  <path
     style="fill:#ffffff;stroke-width:0.03326373;fill-opacity:1;stroke:none"
     d="M 20.446506,52.397576 V 51.44956 h -0.964647 -0.964651 v -4.756714 -4.756713 h 0.964651 0.964647 V 40.988117 40.0401 h -0.964762 -0.96476 l 0.0085,-4.748396 0.0085,-4.748396 0.956852,-0.0089 0.956847,-0.0089 -0.0089,-0.93919 -0.0089,-0.939189 -0.956335,-0.0089 -0.956334,-0.0089 v -4.73934 -4.739573 H 30.974482 43.43175 v 4.739573 4.73957 l -0.956335,0.0089 -0.956329,0.0089 -0.0089,0.939189 -0.0089,0.93919 0.956852,0.0089 0.956847,0.0089 0.0085,4.748396 0.0085,4.748396 h -0.964758 -0.964764 v 0.948017 0.948016 h 0.964651 0.964647 v 4.756713 4.756714 h -0.964647 -0.964651 v 0.948016 0.948017 H 40.554348 39.606331 V 52.397576 51.44956 h -8.631936 -8.631936 v 0.948016 0.948017 h -0.948017 -0.948016 z m 21.055939,-5.688095 v -2.84405 H 30.974476 20.446506 v 2.84405 2.844045 h 10.52797 10.527969 z m -19.144869,0.905963 c -0.0089,-0.02313 -0.01217,-0.45348 -0.0072,-0.956334 l 0.0089,-0.914281 4.781661,-0.0085 4.781661,-0.0085 v 0.964763 0.964759 h -4.77439 c -3.817412,0 -4.777623,-0.0085 -4.790526,-0.04205 z m 15.327345,-0.913767 0.0089,-0.956848 h 0.948017 0.948016 v 0.948017 0.948017 l -0.956844,0.0089 -0.956843,0.0089 z m 1.921491,-5.71356 V 40.0401 h -8.631936 -8.631937 v 0.948017 0.948016 h 8.631937 8.631936 z M 41.502445,35.30002 V 32.455971 H 30.974476 20.446506 v 2.844049 2.844051 h 10.52797 10.527969 z m -19.159906,0 v -0.948016 h 4.789975 4.789978 v 0.948016 0.948017 h -4.789978 -4.789975 z m 15.334579,0 v -0.948016 h 0.964647 0.964647 v 0.948016 0.948017 h -0.964647 -0.964647 z m 1.929294,-5.704729 v -0.931386 h -8.631936 -8.631937 v 0.931386 0.931382 h 8.631937 8.631936 z m 1.896033,-5.70473 v -2.84405 H 30.974476 20.446506 v 2.84405 2.84405 h 10.52797 10.527969 z m -19.159906,0 v -0.948017 h 4.789975 4.789978 v 0.948017 0.948017 h -4.789978 -4.789975 z m 15.334579,0 v -0.948017 h 0.964647 0.964647 v 0.948017 0.948017 H 38.641765 37.677118 Z M 14.691881,50.502053 v -0.948527 h 0.965168 0.965165 l -0.0089,0.939704 -0.0089,0.939699 -0.956331,0.0089 -0.956333,0.0089 z m 30.658071,0.925331 c -0.0122,-0.0122 -0.02217,-0.438803 -0.02217,-0.948016 v -0.925842 h 0.964647 0.964647 v 0.948017 0.948017 h -0.942471 c -0.518361,0 -0.952453,-0.01001 -0.964647,-0.02217 z M 14.691881,46.692846 v -0.96567 l 0.956334,0.0089 0.95633,0.0089 v 0.948017 0.948017 l -0.95633,0.0089 -0.956334,0.0089 z m 30.650931,0.922598 c -0.0089,-0.02313 -0.01217,-0.45348 -0.0072,-0.956334 l 0.0089,-0.914281 0.956333,-0.0089 0.95633,-0.0089 v 0.96516 0.965156 h -0.949058 c -0.734245,0 -0.952717,-0.0095 -0.9652,-0.04205 z M 14.691881,42.88364 v -0.948526 l 0.956334,0.0089 0.95633,0.0089 0.0089,0.9397 0.0089,0.9397 H 15.65718 14.692012 Z m 30.643692,0.0089 0.0089,-0.9397 0.956334,-0.0089 0.95633,-0.0089 v 0.948525 0.948527 H 46.291946 45.326782 Z M 8.3884065,36.225901 C 7.1577638,36.123251 6.1393948,35.850569 5.1285592,35.353036 3.4020624,34.503254 2.0426307,33.148371 1.2038501,31.441443 0.89879358,30.820655 0.75099586,30.421817 0.58832753,29.780424 0.39636797,29.023517 0.33955015,28.544121 0.33970391,27.682643 0.3400362,26.668046 0.45230242,25.946629 0.75091846,25.04372 1.5802896,22.536002 3.4970504,20.566207 5.9934154,19.656174 c 0.4427369,-0.161398 1.2057641,-0.352848 1.6759399,-0.420501 0.1899637,-0.02734 0.351017,-0.05532 0.357894,-0.06221 0.00691,-0.0069 -0.0031,-0.230491 -0.021888,-0.496916 -0.053518,-0.753524 0.036955,-1.785068 0.2191157,-2.498762 0.5001739,-1.959521 1.5993713,-3.614609 3.199275,-4.817253 1.873391,-1.4082156 4.344017,-2.0028934 6.627356,-1.5951942 l 0.328834,0.05872 0.191839,-0.4673242 c 1.461354,-3.5598315 4.452128,-6.3452335 8.128314,-7.5701668 1.466432,-0.4886244 2.662408,-0.6784571 4.274389,-0.6784571 1.611986,0 2.807964,0.1898327 4.27439,0.6784571 3.689875,1.2294939 6.71496,4.057786 8.147702,7.6176568 0.09988,0.2481796 0.184283,0.4130342 0.209366,0.4089502 0.02313,-0.0038 0.176742,-0.02967 0.341399,-0.05756 3.151206,-0.5338254 6.390342,0.7696422 8.317883,3.3472262 1.204393,1.610561 1.815676,3.640573 1.678384,5.573716 -0.01892,0.266425 -0.02877,0.490035 -0.02189,0.496916 0.0069,0.0069 0.167931,0.03487 0.357893,0.06221 1.797787,0.258695 3.524748,1.125183 4.828588,2.422719 1.356176,1.349621 2.17598,3.014537 2.458579,4.993074 0.06365,0.445664 0.05393,1.701093 -0.01699,2.195405 -0.130106,0.906648 -0.394947,1.760557 -0.804701,2.594573 -1.282376,2.610133 -3.785,4.373521 -6.735451,4.745894 -0.273363,0.03448 -1.252908,0.04407 -4.507237,0.04407 h -4.157965 l -0.0089,-0.939699 -0.0089,-0.939699 3.91732,-3.32e-4 c 2.415228,-3.33e-4 4.070383,-0.01355 4.316488,-0.03476 1.944809,-0.167602 3.687898,-1.135064 4.842013,-2.68746 0.614128,-0.826054 1.025003,-1.777195 1.216403,-2.815866 0.07721,-0.419011 0.0881,-1.750575 0.01753,-2.14551 -0.255311,-1.429012 -0.836217,-2.582035 -1.799189,-3.571139 -0.571604,-0.587119 -1.089474,-0.970799 -1.798616,-1.332562 -0.909535,-0.463986 -1.7666,-0.673383 -2.927211,-0.715158 -0.574596,-0.0207 -0.664564,-0.03162 -0.78814,-0.09591 -0.272429,-0.141705 -0.474176,-0.422965 -0.520778,-0.726024 -0.01448,-0.09414 0.0095,-0.282433 0.07617,-0.598749 0.267433,-1.268403 0.214491,-2.364738 -0.169989,-3.52019 -1.133608,-3.406725 -4.831938,-5.325334 -8.263473,-4.286893 -0.349187,0.105669 -0.691477,0.117817 -0.887445,0.03149 -0.166374,-0.07329 -0.380138,-0.269715 -0.45658,-0.419558 -0.0339,-0.06647 -0.123376,-0.310564 -0.19881,-0.542425 C 41.076376,8.3518993 39.387261,6.1931232 37.087184,4.7368437 36.601798,4.4295267 35.494481,3.8872213 34.966764,3.6983798 33.577106,3.2010873 32.44361,3.0039132 30.974468,3.0039132 c -1.469142,0 -2.602635,0.1971741 -3.992297,0.6944666 -0.527712,0.1888415 -1.635033,0.7311469 -2.120419,1.0384639 -2.300954,1.4568347 -3.988876,3.6140876 -4.815247,6.1541443 -0.16293,0.500816 -0.222873,0.624307 -0.370474,0.763267 -0.296275,0.278926 -0.640821,0.328073 -1.17236,0.16722 -1.653874,-0.5005 -3.494737,-0.319785 -5.03452,0.494218 -2.190237,1.157874 -3.5667076,3.416872 -3.5667076,5.853515 0,0.479064 0.04341,0.855732 0.1677376,1.455176 0.0995,0.479752 0.100586,0.495007 0.0494,0.694786 -0.0615,0.24004 -0.1986476,0.440251 -0.3893017,0.568295 -0.1975776,0.132693 -0.3268062,0.158629 -0.7930326,0.159143 -1.0421196,0.0011 -2.0265555,0.228117 -2.9438406,0.678719 -0.7523227,0.369571 -1.282276,0.755849 -1.8817732,1.371622 -0.9629711,0.989108 -1.5438806,2.142128 -1.7991883,3.571139 -0.070566,0.394936 -0.059678,1.726504 0.017533,2.14551 0.3982634,2.161265 1.7513434,3.930112 3.729958,4.876074 0.7283213,0.348202 1.4987581,0.555749 2.3284604,0.627253 0.2461026,0.0212 1.901262,0.03452 4.316486,0.03476 l 3.917322,3.33e-4 -0.0089,0.939702 -0.0089,0.9397 -4.041542,0.0027 c -2.222849,0.0015 -4.1014169,-0.0023 -4.1745964,-0.0083 z M 21.411153,14.069258 c 0,-1.220571 0.392599,-2.744226 1.025829,-3.981215 1.375394,-2.686746 3.98437,-4.5828222 6.977898,-5.0712 0.437745,-0.071417 1.450353,-0.153612 1.527535,-0.1239941 0.04113,0.015789 0.0487,0.1628594 0.0487,0.9481262 v 0.9294416 l -0.291058,0.019876 c -1.376997,0.094043 -2.437999,0.3886806 -3.451113,0.958352 -2.33652,1.3138275 -3.76494,3.5940313 -3.928373,6.2709173 l -0.02286,0.374217 h -0.943284 -0.943282 z"
     id="path847"
     inkscape:connector-curvature="0" />
</svg>
