<?xml version="1.0" encoding="UTF-8" standalone="no"?>
<!-- Created with Inkscape (http://www.inkscape.org/) -->

<svg
   xmlns:dc="http://purl.org/dc/elements/1.1/"
   xmlns:cc="http://creativecommons.org/ns#"
   xmlns:rdf="http://www.w3.org/1999/02/22-rdf-syntax-ns#"
   xmlns:svg="http://www.w3.org/2000/svg"
   xmlns="http://www.w3.org/2000/svg"
   xmlns:sodipodi="http://sodipodi.sourceforge.net/DTD/sodipodi-0.dtd"
   xmlns:inkscape="http://www.inkscape.org/namespaces/inkscape"
   width="18.528505mm"
   height="16.398195mm"
   viewBox="0 0 18.528505 16.398196"
   version="1.1"
   id="svg8"
   inkscape:version="0.92.4 (5da689c313, 2019-01-14)"
   sodipodi:docname="vps_horizontal_icon_3.svg">
  <defs
     id="defs2" />
  <sodipodi:namedview
     id="base"
     pagecolor="#ffffff"
     bordercolor="#666666"
     borderopacity="1.0"
     inkscape:pageopacity="0.0"
     inkscape:pageshadow="2"
     inkscape:zoom="0.35"
     inkscape:cx="1142.0088"
     inkscape:cy="438.23232"
     inkscape:document-units="mm"
     inkscape:current-layer="layer1"
     showgrid="false"
     fit-margin-top="0"
     fit-margin-left="0"
     fit-margin-right="0"
     fit-margin-bottom="0"
     inkscape:window-width="1920"
     inkscape:window-height="1017"
     inkscape:window-x="-8"
     inkscape:window-y="-8"
     inkscape:window-maximized="1" />
  <metadata
     id="metadata5">
    <rdf:RDF>
      <cc:Work
         rdf:about="">
        <dc:format>image/svg+xml</dc:format>
        <dc:type
           rdf:resource="http://purl.org/dc/dcmitype/StillImage" />
        <dc:title></dc:title>
      </cc:Work>
    </rdf:RDF>
  </metadata>
  <g
     inkscape:label="Layer 1"
     inkscape:groupmode="layer"
     id="layer1"
     transform="translate(1191.4419,-731.04001)">
    <path
       style="fill:#fe8139;stroke-width:0.01011871"
       d="m -1190.5891,747.42492 c -0.4416,-0.0801 -0.781,-0.42673 -0.8425,-0.86047 -0.01,-0.0548 -0.011,-0.27391 -0.01,-0.68278 v -0.60206 l 0.7539,-0.005 0.7538,-0.005 0.01,-4.39152 v -4.39152 l 0.024,-0.0708 c 0.091,-0.27019 0.2866,-0.45781 0.5564,-0.5343 0.077,-0.0219 0.08,-0.0219 1.4586,-0.0271 l 1.3812,-0.005 0.018,-0.15683 c 0.024,-0.2093 0.061,-0.41751 0.1089,-0.60207 0.4188,-1.62134 1.7612,-2.85843 3.425,-3.15647 0.2376,-0.0426 0.4018,-0.0575 0.6881,-0.0628 0.1503,-0.003 0.2798,-0.007 0.2878,-0.01 0.01,-0.003 -0.058,-0.0779 -0.1972,-0.21682 l -0.2118,-0.21204 0.1972,-0.19752 c 0.1085,-0.10864 0.2036,-0.19629 0.2115,-0.19479 0.016,0.003 1.107,1.07655 1.1186,1.10061 0.01,0.0111 -0.143,0.16425 -0.5513,0.56918 -0.3072,0.3047 -0.5638,0.554 -0.5702,0.554 -0.01,0 -0.1003,-0.0888 -0.2087,-0.19732 l -0.1971,-0.19732 0.2102,-0.21043 c 0.1156,-0.11573 0.207,-0.21363 0.2031,-0.21755 -0.01,-0.0103 -0.2673,-0.008 -0.4439,0.003 -0.7916,0.0524 -1.5107,0.33049 -2.13,0.82378 -0.1622,0.12925 -0.4431,0.41013 -0.5723,0.57237 -0.3412,0.42826 -0.5731,0.89256 -0.7013,1.40389 -0.055,0.21889 -0.1122,0.57576 -0.097,0.60105 0,0.005 0.1747,0.009 0.3817,0.009 0.207,8e-5 0.3821,0.004 0.3892,0.008 0.01,0.006 0.012,0.0704 0.01,0.2857 v 0.27756 l -2.0339,0.005 c -1.5146,0.004 -2.0405,0.008 -2.06,0.0168 -0.041,0.0184 -0.087,0.0699 -0.1047,0.11715 -0.015,0.0394 -0.016,0.41804 -0.014,4.3739 v 4.33081 l 2.3378,0.005 2.3378,0.005 0.04,0.0314 c 0.022,0.0173 0.1648,0.12995 0.3171,0.25044 l 0.2771,0.21906 h 1.8541 1.8541 l 0.2771,-0.21906 c 0.1524,-0.12049 0.2951,-0.23318 0.3171,-0.25044 l 0.04,-0.0314 2.3378,-0.005 2.3379,-0.005 v -4.35178 -4.35179 l -0.027,-0.041 c -0.015,-0.0226 -0.044,-0.0518 -0.066,-0.065 l -0.039,-0.024 h -1.3559 -1.3559 l -0.017,0.15035 c -0.08,0.70888 -0.3041,1.32772 -0.6917,1.90881 -0.2708,0.40594 -0.6094,0.76407 -0.9964,1.05386 -0.5264,0.39417 -1.117,0.65895 -1.7556,0.78714 -0.2767,0.0556 -0.4393,0.0723 -0.7589,0.0784 -0.1614,0.003 -0.2997,0.009 -0.3073,0.013 -0.01,0.005 0.047,0.0675 0.1948,0.21286 0.1148,0.11297 0.2086,0.20966 0.2086,0.21487 0,0.0128 -0.3832,0.38627 -0.4004,0.39031 -0.014,0.003 -1.1199,-1.08409 -1.1254,-1.10642 0,-0.0129 1.1031,-1.11084 1.124,-1.1155 0.01,-10e-4 0.101,0.0862 0.2095,0.19479 l 0.1972,0.19752 -0.2119,0.21204 c -0.1728,0.173 -0.2084,0.21334 -0.1935,0.21908 0.036,0.0137 0.5122,-0.005 0.6737,-0.0264 0.8365,-0.11073 1.5561,-0.45641 2.1486,-1.0321 0.4888,-0.47502 0.8145,-1.01949 0.998,-1.66862 0.052,-0.18409 0.1062,-0.48317 0.1138,-0.62833 v -0.0556 l -0.3895,-0.005 -0.3896,-0.005 v -0.28056 -0.28056 l 0.023,-0.006 c 0.013,-0.003 0.9427,-0.004 2.0669,-0.003 1.9554,0.003 2.0469,0.004 2.1098,0.0218 0.282,0.0805 0.4756,0.26366 0.568,0.53742 l 0.024,0.0708 0.01,4.39151 0.01,4.39152 0.7538,0.005 0.7538,0.005 v 0.6476 c 0,0.6327 -5e-4,0.64949 -0.022,0.72989 -0.1091,0.40815 -0.4209,0.6961 -0.8319,0.76802 -0.074,0.013 -1.1369,0.0147 -8.4137,0.0139 -6.8033,-7.5e-4 -8.3422,-0.003 -8.4017,-0.0141 z m 16.7069,-0.56209 c 0.1865,-0.027 0.3406,-0.16993 0.3793,-0.35176 0.01,-0.0329 0.011,-0.17039 0.011,-0.35561 0,-0.26603 0,-0.30271 -0.016,-0.30812 -0.031,-0.0119 -5.9538,-0.007 -5.976,0.005 -0.011,0.006 -0.1534,0.11621 -0.3155,0.24471 -0.1621,0.12849 -0.3061,0.23959 -0.3201,0.24688 -0.021,0.0108 -0.4019,0.0133 -2.0593,0.0133 -1.6573,0 -2.0385,-0.002 -2.0592,-0.0133 -0.014,-0.007 -0.1581,-0.11839 -0.3202,-0.24688 -0.1621,-0.1285 -0.304,-0.23861 -0.3154,-0.24471 -0.022,-0.0119 -5.9452,-0.0168 -5.9761,-0.005 -0.014,0.005 -0.016,0.0421 -0.016,0.30812 0,0.18522 0,0.32272 0.011,0.35561 0.038,0.17724 0.1938,0.32539 0.3702,0.35119 0.086,0.0126 16.5146,0.0131 16.6016,5.7e-4 z m -14.3454,-2.29306 c 0,-0.004 -0.01,-0.13143 -0.01,-0.28364 v -0.27673 l 0.2858,0.003 0.2859,0.003 v 0.27827 0.27826 l -0.279,0.003 c -0.1534,10e-4 -0.282,-4.2e-4 -0.2858,-0.004 z m 1.1535,0 c 0,-0.004 -0.01,-0.13143 -0.01,-0.28364 v -0.27673 l 0.2859,0.003 0.2858,0.003 v 0.27827 0.27826 l -0.2789,0.003 c -0.1535,10e-4 -0.2821,-4.2e-4 -0.2859,-0.004 z m 1.1535,0 c 0,-0.004 -0.01,-0.13143 -0.01,-0.28364 v -0.27673 l 0.2859,0.003 0.2859,0.003 v 0.27827 0.27826 l -0.279,0.003 c -0.1534,10e-4 -0.2821,-4.2e-4 -0.2859,-0.004 z m 1.1536,0 c 0,-0.004 -0.01,-0.13143 -0.01,-0.28364 v -0.27673 l 0.2858,0.003 0.2859,0.003 v 0.27827 0.27826 l -0.279,0.003 c -0.1534,10e-4 -0.282,-4.2e-4 -0.2858,-0.004 z m 1.1535,0 c 0,-0.004 -0.01,-0.13143 -0.01,-0.28364 v -0.27673 l 0.2859,0.003 0.2858,0.003 v 0.27827 0.27826 l -0.2789,0.003 c -0.1535,10e-4 -0.2821,-4.2e-4 -0.2859,-0.004 z m 1.1535,0 c 0,-0.004 -0.01,-0.13136 -0.01,-0.28348 v -0.27658 h 0.2886 0.2885 v 0.2808 0.28079 l -0.279,0.003 c -0.1534,10e-4 -0.2821,-4.3e-4 -0.2859,-0.004 z m 1.1513,-0.006 c 0,-0.007 0,-0.13356 0,-0.28095 v -0.26799 l 0.2861,-0.003 0.286,-0.003 v 0.28096 0.28095 l -0.2811,0.003 c -0.2211,0.002 -0.2821,-1.2e-4 -0.286,-0.0103 z m 1.1535,0 c 0,-0.007 0,-0.13356 0,-0.28095 v -0.26799 l 0.286,-0.003 0.286,-0.003 v 0.28096 0.28095 l -0.281,0.003 c -0.2212,0.002 -0.2821,-1.2e-4 -0.2861,-0.0103 z m 1.1536,0 c 0,-0.007 0,-0.13356 0,-0.28095 v -0.26799 l 0.286,-0.003 0.286,-0.003 v 0.28096 0.28095 l -0.281,0.003 c -0.2212,0.002 -0.2821,-1.2e-4 -0.286,-0.0103 z m 1.1535,0 c 0,-0.007 0,-0.13356 0,-0.28095 v -0.26799 l 0.286,-0.003 0.2861,-0.003 v 0.28096 0.28095 l -0.2811,0.003 c -0.2211,0.002 -0.2821,-1.2e-4 -0.286,-0.0103 z m 1.1535,0 c 0,-0.007 0,-0.13356 0,-0.28095 v -0.26799 l 0.286,-0.003 0.286,-0.003 v 0.28096 0.28095 l -0.281,0.003 c -0.2212,0.002 -0.2821,-1.2e-4 -0.2861,-0.0103 z m -5.7773,-6.12467 c -0.7402,-0.0968 -1.3766,-0.52031 -1.7449,-1.16123 -0.3768,-0.65571 -0.4013,-1.46403 -0.065,-2.14317 0.2832,-0.57183 0.7787,-0.99837 1.3855,-1.19274 0.2517,-0.0806 0.4245,-0.10621 0.7177,-0.10621 0.1774,0 0.2592,0.004 0.3441,0.0184 0.5463,0.0903 0.9746,0.31237 1.3515,0.70077 0.7522,0.77517 0.8567,1.9669 0.2516,2.86843 -0.3398,0.5062 -0.8697,0.86045 -1.4752,0.98625 -0.2164,0.0449 -0.5492,0.0578 -0.7654,0.0295 z m 0.4618,-0.56172 c 0.4328,-0.0437 0.8074,-0.22621 1.1097,-0.54071 0.6682,-0.69507 0.6405,-1.78529 -0.062,-2.45038 -0.1325,-0.12534 -0.2609,-0.21463 -0.4266,-0.29646 -0.2215,-0.10938 -0.4141,-0.16262 -0.6603,-0.18251 -0.3126,-0.0252 -0.6222,0.0363 -0.9182,0.18251 -0.8667,0.42808 -1.2192,1.46848 -0.7887,2.3277 0.1388,0.27704 0.3858,0.54482 0.6521,0.70688 0.3315,0.2017 0.7176,0.29098 1.0942,0.25297 z m -0.3448,-0.82959 c -0.3473,-0.0726 -0.6238,-0.32678 -0.7211,-0.66288 -0.02,-0.0691 -0.023,-0.10347 -0.023,-0.24243 0,-0.13804 0,-0.17352 0.023,-0.24074 0.091,-0.31472 0.3342,-0.55395 0.6572,-0.64695 0.067,-0.0193 0.1032,-0.0227 0.2407,-0.0227 0.1376,0 0.1738,0.003 0.2407,0.0227 0.2768,0.0797 0.4851,0.25613 0.6047,0.51209 0.064,0.13702 0.075,0.19206 0.075,0.3756 3e-4,0.18648 -0.016,0.26293 -0.087,0.40475 -0.1151,0.23024 -0.3072,0.39194 -0.5654,0.47585 -0.076,0.0247 -0.1041,0.0283 -0.2429,0.031 -0.086,0.002 -0.177,-10e-4 -0.2017,-0.006 z m 0.288,-0.57728 c 0.092,-0.0283 0.1834,-0.11556 0.217,-0.20661 0.047,-0.12697 0.011,-0.27877 -0.087,-0.36914 -0.073,-0.067 -0.1449,-0.0957 -0.2421,-0.096 -0.072,-2.7e-4 -0.089,0.004 -0.1486,0.0329 -0.1672,0.0823 -0.2416,0.26305 -0.1788,0.43441 0.032,0.0865 0.1253,0.17636 0.2125,0.20395 0.083,0.0264 0.1424,0.0266 0.2267,5.1e-4 z"
       id="path852"
       inkscape:connector-curvature="0" />
  </g>
</svg>
