<?xml version="1.0" encoding="UTF-8" standalone="no"?>
<!-- Created with Inkscape (http://www.inkscape.org/) -->

<svg
   xmlns:dc="http://purl.org/dc/elements/1.1/"
   xmlns:cc="http://creativecommons.org/ns#"
   xmlns:rdf="http://www.w3.org/1999/02/22-rdf-syntax-ns#"
   xmlns:svg="http://www.w3.org/2000/svg"
   xmlns="http://www.w3.org/2000/svg"
   xmlns:sodipodi="http://sodipodi.sourceforge.net/DTD/sodipodi-0.dtd"
   xmlns:inkscape="http://www.inkscape.org/namespaces/inkscape"
   width="18.521662mm"
   height="19.07102mm"
   viewBox="0 0 18.521662 19.07102"
   version="1.1"
   id="svg8"
   inkscape:version="0.92.4 (5da689c313, 2019-01-14)"
   sodipodi:docname="vps_horizontal_icon_1.svg">
  <defs
     id="defs2" />
  <sodipodi:namedview
     id="base"
     pagecolor="#ffffff"
     bordercolor="#666666"
     borderopacity="1.0"
     inkscape:pageopacity="0.0"
     inkscape:pageshadow="2"
     inkscape:zoom="5.6"
     inkscape:cx="46.966447"
     inkscape:cy="21.431639"
     inkscape:document-units="mm"
     inkscape:current-layer="layer1"
     showgrid="false"
     fit-margin-top="0"
     fit-margin-left="0"
     fit-margin-right="0"
     fit-margin-bottom="0"
     inkscape:window-width="1920"
     inkscape:window-height="1017"
     inkscape:window-x="-8"
     inkscape:window-y="-8"
     inkscape:window-maximized="1" />
  <metadata
     id="metadata5">
    <rdf:RDF>
      <cc:Work
         rdf:about="">
        <dc:format>image/svg+xml</dc:format>
        <dc:type
           rdf:resource="http://purl.org/dc/dcmitype/StillImage" />
        <dc:title></dc:title>
      </cc:Work>
    </rdf:RDF>
  </metadata>
  <g
     inkscape:label="Layer 1"
     inkscape:groupmode="layer"
     id="layer1"
     transform="translate(493.26295,-355.7599)">
    <path
       style="fill:#fe8139;stroke-width:0.01003919"
       d="m -483.99786,374.83092 c -10e-4,-10e-4 -0.005,-0.26911 -0.008,-0.59488 l -0.005,-0.59231 -3.21701,-0.003 -3.21701,-0.003 -0.3023,0.30123 -0.30231,0.30124 -1.10373,-0.003 -1.10373,-0.003 -0.003,-0.89077 -0.003,-0.89077 0.0226,-0.006 c 0.0125,-0.003 0.51165,-0.004 1.10933,-0.003 l 1.08668,0.003 0.2988,0.29868 0.2988,0.29868 3.21749,-0.003 3.21748,-0.003 0.003,-0.58362 c 0.002,-0.47554 0.005,-0.5857 0.0161,-0.59488 0.01,-0.008 0.25541,-0.0106 0.89592,-0.009 l 0.88235,0.003 0.005,0.18572 c 0.005,0.16871 0.007,0.18987 0.0287,0.2309 0.0546,0.10586 0.13611,0.16115 0.24829,0.16847 0.10088,0.007 0.16379,-0.0159 0.23034,-0.0825 0.0741,-0.0742 0.0871,-0.11995 0.0941,-0.33195 l 0.006,-0.17066 h 2.77584 2.77583 l 0.10542,0.0231 c 0.32362,0.0711 0.57116,0.20853 0.79408,0.44094 0.19368,0.20194 0.32133,0.44525 0.38229,0.72869 0.0296,0.13767 0.0321,0.42759 0.005,0.56372 -0.063,0.31436 -0.19032,0.55189 -0.41749,0.77907 -0.21957,0.21958 -0.43507,0.33746 -0.75591,0.41346 l -0.0931,0.022 -2.78713,0.003 -2.78714,0.003 -0.005,-0.17835 c -0.006,-0.19733 -0.0129,-0.2292 -0.0668,-0.30042 -0.1009,-0.1335 -0.30079,-0.15294 -0.42733,-0.0416 -0.0254,0.0224 -0.0583,0.0638 -0.073,0.0921 -0.0254,0.0488 -0.027,0.0608 -0.0322,0.23716 l -0.005,0.18573 -0.89097,0.003 c -0.49004,10e-4 -0.89202,10e-4 -0.89329,0 z m 1.17105,-0.59595 c 0.0143,-0.005 0.0159,-0.0936 0.0159,-0.89364 v -0.88755 l -0.29364,0.003 -0.29365,0.003 -0.003,0.87733 c -0.002,0.63987 5e-4,0.88103 0.009,0.89098 0.009,0.0109 0.0659,0.0136 0.28034,0.0136 0.14795,0 0.27615,-0.003 0.28488,-0.006 z m 6.81311,-0.0255 c 0.17468,-0.0483 0.31763,-0.13425 0.43696,-0.26267 0.0782,-0.0842 0.12094,-0.15074 0.1699,-0.26474 0.0519,-0.12088 0.0686,-0.2227 0.0621,-0.37885 -0.006,-0.15563 -0.0219,-0.21781 -0.087,-0.35219 -0.10797,-0.2227 -0.30614,-0.38958 -0.55755,-0.46953 l -0.0703,-0.0224 -2.50127,-0.003 -2.50127,-0.003 -0.0312,0.0666 c -0.0936,0.19998 -0.26424,0.36761 -0.45702,0.4489 -0.16732,0.0706 -0.34343,0.092 -0.50769,0.0619 -0.0524,-0.01 -0.10779,-0.0197 -0.12298,-0.0224 l -0.0276,-0.005 v 0.33746 c 0,0.3871 -0.0124,0.35004 0.1073,0.32067 0.0927,-0.0228 0.29521,-0.0227 0.38817,1.1e-4 0.27246,0.0668 0.49196,0.24141 0.61024,0.48536 0.0219,0.0452 0.0453,0.0844 0.0519,0.0872 0.007,0.003 1.12109,0.004 2.47663,0.003 l 2.46462,-0.002 0.0961,-0.0266 z m -4.69668,-0.86441 0.003,-0.29364 h 2.23372 2.23372 l 0.003,0.29364 0.003,0.29365 h -2.23904 -2.23905 z m -10.44566,0.16063 c 0.074,-0.0732 0.13929,-0.14153 0.14496,-0.15192 0.009,-0.0163 -0.01,-0.0388 -0.13481,-0.16314 l -0.14511,-0.14423 h -0.68419 -0.68418 v 0.29615 0.29616 h 0.68434 0.68435 z m -0.73533,-2.25296 c -0.51728,-0.0437 -0.97999,-0.35914 -1.21604,-0.82914 -0.0509,-0.10132 -0.0947,-0.22609 -0.12679,-0.36114 l -0.0221,-0.0931 -0.003,-5.21034 c -0.002,-3.70181 1.1e-4,-5.23505 0.008,-5.29567 0.0445,-0.34883 0.19,-0.64515 0.43625,-0.88847 0.16442,-0.16247 0.35942,-0.28129 0.58304,-0.35525 0.2434,-0.0805 0.12217,-0.0754 1.85677,-0.079 0.85032,-0.002 1.55627,-7.3e-4 1.56878,0.002 l 0.0227,0.006 -0.003,0.29342 -0.003,0.29342 -1.56611,0.005 -1.56612,0.005 -0.0882,0.0277 c -0.33109,0.10386 -0.56843,0.35916 -0.63507,0.68314 -0.013,0.0633 -0.0145,0.71388 -0.0122,5.27756 l 0.003,5.20532 0.0288,0.0853 c 0.0522,0.15466 0.11854,0.26348 0.22661,0.37149 0.124,0.12394 0.28311,0.20973 0.45446,0.24503 0.0703,0.0145 0.79639,0.0159 7.94393,0.0159 7.14754,0 7.87362,-0.001 7.94393,-0.0159 0.17135,-0.0353 0.33046,-0.12109 0.45446,-0.24503 0.10807,-0.10801 0.17445,-0.21683 0.22661,-0.37149 l 0.0288,-0.0853 0.003,-5.20532 c 0.002,-4.56368 8.2e-4,-5.21422 -0.0122,-5.27756 -0.0666,-0.32398 -0.30398,-0.57928 -0.63506,-0.68314 l -0.0882,-0.0277 -1.56611,-0.005 -1.56612,-0.005 -0.003,-0.29342 -0.003,-0.29342 0.0227,-0.006 c 0.0125,-0.003 0.71846,-0.004 1.56878,-0.002 1.7346,0.004 1.61338,-0.001 1.85677,0.079 0.22362,0.074 0.41862,0.19278 0.58304,0.35525 0.24625,0.24332 0.39175,0.53964 0.43625,0.88847 0.008,0.0606 0.01,1.59386 0.008,5.29567 l -0.003,5.21034 -0.0221,0.0931 c -0.0685,0.28819 -0.18988,0.52096 -0.37451,0.7182 -0.21641,0.2312 -0.48015,0.37837 -0.80826,0.45104 l -0.0998,0.0221 -7.90084,0.001 c -4.34546,6.4e-4 -7.91891,-3.8e-4 -7.941,-0.002 z m 0.12799,-6.55141 0.003,-5.06226 h 7.76029 7.76029 l 0.003,5.06226 0.003,5.06226 h -7.76533 -7.76533 z m 14.92971,4.45407 c 0.003,-0.009 0.006,-2.01592 0.006,-4.46041 0,-3.44347 -0.003,-4.44724 -0.0121,-4.45658 -0.0176,-0.0176 -14.30433,-0.0176 -14.3219,0 -0.009,0.009 -0.012,1.01311 -0.012,4.45658 0,2.44449 0.003,4.45168 0.006,4.46041 0.006,0.0145 0.64645,0.0159 7.16691,0.0159 6.52046,0 7.16136,-10e-4 7.1669,-0.0159 z m -13.72516,-0.58472 c -0.01,-0.006 -0.0121,-0.073 -0.01,-0.2986 l 0.003,-0.29044 h 0.29114 0.29114 v 0.29615 0.29616 l -0.2811,0.002 c -0.15461,10e-4 -0.28682,-10e-4 -0.29381,-0.006 z m 12.54114,-0.004 c -0.003,-0.007 -0.004,-0.14137 -0.002,-0.29866 l 0.003,-0.28599 h 0.29113 0.29114 l 0.003,0.29044 c 0.002,0.22568 -1.9e-4,0.29225 -0.01,0.29852 -0.007,0.004 -0.13821,0.008 -0.29161,0.008 -0.21549,1.2e-4 -0.28001,-0.003 -0.28377,-0.0125 z m -10.1575,-2.08215 c -0.004,-0.004 -0.007,-0.80735 -0.007,-1.78592 0,-1.61314 10e-4,-1.77977 0.0159,-1.7853 0.024,-0.009 8.31974,-0.007 8.33424,0.002 0.01,0.006 0.0121,0.37088 0.01,1.78933 l -0.003,1.78135 -4.17211,0.003 c -2.29465,10e-4 -4.17512,-4.9e-4 -4.17881,-0.004 z m 7.75753,-0.61155 c 0.008,-0.0208 0.008,-2.32677 0,-2.34753 -0.006,-0.0144 -0.33058,-0.0159 -3.58291,-0.0159 -3.25233,0 -3.57738,10e-4 -3.58292,0.0159 -0.008,0.0208 -0.008,2.32677 0,2.34753 0.006,0.0144 0.33059,0.0159 3.58292,0.0159 3.25233,0 3.57737,-10e-4 3.58291,-0.0159 z m -5.07137,-1.17126 0.003,-0.29364 h 0.29114 0.29113 l 0.003,0.29364 0.003,0.29365 h -0.29645 -0.29646 z m 1.19466,0 0.003,-0.29364 h 0.29113 0.29114 l 0.003,0.29364 0.003,0.29365 h -0.29646 -0.29646 z m 1.19466,0 0.003,-0.29364 h 0.29114 0.29114 l 0.003,0.29364 0.003,0.29365 h -0.29646 -0.29646 z m -7.46481,-3.28699 c -0.004,-0.004 -0.007,-0.13695 -0.007,-0.29616 v -0.28946 h 0.29616 0.29615 v 0.29615 0.29616 h -0.28946 c -0.1592,0 -0.29247,-0.003 -0.29615,-0.007 z m 12.54228,-0.28932 v -0.2963 h 0.29631 0.29631 l -0.003,0.29364 -0.003,0.29365 -0.29365,0.003 -0.29364,0.003 z m -10.1471,-2.08985 c -0.01,-0.004 -0.0126,-0.20505 -0.0126,-0.95752 v -0.95237 l 0.68517,-0.68288 0.68518,-0.68288 h 2.81097 2.81097 l 0.68518,0.68288 0.68517,0.68288 v 0.95302 0.95302 l -0.0226,0.006 c -0.0124,0.003 -0.14456,0.004 -0.29364,0.003 l -0.27106,-0.003 -0.005,-0.83073 -0.005,-0.83073 -0.5095,-0.5095 -0.5095,-0.5095 h -2.56499 -2.56499 l -0.5095,0.5095 -0.5095,0.5095 -0.005,0.83073 -0.005,0.83073 -0.2811,0.002 c -0.1546,9.9e-4 -0.28674,-5.1e-4 -0.29364,-0.003 z m 1.19466,-0.89356 c -0.01,-0.004 -0.0126,-0.066 -0.0126,-0.2628 v -0.25772 l 0.33386,-0.33375 0.33386,-0.33375 h 2.31905 2.31905 l 0.33375,0.33386 0.33375,0.33386 v 0.25738 c 0,0.22543 -0.002,0.25813 -0.0159,0.26347 -0.0229,0.009 -0.54907,0.007 -0.56304,-0.002 -0.008,-0.005 -0.0129,-0.0535 -0.0151,-0.14067 l -0.003,-0.13323 -0.16125,-0.16035 -0.16125,-0.16035 h -2.06682 -2.06683 l -0.16125,0.16035 -0.16125,0.16035 -0.003,0.13323 c -0.002,0.0871 -0.007,0.1358 -0.015,0.14067 -0.0129,0.008 -0.54622,0.009 -0.56637,0.001 z"
       id="path826"
       inkscape:connector-curvature="0" />
  </g>
</svg>
