<?xml version="1.0" encoding="UTF-8" standalone="no"?>
<!-- Created with Inkscape (http://www.inkscape.org/) -->

<svg
   xmlns:dc="http://purl.org/dc/elements/1.1/"
   xmlns:cc="http://creativecommons.org/ns#"
   xmlns:rdf="http://www.w3.org/1999/02/22-rdf-syntax-ns#"
   xmlns:svg="http://www.w3.org/2000/svg"
   xmlns="http://www.w3.org/2000/svg"
   xmlns:sodipodi="http://sodipodi.sourceforge.net/DTD/sodipodi-0.dtd"
   xmlns:inkscape="http://www.inkscape.org/namespaces/inkscape"
   width="18.521452mm"
   height="11.634396mm"
   viewBox="0 0 18.521452 11.634396"
   version="1.1"
   id="svg8"
   inkscape:version="0.92.4 (5da689c313, 2019-01-14)"
   sodipodi:docname="vps_horizontal_icon_2.svg">
  <defs
     id="defs2" />
  <sodipodi:namedview
     id="base"
     pagecolor="#ffffff"
     bordercolor="#666666"
     borderopacity="1.0"
     inkscape:pageopacity="0.0"
     inkscape:pageshadow="2"
     inkscape:zoom="3.959798"
     inkscape:cx="23.235446"
     inkscape:cy="16.528074"
     inkscape:document-units="mm"
     inkscape:current-layer="layer1"
     showgrid="false"
     fit-margin-top="0"
     fit-margin-left="0"
     fit-margin-right="0"
     fit-margin-bottom="0"
     inkscape:window-width="1920"
     inkscape:window-height="1017"
     inkscape:window-x="-8"
     inkscape:window-y="-8"
     inkscape:window-maximized="1" />
  <metadata
     id="metadata5">
    <rdf:RDF>
      <cc:Work
         rdf:about="">
        <dc:format>image/svg+xml</dc:format>
        <dc:type
           rdf:resource="http://purl.org/dc/dcmitype/StillImage" />
        <dc:title></dc:title>
      </cc:Work>
    </rdf:RDF>
  </metadata>
  <g
     inkscape:label="Layer 1"
     inkscape:groupmode="layer"
     id="layer1"
     transform="translate(847.25574,-544.20299)">
    <path
       style="fill:#fe8139;stroke-width:0.00978947"
       d="m -846.50352,555.81893 c -0.39427,-0.0838 -0.68674,-0.39791 -0.74357,-0.79859 -0.007,-0.0523 -0.0101,-0.24453 -0.008,-0.58224 l 0.003,-0.50415 0.75379,-0.005 0.75379,-0.005 0.005,-4.53742 0.005,-4.53742 0.0276,-0.0881 c 0.0494,-0.15799 0.13971,-0.29499 0.25665,-0.38953 0.0809,-0.0653 0.14135,-0.0983 0.2495,-0.13609 l 0.0928,-0.0324 h 7.11205 7.11204 l 0.0928,0.0324 c 0.051,0.0178 0.11491,0.0452 0.14195,0.0608 0.13527,0.0783 0.24589,0.19744 0.31331,0.33753 0.0709,0.14727 0.076,0.17807 0.0825,0.49927 l 0.006,0.28389 0.35242,0.006 c 0.38199,0.006 0.39711,0.008 0.55275,0.0681 0.14331,0.0553 0.30194,0.17762 0.40775,0.31453 0.0929,0.12015 0.16842,0.30066 0.18908,0.45175 0.0147,0.1078 0.0147,8.63767 0,8.74547 -0.0558,0.40792 -0.38493,0.75012 -0.78937,0.82065 -0.0739,0.0129 -1.07833,0.0145 -8.4843,0.0139 -8.06241,-6.7e-4 -8.40388,-10e-4 -8.48374,-0.0184 z m 11.30263,-0.54211 c 0.003,-0.007 -0.004,-0.0347 -0.0157,-0.0612 -0.0506,-0.11802 -0.0606,-0.1889 -0.0656,-0.46673 l -0.005,-0.26188 -5.71356,0.002 -5.71356,0.002 -0.003,0.2104 c -0.002,0.1244 0.002,0.23131 0.008,0.26157 0.0322,0.15523 0.15203,0.27868 0.30304,0.31226 0.0828,0.0184 11.19768,0.019 11.20474,6.4e-4 z m 5.64244,-0.0138 c 0.12012,-0.0491 0.2096,-0.13793 0.25679,-0.25479 l 0.0227,-0.0562 0.003,-4.28767 c 0.002,-2.84688 -8.1e-4,-4.30579 -0.007,-4.34162 -0.0301,-0.16497 -0.16835,-0.30767 -0.33094,-0.34169 -0.0371,-0.008 -0.7185,-0.0109 -2.39881,-0.0109 -2.53837,0 -2.39636,-0.003 -2.50019,0.0501 -0.1065,0.0543 -0.20034,0.18426 -0.22185,0.30719 -0.0144,0.0824 -0.0145,8.52264 0,8.60494 0.0303,0.17307 0.17932,0.32309 0.34514,0.34756 0.0277,0.004 1.11422,0.007 2.4145,0.006 l 2.36416,-10e-4 0.0533,-0.0218 z m -3.33543,-0.78418 c -0.01,-0.006 -0.0118,-0.0681 -0.01,-0.2764 l 0.003,-0.26853 h 0.89084 0.89085 l 0.003,0.26853 c 0.002,0.20831 -1.8e-4,0.2703 -0.01,0.2764 -0.007,0.004 -0.40446,0.008 -0.88366,0.008 -0.47919,0 -0.87684,-0.004 -0.88365,-0.008 z m -11.6479,-0.56531 c 0.003,-0.009 0.006,-1.92261 0.006,-4.25353 v -4.23803 h 4.10564 c 3.73477,0 4.10617,10e-4 4.11157,0.0155 0.009,0.0231 0.007,0.50628 -0.002,0.52048 -0.006,0.01 -0.78906,0.0127 -3.83977,0.0147 l -3.832,0.002 v 3.97452 3.97453 h 4.35141 4.35142 l 0.005,-3.83747 0.005,-3.83747 0.0212,-0.0783 c 0.10522,-0.38874 0.40076,-0.66928 0.77353,-0.73429 0.0722,-0.0126 0.33174,-0.0146 1.88271,-0.0146 1.63136,0 1.79948,-10e-4 1.80487,-0.0155 0.003,-0.009 0.006,-0.11124 0.006,-0.22827 0,-0.23807 -0.008,-0.28405 -0.0594,-0.34634 -0.0168,-0.0204 -0.0489,-0.0468 -0.0713,-0.0587 l -0.0407,-0.0217 h -7.03373 -7.03374 l -0.0469,0.0276 c -0.0586,0.0345 -0.10028,0.091 -0.11391,0.15451 -0.0117,0.0545 -0.0156,8.97735 -0.004,8.98902 0.004,0.004 0.1507,0.007 0.3269,0.007 0.28311,0 0.32107,-0.002 0.32632,-0.0155 z"
       id="path839"
       inkscape:connector-curvature="0" />
  </g>
</svg>
