<?xml version="1.0" encoding="UTF-8" standalone="no"?>
<!-- Created with Inkscape (http://www.inkscape.org/) -->

<svg
   xmlns:dc="http://purl.org/dc/elements/1.1/"
   xmlns:cc="http://creativecommons.org/ns#"
   xmlns:rdf="http://www.w3.org/1999/02/22-rdf-syntax-ns#"
   xmlns:svg="http://www.w3.org/2000/svg"
   xmlns="http://www.w3.org/2000/svg"
   xmlns:sodipodi="http://sodipodi.sourceforge.net/DTD/sodipodi-0.dtd"
   xmlns:inkscape="http://www.inkscape.org/namespaces/inkscape"
   width="18.52083mm"
   height="18.51993mm"
   viewBox="0 0 18.52083 18.51993"
   version="1.1"
   id="svg8"
   inkscape:version="0.92.4 (5da689c313, 2019-01-14)"
   sodipodi:docname="vps_vertical_icon_1.svg">
  <defs
     id="defs2" />
  <sodipodi:namedview
     id="base"
     pagecolor="#ffffff"
     bordercolor="#666666"
     borderopacity="1.0"
     inkscape:pageopacity="0.0"
     inkscape:pageshadow="2"
     inkscape:zoom="5.6"
     inkscape:cx="81.791574"
     inkscape:cy="28.657334"
     inkscape:document-units="mm"
     inkscape:current-layer="layer1"
     showgrid="false"
     fit-margin-top="0"
     fit-margin-left="0"
     fit-margin-right="0"
     fit-margin-bottom="0"
     inkscape:window-width="1920"
     inkscape:window-height="1017"
     inkscape:window-x="-8"
     inkscape:window-y="-8"
     inkscape:window-maximized="1" />
  <metadata
     id="metadata5">
    <rdf:RDF>
      <cc:Work
         rdf:about="">
        <dc:format>image/svg+xml</dc:format>
        <dc:type
           rdf:resource="http://purl.org/dc/dcmitype/StillImage" />
        <dc:title></dc:title>
      </cc:Work>
    </rdf:RDF>
  </metadata>
  <g
     inkscape:label="Layer 1"
     inkscape:groupmode="layer"
     id="layer1"
     transform="translate(505.73213,-174.15862)">
    <path
       style="fill:#fe8037;stroke-width:0.01006567"
       d="m -500.81002,192.05722 v -0.62133 l 0.29191,-0.29253 0.2919,-0.29252 v -0.22356 -0.22357 h 0.27177 0.27178 v 0.33978 0.33978 l -0.28687,0.28674 -0.28688,0.28674 v 0.5109 0.5109 h -0.2768 -0.27681 z m 1.16762,0.14092 v -0.48041 l 0.28687,-0.2875 0.28687,-0.2875 v -0.36951 -0.36951 h 0.27681 0.27681 v 0.48024 0.48024 l -0.29191,0.29252 -0.2919,0.29252 v 0.36466 0.36466 h -0.27178 -0.27177 z m 1.15755,0.14579 v -0.33462 l 0.28939,-0.28951 0.28939,-0.28951 0.003,-0.51329 0.003,-0.51329 h 0.27142 0.27142 v 0.62603 0.62604 l -0.2919,0.29301 -0.29191,0.29301 v 0.21838 0.21837 h -0.27177 -0.27177 z m 1.74136,-0.8028 v -1.13742 h 0.27178 0.27177 v 1.13742 1.13742 h -0.27177 -0.27178 z m 1.74136,0.91905 v -0.21838 l -0.2919,-0.29301 -0.2919,-0.29301 v -0.62604 -0.62603 h 0.27142 0.27142 l 0.003,0.51329 0.003,0.51329 0.28939,0.28951 0.28938,0.28951 v 0.33462 0.33462 h -0.27177 -0.27177 z m 1.15756,-0.14629 v -0.36466 l -0.29191,-0.29252 -0.2919,-0.29252 v -0.48024 -0.48024 h 0.2768 0.27681 v 0.36951 0.36951 l 0.28687,0.2875 0.28687,0.2875 v 0.48041 0.48041 h -0.27177 -0.27177 z m 1.15755,-0.14624 v -0.5109 l -0.28687,-0.28674 -0.28687,-0.28674 v -0.33978 -0.33978 h 0.27177 0.27177 v 0.22357 0.22356 l 0.29191,0.29252 0.2919,0.29253 v 0.62133 0.62133 h -0.2768 -0.27681 z m -11.30916,-1.23292 c -0.003,-0.007 -0.004,-0.39086 -0.002,-0.85312 l 0.003,-0.84049 0.26894,-0.003 0.26894,-0.003 0.003,0.57308 c 0.002,0.31519 0.007,0.57684 0.0112,0.58145 0.005,0.005 0.26626,0.01 0.58145,0.0112 l 0.57308,0.003 -0.003,0.26894 -0.003,0.26894 -0.84833,0.003 c -0.67333,0.002 -0.84932,0 -0.85315,-0.0101 z m 13.34919,0.006 c -0.004,-0.004 -0.007,-0.1259 -0.007,-0.27151 v -0.26475 l 0.57291,-0.003 c 0.3151,-0.002 0.57668,-0.007 0.58129,-0.0112 0.005,-0.005 0.01,-0.26626 0.0112,-0.58145 l 0.003,-0.57308 0.26894,0.003 0.26894,0.003 v 0.85055 0.85055 l -0.8463,0.003 c -0.46547,0.001 -0.84935,-4.7e-4 -0.85307,-0.004 z m -11.51686,-1.17583 c -0.29539,-0.0651 -0.52985,-0.27646 -0.6312,-0.56894 l -0.0331,-0.0956 v -5.68207 -5.68207 l 0.0331,-0.0956 c 0.0911,-0.26299 0.28265,-0.45451 0.54564,-0.54564 l 0.0956,-0.0331 h 5.68207 5.68207 l 0.0956,0.0331 c 0.26299,0.0911 0.45451,0.28265 0.54564,0.54564 l 0.0331,0.0956 v 5.68207 5.68207 l -0.0331,0.0956 c -0.0911,0.26299 -0.28265,0.45451 -0.54564,0.54564 l -0.0956,0.0331 -5.65691,0.002 c -4.6595,0.001 -5.66755,-6.1e-4 -5.7173,-0.0116 z m 11.31383,-0.54968 c 0.0749,-0.028 0.14724,-0.10037 0.17527,-0.17527 l 0.021,-0.0561 v -5.56556 -5.56556 l -0.021,-0.0561 c -0.028,-0.0749 -0.10037,-0.14724 -0.17527,-0.17526 l -0.0561,-0.021 h -5.56556 -5.56556 l -0.0561,0.021 c -0.0749,0.028 -0.14725,0.10036 -0.17527,0.17526 l -0.021,0.0561 v 5.56556 5.56556 l 0.021,0.0561 c 0.0273,0.073 0.10042,0.14712 0.17241,0.17478 l 0.0532,0.0204 5.56845,5.3e-4 5.56846,5.2e-4 0.0561,-0.021 z m -10.24724,-1.17932 c -0.003,-0.007 -0.004,-2.08939 -0.002,-4.6277 l 0.003,-4.61511 h 4.62518 4.62517 v 4.04136 4.04137 l -0.19628,0.006 c -0.21722,0.007 -0.31891,0.0249 -0.437,0.0784 -0.24695,0.11197 -0.43689,0.33979 -0.50027,0.60003 -0.0171,0.0702 -0.0234,0.1347 -0.0281,0.28687 l -0.006,0.19628 -4.03917,0.003 c -3.22605,0.002 -4.04012,-1e-5 -4.04394,-0.0101 z m 7.57539,-0.57124 c 0.0994,-0.34221 0.18807,-0.50197 0.39133,-0.70523 0.20325,-0.20326 0.36301,-0.29191 0.70523,-0.39133 l 0.0252,-0.007 v -3.50704 -3.50705 h -4.07156 -4.07157 l -0.003,4.0615 c -10e-4,2.23382 -4.2e-4,4.06716 0.002,4.07409 0.004,0.0101 0.71103,0.0121 3.50963,0.0101 l 3.50484,-0.003 z m -5.54218,-1.46204 c -0.003,-0.007 -0.004,-0.1306 -0.002,-0.27445 l 0.003,-0.26154 h 0.27177 0.27177 v 0.27177 0.27177 l -0.26951,0.003 c -0.21195,0.002 -0.27057,-1e-4 -0.27446,-0.0102 z m 1.16301,-0.26422 v -0.27713 l 0.26926,0.003 0.26926,0.003 v 0.27177 0.27178 l -0.26926,0.003 -0.26926,0.003 z m 1.15991,0.003 0.003,-0.27429 h 0.26674 0.26674 l 0.003,0.27429 0.003,0.27429 h -0.27209 -0.2721 z m 1.15974,0.26154 c -0.003,-0.007 -0.004,-0.13044 -0.002,-0.27429 l 0.003,-0.26154 0.26925,-0.003 0.26926,-0.003 v 0.27697 0.27697 h -0.26706 c -0.2062,0 -0.26817,-0.003 -0.27194,-0.0127 z m 1.15761,1.6e-4 c -0.003,-0.007 -0.004,-0.13061 -0.002,-0.27446 l 0.003,-0.26154 h 0.27178 0.27177 v 0.27178 0.27177 l -0.26951,0.003 c -0.21195,0.002 -0.27057,-1e-4 -0.27446,-0.0102 z m -4.64252,-1.42429 0.003,-0.26926 h 0.27177 0.27177 l 0.003,0.26926 0.003,0.26925 h -0.27714 -0.27713 z m 1.16526,-0.003 v -0.27194 l 0.26926,0.003 0.26926,0.003 0.003,0.26926 0.003,0.26926 h -0.27194 -0.27194 z m 1.15755,1.5e-4 v -0.27177 h 0.27178 0.27177 v 0.27177 0.27177 h -0.27177 -0.27178 z m 1.15991,0.003 0.003,-0.26926 0.26926,-0.003 0.26925,-0.003 v 0.27194 0.27194 h -0.27193 -0.27194 z m 1.15755,0 0.003,-0.26926 h 0.27178 0.27177 l 0.003,0.26926 0.003,0.26925 h -0.27713 -0.27714 z m -4.64263,-1.16006 v -0.27209 l 0.27429,0.003 0.27429,0.003 v 0.26674 0.26674 l -0.27429,0.003 -0.27429,0.003 z m 1.16762,0 v -0.27177 h 0.27177 0.27178 v 0.27177 0.27178 h -0.27178 -0.27177 z m 1.15755,0 v -0.27177 h 0.27178 0.27177 v 0.27177 0.27178 h -0.27177 -0.27178 z m 1.15756,0 v -0.27177 h 0.27177 0.27177 v 0.27177 0.27178 h -0.27177 -0.27177 z m 1.16209,0.25902 c -0.003,-0.007 -0.004,-0.12818 -0.002,-0.26926 l 0.003,-0.2565 0.27429,-0.003 0.27429,-0.003 v 0.27193 0.27194 h -0.27209 c -0.21036,0 -0.2732,-0.003 -0.27698,-0.0128 z m -4.63794,-1.15135 c -0.004,-0.004 -0.007,-0.12614 -0.007,-0.27193 v -0.26506 h 0.27697 0.27697 l -0.003,0.26925 -0.003,0.26926 -0.26742,0.003 c -0.14708,0.001 -0.27051,-4.1e-4 -0.27429,-0.004 z m 1.16074,-0.26505 v -0.27194 h 0.27194 0.27194 l -0.003,0.26925 -0.003,0.26926 -0.26925,0.003 -0.26926,0.003 z m 1.15755,-1.6e-4 v -0.27177 h 0.27178 0.27177 v 0.27177 0.27178 h -0.27177 -0.27178 z m 1.16427,0.26507 c -0.004,-0.004 -0.007,-0.12599 -0.007,-0.27178 v -0.26506 h 0.27177 0.27177 v 0.27177 0.27178 h -0.26506 c -0.14579,0 -0.26808,-0.003 -0.27177,-0.007 z m 1.15771,1.5e-4 c -0.004,-0.004 -0.007,-0.12615 -0.007,-0.27194 v -0.26506 h 0.27697 0.27697 l -0.003,0.26926 -0.003,0.26925 -0.26742,0.003 c -0.14708,0.001 -0.27051,-4.1e-4 -0.27429,-0.004 z m -4.64254,-1.16359 c -0.003,-0.007 -0.004,-0.13061 -0.002,-0.27445 l 0.003,-0.26155 h 0.27177 0.27177 v 0.27178 0.27177 l -0.26951,0.003 c -0.21195,0.002 -0.27057,-7e-5 -0.27446,-0.0102 z m 1.16301,-0.26422 v -0.27714 l 0.26926,0.003 0.26926,0.003 v 0.27177 0.27177 l -0.26926,0.003 -0.26926,0.003 z m 1.16443,0.27026 c -0.004,-0.004 -0.007,-0.12842 -0.007,-0.27697 v -0.2701 h 0.27194 0.27193 l -0.003,0.27429 -0.003,0.27429 -0.26239,0.003 c -0.14431,0.001 -0.26547,-4.2e-4 -0.26925,-0.004 z m 1.15522,-0.006 c -0.003,-0.007 -0.004,-0.13045 -0.002,-0.27429 l 0.003,-0.26155 0.26925,-0.003 0.26926,-0.003 v 0.27697 0.27697 h -0.26706 c -0.2062,0 -0.26817,-0.003 -0.27194,-0.0127 z m 1.15761,1.5e-4 c -0.003,-0.007 -0.004,-0.13061 -0.002,-0.27446 l 0.003,-0.26154 h 0.27178 0.27177 v 0.27177 0.27178 l -0.26951,0.003 c -0.21195,0.002 -0.27057,-8e-5 -0.27446,-0.0102 z m 2.03327,6.67354 c -0.003,-0.007 -0.004,-0.13061 -0.002,-0.27446 l 0.003,-0.26154 h 0.27177 0.27178 v 0.27177 0.27178 l -0.26951,0.003 c -0.21196,0.002 -0.27057,-1e-4 -0.27447,-0.0102 z m -13.34162,-0.55613 v -0.27681 h 0.5109 0.5109 l 0.28674,-0.28687 0.28674,-0.28687 h 0.33978 0.33978 v 0.27177 0.27178 h -0.22357 -0.22356 l -0.29252,0.2919 -0.29253,0.2919 h -0.62133 -0.62133 z m 16.98546,-0.0152 -0.29226,-0.29185 h -0.2236 -0.22361 v -0.27178 -0.27177 h 0.33979 0.33978 l 0.28674,0.28687 0.28674,0.28687 h 0.5109 0.51089 v 0.27681 0.2768 h -0.62155 -0.62156 l -0.29226,-0.29185 z m -16.98546,-1.14742 v -0.27178 h 0.36466 0.36466 l 0.29252,-0.2919 0.29252,-0.29191 h 0.48024 0.48024 v 0.27681 0.27681 h -0.36951 -0.36951 l -0.2875,0.28687 -0.2875,0.28687 h -0.48041 -0.48041 z m 17.27233,-0.0152 -0.28723,-0.28682 h -0.36956 -0.36955 v -0.27681 -0.27681 h 0.48024 0.48025 l 0.29252,0.29191 0.29252,0.2919 h 0.36466 0.36465 v 0.27178 0.27177 h -0.48063 -0.48064 l -0.28723,-0.28682 z m -17.27233,-1.14241 v -0.27177 h 0.21837 0.21838 l 0.29301,-0.2919 0.29301,-0.29191 h 0.62604 0.62603 v 0.27143 0.27142 l -0.51329,0.003 -0.51329,0.003 -0.28951,0.28939 -0.28951,0.28939 h -0.33462 -0.33462 z m 17.56204,-0.0176 -0.28938,-0.28939 -0.51333,-0.003 -0.51334,-0.003 v -0.27142 -0.27142 h 0.62604 0.62603 l 0.29301,0.2919 0.29302,0.29191 h 0.21837 0.21837 v 0.27177 0.27178 h -0.3347 -0.33471 z m -17.56204,-1.72375 v -0.27177 h 1.13742 1.13742 v 0.27177 0.27178 h -1.13742 -1.13742 z m 16.24599,0 v -0.27177 h 1.13742 1.13742 v 0.27177 0.27178 h -1.13742 -1.13742 z m -15.51623,-1.17768 -0.29301,-0.2919 h -0.21838 -0.21837 v -0.27178 -0.27177 h 0.33462 0.33462 l 0.28951,0.28939 0.28951,0.28939 0.51329,0.003 0.51329,0.003 v 0.27142 0.27143 h -0.62603 -0.62604 z m 15.51623,0.0205 v -0.27142 l 0.51329,-0.003 0.5133,-0.003 0.2895,-0.28938 0.28952,-0.28939 h 0.33461 0.33462 v 0.27177 0.27177 h -0.21837 -0.21837 l -0.29302,0.29191 -0.29301,0.2919 h -0.62603 -0.62604 z m -15.22415,-1.17803 -0.29252,-0.29191 h -0.36466 -0.36466 v -0.27177 -0.27177 h 0.48041 0.48041 l 0.2875,0.28687 0.2875,0.28687 h 0.36951 0.36951 v 0.27681 0.2768 h -0.48024 -0.48024 z m 15.22415,0.0151 v -0.27681 h 0.36952 0.36951 l 0.2875,-0.28687 0.2875,-0.28687 h 0.48041 0.4804 v 0.27177 0.27177 h -0.36465 -0.36466 l -0.29252,0.29191 -0.29252,0.2919 h -0.48025 -0.48024 z m -14.93745,-1.17769 -0.28674,-0.28687 h -0.5109 -0.5109 v -0.2768 -0.27681 h 0.62133 0.62133 l 0.29253,0.2919 0.29252,0.29191 h 0.22356 0.22357 v 0.27177 0.27177 h -0.33978 -0.33978 z m 14.93745,0.0151 v -0.27177 h 0.22357 0.22357 l 0.29252,-0.29191 0.29252,-0.2919 h 0.62133 0.62133 v 0.27681 0.2768 h -0.51089 -0.5109 l -0.28674,0.28687 -0.28674,0.28687 h -0.33978 -0.33979 z m -14.51006,-2.34782 c -0.003,-0.007 -0.004,-0.3908 -0.002,-0.85306 l 0.003,-0.84048 h 0.85055 0.85055 l 0.003,0.26893 0.003,0.26894 -0.57307,0.003 c -0.31519,0.002 -0.57685,0.007 -0.58146,0.0112 -0.005,0.005 -0.01,0.26619 -0.0112,0.5813 l -0.003,0.57291 h -0.26674 c -0.20412,0 -0.26786,-0.003 -0.27153,-0.0126 z m 14.50786,-0.56016 c -0.002,-0.31519 -0.007,-0.57685 -0.0112,-0.58146 -0.005,-0.005 -0.26627,-0.01 -0.58146,-0.0112 l -0.57307,-0.003 0.003,-0.26894 0.003,-0.26893 h 0.85055 0.85055 v 0.85054 0.85055 l -0.26894,0.003 -0.26894,0.003 z m -10.73787,-0.81844 v -0.22357 l -0.2919,-0.29252 -0.29191,-0.29252 v -0.62133 -0.62133 h 0.27681 0.2768 v 0.5109 0.51089 l 0.28688,0.28674 0.28687,0.28674 v 0.33979 0.33978 h -0.27178 -0.27177 z m 1.15755,-0.14594 v -0.36952 l -0.28687,-0.2875 -0.28687,-0.2875 v -0.4804 -0.48041 h 0.27177 0.27178 v 0.36465 0.36466 l 0.2919,0.29252 0.29191,0.29252 v 0.48025 0.48024 h -0.27681 -0.27681 z m 1.16546,-0.14378 -0.003,-0.5133 -0.28939,-0.2895 -0.28939,-0.28951 v -0.33462 -0.33462 h 0.27177 0.27178 v 0.21837 0.21837 l 0.2919,0.29302 0.29191,0.29301 v 0.62603 0.62604 h -0.27143 -0.27142 z m 1.15971,-0.62413 v -1.13742 h 0.27178 0.27177 v 1.13742 1.13742 h -0.27177 -0.27178 z m 1.15756,0.51138 v -0.62603 l 0.2919,-0.29301 0.2919,-0.29302 v -0.21837 -0.21837 h 0.27178 0.27177 v 0.33462 0.33462 l -0.28939,0.28951 -0.28938,0.2895 -0.003,0.5133 -0.003,0.51329 h -0.27142 -0.27143 z m 1.15755,0.1458 v -0.48025 l 0.2919,-0.29252 0.29191,-0.29252 v -0.36466 -0.36465 h 0.27177 0.27177 v 0.48041 0.4804 l -0.28687,0.2875 -0.28687,0.2875 v 0.36952 0.36951 h -0.27681 -0.2768 z m 1.16762,0.14046 v -0.33979 l 0.28687,-0.28674 0.28687,-0.28674 v -0.51089 -0.5109 h 0.27681 0.2768 v 0.62133 0.62133 l -0.2919,0.29252 -0.29191,0.29252 v 0.22357 0.22357 h -0.27177 -0.27177 z"
       id="path826"
       inkscape:connector-curvature="0" />
  </g>
</svg>
